<?xml version="1.0" encoding="UTF-8" standalone="no"?>
<!DOCTYPE svg PUBLIC "-//W3C//DTD SVG 1.1//EN"
"http://www.w3.org/Graphics/SVG/1.1/DTD/svg11.dtd">
<svg viewBox="0 0 909 1286" version="1.1" xmlns="http://www.w3.org/2000/svg" xmlns:xlink="http://www.w3.org/1999/xlink">
<defs>
<style type="text/css"><![CDATA[
.g0_72{
fill: none;
stroke: #000000;
stroke-width: 0.6080556;
stroke-linecap: butt;
stroke-linejoin: miter;
}
]]></style>
</defs>
<path d="M108.3,290.3H801.2m-692.6,9v-8.7m692.3,8.7v-8.7M108.6,320V299.3M800.9,320V299.3M108.6,340.7V320m692.3,20.7V320M108.6,361.4V340.7m692.3,20.7V340.7M108.6,382.1V361.4m692.3,20.7V361.4M108.6,402.8V382.1m692.3,20.7V382.1M108.6,423.5V402.8m692.3,20.7V402.8M108.6,444.2V423.5m692.3,20.7V423.5M108.6,464.9V444.2m692.3,20.7V444.2M108.6,485.6V464.9m692.3,20.7V464.9M108.6,506.3V485.6m692.3,20.7V485.6M108.6,527V506.3M800.9,527V506.3M108.6,547.7V527m692.3,20.7V527M108.6,556.4v-8.7m692.3,8.7v-8.7m-692.6,9H801.2M108.3,754.3H801.2m-692.6,9v-8.7m692.3,8.7v-8.7M108.6,784V763.3M800.9,784V763.3M108.6,804.7V784m692.3,20.7V784M108.6,825.4V804.7m692.3,20.7V804.7M108.6,846.1V825.4m692.3,20.7V825.4M108.6,866.8V846.1m692.3,20.7V846.1M108.6,887.5V866.8m692.3,20.7V866.8M108.6,908.2V887.5m692.3,20.7V887.5M108.6,928.9V908.2m692.3,20.7V908.2M108.6,949.6V928.9m692.3,20.7V928.9M108.6,970.3V949.6m692.3,20.7V949.6M108.6,978.9v-8.6m692.3,8.6v-8.6m-692.6,8.9H801.2" class="g0_72" />
</svg>