<?xml version="1.0" encoding="UTF-8" standalone="no"?>
<!DOCTYPE svg PUBLIC "-//W3C//DTD SVG 1.1//EN"
"http://www.w3.org/Graphics/SVG/1.1/DTD/svg11.dtd">
<svg viewBox="0 0 909 1286" version="1.1" xmlns="http://www.w3.org/2000/svg" xmlns:xlink="http://www.w3.org/1999/xlink">
<defs>
<style type="text/css"><![CDATA[
.g0_27{
fill: none;
stroke: #000000;
stroke-width: 0.7608333;
stroke-linecap: butt;
stroke-linejoin: miter;
}
]]></style>
</defs>
<path d="M183.1,358.3H731m-547.6,9.1v-8.7m547.2,8.7v-8.7M183.4,384.1V367.4m547.2,16.7V367.4M183.4,400.8V384.1m547.2,16.7V384.1M183.4,409.5v-8.7m547.2,8.7v-8.7m-547.5,9.1H731M183.1,629.1H731m-547.6,9v-8.6m547.2,8.6v-8.6M183.4,654.9V638.1m547.2,16.8V638.1M183.4,671.6V654.9m547.2,16.7V654.9M183.4,688.4V671.6m547.2,16.8V671.6M183.4,705.1V688.4m547.2,16.7V688.4M183.4,713.8v-8.7m547.2,8.7v-8.7m-547.5,9.1H731" class="g0_27" />
</svg>