<?xml version="1.0" encoding="UTF-8" standalone="no"?>
<!DOCTYPE svg PUBLIC "-//W3C//DTD SVG 1.1//EN"
"http://www.w3.org/Graphics/SVG/1.1/DTD/svg11.dtd">
<svg viewBox="0 0 909 1286" version="1.1" xmlns="http://www.w3.org/2000/svg" xmlns:xlink="http://www.w3.org/1999/xlink">
<defs>
<style type="text/css"><![CDATA[
.g0_13{
fill: #FFFFFF;
}
.g1_13{
fill: none;
stroke: #0000FF;
stroke-width: 2.0625;
stroke-linecap: square;
stroke-linejoin: round;
}
.g2_13{
fill: none;
stroke: #00BFBF;
stroke-width: 1.3750001;
stroke-linecap: butt;
stroke-linejoin: round;
stroke-dasharray: 5,5;
}
.g3_13{
fill: none;
stroke: #FF0000;
stroke-width: 2.0625;
stroke-linecap: square;
stroke-linejoin: round;
}
.g4_13{
fill: #00BFBF;
stroke: #000000;
stroke-width: 0.34375003;
stroke-linecap: butt;
stroke-linejoin: bevel;
}
.g5_13{
stroke: #000000;
stroke-width: 0.34375003;
stroke-linecap: butt;
stroke-linejoin: round;
}
.g6_13{
fill: none;
stroke: #000000;
stroke-width: 0.68750006;
stroke-linecap: butt;
stroke-linejoin: round;
}
.g7_13{
fill: #FFFFFF;
stroke: #000000;
stroke-width: 0.68750006;
stroke-linecap: butt;
stroke-linejoin: round;
}
.g8_13{
fill: none;
stroke: #000000;
stroke-width: 0.6661112;
stroke-linecap: butt;
stroke-linejoin: miter;
}
]]></style>
</defs>
<path d="M277.1,476.3H637v-278H277.1Z" class="g0_13" />
<path d="M317.1,445.7H624V208.1H317.1Z" class="g0_13" />
<path d="M317.1,227.9l1.2,16.4l1.2,14.7l1.2,13.1l1.3,11.7l1.5,13.1l1.5,11.6l1.6,10.3l1.5,9.1l1.5,8.2l1.6,7.4l1.5,6.7l1.5,6l1.6,5.5l1.5,5l1.9,5.4L341,377l1.8,4.4l1.9,4l1.8,3.6l1.9,3.3l1.8,3.1l2.2,3.2l2.1,2.9l2.2,2.7l2.1,2.4l2.1,2.2l2.5,2.3l2.5,2.1l2.4,1.9l2.8,2l2.7,1.8l3.1,1.8l3.1,1.6l3.4,1.6l3.6,1.6l3.7,1.4l4,1.3l4.3,1.3l4.6,1.3l5.2,1.2l5.5,1.2l6.2,1.1l6.7,1.1l7.4,1l8,.9l8.9,.9l10.1,.8l11.4,.8l12.9,.7l14.7,.7l17.2,.7l19.9,.6l23.7,.5l28.5,.5l34.1,.4" class="g1_13" />
<path d="M317.1,445.7l64.1,-.1l9.5,-.1l6.2,-.3l4.9,-.3l4,-.5l3.3,-.5l3.1,-.6l2.8,-.7l2.4,-.7l2.5,-.9l2.1,-1l2.2,-1.1l2.1,-1.3l2.2,-1.5l1.8,-1.4l1.8,-1.6l1.9,-1.8l1.8,-2l1.9,-2.2l1.8,-2.4l1.9,-2.7l1.8,-2.9l2.1,-3.6l2.2,-4.1l2.1,-4.3l2.2,-4.7l2.4,-5.8l2.5,-6.3l2.8,-7.4l3,-8.8l3.4,-10.2l5.5,-17.2l5.2,-16l3.1,-9l2.5,-6.7l2.1,-5.5l1.9,-4.3l1.8,-3.9l1.5,-3l1.6,-2.6l1.5,-2.3l1.2,-1.6l1.3,-1.4l1.2,-1.1l1.2,-.9l.9,-.5l1,-.3l.9,-.2l.9,-.1l.9,.1l.9,.2l1,.3l.9,.5l.9,.7l1.2,1l1.3,1.3l1.2,1.6l1.2,1.7l1.6,2.5l1.5,2.9l1.5,3.1l1.9,4.1l1.8,4.5l2.2,5.7l2.4,6.8l3.1,9.2l4.3,13.2l7,21.9l3.4,9.9l2.8,7.7l2.7,7.3l2.5,6l2.4,5.6l2.2,4.5l2.1,4.2l2.2,3.8l2.1,3.5l2.2,3.2l1.8,2.4l1.9,2.3l1.8,2l1.8,1.8l1.9,1.7l2.1,1.6l2.2,1.5l2.1,1.3l2.2,1.1l2.1,1l2.5,.9l2.4,.7l2.8,.7l3.1,.6l3.3,.5l4,.5l4.6,.3l5.9,.2l7.6,.2H624" class="g2_13" />
<path d="M317.1,445.7l56.1,-.1l10.8,-.1l7,-.3l5.5,-.3l4.7,-.5l3.9,-.5l3.7,-.7l3.1,-.6l3.1,-.9l2.7,-.9l2.8,-1.1l2.4,-1.1l2.5,-1.3l2.5,-1.4l2.4,-1.6l2.5,-1.8l2.4,-2.1l2.5,-2.2l2.4,-2.4l2.5,-2.7l2.7,-3.2l2.8,-3.4l3.1,-4.1l3.7,-5.1l4.9,-7.2l7.3,-10.8l3.4,-4.6l2.8,-3.6l2.4,-2.8l2.2,-2.3l1.8,-1.7l1.9,-1.6l1.8,-1.3l1.5,-.9l1.6,-.7l1.5,-.6l1.5,-.4l1.6,-.2h1.5l1.5,.1l1.6,.4l1.5,.5l1.5,.7l1.6,.9l1.5,1l1.9,1.5l1.8,1.6l1.8,1.9l2.2,2.4l2.4,3l2.8,3.7l3.4,4.8l4.9,7.2l6.7,10l3.7,5.2l3.1,4l2.8,3.5l2.7,3.1l2.5,2.6l2.4,2.4l2.5,2.2l2.4,2l2.5,1.8l2.5,1.5l2.4,1.4l2.5,1.2l2.4,1.1l2.8,1l2.7,.9l3.1,.7l3.4,.7l3.7,.6l4,.5l4.6,.3l5.5,.3l7,.2l10.2,.1l12.9,.1" class="g3_13" />
<path d="M501.2,280.4l-1.5,4.8h-5l4,2.9l-1.5,4.8l4,-3l4,3l-1.5,-4.8l4,-2.9h-5Z" class="g4_13" />
<path d="M317.1,445.7v-2.8" class="g5_13" />
<path d="M317.1,208.1v2.7" class="g5_13" />
<path d="M378.4,445.7v-2.8" class="g5_13" />
<path d="M378.4,208.1v2.7" class="g5_13" />
<path d="M439.8,445.7v-2.8" class="g5_13" />
<path d="M439.8,208.1v2.7" class="g5_13" />
<path d="M501.2,445.7v-2.8" class="g5_13" />
<path d="M501.2,208.1v2.7" class="g5_13" />
<path d="M562.6,445.7v-2.8" class="g5_13" />
<path d="M562.6,208.1v2.7" class="g5_13" />
<path d="M624,445.7v-2.8" class="g5_13" />
<path d="M624,208.1v2.7" class="g5_13" />
<path d="M317.1,445.7h2.7" class="g5_13" />
<path d="M624,445.7h-2.8" class="g5_13" />
<path d="M317.1,406.1h2.7" class="g5_13" />
<path d="M624,406.1h-2.8" class="g5_13" />
<path d="M317.1,366.5h2.7" class="g5_13" />
<path d="M624,366.5h-2.8" class="g5_13" />
<path d="M317.1,326.9h2.7" class="g5_13" />
<path d="M624,326.9h-2.8" class="g5_13" />
<path d="M317.1,287.3h2.7" class="g5_13" />
<path d="M624,287.3h-2.8" class="g5_13" />
<path d="M317.1,247.7h2.7" class="g5_13" />
<path d="M624,247.7h-2.8" class="g5_13" />
<path d="M317.1,208.1h2.7" class="g5_13" />
<path d="M624,208.1h-2.8" class="g5_13" />
<path d="M317.1,208.1H624m0,237.6V208.1M317.1,445.7H624m-306.9,0V208.1" class="g6_13" />
<path d="M514.9,292.3H617.4V214.7H514.9v77.6Z" class="g7_13" />
<path d="M520.1,224.6h26.4" class="g1_13" />
<path d="M520.1,243h26.4" class="g2_13" />
<path d="M520.1,261.4h26.4" class="g3_13" />
<path d="M533.3,272.9l-1.5,4.8h-5l4,2.9l-1.5,4.8l4,-3l4.1,3l-1.6,-4.8l4.1,-2.9h-5Z" class="g4_13" />
<path d="M461.6,672.5h78.2" class="g8_13" />
</svg>