<?xml version="1.0" encoding="UTF-8" standalone="no"?>
<!DOCTYPE svg PUBLIC "-//W3C//DTD SVG 1.1//EN"
"http://www.w3.org/Graphics/SVG/1.1/DTD/svg11.dtd">
<svg viewBox="0 0 909 1286" version="1.1" xmlns="http://www.w3.org/2000/svg" xmlns:xlink="http://www.w3.org/1999/xlink">
<defs>
<style type="text/css"><![CDATA[
.g0_86{
fill: none;
stroke: #000000;
stroke-width: 0.6080556;
stroke-linecap: butt;
stroke-linejoin: miter;
}
]]></style>
</defs>
<path d="M108.6,132.7V112m692.3,20.7V112M108.6,153.4V132.7m692.3,20.7V132.7M108.6,162.1v-8.7m692.3,8.7v-8.7m-692.6,9H801.2M441.3,387H447m132.9,44.2h5.7M310.2,475.3h5.6M108.3,835H801.2m-692.6,9v-8.7M800.9,844v-8.7M108.6,864.7V844m692.3,20.7V844M108.6,885.4V864.7m692.3,20.7V864.7M108.6,906.1V885.4m692.3,20.7V885.4M108.6,926.8V906.1m692.3,20.7V906.1M108.6,947.5V926.8m692.3,20.7V926.8M108.6,968.2V947.5m692.3,20.7V947.5M108.6,988.9V968.2m692.3,20.7V968.2m-692.3,41.4V988.9m692.3,20.7V988.9m-692.3,41.4v-20.7m692.3,20.7v-20.7M108.6,1051v-20.7M800.9,1051v-20.7m-692.3,41.4V1051m692.3,20.7V1051m-692.3,41.4v-20.7m692.3,20.7v-20.7m-692.3,29.4v-8.7m692.3,8.7v-8.7m-692.6,9H801.2" class="g0_86" />
</svg>