<?xml version="1.0" encoding="UTF-8" standalone="no"?>
<!DOCTYPE svg PUBLIC "-//W3C//DTD SVG 1.1//EN"
"http://www.w3.org/Graphics/SVG/1.1/DTD/svg11.dtd">
<svg viewBox="0 0 909 1286" version="1.1" xmlns="http://www.w3.org/2000/svg" xmlns:xlink="http://www.w3.org/1999/xlink">
<defs>
<style type="text/css"><![CDATA[
.g0_33{
fill: none;
stroke: #000000;
stroke-width: 0.7608333;
stroke-linecap: butt;
stroke-linejoin: miter;
}
]]></style>
</defs>
<path d="M183.4,220V203.3M730.6,220V203.3M183.4,236.8V220m547.2,16.8V220M183.4,253.5V236.8m547.2,16.7V236.8M183.4,270.3V253.5m547.2,16.8V253.5M183.4,287V270.3M730.6,287V270.3M183.4,303.8V287m547.2,16.8V287M183.4,320.5V303.8m547.2,16.7V303.8M183.4,337.2V320.5m547.2,16.7V320.5M183.4,354V337.2M730.6,354V337.2M183.4,370.7V354m547.2,16.7V354M183.4,387.5V370.7m547.2,16.8V370.7M183.4,404.2V387.5m547.2,16.7V387.5M183.4,421V404.2M730.6,421V404.2M183.4,437.7V421m547.2,16.7V421M183.4,446.4v-8.7m547.2,8.7v-8.7m-547.5,9H731M183.1,888.2H731m-547.6,9v-8.6m547.2,8.6v-8.6M183.4,914V897.2M730.6,914V897.2M183.4,922.6V914m547.2,8.6V914m-547.5,9H731" class="g0_33" />
</svg>