<?xml version="1.0" encoding="UTF-8" standalone="no"?>
<!DOCTYPE svg PUBLIC "-//W3C//DTD SVG 1.1//EN"
"http://www.w3.org/Graphics/SVG/1.1/DTD/svg11.dtd">
<svg viewBox="0 0 909 1286" version="1.1" xmlns="http://www.w3.org/2000/svg" xmlns:xlink="http://www.w3.org/1999/xlink">
<defs>
<style type="text/css"><![CDATA[
.g0_14{
fill: #FFFFFF;
}
.g1_14{
fill: none;
stroke: #0000FF;
stroke-width: 0.68750006;
stroke-linecap: butt;
stroke-linejoin: round;
stroke-opacity: 0.5;
}
.g2_14{
fill: none;
stroke: #FF0000;
stroke-width: 1.3750001;
stroke-linecap: square;
stroke-linejoin: round;
stroke-opacity: 0.5;
}
.g3_14{
fill: #0000FF;
fill-opacity: 0.5;
stroke: #0000FF;
stroke-width: 0.34375003;
stroke-linecap: butt;
stroke-linejoin: round;
stroke-opacity: 0.5;
}
.g4_14{
fill: none;
stroke: #000000;
stroke-width: 0.68750006;
stroke-linecap: square;
stroke-linejoin: miter;
}
.g5_14{
stroke: #000000;
stroke-width: 0.34375003;
stroke-linecap: butt;
stroke-linejoin: round;
}
]]></style>
</defs>
<path d="M285.3,471.4H628.8V198.3H285.3Z" class="g0_14" />
<path d="M316.9,440.8H623.8V203.2H316.9Z" class="g0_14" />
<path d="M342.5,270.3V238.6m2.5,53.3V260.2m2.6,22.6V251.1m2.6,11.7V231.1m2.5,37.6V237m2.6,76.7V282.1m2.5,1.1V251.5m2.6,49.2V269m2.5,30.9V268.2m2.6,23.6V260.1m2.6,35.9V264.3m2.5,10.9V243.6m2.6,42.6V254.5m2.5,41.8V264.7m2.6,26.5V259.6m2.6,33.4V261.3m2.5,13.3V242.9m2.6,58.6V269.8m2.5,23.5V261.6m2.6,50.2V280.1m2.5,58.6V307m2.6,-19.1V256.2m2.6,28.4V252.9m2.5,57.1V278.3m2.6,-16V230.6m2.5,90.7V289.6m2.6,87.1V345.1m2.5,35.3V348.8m2.6,4.4V321.5m2.6,32.7V322.5m2.5,52.5V343.3m2.6,28.2V339.8m2.5,51.7V359.9m2.6,48.9V377.2m2.5,5.8V351.3M432,375V343.3m2.6,14.7V326.3m2.5,32.1V326.7m2.6,56.9V351.9m2.5,30.4V350.6m2.6,43.5V362.4m2.5,37.6V368.3m2.6,36.2V372.8m2.6,-26.2V314.9m2.5,70.6V353.9m2.6,-48.7V273.5m2.5,44.6V286.4m2.6,-.4V254.3m2.5,69.5V292.2m2.6,9.4V270m2.6,42.5V280.8m2.5,11.3V260.5m2.6,45.9V274.7M478,317V285.3m2.6,13.4V267m2.6,24.5V259.8m2.5,37.4V265.5m2.6,28V261.8m2.5,46.5V276.6m2.6,27.4V272.3m2.5,36.6V277.2m2.6,26.8V272.3m2.6,38.8V279.5m2.5,46.1V293.9m2.6,1.6V263.8m2.5,40.8V273m2.6,51.1V292.4m2.5,-1.5V259.3m2.6,53.3V281m2.6,16.4V265.8m2.5,20.9V255m2.6,41.2V264.5m2.5,15.7V248.5m2.6,69.3V286.1m2.5,5.8V260.2m2.6,48.9V277.4m2.6,34.7V280.4m2.5,27V275.8m2.6,27.4V271.5m2.5,25.9V265.7m2.6,51V285m2.5,-1V252.3m2.6,38.6V259.2m2.6,63.4V290.9m2.5,-16.2V243m2.6,25.2V236.6m2.5,43V247.9m2.6,53.2V269.4m2.5,45.8V283.5m2.6,-1.9V249.9m2.6,54.8V273m2.5,5.9V247.2m2.6,47.8V263.3m2.5,19.5V251.1m2.6,41.5V260.9m2.6,26.2V255.4m2.5,42.7V266.4m2.6,3.6V238.3m2.5,58V264.6m2.6,27.3V260.2m2.5,8.2V236.8" class="g1_14" />
<path d="M342.5,282.4h63.9l2.6,79.2h46l2.6,-79.2H598.2" class="g2_14" />
<path d="M344.6,270.3h-4.2" class="g3_14" />
<path d="M347.1,291.9H343" class="g3_14" />
<path d="M349.7,282.8h-4.2" class="g3_14" />
<path d="M352.2,262.8h-4.1" class="g3_14" />
<path d="M354.8,268.7h-4.1" class="g3_14" />
<path d="M357.3,313.7h-4.1" class="g3_14" />
<path d="M359.9,283.2h-4.1" class="g3_14" />
<path d="M362.5,300.7h-4.2" class="g3_14" />
<path d="M365,299.9h-4.1" class="g3_14" />
<path d="M367.6,291.8h-4.2" class="g3_14" />
<path d="M370.1,296H366" class="g3_14" />
<path d="M372.7,275.2h-4.1" class="g3_14" />
<path d="M375.2,286.2h-4.1" class="g3_14" />
<path d="M377.8,296.3h-4.1" class="g3_14" />
<path d="M380.4,291.2h-4.2" class="g3_14" />
<path d="M382.9,293h-4.1" class="g3_14" />
<path d="M385.5,274.6h-4.2" class="g3_14" />
<path d="M388,301.5h-4.1" class="g3_14" />
<path d="M390.6,293.3h-4.1" class="g3_14" />
<path d="M393.1,311.8H389" class="g3_14" />
<path d="M395.7,338.7h-4.1" class="g3_14" />
<path d="M398.3,287.9h-4.2" class="g3_14" />
<path d="M400.8,284.6h-4.1" class="g3_14" />
<path d="M403.4,310h-4.2" class="g3_14" />
<path d="M405.9,262.3h-4.1" class="g3_14" />
<path d="M408.5,321.3h-4.1" class="g3_14" />
<path d="M411,376.7h-4.1" class="g3_14" />
<path d="M413.6,380.4h-4.1" class="g3_14" />
<path d="M416.2,353.2H412" class="g3_14" />
<path d="M418.7,354.2h-4.1" class="g3_14" />
<path d="M421.3,375h-4.1" class="g3_14" />
<path d="M423.8,371.5h-4.1" class="g3_14" />
<path d="M426.4,391.5h-4.1" class="g3_14" />
<path d="M428.9,408.8h-4.1" class="g3_14" />
<path d="M431.5,383h-4.1" class="g3_14" />
<path d="M434.1,375h-4.2" class="g3_14" />
<path d="M436.6,358h-4.1" class="g3_14" />
<path d="M439.2,358.4h-4.1" class="g3_14" />
<path d="M441.7,383.6h-4.1" class="g3_14" />
<path d="M444.3,382.3h-4.1" class="g3_14" />
<path d="M446.9,394.1h-4.2" class="g3_14" />
<path d="M449.4,400h-4.1" class="g3_14" />
<path d="M452,404.5h-4.2" class="g3_14" />
<path d="M454.5,346.6h-4.1" class="g3_14" />
<path d="M457.1,385.5H453" class="g3_14" />
<path d="M459.6,305.2h-4.1" class="g3_14" />
<path d="M462.2,318.1h-4.1" class="g3_14" />
<path d="M464.8,286h-4.2" class="g3_14" />
<path d="M467.3,323.8h-4.1" class="g3_14" />
<path d="M469.9,301.6h-4.2" class="g3_14" />
<path d="M472.4,312.5h-4.1" class="g3_14" />
<path d="M475,292.1h-4.1" class="g3_14" />
<path d="M477.5,306.4h-4.1" class="g3_14" />
<path d="M480.1,317H476" class="g3_14" />
<path d="M482.7,298.7h-4.2" class="g3_14" />
<path d="M485.2,291.5h-4.1" class="g3_14" />
<path d="M487.8,297.2h-4.2" class="g3_14" />
<path d="M490.3,293.5h-4.1" class="g3_14" />
<path d="M492.9,308.3h-4.1" class="g3_14" />
<path d="M495.4,304h-4.1" class="g3_14" />
<path d="M498,308.9h-4.1" class="g3_14" />
<path d="M500.6,304h-4.2" class="g3_14" />
<path d="M503.1,311.1H499" class="g3_14" />
<path d="M505.7,325.6h-4.2" class="g3_14" />
<path d="M508.2,295.5h-4.1" class="g3_14" />
<path d="M510.8,304.6h-4.1" class="g3_14" />
<path d="M513.3,324.1h-4.1" class="g3_14" />
<path d="M515.9,290.9h-4.1" class="g3_14" />
<path d="M518.5,312.6h-4.2" class="g3_14" />
<path d="M521,297.4h-4.1" class="g3_14" />
<path d="M523.6,286.7h-4.1" class="g3_14" />
<path d="M526.1,296.2H522" class="g3_14" />
<path d="M528.7,280.2h-4.1" class="g3_14" />
<path d="M531.2,317.8h-4.1" class="g3_14" />
<path d="M533.8,291.9h-4.1" class="g3_14" />
<path d="M536.4,309.1h-4.2" class="g3_14" />
<path d="M538.9,312.1h-4.1" class="g3_14" />
<path d="M541.5,307.4h-4.1" class="g3_14" />
<path d="M544,303.2h-4.1" class="g3_14" />
<path d="M546.6,297.4h-4.1" class="g3_14" />
<path d="M549.2,316.7H545" class="g3_14" />
<path d="M551.7,284h-4.1" class="g3_14" />
<path d="M554.3,290.9h-4.2" class="g3_14" />
<path d="M556.8,322.6h-4.1" class="g3_14" />
<path d="M559.4,274.7h-4.1" class="g3_14" />
<path d="M561.9,268.2h-4.1" class="g3_14" />
<path d="M564.5,279.6h-4.1" class="g3_14" />
<path d="M567.1,301.1h-4.2" class="g3_14" />
<path d="M569.6,315.2h-4.1" class="g3_14" />
<path d="M572.2,281.6H568" class="g3_14" />
<path d="M574.7,304.7h-4.1" class="g3_14" />
<path d="M577.3,278.9h-4.1" class="g3_14" />
<path d="M579.8,295h-4.1" class="g3_14" />
<path d="M582.4,282.8h-4.1" class="g3_14" />
<path d="M585,292.6h-4.2" class="g3_14" />
<path d="M587.5,287.1h-4.1" class="g3_14" />
<path d="M590.1,298.1h-4.2" class="g3_14" />
<path d="M592.6,270h-4.1" class="g3_14" />
<path d="M595.2,296.3h-4.1" class="g3_14" />
<path d="M597.7,291.9h-4.1" class="g3_14" />
<path d="M600.3,268.4h-4.1" class="g3_14" />
<path d="M344.6,238.6h-4.2" class="g3_14" />
<path d="M347.1,260.2H343" class="g3_14" />
<path d="M349.7,251.1h-4.2" class="g3_14" />
<path d="M352.2,231.1h-4.1" class="g3_14" />
<path d="M354.8,237h-4.1" class="g3_14" />
<path d="M357.3,282.1h-4.1" class="g3_14" />
<path d="M359.9,251.5h-4.1" class="g3_14" />
<path d="M362.5,269h-4.2" class="g3_14" />
<path d="M365,268.2h-4.1" class="g3_14" />
<path d="M367.6,260.1h-4.2" class="g3_14" />
<path d="M370.1,264.3H366" class="g3_14" />
<path d="M372.7,243.6h-4.1" class="g3_14" />
<path d="M375.2,254.5h-4.1" class="g3_14" />
<path d="M377.8,264.7h-4.1" class="g3_14" />
<path d="M380.4,259.6h-4.2" class="g3_14" />
<path d="M382.9,261.3h-4.1" class="g3_14" />
<path d="M385.5,242.9h-4.2" class="g3_14" />
<path d="M388,269.8h-4.1" class="g3_14" />
<path d="M390.6,261.6h-4.1" class="g3_14" />
<path d="M393.1,280.1H389" class="g3_14" />
<path d="M395.7,307h-4.1" class="g3_14" />
<path d="M398.3,256.2h-4.2" class="g3_14" />
<path d="M400.8,252.9h-4.1" class="g3_14" />
<path d="M403.4,278.3h-4.2" class="g3_14" />
<path d="M405.9,230.6h-4.1" class="g3_14" />
<path d="M408.5,289.6h-4.1" class="g3_14" />
<path d="M411,345.1h-4.1" class="g3_14" />
<path d="M413.6,348.8h-4.1" class="g3_14" />
<path d="M416.2,321.5H412" class="g3_14" />
<path d="M418.7,322.5h-4.1" class="g3_14" />
<path d="M421.3,343.3h-4.1" class="g3_14" />
<path d="M423.8,339.8h-4.1" class="g3_14" />
<path d="M426.4,359.9h-4.1" class="g3_14" />
<path d="M428.9,377.2h-4.1" class="g3_14" />
<path d="M431.5,351.3h-4.1" class="g3_14" />
<path d="M434.1,343.3h-4.2" class="g3_14" />
<path d="M436.6,326.3h-4.1" class="g3_14" />
<path d="M439.2,326.7h-4.1" class="g3_14" />
<path d="M441.7,351.9h-4.1" class="g3_14" />
<path d="M444.3,350.6h-4.1" class="g3_14" />
<path d="M446.9,362.4h-4.2" class="g3_14" />
<path d="M449.4,368.3h-4.1" class="g3_14" />
<path d="M452,372.8h-4.2" class="g3_14" />
<path d="M454.5,314.9h-4.1" class="g3_14" />
<path d="M457.1,353.9H453" class="g3_14" />
<path d="M459.6,273.5h-4.1" class="g3_14" />
<path d="M462.2,286.4h-4.1" class="g3_14" />
<path d="M464.8,254.3h-4.2" class="g3_14" />
<path d="M467.3,292.2h-4.1" class="g3_14" />
<path d="M469.9,270h-4.2" class="g3_14" />
<path d="M472.4,280.8h-4.1" class="g3_14" />
<path d="M475,260.5h-4.1" class="g3_14" />
<path d="M477.5,274.7h-4.1" class="g3_14" />
<path d="M480.1,285.3H476" class="g3_14" />
<path d="M482.7,267h-4.2" class="g3_14" />
<path d="M485.2,259.8h-4.1" class="g3_14" />
<path d="M487.8,265.5h-4.2" class="g3_14" />
<path d="M490.3,261.8h-4.1" class="g3_14" />
<path d="M492.9,276.6h-4.1" class="g3_14" />
<path d="M495.4,272.3h-4.1" class="g3_14" />
<path d="M498,277.2h-4.1" class="g3_14" />
<path d="M500.6,272.3h-4.2" class="g3_14" />
<path d="M503.1,279.5H499" class="g3_14" />
<path d="M505.7,293.9h-4.2" class="g3_14" />
<path d="M508.2,263.8h-4.1" class="g3_14" />
<path d="M510.8,273h-4.1" class="g3_14" />
<path d="M513.3,292.4h-4.1" class="g3_14" />
<path d="M515.9,259.3h-4.1" class="g3_14" />
<path d="M518.5,281h-4.2" class="g3_14" />
<path d="M521,265.8h-4.1" class="g3_14" />
<path d="M523.6,255h-4.1" class="g3_14" />
<path d="M526.1,264.5H522" class="g3_14" />
<path d="M528.7,248.5h-4.1" class="g3_14" />
<path d="M531.2,286.1h-4.1" class="g3_14" />
<path d="M533.8,260.2h-4.1" class="g3_14" />
<path d="M536.4,277.4h-4.2" class="g3_14" />
<path d="M538.9,280.4h-4.1" class="g3_14" />
<path d="M541.5,275.8h-4.1" class="g3_14" />
<path d="M544,271.5h-4.1" class="g3_14" />
<path d="M546.6,265.7h-4.1" class="g3_14" />
<path d="M549.2,285H545" class="g3_14" />
<path d="M551.7,252.3h-4.1" class="g3_14" />
<path d="M554.3,259.2h-4.2" class="g3_14" />
<path d="M556.8,290.9h-4.1" class="g3_14" />
<path d="M559.4,243h-4.1" class="g3_14" />
<path d="M561.9,236.6h-4.1" class="g3_14" />
<path d="M564.5,247.9h-4.1" class="g3_14" />
<path d="M567.1,269.4h-4.2" class="g3_14" />
<path d="M569.6,283.5h-4.1" class="g3_14" />
<path d="M572.2,249.9H568" class="g3_14" />
<path d="M574.7,273h-4.1" class="g3_14" />
<path d="M577.3,247.2h-4.1" class="g3_14" />
<path d="M579.8,263.3h-4.1" class="g3_14" />
<path d="M582.4,251.1h-4.1" class="g3_14" />
<path d="M585,260.9h-4.2" class="g3_14" />
<path d="M587.5,255.4h-4.1" class="g3_14" />
<path d="M590.1,266.4h-4.2" class="g3_14" />
<path d="M592.6,238.3h-4.1" class="g3_14" />
<path d="M595.2,264.6h-4.1" class="g3_14" />
<path d="M597.7,260.2h-4.1" class="g3_14" />
<path d="M600.3,236.8h-4.1" class="g3_14" />
<path d="M342.5,256.2c.4,0,.9,-.2,1.2,-.5c.3,-.3,.5,-.8,.5,-1.2c0,-.5,-.2,-.9,-.5,-1.2c-.3,-.4,-.8,-.5,-1.2,-.5c-.5,0,-.9,.1,-1.2,.5c-.4,.3,-.5,.7,-.5,1.2c0,.4,.1,.9,.5,1.2c.3,.3,.7,.5,1.2,.5Z" class="g3_14" />
<path d="M345,277.8c.5,0,.9,-.2,1.3,-.5c.3,-.3,.5,-.8,.5,-1.2c0,-.5,-.2,-.9,-.5,-1.2c-.4,-.3,-.8,-.5,-1.3,-.5c-.4,0,-.8,.2,-1.2,.5c-.3,.3,-.5,.7,-.5,1.2c0,.4,.2,.9,.5,1.2c.4,.3,.8,.5,1.2,.5Z" class="g3_14" />
<path d="M347.6,268.6c.5,0,.9,-.1,1.2,-.5c.3,-.3,.5,-.7,.5,-1.2c0,-.4,-.2,-.9,-.5,-1.2c-.3,-.3,-.7,-.5,-1.2,-.5c-.5,0,-.9,.2,-1.2,.5c-.3,.3,-.5,.8,-.5,1.2c0,.5,.2,.9,.5,1.2c.3,.4,.7,.5,1.2,.5Z" class="g3_14" />
<path d="M350.2,248.7c.4,0,.9,-.2,1.2,-.6c.3,-.3,.5,-.7,.5,-1.2c0,-.4,-.2,-.9,-.5,-1.2c-.3,-.3,-.8,-.5,-1.2,-.5c-.5,0,-.9,.2,-1.3,.5c-.3,.3,-.5,.8,-.5,1.2c0,.5,.2,.9,.5,1.2c.4,.4,.8,.6,1.3,.6Z" class="g3_14" />
<path d="M352.7,254.6c.5,0,.9,-.2,1.2,-.5c.4,-.4,.5,-.8,.5,-1.3c0,-.4,-.1,-.8,-.5,-1.2c-.3,-.3,-.7,-.5,-1.2,-.5c-.4,0,-.9,.2,-1.2,.5c-.3,.4,-.5,.8,-.5,1.2c0,.5,.2,.9,.5,1.3c.3,.3,.8,.5,1.2,.5Z" class="g3_14" />
<path d="M355.3,299.6c.4,0,.9,-.2,1.2,-.5c.3,-.3,.5,-.7,.5,-1.2c0,-.4,-.2,-.9,-.5,-1.2c-.3,-.3,-.8,-.5,-1.2,-.5c-.5,0,-.9,.2,-1.2,.5c-.4,.3,-.5,.8,-.5,1.2c0,.5,.1,.9,.5,1.2c.3,.3,.7,.5,1.2,.5Z" class="g3_14" />
<path d="M357.8,269.1c.5,0,.9,-.2,1.2,-.5c.4,-.3,.6,-.8,.6,-1.2c0,-.5,-.2,-.9,-.6,-1.2c-.3,-.4,-.7,-.5,-1.2,-.5c-.4,0,-.9,.1,-1.2,.5c-.3,.3,-.5,.7,-.5,1.2c0,.4,.2,.9,.5,1.2c.3,.3,.8,.5,1.2,.5Z" class="g3_14" />
<path d="M360.4,286.5c.4,0,.9,-.1,1.2,-.5c.3,-.3,.5,-.7,.5,-1.2c0,-.4,-.2,-.9,-.5,-1.2c-.3,-.3,-.8,-.5,-1.2,-.5c-.5,0,-.9,.2,-1.2,.5c-.3,.3,-.5,.8,-.5,1.2c0,.5,.2,.9,.5,1.2c.3,.4,.7,.5,1.2,.5Z" class="g3_14" />
<path d="M362.9,285.8c.5,0,.9,-.2,1.3,-.5c.3,-.3,.5,-.8,.5,-1.2c0,-.5,-.2,-.9,-.5,-1.3c-.4,-.3,-.8,-.5,-1.3,-.5c-.4,0,-.8,.2,-1.2,.5c-.3,.4,-.5,.8,-.5,1.3c0,.4,.2,.9,.5,1.2c.4,.3,.8,.5,1.2,.5Z" class="g3_14" />
<path d="M365.5,277.6c.5,0,.9,-.1,1.2,-.5c.3,-.3,.5,-.7,.5,-1.2c0,-.4,-.2,-.9,-.5,-1.2c-.3,-.3,-.7,-.5,-1.2,-.5c-.5,0,-.9,.2,-1.2,.5c-.3,.3,-.5,.8,-.5,1.2c0,.5,.2,.9,.5,1.2c.3,.4,.7,.5,1.2,.5Z" class="g3_14" />
<path d="M368.1,281.9c.4,0,.9,-.2,1.2,-.5c.3,-.4,.5,-.8,.5,-1.3c0,-.4,-.2,-.8,-.5,-1.2c-.3,-.3,-.8,-.5,-1.2,-.5c-.5,0,-.9,.2,-1.3,.5c-.3,.4,-.5,.8,-.5,1.2c0,.5,.2,.9,.5,1.3c.4,.3,.8,.5,1.3,.5Z" class="g3_14" />
<path d="M370.6,261.1c.5,0,.9,-.2,1.2,-.5c.4,-.3,.5,-.8,.5,-1.2c0,-.5,-.1,-.9,-.5,-1.2c-.3,-.3,-.7,-.5,-1.2,-.5c-.4,0,-.9,.2,-1.2,.5c-.3,.3,-.5,.7,-.5,1.2c0,.4,.2,.9,.5,1.2c.3,.3,.8,.5,1.2,.5Z" class="g3_14" />
<path d="M373.2,272.1c.4,0,.9,-.2,1.2,-.5c.3,-.3,.5,-.8,.5,-1.2c0,-.5,-.2,-.9,-.5,-1.2c-.3,-.4,-.8,-.5,-1.2,-.5c-.5,0,-.9,.1,-1.2,.5c-.4,.3,-.5,.7,-.5,1.2c0,.4,.1,.9,.5,1.2c.3,.3,.7,.5,1.2,.5Z" class="g3_14" />
<path d="M375.7,282.2c.5,0,.9,-.2,1.3,-.5c.3,-.3,.5,-.7,.5,-1.2c0,-.5,-.2,-.9,-.5,-1.2c-.4,-.3,-.8,-.5,-1.3,-.5c-.4,0,-.9,.2,-1.2,.5c-.3,.3,-.5,.7,-.5,1.2c0,.5,.2,.9,.5,1.2c.3,.3,.8,.5,1.2,.5Z" class="g3_14" />
<path d="M378.3,277.1c.4,0,.9,-.2,1.2,-.5c.3,-.3,.5,-.7,.5,-1.2c0,-.5,-.2,-.9,-.5,-1.2c-.3,-.3,-.8,-.5,-1.2,-.5c-.5,0,-.9,.2,-1.2,.5c-.3,.3,-.5,.7,-.5,1.2c0,.5,.2,.9,.5,1.2c.3,.3,.7,.5,1.2,.5Z" class="g3_14" />
<path d="M380.8,278.9c.5,0,.9,-.2,1.3,-.5c.3,-.4,.5,-.8,.5,-1.3c0,-.4,-.2,-.9,-.5,-1.2c-.4,-.3,-.8,-.5,-1.3,-.5c-.4,0,-.8,.2,-1.2,.5c-.3,.3,-.5,.8,-.5,1.2c0,.5,.2,.9,.5,1.3c.4,.3,.8,.5,1.2,.5Z" class="g3_14" />
<path d="M383.4,260.5c.5,0,.9,-.2,1.2,-.5c.3,-.3,.5,-.8,.5,-1.2c0,-.5,-.2,-.9,-.5,-1.3c-.3,-.3,-.7,-.5,-1.2,-.5c-.4,0,-.9,.2,-1.2,.5c-.3,.4,-.5,.8,-.5,1.3c0,.4,.2,.9,.5,1.2c.3,.3,.8,.5,1.2,.5Z" class="g3_14" />
<path d="M386,287.4c.4,0,.9,-.2,1.2,-.5c.3,-.3,.5,-.8,.5,-1.2c0,-.5,-.2,-.9,-.5,-1.2c-.3,-.4,-.8,-.5,-1.2,-.5c-.5,0,-.9,.1,-1.3,.5c-.3,.3,-.5,.7,-.5,1.2c0,.4,.2,.9,.5,1.2c.4,.3,.8,.5,1.3,.5Z" class="g3_14" />
<path d="M388.5,279.2c.5,0,.9,-.2,1.2,-.5c.4,-.3,.5,-.8,.5,-1.2c0,-.5,-.1,-.9,-.5,-1.2c-.3,-.4,-.7,-.6,-1.2,-.6c-.4,0,-.9,.2,-1.2,.6c-.3,.3,-.5,.7,-.5,1.2c0,.4,.2,.9,.5,1.2c.3,.3,.8,.5,1.2,.5Z" class="g3_14" />
<path d="M391.1,297.7c.4,0,.9,-.2,1.2,-.5c.3,-.4,.5,-.8,.5,-1.2c0,-.5,-.2,-.9,-.5,-1.3c-.3,-.3,-.8,-.5,-1.2,-.5c-.5,0,-.9,.2,-1.2,.5c-.4,.4,-.5,.8,-.5,1.3c0,.4,.1,.8,.5,1.2c.3,.3,.7,.5,1.2,.5Z" class="g3_14" />
<path d="M393.6,324.6c.5,0,.9,-.2,1.3,-.5c.3,-.3,.5,-.8,.5,-1.2c0,-.5,-.2,-.9,-.5,-1.2c-.4,-.4,-.8,-.6,-1.3,-.6c-.4,0,-.9,.2,-1.2,.6c-.3,.3,-.5,.7,-.5,1.2c0,.4,.2,.9,.5,1.2c.3,.3,.8,.5,1.2,.5Z" class="g3_14" />
<path d="M396.2,273.8c.5,0,.9,-.2,1.2,-.5c.3,-.3,.5,-.8,.5,-1.2c0,-.5,-.2,-.9,-.5,-1.2c-.3,-.4,-.7,-.5,-1.2,-.5c-.5,0,-.9,.1,-1.2,.5c-.3,.3,-.5,.7,-.5,1.2c0,.4,.2,.9,.5,1.2c.3,.3,.7,.5,1.2,.5Z" class="g3_14" />
<path d="M398.8,270.5c.4,0,.8,-.2,1.2,-.5c.3,-.4,.5,-.8,.5,-1.3c0,-.4,-.2,-.9,-.5,-1.2c-.4,-.3,-.8,-.5,-1.2,-.5c-.5,0,-.9,.2,-1.3,.5c-.3,.3,-.5,.8,-.5,1.2c0,.5,.2,.9,.5,1.3c.4,.3,.8,.5,1.3,.5Z" class="g3_14" />
<path d="M401.3,295.9c.5,0,.9,-.2,1.2,-.5c.3,-.3,.5,-.8,.5,-1.2c0,-.5,-.2,-.9,-.5,-1.2c-.3,-.4,-.7,-.5,-1.2,-.5c-.4,0,-.9,.1,-1.2,.5c-.3,.3,-.5,.7,-.5,1.2c0,.4,.2,.9,.5,1.2c.3,.3,.8,.5,1.2,.5Z" class="g3_14" />
<path d="M403.9,248.2c.4,0,.9,-.2,1.2,-.5c.3,-.3,.5,-.8,.5,-1.2c0,-.5,-.2,-.9,-.5,-1.2c-.3,-.4,-.8,-.5,-1.2,-.5c-.5,0,-.9,.1,-1.2,.5c-.4,.3,-.6,.7,-.6,1.2c0,.4,.2,.9,.6,1.2c.3,.3,.7,.5,1.2,.5Z" class="g3_14" />
<path d="M406.4,307.2c.5,0,.9,-.2,1.2,-.5c.4,-.3,.5,-.8,.5,-1.2c0,-.5,-.1,-.9,-.5,-1.3c-.3,-.3,-.7,-.5,-1.2,-.5c-.4,0,-.9,.2,-1.2,.5c-.3,.4,-.5,.8,-.5,1.3c0,.4,.2,.9,.5,1.2c.3,.3,.8,.5,1.2,.5Z" class="g3_14" />
<path d="M409,362.6c.4,0,.9,-.2,1.2,-.5c.3,-.3,.5,-.7,.5,-1.2c0,-.5,-.2,-.9,-.5,-1.2c-.3,-.3,-.8,-.5,-1.2,-.5c-.5,0,-.9,.2,-1.2,.5c-.4,.3,-.5,.7,-.5,1.2c0,.5,.1,.9,.5,1.2c.3,.3,.7,.5,1.2,.5Z" class="g3_14" />
<path d="M411.5,366.3c.5,0,.9,-.2,1.3,-.5c.3,-.3,.5,-.8,.5,-1.2c0,-.5,-.2,-.9,-.5,-1.2c-.4,-.3,-.8,-.5,-1.3,-.5c-.4,0,-.9,.2,-1.2,.5c-.3,.3,-.5,.7,-.5,1.2c0,.4,.2,.9,.5,1.2c.3,.3,.8,.5,1.2,.5Z" class="g3_14" />
<path d="M414.1,339.1c.5,0,.9,-.2,1.2,-.5c.3,-.4,.5,-.8,.5,-1.3c0,-.4,-.2,-.8,-.5,-1.2c-.3,-.3,-.7,-.5,-1.2,-.5c-.5,0,-.9,.2,-1.2,.5c-.3,.4,-.5,.8,-.5,1.2c0,.5,.2,.9,.5,1.3c.3,.3,.7,.5,1.2,.5Z" class="g3_14" />
<path d="M416.7,340.1c.4,0,.8,-.2,1.2,-.5c.3,-.4,.5,-.8,.5,-1.2c0,-.5,-.2,-.9,-.5,-1.3c-.4,-.3,-.8,-.5,-1.2,-.5c-.5,0,-.9,.2,-1.3,.5c-.3,.4,-.5,.8,-.5,1.3c0,.4,.2,.8,.5,1.2c.4,.3,.8,.5,1.3,.5Z" class="g3_14" />
<path d="M419.2,360.9c.5,0,.9,-.2,1.2,-.5c.4,-.3,.5,-.8,.5,-1.2c0,-.5,-.1,-.9,-.5,-1.2c-.3,-.4,-.7,-.5,-1.2,-.5c-.4,0,-.9,.1,-1.2,.5c-.3,.3,-.5,.7,-.5,1.2c0,.4,.2,.9,.5,1.2c.3,.3,.8,.5,1.2,.5Z" class="g3_14" />
<path d="M421.8,357.4c.4,0,.9,-.2,1.2,-.5c.3,-.4,.5,-.8,.5,-1.3c0,-.4,-.2,-.9,-.5,-1.2c-.3,-.3,-.8,-.5,-1.2,-.5c-.5,0,-.9,.2,-1.2,.5c-.4,.3,-.5,.8,-.5,1.2c0,.5,.1,.9,.5,1.3c.3,.3,.7,.5,1.2,.5Z" class="g3_14" />
<path d="M424.3,377.4c.5,0,.9,-.2,1.2,-.5c.4,-.3,.5,-.8,.5,-1.2c0,-.5,-.1,-.9,-.5,-1.2c-.3,-.3,-.7,-.5,-1.2,-.5c-.4,0,-.9,.2,-1.2,.5c-.3,.3,-.5,.7,-.5,1.2c0,.4,.2,.9,.5,1.2c.3,.3,.8,.5,1.2,.5Z" class="g3_14" />
<path d="M426.9,394.7c.4,0,.9,-.2,1.2,-.5c.3,-.3,.5,-.7,.5,-1.2c0,-.5,-.2,-.9,-.5,-1.2c-.3,-.3,-.8,-.5,-1.2,-.5c-.5,0,-.9,.2,-1.2,.5c-.4,.3,-.5,.7,-.5,1.2c0,.5,.1,.9,.5,1.2c.3,.3,.7,.5,1.2,.5Z" class="g3_14" />
<path d="M429.4,368.9c.5,0,.9,-.2,1.3,-.5c.3,-.4,.5,-.8,.5,-1.3c0,-.4,-.2,-.9,-.5,-1.2c-.4,-.3,-.8,-.5,-1.3,-.5c-.4,0,-.9,.2,-1.2,.5c-.3,.3,-.5,.8,-.5,1.2c0,.5,.2,.9,.5,1.3c.3,.3,.8,.5,1.2,.5Z" class="g3_14" />
<path d="M432,360.9c.5,0,.9,-.2,1.2,-.5c.3,-.4,.5,-.8,.5,-1.2c0,-.5,-.2,-.9,-.5,-1.3c-.3,-.3,-.7,-.5,-1.2,-.5c-.5,0,-.9,.2,-1.2,.5c-.3,.4,-.5,.8,-.5,1.3c0,.4,.2,.8,.5,1.2c.3,.3,.7,.5,1.2,.5Z" class="g3_14" />
<path d="M434.6,343.9c.4,0,.9,-.2,1.2,-.5c.3,-.4,.5,-.8,.5,-1.3c0,-.4,-.2,-.9,-.5,-1.2c-.3,-.3,-.8,-.5,-1.2,-.5c-.5,0,-.9,.2,-1.3,.5c-.3,.3,-.5,.8,-.5,1.2c0,.5,.2,.9,.5,1.3c.4,.3,.8,.5,1.3,.5Z" class="g3_14" />
<path d="M437.1,344.3c.5,0,.9,-.2,1.2,-.5c.4,-.3,.5,-.8,.5,-1.2c0,-.5,-.1,-.9,-.5,-1.2c-.3,-.4,-.7,-.5,-1.2,-.5c-.4,0,-.9,.1,-1.2,.5c-.3,.3,-.5,.7,-.5,1.2c0,.4,.2,.9,.5,1.2c.3,.3,.8,.5,1.2,.5Z" class="g3_14" />
<path d="M439.7,369.5c.4,0,.9,-.2,1.2,-.5c.3,-.3,.5,-.8,.5,-1.2c0,-.5,-.2,-.9,-.5,-1.3c-.3,-.3,-.8,-.5,-1.2,-.5c-.5,0,-.9,.2,-1.2,.5c-.4,.4,-.5,.8,-.5,1.3c0,.4,.1,.9,.5,1.2c.3,.3,.7,.5,1.2,.5Z" class="g3_14" />
<path d="M442.2,368.1c.5,0,.9,-.1,1.2,-.5c.4,-.3,.5,-.7,.5,-1.2c0,-.4,-.1,-.9,-.5,-1.2c-.3,-.3,-.7,-.5,-1.2,-.5c-.4,0,-.9,.2,-1.2,.5c-.3,.3,-.5,.8,-.5,1.2c0,.5,.2,.9,.5,1.2c.3,.4,.8,.5,1.2,.5Z" class="g3_14" />
<path d="M444.8,380c.4,0,.9,-.2,1.2,-.5c.3,-.4,.5,-.8,.5,-1.3c0,-.4,-.2,-.9,-.5,-1.2c-.3,-.3,-.8,-.5,-1.2,-.5c-.5,0,-.9,.2,-1.2,.5c-.3,.3,-.5,.8,-.5,1.2c0,.5,.2,.9,.5,1.3c.3,.3,.7,.5,1.2,.5Z" class="g3_14" />
<path d="M447.3,385.8c.5,0,.9,-.1,1.3,-.5c.3,-.3,.5,-.7,.5,-1.2c0,-.4,-.2,-.9,-.5,-1.2c-.4,-.3,-.8,-.5,-1.3,-.5c-.4,0,-.8,.2,-1.2,.5c-.3,.3,-.5,.8,-.5,1.2c0,.5,.2,.9,.5,1.2c.4,.4,.8,.5,1.2,.5Z" class="g3_14" />
<path d="M449.9,390.4c.5,0,.9,-.2,1.2,-.5c.3,-.4,.5,-.8,.5,-1.2c0,-.5,-.2,-.9,-.5,-1.3c-.3,-.3,-.7,-.5,-1.2,-.5c-.5,0,-.9,.2,-1.2,.5c-.3,.4,-.5,.8,-.5,1.3c0,.4,.2,.8,.5,1.2c.3,.3,.7,.5,1.2,.5Z" class="g3_14" />
<path d="M452.5,332.4c.4,0,.9,-.1,1.2,-.5c.3,-.3,.5,-.7,.5,-1.2c0,-.4,-.2,-.9,-.5,-1.2c-.3,-.3,-.8,-.5,-1.2,-.5c-.5,0,-.9,.2,-1.3,.5c-.3,.3,-.5,.8,-.5,1.2c0,.5,.2,.9,.5,1.2c.4,.4,.8,.5,1.3,.5Z" class="g3_14" />
<path d="M455,371.4c.5,0,.9,-.2,1.2,-.5c.4,-.3,.5,-.7,.5,-1.2c0,-.5,-.1,-.9,-.5,-1.2c-.3,-.3,-.7,-.5,-1.2,-.5c-.4,0,-.9,.2,-1.2,.5c-.3,.3,-.5,.7,-.5,1.2c0,.5,.2,.9,.5,1.2c.3,.3,.8,.5,1.2,.5Z" class="g3_14" />
<path d="M457.6,291.1c.4,0,.9,-.2,1.2,-.5c.3,-.3,.5,-.8,.5,-1.2c0,-.5,-.2,-.9,-.5,-1.2c-.3,-.4,-.8,-.6,-1.2,-.6c-.5,0,-.9,.2,-1.2,.6c-.4,.3,-.5,.7,-.5,1.2c0,.4,.1,.9,.5,1.2c.3,.3,.7,.5,1.2,.5Z" class="g3_14" />
<path d="M460.1,304c.5,0,.9,-.2,1.2,-.5c.4,-.3,.6,-.8,.6,-1.2c0,-.5,-.2,-.9,-.6,-1.2c-.3,-.4,-.7,-.5,-1.2,-.5c-.4,0,-.9,.1,-1.2,.5c-.3,.3,-.5,.7,-.5,1.2c0,.4,.2,.9,.5,1.2c.3,.3,.8,.5,1.2,.5Z" class="g3_14" />
<path d="M462.7,271.8c.4,0,.9,-.2,1.2,-.5c.3,-.3,.5,-.7,.5,-1.2c0,-.4,-.2,-.9,-.5,-1.2c-.3,-.3,-.8,-.5,-1.2,-.5c-.5,0,-.9,.2,-1.2,.5c-.3,.3,-.5,.8,-.5,1.2c0,.5,.2,.9,.5,1.2c.3,.3,.7,.5,1.2,.5Z" class="g3_14" />
<path d="M465.2,309.7c.5,0,.9,-.2,1.3,-.5c.3,-.3,.5,-.8,.5,-1.2c0,-.5,-.2,-.9,-.5,-1.2c-.4,-.3,-.8,-.5,-1.3,-.5c-.4,0,-.8,.2,-1.2,.5c-.3,.3,-.5,.7,-.5,1.2c0,.4,.2,.9,.5,1.2c.4,.3,.8,.5,1.2,.5Z" class="g3_14" />
<path d="M467.8,287.5c.5,0,.9,-.2,1.2,-.5c.3,-.3,.5,-.7,.5,-1.2c0,-.5,-.2,-.9,-.5,-1.2c-.3,-.3,-.7,-.5,-1.2,-.5c-.5,0,-.9,.2,-1.2,.5c-.3,.3,-.5,.7,-.5,1.2c0,.5,.2,.9,.5,1.2c.3,.3,.7,.5,1.2,.5Z" class="g3_14" />
<path d="M470.4,298.3c.4,0,.9,-.2,1.2,-.5c.3,-.3,.5,-.7,.5,-1.2c0,-.4,-.2,-.9,-.5,-1.2c-.3,-.3,-.8,-.5,-1.2,-.5c-.5,0,-.9,.2,-1.3,.5c-.3,.3,-.5,.8,-.5,1.2c0,.5,.2,.9,.5,1.2c.4,.3,.8,.5,1.3,.5Z" class="g3_14" />
<path d="M472.9,278c.5,0,.9,-.2,1.2,-.5c.4,-.3,.5,-.7,.5,-1.2c0,-.5,-.1,-.9,-.5,-1.2c-.3,-.3,-.7,-.5,-1.2,-.5c-.4,0,-.9,.2,-1.2,.5c-.3,.3,-.5,.7,-.5,1.2c0,.5,.2,.9,.5,1.2c.3,.3,.8,.5,1.2,.5Z" class="g3_14" />
<path d="M475.5,292.2c.4,0,.9,-.1,1.2,-.5c.3,-.3,.5,-.7,.5,-1.2c0,-.4,-.2,-.9,-.5,-1.2c-.3,-.3,-.8,-.5,-1.2,-.5c-.5,0,-.9,.2,-1.2,.5c-.4,.3,-.5,.8,-.5,1.2c0,.5,.1,.9,.5,1.2c.3,.4,.7,.5,1.2,.5Z" class="g3_14" />
<path d="M478,302.8c.5,0,.9,-.1,1.3,-.5c.3,-.3,.5,-.7,.5,-1.2c0,-.4,-.2,-.9,-.5,-1.2c-.4,-.3,-.8,-.5,-1.3,-.5c-.4,0,-.9,.2,-1.2,.5c-.3,.3,-.5,.8,-.5,1.2c0,.5,.2,.9,.5,1.2c.3,.4,.8,.5,1.2,.5Z" class="g3_14" />
<path d="M480.6,284.6c.4,0,.9,-.2,1.2,-.5c.3,-.3,.5,-.8,.5,-1.2c0,-.5,-.2,-.9,-.5,-1.2c-.3,-.4,-.8,-.5,-1.2,-.5c-.5,0,-.9,.1,-1.2,.5c-.3,.3,-.5,.7,-.5,1.2c0,.4,.2,.9,.5,1.2c.3,.3,.7,.5,1.2,.5Z" class="g3_14" />
<path d="M483.2,277.4c.4,0,.8,-.2,1.2,-.5c.3,-.4,.5,-.8,.5,-1.3c0,-.4,-.2,-.9,-.5,-1.2c-.4,-.3,-.8,-.5,-1.2,-.5c-.5,0,-.9,.2,-1.3,.5c-.3,.3,-.5,.8,-.5,1.2c0,.5,.2,.9,.5,1.3c.4,.3,.8,.5,1.3,.5Z" class="g3_14" />
<path d="M485.7,283.1c.5,0,.9,-.2,1.2,-.5c.3,-.3,.5,-.8,.5,-1.2c0,-.5,-.2,-.9,-.5,-1.2c-.3,-.4,-.7,-.5,-1.2,-.5c-.4,0,-.9,.1,-1.2,.5c-.3,.3,-.5,.7,-.5,1.2c0,.4,.2,.9,.5,1.2c.3,.3,.8,.5,1.2,.5Z" class="g3_14" />
<path d="M488.3,279.4c.4,0,.9,-.2,1.2,-.5c.3,-.4,.5,-.8,.5,-1.3c0,-.4,-.2,-.9,-.5,-1.2c-.3,-.3,-.8,-.5,-1.2,-.5c-.5,0,-.9,.2,-1.2,.5c-.4,.3,-.6,.8,-.6,1.2c0,.5,.2,.9,.6,1.3c.3,.3,.7,.5,1.2,.5Z" class="g3_14" />
<path d="M490.8,294.2c.5,0,.9,-.2,1.2,-.5c.4,-.3,.5,-.8,.5,-1.2c0,-.5,-.1,-.9,-.5,-1.2c-.3,-.4,-.7,-.5,-1.2,-.5c-.4,0,-.9,.1,-1.2,.5c-.3,.3,-.5,.7,-.5,1.2c0,.4,.2,.9,.5,1.2c.3,.3,.8,.5,1.2,.5Z" class="g3_14" />
<path d="M493.4,289.9c.4,0,.9,-.2,1.2,-.5c.3,-.3,.5,-.8,.5,-1.2c0,-.5,-.2,-.9,-.5,-1.2c-.3,-.4,-.8,-.5,-1.2,-.5c-.5,0,-.9,.1,-1.2,.5c-.4,.3,-.5,.7,-.5,1.2c0,.4,.1,.9,.5,1.2c.3,.3,.7,.5,1.2,.5Z" class="g3_14" />
<path d="M495.9,294.8c.5,0,.9,-.2,1.3,-.5c.3,-.3,.5,-.8,.5,-1.2c0,-.5,-.2,-.9,-.5,-1.2c-.4,-.4,-.8,-.5,-1.3,-.5c-.4,0,-.9,.1,-1.2,.5c-.3,.3,-.5,.7,-.5,1.2c0,.4,.2,.9,.5,1.2c.3,.3,.8,.5,1.2,.5Z" class="g3_14" />
<path d="M498.5,289.8c.5,0,.9,-.1,1.2,-.5c.3,-.3,.5,-.7,.5,-1.2c0,-.4,-.2,-.9,-.5,-1.2c-.3,-.3,-.7,-.5,-1.2,-.5c-.5,0,-.9,.2,-1.2,.5c-.3,.3,-.5,.8,-.5,1.2c0,.5,.2,.9,.5,1.2c.3,.4,.7,.5,1.2,.5Z" class="g3_14" />
<path d="M501.1,297c.4,0,.8,-.2,1.2,-.5c.3,-.3,.5,-.7,.5,-1.2c0,-.4,-.2,-.9,-.5,-1.2c-.4,-.3,-.8,-.5,-1.2,-.5c-.5,0,-.9,.2,-1.3,.5c-.3,.3,-.5,.8,-.5,1.2c0,.5,.2,.9,.5,1.2c.4,.3,.8,.5,1.3,.5Z" class="g3_14" />
<path d="M503.6,311.5c.5,0,.9,-.2,1.2,-.5c.3,-.3,.5,-.8,.5,-1.2c0,-.5,-.2,-.9,-.5,-1.2c-.3,-.4,-.7,-.5,-1.2,-.5c-.4,0,-.9,.1,-1.2,.5c-.3,.3,-.5,.7,-.5,1.2c0,.4,.2,.9,.5,1.2c.3,.3,.8,.5,1.2,.5Z" class="g3_14" />
<path d="M506.2,281.3c.4,0,.9,-.1,1.2,-.5c.3,-.3,.5,-.7,.5,-1.2c0,-.4,-.2,-.9,-.5,-1.2c-.3,-.3,-.8,-.5,-1.2,-.5c-.5,0,-.9,.2,-1.2,.5c-.4,.3,-.6,.8,-.6,1.2c0,.5,.2,.9,.6,1.2c.3,.4,.7,.5,1.2,.5Z" class="g3_14" />
<path d="M508.7,290.5c.5,0,.9,-.2,1.2,-.5c.4,-.3,.5,-.8,.5,-1.2c0,-.5,-.1,-.9,-.5,-1.2c-.3,-.3,-.7,-.5,-1.2,-.5c-.4,0,-.9,.2,-1.2,.5c-.3,.3,-.5,.7,-.5,1.2c0,.4,.2,.9,.5,1.2c.3,.3,.8,.5,1.2,.5Z" class="g3_14" />
<path d="M511.3,310c.4,0,.9,-.2,1.2,-.5c.3,-.4,.5,-.8,.5,-1.2c0,-.5,-.2,-.9,-.5,-1.3c-.3,-.3,-.8,-.5,-1.2,-.5c-.5,0,-.9,.2,-1.2,.5c-.4,.4,-.5,.8,-.5,1.3c0,.4,.1,.8,.5,1.2c.3,.3,.7,.5,1.2,.5Z" class="g3_14" />
<path d="M513.8,276.8c.5,0,.9,-.2,1.3,-.5c.3,-.3,.5,-.7,.5,-1.2c0,-.5,-.2,-.9,-.5,-1.2c-.4,-.3,-.8,-.5,-1.3,-.5c-.4,0,-.9,.2,-1.2,.5c-.3,.3,-.5,.7,-.5,1.2c0,.5,.2,.9,.5,1.2c.3,.3,.8,.5,1.2,.5Z" class="g3_14" />
<path d="M516.4,298.5c.5,0,.9,-.2,1.2,-.5c.3,-.3,.5,-.7,.5,-1.2c0,-.5,-.2,-.9,-.5,-1.2c-.3,-.3,-.7,-.5,-1.2,-.5c-.5,0,-.9,.2,-1.2,.5c-.3,.3,-.5,.7,-.5,1.2c0,.5,.2,.9,.5,1.2c.3,.3,.7,.5,1.2,.5Z" class="g3_14" />
<path d="M519,283.3c.4,0,.8,-.2,1.2,-.5c.3,-.3,.5,-.7,.5,-1.2c0,-.5,-.2,-.9,-.5,-1.2c-.4,-.3,-.8,-.5,-1.2,-.5c-.5,0,-.9,.2,-1.3,.5c-.3,.3,-.5,.7,-.5,1.2c0,.5,.2,.9,.5,1.2c.4,.3,.8,.5,1.3,.5Z" class="g3_14" />
<path d="M521.5,272.6c.5,0,.9,-.2,1.2,-.5c.4,-.3,.5,-.8,.5,-1.2c0,-.5,-.1,-.9,-.5,-1.2c-.3,-.4,-.7,-.5,-1.2,-.5c-.4,0,-.9,.1,-1.2,.5c-.3,.3,-.5,.7,-.5,1.2c0,.4,.2,.9,.5,1.2c.3,.3,.8,.5,1.2,.5Z" class="g3_14" />
<path d="M524.1,282.1c.4,0,.9,-.2,1.2,-.5c.3,-.3,.5,-.8,.5,-1.2c0,-.5,-.2,-.9,-.5,-1.2c-.3,-.4,-.8,-.5,-1.2,-.5c-.5,0,-.9,.1,-1.2,.5c-.4,.3,-.5,.7,-.5,1.2c0,.4,.1,.9,.5,1.2c.3,.3,.7,.5,1.2,.5Z" class="g3_14" />
<path d="M526.6,266.1c.5,0,.9,-.2,1.2,-.5c.4,-.3,.5,-.8,.5,-1.2c0,-.5,-.1,-.9,-.5,-1.2c-.3,-.4,-.7,-.5,-1.2,-.5c-.4,0,-.9,.1,-1.2,.5c-.3,.3,-.5,.7,-.5,1.2c0,.4,.2,.9,.5,1.2c.3,.3,.8,.5,1.2,.5Z" class="g3_14" />
<path d="M529.2,303.7c.4,0,.9,-.2,1.2,-.5c.3,-.3,.5,-.8,.5,-1.2c0,-.5,-.2,-.9,-.5,-1.2c-.3,-.4,-.8,-.5,-1.2,-.5c-.5,0,-.9,.1,-1.2,.5c-.4,.3,-.5,.7,-.5,1.2c0,.4,.1,.9,.5,1.2c.3,.3,.7,.5,1.2,.5Z" class="g3_14" />
<path d="M531.7,277.8c.5,0,.9,-.2,1.3,-.5c.3,-.4,.5,-.8,.5,-1.2c0,-.5,-.2,-.9,-.5,-1.3c-.4,-.3,-.8,-.5,-1.3,-.5c-.4,0,-.8,.2,-1.2,.5c-.3,.4,-.5,.8,-.5,1.3c0,.4,.2,.8,.5,1.2c.4,.3,.8,.5,1.2,.5Z" class="g3_14" />
<path d="M534.3,295c.5,0,.9,-.2,1.2,-.5c.3,-.3,.5,-.8,.5,-1.2c0,-.5,-.2,-.9,-.5,-1.2c-.3,-.4,-.7,-.5,-1.2,-.5c-.5,0,-.9,.1,-1.2,.5c-.3,.3,-.5,.7,-.5,1.2c0,.4,.2,.9,.5,1.2c.3,.3,.7,.5,1.2,.5Z" class="g3_14" />
<path d="M536.9,297.9c.4,0,.9,-.1,1.2,-.5c.3,-.3,.5,-.7,.5,-1.2c0,-.4,-.2,-.9,-.5,-1.2c-.3,-.3,-.8,-.5,-1.2,-.5c-.5,0,-.9,.2,-1.3,.5c-.3,.3,-.5,.8,-.5,1.2c0,.5,.2,.9,.5,1.2c.4,.4,.8,.5,1.3,.5Z" class="g3_14" />
<path d="M539.4,293.3c.5,0,.9,-.2,1.2,-.5c.4,-.3,.5,-.7,.5,-1.2c0,-.5,-.1,-.9,-.5,-1.2c-.3,-.3,-.7,-.5,-1.2,-.5c-.4,0,-.9,.2,-1.2,.5c-.3,.3,-.5,.7,-.5,1.2c0,.5,.2,.9,.5,1.2c.3,.3,.8,.5,1.2,.5Z" class="g3_14" />
<path d="M542,289.1c.4,0,.9,-.2,1.2,-.5c.3,-.3,.5,-.8,.5,-1.2c0,-.5,-.2,-.9,-.5,-1.3c-.3,-.3,-.8,-.5,-1.2,-.5c-.5,0,-.9,.2,-1.2,.5c-.4,.4,-.5,.8,-.5,1.3c0,.4,.1,.9,.5,1.2c.3,.3,.7,.5,1.2,.5Z" class="g3_14" />
<path d="M544.5,283.3c.5,0,.9,-.2,1.2,-.5c.4,-.4,.5,-.8,.5,-1.3c0,-.4,-.1,-.9,-.5,-1.2c-.3,-.3,-.7,-.5,-1.2,-.5c-.4,0,-.9,.2,-1.2,.5c-.3,.3,-.5,.8,-.5,1.2c0,.5,.2,.9,.5,1.3c.3,.3,.8,.5,1.2,.5Z" class="g3_14" />
<path d="M547.1,302.6c.4,0,.9,-.2,1.2,-.5c.3,-.3,.5,-.8,.5,-1.2c0,-.5,-.2,-.9,-.5,-1.2c-.3,-.4,-.8,-.5,-1.2,-.5c-.5,0,-.9,.1,-1.2,.5c-.3,.3,-.5,.7,-.5,1.2c0,.4,.2,.9,.5,1.2c.3,.3,.7,.5,1.2,.5Z" class="g3_14" />
<path d="M549.6,269.9c.5,0,.9,-.2,1.3,-.5c.3,-.3,.5,-.8,.5,-1.2c0,-.5,-.2,-.9,-.5,-1.3c-.4,-.3,-.8,-.5,-1.3,-.5c-.4,0,-.8,.2,-1.2,.5c-.3,.4,-.5,.8,-.5,1.3c0,.4,.2,.9,.5,1.2c.4,.3,.8,.5,1.2,.5Z" class="g3_14" />
<path d="M552.2,276.8c.5,0,.9,-.2,1.2,-.5c.3,-.4,.5,-.8,.5,-1.2c0,-.5,-.2,-.9,-.5,-1.3c-.3,-.3,-.7,-.5,-1.2,-.5c-.5,0,-.9,.2,-1.2,.5c-.3,.4,-.5,.8,-.5,1.3c0,.4,.2,.8,.5,1.2c.3,.3,.7,.5,1.2,.5Z" class="g3_14" />
<path d="M554.8,308.5c.4,0,.9,-.2,1.2,-.5c.3,-.3,.5,-.8,.5,-1.2c0,-.5,-.2,-.9,-.5,-1.3c-.3,-.3,-.8,-.5,-1.2,-.5c-.5,0,-.9,.2,-1.3,.5c-.3,.4,-.5,.8,-.5,1.3c0,.4,.2,.9,.5,1.2c.4,.3,.8,.5,1.3,.5Z" class="g3_14" />
<path d="M557.3,260.6c.5,0,.9,-.2,1.2,-.5c.4,-.4,.5,-.8,.5,-1.2c0,-.5,-.1,-.9,-.5,-1.3c-.3,-.3,-.7,-.5,-1.2,-.5c-.4,0,-.9,.2,-1.2,.5c-.3,.4,-.5,.8,-.5,1.3c0,.4,.2,.8,.5,1.2c.3,.3,.8,.5,1.2,.5Z" class="g3_14" />
<path d="M559.9,254.1c.4,0,.9,-.2,1.2,-.5c.3,-.3,.5,-.7,.5,-1.2c0,-.5,-.2,-.9,-.5,-1.2c-.3,-.3,-.8,-.5,-1.2,-.5c-.5,0,-.9,.2,-1.2,.5c-.4,.3,-.5,.7,-.5,1.2c0,.5,.1,.9,.5,1.2c.3,.3,.7,.5,1.2,.5Z" class="g3_14" />
<path d="M562.4,265.5c.5,0,.9,-.2,1.2,-.5c.4,-.4,.6,-.8,.6,-1.2c0,-.5,-.2,-.9,-.6,-1.3c-.3,-.3,-.7,-.5,-1.2,-.5c-.4,0,-.9,.2,-1.2,.5c-.3,.4,-.5,.8,-.5,1.3c0,.4,.2,.8,.5,1.2c.3,.3,.8,.5,1.2,.5Z" class="g3_14" />
<path d="M565,287c.4,0,.9,-.2,1.2,-.5c.3,-.3,.5,-.8,.5,-1.2c0,-.5,-.2,-.9,-.5,-1.2c-.3,-.4,-.8,-.5,-1.2,-.5c-.5,0,-.9,.1,-1.2,.5c-.3,.3,-.5,.7,-.5,1.2c0,.4,.2,.9,.5,1.2c.3,.3,.7,.5,1.2,.5Z" class="g3_14" />
<path d="M567.5,301.1c.5,0,.9,-.2,1.3,-.5c.3,-.3,.5,-.8,.5,-1.2c0,-.5,-.2,-.9,-.5,-1.2c-.4,-.3,-.8,-.5,-1.3,-.5c-.4,0,-.8,.2,-1.2,.5c-.3,.3,-.5,.7,-.5,1.2c0,.4,.2,.9,.5,1.2c.4,.3,.8,.5,1.2,.5Z" class="g3_14" />
<path d="M570.1,267.4c.5,0,.9,-.1,1.2,-.5c.3,-.3,.5,-.7,.5,-1.2c0,-.4,-.2,-.9,-.5,-1.2c-.3,-.3,-.7,-.5,-1.2,-.5c-.4,0,-.9,.2,-1.2,.5c-.3,.3,-.5,.8,-.5,1.2c0,.5,.2,.9,.5,1.2c.3,.4,.8,.5,1.2,.5Z" class="g3_14" />
<path d="M572.7,290.5c.4,0,.9,-.1,1.2,-.5c.3,-.3,.5,-.7,.5,-1.2c0,-.4,-.2,-.9,-.5,-1.2c-.3,-.3,-.8,-.5,-1.2,-.5c-.5,0,-.9,.2,-1.3,.5c-.3,.3,-.5,.8,-.5,1.2c0,.5,.2,.9,.5,1.2c.4,.4,.8,.5,1.3,.5Z" class="g3_14" />
<path d="M575.2,264.8c.5,0,.9,-.2,1.2,-.5c.4,-.3,.5,-.8,.5,-1.2c0,-.5,-.1,-.9,-.5,-1.3c-.3,-.3,-.7,-.5,-1.2,-.5c-.4,0,-.9,.2,-1.2,.5c-.3,.4,-.5,.8,-.5,1.3c0,.4,.2,.9,.5,1.2c.3,.3,.8,.5,1.2,.5Z" class="g3_14" />
<path d="M577.8,280.8c.4,0,.9,-.1,1.2,-.5c.3,-.3,.5,-.7,.5,-1.2c0,-.4,-.2,-.9,-.5,-1.2c-.3,-.3,-.8,-.5,-1.2,-.5c-.5,0,-.9,.2,-1.2,.5c-.4,.3,-.5,.8,-.5,1.2c0,.5,.1,.9,.5,1.2c.3,.4,.7,.5,1.2,.5Z" class="g3_14" />
<path d="M580.3,268.7c.5,0,.9,-.2,1.3,-.5c.3,-.3,.5,-.8,.5,-1.2c0,-.5,-.2,-.9,-.5,-1.3c-.4,-.3,-.8,-.5,-1.3,-.5c-.4,0,-.9,.2,-1.2,.5c-.3,.4,-.5,.8,-.5,1.3c0,.4,.2,.9,.5,1.2c.3,.3,.8,.5,1.2,.5Z" class="g3_14" />
<path d="M582.9,278.5c.4,0,.9,-.2,1.2,-.5c.3,-.3,.5,-.8,.5,-1.2c0,-.5,-.2,-.9,-.5,-1.2c-.3,-.4,-.8,-.5,-1.2,-.5c-.5,0,-.9,.1,-1.2,.5c-.3,.3,-.5,.7,-.5,1.2c0,.4,.2,.9,.5,1.2c.3,.3,.7,.5,1.2,.5Z" class="g3_14" />
<path d="M585.5,273c.4,0,.8,-.2,1.2,-.5c.3,-.4,.5,-.8,.5,-1.3c0,-.4,-.2,-.9,-.5,-1.2c-.4,-.3,-.8,-.5,-1.2,-.5c-.5,0,-.9,.2,-1.3,.5c-.3,.3,-.5,.8,-.5,1.2c0,.5,.2,.9,.5,1.3c.4,.3,.8,.5,1.3,.5Z" class="g3_14" />
<path d="M588,284c.5,0,.9,-.2,1.2,-.5c.3,-.3,.5,-.8,.5,-1.2c0,-.5,-.2,-.9,-.5,-1.3c-.3,-.3,-.7,-.5,-1.2,-.5c-.4,0,-.9,.2,-1.2,.5c-.3,.4,-.5,.8,-.5,1.3c0,.4,.2,.9,.5,1.2c.3,.3,.8,.5,1.2,.5Z" class="g3_14" />
<path d="M590.6,255.9c.4,0,.9,-.2,1.2,-.5c.3,-.4,.5,-.8,.5,-1.3c0,-.4,-.2,-.9,-.5,-1.2c-.3,-.3,-.8,-.5,-1.2,-.5c-.5,0,-.9,.2,-1.2,.5c-.4,.3,-.6,.8,-.6,1.2c0,.5,.2,.9,.6,1.3c.3,.3,.7,.5,1.2,.5Z" class="g3_14" />
<path d="M593.1,282.1c.5,0,.9,-.1,1.2,-.5c.4,-.3,.5,-.7,.5,-1.2c0,-.4,-.1,-.9,-.5,-1.2c-.3,-.3,-.7,-.5,-1.2,-.5c-.4,0,-.9,.2,-1.2,.5c-.3,.3,-.5,.8,-.5,1.2c0,.5,.2,.9,.5,1.2c.3,.4,.8,.5,1.2,.5Z" class="g3_14" />
<path d="M595.7,277.8c.4,0,.9,-.2,1.2,-.5c.3,-.3,.5,-.8,.5,-1.2c0,-.5,-.2,-.9,-.5,-1.3c-.3,-.3,-.8,-.5,-1.2,-.5c-.5,0,-.9,.2,-1.2,.5c-.4,.4,-.5,.8,-.5,1.3c0,.4,.1,.9,.5,1.2c.3,.3,.7,.5,1.2,.5Z" class="g3_14" />
<path d="M598.2,254.3c.5,0,.9,-.2,1.3,-.5c.3,-.3,.5,-.7,.5,-1.2c0,-.5,-.2,-.9,-.5,-1.2c-.4,-.3,-.8,-.5,-1.3,-.5c-.4,0,-.9,.2,-1.2,.5c-.3,.3,-.5,.7,-.5,1.2c0,.5,.2,.9,.5,1.2c.3,.3,.8,.5,1.2,.5Z" class="g3_14" />
<path d="M316.9,203.2H623.8m0,237.6V203.2M316.9,440.8H623.8m-306.9,0V203.2" class="g4_14" />
<path d="M342.5,440.8v-2.7" class="g5_14" />
<path d="M342.5,203.2V206" class="g5_14" />
<path d="M393.6,440.8v-2.7" class="g5_14" />
<path d="M393.6,203.2V206" class="g5_14" />
<path d="M444.8,440.8v-2.7" class="g5_14" />
<path d="M444.8,203.2V206" class="g5_14" />
<path d="M495.9,440.8v-2.7" class="g5_14" />
<path d="M495.9,203.2V206" class="g5_14" />
<path d="M547.1,440.8v-2.7" class="g5_14" />
<path d="M547.1,203.2V206" class="g5_14" />
<path d="M598.2,440.8v-2.7" class="g5_14" />
<path d="M598.2,203.2V206" class="g5_14" />
<path d="M316.9,440.8h2.8" class="g5_14" />
<path d="M623.8,440.8h-2.7" class="g5_14" />
<path d="M316.9,409.1h2.8" class="g5_14" />
<path d="M623.8,409.1h-2.7" class="g5_14" />
<path d="M316.9,377.5h2.8" class="g5_14" />
<path d="M623.8,377.5h-2.7" class="g5_14" />
<path d="M316.9,345.8h2.8" class="g5_14" />
<path d="M623.8,345.8h-2.7" class="g5_14" />
<path d="M316.9,314.1h2.8" class="g5_14" />
<path d="M623.8,314.1h-2.7" class="g5_14" />
<path d="M316.9,282.4h2.8" class="g5_14" />
<path d="M623.8,282.4h-2.7" class="g5_14" />
<path d="M316.9,250.7h2.8" class="g5_14" />
<path d="M623.8,250.7h-2.7" class="g5_14" />
<path d="M316.9,219.1h2.8" class="g5_14" />
<path d="M623.8,219.1h-2.7" class="g5_14" />
</svg>