<?xml version="1.0" encoding="utf-8" standalone="no"?>
<!DOCTYPE svg PUBLIC "-//W3C//DTD SVG 1.1//EN"
  "http://www.w3.org/Graphics/SVG/1.1/DTD/svg11.dtd">
<!-- Created with matplotlib (https://matplotlib.org/) -->
<svg height="504pt" version="1.1" viewBox="0 0 792 504" width="792pt" xmlns="http://www.w3.org/2000/svg" xmlns:xlink="http://www.w3.org/1999/xlink">
 <defs>
  <style type="text/css">
*{stroke-linecap:butt;stroke-linejoin:round;}
  </style>
 </defs>
 <g id="figure_1">
  <g id="patch_1">
   <path d="M 0 504 
L 792 504 
L 792 0 
L 0 0 
z
" style="fill:#ffffff;"/>
  </g>
  <g id="axes_1">
   <g id="patch_2">
    <path d="M 99 448.56 
L 712.8 448.56 
L 712.8 60.48 
L 99 60.48 
z
" style="fill:#ffffff;"/>
   </g>
   <g id="matplotlib.axis_1">
    <g id="xtick_1">
     <g id="line2d_1">
      <defs>
       <path d="M 0 0 
L 0 3.5 
" id="mcbb9372a3e" style="stroke:#000000;stroke-width:0.8;"/>
      </defs>
      <g>
       <use style="stroke:#000000;stroke-width:0.8;" x="126.9" xlink:href="#mcbb9372a3e" y="448.56"/>
      </g>
     </g>
     <g id="text_1">
      <!-- 0 -->
      <defs>
       <path d="M 31.78125 66.40625 
Q 24.171875 66.40625 20.328125 58.90625 
Q 16.5 51.421875 16.5 36.375 
Q 16.5 21.390625 20.328125 13.890625 
Q 24.171875 6.390625 31.78125 6.390625 
Q 39.453125 6.390625 43.28125 13.890625 
Q 47.125 21.390625 47.125 36.375 
Q 47.125 51.421875 43.28125 58.90625 
Q 39.453125 66.40625 31.78125 66.40625 
z
M 31.78125 74.21875 
Q 44.046875 74.21875 50.515625 64.515625 
Q 56.984375 54.828125 56.984375 36.375 
Q 56.984375 17.96875 50.515625 8.265625 
Q 44.046875 -1.421875 31.78125 -1.421875 
Q 19.53125 -1.421875 13.0625 8.265625 
Q 6.59375 17.96875 6.59375 36.375 
Q 6.59375 54.828125 13.0625 64.515625 
Q 19.53125 74.21875 31.78125 74.21875 
z
" id="DejaVuSans-48"/>
      </defs>
      <g transform="translate(123.71875 463.158437)scale(0.1 -0.1)">
       <use xlink:href="#DejaVuSans-48"/>
      </g>
     </g>
    </g>
    <g id="xtick_2">
     <g id="line2d_2">
      <g>
       <use style="stroke:#000000;stroke-width:0.8;" x="260.82" xlink:href="#mcbb9372a3e" y="448.56"/>
      </g>
     </g>
     <g id="text_2">
      <!-- 10 -->
      <defs>
       <path d="M 12.40625 8.296875 
L 28.515625 8.296875 
L 28.515625 63.921875 
L 10.984375 60.40625 
L 10.984375 69.390625 
L 28.421875 72.90625 
L 38.28125 72.90625 
L 38.28125 8.296875 
L 54.390625 8.296875 
L 54.390625 0 
L 12.40625 0 
z
" id="DejaVuSans-49"/>
      </defs>
      <g transform="translate(254.4575 463.158437)scale(0.1 -0.1)">
       <use xlink:href="#DejaVuSans-49"/>
       <use x="63.623047" xlink:href="#DejaVuSans-48"/>
      </g>
     </g>
    </g>
    <g id="xtick_3">
     <g id="line2d_3">
      <g>
       <use style="stroke:#000000;stroke-width:0.8;" x="394.74" xlink:href="#mcbb9372a3e" y="448.56"/>
      </g>
     </g>
     <g id="text_3">
      <!-- 20 -->
      <defs>
       <path d="M 19.1875 8.296875 
L 53.609375 8.296875 
L 53.609375 0 
L 7.328125 0 
L 7.328125 8.296875 
Q 12.9375 14.109375 22.625 23.890625 
Q 32.328125 33.6875 34.8125 36.53125 
Q 39.546875 41.84375 41.421875 45.53125 
Q 43.3125 49.21875 43.3125 52.78125 
Q 43.3125 58.59375 39.234375 62.25 
Q 35.15625 65.921875 28.609375 65.921875 
Q 23.96875 65.921875 18.8125 64.3125 
Q 13.671875 62.703125 7.8125 59.421875 
L 7.8125 69.390625 
Q 13.765625 71.78125 18.9375 73 
Q 24.125 74.21875 28.421875 74.21875 
Q 39.75 74.21875 46.484375 68.546875 
Q 53.21875 62.890625 53.21875 53.421875 
Q 53.21875 48.921875 51.53125 44.890625 
Q 49.859375 40.875 45.40625 35.40625 
Q 44.1875 33.984375 37.640625 27.21875 
Q 31.109375 20.453125 19.1875 8.296875 
z
" id="DejaVuSans-50"/>
      </defs>
      <g transform="translate(388.3775 463.158437)scale(0.1 -0.1)">
       <use xlink:href="#DejaVuSans-50"/>
       <use x="63.623047" xlink:href="#DejaVuSans-48"/>
      </g>
     </g>
    </g>
    <g id="xtick_4">
     <g id="line2d_4">
      <g>
       <use style="stroke:#000000;stroke-width:0.8;" x="528.66" xlink:href="#mcbb9372a3e" y="448.56"/>
      </g>
     </g>
     <g id="text_4">
      <!-- 30 -->
      <defs>
       <path d="M 40.578125 39.3125 
Q 47.65625 37.796875 51.625 33 
Q 55.609375 28.21875 55.609375 21.1875 
Q 55.609375 10.40625 48.1875 4.484375 
Q 40.765625 -1.421875 27.09375 -1.421875 
Q 22.515625 -1.421875 17.65625 -0.515625 
Q 12.796875 0.390625 7.625 2.203125 
L 7.625 11.71875 
Q 11.71875 9.328125 16.59375 8.109375 
Q 21.484375 6.890625 26.8125 6.890625 
Q 36.078125 6.890625 40.9375 10.546875 
Q 45.796875 14.203125 45.796875 21.1875 
Q 45.796875 27.640625 41.28125 31.265625 
Q 36.765625 34.90625 28.71875 34.90625 
L 20.21875 34.90625 
L 20.21875 43.015625 
L 29.109375 43.015625 
Q 36.375 43.015625 40.234375 45.921875 
Q 44.09375 48.828125 44.09375 54.296875 
Q 44.09375 59.90625 40.109375 62.90625 
Q 36.140625 65.921875 28.71875 65.921875 
Q 24.65625 65.921875 20.015625 65.03125 
Q 15.375 64.15625 9.8125 62.3125 
L 9.8125 71.09375 
Q 15.4375 72.65625 20.34375 73.4375 
Q 25.25 74.21875 29.59375 74.21875 
Q 40.828125 74.21875 47.359375 69.109375 
Q 53.90625 64.015625 53.90625 55.328125 
Q 53.90625 49.265625 50.4375 45.09375 
Q 46.96875 40.921875 40.578125 39.3125 
z
" id="DejaVuSans-51"/>
      </defs>
      <g transform="translate(522.2975 463.158437)scale(0.1 -0.1)">
       <use xlink:href="#DejaVuSans-51"/>
       <use x="63.623047" xlink:href="#DejaVuSans-48"/>
      </g>
     </g>
    </g>
    <g id="xtick_5">
     <g id="line2d_5">
      <g>
       <use style="stroke:#000000;stroke-width:0.8;" x="662.58" xlink:href="#mcbb9372a3e" y="448.56"/>
      </g>
     </g>
     <g id="text_5">
      <!-- 40 -->
      <defs>
       <path d="M 37.796875 64.3125 
L 12.890625 25.390625 
L 37.796875 25.390625 
z
M 35.203125 72.90625 
L 47.609375 72.90625 
L 47.609375 25.390625 
L 58.015625 25.390625 
L 58.015625 17.1875 
L 47.609375 17.1875 
L 47.609375 0 
L 37.796875 0 
L 37.796875 17.1875 
L 4.890625 17.1875 
L 4.890625 26.703125 
z
" id="DejaVuSans-52"/>
      </defs>
      <g transform="translate(656.2175 463.158437)scale(0.1 -0.1)">
       <use xlink:href="#DejaVuSans-52"/>
       <use x="63.623047" xlink:href="#DejaVuSans-48"/>
      </g>
     </g>
    </g>
    <g id="text_6">
     <!-- Time (hours) -->
     <defs>
      <path d="M -0.296875 72.90625 
L 61.375 72.90625 
L 61.375 64.59375 
L 35.5 64.59375 
L 35.5 0 
L 25.59375 0 
L 25.59375 64.59375 
L -0.296875 64.59375 
z
" id="DejaVuSans-84"/>
      <path d="M 9.421875 54.6875 
L 18.40625 54.6875 
L 18.40625 0 
L 9.421875 0 
z
M 9.421875 75.984375 
L 18.40625 75.984375 
L 18.40625 64.59375 
L 9.421875 64.59375 
z
" id="DejaVuSans-105"/>
      <path d="M 52 44.1875 
Q 55.375 50.25 60.0625 53.125 
Q 64.75 56 71.09375 56 
Q 79.640625 56 84.28125 50.015625 
Q 88.921875 44.046875 88.921875 33.015625 
L 88.921875 0 
L 79.890625 0 
L 79.890625 32.71875 
Q 79.890625 40.578125 77.09375 44.375 
Q 74.3125 48.1875 68.609375 48.1875 
Q 61.625 48.1875 57.5625 43.546875 
Q 53.515625 38.921875 53.515625 30.90625 
L 53.515625 0 
L 44.484375 0 
L 44.484375 32.71875 
Q 44.484375 40.625 41.703125 44.40625 
Q 38.921875 48.1875 33.109375 48.1875 
Q 26.21875 48.1875 22.15625 43.53125 
Q 18.109375 38.875 18.109375 30.90625 
L 18.109375 0 
L 9.078125 0 
L 9.078125 54.6875 
L 18.109375 54.6875 
L 18.109375 46.1875 
Q 21.1875 51.21875 25.484375 53.609375 
Q 29.78125 56 35.6875 56 
Q 41.65625 56 45.828125 52.96875 
Q 50 49.953125 52 44.1875 
z
" id="DejaVuSans-109"/>
      <path d="M 56.203125 29.59375 
L 56.203125 25.203125 
L 14.890625 25.203125 
Q 15.484375 15.921875 20.484375 11.0625 
Q 25.484375 6.203125 34.421875 6.203125 
Q 39.59375 6.203125 44.453125 7.46875 
Q 49.3125 8.734375 54.109375 11.28125 
L 54.109375 2.78125 
Q 49.265625 0.734375 44.1875 -0.34375 
Q 39.109375 -1.421875 33.890625 -1.421875 
Q 20.796875 -1.421875 13.15625 6.1875 
Q 5.515625 13.8125 5.515625 26.8125 
Q 5.515625 40.234375 12.765625 48.109375 
Q 20.015625 56 32.328125 56 
Q 43.359375 56 49.78125 48.890625 
Q 56.203125 41.796875 56.203125 29.59375 
z
M 47.21875 32.234375 
Q 47.125 39.59375 43.09375 43.984375 
Q 39.0625 48.390625 32.421875 48.390625 
Q 24.90625 48.390625 20.390625 44.140625 
Q 15.875 39.890625 15.1875 32.171875 
z
" id="DejaVuSans-101"/>
      <path id="DejaVuSans-32"/>
      <path d="M 31 75.875 
Q 24.46875 64.65625 21.28125 53.65625 
Q 18.109375 42.671875 18.109375 31.390625 
Q 18.109375 20.125 21.3125 9.0625 
Q 24.515625 -2 31 -13.1875 
L 23.1875 -13.1875 
Q 15.875 -1.703125 12.234375 9.375 
Q 8.59375 20.453125 8.59375 31.390625 
Q 8.59375 42.28125 12.203125 53.3125 
Q 15.828125 64.359375 23.1875 75.875 
z
" id="DejaVuSans-40"/>
      <path d="M 54.890625 33.015625 
L 54.890625 0 
L 45.90625 0 
L 45.90625 32.71875 
Q 45.90625 40.484375 42.875 44.328125 
Q 39.84375 48.1875 33.796875 48.1875 
Q 26.515625 48.1875 22.3125 43.546875 
Q 18.109375 38.921875 18.109375 30.90625 
L 18.109375 0 
L 9.078125 0 
L 9.078125 75.984375 
L 18.109375 75.984375 
L 18.109375 46.1875 
Q 21.34375 51.125 25.703125 53.5625 
Q 30.078125 56 35.796875 56 
Q 45.21875 56 50.046875 50.171875 
Q 54.890625 44.34375 54.890625 33.015625 
z
" id="DejaVuSans-104"/>
      <path d="M 30.609375 48.390625 
Q 23.390625 48.390625 19.1875 42.75 
Q 14.984375 37.109375 14.984375 27.296875 
Q 14.984375 17.484375 19.15625 11.84375 
Q 23.34375 6.203125 30.609375 6.203125 
Q 37.796875 6.203125 41.984375 11.859375 
Q 46.1875 17.53125 46.1875 27.296875 
Q 46.1875 37.015625 41.984375 42.703125 
Q 37.796875 48.390625 30.609375 48.390625 
z
M 30.609375 56 
Q 42.328125 56 49.015625 48.375 
Q 55.71875 40.765625 55.71875 27.296875 
Q 55.71875 13.875 49.015625 6.21875 
Q 42.328125 -1.421875 30.609375 -1.421875 
Q 18.84375 -1.421875 12.171875 6.21875 
Q 5.515625 13.875 5.515625 27.296875 
Q 5.515625 40.765625 12.171875 48.375 
Q 18.84375 56 30.609375 56 
z
" id="DejaVuSans-111"/>
      <path d="M 8.5 21.578125 
L 8.5 54.6875 
L 17.484375 54.6875 
L 17.484375 21.921875 
Q 17.484375 14.15625 20.5 10.265625 
Q 23.53125 6.390625 29.59375 6.390625 
Q 36.859375 6.390625 41.078125 11.03125 
Q 45.3125 15.671875 45.3125 23.6875 
L 45.3125 54.6875 
L 54.296875 54.6875 
L 54.296875 0 
L 45.3125 0 
L 45.3125 8.40625 
Q 42.046875 3.421875 37.71875 1 
Q 33.40625 -1.421875 27.6875 -1.421875 
Q 18.265625 -1.421875 13.375 4.4375 
Q 8.5 10.296875 8.5 21.578125 
z
M 31.109375 56 
z
" id="DejaVuSans-117"/>
      <path d="M 41.109375 46.296875 
Q 39.59375 47.171875 37.8125 47.578125 
Q 36.03125 48 33.890625 48 
Q 26.265625 48 22.1875 43.046875 
Q 18.109375 38.09375 18.109375 28.8125 
L 18.109375 0 
L 9.078125 0 
L 9.078125 54.6875 
L 18.109375 54.6875 
L 18.109375 46.1875 
Q 20.953125 51.171875 25.484375 53.578125 
Q 30.03125 56 36.53125 56 
Q 37.453125 56 38.578125 55.875 
Q 39.703125 55.765625 41.0625 55.515625 
z
" id="DejaVuSans-114"/>
      <path d="M 44.28125 53.078125 
L 44.28125 44.578125 
Q 40.484375 46.53125 36.375 47.5 
Q 32.28125 48.484375 27.875 48.484375 
Q 21.1875 48.484375 17.84375 46.4375 
Q 14.5 44.390625 14.5 40.28125 
Q 14.5 37.15625 16.890625 35.375 
Q 19.28125 33.59375 26.515625 31.984375 
L 29.59375 31.296875 
Q 39.15625 29.25 43.1875 25.515625 
Q 47.21875 21.78125 47.21875 15.09375 
Q 47.21875 7.46875 41.1875 3.015625 
Q 35.15625 -1.421875 24.609375 -1.421875 
Q 20.21875 -1.421875 15.453125 -0.5625 
Q 10.6875 0.296875 5.421875 2 
L 5.421875 11.28125 
Q 10.40625 8.6875 15.234375 7.390625 
Q 20.0625 6.109375 24.8125 6.109375 
Q 31.15625 6.109375 34.5625 8.28125 
Q 37.984375 10.453125 37.984375 14.40625 
Q 37.984375 18.0625 35.515625 20.015625 
Q 33.0625 21.96875 24.703125 23.78125 
L 21.578125 24.515625 
Q 13.234375 26.265625 9.515625 29.90625 
Q 5.8125 33.546875 5.8125 39.890625 
Q 5.8125 47.609375 11.28125 51.796875 
Q 16.75 56 26.8125 56 
Q 31.78125 56 36.171875 55.265625 
Q 40.578125 54.546875 44.28125 53.078125 
z
" id="DejaVuSans-115"/>
      <path d="M 8.015625 75.875 
L 15.828125 75.875 
Q 23.140625 64.359375 26.78125 53.3125 
Q 30.421875 42.28125 30.421875 31.390625 
Q 30.421875 20.453125 26.78125 9.375 
Q 23.140625 -1.703125 15.828125 -13.1875 
L 8.015625 -13.1875 
Q 14.5 -2 17.703125 9.0625 
Q 20.90625 20.125 20.90625 31.390625 
Q 20.90625 42.671875 17.703125 53.65625 
Q 14.5 64.65625 8.015625 75.875 
z
" id="DejaVuSans-41"/>
     </defs>
     <g transform="translate(373.964844 476.836563)scale(0.1 -0.1)">
      <use xlink:href="#DejaVuSans-84"/>
      <use x="61.037109" xlink:href="#DejaVuSans-105"/>
      <use x="88.820312" xlink:href="#DejaVuSans-109"/>
      <use x="186.232422" xlink:href="#DejaVuSans-101"/>
      <use x="247.755859" xlink:href="#DejaVuSans-32"/>
      <use x="279.542969" xlink:href="#DejaVuSans-40"/>
      <use x="318.556641" xlink:href="#DejaVuSans-104"/>
      <use x="381.935547" xlink:href="#DejaVuSans-111"/>
      <use x="443.117188" xlink:href="#DejaVuSans-117"/>
      <use x="506.496094" xlink:href="#DejaVuSans-114"/>
      <use x="547.609375" xlink:href="#DejaVuSans-115"/>
      <use x="599.708984" xlink:href="#DejaVuSans-41"/>
     </g>
    </g>
   </g>
   <g id="matplotlib.axis_2">
    <g id="ytick_1">
     <g id="line2d_6">
      <defs>
       <path d="M 0 0 
L -3.5 0 
" id="mf39e56b4fb" style="stroke:#000000;stroke-width:0.8;"/>
      </defs>
      <g>
       <use style="stroke:#000000;stroke-width:0.8;" x="99" xlink:href="#mf39e56b4fb" y="437.528133"/>
      </g>
     </g>
     <g id="text_7">
      <!-- −20 -->
      <defs>
       <path d="M 10.59375 35.5 
L 73.1875 35.5 
L 73.1875 27.203125 
L 10.59375 27.203125 
z
" id="DejaVuSans-8722"/>
      </defs>
      <g transform="translate(70.895313 441.327352)scale(0.1 -0.1)">
       <use xlink:href="#DejaVuSans-8722"/>
       <use x="83.789062" xlink:href="#DejaVuSans-50"/>
       <use x="147.412109" xlink:href="#DejaVuSans-48"/>
      </g>
     </g>
    </g>
    <g id="ytick_2">
     <g id="line2d_7">
      <g>
       <use style="stroke:#000000;stroke-width:0.8;" x="99" xlink:href="#mf39e56b4fb" y="372.84635"/>
      </g>
     </g>
     <g id="text_8">
      <!-- −10 -->
      <g transform="translate(70.895313 376.645569)scale(0.1 -0.1)">
       <use xlink:href="#DejaVuSans-8722"/>
       <use x="83.789062" xlink:href="#DejaVuSans-49"/>
       <use x="147.412109" xlink:href="#DejaVuSans-48"/>
      </g>
     </g>
    </g>
    <g id="ytick_3">
     <g id="line2d_8">
      <g>
       <use style="stroke:#000000;stroke-width:0.8;" x="99" xlink:href="#mf39e56b4fb" y="308.164567"/>
      </g>
     </g>
     <g id="text_9">
      <!-- 0 -->
      <g transform="translate(85.6375 311.963785)scale(0.1 -0.1)">
       <use xlink:href="#DejaVuSans-48"/>
      </g>
     </g>
    </g>
    <g id="ytick_4">
     <g id="line2d_9">
      <g>
       <use style="stroke:#000000;stroke-width:0.8;" x="99" xlink:href="#mf39e56b4fb" y="243.482783"/>
      </g>
     </g>
     <g id="text_10">
      <!-- 10 -->
      <g transform="translate(79.275 247.282002)scale(0.1 -0.1)">
       <use xlink:href="#DejaVuSans-49"/>
       <use x="63.623047" xlink:href="#DejaVuSans-48"/>
      </g>
     </g>
    </g>
    <g id="ytick_5">
     <g id="line2d_10">
      <g>
       <use style="stroke:#000000;stroke-width:0.8;" x="99" xlink:href="#mf39e56b4fb" y="178.801"/>
      </g>
     </g>
     <g id="text_11">
      <!-- 20 -->
      <g transform="translate(79.275 182.600219)scale(0.1 -0.1)">
       <use xlink:href="#DejaVuSans-50"/>
       <use x="63.623047" xlink:href="#DejaVuSans-48"/>
      </g>
     </g>
    </g>
    <g id="ytick_6">
     <g id="line2d_11">
      <g>
       <use style="stroke:#000000;stroke-width:0.8;" x="99" xlink:href="#mf39e56b4fb" y="114.119217"/>
      </g>
     </g>
     <g id="text_12">
      <!-- 30 -->
      <g transform="translate(79.275 117.918436)scale(0.1 -0.1)">
       <use xlink:href="#DejaVuSans-51"/>
       <use x="63.623047" xlink:href="#DejaVuSans-48"/>
      </g>
     </g>
    </g>
    <g id="text_13">
     <!-- Trending score -->
     <defs>
      <path d="M 54.890625 33.015625 
L 54.890625 0 
L 45.90625 0 
L 45.90625 32.71875 
Q 45.90625 40.484375 42.875 44.328125 
Q 39.84375 48.1875 33.796875 48.1875 
Q 26.515625 48.1875 22.3125 43.546875 
Q 18.109375 38.921875 18.109375 30.90625 
L 18.109375 0 
L 9.078125 0 
L 9.078125 54.6875 
L 18.109375 54.6875 
L 18.109375 46.1875 
Q 21.34375 51.125 25.703125 53.5625 
Q 30.078125 56 35.796875 56 
Q 45.21875 56 50.046875 50.171875 
Q 54.890625 44.34375 54.890625 33.015625 
z
" id="DejaVuSans-110"/>
      <path d="M 45.40625 46.390625 
L 45.40625 75.984375 
L 54.390625 75.984375 
L 54.390625 0 
L 45.40625 0 
L 45.40625 8.203125 
Q 42.578125 3.328125 38.25 0.953125 
Q 33.9375 -1.421875 27.875 -1.421875 
Q 17.96875 -1.421875 11.734375 6.484375 
Q 5.515625 14.40625 5.515625 27.296875 
Q 5.515625 40.1875 11.734375 48.09375 
Q 17.96875 56 27.875 56 
Q 33.9375 56 38.25 53.625 
Q 42.578125 51.265625 45.40625 46.390625 
z
M 14.796875 27.296875 
Q 14.796875 17.390625 18.875 11.75 
Q 22.953125 6.109375 30.078125 6.109375 
Q 37.203125 6.109375 41.296875 11.75 
Q 45.40625 17.390625 45.40625 27.296875 
Q 45.40625 37.203125 41.296875 42.84375 
Q 37.203125 48.484375 30.078125 48.484375 
Q 22.953125 48.484375 18.875 42.84375 
Q 14.796875 37.203125 14.796875 27.296875 
z
" id="DejaVuSans-100"/>
      <path d="M 45.40625 27.984375 
Q 45.40625 37.75 41.375 43.109375 
Q 37.359375 48.484375 30.078125 48.484375 
Q 22.859375 48.484375 18.828125 43.109375 
Q 14.796875 37.75 14.796875 27.984375 
Q 14.796875 18.265625 18.828125 12.890625 
Q 22.859375 7.515625 30.078125 7.515625 
Q 37.359375 7.515625 41.375 12.890625 
Q 45.40625 18.265625 45.40625 27.984375 
z
M 54.390625 6.78125 
Q 54.390625 -7.171875 48.1875 -13.984375 
Q 42 -20.796875 29.203125 -20.796875 
Q 24.46875 -20.796875 20.265625 -20.09375 
Q 16.0625 -19.390625 12.109375 -17.921875 
L 12.109375 -9.1875 
Q 16.0625 -11.328125 19.921875 -12.34375 
Q 23.78125 -13.375 27.78125 -13.375 
Q 36.625 -13.375 41.015625 -8.765625 
Q 45.40625 -4.15625 45.40625 5.171875 
L 45.40625 9.625 
Q 42.625 4.78125 38.28125 2.390625 
Q 33.9375 0 27.875 0 
Q 17.828125 0 11.671875 7.65625 
Q 5.515625 15.328125 5.515625 27.984375 
Q 5.515625 40.671875 11.671875 48.328125 
Q 17.828125 56 27.875 56 
Q 33.9375 56 38.28125 53.609375 
Q 42.625 51.21875 45.40625 46.390625 
L 45.40625 54.6875 
L 54.390625 54.6875 
z
" id="DejaVuSans-103"/>
      <path d="M 48.78125 52.59375 
L 48.78125 44.1875 
Q 44.96875 46.296875 41.140625 47.34375 
Q 37.3125 48.390625 33.40625 48.390625 
Q 24.65625 48.390625 19.8125 42.84375 
Q 14.984375 37.3125 14.984375 27.296875 
Q 14.984375 17.28125 19.8125 11.734375 
Q 24.65625 6.203125 33.40625 6.203125 
Q 37.3125 6.203125 41.140625 7.25 
Q 44.96875 8.296875 48.78125 10.40625 
L 48.78125 2.09375 
Q 45.015625 0.34375 40.984375 -0.53125 
Q 36.96875 -1.421875 32.421875 -1.421875 
Q 20.0625 -1.421875 12.78125 6.34375 
Q 5.515625 14.109375 5.515625 27.296875 
Q 5.515625 40.671875 12.859375 48.328125 
Q 20.21875 56 33.015625 56 
Q 37.15625 56 41.109375 55.140625 
Q 45.0625 54.296875 48.78125 52.59375 
z
" id="DejaVuSans-99"/>
     </defs>
     <g transform="translate(64.815625 291.90125)rotate(-90)scale(0.1 -0.1)">
      <use xlink:href="#DejaVuSans-84"/>
      <use x="60.865234" xlink:href="#DejaVuSans-114"/>
      <use x="101.947266" xlink:href="#DejaVuSans-101"/>
      <use x="163.470703" xlink:href="#DejaVuSans-110"/>
      <use x="226.849609" xlink:href="#DejaVuSans-100"/>
      <use x="290.326172" xlink:href="#DejaVuSans-105"/>
      <use x="318.109375" xlink:href="#DejaVuSans-110"/>
      <use x="381.488281" xlink:href="#DejaVuSans-103"/>
      <use x="444.964844" xlink:href="#DejaVuSans-32"/>
      <use x="476.751953" xlink:href="#DejaVuSans-115"/>
      <use x="528.851562" xlink:href="#DejaVuSans-99"/>
      <use x="583.832031" xlink:href="#DejaVuSans-111"/>
      <use x="645.013672" xlink:href="#DejaVuSans-114"/>
      <use x="686.095703" xlink:href="#DejaVuSans-101"/>
     </g>
    </g>
   </g>
   <g id="line2d_12">
    <path clip-path="url(#p567b661179)" d="M 126.9 308.164567 
L 127.458 78.12 
L 132.48 88.584179 
L 137.502 98.572367 
L 142.524 108.106217 
L 147.546 117.206394 
L 152.568 125.892626 
L 158.148 135.081376 
L 163.728 143.8069 
L 169.308 152.09255 
L 174.888 159.960501 
L 180.468 167.431811 
L 186.048 174.526474 
L 191.628 181.26348 
L 197.208 187.660857 
L 202.788 193.735728 
L 208.368 199.50435 
L 214.506 205.51452 
L 220.644 211.192259 
L 226.782 216.555952 
L 232.92 221.622971 
L 239.058 226.409726 
L 245.196 230.931717 
L 251.892 235.580023 
L 258.588 239.948568 
L 265.284 244.05419 
L 271.98 247.912712 
L 279.234 251.83116 
L 286.488 255.494773 
L 293.742 258.920125 
L 301.554 262.36026 
L 309.366 265.560072 
L 317.736 268.740807 
L 326.106 271.684078 
L 335.034 274.581777 
L 343.962 277.249308 
L 353.448 279.851787 
L 363.492 282.368966 
L 374.094 284.783609 
L 384.696 286.972226 
L 395.856 289.055077 
L 407.574 291.022123 
L 420.408 292.944961 
L 433.8 294.721833 
L 448.308 296.413459 
L 463.374 297.945212 
L 479.556 299.368769 
L 497.412 300.7106 
L 516.384 301.912743 
L 537.588 303.02839 
L 561.024 304.031358 
L 587.25 304.923394 
L 616.824 305.700582 
L 650.862 306.367344 
L 684.9 306.853678 
L 684.9 306.853678 
" style="fill:none;stroke:#1f77b4;stroke-linecap:square;stroke-width:1.5;"/>
   </g>
   <g id="line2d_13">
    <path clip-path="url(#p567b661179)" d="M 126.9 308.164567 
L 127.458 178.801 
L 133.038 185.322517 
L 138.618 191.515269 
L 144.198 197.395829 
L 149.778 202.979938 
L 155.916 208.797868 
L 162.054 214.293999 
L 168.192 219.48613 
L 174.33 224.391076 
L 180.468 229.024722 
L 187.164 233.787802 
L 193.86 238.264213 
L 200.556 242.471209 
L 207.252 246.425004 
L 214.506 250.440204 
L 221.76 254.194277 
L 229.014 257.704207 
L 236.826 261.229283 
L 244.638 264.508103 
L 253.008 267.767376 
L 261.378 270.78332 
L 270.306 273.752568 
L 279.234 276.485964 
L 288.72 279.152702 
L 298.764 281.732034 
L 308.808 284.082047 
L 319.41 286.336335 
L 330.57 288.481684 
L 342.288 290.507752 
L 354.564 292.406986 
L 367.956 294.246667 
L 381.906 295.934991 
L 396.972 297.529111 
L 413.154 299.010632 
L 430.452 300.366866 
L 447.75 301.522163 
L 448.308 430.92 
L 453.888 424.731615 
L 459.468 418.8552 
L 465.048 413.27503 
L 471.186 407.461202 
L 477.324 401.968946 
L 483.462 396.780476 
L 489.6 391.878988 
L 495.738 387.248609 
L 502.434 382.488888 
L 509.13 378.015633 
L 515.826 373.811604 
L 522.522 369.860597 
L 529.776 365.848228 
L 537.03 362.096801 
L 544.284 358.589347 
L 552.096 355.066756 
L 559.908 351.790248 
L 568.278 348.533273 
L 576.648 345.519455 
L 585.576 342.552301 
L 594.504 339.820833 
L 603.99 337.155975 
L 614.034 334.578462 
L 624.078 332.230105 
L 634.68 329.977407 
L 645.84 327.833571 
L 657.558 325.808932 
L 669.834 323.911036 
L 683.226 322.072653 
L 684.9 321.85849 
L 684.9 321.85849 
" style="fill:none;stroke:#ff7f0e;stroke-linecap:square;stroke-width:1.5;"/>
   </g>
   <g id="line2d_14">
    <path clip-path="url(#p567b661179)" d="M 126.9 308.164567 
L 127.458 221.653936 
L 133.596 226.438977 
L 139.734 230.95935 
L 146.43 235.605994 
L 153.126 239.972976 
L 159.822 244.077128 
L 166.518 247.93427 
L 173.772 251.851316 
L 181.026 255.513618 
L 188.28 258.937745 
L 196.092 262.376648 
L 203.904 265.575315 
L 212.274 268.754913 
L 220.644 271.697131 
L 229.572 274.593793 
L 238.5 277.260369 
L 247.986 279.861917 
L 249.66 280.297733 
L 250.218 264.108672 
L 258.03 267.186343 
L 266.4 270.245665 
L 274.77 273.076587 
L 283.698 275.863678 
L 293.184 278.5828 
L 302.67 281.073024 
L 312.714 283.481628 
L 323.316 285.792119 
L 334.476 287.990955 
L 346.194 290.067536 
L 358.47 292.014122 
L 371.304 293.825689 
L 372.42 293.973267 
L 372.978 275.016215 
L 381.906 277.649238 
L 391.392 280.21805 
L 401.436 282.702666 
L 412.038 285.086073 
L 423.198 287.354302 
L 434.916 289.496417 
L 447.192 291.504435 
L 460.026 293.373173 
L 473.418 295.100052 
L 487.926 296.744084 
L 495.18 297.486809 
L 495.738 276.979093 
L 505.224 279.604319 
L 515.268 282.143499 
L 525.312 284.456931 
L 535.914 286.676127 
L 547.074 288.78808 
L 558.792 290.782609 
L 571.068 292.652279 
L 584.46 294.463321 
L 598.41 296.125364 
L 613.476 297.694669 
L 617.94 298.119091 
L 618.498 277.718859 
L 627.984 280.281811 
L 638.028 282.760758 
L 648.63 285.138727 
L 659.79 287.401781 
L 671.508 289.539009 
L 683.784 291.542445 
L 684.9 291.713523 
L 684.9 291.713523 
" style="fill:none;stroke:#2ca02c;stroke-linecap:square;stroke-width:1.5;"/>
   </g>
   <g id="line2d_15">
    <path clip-path="url(#p567b661179)" d="M 126.9 308.164567 
L 127.458 288.811796 
L 129.69 289.20811 
L 130.248 285.013343 
L 132.48 285.487442 
L 133.038 282.229362 
L 135.27 282.760472 
L 135.828 279.978174 
L 138.06 280.555386 
L 138.618 278.076075 
L 140.85 278.692238 
L 141.408 276.428057 
L 143.64 277.077969 
L 144.198 274.976742 
L 146.43 275.656375 
L 146.988 273.683995 
L 149.22 274.390101 
L 149.778 272.52276 
L 152.01 273.252647 
L 152.568 271.472916 
L 154.8 272.224301 
L 155.358 270.518947 
L 157.59 271.289868 
L 158.148 269.648551 
L 160.38 270.437297 
L 160.938 268.851751 
L 163.17 269.656813 
L 163.728 268.120304 
L 165.96 268.940345 
L 166.518 267.447295 
L 168.75 268.281118 
L 169.308 266.826849 
L 171.54 267.673378 
L 172.098 266.253915 
L 174.33 267.112177 
L 174.888 265.724116 
L 177.12 266.593227 
L 177.678 265.23362 
L 179.91 266.112776 
L 180.468 264.779053 
L 182.7 265.667517 
L 183.258 264.357423 
L 185.49 265.254522 
L 186.048 263.966065 
L 188.28 264.871178 
L 188.838 263.602589 
L 191.07 264.515146 
L 191.628 263.264845 
L 193.86 264.184318 
L 194.418 262.95089 
L 196.65 263.876792 
L 197.208 262.658963 
L 199.44 263.590844 
L 199.998 262.387463 
L 202.23 263.324903 
L 202.788 262.134926 
L 205.02 263.077538 
L 205.578 261.900017 
L 207.81 262.847439 
L 208.368 261.681508 
L 210.6 262.633405 
L 211.158 261.478272 
L 213.39 262.434332 
L 213.948 261.289273 
L 216.18 262.249203 
L 216.738 261.113553 
L 218.97 262.077081 
L 219.528 260.950227 
L 221.76 261.9171 
L 222.318 260.798477 
L 224.55 261.768457 
L 225.108 260.657543 
L 227.34 261.630409 
L 227.898 260.526721 
L 230.13 261.502266 
L 230.688 260.405357 
L 232.92 261.383387 
L 233.478 260.292841 
L 235.71 261.273176 
L 236.268 260.188608 
L 238.5 261.171078 
L 239.058 260.092129 
L 241.29 261.076575 
L 241.848 260.002911 
L 244.08 260.989183 
L 244.638 259.920494 
L 246.87 260.908454 
L 247.428 259.844447 
L 249.66 260.833964 
L 250.218 259.774369 
L 252.45 260.765322 
L 253.008 259.709884 
L 255.24 260.702157 
L 255.798 259.65064 
L 258.03 260.644126 
L 258.588 259.596306 
L 260.82 260.590905 
L 261.378 259.546575 
L 263.61 260.542192 
L 264.168 259.501156 
L 266.4 260.497703 
L 266.958 259.459777 
L 269.19 260.457172 
L 269.748 259.422185 
L 271.98 260.420349 
L 272.538 259.388139 
L 274.77 260.387 
L 275.328 259.357415 
L 277.56 260.356906 
L 278.118 259.329802 
L 280.35 260.329858 
L 280.908 259.305102 
L 283.14 260.305664 
L 283.698 259.283129 
L 285.93 260.284141 
L 286.488 259.263708 
L 288.72 260.265118 
L 289.278 259.246674 
L 291.51 260.248432 
L 292.068 259.231873 
L 294.3 260.233934 
L 294.858 259.219159 
L 297.09 260.221481 
L 297.648 259.208396 
L 299.88 260.210939 
L 300.438 259.199455 
L 302.67 260.202181 
L 303.228 259.192216 
L 305.46 260.19509 
L 306.018 259.186564 
L 308.25 260.189554 
L 308.808 259.182393 
L 311.04 260.185468 
L 311.598 259.179602 
L 313.83 260.182734 
L 314.388 259.178096 
L 316.62 260.181259 
L 317.178 259.177787 
L 319.41 260.180956 
L 319.968 259.17859 
L 322.2 260.181743 
L 322.758 259.180427 
L 324.99 260.183543 
L 325.548 259.183225 
L 327.78 260.186283 
L 328.338 259.186912 
L 330.57 260.189895 
L 331.128 259.191425 
L 333.36 260.194315 
L 333.918 259.1967 
L 336.15 260.199483 
L 336.708 259.202682 
L 338.94 260.205341 
L 339.498 259.209314 
L 341.73 260.211838 
L 342.288 259.216546 
L 344.52 260.218922 
L 345.078 259.22433 
L 347.31 260.226546 
L 347.868 259.232621 
L 350.1 260.234667 
L 350.658 259.241376 
L 352.89 260.243243 
L 353.448 259.250556 
L 355.68 260.252235 
L 356.238 259.260123 
L 358.47 260.261607 
L 359.028 259.270043 
L 361.26 260.271323 
L 361.818 259.280282 
L 364.05 260.281352 
L 364.608 259.29081 
L 366.84 260.291665 
L 367.398 259.301597 
L 369.63 260.302231 
L 370.188 259.312617 
L 372.42 260.313026 
L 372.978 259.323845 
L 375.21 260.324023 
L 375.768 259.335256 
L 378 260.335201 
L 378.558 259.346828 
L 380.79 260.346536 
L 381.348 259.358541 
L 383.58 260.358009 
L 384.138 259.370376 
L 386.37 260.369601 
L 386.928 259.382313 
L 389.16 260.381294 
L 389.718 259.394336 
L 391.95 260.393071 
L 392.508 259.406429 
L 394.74 260.404916 
L 395.298 259.418578 
L 397.53 260.416816 
L 398.088 259.430768 
L 400.32 260.428757 
L 400.878 259.442987 
L 403.11 260.440726 
L 403.668 259.455223 
L 405.9 260.452712 
L 406.458 259.467465 
L 408.69 260.464703 
L 409.248 259.479703 
L 411.48 260.47669 
L 412.038 259.491927 
L 414.27 260.488663 
L 414.828 259.504127 
L 417.06 260.500614 
L 417.618 259.516297 
L 419.85 260.512534 
L 420.408 259.528428 
L 422.64 260.524417 
L 423.198 259.540514 
L 425.43 260.536255 
L 425.988 259.552548 
L 428.22 260.548042 
L 428.778 259.564523 
L 431.01 260.559773 
L 431.568 259.576435 
L 433.8 260.571441 
L 434.358 259.588279 
L 436.59 260.583043 
L 437.148 259.60005 
L 439.38 260.594573 
L 439.938 259.611744 
L 442.17 260.606027 
L 442.728 259.623357 
L 444.96 260.617402 
L 445.518 259.634886 
L 453.33 263.025088 
L 461.142 266.178456 
L 469.512 269.313025 
L 477.882 272.213576 
L 486.81 275.069216 
L 495.738 277.698029 
L 505.224 280.262734 
L 515.268 282.743377 
L 525.87 285.122973 
L 537.03 287.387575 
L 548.748 289.526266 
L 561.024 291.531073 
L 573.858 293.396823 
L 587.25 295.120941 
L 601.758 296.762344 
L 617.382 298.299779 
L 634.122 299.717752 
L 651.978 301.006344 
L 671.508 302.191767 
L 684.9 302.889085 
L 684.9 302.889085 
" style="fill:none;stroke:#d62728;stroke-linecap:square;stroke-width:1.5;"/>
   </g>
   <g id="patch_3">
    <path d="M 99 448.56 
L 99 60.48 
" style="fill:none;stroke:#000000;stroke-linecap:square;stroke-linejoin:miter;stroke-width:0.8;"/>
   </g>
   <g id="patch_4">
    <path d="M 712.8 448.56 
L 712.8 60.48 
" style="fill:none;stroke:#000000;stroke-linecap:square;stroke-linejoin:miter;stroke-width:0.8;"/>
   </g>
   <g id="patch_5">
    <path d="M 99 448.56 
L 712.8 448.56 
" style="fill:none;stroke:#000000;stroke-linecap:square;stroke-linejoin:miter;stroke-width:0.8;"/>
   </g>
   <g id="patch_6">
    <path d="M 99 60.48 
L 712.8 60.48 
" style="fill:none;stroke:#000000;stroke-linecap:square;stroke-linejoin:miter;stroke-width:0.8;"/>
   </g>
   <g id="legend_1">
    <g id="patch_7">
     <path d="M 420.920313 127.1925 
L 705.8 127.1925 
Q 707.8 127.1925 707.8 125.1925 
L 707.8 67.48 
Q 707.8 65.48 705.8 65.48 
L 420.920313 65.48 
Q 418.920313 65.48 418.920313 67.48 
L 418.920313 125.1925 
Q 418.920313 127.1925 420.920313 127.1925 
z
" style="fill:#ffffff;opacity:0.8;stroke:#cccccc;stroke-linejoin:miter;"/>
    </g>
    <g id="line2d_16">
     <path d="M 422.920313 73.578438 
L 442.920313 73.578438 
" style="fill:none;stroke:#1f77b4;stroke-linecap:square;stroke-width:1.5;"/>
    </g>
    <g id="line2d_17"/>
    <g id="text_14">
     <!-- 100K LBC in a single support -->
     <defs>
      <path d="M 9.8125 72.90625 
L 19.671875 72.90625 
L 19.671875 42.09375 
L 52.390625 72.90625 
L 65.09375 72.90625 
L 28.90625 38.921875 
L 67.671875 0 
L 54.6875 0 
L 19.671875 35.109375 
L 19.671875 0 
L 9.8125 0 
z
" id="DejaVuSans-75"/>
      <path d="M 9.8125 72.90625 
L 19.671875 72.90625 
L 19.671875 8.296875 
L 55.171875 8.296875 
L 55.171875 0 
L 9.8125 0 
z
" id="DejaVuSans-76"/>
      <path d="M 19.671875 34.8125 
L 19.671875 8.109375 
L 35.5 8.109375 
Q 43.453125 8.109375 47.28125 11.40625 
Q 51.125 14.703125 51.125 21.484375 
Q 51.125 28.328125 47.28125 31.5625 
Q 43.453125 34.8125 35.5 34.8125 
z
M 19.671875 64.796875 
L 19.671875 42.828125 
L 34.28125 42.828125 
Q 41.5 42.828125 45.03125 45.53125 
Q 48.578125 48.25 48.578125 53.8125 
Q 48.578125 59.328125 45.03125 62.0625 
Q 41.5 64.796875 34.28125 64.796875 
z
M 9.8125 72.90625 
L 35.015625 72.90625 
Q 46.296875 72.90625 52.390625 68.21875 
Q 58.5 63.53125 58.5 54.890625 
Q 58.5 48.1875 55.375 44.234375 
Q 52.25 40.28125 46.1875 39.3125 
Q 53.46875 37.75 57.5 32.78125 
Q 61.53125 27.828125 61.53125 20.40625 
Q 61.53125 10.640625 54.890625 5.3125 
Q 48.25 0 35.984375 0 
L 9.8125 0 
z
" id="DejaVuSans-66"/>
      <path d="M 64.40625 67.28125 
L 64.40625 56.890625 
Q 59.421875 61.53125 53.78125 63.8125 
Q 48.140625 66.109375 41.796875 66.109375 
Q 29.296875 66.109375 22.65625 58.46875 
Q 16.015625 50.828125 16.015625 36.375 
Q 16.015625 21.96875 22.65625 14.328125 
Q 29.296875 6.6875 41.796875 6.6875 
Q 48.140625 6.6875 53.78125 8.984375 
Q 59.421875 11.28125 64.40625 15.921875 
L 64.40625 5.609375 
Q 59.234375 2.09375 53.4375 0.328125 
Q 47.65625 -1.421875 41.21875 -1.421875 
Q 24.65625 -1.421875 15.125 8.703125 
Q 5.609375 18.84375 5.609375 36.375 
Q 5.609375 53.953125 15.125 64.078125 
Q 24.65625 74.21875 41.21875 74.21875 
Q 47.75 74.21875 53.53125 72.484375 
Q 59.328125 70.75 64.40625 67.28125 
z
" id="DejaVuSans-67"/>
      <path d="M 34.28125 27.484375 
Q 23.390625 27.484375 19.1875 25 
Q 14.984375 22.515625 14.984375 16.5 
Q 14.984375 11.71875 18.140625 8.90625 
Q 21.296875 6.109375 26.703125 6.109375 
Q 34.1875 6.109375 38.703125 11.40625 
Q 43.21875 16.703125 43.21875 25.484375 
L 43.21875 27.484375 
z
M 52.203125 31.203125 
L 52.203125 0 
L 43.21875 0 
L 43.21875 8.296875 
Q 40.140625 3.328125 35.546875 0.953125 
Q 30.953125 -1.421875 24.3125 -1.421875 
Q 15.921875 -1.421875 10.953125 3.296875 
Q 6 8.015625 6 15.921875 
Q 6 25.140625 12.171875 29.828125 
Q 18.359375 34.515625 30.609375 34.515625 
L 43.21875 34.515625 
L 43.21875 35.40625 
Q 43.21875 41.609375 39.140625 45 
Q 35.0625 48.390625 27.6875 48.390625 
Q 23 48.390625 18.546875 47.265625 
Q 14.109375 46.140625 10.015625 43.890625 
L 10.015625 52.203125 
Q 14.9375 54.109375 19.578125 55.046875 
Q 24.21875 56 28.609375 56 
Q 40.484375 56 46.34375 49.84375 
Q 52.203125 43.703125 52.203125 31.203125 
z
" id="DejaVuSans-97"/>
      <path d="M 9.421875 75.984375 
L 18.40625 75.984375 
L 18.40625 0 
L 9.421875 0 
z
" id="DejaVuSans-108"/>
      <path d="M 18.109375 8.203125 
L 18.109375 -20.796875 
L 9.078125 -20.796875 
L 9.078125 54.6875 
L 18.109375 54.6875 
L 18.109375 46.390625 
Q 20.953125 51.265625 25.265625 53.625 
Q 29.59375 56 35.59375 56 
Q 45.5625 56 51.78125 48.09375 
Q 58.015625 40.1875 58.015625 27.296875 
Q 58.015625 14.40625 51.78125 6.484375 
Q 45.5625 -1.421875 35.59375 -1.421875 
Q 29.59375 -1.421875 25.265625 0.953125 
Q 20.953125 3.328125 18.109375 8.203125 
z
M 48.6875 27.296875 
Q 48.6875 37.203125 44.609375 42.84375 
Q 40.53125 48.484375 33.40625 48.484375 
Q 26.265625 48.484375 22.1875 42.84375 
Q 18.109375 37.203125 18.109375 27.296875 
Q 18.109375 17.390625 22.1875 11.75 
Q 26.265625 6.109375 33.40625 6.109375 
Q 40.53125 6.109375 44.609375 11.75 
Q 48.6875 17.390625 48.6875 27.296875 
z
" id="DejaVuSans-112"/>
      <path d="M 18.3125 70.21875 
L 18.3125 54.6875 
L 36.8125 54.6875 
L 36.8125 47.703125 
L 18.3125 47.703125 
L 18.3125 18.015625 
Q 18.3125 11.328125 20.140625 9.421875 
Q 21.96875 7.515625 27.59375 7.515625 
L 36.8125 7.515625 
L 36.8125 0 
L 27.59375 0 
Q 17.1875 0 13.234375 3.875 
Q 9.28125 7.765625 9.28125 18.015625 
L 9.28125 47.703125 
L 2.6875 47.703125 
L 2.6875 54.6875 
L 9.28125 54.6875 
L 9.28125 70.21875 
z
" id="DejaVuSans-116"/>
     </defs>
     <g transform="translate(450.920313 77.078438)scale(0.1 -0.1)">
      <use xlink:href="#DejaVuSans-49"/>
      <use x="63.623047" xlink:href="#DejaVuSans-48"/>
      <use x="127.246094" xlink:href="#DejaVuSans-48"/>
      <use x="190.869141" xlink:href="#DejaVuSans-75"/>
      <use x="256.445312" xlink:href="#DejaVuSans-32"/>
      <use x="288.232422" xlink:href="#DejaVuSans-76"/>
      <use x="343.945312" xlink:href="#DejaVuSans-66"/>
      <use x="412.533203" xlink:href="#DejaVuSans-67"/>
      <use x="482.357422" xlink:href="#DejaVuSans-32"/>
      <use x="514.144531" xlink:href="#DejaVuSans-105"/>
      <use x="541.927734" xlink:href="#DejaVuSans-110"/>
      <use x="605.306641" xlink:href="#DejaVuSans-32"/>
      <use x="637.09375" xlink:href="#DejaVuSans-97"/>
      <use x="698.373047" xlink:href="#DejaVuSans-32"/>
      <use x="730.160156" xlink:href="#DejaVuSans-115"/>
      <use x="782.259766" xlink:href="#DejaVuSans-105"/>
      <use x="810.042969" xlink:href="#DejaVuSans-110"/>
      <use x="873.421875" xlink:href="#DejaVuSans-103"/>
      <use x="936.898438" xlink:href="#DejaVuSans-108"/>
      <use x="964.681641" xlink:href="#DejaVuSans-101"/>
      <use x="1026.205078" xlink:href="#DejaVuSans-32"/>
      <use x="1057.992188" xlink:href="#DejaVuSans-115"/>
      <use x="1110.091797" xlink:href="#DejaVuSans-117"/>
      <use x="1173.470703" xlink:href="#DejaVuSans-112"/>
      <use x="1236.947266" xlink:href="#DejaVuSans-112"/>
      <use x="1300.423828" xlink:href="#DejaVuSans-111"/>
      <use x="1361.605469" xlink:href="#DejaVuSans-114"/>
      <use x="1402.71875" xlink:href="#DejaVuSans-116"/>
     </g>
    </g>
    <g id="line2d_18">
     <path d="M 422.920313 88.256563 
L 442.920313 88.256563 
" style="fill:none;stroke:#ff7f0e;stroke-linecap:square;stroke-width:1.5;"/>
    </g>
    <g id="line2d_19"/>
    <g id="text_15">
     <!-- 10K LBC in a single support, revoked after 24h -->
     <defs>
      <path d="M 11.71875 12.40625 
L 22.015625 12.40625 
L 22.015625 4 
L 14.015625 -11.625 
L 7.71875 -11.625 
L 11.71875 4 
z
" id="DejaVuSans-44"/>
      <path d="M 2.984375 54.6875 
L 12.5 54.6875 
L 29.59375 8.796875 
L 46.6875 54.6875 
L 56.203125 54.6875 
L 35.6875 0 
L 23.484375 0 
z
" id="DejaVuSans-118"/>
      <path d="M 9.078125 75.984375 
L 18.109375 75.984375 
L 18.109375 31.109375 
L 44.921875 54.6875 
L 56.390625 54.6875 
L 27.390625 29.109375 
L 57.625 0 
L 45.90625 0 
L 18.109375 26.703125 
L 18.109375 0 
L 9.078125 0 
z
" id="DejaVuSans-107"/>
      <path d="M 37.109375 75.984375 
L 37.109375 68.5 
L 28.515625 68.5 
Q 23.6875 68.5 21.796875 66.546875 
Q 19.921875 64.59375 19.921875 59.515625 
L 19.921875 54.6875 
L 34.71875 54.6875 
L 34.71875 47.703125 
L 19.921875 47.703125 
L 19.921875 0 
L 10.890625 0 
L 10.890625 47.703125 
L 2.296875 47.703125 
L 2.296875 54.6875 
L 10.890625 54.6875 
L 10.890625 58.5 
Q 10.890625 67.625 15.140625 71.796875 
Q 19.390625 75.984375 28.609375 75.984375 
z
" id="DejaVuSans-102"/>
     </defs>
     <g transform="translate(450.920313 91.756563)scale(0.1 -0.1)">
      <use xlink:href="#DejaVuSans-49"/>
      <use x="63.623047" xlink:href="#DejaVuSans-48"/>
      <use x="127.246094" xlink:href="#DejaVuSans-75"/>
      <use x="192.822266" xlink:href="#DejaVuSans-32"/>
      <use x="224.609375" xlink:href="#DejaVuSans-76"/>
      <use x="280.322266" xlink:href="#DejaVuSans-66"/>
      <use x="348.910156" xlink:href="#DejaVuSans-67"/>
      <use x="418.734375" xlink:href="#DejaVuSans-32"/>
      <use x="450.521484" xlink:href="#DejaVuSans-105"/>
      <use x="478.304688" xlink:href="#DejaVuSans-110"/>
      <use x="541.683594" xlink:href="#DejaVuSans-32"/>
      <use x="573.470703" xlink:href="#DejaVuSans-97"/>
      <use x="634.75" xlink:href="#DejaVuSans-32"/>
      <use x="666.537109" xlink:href="#DejaVuSans-115"/>
      <use x="718.636719" xlink:href="#DejaVuSans-105"/>
      <use x="746.419922" xlink:href="#DejaVuSans-110"/>
      <use x="809.798828" xlink:href="#DejaVuSans-103"/>
      <use x="873.275391" xlink:href="#DejaVuSans-108"/>
      <use x="901.058594" xlink:href="#DejaVuSans-101"/>
      <use x="962.582031" xlink:href="#DejaVuSans-32"/>
      <use x="994.369141" xlink:href="#DejaVuSans-115"/>
      <use x="1046.46875" xlink:href="#DejaVuSans-117"/>
      <use x="1109.847656" xlink:href="#DejaVuSans-112"/>
      <use x="1173.324219" xlink:href="#DejaVuSans-112"/>
      <use x="1236.800781" xlink:href="#DejaVuSans-111"/>
      <use x="1297.982422" xlink:href="#DejaVuSans-114"/>
      <use x="1339.095703" xlink:href="#DejaVuSans-116"/>
      <use x="1378.304688" xlink:href="#DejaVuSans-44"/>
      <use x="1410.091797" xlink:href="#DejaVuSans-32"/>
      <use x="1441.878906" xlink:href="#DejaVuSans-114"/>
      <use x="1482.960938" xlink:href="#DejaVuSans-101"/>
      <use x="1544.484375" xlink:href="#DejaVuSans-118"/>
      <use x="1603.664062" xlink:href="#DejaVuSans-111"/>
      <use x="1664.845703" xlink:href="#DejaVuSans-107"/>
      <use x="1722.708984" xlink:href="#DejaVuSans-101"/>
      <use x="1784.232422" xlink:href="#DejaVuSans-100"/>
      <use x="1847.708984" xlink:href="#DejaVuSans-32"/>
      <use x="1879.496094" xlink:href="#DejaVuSans-97"/>
      <use x="1940.775391" xlink:href="#DejaVuSans-102"/>
      <use x="1975.964844" xlink:href="#DejaVuSans-116"/>
      <use x="2015.173828" xlink:href="#DejaVuSans-101"/>
      <use x="2076.697266" xlink:href="#DejaVuSans-114"/>
      <use x="2117.810547" xlink:href="#DejaVuSans-32"/>
      <use x="2149.597656" xlink:href="#DejaVuSans-50"/>
      <use x="2213.220703" xlink:href="#DejaVuSans-52"/>
      <use x="2276.84375" xlink:href="#DejaVuSans-104"/>
     </g>
    </g>
    <g id="line2d_20">
     <path d="M 422.920313 102.934688 
L 442.920313 102.934688 
" style="fill:none;stroke:#2ca02c;stroke-linecap:square;stroke-width:1.5;"/>
    </g>
    <g id="line2d_21"/>
    <g id="text_16">
     <!-- 10K divided over five supports -->
     <g transform="translate(450.920313 106.434688)scale(0.1 -0.1)">
      <use xlink:href="#DejaVuSans-49"/>
      <use x="63.623047" xlink:href="#DejaVuSans-48"/>
      <use x="127.246094" xlink:href="#DejaVuSans-75"/>
      <use x="192.822266" xlink:href="#DejaVuSans-32"/>
      <use x="224.609375" xlink:href="#DejaVuSans-100"/>
      <use x="288.085938" xlink:href="#DejaVuSans-105"/>
      <use x="315.869141" xlink:href="#DejaVuSans-118"/>
      <use x="375.048828" xlink:href="#DejaVuSans-105"/>
      <use x="402.832031" xlink:href="#DejaVuSans-100"/>
      <use x="466.308594" xlink:href="#DejaVuSans-101"/>
      <use x="527.832031" xlink:href="#DejaVuSans-100"/>
      <use x="591.308594" xlink:href="#DejaVuSans-32"/>
      <use x="623.095703" xlink:href="#DejaVuSans-111"/>
      <use x="684.277344" xlink:href="#DejaVuSans-118"/>
      <use x="743.457031" xlink:href="#DejaVuSans-101"/>
      <use x="804.980469" xlink:href="#DejaVuSans-114"/>
      <use x="846.09375" xlink:href="#DejaVuSans-32"/>
      <use x="877.880859" xlink:href="#DejaVuSans-102"/>
      <use x="913.085938" xlink:href="#DejaVuSans-105"/>
      <use x="940.869141" xlink:href="#DejaVuSans-118"/>
      <use x="1000.048828" xlink:href="#DejaVuSans-101"/>
      <use x="1061.572266" xlink:href="#DejaVuSans-32"/>
      <use x="1093.359375" xlink:href="#DejaVuSans-115"/>
      <use x="1145.458984" xlink:href="#DejaVuSans-117"/>
      <use x="1208.837891" xlink:href="#DejaVuSans-112"/>
      <use x="1272.314453" xlink:href="#DejaVuSans-112"/>
      <use x="1335.791016" xlink:href="#DejaVuSans-111"/>
      <use x="1396.972656" xlink:href="#DejaVuSans-114"/>
      <use x="1438.085938" xlink:href="#DejaVuSans-116"/>
      <use x="1477.294922" xlink:href="#DejaVuSans-115"/>
     </g>
    </g>
    <g id="line2d_22">
     <path d="M 422.920313 117.612813 
L 442.920313 117.612813 
" style="fill:none;stroke:#d62728;stroke-linecap:square;stroke-width:1.5;"/>
    </g>
    <g id="line2d_23"/>
    <g id="text_17">
     <!-- 5 LBC every 5 blocks for 24 hours (total LBC=576) -->
     <defs>
      <path d="M 10.796875 72.90625 
L 49.515625 72.90625 
L 49.515625 64.59375 
L 19.828125 64.59375 
L 19.828125 46.734375 
Q 21.96875 47.46875 24.109375 47.828125 
Q 26.265625 48.1875 28.421875 48.1875 
Q 40.625 48.1875 47.75 41.5 
Q 54.890625 34.8125 54.890625 23.390625 
Q 54.890625 11.625 47.5625 5.09375 
Q 40.234375 -1.421875 26.90625 -1.421875 
Q 22.3125 -1.421875 17.546875 -0.640625 
Q 12.796875 0.140625 7.71875 1.703125 
L 7.71875 11.625 
Q 12.109375 9.234375 16.796875 8.0625 
Q 21.484375 6.890625 26.703125 6.890625 
Q 35.15625 6.890625 40.078125 11.328125 
Q 45.015625 15.765625 45.015625 23.390625 
Q 45.015625 31 40.078125 35.4375 
Q 35.15625 39.890625 26.703125 39.890625 
Q 22.75 39.890625 18.8125 39.015625 
Q 14.890625 38.140625 10.796875 36.28125 
z
" id="DejaVuSans-53"/>
      <path d="M 32.171875 -5.078125 
Q 28.375 -14.84375 24.75 -17.8125 
Q 21.140625 -20.796875 15.09375 -20.796875 
L 7.90625 -20.796875 
L 7.90625 -13.28125 
L 13.1875 -13.28125 
Q 16.890625 -13.28125 18.9375 -11.515625 
Q 21 -9.765625 23.484375 -3.21875 
L 25.09375 0.875 
L 2.984375 54.6875 
L 12.5 54.6875 
L 29.59375 11.921875 
L 46.6875 54.6875 
L 56.203125 54.6875 
z
" id="DejaVuSans-121"/>
      <path d="M 48.6875 27.296875 
Q 48.6875 37.203125 44.609375 42.84375 
Q 40.53125 48.484375 33.40625 48.484375 
Q 26.265625 48.484375 22.1875 42.84375 
Q 18.109375 37.203125 18.109375 27.296875 
Q 18.109375 17.390625 22.1875 11.75 
Q 26.265625 6.109375 33.40625 6.109375 
Q 40.53125 6.109375 44.609375 11.75 
Q 48.6875 17.390625 48.6875 27.296875 
z
M 18.109375 46.390625 
Q 20.953125 51.265625 25.265625 53.625 
Q 29.59375 56 35.59375 56 
Q 45.5625 56 51.78125 48.09375 
Q 58.015625 40.1875 58.015625 27.296875 
Q 58.015625 14.40625 51.78125 6.484375 
Q 45.5625 -1.421875 35.59375 -1.421875 
Q 29.59375 -1.421875 25.265625 0.953125 
Q 20.953125 3.328125 18.109375 8.203125 
L 18.109375 0 
L 9.078125 0 
L 9.078125 75.984375 
L 18.109375 75.984375 
z
" id="DejaVuSans-98"/>
      <path d="M 10.59375 45.40625 
L 73.1875 45.40625 
L 73.1875 37.203125 
L 10.59375 37.203125 
z
M 10.59375 25.484375 
L 73.1875 25.484375 
L 73.1875 17.1875 
L 10.59375 17.1875 
z
" id="DejaVuSans-61"/>
      <path d="M 8.203125 72.90625 
L 55.078125 72.90625 
L 55.078125 68.703125 
L 28.609375 0 
L 18.3125 0 
L 43.21875 64.59375 
L 8.203125 64.59375 
z
" id="DejaVuSans-55"/>
      <path d="M 33.015625 40.375 
Q 26.375 40.375 22.484375 35.828125 
Q 18.609375 31.296875 18.609375 23.390625 
Q 18.609375 15.53125 22.484375 10.953125 
Q 26.375 6.390625 33.015625 6.390625 
Q 39.65625 6.390625 43.53125 10.953125 
Q 47.40625 15.53125 47.40625 23.390625 
Q 47.40625 31.296875 43.53125 35.828125 
Q 39.65625 40.375 33.015625 40.375 
z
M 52.59375 71.296875 
L 52.59375 62.3125 
Q 48.875 64.0625 45.09375 64.984375 
Q 41.3125 65.921875 37.59375 65.921875 
Q 27.828125 65.921875 22.671875 59.328125 
Q 17.53125 52.734375 16.796875 39.40625 
Q 19.671875 43.65625 24.015625 45.921875 
Q 28.375 48.1875 33.59375 48.1875 
Q 44.578125 48.1875 50.953125 41.515625 
Q 57.328125 34.859375 57.328125 23.390625 
Q 57.328125 12.15625 50.6875 5.359375 
Q 44.046875 -1.421875 33.015625 -1.421875 
Q 20.359375 -1.421875 13.671875 8.265625 
Q 6.984375 17.96875 6.984375 36.375 
Q 6.984375 53.65625 15.1875 63.9375 
Q 23.390625 74.21875 37.203125 74.21875 
Q 40.921875 74.21875 44.703125 73.484375 
Q 48.484375 72.75 52.59375 71.296875 
z
" id="DejaVuSans-54"/>
     </defs>
     <g transform="translate(450.920313 121.112813)scale(0.1 -0.1)">
      <use xlink:href="#DejaVuSans-53"/>
      <use x="63.623047" xlink:href="#DejaVuSans-32"/>
      <use x="95.410156" xlink:href="#DejaVuSans-76"/>
      <use x="151.123047" xlink:href="#DejaVuSans-66"/>
      <use x="219.710938" xlink:href="#DejaVuSans-67"/>
      <use x="289.535156" xlink:href="#DejaVuSans-32"/>
      <use x="321.322266" xlink:href="#DejaVuSans-101"/>
      <use x="382.845703" xlink:href="#DejaVuSans-118"/>
      <use x="442.025391" xlink:href="#DejaVuSans-101"/>
      <use x="503.548828" xlink:href="#DejaVuSans-114"/>
      <use x="544.662109" xlink:href="#DejaVuSans-121"/>
      <use x="603.841797" xlink:href="#DejaVuSans-32"/>
      <use x="635.628906" xlink:href="#DejaVuSans-53"/>
      <use x="699.251953" xlink:href="#DejaVuSans-32"/>
      <use x="731.039062" xlink:href="#DejaVuSans-98"/>
      <use x="794.515625" xlink:href="#DejaVuSans-108"/>
      <use x="822.298828" xlink:href="#DejaVuSans-111"/>
      <use x="883.480469" xlink:href="#DejaVuSans-99"/>
      <use x="938.460938" xlink:href="#DejaVuSans-107"/>
      <use x="996.371094" xlink:href="#DejaVuSans-115"/>
      <use x="1048.470703" xlink:href="#DejaVuSans-32"/>
      <use x="1080.257812" xlink:href="#DejaVuSans-102"/>
      <use x="1115.462891" xlink:href="#DejaVuSans-111"/>
      <use x="1176.644531" xlink:href="#DejaVuSans-114"/>
      <use x="1217.757812" xlink:href="#DejaVuSans-32"/>
      <use x="1249.544922" xlink:href="#DejaVuSans-50"/>
      <use x="1313.167969" xlink:href="#DejaVuSans-52"/>
      <use x="1376.791016" xlink:href="#DejaVuSans-32"/>
      <use x="1408.578125" xlink:href="#DejaVuSans-104"/>
      <use x="1471.957031" xlink:href="#DejaVuSans-111"/>
      <use x="1533.138672" xlink:href="#DejaVuSans-117"/>
      <use x="1596.517578" xlink:href="#DejaVuSans-114"/>
      <use x="1637.630859" xlink:href="#DejaVuSans-115"/>
      <use x="1689.730469" xlink:href="#DejaVuSans-32"/>
      <use x="1721.517578" xlink:href="#DejaVuSans-40"/>
      <use x="1760.53125" xlink:href="#DejaVuSans-116"/>
      <use x="1799.740234" xlink:href="#DejaVuSans-111"/>
      <use x="1860.921875" xlink:href="#DejaVuSans-116"/>
      <use x="1900.130859" xlink:href="#DejaVuSans-97"/>
      <use x="1961.410156" xlink:href="#DejaVuSans-108"/>
      <use x="1989.193359" xlink:href="#DejaVuSans-32"/>
      <use x="2020.980469" xlink:href="#DejaVuSans-76"/>
      <use x="2076.693359" xlink:href="#DejaVuSans-66"/>
      <use x="2145.28125" xlink:href="#DejaVuSans-67"/>
      <use x="2215.105469" xlink:href="#DejaVuSans-61"/>
      <use x="2298.894531" xlink:href="#DejaVuSans-53"/>
      <use x="2362.517578" xlink:href="#DejaVuSans-55"/>
      <use x="2426.140625" xlink:href="#DejaVuSans-54"/>
      <use x="2489.763672" xlink:href="#DejaVuSans-41"/>
     </g>
    </g>
   </g>
  </g>
 </g>
 <defs>
  <clipPath id="p567b661179">
   <rect height="388.08" width="613.8" x="99" y="60.48"/>
  </clipPath>
 </defs>
</svg>
