<?xml version="1.0" encoding="UTF-8" standalone="no"?>
<!DOCTYPE svg PUBLIC "-//W3C//DTD SVG 1.1//EN"
"http://www.w3.org/Graphics/SVG/1.1/DTD/svg11.dtd">
<svg viewBox="0 0 909 1286" version="1.1" xmlns="http://www.w3.org/2000/svg" xmlns:xlink="http://www.w3.org/1999/xlink">
<defs>
<style type="text/css"><![CDATA[
.g0_44{
fill: #FFFFFF;
}
.g1_44{
fill: none;
stroke: #0000FF;
stroke-width: 1.5277778;
stroke-linecap: square;
stroke-linejoin: round;
stroke-miterlimit: 4;
}
.g2_44{
fill: none;
stroke: #FF0000;
stroke-width: 1.5277778;
stroke-linecap: butt;
stroke-linejoin: round;
stroke-miterlimit: 4;
stroke-dasharray: 5,5;
}
.g3_44{
fill: none;
stroke: #007600;
stroke-width: 1.5277778;
stroke-linecap: square;
stroke-linejoin: round;
stroke-miterlimit: 4;
}
.g4_44{
fill: none;
stroke: #000000;
stroke-width: 1.5277778;
stroke-linecap: square;
stroke-linejoin: round;
stroke-miterlimit: 4;
}
.g5_44{
fill: none;
stroke: #BF00BF;
stroke-width: 1.5277778;
stroke-linecap: square;
stroke-linejoin: round;
stroke-miterlimit: 4;
}
.g6_44{
fill: none;
stroke: #000000;
stroke-width: 0.38194445;
stroke-linecap: butt;
stroke-linejoin: round;
stroke-miterlimit: 4;
}
.g7_44{
}
.g8_44{
fill: none;
stroke: #000000;
stroke-width: 0.7638889;
stroke-linecap: square;
stroke-linejoin: round;
stroke-miterlimit: 4;
}
.g9_44{
fill: #FFFFFF;
stroke: #000000;
stroke-width: 0.7638889;
stroke-linecap: square;
stroke-linejoin: round;
stroke-miterlimit: 4;
}
.g10_44{
fill: none;
stroke: #008000;
stroke-width: 1.5277778;
stroke-linecap: square;
stroke-linejoin: round;
stroke-miterlimit: 4;
}
.g11_44{
fill: none;
stroke: #000000;
stroke-width: 1.2222222;
stroke-linecap: butt;
stroke-linejoin: miter;
stroke-miterlimit: 4;
}
.g12_44{
stroke: #000000;
stroke-width: 0.6111111;
stroke-linecap: square;
stroke-linejoin: round;
stroke-miterlimit: 4;
}
]]></style>
</defs>
<path d="M154.3,359.3H755.2V801.4H154.3V359.3Z" class="g0_44" />
<path d="M229.4,403.5H695.1V757.1H229.4V403.5Z" class="g0_44" />
<path d="M229.4,757.1h83.8l24.2,-.2l14.9,-.3l11.2,-.4l8.9,-.4l7.4,-.6l6.1,-.6l5.6,-.7l5.1,-.8l4.2,-.9l4.2,-1l3.7,-1.1l3.2,-1.1l3.3,-1.3l2.8,-1.3l2.8,-1.4l2.8,-1.7l2.8,-1.8l2.3,-1.7l2.3,-2l2.4,-2.1l2.3,-2.4l2.3,-2.6l2.3,-3l2.4,-3.2l2.3,-3.6l1.9,-3.2l1.8,-3.5l1.9,-3.7l1.9,-4.1l1.8,-4.5l1.9,-4.8l1.8,-5.3l1.9,-5.7l1.9,-6.2l1.8,-6.8l1.9,-7.4l1.9,-8l1.8,-8.7l1.9,-9.5l1.8,-10.3L474.8,618l1.9,-12.2l1.8,-13.2l1.9,-14.4l1.9,-15.7l1.8,-17.1L486,526.9l1.8,-20.2l1.9,-22l1.9,-23.8l1.8,-26l1.9,-28.2l.5,350.4H695.1" class="g1_44" />
<path d="M229.4,740.3H695.1" class="g2_44" />
<path d="M429,639.3h63.2" class="g3_44" />
<path d="M429,646.2V632.4m63.2,13.8V632.4" class="g4_44" />
<path d="M505.3,639.3H617" class="g5_44" />
<path d="M505.3,646.2V632.4M617,646.2V632.4" class="g4_44" />
<path d="M229.4,757.1v-3m0,-350.6v3.1" class="g6_44" />
<path d="M230,764.2c.8,-.4,1.7,-1.1,1.7,-2.1c0,-1.3,-1.2,-2,-2.3,-2c-1.2,0,-2.3,.9,-2.3,2.1c0,.4,0,1,.6,1.5c.1,.1,.7,.5,1.1,.8c-.7,.3,-2.1,1,-2.1,2.5c0,1.4,1.3,2.3,2.7,2.3c1.4,0,2.7,-1,2.7,-2.4c0,-1.3,-.9,-1.8,-1.4,-2.2ZM228.2,763c-.1,-.1,-.7,-.5,-.7,-1.1c0,-.9,.9,-1.5,1.9,-1.5c1.1,0,1.9,.8,1.9,1.7c0,1.2,-1.5,1.9,-1.5,1.9q-.1,0,-.2,0Zm2.5,2.8c.2,.1,.9,.6,.9,1.4c0,1,-1,1.8,-2.2,1.8c-1.2,0,-2.2,-.9,-2.2,-2c0,-1.1,.8,-1.9,1.8,-2.4Z" class="g7_44" />
<path d="M295.9,757.1v-3m0,-350.6v3.1" class="g6_44" />
<path d="M297.6,765c0,3,-1.2,4,-2.3,4c-.3,0,-1.1,0,-1.4,-.6c.4,.1,.6,-.1,.6,-.5c0,-.3,-.3,-.5,-.4,-.5c-.2,0,-.5,.1,-.5,.6c0,.9,.8,1.3,1.8,1.3c1.5,0,3.1,-1.7,3.1,-4.7c0,-3.7,-1.5,-4.5,-2.5,-4.5c-1.4,0,-2.7,1.2,-2.7,3c0,1.7,1.1,2.9,2.5,2.9c1.2,0,1.7,-1,1.8,-1.5Zm-1.8,.8c-.3,0,-.9,-.1,-1.3,-.9c-.3,-.5,-.3,-1.1,-.3,-1.8c0,-.8,0,-1.4,.4,-2c.2,-.2,.6,-.7,1.4,-.7c1.6,0,1.6,2.5,1.6,3c0,1,-.5,2.4,-1.8,2.4Z" class="g7_44" />
<path d="M362.4,757.1v-3m0,-350.6v3.1" class="g6_44" />
<path d="M359.8,760.4q0,-.3,-.2,-.3c-.5,.6,-1.3,.7,-2.1,.7c0,0,-.1,0,-.1,.1v.3c.4,0,1.1,-.1,1.6,-.4V768c0,.5,0,.7,-1.2,.7h-.4v.3h4v-.3H361c-1.2,0,-1.2,-.2,-1.2,-.6Z" class="g7_44" />
<path d="M368.2,764.7c0,-.8,0,-2.3,-.6,-3.4c-.5,-.9,-1.3,-1.3,-2,-1.3c-.7,0,-1.5,.4,-2,1.3c-.6,1.1,-.6,2.3,-.6,3.4c0,.8,0,2,.4,3c.6,1.4,1.6,1.6,2.2,1.6c.6,0,1.6,-.2,2.1,-1.5c.4,-1,.5,-2.1,.5,-3.1m-2.6,4.4c-.9,0,-1.4,-.8,-1.6,-1.8c-.2,-.8,-.2,-2,-.2,-2.8c0,-1,0,-1.9,.2,-2.7c.3,-1.2,1,-1.5,1.6,-1.5c.5,0,1.3,.3,1.5,1.5c.2,.7,.2,1.7,.2,2.7c0,.9,0,2,-.1,2.8c-.3,1.5,-1.1,1.8,-1.6,1.8Z" class="g7_44" />
<path d="M429,757.1v-3m0,-350.6v3.1" class="g6_44" />
<path d="M426.3,760.4q0,-.3,-.2,-.3c-.5,.6,-1.3,.7,-2.1,.7c0,0,-.1,0,-.1,.1v.3c.4,0,1.1,-.1,1.7,-.4V768c0,.5,-.1,.7,-1.2,.7H424v.3h4v-.3h-.5c-1.1,0,-1.2,-.2,-1.2,-.6Z" class="g7_44" />
<path d="M432.6,760.4q0,-.3,-.2,-.3c-.5,.6,-1.3,.7,-2.1,.7c0,0,-.1,0,-.1,.1v.3c.4,0,1.1,-.1,1.7,-.4V768c0,.5,-.1,.7,-1.3,.7h-.4v.3h4v-.3h-.4c-1.2,0,-1.2,-.2,-1.2,-.6Z" class="g7_44" />
<path d="M495.5,757.1v-3m0,-350.6v3.1" class="g6_44" />
<path d="M492.9,760.4c0,-.3,-.1,-.3,-.2,-.3c-.6,.6,-1.4,.7,-2.2,.7c0,0,-.1,0,-.1,.1v.3c.4,0,1.1,-.1,1.7,-.4V768c0,.5,0,.7,-1.2,.7h-.4v.3h4v-.3h-.4c-1.2,0,-1.2,-.2,-1.2,-.6Z" class="g7_44" />
<path d="M501.2,766.9H501c-.2,1,-.3,1.2,-.3,1.2c-.1,.1,-1.1,.1,-1.3,.1h-2.6c.5,-.5,1.4,-1.5,2.6,-2.6c.8,-.8,1.8,-1.7,1.8,-3.1c0,-1.6,-1.3,-2.5,-2.7,-2.5c-1.5,0,-2.4,1.3,-2.4,2.5c0,.6,.4,.7,.5,.7c.2,0,.6,-.1,.6,-.6c0,-.4,-.4,-.6,-.6,-.6c-.1,0,-.1,.1,-.2,.1c.3,-1.2,1.1,-1.7,1.9,-1.7c1.2,0,2,.9,2,2.1c0,1.2,-.7,2.3,-1.5,3.1l-2.7,3.1v.3h4.8Z" class="g7_44" />
<path d="M562,757.1v-3m0,-350.6v3.1" class="g6_44" />
<path d="M559.4,760.4q0,-.3,-.2,-.3c-.6,.6,-1.4,.7,-2.1,.7q-.1,0,-.2,.1v.3c.5,0,1.2,-.1,1.7,-.4V768c0,.5,0,.7,-1.2,.7H557v.3h4v-.3h-.4c-1.2,0,-1.2,-.2,-1.2,-.6Z" class="g7_44" />
<path d="M565.1,764.4c1.2,0,1.7,1.1,1.7,2.3c0,1.7,-.9,2.3,-1.7,2.3c-.7,0,-1.9,-.4,-2.2,-1.4c0,0,.1,0,.2,0c.3,0,.5,-.2,.5,-.6c0,-.4,-.3,-.6,-.5,-.6c-.3,0,-.6,.1,-.6,.7c0,1.2,1.2,2.2,2.7,2.2c1.5,0,2.6,-1.2,2.6,-2.6c0,-1.3,-1.1,-2.3,-2.4,-2.4c1.1,-.2,2.1,-1.2,2.1,-2.4c0,-1,-1.1,-1.8,-2.3,-1.8c-1.3,0,-2.4,.7,-2.4,1.8c0,.5,.4,.6,.6,.6c.3,0,.5,-.2,.5,-.6c0,-.3,-.2,-.5,-.5,-.5c-.1,0,-.2,0,-.2,0c.4,-.8,1.5,-1,1.9,-1c.5,0,1.4,.2,1.4,1.5c0,.4,0,1.1,-.5,1.7c-.4,.5,-.9,.5,-1.3,.6h-.5q-.1,0,-.1,.1q0,.1,.3,.1Z" class="g7_44" />
<path d="M628.5,757.1v-3m0,-350.6v3.1" class="g6_44" />
<path d="M625.9,760.4q0,-.3,-.2,-.3c-.5,.6,-1.3,.7,-2.1,.7c0,0,-.1,0,-.1,.1v.3c.4,0,1.1,-.1,1.6,-.4V768c0,.5,0,.7,-1.2,.7h-.4v.3h4v-.3h-.4c-1.2,0,-1.2,-.2,-1.2,-.6Z" class="g7_44" />
<path d="M633.2,760.2c0,-.3,-.1,-.3,-.3,-.3l-4.1,6.5v.3h3.6v1.4c0,.5,-.1,.6,-1,.6h-.3v.3h3.3v-.3h-.3c-.9,0,-.9,-.1,-.9,-.6v-1.4h1.3v-.3h-1.3Zm-.8,.9v5.3h-3.3Z" class="g7_44" />
<path d="M695.1,757.1v-3m0,-350.6v3.1" class="g6_44" />
<path d="M692.4,760.4q0,-.3,-.2,-.3c-.5,.6,-1.3,.7,-2.1,.7c0,0,-.1,0,-.1,.1v.3c.4,0,1.1,-.1,1.7,-.4V768c0,.5,-.1,.7,-1.2,.7h-.4v.3h4v-.3h-.5c-1.1,0,-1.2,-.2,-1.2,-.6Z" class="g7_44" />
<path d="M696.6,761.1c.2,.1,.7,.3,1.3,.3c1.3,0,2,-.7,2.4,-1.1c0,-.1,0,-.2,-.1,-.2l-.2,.1c-.4,.2,-1,.3,-1.7,.3c-.4,0,-1,0,-1.7,-.3c-.1,-.1,-.2,-.1,-.2,-.1c0,0,-.1,0,-.1,.3v3.9c0,.3,0,.4,.2,.4c.1,0,.1,-.1,.2,-.2c.4,-.6,1,-.9,1.7,-.9c.5,0,1.5,.3,1.5,2.7c0,.4,0,1.2,-.4,1.8c-.4,.6,-.9,.9,-1.5,.9c-.9,0,-1.8,-.6,-2.1,-1.7c.1,0,.2,0,.3,0c.1,0,.5,-.1,.5,-.5c0,-.4,-.3,-.5,-.5,-.5c-.4,0,-.6,.2,-.6,.6c0,1.2,1,2.4,2.4,2.4c1.4,0,2.8,-1.2,2.8,-3c0,-1.6,-1.1,-2.9,-2.4,-2.9c-.7,0,-1.3,.3,-1.8,.8Z" class="g7_44" />
<path d="M427.8,778.6h2.4c2,0,3.4,-1.3,3.4,-2.7c0,-1.5,-1.4,-2.8,-3.4,-2.8h-4.7v.4c1.1,0,1.3,0,1.3,.7v8.2c0,.6,-.2,.6,-1.3,.6v.4H429V783c-1.1,0,-1.2,0,-1.2,-.6Zm-.1,-.3v-4.2c0,-.6,.1,-.6,.7,-.6h1.5c2,0,2.5,1.1,2.5,2.4c0,1.3,-.6,2.4,-2.5,2.4Z" class="g7_44" />
<path d="M439.4,779.5c0,-1,0,-1.5,-.6,-2.1c-.6,-.5,-1.3,-.7,-1.8,-.7c-1.2,0,-2,1,-2,2c0,.6,.4,.6,.5,.6c.2,0,.6,-.1,.6,-.5c0,-.4,-.3,-.6,-.6,-.6c-.1,0,-.1,.1,-.2,.1c.3,-1,1.2,-1.3,1.7,-1.3c.8,0,1.6,.6,1.6,1.9v.7c-.9,0,-2,.1,-2.8,.6c-1,.5,-1.3,1.3,-1.3,1.9c0,1.1,1.4,1.5,2.2,1.5c.8,0,1.6,-.5,2,-1.4c0,.7,.4,1.3,1.1,1.3c.3,0,1.1,-.2,1.1,-1.4v-.9h-.3v.9c0,.9,-.4,1,-.6,1c-.6,0,-.6,-.8,-.6,-1.4Zm-.8,1.9c0,1.3,-.9,1.9,-1.8,1.9c-.7,0,-1.3,-.5,-1.3,-1.2c0,-.5,.2,-1.3,1,-1.8c.8,-.4,1.6,-.5,2.1,-.5Z" class="g7_44" />
<path d="M443.2,779.9c0,-1.5,.6,-2.9,1.7,-2.9c.2,0,.3,0,.4,.1c0,0,-.4,.1,-.4,.5c0,.4,.3,.5,.6,.5c.1,0,.5,-.1,.5,-.5c0,-.5,-.5,-.8,-1,-.8c-1.2,0,-1.7,1.1,-1.8,1.6h-.1v-1.6l-1.7,.2v.3c.9,0,1,.1,1,.9v4.2c0,.6,-.1,.7,-1,.7v.4c.3,-.1,1,-.1,1.4,-.1c.5,0,1.3,0,1.7,.1v-.4c-1.1,0,-1.3,0,-1.3,-.7Z" class="g7_44" />
<path d="M451.8,779.5c0,-1,0,-1.5,-.7,-2.1c-.5,-.5,-1.2,-.7,-1.7,-.7c-1.2,0,-2.1,1,-2.1,2c0,.6,.5,.6,.6,.6c.2,0,.5,-.1,.5,-.5c0,-.4,-.3,-.6,-.5,-.6c-.1,0,-.2,.1,-.2,.1c.3,-1,1.1,-1.3,1.7,-1.3c.7,0,1.6,.6,1.6,1.9v.7c-.9,0,-2,.1,-2.9,.6c-.9,.5,-1.2,1.3,-1.2,1.9c0,1.1,1.4,1.5,2.2,1.5c.8,0,1.6,-.5,1.9,-1.4c.1,.7,.5,1.3,1.2,1.3c.3,0,1.1,-.2,1.1,-1.4v-.9H453v.9c0,.9,-.4,1,-.6,1c-.6,0,-.6,-.8,-.6,-1.4Zm-.8,1.9c0,1.3,-1,1.9,-1.8,1.9c-.8,0,-1.4,-.5,-1.4,-1.2c0,-.5,.2,-1.3,1.1,-1.8c.7,-.4,1.6,-.5,2.1,-.5Z" class="g7_44" />
<path d="M463.6,778.8c0,-.7,-.2,-2,-2,-2c-1,0,-1.7,.7,-2,1.5c-.2,-1.2,-1.1,-1.5,-2,-1.5c-1.2,0,-1.8,.9,-2,1.5v-1.5l-1.8,.2v.3c.9,0,1,.1,1,.9v4.2c0,.6,-.1,.7,-1,.7v.4c.3,-.1,1,-.1,1.4,-.1c.4,0,1.1,0,1.5,.1v-.4c-1,0,-1.1,-.1,-1.1,-.7v-2.9c0,-1.4,.9,-2.5,1.9,-2.5c1.2,0,1.3,1,1.3,1.8v3.6c0,.6,-.1,.7,-1.1,.7v.4c.4,-.1,1.1,-.1,1.5,-.1c.4,0,1.1,0,1.4,.1v-.4c-.9,0,-1,-.1,-1,-.7v-2.9c0,-1.4,.8,-2.5,1.9,-2.5c1.1,0,1.3,1,1.3,1.8v3.6c0,.6,-.1,.7,-1.1,.7v.4c.4,-.1,1.1,-.1,1.5,-.1c.3,0,1,0,1.4,.1v-.4c-1,0,-1,-.1,-1,-.7Z" class="g7_44" />
<path d="M470.8,779.9c.1,0,.1,-.1,.1,-.2c0,-1.6,-.8,-3,-2.6,-3c-1.6,0,-2.9,1.6,-2.9,3.4c0,2,1.5,3.5,3.1,3.5c1.7,0,2.4,-1.6,2.4,-1.9c0,-.1,-.1,-.1,-.2,-.1q-.1,0,-.1,.2c-.4,1,-1.2,1.5,-2,1.5c-.7,0,-1.3,-.4,-1.7,-1c-.5,-.8,-.5,-1.7,-.5,-2.4Zm-4.4,-.2c.1,-2.2,1.3,-2.7,1.9,-2.7c1,0,1.7,1,1.8,2.7Z" class="g7_44" />
<path d="M473.5,777.3h2.1v-.4h-2.1v-2.8h-.3c0,1.6,-.5,3,-1.8,3v.2h1.3v4.3c0,.3,0,2,1.8,2c.9,0,1.4,-.9,1.4,-2v-.9h-.3v.9c0,1,-.4,1.7,-1,1.7c-.5,0,-1.1,-.3,-1.1,-1.7Z" class="g7_44" />
<path d="M482.4,779.9c.1,0,.1,-.1,.1,-.2c0,-1.6,-.9,-3,-2.6,-3c-1.6,0,-2.9,1.6,-2.9,3.4c0,2,1.5,3.5,3.1,3.5c1.7,0,2.3,-1.6,2.3,-1.9q0,-.1,-.1,-.1q-.1,0,-.2,.2c-.3,1,-1.1,1.5,-1.9,1.5c-.7,0,-1.3,-.4,-1.7,-1c-.5,-.8,-.5,-1.7,-.5,-2.4Zm-4.4,-.2c.1,-2.2,1.3,-2.7,1.9,-2.7c1,0,1.7,1,1.7,2.7Z" class="g7_44" />
<path d="M485.1,779.9c0,-1.5,.6,-2.9,1.7,-2.9c.1,0,.2,0,.4,.1c0,0,-.4,.1,-.4,.5c0,.4,.3,.5,.5,.5c.2,0,.6,-.1,.6,-.5c0,-.5,-.5,-.8,-1.1,-.8c-1.1,0,-1.6,1.1,-1.8,1.6v-1.6l-1.7,.2v.3c.9,0,1,.1,1,.9v4.2c0,.6,-.1,.7,-1,.7v.4c.3,-.1,1,-.1,1.4,-.1c.5,0,1.2,0,1.6,.1v-.4c-1,0,-1.2,0,-1.2,-.7Z" class="g7_44" />
<path d="M499.5,775.8c0,-1.5,-.5,-3,-1.7,-3c-2.2,0,-4.4,4.4,-4.4,7.7c0,.7,.1,3.1,1.7,3.1c2.1,0,4.4,-4.4,4.4,-7.8m-4.6,2.1c.2,-.8,.5,-2.1,1.2,-3.2c.5,-.9,1,-1.6,1.7,-1.6c.5,0,.8,.4,.8,1.9c0,.5,0,1.3,-.5,2.9Zm3.1,.5c-.4,1.5,-.7,2.4,-1.2,3.4c-.5,.8,-1,1.5,-1.7,1.5c-.4,0,-.8,-.4,-.8,-1.9c0,-1,.2,-2,.5,-3Z" class="g7_44" />
<path d="M229.4,757.1h3.1m462.6,0H692" class="g6_44" />
<path d="M215.8,757.2c0,-.8,0,-2.2,-.6,-3.3c-.5,-1,-1.3,-1.3,-2,-1.3c-.7,0,-1.5,.3,-2,1.3c-.6,1,-.6,2.3,-.6,3.3c0,.8,0,2,.4,3c.6,1.4,1.7,1.6,2.2,1.6c.6,0,1.6,-.2,2.1,-1.5c.4,-1,.5,-2.1,.5,-3.1m-2.6,4.4c-.9,0,-1.4,-.7,-1.6,-1.8c-.2,-.8,-.2,-2,-.2,-2.7c0,-1.1,0,-2,.2,-2.8c.3,-1.1,1.1,-1.5,1.6,-1.5c.5,0,1.3,.4,1.5,1.5c.2,.8,.2,1.7,.2,2.8c0,.9,0,2,-.1,2.8c-.3,1.5,-1.1,1.7,-1.6,1.7Z" class="g7_44" />
<path d="M218.9,760.9c0,-.4,-.4,-.7,-.7,-.7c-.4,0,-.7,.4,-.7,.7c0,.4,.4,.7,.7,.7c.4,0,.7,-.4,.7,-.7Z" class="g7_44" />
<path d="M225.8,757.2c0,-.8,0,-2.2,-.6,-3.3c-.5,-1,-1.3,-1.3,-2,-1.3c-.7,0,-1.5,.3,-2,1.3c-.6,1,-.6,2.3,-.6,3.3c0,.8,0,2,.4,3c.6,1.4,1.7,1.6,2.2,1.6c.6,0,1.6,-.2,2.1,-1.5c.5,-1,.5,-2.1,.5,-3.1m-2.6,4.4c-.9,0,-1.4,-.7,-1.6,-1.8c-.1,-.8,-.1,-2,-.1,-2.7c0,-1.1,0,-2,.1,-2.8c.3,-1.1,1.1,-1.5,1.6,-1.5c.6,0,1.3,.4,1.5,1.5c.2,.8,.2,1.7,.2,2.8c0,.9,0,2,-.1,2.8c-.3,1.5,-1.1,1.7,-1.6,1.7Z" class="g7_44" />
<path d="M229.4,698.2h3.1m462.6,0H692" class="g6_44" />
<path d="M215.8,698.3c0,-.8,0,-2.3,-.6,-3.4c-.5,-.9,-1.3,-1.3,-2,-1.3c-.7,0,-1.5,.3,-2,1.3c-.6,1.1,-.6,2.3,-.6,3.4c0,.8,0,2,.4,3c.6,1.4,1.7,1.6,2.2,1.6c.6,0,1.6,-.3,2.1,-1.6c.4,-.9,.5,-2,.5,-3m-2.6,4.4c-.9,0,-1.4,-.8,-1.6,-1.8c-.2,-.8,-.2,-2,-.2,-2.8c0,-1,0,-1.9,.2,-2.7c.3,-1.2,1.1,-1.5,1.6,-1.5c.5,0,1.3,.3,1.5,1.4c.2,.8,.2,1.7,.2,2.8c0,.9,0,2,-.1,2.8c-.3,1.5,-1.1,1.8,-1.6,1.8Z" class="g7_44" />
<path d="M218.9,702c0,-.4,-.4,-.7,-.7,-.7c-.4,0,-.7,.3,-.7,.7c0,.3,.4,.6,.7,.6c.4,0,.7,-.3,.7,-.6Z" class="g7_44" />
<path d="M221.6,694.7c.2,.1,.7,.3,1.3,.3c1.3,0,2,-.7,2.4,-1.1c0,-.1,0,-.2,-.1,-.2c0,0,-.1,0,-.2,0c-.5,.3,-1,.4,-1.7,.4c-.4,0,-1,0,-1.7,-.3c-.1,-.1,-.2,-.1,-.2,-.1q-.1,0,-.1,.3v3.9q0,.3,.2,.3c0,0,.1,0,.1,-.1c.5,-.6,1.1,-.9,1.8,-.9c.4,0,1.5,.3,1.5,2.7c0,.4,0,1.2,-.4,1.8c-.4,.6,-.9,.9,-1.5,.9c-.9,0,-1.8,-.7,-2.1,-1.7c.1,0,.2,0,.2,0c.2,0,.6,-.1,.6,-.5c0,-.4,-.3,-.5,-.6,-.5c-.3,0,-.5,.2,-.5,.6c0,1.2,1,2.4,2.4,2.4c1.4,0,2.8,-1.2,2.8,-3c0,-1.6,-1.1,-2.9,-2.4,-2.9c-.7,0,-1.3,.3,-1.8,.8Z" class="g7_44" />
<path d="M229.4,639.3h3.1m462.6,0H692" class="g6_44" />
<path d="M213.7,635q0,-.3,-.2,-.3c-.5,.6,-1.4,.8,-2.1,.8q-.1,0,-.1,0q-.1,.1,-.1,.4c.5,0,1.2,-.1,1.7,-.4v7.2c0,.5,0,.6,-1.2,.6h-.4v.4h4v-.4h-.4c-1.2,0,-1.2,-.1,-1.2,-.6Z" class="g7_44" />
<path d="M218.9,643c0,-.4,-.4,-.6,-.7,-.6c-.4,0,-.7,.3,-.7,.6c0,.4,.4,.7,.7,.7c.4,0,.7,-.3,.7,-.7Z" class="g7_44" />
<path d="M225.8,639.3c0,-.8,0,-2.2,-.6,-3.3c-.5,-1,-1.3,-1.3,-2,-1.3c-.7,0,-1.5,.3,-2,1.3c-.6,1,-.6,2.3,-.6,3.3c0,.8,0,2,.4,3.1c.6,1.4,1.7,1.6,2.2,1.6c.6,0,1.6,-.3,2.1,-1.6c.5,-.9,.5,-2.1,.5,-3.1m-2.6,4.4c-.9,0,-1.4,-.7,-1.6,-1.8c-.1,-.8,-.1,-1.9,-.1,-2.7c0,-1.1,0,-1.9,.1,-2.8c.3,-1.1,1.1,-1.5,1.6,-1.5c.6,0,1.3,.4,1.5,1.5c.2,.8,.2,1.7,.2,2.8c0,.9,0,2,-.1,2.8c-.3,1.5,-1.1,1.7,-1.6,1.7Z" class="g7_44" />
<path d="M229.4,580.3h3.1m462.6,0H692" class="g6_44" />
<path d="M213.7,576.1q0,-.3,-.2,-.3c-.5,.6,-1.4,.7,-2.1,.7q-.1,0,-.1,.1q-.1,0,-.1,.3c.5,0,1.2,-.1,1.7,-.4v7.3c0,.4,0,.6,-1.2,.6h-.4v.3h4v-.3h-.4c-1.2,0,-1.2,-.2,-1.2,-.6Z" class="g7_44" />
<path d="M218.9,584.1c0,-.4,-.4,-.7,-.7,-.7c-.4,0,-.7,.3,-.7,.7c0,.4,.4,.6,.7,.6c.4,0,.7,-.3,.7,-.6Z" class="g7_44" />
<path d="M221.6,576.8c.2,.1,.7,.3,1.3,.3c1.3,0,2,-.7,2.4,-1.1c0,-.1,0,-.2,-.1,-.2c0,0,-.1,0,-.2,.1c-.5,.2,-1,.3,-1.7,.3c-.4,0,-1,0,-1.7,-.3c-.1,-.1,-.2,-.1,-.2,-.1q-.1,0,-.1,.3V580c0,.3,0,.4,.2,.4c0,0,.1,-.1,.1,-.2c.5,-.6,1.1,-.9,1.8,-.9c.4,0,1.5,.3,1.5,2.7c0,.4,0,1.2,-.4,1.8c-.4,.6,-.9,.9,-1.5,.9c-.9,0,-1.8,-.6,-2.1,-1.7c.1,0,.2,0,.2,0c.2,0,.6,-.1,.6,-.5c0,-.4,-.3,-.5,-.6,-.5c-.3,0,-.5,.2,-.5,.6c0,1.2,1,2.4,2.4,2.4c1.4,0,2.8,-1.2,2.8,-3c0,-1.6,-1.1,-2.9,-2.4,-2.9c-.7,0,-1.3,.3,-1.8,.8Z" class="g7_44" />
<path d="M229.4,521.4h3.1m462.6,0H692" class="g6_44" />
<path d="M215.8,523.7h-.3c-.1,1,-.2,1.1,-.3,1.2c-.1,.1,-1,.1,-1.2,.1h-2.7c.5,-.5,1.5,-1.5,2.7,-2.6c.8,-.8,1.8,-1.7,1.8,-3.1c0,-1.6,-1.3,-2.5,-2.8,-2.5c-1.5,0,-2.4,1.3,-2.4,2.5c0,.5,.4,.6,.6,.6c.1,0,.5,-.1,.5,-.5c0,-.5,-.3,-.6,-.5,-.6c-.1,0,-.2,0,-.2,.1c.2,-1.2,1,-1.8,1.8,-1.8c1.2,0,2,1,2,2.2c0,1.2,-.7,2.2,-1.5,3.1l-2.7,3.1v.3h4.8Z" class="g7_44" />
<path d="M218.9,525.1c0,-.4,-.4,-.6,-.7,-.6c-.4,0,-.7,.3,-.7,.6c0,.4,.4,.7,.7,.7c.4,0,.7,-.3,.7,-.7Z" class="g7_44" />
<path d="M225.8,521.5c0,-.9,0,-2.3,-.6,-3.4c-.5,-.9,-1.3,-1.3,-2,-1.3c-.7,0,-1.5,.3,-2,1.3c-.6,1,-.6,2.3,-.6,3.4c0,.7,0,1.9,.4,3c.6,1.4,1.7,1.6,2.2,1.6c.6,0,1.6,-.3,2.1,-1.6c.5,-.9,.5,-2,.5,-3m-2.6,4.4c-.9,0,-1.4,-.8,-1.6,-1.8c-.1,-.8,-.1,-2,-.1,-2.8c0,-1,0,-1.9,.1,-2.8c.3,-1.1,1.1,-1.5,1.6,-1.5c.6,0,1.3,.4,1.5,1.5c.2,.8,.2,1.7,.2,2.8c0,.9,0,2,-.1,2.8c-.3,1.5,-1.1,1.8,-1.6,1.8Z" class="g7_44" />
<path d="M229.4,462.4h3.1m462.6,0H692" class="g6_44" />
<path d="M215.8,464.7h-.3c-.1,1,-.2,1.2,-.3,1.3c-.1,.1,-1,.1,-1.2,.1h-2.7c.5,-.6,1.5,-1.5,2.7,-2.7c.8,-.8,1.8,-1.7,1.8,-3c0,-1.7,-1.3,-2.6,-2.8,-2.6c-1.5,0,-2.4,1.3,-2.4,2.6c0,.5,.4,.6,.6,.6c.1,0,.5,-.1,.5,-.6c0,-.4,-.3,-.5,-.5,-.5c-.1,0,-.2,0,-.2,0c.2,-1.2,1,-1.7,1.8,-1.7c1.2,0,2,.9,2,2.2c0,1.2,-.7,2.2,-1.5,3.1l-2.7,3v.4h4.8Z" class="g7_44" />
<path d="M218.9,466.2c0,-.4,-.4,-.7,-.7,-.7c-.4,0,-.7,.4,-.7,.7c0,.4,.4,.7,.7,.7c.4,0,.7,-.4,.7,-.7Z" class="g7_44" />
<path d="M221.6,459c.2,0,.7,.2,1.3,.2c1.3,0,2,-.7,2.4,-1.1c0,-.1,0,-.2,-.1,-.2c0,0,-.1,0,-.2,.1c-.5,.2,-1,.4,-1.7,.4c-.4,0,-1,-.1,-1.7,-.4c-.1,-.1,-.2,-.1,-.2,-.1q-.1,0,-.1,.3v4c0,.2,0,.3,.2,.3c0,0,.1,-.1,.1,-.2c.5,-.6,1.1,-.8,1.8,-.8c.4,0,1.5,.3,1.5,2.6c0,.4,0,1.2,-.4,1.9c-.4,.5,-.9,.8,-1.5,.8c-.9,0,-1.8,-.6,-2.1,-1.7c.1,0,.2,.1,.2,.1c.2,0,.6,-.1,.6,-.6c0,-.3,-.3,-.5,-.6,-.5c-.3,0,-.5,.2,-.5,.6c0,1.2,1,2.4,2.4,2.4c1.4,0,2.8,-1.2,2.8,-2.9c0,-1.7,-1.1,-3,-2.4,-3c-.7,0,-1.3,.3,-1.8,.8Z" class="g7_44" />
<path d="M229.4,403.5h3.1m462.6,0H692" class="g6_44" />
<path d="M213.1,403.3c1.2,0,1.7,1.1,1.7,2.3c0,1.6,-.8,2.3,-1.6,2.3c-.8,0,-1.9,-.4,-2.3,-1.5q.1,.1,.2,.1c.3,0,.6,-.3,.6,-.6c0,-.4,-.3,-.6,-.6,-.6c-.2,0,-.6,.1,-.6,.6c0,1.3,1.2,2.3,2.7,2.3c1.5,0,2.7,-1.2,2.7,-2.6c0,-1.3,-1.1,-2.3,-2.4,-2.5c1,-.2,2,-1.1,2,-2.3c0,-1.1,-1.1,-1.8,-2.3,-1.8c-1.2,0,-2.3,.7,-2.3,1.8c0,.5,.3,.5,.5,.5c.3,0,.5,-.1,.5,-.5c0,-.3,-.2,-.5,-.5,-.5q-.1,0,-.2,0c.4,-.9,1.5,-1,2,-1c.5,0,1.4,.2,1.4,1.5c0,.4,-.1,1.1,-.6,1.7c-.4,.5,-.8,.5,-1.3,.5h-.4c-.1,.1,-.2,.1,-.2,.2q0,.1,.3,.1Z" class="g7_44" />
<path d="M218.9,407.3c0,-.4,-.4,-.7,-.7,-.7c-.4,0,-.7,.3,-.7,.6c0,.4,.4,.7,.7,.7c.4,0,.7,-.3,.7,-.6Z" class="g7_44" />
<path d="M225.8,403.6c0,-.9,0,-2.3,-.6,-3.4c-.5,-.9,-1.3,-1.3,-2,-1.3c-.7,0,-1.5,.3,-2,1.3c-.6,1,-.6,2.3,-.6,3.4c0,.8,0,1.9,.4,3c.6,1.4,1.7,1.6,2.2,1.6c.6,0,1.6,-.3,2.1,-1.6c.5,-.9,.5,-2,.5,-3m-2.6,4.4c-.9,0,-1.4,-.8,-1.6,-1.8c-.1,-.8,-.1,-2,-.1,-2.8c0,-1,0,-1.9,.1,-2.7c.3,-1.2,1.1,-1.6,1.6,-1.6c.6,0,1.3,.4,1.5,1.5c.2,.8,.2,1.7,.2,2.8c0,.9,0,2,-.1,2.8c-.3,1.5,-1.1,1.8,-1.6,1.8Z" class="g7_44" />
<path d="M198.4,636.9v-2.4c0,-2,-1.3,-3.4,-2.7,-3.4c-1.4,0,-2.8,1.4,-2.8,3.4v4.6h.4c0,-1,0,-1.2,.7,-1.2h8.2c.7,0,.7,.2,.7,1.2h.4v-3.4h-.4c0,1,0,1.2,-.7,1.2Zm-.3,0h-4.2c-.5,0,-.6,0,-.6,-.6v-1.5c0,-2,1.1,-2.6,2.4,-2.6c1.4,0,2.4,.7,2.4,2.6Z" class="g7_44" />
<path d="M199.7,628.1c-1.5,0,-2.8,-.7,-2.8,-1.8c0,-.1,0,-.2,0,-.3c0,0,.1,.3,.5,.3c.4,0,.6,-.3,.6,-.5c0,-.2,-.2,-.5,-.6,-.5c-.5,0,-.8,.5,-.8,1c0,1.1,1.2,1.6,1.7,1.8h-1.7l.2,1.8h.4c0,-.9,.1,-1.1,.8,-1.1h4.3c.5,0,.6,.1,.6,1.1h.4c0,-.4,0,-1.1,0,-1.5c0,-.4,0,-1.2,0,-1.6h-.4c0,1.1,0,1.3,-.7,1.3Z" class="g7_44" />
<path d="M200,618.4c-1.9,0,-3.4,1.4,-3.4,3.1c0,1.6,1.5,3.1,3.4,3.1c2,0,3.4,-1.5,3.4,-3.1c0,-1.7,-1.4,-3.1,-3.4,-3.1m3.1,3.1c0,.7,-.4,1.3,-1,1.7c-.7,.3,-1.5,.4,-2.2,.4c-.6,0,-1.4,0,-2.1,-.4c-.5,-.4,-1,-.9,-1,-1.7c0,-.7,.4,-1.3,.9,-1.6c.7,-.5,1.7,-.5,2.2,-.5c.6,0,1.5,0,2.3,.4c.7,.4,.9,1.1,.9,1.7Z" class="g7_44" />
<path d="M192.8,615.7l.2,1.8h.4c0,-.9,.1,-1,.8,-1h9.1v-.3l-1.1,-.4c.7,-.5,1.2,-1.1,1.2,-2c0,-1.5,-1.3,-3.1,-3.4,-3.1c-1.9,0,-3.4,1.4,-3.4,2.9c0,1,.5,1.6,1.1,2.1Zm5.7,0q-.3,0,-.6,-.2c-.9,-.6,-1,-1.5,-1,-1.8c0,-.4,.2,-2,3.1,-2c3,0,3.2,1.8,3.2,2.2c0,.4,-.2,1.1,-1.1,1.6q-.3,.2,-.6,.2Z" class="g7_44" />
<path d="M199.3,604.7c-1,0,-1.5,0,-2.1,.7c-.5,.5,-.6,1.2,-.6,1.7c0,1.2,.9,2.1,2,2.1c.6,0,.6,-.5,.6,-.6c0,-.2,-.2,-.5,-.6,-.5c-.4,0,-.5,.3,-.5,.5c0,.1,0,.2,0,.2c-1,-.3,-1.3,-1.1,-1.3,-1.7c0,-.7,.7,-1.6,2,-1.6h.7c0,.9,.1,2,.5,2.9c.6,.9,1.3,1.2,1.9,1.2c1.2,0,1.5,-1.4,1.5,-2.2c0,-.8,-.5,-1.6,-1.3,-1.9c.6,-.1,1.2,-.5,1.2,-1.2c0,-.3,-.2,-1.1,-1.4,-1.1h-.8v.3h.8c.9,0,1.1,.4,1.1,.6c0,.6,-.8,.6,-1.5,.6Zm1.9,.8c1.3,0,2,1,2,1.8c0,.8,-.6,1.4,-1.3,1.4c-.4,0,-1.2,-.2,-1.7,-1.1c-.4,-.7,-.5,-1.6,-.5,-2.1Z" class="g7_44" />
<path d="M192.8,600.9l.2,1.9h.4c0,-.9,.1,-1.1,.8,-1.1h9.1v-.3l-1.1,-.4c.7,-.4,1.2,-1.1,1.2,-2c0,-1.5,-1.3,-3,-3.4,-3c-1.9,0,-3.4,1.3,-3.4,2.9c0,.9,.5,1.6,1.1,2Zm5.7,0q-.3,0,-.6,-.2c-.9,-.6,-1,-1.4,-1,-1.7c0,-.5,.2,-2.1,3.1,-2.1c3,0,3.2,1.8,3.2,2.2c0,.5,-.2,1.2,-1.1,1.6q-.3,.2,-.6,.2Z" class="g7_44" />
<path d="M194,593.1c-.4,0,-.6,.3,-.6,.6c0,.4,.2,.6,.6,.6c.3,0,.6,-.2,.6,-.6c0,-.3,-.3,-.6,-.6,-.6m2.8,1.8h.4c0,-.9,.1,-1,.8,-1h4.3c.5,0,.6,.1,.6,1h.4c0,-.3,0,-1,0,-1.4c0,-.3,0,-1,0,-1.3h-.4c0,.9,-.1,.9,-.6,.9h-5.6Z" class="g7_44" />
<path d="M192.8,589.3l.2,1.8h.4c0,-.9,.1,-1,.8,-1h8.1c.5,0,.6,.1,.6,1h.4c0,-.3,0,-1,0,-1.4c0,-.4,0,-1,0,-1.4h-.4c0,1,-.1,1,-.6,1Z" class="g7_44" />
<path d="M194,585.5c-.4,0,-.6,.3,-.6,.6c0,.4,.2,.6,.6,.6c.3,0,.6,-.2,.6,-.6c0,-.3,-.3,-.6,-.6,-.6m2.8,1.8h.4c0,-.9,.1,-1,.8,-1h4.3c.5,0,.6,.1,.6,1h.4c0,-.3,0,-1,0,-1.4c0,-.3,0,-1,0,-1.3h-.4c0,.9,-.1,.9,-.6,.9h-5.6Z" class="g7_44" />
<path d="M197.2,581.8v-2.2h-.4v2.2H194v.2c1.6,.1,2.9,.6,2.9,1.9h.3v-1.3h4.2c.3,0,2,0,2,-1.8c0,-.9,-.9,-1.4,-2,-1.4h-.8v.3h.8c1.1,0,1.7,.4,1.7,1c0,.4,-.3,1.1,-1.6,1.1Z" class="g7_44" />
<path d="M198,573.1c-.9,-.4,-.9,-1,-.9,-1.3h-.4v1c0,.3,0,.8,0,1.1h.4c.1,-.5,.5,-.6,.6,-.6c.1,0,.2,.1,.4,.1l4.1,1.7l-4.4,1.8c-.2,.1,-.3,.1,-.3,.1c-.3,0,-.4,-.4,-.4,-.7h-.4c0,.3,0,1,0,1.4c0,.4,0,.9,0,1.2h.4c0,-.8,.1,-.9,.6,-1.1l5.5,-2.3c1.8,.7,2.9,1.1,2.9,2.1c0,.1,-.1,.5,-.3,.8c-.1,-.4,-.3,-.5,-.5,-.5c-.3,0,-.5,.2,-.5,.5c0,.3,.2,.5,.5,.5c.6,0,1,-.6,1,-1.3c0,-.9,-.8,-1.5,-1.6,-1.8Z" class="g7_44" />
<path d="M192.9,566.3h.4c0,-1.1,0,-1.2,.7,-1.2h8.2c.7,0,.7,.1,.7,1.2h.4v-4.8c0,-2.5,-2.3,-4.5,-5.1,-4.5c-2.9,0,-5.3,2,-5.3,4.5Zm10,-2.8c0,.6,-.1,.6,-.6,.6h-8.4c-.5,0,-.6,0,-.6,-.6v-1.7c0,-1.3,.8,-3.6,4.9,-3.6c2.1,0,3,.6,3.4,.9c.5,.3,1.3,1.2,1.3,2.7Z" class="g7_44" />
<path d="M199.8,550.5q-.1,0,-.3,0c-1.6,0,-2.9,.8,-2.9,2.5c0,1.6,1.5,2.9,3.4,2.9c2,0,3.4,-1.4,3.4,-3c0,-1.7,-1.6,-2.4,-1.9,-2.4c-.1,0,-.1,.1,-.1,.1q0,.1,.2,.2c1,.3,1.5,1.2,1.5,2c0,.6,-.3,1.3,-1,1.7c-.7,.5,-1.6,.5,-2.3,.5Zm-.3,4.4c-2.2,-.1,-2.7,-1.2,-2.7,-1.9c0,-1,1,-1.7,2.7,-1.7Z" class="g7_44" />
<path d="M198.7,543.8c-.8,0,-2.1,.2,-2.1,2c0,1.2,1,1.8,1.6,2v.1h-1.6l.2,1.7h.4c0,-.9,.1,-1,.8,-1h4.3c.5,0,.6,.1,.6,1h.4c0,-.3,0,-1,0,-1.4c0,-.4,0,-1.1,0,-1.4h-.4c0,.9,-.1,1,-.6,1h-3c-1.4,0,-2.4,-.8,-2.4,-1.9c0,-1.1,1,-1.3,1.7,-1.3h3.7c.5,0,.6,.1,.6,1.1h.4c0,-.4,0,-1.1,0,-1.5c0,-.4,0,-1,0,-1.4h-.4c0,1,-.1,1,-.6,1Z" class="g7_44" />
<path d="M196.9,537.7q-.3,0,-.3,.1c0,0,0,.1,.2,.2c.1,.1,.2,.2,.3,.3c-.5,.5,-.5,1.1,-.5,1.4c0,1.7,.9,2.3,1.7,2.3c1.4,0,1.7,-1.6,1.8,-2c.2,-1,.3,-1.3,.6,-1.6c.1,-.2,.5,-.5,1,-.5c.7,0,1.5,.3,1.5,1.7c0,1.3,-1,1.8,-2.3,2.1q-.3,0,-.3,.2q0,.1,.4,.1h2.1q.3,0,.3,-.1q0,-.1,-.1,-.2c-.2,-.1,-.5,-.3,-.7,-.4c.4,-.3,.8,-.8,.8,-1.7c0,-1.5,-.8,-2.3,-2,-2.3c-.8,0,-1.2,.4,-1.4,.6c-.4,.5,-.5,1,-.7,1.6c-.2,.9,-.4,1.9,-1.3,1.9c-.4,0,-1.2,-.2,-1.2,-1.7c0,-1.6,1.5,-1.7,2,-1.8c0,0,.1,0,.1,-.1c0,-.1,-.1,-.1,-.3,-.1Z" class="g7_44" />
<path d="M194,534.5c-.4,0,-.6,.3,-.6,.7c0,.3,.2,.6,.6,.6c.3,0,.6,-.3,.6,-.6c0,-.4,-.3,-.7,-.6,-.7m2.8,1.8h.4c0,-.8,.1,-1,.8,-1h4.3c.5,0,.6,.1,.6,1.1h.4c0,-.4,0,-1,0,-1.4c0,-.4,0,-1,0,-1.4h-.4c0,.9,-.1,1,-.6,1h-5.6Z" class="g7_44" />
<path d="M197.2,530.8v-2.1h-.4v2.1H194v.3c1.6,0,2.9,.5,2.9,1.8h.3v-1.3h4.2c.3,0,2,0,2,-1.8c0,-.9,-.9,-1.4,-2,-1.4h-.8v.3h.8c1.1,0,1.7,.4,1.7,1.1c0,.4,-.3,1,-1.6,1Z" class="g7_44" />
<path d="M198,522.2c-.9,-.4,-.9,-1.1,-.9,-1.3h-.4v1c0,.3,0,.8,0,1.1h.4c.1,-.6,.5,-.6,.6,-.6c.1,0,.2,0,.4,.1l4.1,1.7l-4.4,1.8c-.2,0,-.3,0,-.3,0c-.3,0,-.4,-.3,-.4,-.7h-.4c0,.4,0,1,0,1.4c0,.4,0,.9,0,1.3h.4c0,-.9,.1,-1,.6,-1.2l5.5,-2.2c1.8,.7,2.9,1.1,2.9,2c0,.2,-.1,.6,-.3,.8c-.1,-.3,-.3,-.5,-.5,-.5c-.3,0,-.5,.2,-.5,.5c0,.4,.2,.5,.5,.5c.6,0,1,-.6,1,-1.3c0,-.9,-.8,-1.4,-1.6,-1.7Z" class="g7_44" />
<path d="M229.4,403.5H695.1m0,353.6V403.5M229.4,757.1H695.1m-465.7,0V403.5" class="g8_44" />
<path d="M235.5,409.6H429.7V479H235.5V409.6Z" class="g9_44" />
<path d="M244.1,418.8h17.1" class="g1_44" />
<path d="M277,419.2h2c1.5,0,2.7,-1.1,2.7,-2.2c0,-1.2,-1.1,-2.2,-2.7,-2.2h-3.7v.3c.8,0,.9,0,.9,.5v6.6c0,.5,-.1,.5,-.9,.5v.4H278v-.4c-.8,0,-1,0,-1,-.5Zm0,-.3v-3.3q0,-.5,.5,-.5h1.2c1.6,0,2.1,.9,2.1,1.9c0,1.1,-.6,1.9,-2.1,1.9Z" class="g7_44" />
<path d="M287.2,420.5c0,-1.6,-1.1,-2.8,-2.5,-2.8c-1.3,0,-2.4,1.2,-2.4,2.8c0,1.5,1.1,2.7,2.4,2.7c1.4,0,2.5,-1.2,2.5,-2.7m-2.5,2.5c-.5,0,-1,-.4,-1.3,-.9c-.3,-.5,-.3,-1.2,-.3,-1.7c0,-.5,0,-1.2,.3,-1.7c.2,-.4,.7,-.8,1.3,-.8c.6,0,1.1,.3,1.3,.7c.4,.6,.4,1.4,.4,1.8c0,.5,0,1.2,-.3,1.8c-.4,.5,-.9,.8,-1.4,.8Z" class="g7_44" />
<path d="M291.3,417.9q0,-.2,-.1,-.2l-.2,.2c0,0,-.1,.2,-.2,.2c-.4,-.4,-.9,-.4,-1.1,-.4c-1.4,0,-1.9,.7,-1.9,1.4c0,1.1,1.3,1.4,1.6,1.4c.8,.2,1.1,.2,1.3,.5c.2,.1,.5,.4,.5,.8c0,.5,-.3,1.2,-1.5,1.2c-1,0,-1.4,-.8,-1.6,-1.9c-.1,-.1,-.1,-.2,-.1,-.2c-.1,0,-.2,.1,-.2,.3v1.7c0,.3,.1,.3,.1,.3q.1,0,.2,-.1c0,-.1,.2,-.4,.3,-.6c.2,.4,.7,.7,1.3,.7c1.2,0,1.9,-.7,1.9,-1.6c0,-.7,-.3,-1,-.5,-1.1c-.4,-.4,-.8,-.5,-1.3,-.6c-.7,-.1,-1.5,-.3,-1.5,-1.1c0,-.3,.1,-.9,1.4,-.9c1.3,0,1.4,1.2,1.4,1.6c0,0,.1,0,.1,0q.1,0,.1,-.2Z" class="g7_44" />
<path d="M293.7,418.2h1.8v-.3h-1.8v-2.3h-.2c0,1.3,-.4,2.4,-1.5,2.4v.2h1.1v3.4c0,.2,0,1.6,1.4,1.6c.7,0,1.1,-.7,1.1,-1.6v-.7h-.2v.7c0,.8,-.3,1.4,-.8,1.4c-.4,0,-.9,-.3,-.9,-1.4Z" class="g7_44" />
<path d="M300.9,420.3q0,-.1,0,-.2c0,-1.3,-.6,-2.4,-2,-2.4c-1.3,0,-2.3,1.2,-2.3,2.7c0,1.6,1.1,2.8,2.4,2.8c1.4,0,1.9,-1.3,1.9,-1.6c0,0,-.1,0,-.1,0q-.1,0,-.1,.1c-.3,.9,-1,1.3,-1.6,1.3c-.5,0,-1.1,-.3,-1.4,-.9c-.4,-.6,-.4,-1.3,-.4,-1.8Zm-3.6,-.2c.1,-1.8,1.1,-2.2,1.6,-2.2c.8,0,1.3,.8,1.4,2.2Z" class="g7_44" />
<path d="M303,420.2c0,-1.2,.5,-2.3,1.4,-2.3c.1,0,.2,.1,.3,.1c0,0,-.3,.1,-.3,.4c0,.3,.2,.4,.4,.4c.2,0,.4,-.1,.4,-.4c0,-.4,-.4,-.7,-.8,-.7c-.9,0,-1.3,.9,-1.4,1.4v-1.4l-1.5,.2v.3c.8,0,.9,.1,.9,.7v3.3c0,.5,-.1,.6,-.9,.6v.3c.3,0,.9,0,1.2,0c.4,0,1,0,1.3,0v-.3c-.9,0,-1,0,-1,-.6Z" class="g7_44" />
<path d="M307.4,415.6c0,-.2,-.2,-.5,-.5,-.5c-.3,0,-.5,.2,-.5,.5c0,.3,.2,.5,.5,.5c.2,0,.5,-.2,.5,-.5m-1.5,2.3v.3c.7,0,.8,.1,.8,.7v3.3c0,.5,0,.6,-.8,.6v.3c.3,0,.8,0,1.1,0c.3,0,.8,0,1.1,0v-.3c-.7,0,-.8,-.1,-.8,-.5v-4.5Z" class="g7_44" />
<path d="M313.8,420.5c0,-1.6,-1.2,-2.8,-2.5,-2.8c-1.3,0,-2.4,1.2,-2.4,2.8c0,1.5,1.1,2.7,2.4,2.7c1.3,0,2.5,-1.2,2.5,-2.7m-2.5,2.5c-.6,0,-1,-.4,-1.3,-.9c-.3,-.5,-.4,-1.2,-.4,-1.7c0,-.5,.1,-1.2,.4,-1.7c.2,-.4,.7,-.8,1.3,-.8c.6,0,1,.3,1.3,.7c.4,.6,.4,1.4,.4,1.8c0,.5,0,1.2,-.4,1.8c-.3,.5,-.8,.8,-1.3,.8Z" class="g7_44" />
<path d="M315.9,420.2c0,-1.2,.5,-2.3,1.4,-2.3c.1,0,.2,.1,.3,.1c0,0,-.3,.1,-.3,.4c0,.3,.3,.4,.4,.4c.2,0,.5,-.1,.5,-.4c0,-.4,-.4,-.7,-.8,-.7c-1,0,-1.4,.9,-1.5,1.4v-1.4l-1.4,.2v.3c.7,0,.8,.1,.8,.7v3.3c0,.5,0,.6,-.8,.6v.3c.3,0,.8,0,1.2,0c.3,0,.9,0,1.3,0v-.3c-.9,0,-1.1,0,-1.1,-.6Z" class="g7_44" />
<path d="M322.7,414.8v.3c.9,0,1,0,1,.5v6.6c0,.5,-.1,.5,-1,.5v.4h3.9c2,0,3.5,-1.8,3.5,-4.1c0,-2.3,-1.5,-4.2,-3.5,-4.2Zm2.3,7.9q-.5,0,-.5,-.4v-6.7q0,-.5,.5,-.5h1.4c1,0,2.8,.6,2.8,3.9c0,1.7,-.5,2.4,-.7,2.7c-.3,.4,-1,1,-2.1,1Z" class="g7_44" />
<path d="M335.3,420.3q.1,-.1,.1,-.2c0,-1.3,-.7,-2.4,-2.1,-2.4c-1.3,0,-2.3,1.2,-2.3,2.7c0,1.6,1.2,2.8,2.5,2.8c1.3,0,1.9,-1.3,1.9,-1.6c0,0,-.1,0,-.1,0q-.1,0,-.2,.1c-.2,.9,-.9,1.3,-1.5,1.3c-.6,0,-1.1,-.3,-1.4,-.9c-.4,-.6,-.4,-1.3,-.4,-1.8Zm-3.5,-.2c.1,-1.8,1,-2.2,1.5,-2.2c.9,0,1.4,.8,1.4,2.2Z" class="g7_44" />
<path d="M340.7,419.4c0,-.6,-.1,-1.7,-1.6,-1.7c-.9,0,-1.4,.8,-1.6,1.3v-1.3l-1.5,.2v.3c.8,0,.9,.1,.9,.7v3.3c0,.5,-.1,.6,-.9,.6v.3c.3,0,.9,0,1.2,0c.3,0,.9,0,1.2,0v-.3c-.8,0,-.9,-.1,-.9,-.6v-2.3c0,-1.1,.7,-2,1.6,-2c.9,0,1,.8,1,1.4v2.9c0,.5,-.1,.6,-.9,.6v.3c.3,0,.9,0,1.2,0c.3,0,.8,0,1.1,0v-.3c-.7,0,-.8,-.1,-.8,-.6Z" class="g7_44" />
<path d="M345.6,417.9q0,-.2,-.1,-.2l-.2,.2c0,0,-.1,.2,-.1,.2c-.4,-.4,-1,-.4,-1.2,-.4c-1.3,0,-1.8,.7,-1.8,1.4c0,1.1,1.2,1.4,1.6,1.4c.7,.2,1,.2,1.3,.5c.1,.1,.4,.4,.4,.8c0,.5,-.3,1.2,-1.4,1.2c-1.1,0,-1.5,-.8,-1.7,-1.9c0,-.1,0,-.2,-.1,-.2c-.1,0,-.1,.1,-.1,.3v1.7q0,.3,.1,.3l.1,-.1c.1,-.1,.2,-.4,.3,-.6c.3,.4,.7,.7,1.4,.7c1.2,0,1.8,-.7,1.8,-1.6c0,-.7,-.3,-1,-.5,-1.1c-.3,-.4,-.8,-.5,-1.3,-.6c-.6,-.1,-1.5,-.3,-1.5,-1.1c0,-.3,.2,-.9,1.4,-.9c1.3,0,1.4,1.2,1.4,1.6c0,0,.1,0,.1,0q.1,0,.1,-.2Z" class="g7_44" />
<path d="M348.1,415.6c0,-.2,-.2,-.5,-.5,-.5c-.2,0,-.5,.2,-.5,.5c0,.3,.3,.5,.5,.5c.3,0,.5,-.2,.5,-.5m-1.4,2.3v.3c.7,0,.8,.1,.8,.7v3.3c0,.5,-.1,.6,-.8,.6v.3c.2,0,.8,0,1.1,0c.3,0,.8,0,1,0v-.3c-.7,0,-.7,-.1,-.7,-.5v-4.5Z" class="g7_44" />
<path d="M351.1,418.2h1.7v-.3h-1.7v-2.3h-.2c0,1.3,-.4,2.4,-1.5,2.4v.2h1.1v3.4c0,.2,0,1.6,1.4,1.6c.7,0,1.1,-.7,1.1,-1.6v-.7h-.2v.7c0,.8,-.3,1.4,-.8,1.4c-.4,0,-.9,-.3,-.9,-1.4Z" class="g7_44" />
<path d="M358,418.9c.3,-.8,.9,-.8,1,-.8v-.3h-.7c-.3,0,-.7,0,-.9,0v.3c.4,.1,.5,.4,.5,.5c0,.1,-.1,.2,-.1,.3l-1.4,3.3L355,418.7c-.1,-.2,-.1,-.3,-.1,-.3c0,-.2,.3,-.3,.6,-.3v-.3c-.3,0,-.8,0,-1.1,0c-.3,0,-.7,0,-1,0v.3c.7,0,.7,.1,.9,.5l1.8,4.4c-.5,1.5,-.9,2.3,-1.6,2.3c-.2,0,-.5,0,-.7,-.3c.3,0,.4,-.2,.4,-.4c0,-.2,-.1,-.3,-.4,-.3c-.2,0,-.4,.1,-.4,.4c0,.4,.5,.8,1.1,.8c.7,0,1.1,-.7,1.4,-1.3Z" class="g7_44" />
<path d="M244.1,435.8h17.1" class="g2_44" />
<path d="M277,436.2h2c1.5,0,2.7,-1,2.7,-2.2c0,-1.1,-1.1,-2.2,-2.7,-2.2h-3.7v.3c.8,0,.9,0,.9,.6v6.5c0,.6,-.1,.6,-.9,.6v.3H278v-.3c-.8,0,-1,0,-1,-.6Zm0,-.3v-3.3c0,-.4,0,-.5,.5,-.5h1.2c1.6,0,2.1,.9,2.1,1.9c0,1.1,-.6,1.9,-2.1,1.9Z" class="g7_44" />
<path d="M284.1,437.2c0,-1.1,.5,-2.2,1.4,-2.2c.1,0,.2,0,.3,0c0,0,-.3,.1,-.3,.4c0,.3,.2,.4,.4,.4c.2,0,.4,0,.4,-.4c0,-.4,-.4,-.6,-.8,-.6c-.9,0,-1.3,.9,-1.4,1.3v-1.3l-1.5,.1v.3c.8,0,.9,.1,.9,.7v3.4c0,.4,-.1,.5,-.9,.5v.3c.3,0,.9,0,1.2,0c.4,0,1,0,1.3,0v-.3c-.9,0,-1,0,-1,-.5Z" class="g7_44" />
<path d="M288.5,432.7c0,-.3,-.3,-.5,-.5,-.5c-.3,0,-.5,.2,-.5,.5c0,.2,.2,.4,.5,.4c.2,0,.5,-.2,.5,-.4m-1.5,2.2v.4c.7,0,.8,0,.8,.6v3.4c0,.4,0,.5,-.8,.5v.3c.3,0,.8,0,1.1,0c.3,0,.8,0,1.1,0v-.3c-.7,0,-.8,-.1,-.8,-.5v-4.5Z" class="g7_44" />
<path d="M294.9,437.5c0,-1.6,-1.2,-2.8,-2.5,-2.8c-1.3,0,-2.5,1.2,-2.5,2.8c0,1.5,1.2,2.7,2.5,2.7c1.3,0,2.5,-1.2,2.5,-2.7m-2.5,2.5c-.6,0,-1.1,-.3,-1.3,-.8c-.3,-.6,-.4,-1.3,-.4,-1.8c0,-.5,.1,-1.1,.4,-1.7c.2,-.4,.7,-.8,1.3,-.8c.6,0,1,.3,1.3,.8c.4,.5,.4,1.3,.4,1.7c0,.5,0,1.2,-.4,1.8c-.3,.6,-.8,.8,-1.3,.8Z" class="g7_44" />
<path d="M297,437.2c0,-1.1,.5,-2.2,1.4,-2.2c.1,0,.2,0,.3,0c0,0,-.3,.1,-.3,.4c0,.3,.3,.4,.4,.4c.2,0,.5,0,.5,-.4c0,-.4,-.4,-.6,-.8,-.6c-1,0,-1.4,.9,-1.5,1.3v-1.3l-1.4,.1v.3c.7,0,.8,.1,.8,.7v3.4c0,.4,0,.5,-.8,.5v.3c.3,0,.8,0,1.2,0c.3,0,.9,0,1.3,0v-.3c-.9,0,-1.1,0,-1.1,-.5Z" class="g7_44" />
<path d="M303.8,431.8v.3c.9,0,1,0,1,.6v6.5c0,.6,-.1,.6,-1,.6v.3h3.9c2,0,3.5,-1.8,3.5,-4.1c0,-2.3,-1.5,-4.2,-3.5,-4.2Zm2.3,8c-.5,0,-.5,-.1,-.5,-.5v-6.7c0,-.4,0,-.5,.5,-.5h1.4c1,0,2.8,.6,2.8,3.9c0,1.7,-.5,2.4,-.7,2.7c-.3,.4,-1,1.1,-2.1,1.1Z" class="g7_44" />
<path d="M316.4,437.3q.1,-.1,.1,-.2c0,-1.3,-.7,-2.4,-2.1,-2.4c-1.3,0,-2.3,1.3,-2.3,2.8c0,1.5,1.2,2.7,2.5,2.7c1.3,0,1.9,-1.3,1.9,-1.5c0,-.1,-.1,-.1,-.1,-.1q-.1,0,-.2,.2c-.2,.8,-.9,1.2,-1.5,1.2c-.6,0,-1.1,-.3,-1.4,-.8c-.4,-.6,-.4,-1.3,-.4,-1.9Zm-3.5,-.2c.1,-1.8,1,-2.2,1.5,-2.2c.9,0,1.4,.8,1.4,2.2Z" class="g7_44" />
<path d="M321.8,436.4c0,-.6,-.1,-1.6,-1.6,-1.6c-.9,0,-1.4,.7,-1.6,1.2v-1.2l-1.5,.1v.3c.8,0,.9,.1,.9,.7v3.4c0,.4,-.1,.5,-.9,.5v.3c.3,0,.9,0,1.2,0c.3,0,.9,0,1.1,0v-.3c-.7,0,-.8,-.1,-.8,-.5v-2.4c0,-1.1,.7,-1.9,1.6,-1.9c.9,0,1,.8,1,1.4v2.9c0,.4,-.1,.5,-.9,.5v.3c.3,0,.9,0,1.2,0c.3,0,.8,0,1.1,0v-.3c-.8,0,-.8,-.1,-.8,-.5Z" class="g7_44" />
<path d="M326.7,435q0,-.3,-.1,-.3l-.2,.2c0,.1,-.1,.2,-.1,.2c-.4,-.4,-1,-.4,-1.2,-.4c-1.3,0,-1.8,.7,-1.8,1.4c0,1.1,1.2,1.4,1.6,1.5c.7,.1,1,.2,1.3,.4c.1,.1,.4,.4,.4,.9c0,.5,-.3,1.1,-1.4,1.1c-1.1,0,-1.5,-.8,-1.7,-1.8q0,-.2,-.1,-.2q-.1,0,-.1,.2V440q0,.2,.1,.2l.1,-.1c.1,-.1,.2,-.4,.3,-.5c.3,.3,.7,.6,1.4,.6c1.2,0,1.8,-.6,1.8,-1.6c0,-.6,-.3,-1,-.5,-1.1c-.3,-.4,-.8,-.5,-1.3,-.6c-.6,-.1,-1.5,-.3,-1.5,-1c0,-.3,.2,-1,1.4,-1c1.3,0,1.4,1.2,1.4,1.6c0,0,.1,.1,.1,.1c.1,0,.1,-.1,.1,-.3Z" class="g7_44" />
<path d="M329.2,432.7c0,-.3,-.2,-.5,-.5,-.5c-.2,0,-.5,.2,-.5,.5c0,.2,.2,.4,.5,.4c.3,0,.5,-.2,.5,-.4m-1.4,2.2v.4c.7,0,.8,0,.8,.6v3.4c0,.4,-.1,.5,-.8,.5v.3c.2,0,.8,0,1.1,0c.3,0,.8,0,1,0v-.3c-.7,0,-.7,-.1,-.7,-.5v-4.5Z" class="g7_44" />
<path d="M332.2,435.2h1.7v-.3h-1.7v-2.2H332c0,1.2,-.5,2.3,-1.5,2.3v.2h1.1v3.4c0,.3,0,1.6,1.4,1.6c.7,0,1.1,-.7,1.1,-1.6v-.7h-.2v.7c0,.8,-.3,1.4,-.8,1.4c-.4,0,-.9,-.3,-.9,-1.4Z" class="g7_44" />
<path d="M339.1,435.9c.3,-.7,.9,-.7,1,-.7v-.3h-.7c-.3,0,-.7,0,-.9,-.1v.4c.4,0,.5,.3,.5,.4c0,.2,-.1,.2,-.1,.4l-1.4,3.2l-1.4,-3.5c-.1,-.1,-.1,-.2,-.1,-.2c0,-.3,.3,-.3,.6,-.3v-.4c-.3,.1,-.8,.1,-1.1,.1c-.3,0,-.7,0,-1,-.1v.4q.7,0,.9,.4l1.8,4.5c-.5,1.4,-.9,2.2,-1.6,2.2c-.2,0,-.5,0,-.7,-.2c.3,0,.4,-.2,.4,-.4c0,-.2,-.1,-.4,-.4,-.4c-.2,0,-.4,.2,-.4,.4c0,.5,.5,.8,1.1,.8c.7,0,1.1,-.7,1.4,-1.3Z" class="g7_44" />
<path d="M244.1,452.8h17.1" class="g10_44" />
<path d="M275.3,448.8v.4c.8,0,.9,0,.9,.5v6.6c0,.5,-.1,.5,-.9,.5v.3h4.1c1.6,0,2.6,-1.1,2.6,-2.2c0,-1.1,-1,-2,-2.3,-2c1.2,-.3,2,-1,2,-2c0,-1,-1,-2.1,-2.6,-2.1Zm1.7,3.9v-3.1q0,-.4,.5,-.4h1.6c1.2,0,1.7,.9,1.7,1.7c0,.9,-.7,1.8,-2.1,1.8Zm.5,4.1c-.5,0,-.5,-.1,-.5,-.5v-3.4h2.2c1.3,0,1.9,1.1,1.9,2c0,.9,-.7,1.9,-2,1.9Z" class="g7_44" />
<path d="M287,454c0,-.8,0,-1.2,-.5,-1.7c-.5,-.4,-1,-.5,-1.4,-.5c-1,0,-1.7,.7,-1.7,1.6c0,.4,.4,.4,.5,.4c.1,0,.4,-.1,.4,-.4c0,-.3,-.2,-.4,-.4,-.4c-.1,0,-.2,0,-.2,0c.3,-.8,.9,-1,1.3,-1c.7,0,1.3,.5,1.3,1.5v.6c-.7,0,-1.6,.1,-2.2,.4c-.8,.5,-1,1.1,-1,1.5c0,1,1.1,1.2,1.7,1.2c.7,0,1.3,-.3,1.6,-1c0,.5,.3,1,.9,1c.2,0,.9,-.2,.9,-1.2v-.6H288v.7c0,.7,-.4,.8,-.5,.8c-.5,0,-.5,-.6,-.5,-1.2Zm-.7,1.5c0,1,-.7,1.6,-1.4,1.6c-.6,0,-1.1,-.5,-1.1,-1.1c0,-.3,.2,-1,.9,-1.4c.6,-.3,1.2,-.3,1.6,-.3Z" class="g7_44" />
<path d="M292.6,452.9c.3,-.7,.9,-.7,1,-.7v-.3h-.7c-.3,0,-.7,0,-.9,0v.3c.4,0,.4,.4,.4,.5q0,.1,-.1,.3l-1.3,3.3l-1.4,-3.6c-.1,-.1,-.1,-.2,-.1,-.2c0,-.3,.3,-.3,.6,-.3v-.3c-.3,0,-.8,0,-1.1,0c-.4,0,-.8,0,-1,0v.3c.6,0,.7,.1,.9,.5l1.8,4.4c-.6,1.4,-.9,2.3,-1.7,2.3c-.1,0,-.4,-.1,-.6,-.3c.3,0,.4,-.2,.4,-.4c0,-.2,-.2,-.4,-.4,-.4c-.3,0,-.4,.2,-.4,.4c0,.5,.5,.9,1,.9c.8,0,1.2,-.7,1.4,-1.3Z" class="g7_44" />
<path d="M298.1,454.3c0,0,0,-.1,0,-.2c0,-1.2,-.6,-2.3,-2,-2.3c-1.3,0,-2.3,1.2,-2.3,2.7c0,1.6,1.1,2.7,2.4,2.7c1.4,0,1.9,-1.2,1.9,-1.5c0,-.1,-.1,-.1,-.1,-.1c-.1,0,-.1,.1,-.1,.2c-.3,.8,-1,1.2,-1.6,1.2c-.5,0,-1,-.3,-1.4,-.8c-.4,-.6,-.4,-1.3,-.4,-1.9Zm-3.5,-.2c0,-1.7,1,-2.1,1.5,-2.1c.8,0,1.4,.8,1.4,2.1Z" class="g7_44" />
<path d="M302.1,452q0,-.2,0,-.2q-.1,0,-.2,.2c-.1,0,-.2,.1,-.2,.2c-.4,-.4,-1,-.4,-1.2,-.4c-1.3,0,-1.8,.7,-1.8,1.4c0,1.1,1.2,1.3,1.6,1.4c.8,.2,1,.2,1.3,.4c.1,.2,.4,.5,.4,.9c0,.5,-.3,1.2,-1.4,1.2c-1.1,0,-1.4,-.8,-1.7,-1.9q0,-.2,-.1,-.2q-.1,0,-.1,.3V457q0,.2,.1,.2l.1,-.1c.1,-.1,.3,-.4,.3,-.5c.3,.3,.7,.6,1.4,.6c1.2,0,1.8,-.6,1.8,-1.6c0,-.6,-.3,-.9,-.4,-1.1c-.4,-.3,-.8,-.4,-1.4,-.5c-.6,-.2,-1.5,-.3,-1.5,-1.1c0,-.3,.2,-1,1.4,-1c1.3,0,1.4,1.2,1.4,1.6c0,.1,.1,.1,.1,.1q.1,0,.1,-.2Z" class="g7_44" />
<path d="M304.6,449.7c0,-.3,-.2,-.5,-.4,-.5c-.3,0,-.6,.2,-.6,.5c0,.3,.3,.5,.6,.5c.2,0,.4,-.2,.4,-.5m-1.4,2.3v.3c.7,0,.8,.1,.8,.6v3.4q0,.5,-.8,.5v.3c.3,0,.8,0,1.1,0c.3,0,.8,0,1.1,0v-.3q-.8,0,-.8,-.5v-4.5Z" class="g7_44" />
<path d="M310.2,454c0,-.8,0,-1.2,-.5,-1.7c-.5,-.4,-1,-.5,-1.4,-.5c-1,0,-1.7,.7,-1.7,1.6c0,.4,.4,.4,.5,.4c.1,0,.4,-.1,.4,-.4c0,-.3,-.2,-.4,-.4,-.4q-.1,0,-.2,0c.3,-.8,.9,-1,1.4,-1c.6,0,1.2,.5,1.2,1.5v.6c-.7,0,-1.5,.1,-2.2,.4c-.8,.5,-1,1.1,-1,1.5c0,1,1.1,1.2,1.7,1.2c.7,0,1.3,-.3,1.6,-1c0,.5,.4,1,.9,1c.2,0,.9,-.2,.9,-1.2v-.6h-.2v.7c0,.7,-.4,.8,-.5,.8c-.5,0,-.5,-.6,-.5,-1.2Zm-.7,1.5c0,1,-.7,1.6,-1.4,1.6c-.6,0,-1.1,-.5,-1.1,-1.1c0,-.3,.2,-1,.9,-1.4c.6,-.3,1.3,-.3,1.6,-.3Z" class="g7_44" />
<path d="M316.4,453.4c0,-.6,-.1,-1.6,-1.5,-1.6c-1,0,-1.5,.8,-1.7,1.2v-1.2l-1.4,.1v.4c.7,0,.8,0,.8,.6v3.4q0,.5,-.8,.5v.3c.3,0,.8,0,1.1,0c.3,0,.9,0,1.2,0v-.3q-.8,0,-.8,-.5V454c0,-1.2,.6,-2,1.5,-2c.9,0,1,.8,1,1.4v2.9c0,.5,-.1,.5,-.8,.5v.3c.3,0,.8,0,1.1,0c.3,0,.9,0,1.2,0v-.3c-.8,0,-.9,0,-.9,-.5Z" class="g7_44" />
<path d="M328.8,449q0,-.3,0,-.3q-.1,0,-.2,.2l-.5,1c-.6,-.7,-1.3,-1.2,-2.3,-1.2c-2.1,0,-4,1.8,-4,4.3c0,2.6,1.9,4.4,4,4.4c1.9,0,3,-1.7,3,-3.1q0,-.1,-.1,-.1q-.1,0,-.1,.1c-.1,1.7,-1.3,2.8,-2.6,2.8c-1.2,0,-3.2,-.9,-3.2,-4.1c0,-3.1,2,-4,3.2,-4c1.3,0,2.3,1.2,2.6,2.9c0,.1,0,.2,.1,.2c.1,0,.1,-.1,.1,-.3Z" class="g7_44" />
<path d="M331.2,454.3c0,-1.2,.5,-2.3,1.4,-2.3c.1,0,.2,0,.3,.1c0,0,-.3,0,-.3,.4c0,.3,.3,.4,.5,.4c.1,0,.4,-.1,.4,-.5c0,-.3,-.4,-.6,-.8,-.6c-1,0,-1.4,.9,-1.5,1.3v-1.3l-1.4,.1v.4c.7,0,.8,0,.8,.6v3.4q0,.5,-.8,.5v.3c.3,0,.8,0,1.2,0c.3,0,.9,0,1.3,0v-.3c-.9,0,-1.1,0,-1.1,-.5Z" class="g7_44" />
<path d="M338.4,454.3c0,0,0,-.1,0,-.2c0,-1.2,-.6,-2.3,-2,-2.3c-1.3,0,-2.3,1.2,-2.3,2.7c0,1.6,1.1,2.7,2.4,2.7c1.4,0,1.9,-1.2,1.9,-1.5c0,-.1,-.1,-.1,-.1,-.1c-.1,0,-.1,.1,-.1,.2c-.3,.8,-1,1.2,-1.6,1.2c-.5,0,-1.1,-.3,-1.4,-.8c-.4,-.6,-.4,-1.3,-.4,-1.9Zm-3.6,-.2c.1,-1.7,1.1,-2.1,1.6,-2.1c.8,0,1.3,.8,1.4,2.1Z" class="g7_44" />
<path d="M342.2,448.9v.3c.7,0,.9,.1,.9,.7v2.8c-.1,-.1,-.6,-.9,-1.6,-.9c-1.2,0,-2.4,1.1,-2.4,2.7c0,1.6,1.1,2.7,2.3,2.7c1,0,1.6,-.7,1.6,-.8v.8h1.5v-.3c-.7,0,-.8,-.1,-.8,-.7v-7.4Zm.8,6.8c0,.4,-.2,.7,-.5,.9c-.4,.4,-.8,.5,-1,.5c-.4,0,-1.6,-.2,-1.6,-2.6c0,-2.3,1.4,-2.5,1.7,-2.5c.5,0,1,.3,1.3,.8c.1,.2,.1,.3,.1,.5Z" class="g7_44" />
<path d="M346.8,449.7c0,-.3,-.2,-.5,-.5,-.5c-.3,0,-.5,.2,-.5,.5c0,.3,.2,.5,.5,.5c.2,0,.5,-.2,.5,-.5m-1.4,2.3v.3c.6,0,.7,.1,.7,.6v3.4q0,.5,-.8,.5v.3c.3,0,.8,0,1.1,0c.3,0,.8,0,1.1,0v-.3q-.7,0,-.7,-.5v-4.5Z" class="g7_44" />
<path d="M349.8,448.8l-1.5,.1v.3c.7,0,.8,.1,.8,.7v7.2h.3l.3,-.8c.4,.6,.9,.9,1.6,.9c1.2,0,2.4,-1,2.4,-2.7c0,-1.5,-1.1,-2.7,-2.3,-2.7c-.7,0,-1.3,.4,-1.6,.9Zm0,4.5q0,-.2,.2,-.5c.4,-.7,1.1,-.8,1.3,-.8c.4,0,1.7,.2,1.7,2.5c0,2.4,-1.5,2.6,-1.8,2.6c-.3,0,-.9,-.2,-1.3,-.9c-.1,-.2,-.1,-.3,-.1,-.5Z" class="g7_44" />
<path d="M356,448.8l-1.4,.1v.3c.7,0,.8,.1,.8,.7v6.4c0,.5,-.1,.5,-.8,.5v.3c.3,0,.8,0,1.1,0c.3,0,.9,0,1.1,0v-.3c-.7,0,-.8,0,-.8,-.5Z" class="g7_44" />
<path d="M361.8,454.3c.1,0,.1,-.1,.1,-.2c0,-1.2,-.7,-2.3,-2.1,-2.3c-1.3,0,-2.3,1.2,-2.3,2.7c0,1.6,1.2,2.7,2.5,2.7c1.3,0,1.9,-1.2,1.9,-1.5c0,-.1,-.1,-.1,-.1,-.1c-.1,0,-.1,.1,-.2,.2c-.2,.8,-.9,1.2,-1.5,1.2c-.6,0,-1.1,-.3,-1.4,-.8c-.4,-.6,-.4,-1.3,-.4,-1.9Zm-3.5,-.2c.1,-1.7,1,-2.1,1.5,-2.1c.9,0,1.4,.8,1.4,2.1Z" class="g7_44" />
<path d="M368.2,449.7c0,-.6,.2,-.6,1,-.6v-.3h-2.8v.3c.9,0,1,0,1,.6v6.6c0,.5,-.1,.5,-1,.5v.3h2.8v-.3c-.8,0,-1,0,-1,-.5Z" class="g7_44" />
<path d="M374.9,453.4c0,-.6,-.2,-1.6,-1.6,-1.6c-1,0,-1.5,.8,-1.6,1.2h-.1v-1.2l-1.4,.1v.4c.7,0,.8,0,.8,.6v3.4q0,.5,-.8,.5v.3c.3,0,.8,0,1.2,0c.3,0,.8,0,1.1,0v-.3q-.8,0,-.8,-.5V454c0,-1.2,.7,-2,1.5,-2c.9,0,1,.8,1,1.4v2.9q0,.5,-.8,.5v.3c.3,0,.8,0,1.1,0c.3,0,.9,0,1.2,0v-.3q-.8,0,-.8,-.5Z" class="g7_44" />
<path d="M377.5,452.3h1.7v-.4h-1.7v-2.2h-.2c0,1.2,-.4,2.3,-1.5,2.3v.3h1.1v3.4c0,.2,0,1.5,1.4,1.5c.7,0,1.1,-.7,1.1,-1.6V455h-.2v.6c0,.9,-.3,1.4,-.8,1.4c-.4,0,-.9,-.2,-.9,-1.3Z" class="g7_44" />
<path d="M384.7,454.3c0,0,0,-.1,0,-.2c0,-1.2,-.6,-2.3,-2,-2.3c-1.3,0,-2.4,1.2,-2.4,2.7c0,1.6,1.2,2.7,2.5,2.7c1.4,0,1.9,-1.2,1.9,-1.5c0,-.1,-.1,-.1,-.1,-.1c-.1,0,-.1,.1,-.1,.2c-.3,.8,-1,1.2,-1.6,1.2c-.5,0,-1.1,-.3,-1.4,-.8c-.4,-.6,-.4,-1.3,-.4,-1.9Zm-3.6,-.2c.1,-1.7,1.1,-2.1,1.5,-2.1c.9,0,1.4,.8,1.5,2.1Z" class="g7_44" />
<path d="M386.8,454.3c0,-1.2,.5,-2.3,1.4,-2.3c.1,0,.2,0,.3,.1c0,0,-.3,0,-.3,.4c0,.3,.2,.4,.4,.4c.2,0,.4,-.1,.4,-.5c0,-.3,-.4,-.6,-.8,-.6c-.9,0,-1.3,.9,-1.4,1.3v-1.3l-1.5,.1v.4c.8,0,.9,0,.9,.6v3.4c0,.5,-.1,.5,-.9,.5v.3c.3,0,.9,0,1.2,0c.4,0,1,0,1.3,0v-.3c-.9,0,-1,0,-1,-.5Z" class="g7_44" />
<path d="M394,453c.2,-.3,.3,-.7,1.1,-.7v-.4h-.8c-.3,0,-.7,0,-.9,0v.3c.3,.1,.5,.2,.5,.5c0,.1,0,.2,-.1,.3l-1.4,3.4L391,452.8q-.1,-.2,-.1,-.3c0,-.2,.4,-.2,.6,-.2v-.4c-.3,0,-.8,0,-1.1,0c-.4,0,-.7,0,-1,0v.4c.5,0,.7,0,.9,.3L392,457q.1,.2,.2,.2q.1,0,.2,-.2Z" class="g7_44" />
<path d="M398.9,454c0,-.8,0,-1.2,-.5,-1.7c-.4,-.4,-1,-.5,-1.4,-.5c-.9,0,-1.6,.7,-1.6,1.6c0,.4,.3,.4,.4,.4c.2,0,.5,-.1,.5,-.4c0,-.3,-.3,-.4,-.5,-.4c0,0,-.1,0,-.1,0c.2,-.8,.9,-1,1.3,-1c.6,0,1.3,.5,1.3,1.5v.6c-.7,0,-1.6,.1,-2.3,.4c-.7,.5,-1,1.1,-1,1.5c0,1,1.1,1.2,1.8,1.2c.6,0,1.3,-.3,1.5,-1c.1,.5,.4,1,.9,1c.3,0,.9,-.2,.9,-1.2v-.6h-.2v.7c0,.7,-.3,.8,-.5,.8c-.5,0,-.5,-.6,-.5,-1.2Zm-.6,1.5c0,1,-.8,1.6,-1.4,1.6c-.6,0,-1.1,-.5,-1.1,-1.1c0,-.3,.1,-1,.8,-1.4c.6,-.3,1.3,-.3,1.7,-.3Z" class="g7_44" />
<path d="M402,448.8l-1.5,.1v.3c.8,0,.9,.1,.9,.7v6.4c0,.5,-.1,.5,-.9,.5v.3c.3,0,.9,0,1.2,0c.3,0,.8,0,1.1,0v-.3q-.8,0,-.8,-.5Z" class="g7_44" />
<path d="M244.1,469.9h17.1" class="g5_44" />
<path d="M282.2,466q0,-.2,-.1,-.2q-.1,0,-.2,.1l-.5,1c-.6,-.7,-1.3,-1.1,-2.2,-1.1c-2.1,0,-4,1.8,-4,4.3c0,2.5,1.9,4.3,4,4.3c1.8,0,3,-1.6,3,-3c0,-.1,0,-.2,-.1,-.2q-.1,0,-.1,.2c-.1,1.6,-1.4,2.7,-2.7,2.7c-1.2,0,-3.2,-.9,-3.2,-4c0,-3.2,2,-4,3.2,-4c1.4,0,2.4,1.1,2.6,2.8q0,.2,.1,.2q.2,0,.2,-.2Z" class="g7_44" />
<path d="M284.6,465.8l-1.4,.1v.3c.7,0,.8,.1,.8,.7v6.4c0,.5,-.1,.6,-.8,.6v.3c.3,0,.8,0,1.1,0c.3,0,.8,0,1.1,0v-.3c-.7,0,-.8,-.1,-.8,-.6Z" class="g7_44" />
<path d="M290.2,471c0,-.8,0,-1.2,-.5,-1.7c-.5,-.4,-1,-.5,-1.4,-.5c-1,0,-1.7,.8,-1.7,1.6c0,.5,.4,.5,.5,.5c.1,0,.4,-.1,.4,-.5c0,-.3,-.2,-.4,-.4,-.4c-.1,0,-.2,0,-.2,0c.3,-.8,.9,-1,1.3,-1c.7,0,1.3,.5,1.3,1.6v.5c-.7,0,-1.6,.1,-2.2,.5c-.8,.4,-1,1,-1,1.5c0,.9,1.1,1.2,1.7,1.2c.7,0,1.3,-.4,1.6,-1.1c0,.5,.3,1,.9,1c.2,0,.9,-.2,.9,-1.1v-.7h-.2v.7c0,.7,-.4,.8,-.5,.8c-.5,0,-.5,-.6,-.5,-1.1Zm-.7,1.5c0,1.1,-.7,1.6,-1.4,1.6c-.6,0,-1.1,-.5,-1.1,-1c0,-.4,.2,-1,.9,-1.4c.6,-.4,1.2,-.4,1.6,-.4Z" class="g7_44" />
<path d="M295.1,469q0,-.2,-.1,-.2l-.2,.2c0,0,-.1,.2,-.1,.2c-.4,-.4,-1,-.4,-1.2,-.4c-1.3,0,-1.8,.7,-1.8,1.4c0,1.1,1.2,1.4,1.6,1.4c.7,.2,1,.3,1.3,.5c.1,.1,.4,.4,.4,.8c0,.5,-.3,1.2,-1.4,1.2c-1.1,0,-1.5,-.8,-1.7,-1.9c0,-.1,0,-.2,-.1,-.2c-.1,0,-.1,.1,-.1,.3v1.8q0,.2,.1,.2l.1,-.1c.1,-.1,.3,-.4,.3,-.6c.3,.4,.7,.7,1.4,.7c1.2,0,1.8,-.7,1.8,-1.6c0,-.7,-.3,-1,-.5,-1.1c-.3,-.4,-.8,-.5,-1.3,-.6c-.6,-.1,-1.5,-.3,-1.5,-1.1c0,-.3,.2,-.9,1.4,-.9c1.3,0,1.4,1.2,1.4,1.6c0,0,.1,0,.1,0q.1,0,.1,-.2Z" class="g7_44" />
<path d="M299.5,469q0,-.2,-.1,-.2l-.2,.2c0,0,-.1,.2,-.2,.2c-.4,-.4,-.9,-.4,-1.1,-.4c-1.4,0,-1.8,.7,-1.8,1.4c0,1.1,1.2,1.4,1.5,1.4c.8,.2,1.1,.3,1.3,.5c.2,.1,.5,.4,.5,.8c0,.5,-.3,1.2,-1.4,1.2c-1.1,0,-1.5,-.8,-1.7,-1.9c0,-.1,0,-.2,-.1,-.2c-.1,0,-.1,.1,-.1,.3v1.8q0,.2,0,.2q.1,0,.2,-.1c0,-.1,.2,-.4,.3,-.6c.2,.4,.7,.7,1.4,.7c1.2,0,1.8,-.7,1.8,-1.6c0,-.7,-.3,-1,-.5,-1.1c-.4,-.4,-.8,-.5,-1.3,-.6c-.7,-.1,-1.5,-.3,-1.5,-1.1c0,-.3,.2,-.9,1.4,-.9c1.3,0,1.4,1.2,1.4,1.6c0,0,.1,0,.1,0q.1,0,.1,-.2Z" class="g7_44" />
<path d="M302,466.7c0,-.2,-.2,-.5,-.5,-.5c-.3,0,-.5,.2,-.5,.5c0,.3,.2,.5,.5,.5c.3,0,.5,-.2,.5,-.5m-1.4,2.3v.3c.7,0,.8,.1,.8,.7v3.3c0,.5,-.1,.6,-.9,.6v.3c.3,0,.9,0,1.2,0c.3,0,.7,0,1,0v-.3c-.7,0,-.7,-.1,-.7,-.5v-4.5Z" class="g7_44" />
<path d="M307.4,469.9c-.2,0,-.6,0,-.6,.4c0,.4,.3,.5,.5,.5c.1,0,.4,-.1,.4,-.5c0,-.8,-.8,-1.5,-1.7,-1.5c-1.3,0,-2.4,1.2,-2.4,2.8c0,1.6,1.1,2.7,2.4,2.7c1.5,0,1.8,-1.4,1.8,-1.6h-.1c0,0,-.1,0,-.1,.1c-.3,1,-1,1.3,-1.5,1.3c-.8,0,-1.8,-.8,-1.8,-2.5c0,-1.9,.9,-2.6,1.7,-2.6c.4,0,1.1,.3,1.4,.9Z" class="g7_44" />
<path d="M312.5,471c0,-.8,0,-1.2,-.5,-1.7c-.5,-.4,-1,-.5,-1.4,-.5c-1,0,-1.7,.8,-1.7,1.6c0,.5,.4,.5,.5,.5c.1,0,.4,-.1,.4,-.5c0,-.3,-.2,-.4,-.4,-.4q-.1,0,-.2,0c.3,-.8,.9,-1,1.4,-1c.6,0,1.3,.5,1.3,1.6v.5c-.8,0,-1.6,.1,-2.3,.5c-.8,.4,-1,1,-1,1.5c0,.9,1.1,1.2,1.7,1.2c.7,0,1.3,-.4,1.6,-1.1c0,.5,.4,1,.9,1c.3,0,.9,-.2,.9,-1.1v-.7h-.2v.7c0,.7,-.3,.8,-.5,.8c-.5,0,-.5,-.6,-.5,-1.1Zm-.6,1.5c0,1.1,-.8,1.6,-1.5,1.6c-.6,0,-1.1,-.5,-1.1,-1c0,-.4,.2,-1,.9,-1.4c.6,-.4,1.3,-.4,1.7,-.4Z" class="g7_44" />
<path d="M315.6,465.8l-1.5,.1v.3c.7,0,.8,.1,.8,.7v6.4c0,.5,0,.6,-.8,.6v.3c.3,0,.8,0,1.1,0c.4,0,.9,0,1.2,0v-.3c-.8,0,-.8,-.1,-.8,-.6Z" class="g7_44" />
<path d="M328,466q0,-.2,-.1,-.2q-.1,0,-.2,.1l-.5,1c-.6,-.7,-1.3,-1.1,-2.3,-1.1c-2,0,-3.9,1.8,-3.9,4.3c0,2.5,1.9,4.3,4,4.3c1.8,0,3,-1.6,3,-3c0,-.1,0,-.2,-.1,-.2q-.1,0,-.1,.2c-.1,1.6,-1.4,2.7,-2.7,2.7c-1.2,0,-3.2,-.9,-3.2,-4c0,-3.2,2,-4,3.2,-4c1.4,0,2.4,1.1,2.6,2.8q0,.2,.1,.2q.2,0,.2,-.2Z" class="g7_44" />
<path d="M333.8,471.6c0,-1.6,-1.1,-2.8,-2.5,-2.8c-1.3,0,-2.4,1.2,-2.4,2.8c0,1.5,1.1,2.7,2.4,2.7c1.4,0,2.5,-1.2,2.5,-2.7m-2.5,2.5c-.5,0,-1,-.4,-1.3,-.9c-.3,-.5,-.4,-1.2,-.4,-1.7c0,-.5,.1,-1.2,.4,-1.7c.2,-.4,.7,-.8,1.3,-.8c.6,0,1,.3,1.3,.7c.4,.6,.4,1.4,.4,1.8c0,.5,0,1.2,-.3,1.8c-.4,.5,-.9,.8,-1.4,.8Z" class="g7_44" />
<path d="M339.2,470.5c0,-.6,-.1,-1.7,-1.6,-1.7c-.9,0,-1.4,.8,-1.6,1.3v-1.3l-1.5,.2v.3c.7,0,.9,.1,.9,.7v3.3c0,.5,-.1,.6,-.9,.6v.3c.3,0,.9,0,1.2,0c.3,0,.8,0,1.1,0v-.3c-.8,0,-.8,-.1,-.8,-.6V471c0,-1.1,.7,-2,1.5,-2c.9,0,1,.8,1,1.4v2.9c0,.5,0,.6,-.8,.6v.3c.3,0,.8,0,1.1,0c.4,0,.9,0,1.2,0v-.3c-.8,0,-.8,-.1,-.8,-.6Z" class="g7_44" />
<path d="M345.2,468.9c-.3,0,-1.2,0,-1.4,0q-.1,.1,-.3,.1h-1.4v-1.4c0,-1.2,1,-1.7,1.7,-1.7c.2,0,.8,0,1,.5c-.1,0,-.5,0,-.5,.4c0,.3,.2,.4,.5,.4c.2,0,.4,-.1,.4,-.4c0,-.6,-.6,-1.1,-1.3,-1.1c-1,0,-2.3,.5,-2.3,1.9V469h-1v.3h1v4c0,.5,-.1,.6,-.9,.6v.3c.3,0,.9,0,1.2,0c.3,0,.8,0,1.1,0v-.3c-.8,0,-.8,-.1,-.8,-.6v-4H344c.5,0,.6,.1,.6,.6v3.4c0,.5,-.1,.6,-.8,.6v.3c.2,0,.8,0,1.1,0c.3,0,.8,0,1.1,0v-.3c-.7,0,-.8,-.1,-.8,-.6Z" class="g7_44" />
<path d="M350,465.9v.3c.7,0,.8,.1,.8,.7v2.8c0,-.1,-.5,-.9,-1.5,-.9c-1.3,0,-2.5,1.2,-2.5,2.8c0,1.6,1.2,2.7,2.4,2.7c1,0,1.5,-.8,1.6,-.9v.9h1.5v-.4c-.8,0,-.9,-.1,-.9,-.6v-7.5Zm.8,6.8c0,.4,-.2,.7,-.5,1c-.4,.3,-.8,.4,-1.1,.4c-.3,0,-1.6,-.2,-1.6,-2.5c0,-2.4,1.4,-2.6,1.7,-2.6c.6,0,1,.4,1.3,.8q.2,.3,.2,.5Z" class="g7_44" />
<path d="M357.3,471.4q0,-.1,0,-.2c0,-1.3,-.6,-2.4,-2,-2.4c-1.3,0,-2.3,1.2,-2.3,2.7c0,1.6,1.1,2.8,2.4,2.8c1.4,0,1.9,-1.3,1.9,-1.5c0,-.1,-.1,-.1,-.1,-.1q-.1,0,-.1,.1c-.3,.9,-1,1.3,-1.6,1.3c-.5,0,-1,-.3,-1.4,-.9c-.3,-.6,-.3,-1.3,-.3,-1.8Zm-3.5,-.2c.1,-1.8,1,-2.2,1.5,-2.2c.8,0,1.4,.8,1.4,2.2Z" class="g7_44" />
<path d="M362.6,470.5c0,-.6,-.1,-1.7,-1.5,-1.7c-1,0,-1.5,.8,-1.7,1.3v-1.3L358,469v.3c.7,0,.8,.1,.8,.7v3.3c0,.5,0,.6,-.8,.6v.3c.3,0,.8,0,1.1,0c.4,0,.9,0,1.2,0v-.3c-.8,0,-.8,-.1,-.8,-.6V471c0,-1.1,.7,-2,1.5,-2c.9,0,1,.8,1,1.4v2.9c0,.5,0,.6,-.8,.6v.3c.3,0,.8,0,1.1,0c.3,0,.9,0,1.2,0v-.3c-.8,0,-.9,-.1,-.9,-.6Z" class="g7_44" />
<path d="M368.1,469.9c-.3,0,-.6,0,-.6,.4c0,.4,.3,.5,.4,.5c.1,0,.5,-.1,.5,-.5c0,-.8,-.9,-1.5,-1.8,-1.5c-1.3,0,-2.4,1.2,-2.4,2.8c0,1.6,1.2,2.7,2.4,2.7c1.5,0,1.9,-1.4,1.9,-1.6h-.1q-.1,0,-.2,.1c-.3,1,-1,1.3,-1.5,1.3c-.8,0,-1.7,-.8,-1.7,-2.5c0,-1.9,.9,-2.6,1.6,-2.6c.5,0,1.2,.3,1.5,.9Z" class="g7_44" />
<path d="M373.4,471.4q.1,-.1,.1,-.2c0,-1.3,-.7,-2.4,-2.1,-2.4c-1.3,0,-2.3,1.2,-2.3,2.7c0,1.6,1.2,2.8,2.4,2.8c1.4,0,1.9,-1.3,1.9,-1.5q0,-.1,-.1,-.1c0,0,-.1,0,-.1,.1c-.3,.9,-.9,1.3,-1.6,1.3c-.5,0,-1,-.3,-1.3,-.9c-.4,-.6,-.4,-1.3,-.4,-1.8Zm-3.5,-.2c.1,-1.8,1,-2.2,1.5,-2.2c.8,0,1.4,.8,1.4,2.2Z" class="g7_44" />
<path d="M379.8,466.7c0,-.5,.1,-.5,1,-.5v-.3H378v.3c.8,0,1,0,1,.5v6.6c0,.6,-.2,.6,-1,.6v.3h2.8v-.3c-.9,0,-1,0,-1,-.6Z" class="g7_44" />
<path d="M386.4,470.5c0,-.6,-.1,-1.7,-1.5,-1.7c-1,0,-1.5,.8,-1.7,1.3v-1.3l-1.4,.2v.3c.7,0,.8,.1,.8,.7v3.3c0,.5,0,.6,-.8,.6v.3c.3,0,.8,0,1.1,0c.3,0,.9,0,1.2,0v-.3c-.8,0,-.8,-.1,-.8,-.6V471c0,-1.1,.6,-2,1.5,-2c.9,0,1,.8,1,1.4v2.9c0,.5,-.1,.6,-.8,.6v.3c.2,0,.8,0,1.1,0c.3,0,.9,0,1.2,0v-.3c-.8,0,-.9,-.1,-.9,-.6Z" class="g7_44" />
<path d="M389.1,469.3h1.7V469h-1.7v-2.3h-.2c0,1.3,-.5,2.4,-1.5,2.4v.2h1.1v3.4c0,.2,0,1.6,1.4,1.6c.7,0,1.1,-.7,1.1,-1.6V472h-.2v.7c0,.8,-.3,1.4,-.8,1.4c-.4,0,-.9,-.3,-.9,-1.4Z" class="g7_44" />
<path d="M396.2,471.4q.1,-.1,.1,-.2c0,-1.3,-.7,-2.4,-2.1,-2.4c-1.3,0,-2.3,1.2,-2.3,2.7c0,1.6,1.2,2.8,2.5,2.8c1.3,0,1.9,-1.3,1.9,-1.5c0,-.1,-.1,-.1,-.1,-.1q-.1,0,-.2,.1c-.2,.9,-.9,1.3,-1.5,1.3c-.6,0,-1.1,-.3,-1.4,-.9c-.4,-.6,-.4,-1.3,-.4,-1.8Zm-3.5,-.2c.1,-1.8,1,-2.2,1.5,-2.2c.8,0,1.4,.8,1.4,2.2Z" class="g7_44" />
<path d="M398.4,471.3c0,-1.2,.5,-2.3,1.4,-2.3c.1,0,.1,.1,.2,.1c0,0,-.2,.1,-.2,.4c0,.3,.2,.4,.4,.4c.1,0,.4,-.1,.4,-.4c0,-.4,-.4,-.7,-.8,-.7c-.9,0,-1.3,1,-1.5,1.4v-1.4l-1.4,.2v.3c.7,0,.8,.1,.8,.7v3.3c0,.5,0,.6,-.8,.6v.3c.3,0,.9,0,1.2,0c.3,0,1,0,1.3,0v-.3c-.9,0,-1,0,-1,-.6Z" class="g7_44" />
<path d="M405.6,470c.1,-.2,.3,-.7,1,-.7V469h-.7c-.3,0,-.7,0,-.9,0v.3c.3,0,.4,.1,.4,.5q0,.1,0,.3l-1.4,3.3l-1.4,-3.6c-.1,-.1,-.1,-.2,-.1,-.2c0,-.3,.4,-.3,.6,-.3V469c-.3,0,-.8,0,-1.2,0c-.3,0,-.7,0,-.9,0v.3c.4,0,.7,0,.8,.4l1.8,4.4q.1,.2,.2,.2q.1,0,.2,-.2Z" class="g7_44" />
<path d="M410.5,471c0,-.8,0,-1.2,-.5,-1.7c-.5,-.4,-1,-.5,-1.4,-.5c-1,0,-1.7,.8,-1.7,1.6c0,.5,.4,.5,.5,.5c.1,0,.4,-.1,.4,-.5c0,-.3,-.2,-.4,-.4,-.4q-.1,0,-.2,0c.3,-.8,1,-1,1.4,-1c.6,0,1.3,.5,1.3,1.6v.5c-.8,0,-1.6,.1,-2.3,.5c-.8,.4,-1,1,-1,1.5c0,.9,1.1,1.2,1.7,1.2c.7,0,1.3,-.4,1.6,-1.1c0,.5,.4,1,.9,1c.3,0,.9,-.2,.9,-1.1v-.7h-.2v.7c0,.7,-.3,.8,-.5,.8c-.5,0,-.5,-.6,-.5,-1.1Zm-.6,1.5c0,1.1,-.8,1.6,-1.5,1.6c-.6,0,-1.1,-.5,-1.1,-1c0,-.4,.2,-1,.9,-1.4c.6,-.4,1.3,-.4,1.7,-.4Z" class="g7_44" />
<path d="M413.6,465.8l-1.5,.1v.3c.7,0,.8,.1,.8,.7v6.4c0,.5,0,.6,-.8,.6v.3c.3,0,.8,0,1.1,0c.4,0,.9,0,1.2,0v-.3c-.8,0,-.8,-.1,-.8,-.6Z" class="g7_44" />
<path d="M529.7,711.7h-1.1v8.2h5.1V719h-4Zm12.6,4.2c0,-2.6,-1.5,-4.3,-3.9,-4.3c-2.3,0,-3.9,1.7,-3.9,4.3c0,2.5,1.6,4.2,3.9,4.2c2.4,0,3.9,-1.8,3.9,-4.2Zm-3.9,-3.4c1.7,0,2.9,1.4,2.9,3.4c0,2,-1.2,3.3,-2.9,3.3c-1.7,0,-2.9,-1.3,-2.9,-3.3c0,-2,1.2,-3.4,2.9,-3.4Zm5.8,3.3c0,-2,1.2,-3.3,2.9,-3.3c1.2,0,2.1,.7,2.4,1.7h1c-.3,-1.6,-1.5,-2.6,-3.4,-2.6c-3.1,0,-3.9,2.7,-3.9,4.3c0,2.5,1.5,4.2,3.7,4.2c1.1,0,2,-.4,2.8,-1.3l.3,1.1h.6v-4.3h-3.4v.9h2.5v.2c0,1.5,-1.1,2.5,-2.5,2.5c-2.4,0,-3,-2.1,-3,-3.4Zm9.3,-4.1h-1.1v8.2h1.1Zm1.3,4.2c0,1.7,.8,4.2,3.7,4.2c2,0,3.1,-1,3.4,-3.2h-1.1c-.3,1.5,-.9,2.3,-2.3,2.3c-1.6,0,-2.6,-1.3,-2.6,-3.3c0,-2.1,1,-3.4,2.5,-3.4c1.4,0,2,.6,2.2,1.8h1.1c-.3,-1.8,-1.4,-2.7,-3.1,-2.7c-3,0,-3.8,2.6,-3.8,4.3Zm12.8,1.5l.8,2.5h1.2l-2.9,-8.2h-1.3l-2.9,8.2h1.1l.8,-2.5Zm-.3,-.8h-2.6l1.3,-3.7Zm4.4,-4.9h-1.1v8.2h5.1V719h-4Zm6.2,0h-1v8.2H582V719h-4.1Zm8.7,5l3.1,-5h-1.3l-2.3,4l-2.4,-4h-1.2l3.1,5v3.2h1Zm8.2,-5h-1.1v8.2h1.1Zm6.2,8.2l2.3,-6.8v6.8h1v-8.2h-1.5l-2.3,7.1l-2.4,-7.1h-1.5v8.2h1v-6.8l2.3,6.8Zm10.9,-5.8c0,-1.5,-.9,-2.4,-2.5,-2.4h-3.3v8.2h1v-3.5h2.6c1.3,0,2.2,-.9,2.2,-2.3Zm-4.8,1.4v-2.8h2.2c1,0,1.5,.5,1.5,1.4c0,.9,-.5,1.4,-1.5,1.4Zm13.7,.4c0,-2.6,-1.6,-4.3,-3.9,-4.3c-2.4,0,-4,1.7,-4,4.3c0,2.5,1.6,4.2,4,4.2c2.4,0,3.9,-1.8,3.9,-4.2Zm-3.9,-3.4c1.7,0,2.9,1.4,2.9,3.4c0,2,-1.2,3.3,-2.9,3.3c-1.8,0,-2.9,-1.3,-2.9,-3.3c0,-2,1.1,-3.4,2.9,-3.4Zm8.1,6.7c-1.8,0,-2.3,-1,-2.3,-1.9h-.9c0,2.3,1.8,2.8,3.2,2.8c2.5,0,3.2,-1.5,3.2,-2.5c0,-1,-.7,-1.7,-1.8,-2l-2,-.5c-1,-.3,-1.4,-.6,-1.4,-1.3c0,-.8,.8,-1.3,1.9,-1.3c1.3,0,2,.6,2,1.6h1c0,-1.6,-1.1,-2.5,-3,-2.5c-1.8,0,-2.9,.9,-2.9,2.4c0,1,.5,1.6,1.6,1.9l2,.5c1,.3,1.5,.7,1.5,1.3c0,.6,-.3,1.5,-2.1,1.5Zm7.5,0c-1.9,0,-2.3,-1,-2.3,-1.9h-1c0,2.3,1.8,2.8,3.2,2.8c2.6,0,3.2,-1.5,3.2,-2.5c0,-1,-.6,-1.7,-1.7,-2l-2.1,-.5c-1,-.3,-1.3,-.6,-1.3,-1.3c0,-.8,.7,-1.3,1.8,-1.3c1.3,0,2,.6,2,1.6h1c0,-1.6,-1.1,-2.5,-2.9,-2.5c-1.8,0,-3,.9,-3,2.4c0,1,.6,1.6,1.6,1.9l2.1,.5c1,.3,1.5,.7,1.5,1.3c0,.6,-.4,1.5,-2.1,1.5Zm5.8,-7.5h-1.1v8.2h1.1Zm7.9,5.9c0,-1,-.5,-1.6,-1.5,-2c.7,-.4,1.1,-1,1.1,-1.8c0,-.8,-.5,-2.1,-2.4,-2.1h-3.3v8.2h3.7c1.4,0,2.4,-1,2.4,-2.3ZM644.8,714c0,.9,-.7,1.2,-1.6,1.2h-2v-2.5h2c.8,0,1.6,.2,1.6,1.3Zm-1.1,5h-2.5v-2.8h2.5c.9,0,1.4,.5,1.4,1.4c0,.5,-.2,1.4,-1.4,1.4Zm4.9,-7.3h-1.1v8.2h5.1V719h-4Zm6.2,4.5h4.5v-.9h-4.5v-2.6h4.6v-1h-5.6v8.2h5.8V719h-4.8Z" class="g7_44" />
<path d="M498.9,725.2H693" class="g11_44" />
<path fill-rule="evenodd" d="M503.8,725.2l2.4,-2.4l-8.5,2.4l8.5,2.5Z" class="g12_44" />
<path fill-rule="evenodd" d="M688.1,725.2l-2.5,2.5l8.6,-2.5l-8.6,-2.4Z" class="g12_44" />
</svg>