<?xml version="1.0" encoding="UTF-8" standalone="no"?>
<!DOCTYPE svg PUBLIC "-//W3C//DTD SVG 1.1//EN"
"http://www.w3.org/Graphics/SVG/1.1/DTD/svg11.dtd">
<svg viewBox="0 0 909 1286" version="1.1" xmlns="http://www.w3.org/2000/svg" xmlns:xlink="http://www.w3.org/1999/xlink">
<defs>
<style type="text/css"><![CDATA[
.g0_30{
fill: #FFFFFF;
}
.g1_30{
fill: none;
stroke: #0000FF;
stroke-width: 1.3750001;
stroke-linecap: square;
stroke-linejoin: round;
}
.g2_30{
fill: none;
stroke: #FF0000;
stroke-width: 1.3750001;
stroke-linecap: butt;
stroke-linejoin: round;
stroke-dasharray: 5,5;
}
.g3_30{
fill: none;
stroke: #008000;
stroke-width: 2.0625;
stroke-linecap: butt;
stroke-linejoin: round;
stroke-dasharray: 1,3;
}
.g4_30{
stroke: #000000;
stroke-width: 0.34375003;
stroke-linecap: butt;
stroke-linejoin: round;
}
.g5_30{
fill: none;
stroke: #000000;
stroke-width: 0.68750006;
stroke-linecap: butt;
stroke-linejoin: round;
}
.g6_30{
fill: #FFFFFF;
stroke: #000000;
stroke-width: 0.68750006;
stroke-linecap: butt;
stroke-linejoin: round;
}
.g7_30{
fill: none;
stroke: #000000;
stroke-width: 0.6661112;
stroke-linecap: butt;
stroke-linejoin: miter;
}
.g8_30{
fill: none;
stroke: #000000;
stroke-width: 0.5484723;
stroke-linecap: butt;
stroke-linejoin: miter;
}
]]></style>
</defs>
<path d="M278.4,476.3H635.6v-278H278.4Z" class="g0_30" />
<path d="M318.4,445.7H625.3V208.1H318.4Z" class="g0_30" />
<path d="M318.4,443.8l16.8,-.5l13.5,-.5l11,-.6l9.3,-.6l7.9,-.7l6.8,-.8l6,-.8l5.2,-.8l4.6,-.9l4.2,-1l3.7,-1l3.4,-1.1l3.1,-1.2l2.9,-1.2l2.6,-1.3l2.5,-1.4l2.3,-1.5l2.2,-1.5l2,-1.7l2,-1.7l1.8,-1.9L434,419l1.7,-2.2l1.7,-2.3l1.6,-2.6l1.5,-2.7l1.5,-3.1l1.5,-3.2l1.5,-3.7l1.4,-4l1.5,-4.4l1.4,-4.8l1.4,-5.4l1.4,-6l1.4,-6.7l1.4,-7.4l1.5,-8.6l1.5,-9.8l1.7,-11.7l1.9,-15l4.9,-37.5l1.2,-7.5l.9,-5l.8,-3.6l.7,-2.3l.5,-1.4l.5,-.9l.4,-.4l.4,-.2l.3,.1l.3,.2l.4,.4l.4,.8l.5,1.2l.5,1.8l.7,2.8l.8,4l.9,5.5l1.2,8l1.6,12.1l5.3,40.9l1.7,11.7l1.6,9.8l1.5,8.5l1.5,7.4l1.5,6.5l1.5,5.9l1.4,5.2l1.5,4.7l1.5,4.2l1.4,3.7l1.6,3.5l1.5,3.1l1.6,2.9l1.7,2.7l1.6,2.4l1.7,2.2l1.8,2.1l1.9,1.9l1.9,1.8l2.1,1.6l2.1,1.6l2.3,1.5l2.4,1.3l2.5,1.3l2.8,1.2l3,1.2l3.3,1l3.5,1l4,1l4.3,.9l4.9,.9l5.4,.7l6.2,.8l7.1,.7l8.1,.6l9.6,.6L600,443l13.5,.5l11.8,.3" class="g1_30" />
<path d="M318.4,445.5l26.6,-.2l16.4,-.3l11.4,-.3l8.7,-.4l6.9,-.5l5.6,-.5l4.7,-.6l4.1,-.6l3.6,-.8l3.1,-.8l2.8,-.8l2.6,-1l2.3,-1l2.2,-1.1l2.1,-1.2l1.9,-1.4l1.7,-1.4l1.8,-1.5l1.6,-1.7l1.6,-1.9l1.5,-2l1.6,-2.3l1.5,-2.4l1.4,-2.8l1.4,-3l1.5,-3.3l1.4,-3.8l1.4,-4.2l1.4,-4.7l1.4,-5.2L446,388l1.4,-6.5l1.5,-7.4l1.5,-8.3l1.5,-9.4l1.7,-11.2L455.3,332l2.1,-16.1l3,-25.8l2.9,-23.4l1.6,-11.9l1.2,-8.6l1.1,-6l.9,-4.4l.8,-3.2l.7,-2.1l.6,-1.4l.5,-1l.5,-.4l.4,-.3h.4l.3,.1l.4,.3l.4,.6l.5,.9l.6,1.4l.6,1.9l.7,2.9l.8,3.8l1,5l1.1,7.1l1.2,9.2l1.7,13l2.8,23.3l3.2,27l2,15.5l1.8,12.5l1.7,10.6l1.6,9.3l1.5,8l1.5,6.9l1.5,6.2l1.4,5.5l1.5,4.9l1.5,4.4l1.5,4l1.4,3.4l1.5,3.1l1.5,2.8l1.5,2.5l1.5,2.3l1.6,2l1.7,1.9l1.7,1.7l1.7,1.5l1.9,1.5l1.9,1.2l2,1.2l2.2,1.1l2.3,1l2.6,.9l2.8,.9l3.2,.7l3.5,.7l3.9,.7l4.5,.5l5.3,.5l6.3,.5l7.8,.3l9.7,.4l12.9,.2l18.2,.2l15.4,.1" class="g2_30" />
<path d="M318.4,445.7l87.4,-.1l5.7,-.1l3.6,-.3l2.7,-.3l2.2,-.5l2,-.5l1.6,-.6l1.5,-.7l1.5,-.8l1.2,-1l1.3,-1l1.2,-1.3l1.2,-1.4l1.1,-1.7l1.2,-1.9l1.2,-2.3l1.1,-2.6l1.2,-3l1.2,-3.4l1.2,-4l1.2,-4.6l1.3,-5.5l1.3,-6.1l1.3,-7.2l1.5,-8.4l1.4,-9.6l1.6,-11.5L451,351.8l2,-16.6l2.6,-23.3l5.3,-48l1.7,-14.6l1.5,-10.8l1.2,-8l1.2,-6.2l.9,-4.6l.9,-3.4l.7,-2.4l.7,-1.6l.6,-1.2l.6,-.7l.4,-.3l.4,-.2h.4l.4,.2l.4,.4l.5,.6l.5,1l.7,1.5l.6,2.1l.8,2.7l.8,3.8l.9,4.8l1.1,6.2l1.2,8.3l1.4,10.7l1.7,13.8l2.2,19.8l6.3,57.3l2,16.1l1.8,13.3l1.6,10.8l1.5,9.4l1.4,7.7l1.4,6.6l1.3,5.8l1.3,4.9l1.3,4.3l1.2,3.6l1.2,3.2l1.3,2.7l1.2,2.3l1.2,2l1.2,1.7l1.3,1.4l1.2,1.2l1.3,1.1l1.3,.9l1.5,.8l1.5,.6l1.7,.6l1.9,.5l2.2,.3l2.7,.3l3.3,.3l4.8,.1l8.1,.1h80" class="g3_30" />
<path d="M318.4,445.7v-2.8" class="g4_30" />
<path d="M318.4,208.1v2.7" class="g4_30" />
<path d="M395.1,445.7v-2.8" class="g4_30" />
<path d="M395.1,208.1v2.7" class="g4_30" />
<path d="M471.9,445.7v-2.8" class="g4_30" />
<path d="M471.9,208.1v2.7" class="g4_30" />
<path d="M548.6,445.7v-2.8" class="g4_30" />
<path d="M548.6,208.1v2.7" class="g4_30" />
<path d="M625.3,445.7v-2.8" class="g4_30" />
<path d="M625.3,208.1v2.7" class="g4_30" />
<path d="M318.4,445.7h2.8" class="g4_30" />
<path d="M625.3,445.7h-2.7" class="g4_30" />
<path d="M318.4,416h2.8" class="g4_30" />
<path d="M625.3,416h-2.7" class="g4_30" />
<path d="M318.4,386.3h2.8" class="g4_30" />
<path d="M625.3,386.3h-2.7" class="g4_30" />
<path d="M318.4,356.6h2.8" class="g4_30" />
<path d="M625.3,356.6h-2.7" class="g4_30" />
<path d="M318.4,326.9h2.8" class="g4_30" />
<path d="M625.3,326.9h-2.7" class="g4_30" />
<path d="M318.4,297.2h2.8" class="g4_30" />
<path d="M625.3,297.2h-2.7" class="g4_30" />
<path d="M318.4,267.5h2.8" class="g4_30" />
<path d="M625.3,267.5h-2.7" class="g4_30" />
<path d="M318.4,237.8h2.8" class="g4_30" />
<path d="M625.3,237.8h-2.7" class="g4_30" />
<path d="M318.4,208.1h2.8" class="g4_30" />
<path d="M625.3,208.1h-2.7" class="g4_30" />
<path d="M318.4,208.1H625.3m0,237.6V208.1M318.4,445.7H625.3m-306.9,0V208.1" class="g5_30" />
<path d="M535.2,273.9h83.5V214.7H535.2v59.2Z" class="g6_30" />
<path d="M544.4,224.6h18.5" class="g1_30" />
<path d="M544.4,243h18.5" class="g2_30" />
<path d="M544.4,261.4h18.5" class="g3_30" />
<path d="M406.7,986.4h23.7m-61.1,12.4h85.4m-62.8,12.3h7.2m36.2,-8.2h19.4m44,-4.1H508m3.6,0h60.1" class="g7_30" />
<path d="M594.2,979.5h20.5" class="g8_30" />
</svg>