<?xml version="1.0" encoding="UTF-8" standalone="no"?>
<!DOCTYPE svg PUBLIC "-//W3C//DTD SVG 1.1//EN"
"http://www.w3.org/Graphics/SVG/1.1/DTD/svg11.dtd">
<svg viewBox="0 0 909 1286" version="1.1" xmlns="http://www.w3.org/2000/svg" xmlns:xlink="http://www.w3.org/1999/xlink">
<defs>
<clipPath id="c0_50"><path d="M269.9,448.4V131.6H679.1V448.4Z" /></clipPath>
<style type="text/css"><![CDATA[
.g0_50{
fill: #FFFFFF;
}
.g1_50{
fill: none;
stroke: #0000FF;
stroke-width: 1.8333334;
stroke-linecap: square;
stroke-linejoin: round;
}
.g2_50{
fill: #0000FF;
stroke: #000000;
stroke-width: 0.45833334;
stroke-linecap: butt;
stroke-linejoin: round;
}
.g3_50{
fill: none;
stroke: #FF0000;
stroke-width: 1.8333334;
stroke-linecap: square;
stroke-linejoin: round;
}
.g4_50{
fill: #FF0000;
stroke: #000000;
stroke-width: 0.45833334;
stroke-linecap: butt;
stroke-linejoin: round;
}
.g5_50{
fill: none;
stroke: #008000;
stroke-width: 1.8333334;
stroke-linecap: square;
stroke-linejoin: round;
}
.g6_50{
fill: #008000;
stroke: #000000;
stroke-width: 0.45833334;
stroke-linecap: butt;
stroke-linejoin: round;
}
.g7_50{
stroke: #000000;
stroke-width: 0.45833334;
stroke-linecap: butt;
stroke-linejoin: round;
}
.g8_50{
fill: none;
stroke: #000000;
stroke-width: 0.9166667;
stroke-linecap: square;
stroke-linejoin: round;
}
.g9_50{
fill: #FFFFFF;
stroke: #000000;
stroke-width: 0.9166667;
stroke-linecap: square;
stroke-linejoin: round;
}
.g10_50{
fill: none;
stroke: #000000;
stroke-width: 0.7302778;
stroke-linecap: butt;
stroke-linejoin: miter;
}
]]></style>
</defs>
<path d="M223.8,485.5H685.7V108.3H223.8Z" class="g0_50" />
<path d="M269.9,448.4H679.1V131.6H269.9Z" class="g0_50" />
<path d="M288.5,441.2H651.2l9.3,-280.8" class="g1_50" />
<path d="M288.5,443.5c.6,0,1.2,-.2,1.6,-.6c.4,-.5,.7,-1.1,.7,-1.7c0,-.6,-.3,-1.2,-.7,-1.6c-.4,-.4,-1,-.7,-1.6,-.7c-.6,0,-1.2,.3,-1.6,.7c-.5,.4,-.7,1,-.7,1.6c0,.6,.2,1.2,.7,1.7c.4,.4,1,.6,1.6,.6Z" class="g2_50" />
<path d="M297.8,443.5c.6,0,1.2,-.2,1.6,-.6c.4,-.5,.7,-1.1,.7,-1.7c0,-.6,-.3,-1.2,-.7,-1.6c-.4,-.4,-1,-.7,-1.6,-.7c-.6,0,-1.2,.3,-1.6,.7c-.5,.4,-.7,1,-.7,1.6c0,.6,.2,1.2,.7,1.7c.4,.4,1,.6,1.6,.6Z" class="g2_50" />
<path d="M307.1,443.5c.6,0,1.2,-.2,1.6,-.6c.4,-.5,.7,-1.1,.7,-1.7c0,-.6,-.3,-1.2,-.7,-1.6c-.4,-.4,-1,-.7,-1.6,-.7c-.6,0,-1.2,.3,-1.6,.7c-.5,.4,-.7,1,-.7,1.6c0,.6,.2,1.2,.7,1.7c.4,.4,1,.6,1.6,.6Z" class="g2_50" />
<path d="M316.4,443.5c.6,0,1.2,-.2,1.6,-.6c.4,-.5,.7,-1.1,.7,-1.7c0,-.6,-.3,-1.2,-.7,-1.6c-.4,-.4,-1,-.7,-1.6,-.7c-.6,0,-1.2,.3,-1.6,.7c-.5,.4,-.7,1,-.7,1.6c0,.6,.2,1.2,.7,1.7c.4,.4,1,.6,1.6,.6Z" class="g2_50" />
<path d="M325.7,443.5c.6,0,1.2,-.2,1.6,-.6c.4,-.5,.7,-1.1,.7,-1.7c0,-.6,-.3,-1.2,-.7,-1.6c-.4,-.4,-1,-.7,-1.6,-.7c-.6,0,-1.2,.3,-1.6,.7c-.5,.4,-.7,1,-.7,1.6c0,.6,.2,1.2,.7,1.7c.4,.4,1,.6,1.6,.6Z" class="g2_50" />
<path d="M335,443.5c.6,0,1.2,-.2,1.6,-.6c.4,-.5,.7,-1.1,.7,-1.7c0,-.6,-.3,-1.2,-.7,-1.6c-.4,-.4,-1,-.7,-1.6,-.7c-.6,0,-1.2,.3,-1.6,.7c-.5,.4,-.7,1,-.7,1.6c0,.6,.2,1.2,.7,1.7c.4,.4,1,.6,1.6,.6Z" class="g2_50" />
<path d="M344.3,443.5c.6,0,1.2,-.2,1.6,-.6c.4,-.5,.7,-1.1,.7,-1.7c0,-.6,-.3,-1.2,-.7,-1.6c-.4,-.4,-1,-.7,-1.6,-.7c-.6,0,-1.2,.3,-1.6,.7c-.5,.4,-.7,1,-.7,1.6c0,.6,.2,1.2,.7,1.7c.4,.4,1,.6,1.6,.6Z" class="g2_50" />
<path d="M353.6,443.5c.6,0,1.2,-.2,1.6,-.6c.4,-.5,.7,-1.1,.7,-1.7c0,-.6,-.3,-1.2,-.7,-1.6c-.4,-.4,-1,-.7,-1.6,-.7c-.6,0,-1.2,.3,-1.6,.7c-.5,.4,-.7,1,-.7,1.6c0,.6,.2,1.2,.7,1.7c.4,.4,1,.6,1.6,.6Z" class="g2_50" />
<path d="M362.9,443.5c.6,0,1.2,-.2,1.6,-.6c.4,-.5,.7,-1.1,.7,-1.7c0,-.6,-.3,-1.2,-.7,-1.6c-.4,-.4,-1,-.7,-1.6,-.7c-.6,0,-1.2,.3,-1.6,.7c-.5,.4,-.7,1,-.7,1.6c0,.6,.2,1.2,.7,1.7c.4,.4,1,.6,1.6,.6Z" class="g2_50" />
<path d="M372.2,443.5c.6,0,1.2,-.2,1.6,-.6c.4,-.5,.7,-1.1,.7,-1.7c0,-.6,-.3,-1.2,-.7,-1.6c-.4,-.4,-1,-.7,-1.6,-.7c-.6,0,-1.2,.3,-1.6,.7c-.5,.4,-.7,1,-.7,1.6c0,.6,.2,1.2,.7,1.7c.4,.4,1,.6,1.6,.6Z" class="g2_50" />
<path d="M381.5,443.5c.6,0,1.2,-.2,1.6,-.6c.4,-.5,.7,-1.1,.7,-1.7c0,-.6,-.3,-1.2,-.7,-1.6c-.4,-.4,-1,-.7,-1.6,-.7c-.6,0,-1.2,.3,-1.6,.7c-.5,.4,-.7,1,-.7,1.6c0,.6,.2,1.2,.7,1.7c.4,.4,1,.6,1.6,.6Z" class="g2_50" />
<path d="M390.8,443.5c.6,0,1.2,-.2,1.6,-.6c.4,-.5,.7,-1.1,.7,-1.7c0,-.6,-.3,-1.2,-.7,-1.6c-.4,-.4,-1,-.7,-1.6,-.7c-.6,0,-1.2,.3,-1.6,.7c-.5,.4,-.7,1,-.7,1.6c0,.6,.2,1.2,.7,1.7c.4,.4,1,.6,1.6,.6Z" class="g2_50" />
<path d="M400.1,443.5c.6,0,1.2,-.2,1.6,-.6c.4,-.5,.7,-1.1,.7,-1.7c0,-.6,-.3,-1.2,-.7,-1.6c-.4,-.4,-1,-.7,-1.6,-.7c-.6,0,-1.2,.3,-1.6,.7c-.5,.4,-.7,1,-.7,1.6c0,.6,.2,1.2,.7,1.7c.4,.4,1,.6,1.6,.6Z" class="g2_50" />
<path d="M409.4,443.5c.6,0,1.2,-.2,1.6,-.6c.4,-.5,.7,-1.1,.7,-1.7c0,-.6,-.3,-1.2,-.7,-1.6c-.4,-.4,-1,-.7,-1.6,-.7c-.6,0,-1.2,.3,-1.6,.7c-.5,.4,-.7,1,-.7,1.6c0,.6,.2,1.2,.7,1.7c.4,.4,1,.6,1.6,.6Z" class="g2_50" />
<path d="M418.7,443.5c.6,0,1.2,-.2,1.6,-.6c.4,-.5,.7,-1.1,.7,-1.7c0,-.6,-.3,-1.2,-.7,-1.6c-.4,-.4,-1,-.7,-1.6,-.7c-.6,0,-1.2,.3,-1.6,.7c-.5,.4,-.7,1,-.7,1.6c0,.6,.2,1.2,.7,1.7c.4,.4,1,.6,1.6,.6Z" class="g2_50" />
<path d="M428,443.5c.6,0,1.2,-.2,1.6,-.6c.4,-.5,.7,-1.1,.7,-1.7c0,-.6,-.3,-1.2,-.7,-1.6c-.4,-.4,-1,-.7,-1.6,-.7c-.6,0,-1.2,.3,-1.6,.7c-.5,.4,-.7,1,-.7,1.6c0,.6,.2,1.2,.7,1.7c.4,.4,1,.6,1.6,.6Z" class="g2_50" />
<path d="M437.3,443.5c.6,0,1.2,-.2,1.6,-.6c.4,-.5,.7,-1.1,.7,-1.7c0,-.6,-.3,-1.2,-.7,-1.6c-.4,-.4,-1,-.7,-1.6,-.7c-.6,0,-1.2,.3,-1.6,.7c-.5,.4,-.7,1,-.7,1.6c0,.6,.2,1.2,.7,1.7c.4,.4,1,.6,1.6,.6Z" class="g2_50" />
<path d="M446.6,443.5c.6,0,1.2,-.2,1.6,-.6c.4,-.5,.7,-1.1,.7,-1.7c0,-.6,-.3,-1.2,-.7,-1.6c-.4,-.4,-1,-.7,-1.6,-.7c-.6,0,-1.2,.3,-1.6,.7c-.5,.4,-.7,1,-.7,1.6c0,.6,.2,1.2,.7,1.7c.4,.4,1,.6,1.6,.6Z" class="g2_50" />
<path d="M455.9,443.5c.6,0,1.2,-.2,1.6,-.6c.4,-.5,.7,-1.1,.7,-1.7c0,-.6,-.3,-1.2,-.7,-1.6c-.4,-.4,-1,-.7,-1.6,-.7c-.6,0,-1.2,.3,-1.6,.7c-.5,.4,-.7,1,-.7,1.6c0,.6,.2,1.2,.7,1.7c.4,.4,1,.6,1.6,.6Z" class="g2_50" />
<path d="M465.2,443.5c.6,0,1.2,-.2,1.6,-.6c.4,-.5,.7,-1.1,.7,-1.7c0,-.6,-.3,-1.2,-.7,-1.6c-.4,-.4,-1,-.7,-1.6,-.7c-.6,0,-1.2,.3,-1.6,.7c-.5,.4,-.7,1,-.7,1.6c0,.6,.2,1.2,.7,1.7c.4,.4,1,.6,1.6,.6Z" class="g2_50" />
<path d="M474.5,443.5c.6,0,1.2,-.2,1.6,-.6c.4,-.5,.7,-1.1,.7,-1.7c0,-.6,-.3,-1.2,-.7,-1.6c-.4,-.4,-1,-.7,-1.6,-.7c-.6,0,-1.2,.3,-1.6,.7c-.5,.4,-.7,1,-.7,1.6c0,.6,.2,1.2,.7,1.7c.4,.4,1,.6,1.6,.6Z" class="g2_50" />
<path d="M483.8,443.5c.6,0,1.2,-.2,1.6,-.6c.4,-.5,.7,-1.1,.7,-1.7c0,-.6,-.3,-1.2,-.7,-1.6c-.4,-.4,-1,-.7,-1.6,-.7c-.6,0,-1.2,.3,-1.6,.7c-.5,.4,-.7,1,-.7,1.6c0,.6,.2,1.2,.7,1.7c.4,.4,1,.6,1.6,.6Z" class="g2_50" />
<path d="M493.1,443.5c.6,0,1.2,-.2,1.6,-.6c.4,-.5,.7,-1.1,.7,-1.7c0,-.6,-.3,-1.2,-.7,-1.6c-.4,-.4,-1,-.7,-1.6,-.7c-.6,0,-1.2,.3,-1.6,.7c-.5,.4,-.7,1,-.7,1.6c0,.6,.2,1.2,.7,1.7c.4,.4,1,.6,1.6,.6Z" class="g2_50" />
<path d="M502.4,443.5c.6,0,1.2,-.2,1.6,-.6c.4,-.5,.7,-1.1,.7,-1.7c0,-.6,-.3,-1.2,-.7,-1.6c-.4,-.4,-1,-.7,-1.6,-.7c-.6,0,-1.2,.3,-1.6,.7c-.5,.4,-.7,1,-.7,1.6c0,.6,.2,1.2,.7,1.7c.4,.4,1,.6,1.6,.6Z" class="g2_50" />
<path d="M511.7,443.5c.6,0,1.2,-.2,1.6,-.6c.4,-.5,.7,-1.1,.7,-1.7c0,-.6,-.3,-1.2,-.7,-1.6c-.4,-.4,-1,-.7,-1.6,-.7c-.6,0,-1.2,.3,-1.6,.7c-.5,.4,-.7,1,-.7,1.6c0,.6,.2,1.2,.7,1.7c.4,.4,1,.6,1.6,.6Z" class="g2_50" />
<path d="M521,443.5c.6,0,1.2,-.2,1.6,-.6c.4,-.5,.7,-1.1,.7,-1.7c0,-.6,-.3,-1.2,-.7,-1.6c-.4,-.4,-1,-.7,-1.6,-.7c-.6,0,-1.2,.3,-1.6,.7c-.5,.4,-.7,1,-.7,1.6c0,.6,.2,1.2,.7,1.7c.4,.4,1,.6,1.6,.6Z" class="g2_50" />
<path d="M530.3,443.5c.6,0,1.2,-.2,1.6,-.6c.4,-.5,.7,-1.1,.7,-1.7c0,-.6,-.3,-1.2,-.7,-1.6c-.4,-.4,-1,-.7,-1.6,-.7c-.6,0,-1.2,.3,-1.6,.7c-.5,.4,-.7,1,-.7,1.6c0,.6,.2,1.2,.7,1.7c.4,.4,1,.6,1.6,.6Z" class="g2_50" />
<path d="M539.6,443.5c.6,0,1.2,-.2,1.6,-.6c.4,-.5,.7,-1.1,.7,-1.7c0,-.6,-.3,-1.2,-.7,-1.6c-.4,-.4,-1,-.7,-1.6,-.7c-.6,0,-1.2,.3,-1.6,.7c-.5,.4,-.7,1,-.7,1.6c0,.6,.2,1.2,.7,1.7c.4,.4,1,.6,1.6,.6Z" class="g2_50" />
<path d="M548.9,443.5c.6,0,1.2,-.2,1.6,-.6c.4,-.5,.7,-1.1,.7,-1.7c0,-.6,-.3,-1.2,-.7,-1.6c-.4,-.4,-1,-.7,-1.6,-.7c-.6,0,-1.2,.3,-1.6,.7c-.5,.4,-.7,1,-.7,1.6c0,.6,.2,1.2,.7,1.7c.4,.4,1,.6,1.6,.6Z" class="g2_50" />
<path d="M558.2,443.5c.6,0,1.2,-.2,1.6,-.6c.4,-.5,.7,-1.1,.7,-1.7c0,-.6,-.3,-1.2,-.7,-1.6c-.4,-.4,-1,-.7,-1.6,-.7c-.6,0,-1.2,.3,-1.6,.7c-.5,.4,-.7,1,-.7,1.6c0,.6,.2,1.2,.7,1.7c.4,.4,1,.6,1.6,.6Z" class="g2_50" />
<path d="M567.5,443.5c.6,0,1.2,-.2,1.6,-.6c.4,-.5,.7,-1.1,.7,-1.7c0,-.6,-.3,-1.2,-.7,-1.6c-.4,-.4,-1,-.7,-1.6,-.7c-.6,0,-1.2,.3,-1.6,.7c-.5,.4,-.7,1,-.7,1.6c0,.6,.2,1.2,.7,1.7c.4,.4,1,.6,1.6,.6Z" class="g2_50" />
<path d="M576.8,443.5c.6,0,1.2,-.2,1.6,-.6c.4,-.5,.7,-1.1,.7,-1.7c0,-.6,-.3,-1.2,-.7,-1.6c-.4,-.4,-1,-.7,-1.6,-.7c-.6,0,-1.2,.3,-1.6,.7c-.5,.4,-.7,1,-.7,1.6c0,.6,.2,1.2,.7,1.7c.4,.4,1,.6,1.6,.6Z" class="g2_50" />
<path d="M586.1,443.5c.6,0,1.2,-.2,1.6,-.6c.4,-.5,.7,-1.1,.7,-1.7c0,-.6,-.3,-1.2,-.7,-1.6c-.4,-.4,-1,-.7,-1.6,-.7c-.6,0,-1.2,.3,-1.6,.7c-.5,.4,-.7,1,-.7,1.6c0,.6,.2,1.2,.7,1.7c.4,.4,1,.6,1.6,.6Z" class="g2_50" />
<path d="M595.4,443.5c.6,0,1.2,-.2,1.6,-.6c.4,-.5,.7,-1.1,.7,-1.7c0,-.6,-.3,-1.2,-.7,-1.6c-.4,-.4,-1,-.7,-1.6,-.7c-.6,0,-1.2,.3,-1.6,.7c-.5,.4,-.7,1,-.7,1.6c0,.6,.2,1.2,.7,1.7c.4,.4,1,.6,1.6,.6Z" class="g2_50" />
<path d="M604.7,443.5c.6,0,1.2,-.2,1.6,-.6c.4,-.5,.7,-1.1,.7,-1.7c0,-.6,-.3,-1.2,-.7,-1.6c-.4,-.4,-1,-.7,-1.6,-.7c-.6,0,-1.2,.3,-1.6,.7c-.5,.4,-.7,1,-.7,1.6c0,.6,.2,1.2,.7,1.7c.4,.4,1,.6,1.6,.6Z" class="g2_50" />
<path d="M614,443.5c.6,0,1.2,-.2,1.6,-.6c.4,-.5,.7,-1.1,.7,-1.7c0,-.6,-.3,-1.2,-.7,-1.6c-.4,-.4,-1,-.7,-1.6,-.7c-.6,0,-1.2,.3,-1.6,.7c-.5,.4,-.7,1,-.7,1.6c0,.6,.2,1.2,.7,1.7c.4,.4,1,.6,1.6,.6Z" class="g2_50" />
<path d="M623.3,443.5c.6,0,1.2,-.2,1.6,-.6c.4,-.5,.7,-1.1,.7,-1.7c0,-.6,-.3,-1.2,-.7,-1.6c-.4,-.4,-1,-.7,-1.6,-.7c-.6,0,-1.2,.3,-1.6,.7c-.5,.4,-.7,1,-.7,1.6c0,.6,.2,1.2,.7,1.7c.4,.4,1,.6,1.6,.6Z" class="g2_50" />
<path d="M632.6,443.5c.6,0,1.2,-.2,1.6,-.6c.4,-.5,.7,-1.1,.7,-1.7c0,-.6,-.3,-1.2,-.7,-1.6c-.4,-.4,-1,-.7,-1.6,-.7c-.6,0,-1.2,.3,-1.6,.7c-.5,.4,-.7,1,-.7,1.6c0,.6,.2,1.2,.7,1.7c.4,.4,1,.6,1.6,.6Z" class="g2_50" />
<path d="M641.9,443.5c.6,0,1.2,-.2,1.6,-.6c.4,-.5,.7,-1.1,.7,-1.7c0,-.6,-.3,-1.2,-.7,-1.6c-.4,-.4,-1,-.7,-1.6,-.7c-.6,0,-1.2,.3,-1.6,.7c-.5,.4,-.7,1,-.7,1.6c0,.6,.2,1.2,.7,1.7c.4,.4,1,.6,1.6,.6Z" class="g2_50" />
<path d="M651.2,443.5c.6,0,1.2,-.2,1.6,-.6c.4,-.5,.7,-1.1,.7,-1.7c0,-.6,-.3,-1.2,-.7,-1.6c-.4,-.4,-1,-.7,-1.6,-.7c-.6,0,-1.2,.3,-1.6,.7c-.5,.4,-.7,1,-.7,1.6c0,.6,.2,1.2,.7,1.7c.4,.4,1,.6,1.6,.6Z" class="g2_50" />
<path d="M660.5,162.7c.6,0,1.2,-.2,1.6,-.6c.4,-.5,.7,-1.1,.7,-1.7c0,-.6,-.3,-1.2,-.7,-1.6c-.4,-.4,-1,-.7,-1.6,-.7c-.6,0,-1.2,.3,-1.6,.7c-.5,.4,-.7,1,-.7,1.6c0,.6,.2,1.2,.7,1.7c.4,.4,1,.6,1.6,.6Z" class="g2_50" />
<path d="M288.5,448.4H335l9.3,-.1h9.3l9.3,-.1h9.3l9.3,-.1l9.3,-.2l9.3,-.1l9.3,-.2l9.3,-.3L428,447l9.3,-.5l9.3,-.4l9.3,-.6l9.3,-.8l9.3,-.8l9.3,-1l9.3,-1.1l9.3,-1.3l9.3,-1.4l9.3,-1.5l9.3,-1.7l9.3,-1.9l9.3,-1.9l9.3,-2l9.3,-2l9.3,-2l9.3,-2l9.3,-1.9l9.3,-1.8l9.3,-1.5l9.3,-1.4l9.3,-1.1l9.3,-.8l9.3,-.5l9.3,-139.5" class="g3_50" />
<g clip-path="url(#c0_50)">
<path d="M288.5,450.7c.6,0,1.2,-.2,1.6,-.7c.4,-.4,.7,-1,.7,-1.6c0,-.6,-.3,-1.2,-.7,-1.6c-.4,-.4,-1,-.7,-1.6,-.7c-.6,0,-1.2,.3,-1.6,.7c-.5,.4,-.7,1,-.7,1.6c0,.6,.2,1.2,.7,1.6c.4,.5,1,.7,1.6,.7Z" class="g4_50" />
<path d="M297.8,450.7c.6,0,1.2,-.2,1.6,-.7c.4,-.4,.7,-1,.7,-1.6c0,-.6,-.3,-1.2,-.7,-1.6c-.4,-.4,-1,-.7,-1.6,-.7c-.6,0,-1.2,.3,-1.6,.7c-.5,.4,-.7,1,-.7,1.6c0,.6,.2,1.2,.7,1.6c.4,.5,1,.7,1.6,.7Z" class="g4_50" />
<path d="M307.1,450.7c.6,0,1.2,-.2,1.6,-.7c.4,-.4,.7,-1,.7,-1.6c0,-.6,-.3,-1.2,-.7,-1.6c-.4,-.4,-1,-.7,-1.6,-.7c-.6,0,-1.2,.3,-1.6,.7c-.5,.4,-.7,1,-.7,1.6c0,.6,.2,1.2,.7,1.6c.4,.5,1,.7,1.6,.7Z" class="g4_50" />
<path d="M316.4,450.7c.6,0,1.2,-.3,1.6,-.7c.4,-.4,.7,-1,.7,-1.6c0,-.6,-.3,-1.2,-.7,-1.6c-.4,-.5,-1,-.7,-1.6,-.7c-.6,0,-1.2,.2,-1.6,.7c-.5,.4,-.7,1,-.7,1.6c0,.6,.2,1.2,.7,1.6c.4,.4,1,.7,1.6,.7Z" class="g4_50" />
<path d="M325.7,450.7c.6,0,1.2,-.3,1.6,-.7c.4,-.4,.7,-1,.7,-1.6c0,-.6,-.3,-1.2,-.7,-1.6c-.4,-.5,-1,-.7,-1.6,-.7c-.6,0,-1.2,.2,-1.6,.7c-.5,.4,-.7,1,-.7,1.6c0,.6,.2,1.2,.7,1.6c.4,.4,1,.7,1.6,.7Z" class="g4_50" />
<path d="M335,450.6c.6,0,1.2,-.2,1.6,-.6c.4,-.5,.7,-1,.7,-1.6c0,-.7,-.3,-1.2,-.7,-1.7c-.4,-.4,-1,-.6,-1.6,-.6c-.6,0,-1.2,.2,-1.6,.6c-.5,.5,-.7,1,-.7,1.7c0,.6,.2,1.1,.7,1.6c.4,.4,1,.6,1.6,.6Z" class="g4_50" />
<path d="M344.3,450.6c.6,0,1.2,-.2,1.6,-.7c.4,-.4,.7,-1,.7,-1.6c0,-.6,-.3,-1.2,-.7,-1.6c-.4,-.4,-1,-.7,-1.6,-.7c-.6,0,-1.2,.3,-1.6,.7c-.5,.4,-.7,1,-.7,1.6c0,.6,.2,1.2,.7,1.6c.4,.5,1,.7,1.6,.7Z" class="g4_50" />
<path d="M353.6,450.6c.6,0,1.2,-.3,1.6,-.7c.4,-.4,.7,-1,.7,-1.6c0,-.6,-.3,-1.2,-.7,-1.6c-.4,-.5,-1,-.7,-1.6,-.7c-.6,0,-1.2,.2,-1.6,.7c-.5,.4,-.7,1,-.7,1.6c0,.6,.2,1.2,.7,1.6c.4,.4,1,.7,1.6,.7Z" class="g4_50" />
<path d="M362.9,450.5c.6,0,1.2,-.2,1.6,-.6c.4,-.5,.7,-1.1,.7,-1.7c0,-.6,-.3,-1.2,-.7,-1.6c-.4,-.4,-1,-.7,-1.6,-.7c-.6,0,-1.2,.3,-1.6,.7c-.5,.4,-.7,1,-.7,1.6c0,.6,.2,1.2,.7,1.7c.4,.4,1,.6,1.6,.6Z" class="g4_50" />
<path d="M372.2,450.4c.6,0,1.2,-.2,1.6,-.6c.4,-.5,.7,-1,.7,-1.6c0,-.7,-.3,-1.2,-.7,-1.7c-.4,-.4,-1,-.6,-1.6,-.6c-.6,0,-1.2,.2,-1.6,.6c-.5,.5,-.7,1,-.7,1.7c0,.6,.2,1.1,.7,1.6c.4,.4,1,.6,1.6,.6Z" class="g4_50" />
<path d="M381.5,450.4c.6,0,1.2,-.3,1.6,-.7c.4,-.5,.7,-1,.7,-1.6c0,-.6,-.3,-1.2,-.7,-1.7c-.4,-.4,-1,-.6,-1.6,-.6c-.6,0,-1.2,.2,-1.6,.6c-.5,.5,-.7,1.1,-.7,1.7c0,.6,.2,1.1,.7,1.6c.4,.4,1,.7,1.6,.7Z" class="g4_50" />
<path d="M390.8,450.2c.6,0,1.2,-.2,1.6,-.6c.4,-.5,.7,-1.1,.7,-1.7c0,-.6,-.3,-1.2,-.7,-1.6c-.4,-.4,-1,-.7,-1.6,-.7c-.6,0,-1.2,.3,-1.6,.7c-.5,.4,-.7,1,-.7,1.6c0,.6,.2,1.2,.7,1.7c.4,.4,1,.6,1.6,.6Z" class="g4_50" />
<path d="M400.1,450.1c.6,0,1.2,-.3,1.6,-.7c.4,-.4,.7,-1,.7,-1.6c0,-.6,-.3,-1.2,-.7,-1.7c-.4,-.4,-1,-.6,-1.6,-.6c-.6,0,-1.2,.2,-1.6,.6c-.5,.5,-.7,1.1,-.7,1.7c0,.6,.2,1.2,.7,1.6c.4,.4,1,.7,1.6,.7Z" class="g4_50" />
<path d="M409.4,449.8c.6,0,1.2,-.2,1.6,-.6c.4,-.5,.7,-1,.7,-1.6c0,-.7,-.3,-1.2,-.7,-1.7c-.4,-.4,-1,-.6,-1.6,-.6c-.6,0,-1.2,.2,-1.6,.6c-.5,.5,-.7,1,-.7,1.7c0,.6,.2,1.1,.7,1.6c.4,.4,1,.6,1.6,.6Z" class="g4_50" />
<path d="M418.7,449.6c.6,0,1.2,-.3,1.6,-.7c.4,-.4,.7,-1,.7,-1.6c0,-.6,-.3,-1.2,-.7,-1.6c-.4,-.5,-1,-.7,-1.6,-.7c-.6,0,-1.2,.2,-1.6,.7c-.5,.4,-.7,1,-.7,1.6c0,.6,.2,1.2,.7,1.6c.4,.4,1,.7,1.6,.7Z" class="g4_50" />
<path d="M428,449.3c.6,0,1.2,-.3,1.6,-.7c.4,-.5,.7,-1,.7,-1.6c0,-.6,-.3,-1.2,-.7,-1.7c-.4,-.4,-1,-.6,-1.6,-.6c-.6,0,-1.2,.2,-1.6,.6c-.5,.5,-.7,1.1,-.7,1.7c0,.6,.2,1.1,.7,1.6c.4,.4,1,.7,1.6,.7Z" class="g4_50" />
<path d="M437.3,448.8c.6,0,1.2,-.2,1.6,-.6c.4,-.5,.7,-1,.7,-1.7c0,-.6,-.3,-1.1,-.7,-1.6c-.4,-.4,-1,-.6,-1.6,-.6c-.6,0,-1.2,.2,-1.6,.6c-.5,.5,-.7,1,-.7,1.6c0,.7,.2,1.2,.7,1.7c.4,.4,1,.6,1.6,.6Z" class="g4_50" />
</g>
<path d="M446.6,448.3c.6,0,1.2,-.2,1.6,-.6c.4,-.5,.7,-1,.7,-1.6c0,-.7,-.3,-1.2,-.7,-1.7c-.4,-.4,-1,-.6,-1.6,-.6c-.6,0,-1.2,.2,-1.6,.6c-.5,.5,-.7,1,-.7,1.7c0,.6,.2,1.1,.7,1.6c.4,.4,1,.6,1.6,.6Z" class="g4_50" />
<path d="M455.9,447.7c.6,0,1.2,-.2,1.6,-.6c.4,-.5,.7,-1,.7,-1.6c0,-.7,-.3,-1.2,-.7,-1.7c-.4,-.4,-1,-.6,-1.6,-.6c-.6,0,-1.2,.2,-1.6,.6c-.5,.5,-.7,1,-.7,1.7c0,.6,.2,1.1,.7,1.6c.4,.4,1,.6,1.6,.6Z" class="g4_50" />
<path d="M465.2,447c.6,0,1.2,-.2,1.6,-.6c.4,-.5,.7,-1.1,.7,-1.7c0,-.6,-.3,-1.2,-.7,-1.6c-.4,-.4,-1,-.7,-1.6,-.7c-.6,0,-1.2,.3,-1.6,.7c-.5,.4,-.7,1,-.7,1.6c0,.6,.2,1.2,.7,1.7c.4,.4,1,.6,1.6,.6Z" class="g4_50" />
<path d="M474.5,446.2c.6,0,1.2,-.3,1.6,-.7c.4,-.4,.7,-1,.7,-1.6c0,-.6,-.3,-1.2,-.7,-1.6c-.4,-.5,-1,-.7,-1.6,-.7c-.6,0,-1.2,.2,-1.6,.7c-.5,.4,-.7,1,-.7,1.6c0,.6,.2,1.2,.7,1.6c.4,.4,1,.7,1.6,.7Z" class="g4_50" />
<path d="M483.8,445.2c.6,0,1.2,-.2,1.6,-.7c.4,-.4,.7,-1,.7,-1.6c0,-.6,-.3,-1.2,-.7,-1.6c-.4,-.4,-1,-.7,-1.6,-.7c-.6,0,-1.2,.3,-1.6,.7c-.5,.4,-.7,1,-.7,1.6c0,.6,.2,1.2,.7,1.6c.4,.5,1,.7,1.6,.7Z" class="g4_50" />
<path d="M493.1,444.1c.6,0,1.2,-.3,1.6,-.7c.4,-.4,.7,-1,.7,-1.6c0,-.6,-.3,-1.2,-.7,-1.6c-.4,-.5,-1,-.7,-1.6,-.7c-.6,0,-1.2,.2,-1.6,.7c-.5,.4,-.7,1,-.7,1.6c0,.6,.2,1.2,.7,1.6c.4,.4,1,.7,1.6,.7Z" class="g4_50" />
<path d="M502.4,442.8c.6,0,1.2,-.2,1.6,-.6c.4,-.5,.7,-1.1,.7,-1.7c0,-.6,-.3,-1.2,-.7,-1.6c-.4,-.4,-1,-.7,-1.6,-.7c-.6,0,-1.2,.3,-1.6,.7c-.5,.4,-.7,1,-.7,1.6c0,.6,.2,1.2,.7,1.7c.4,.4,1,.6,1.6,.6Z" class="g4_50" />
<path d="M511.7,441.4c.6,0,1.2,-.2,1.6,-.7c.4,-.4,.7,-1,.7,-1.6c0,-.6,-.3,-1.2,-.7,-1.6c-.4,-.4,-1,-.7,-1.6,-.7c-.6,0,-1.2,.3,-1.6,.7c-.5,.4,-.7,1,-.7,1.6c0,.6,.2,1.2,.7,1.6c.4,.5,1,.7,1.6,.7Z" class="g4_50" />
<path d="M521,439.8c.6,0,1.2,-.2,1.6,-.6c.4,-.5,.7,-1,.7,-1.6c0,-.7,-.3,-1.2,-.7,-1.7c-.4,-.4,-1,-.6,-1.6,-.6c-.6,0,-1.2,.2,-1.6,.6c-.5,.5,-.7,1,-.7,1.7c0,.6,.2,1.1,.7,1.6c.4,.4,1,.6,1.6,.6Z" class="g4_50" />
<path d="M530.3,438.1c.6,0,1.2,-.2,1.6,-.6c.4,-.5,.7,-1,.7,-1.6c0,-.7,-.3,-1.2,-.7,-1.7c-.4,-.4,-1,-.6,-1.6,-.6c-.6,0,-1.2,.2,-1.6,.6c-.5,.5,-.7,1,-.7,1.7c0,.6,.2,1.1,.7,1.6c.4,.4,1,.6,1.6,.6Z" class="g4_50" />
<path d="M539.6,436.3c.6,0,1.2,-.2,1.6,-.6c.4,-.5,.7,-1.1,.7,-1.7c0,-.6,-.3,-1.2,-.7,-1.6c-.4,-.4,-1,-.7,-1.6,-.7c-.6,0,-1.2,.3,-1.6,.7c-.5,.4,-.7,1,-.7,1.6c0,.6,.2,1.2,.7,1.7c.4,.4,1,.6,1.6,.6Z" class="g4_50" />
<path d="M548.9,434.4c.6,0,1.2,-.2,1.6,-.7c.4,-.4,.7,-1,.7,-1.6c0,-.6,-.3,-1.2,-.7,-1.6c-.4,-.4,-1,-.7,-1.6,-.7c-.6,0,-1.2,.3,-1.6,.7c-.5,.4,-.7,1,-.7,1.6c0,.6,.2,1.2,.7,1.6c.4,.5,1,.7,1.6,.7Z" class="g4_50" />
<path d="M558.2,432.4c.6,0,1.2,-.2,1.6,-.6c.4,-.5,.7,-1.1,.7,-1.7c0,-.6,-.3,-1.2,-.7,-1.6c-.4,-.4,-1,-.7,-1.6,-.7c-.6,0,-1.2,.3,-1.6,.7c-.5,.4,-.7,1,-.7,1.6c0,.6,.2,1.2,.7,1.7c.4,.4,1,.6,1.6,.6Z" class="g4_50" />
<path d="M567.5,430.4c.6,0,1.2,-.2,1.6,-.7c.4,-.4,.7,-1,.7,-1.6c0,-.6,-.3,-1.2,-.7,-1.6c-.4,-.4,-1,-.7,-1.6,-.7c-.6,0,-1.2,.3,-1.6,.7c-.5,.4,-.7,1,-.7,1.6c0,.6,.2,1.2,.7,1.6c.4,.5,1,.7,1.6,.7Z" class="g4_50" />
<path d="M576.8,428.4c.6,0,1.2,-.3,1.6,-.7c.4,-.4,.7,-1,.7,-1.6c0,-.6,-.3,-1.2,-.7,-1.6c-.4,-.5,-1,-.7,-1.6,-.7c-.6,0,-1.2,.2,-1.6,.7c-.5,.4,-.7,1,-.7,1.6c0,.6,.2,1.2,.7,1.6c.4,.4,1,.7,1.6,.7Z" class="g4_50" />
<path d="M586.1,426.4c.6,0,1.2,-.3,1.6,-.7c.4,-.4,.7,-1,.7,-1.6c0,-.6,-.3,-1.2,-.7,-1.6c-.4,-.5,-1,-.7,-1.6,-.7c-.6,0,-1.2,.2,-1.6,.7c-.5,.4,-.7,1,-.7,1.6c0,.6,.2,1.2,.7,1.6c.4,.4,1,.7,1.6,.7Z" class="g4_50" />
<path d="M595.4,424.5c.6,0,1.2,-.2,1.6,-.7c.4,-.4,.7,-1,.7,-1.6c0,-.6,-.3,-1.2,-.7,-1.6c-.4,-.4,-1,-.7,-1.6,-.7c-.6,0,-1.2,.3,-1.6,.7c-.5,.4,-.7,1,-.7,1.6c0,.6,.2,1.2,.7,1.6c.4,.5,1,.7,1.6,.7Z" class="g4_50" />
<path d="M604.7,422.7c.6,0,1.2,-.2,1.6,-.6c.4,-.5,.7,-1.1,.7,-1.7c0,-.6,-.3,-1.1,-.7,-1.6c-.4,-.4,-1,-.7,-1.6,-.7c-.6,0,-1.2,.3,-1.6,.7c-.5,.5,-.7,1,-.7,1.6c0,.6,.2,1.2,.7,1.7c.4,.4,1,.6,1.6,.6Z" class="g4_50" />
<path d="M614,421.2c.6,0,1.2,-.3,1.6,-.7c.4,-.5,.7,-1,.7,-1.6c0,-.6,-.3,-1.2,-.7,-1.7c-.4,-.4,-1,-.6,-1.6,-.6c-.6,0,-1.2,.2,-1.6,.6c-.5,.5,-.7,1.1,-.7,1.7c0,.6,.2,1.1,.7,1.6c.4,.4,1,.7,1.6,.7Z" class="g4_50" />
<path d="M623.3,419.8c.6,0,1.2,-.3,1.6,-.7c.4,-.4,.7,-1,.7,-1.6c0,-.6,-.3,-1.2,-.7,-1.6c-.4,-.5,-1,-.7,-1.6,-.7c-.6,0,-1.2,.2,-1.6,.7c-.5,.4,-.7,1,-.7,1.6c0,.6,.2,1.2,.7,1.6c.4,.4,1,.7,1.6,.7Z" class="g4_50" />
<path d="M632.6,418.7c.6,0,1.2,-.3,1.6,-.7c.4,-.4,.7,-1,.7,-1.6c0,-.6,-.3,-1.2,-.7,-1.6c-.4,-.5,-1,-.7,-1.6,-.7c-.6,0,-1.2,.2,-1.6,.7c-.5,.4,-.7,1,-.7,1.6c0,.6,.2,1.2,.7,1.6c.4,.4,1,.7,1.6,.7Z" class="g4_50" />
<path d="M641.9,417.9c.6,0,1.2,-.3,1.6,-.7c.4,-.4,.7,-1,.7,-1.6c0,-.6,-.3,-1.2,-.7,-1.6c-.4,-.5,-1,-.7,-1.6,-.7c-.6,0,-1.2,.2,-1.6,.7c-.5,.4,-.7,1,-.7,1.6c0,.6,.2,1.2,.7,1.6c.4,.4,1,.7,1.6,.7Z" class="g4_50" />
<path d="M651.2,417.4c.6,0,1.2,-.3,1.6,-.7c.4,-.4,.7,-1,.7,-1.6c0,-.6,-.3,-1.2,-.7,-1.6c-.4,-.5,-1,-.7,-1.6,-.7c-.6,0,-1.2,.2,-1.6,.7c-.5,.4,-.7,1,-.7,1.6c0,.6,.2,1.2,.7,1.6c.4,.4,1,.7,1.6,.7Z" class="g4_50" />
<path d="M660.5,277.9c.6,0,1.2,-.2,1.6,-.6c.4,-.5,.7,-1.1,.7,-1.7c0,-.6,-.3,-1.2,-.7,-1.6c-.4,-.4,-1,-.7,-1.6,-.7c-.6,0,-1.2,.3,-1.6,.7c-.5,.4,-.7,1,-.7,1.6c0,.6,.2,1.2,.7,1.7c.4,.4,1,.6,1.6,.6Z" class="g4_50" />
<path d="M288.5,448h27.9l9.3,-.1h18.6l9.3,-.1h18.6l9.3,-.1h9.3l9.3,-.1l9.3,-.1h9.3l9.3,-.1l9.3,-.1l9.3,-.1l9.3,-.1l9.3,-.1l9.3,-.2l9.3,-.2l9.3,-.2l9.3,-.2l9.3,-.3l9.3,-.3l9.3,-.4l9.3,-.5l9.3,-.7l9.3,-.8l9.3,-1l9.3,-1.4l9.3,-1.9l9.3,-2.7l9.3,-4L614,426l9.3,-10.1l9.3,-17.5l9.3,-31.3l9.3,-48.7l9.3,-32.5" class="g5_50" />
<g clip-path="url(#c0_50)">
<path d="M288.5,450.3c.6,0,1.2,-.2,1.6,-.7c.4,-.4,.7,-1,.7,-1.6c0,-.6,-.3,-1.2,-.7,-1.6c-.4,-.4,-1,-.7,-1.6,-.7c-.6,0,-1.2,.3,-1.6,.7c-.5,.4,-.7,1,-.7,1.6c0,.6,.2,1.2,.7,1.6c.4,.5,1,.7,1.6,.7Z" class="g6_50" />
<path d="M297.8,450.3c.6,0,1.2,-.2,1.6,-.7c.4,-.4,.7,-1,.7,-1.6c0,-.6,-.3,-1.2,-.7,-1.6c-.4,-.4,-1,-.7,-1.6,-.7c-.6,0,-1.2,.3,-1.6,.7c-.5,.4,-.7,1,-.7,1.6c0,.6,.2,1.2,.7,1.6c.4,.5,1,.7,1.6,.7Z" class="g6_50" />
<path d="M307.1,450.3c.6,0,1.2,-.3,1.6,-.7c.4,-.4,.7,-1,.7,-1.6c0,-.6,-.3,-1.2,-.7,-1.6c-.4,-.5,-1,-.7,-1.6,-.7c-.6,0,-1.2,.2,-1.6,.7c-.5,.4,-.7,1,-.7,1.6c0,.6,.2,1.2,.7,1.6c.4,.4,1,.7,1.6,.7Z" class="g6_50" />
<path d="M316.4,450.2c.6,0,1.2,-.2,1.6,-.6c.4,-.5,.7,-1,.7,-1.6c0,-.7,-.3,-1.2,-.7,-1.7c-.4,-.4,-1,-.6,-1.6,-.6c-.6,0,-1.2,.2,-1.6,.6c-.5,.5,-.7,1,-.7,1.7c0,.6,.2,1.1,.7,1.6c.4,.4,1,.6,1.6,.6Z" class="g6_50" />
<path d="M325.7,450.2c.6,0,1.2,-.2,1.6,-.6c.4,-.5,.7,-1.1,.7,-1.7c0,-.6,-.3,-1.2,-.7,-1.6c-.4,-.4,-1,-.7,-1.6,-.7c-.6,0,-1.2,.3,-1.6,.7c-.5,.4,-.7,1,-.7,1.6c0,.6,.2,1.2,.7,1.7c.4,.4,1,.6,1.6,.6Z" class="g6_50" />
<path d="M335,450.2c.6,0,1.2,-.2,1.6,-.7c.4,-.4,.7,-1,.7,-1.6c0,-.6,-.3,-1.2,-.7,-1.6c-.4,-.4,-1,-.7,-1.6,-.7c-.6,0,-1.2,.3,-1.6,.7c-.5,.4,-.7,1,-.7,1.6c0,.6,.2,1.2,.7,1.6c.4,.5,1,.7,1.6,.7Z" class="g6_50" />
<path d="M344.3,450.2c.6,0,1.2,-.3,1.6,-.7c.4,-.4,.7,-1,.7,-1.6c0,-.6,-.3,-1.2,-.7,-1.7c-.4,-.4,-1,-.6,-1.6,-.6c-.6,0,-1.2,.2,-1.6,.6c-.5,.5,-.7,1.1,-.7,1.7c0,.6,.2,1.2,.7,1.6c.4,.4,1,.7,1.6,.7Z" class="g6_50" />
<path d="M353.6,450.1c.6,0,1.2,-.2,1.6,-.6c.4,-.5,.7,-1.1,.7,-1.7c0,-.6,-.3,-1.2,-.7,-1.6c-.4,-.4,-1,-.7,-1.6,-.7c-.6,0,-1.2,.3,-1.6,.7c-.5,.4,-.7,1,-.7,1.6c0,.6,.2,1.2,.7,1.7c.4,.4,1,.6,1.6,.6Z" class="g6_50" />
<path d="M362.9,450.1c.6,0,1.2,-.3,1.6,-.7c.4,-.4,.7,-1,.7,-1.6c0,-.6,-.3,-1.2,-.7,-1.6c-.4,-.5,-1,-.7,-1.6,-.7c-.6,0,-1.2,.2,-1.6,.7c-.5,.4,-.7,1,-.7,1.6c0,.6,.2,1.2,.7,1.6c.4,.4,1,.7,1.6,.7Z" class="g6_50" />
<path d="M372.2,450c.6,0,1.2,-.2,1.6,-.6c.4,-.5,.7,-1,.7,-1.6c0,-.7,-.3,-1.2,-.7,-1.7c-.4,-.4,-1,-.6,-1.6,-.6c-.6,0,-1.2,.2,-1.6,.6c-.5,.5,-.7,1,-.7,1.7c0,.6,.2,1.1,.7,1.6c.4,.4,1,.6,1.6,.6Z" class="g6_50" />
<path d="M381.5,450c.6,0,1.2,-.2,1.6,-.7c.4,-.4,.7,-1,.7,-1.6c0,-.6,-.3,-1.2,-.7,-1.6c-.4,-.4,-1,-.7,-1.6,-.7c-.6,0,-1.2,.3,-1.6,.7c-.5,.4,-.7,1,-.7,1.6c0,.6,.2,1.2,.7,1.6c.4,.5,1,.7,1.6,.7Z" class="g6_50" />
<path d="M390.8,450c.6,0,1.2,-.3,1.6,-.7c.4,-.4,.7,-1,.7,-1.6c0,-.6,-.3,-1.2,-.7,-1.7c-.4,-.4,-1,-.6,-1.6,-.6c-.6,0,-1.2,.2,-1.6,.6c-.5,.5,-.7,1.1,-.7,1.7c0,.6,.2,1.2,.7,1.6c.4,.4,1,.7,1.6,.7Z" class="g6_50" />
<path d="M400.1,449.9c.6,0,1.2,-.2,1.6,-.7c.4,-.4,.7,-1,.7,-1.6c0,-.6,-.3,-1.2,-.7,-1.6c-.4,-.4,-1,-.7,-1.6,-.7c-.6,0,-1.2,.3,-1.6,.7c-.5,.4,-.7,1,-.7,1.6c0,.6,.2,1.2,.7,1.6c.4,.5,1,.7,1.6,.7Z" class="g6_50" />
<path d="M409.4,449.8c.6,0,1.2,-.2,1.6,-.6c.4,-.5,.7,-1,.7,-1.7c0,-.6,-.3,-1.1,-.7,-1.6c-.4,-.4,-1,-.6,-1.6,-.6c-.6,0,-1.2,.2,-1.6,.6c-.5,.5,-.7,1,-.7,1.6c0,.7,.2,1.2,.7,1.7c.4,.4,1,.6,1.6,.6Z" class="g6_50" />
<path d="M418.7,449.8c.6,0,1.2,-.3,1.6,-.7c.4,-.4,.7,-1,.7,-1.6c0,-.6,-.3,-1.2,-.7,-1.6c-.4,-.5,-1,-.7,-1.6,-.7c-.6,0,-1.2,.2,-1.6,.7c-.5,.4,-.7,1,-.7,1.6c0,.6,.2,1.2,.7,1.6c.4,.4,1,.7,1.6,.7Z" class="g6_50" />
<path d="M428,449.7c.6,0,1.2,-.3,1.6,-.7c.4,-.4,.7,-1,.7,-1.6c0,-.6,-.3,-1.2,-.7,-1.6c-.4,-.5,-1,-.7,-1.6,-.7c-.6,0,-1.2,.2,-1.6,.7c-.5,.4,-.7,1,-.7,1.6c0,.6,.2,1.2,.7,1.6c.4,.4,1,.7,1.6,.7Z" class="g6_50" />
<path d="M437.3,449.6c.6,0,1.2,-.2,1.6,-.7c.4,-.4,.7,-1,.7,-1.6c0,-.6,-.3,-1.2,-.7,-1.6c-.4,-.4,-1,-.7,-1.6,-.7c-.6,0,-1.2,.3,-1.6,.7c-.5,.4,-.7,1,-.7,1.6c0,.6,.2,1.2,.7,1.6c.4,.5,1,.7,1.6,.7Z" class="g6_50" />
<path d="M446.6,449.5c.6,0,1.2,-.2,1.6,-.7c.4,-.4,.7,-1,.7,-1.6c0,-.6,-.3,-1.2,-.7,-1.6c-.4,-.4,-1,-.7,-1.6,-.7c-.6,0,-1.2,.3,-1.6,.7c-.5,.4,-.7,1,-.7,1.6c0,.6,.2,1.2,.7,1.6c.4,.5,1,.7,1.6,.7Z" class="g6_50" />
<path d="M455.9,449.4c.6,0,1.2,-.3,1.6,-.7c.4,-.4,.7,-1,.7,-1.6c0,-.6,-.3,-1.2,-.7,-1.6c-.4,-.5,-1,-.7,-1.6,-.7c-.6,0,-1.2,.2,-1.6,.7c-.5,.4,-.7,1,-.7,1.6c0,.6,.2,1.2,.7,1.6c.4,.4,1,.7,1.6,.7Z" class="g6_50" />
<path d="M465.2,449.3c.6,0,1.2,-.3,1.6,-.7c.4,-.4,.7,-1,.7,-1.6c0,-.6,-.3,-1.2,-.7,-1.7c-.4,-.4,-1,-.6,-1.6,-.6c-.6,0,-1.2,.2,-1.6,.6c-.5,.5,-.7,1.1,-.7,1.7c0,.6,.2,1.2,.7,1.6c.4,.4,1,.7,1.6,.7Z" class="g6_50" />
<path d="M474.5,449.1c.6,0,1.2,-.2,1.6,-.7c.4,-.4,.7,-1,.7,-1.6c0,-.6,-.3,-1.2,-.7,-1.6c-.4,-.4,-1,-.7,-1.6,-.7c-.6,0,-1.2,.3,-1.6,.7c-.5,.4,-.7,1,-.7,1.6c0,.6,.2,1.2,.7,1.6c.4,.5,1,.7,1.6,.7Z" class="g6_50" />
<path d="M483.8,448.9c.6,0,1.2,-.2,1.6,-.6c.4,-.5,.7,-1,.7,-1.7c0,-.6,-.3,-1.1,-.7,-1.6c-.4,-.4,-1,-.6,-1.6,-.6c-.6,0,-1.2,.2,-1.6,.6c-.5,.5,-.7,1,-.7,1.6c0,.7,.2,1.2,.7,1.7c.4,.4,1,.6,1.6,.6Z" class="g6_50" />
<path d="M493.1,448.7c.6,0,1.2,-.2,1.6,-.6c.4,-.5,.7,-1,.7,-1.7c0,-.6,-.3,-1.1,-.7,-1.6c-.4,-.4,-1,-.6,-1.6,-.6c-.6,0,-1.2,.2,-1.6,.6c-.5,.5,-.7,1,-.7,1.6c0,.7,.2,1.2,.7,1.7c.4,.4,1,.6,1.6,.6Z" class="g6_50" />
<path d="M502.4,448.5c.6,0,1.2,-.2,1.6,-.7c.4,-.4,.7,-1,.7,-1.6c0,-.6,-.3,-1.2,-.7,-1.6c-.4,-.4,-1,-.7,-1.6,-.7c-.6,0,-1.2,.3,-1.6,.7c-.5,.4,-.7,1,-.7,1.6c0,.6,.2,1.2,.7,1.6c.4,.5,1,.7,1.6,.7Z" class="g6_50" />
</g>
<path d="M511.7,448.2c.6,0,1.2,-.2,1.6,-.6c.4,-.5,.7,-1.1,.7,-1.7c0,-.6,-.3,-1.2,-.7,-1.6c-.4,-.4,-1,-.7,-1.6,-.7c-.6,0,-1.2,.3,-1.6,.7c-.5,.4,-.7,1,-.7,1.6c0,.6,.2,1.2,.7,1.7c.4,.4,1,.6,1.6,.6Z" class="g6_50" />
<path d="M521,447.9c.6,0,1.2,-.3,1.6,-.7c.4,-.4,.7,-1,.7,-1.6c0,-.6,-.3,-1.2,-.7,-1.6c-.4,-.5,-1,-.7,-1.6,-.7c-.6,0,-1.2,.2,-1.6,.7c-.5,.4,-.7,1,-.7,1.6c0,.6,.2,1.2,.7,1.6c.4,.4,1,.7,1.6,.7Z" class="g6_50" />
<path d="M530.3,447.5c.6,0,1.2,-.3,1.6,-.7c.4,-.4,.7,-1,.7,-1.6c0,-.6,-.3,-1.2,-.7,-1.6c-.4,-.5,-1,-.7,-1.6,-.7c-.6,0,-1.2,.2,-1.6,.7c-.5,.4,-.7,1,-.7,1.6c0,.6,.2,1.2,.7,1.6c.4,.4,1,.7,1.6,.7Z" class="g6_50" />
<path d="M539.6,447c.6,0,1.2,-.3,1.6,-.7c.4,-.4,.7,-1,.7,-1.6c0,-.6,-.3,-1.2,-.7,-1.6c-.4,-.5,-1,-.7,-1.6,-.7c-.6,0,-1.2,.2,-1.6,.7c-.5,.4,-.7,1,-.7,1.6c0,.6,.2,1.2,.7,1.6c.4,.4,1,.7,1.6,.7Z" class="g6_50" />
<path d="M548.9,446.3c.6,0,1.2,-.2,1.6,-.6c.4,-.5,.7,-1.1,.7,-1.7c0,-.6,-.3,-1.2,-.7,-1.6c-.4,-.4,-1,-.7,-1.6,-.7c-.6,0,-1.2,.3,-1.6,.7c-.5,.4,-.7,1,-.7,1.6c0,.6,.2,1.2,.7,1.7c.4,.4,1,.6,1.6,.6Z" class="g6_50" />
<path d="M558.2,445.5c.6,0,1.2,-.2,1.6,-.7c.4,-.4,.7,-1,.7,-1.6c0,-.6,-.3,-1.2,-.7,-1.6c-.4,-.4,-1,-.7,-1.6,-.7c-.6,0,-1.2,.3,-1.6,.7c-.5,.4,-.7,1,-.7,1.6c0,.6,.2,1.2,.7,1.6c.4,.5,1,.7,1.6,.7Z" class="g6_50" />
<path d="M567.5,444.5c.6,0,1.2,-.3,1.6,-.7c.4,-.4,.7,-1,.7,-1.6c0,-.6,-.3,-1.2,-.7,-1.6c-.4,-.5,-1,-.7,-1.6,-.7c-.6,0,-1.2,.2,-1.6,.7c-.5,.4,-.7,1,-.7,1.6c0,.6,.2,1.2,.7,1.6c.4,.4,1,.7,1.6,.7Z" class="g6_50" />
<path d="M576.8,443.1c.6,0,1.2,-.3,1.6,-.7c.4,-.4,.7,-1,.7,-1.6c0,-.6,-.3,-1.2,-.7,-1.6c-.4,-.5,-1,-.7,-1.6,-.7c-.6,0,-1.2,.2,-1.6,.7c-.5,.4,-.7,1,-.7,1.6c0,.6,.2,1.2,.7,1.6c.4,.4,1,.7,1.6,.7Z" class="g6_50" />
<path d="M586.1,441.2c.6,0,1.2,-.3,1.6,-.7c.4,-.4,.7,-1,.7,-1.6c0,-.6,-.3,-1.2,-.7,-1.7c-.4,-.4,-1,-.6,-1.6,-.6c-.6,0,-1.2,.2,-1.6,.6c-.5,.5,-.7,1.1,-.7,1.7c0,.6,.2,1.2,.7,1.6c.4,.4,1,.7,1.6,.7Z" class="g6_50" />
<path d="M595.4,438.5c.6,0,1.2,-.3,1.6,-.7c.4,-.4,.7,-1,.7,-1.6c0,-.6,-.3,-1.2,-.7,-1.7c-.4,-.4,-1,-.6,-1.6,-.6c-.6,0,-1.2,.2,-1.6,.6c-.5,.5,-.7,1.1,-.7,1.7c0,.6,.2,1.2,.7,1.6c.4,.4,1,.7,1.6,.7Z" class="g6_50" />
<path d="M604.7,434.5c.6,0,1.2,-.3,1.6,-.7c.4,-.4,.7,-1,.7,-1.6c0,-.6,-.3,-1.2,-.7,-1.6c-.4,-.5,-1,-.7,-1.6,-.7c-.6,0,-1.2,.2,-1.6,.7c-.5,.4,-.7,1,-.7,1.6c0,.6,.2,1.2,.7,1.6c.4,.4,1,.7,1.6,.7Z" class="g6_50" />
<path d="M614,428.3c.6,0,1.2,-.2,1.6,-.7c.4,-.4,.7,-1,.7,-1.6c0,-.6,-.3,-1.2,-.7,-1.6c-.4,-.4,-1,-.7,-1.6,-.7c-.6,0,-1.2,.3,-1.6,.7c-.5,.4,-.7,1,-.7,1.6c0,.6,.2,1.2,.7,1.6c.4,.5,1,.7,1.6,.7Z" class="g6_50" />
<path d="M623.3,418.2c.6,0,1.2,-.2,1.6,-.7c.4,-.4,.7,-1,.7,-1.6c0,-.6,-.3,-1.2,-.7,-1.6c-.4,-.4,-1,-.7,-1.6,-.7c-.6,0,-1.2,.3,-1.6,.7c-.5,.4,-.7,1,-.7,1.6c0,.6,.2,1.2,.7,1.6c.4,.5,1,.7,1.6,.7Z" class="g6_50" />
<path d="M632.6,400.7c.6,0,1.2,-.2,1.6,-.7c.4,-.4,.7,-1,.7,-1.6c0,-.6,-.3,-1.2,-.7,-1.6c-.4,-.4,-1,-.7,-1.6,-.7c-.6,0,-1.2,.3,-1.6,.7c-.5,.4,-.7,1,-.7,1.6c0,.6,.2,1.2,.7,1.6c.4,.5,1,.7,1.6,.7Z" class="g6_50" />
<path d="M641.9,369.4c.6,0,1.2,-.2,1.6,-.6c.4,-.5,.7,-1,.7,-1.7c0,-.6,-.3,-1.1,-.7,-1.6c-.4,-.4,-1,-.6,-1.6,-.6c-.6,0,-1.2,.2,-1.6,.6c-.5,.5,-.7,1,-.7,1.6c0,.7,.2,1.2,.7,1.7c.4,.4,1,.6,1.6,.6Z" class="g6_50" />
<path d="M651.2,320.7c.6,0,1.2,-.3,1.6,-.7c.4,-.4,.7,-1,.7,-1.6c0,-.6,-.3,-1.2,-.7,-1.7c-.4,-.4,-1,-.6,-1.6,-.6c-.6,0,-1.2,.2,-1.6,.6c-.5,.5,-.7,1.1,-.7,1.7c0,.6,.2,1.2,.7,1.6c.4,.4,1,.7,1.6,.7Z" class="g6_50" />
<path d="M660.5,288.1c.6,0,1.2,-.2,1.6,-.6c.4,-.5,.7,-1,.7,-1.6c0,-.7,-.3,-1.2,-.7,-1.7c-.4,-.4,-1,-.6,-1.6,-.6c-.6,0,-1.2,.2,-1.6,.6c-.5,.5,-.7,1,-.7,1.7c0,.6,.2,1.1,.7,1.6c.4,.4,1,.6,1.6,.6Z" class="g6_50" />
<path d="M288.5,448.4v-3.6" class="g7_50" />
<path d="M288.5,131.6v3.7" class="g7_50" />
<path d="M381.5,448.4v-3.6" class="g7_50" />
<path d="M381.5,131.6v3.7" class="g7_50" />
<path d="M474.5,448.4v-3.6" class="g7_50" />
<path d="M474.5,131.6v3.7" class="g7_50" />
<path d="M567.5,448.4v-3.6" class="g7_50" />
<path d="M567.5,131.6v3.7" class="g7_50" />
<path d="M660.5,448.4v-3.6" class="g7_50" />
<path d="M660.5,131.6v3.7" class="g7_50" />
<path d="M269.9,448.4h3.6" class="g7_50" />
<path d="M679.1,448.4h-3.7" class="g7_50" />
<path d="M269.9,390.8h3.6" class="g7_50" />
<path d="M679.1,390.8h-3.7" class="g7_50" />
<path d="M269.9,333.2h3.6" class="g7_50" />
<path d="M679.1,333.2h-3.7" class="g7_50" />
<path d="M269.9,275.6h3.6" class="g7_50" />
<path d="M679.1,275.6h-3.7" class="g7_50" />
<path d="M269.9,218h3.6" class="g7_50" />
<path d="M679.1,218h-3.7" class="g7_50" />
<path d="M269.9,160.4h3.6" class="g7_50" />
<path d="M679.1,160.4h-3.7" class="g7_50" />
<path d="M269.9,131.6H679.1m0,316.8V131.6M269.9,448.4H679.1m-409.2,0V131.6" class="g8_50" />
<path d="M278.7,215.9H391.2V140.4H278.7v75.5Z" class="g9_50" />
<path d="M291,153.6h24.6" class="g1_50" />
<path d="M291,155.9c.6,0,1.2,-.2,1.6,-.6c.5,-.5,.7,-1.1,.7,-1.7c0,-.6,-.2,-1.2,-.7,-1.6c-.4,-.4,-1,-.7,-1.6,-.7c-.6,0,-1.2,.3,-1.6,.7c-.4,.4,-.7,1,-.7,1.6c0,.6,.3,1.2,.7,1.7c.4,.4,1,.6,1.6,.6Z" class="g2_50" />
<path d="M315.6,155.9c.7,0,1.2,-.2,1.7,-.6c.4,-.5,.6,-1.1,.6,-1.7c0,-.6,-.2,-1.2,-.6,-1.6c-.5,-.4,-1,-.7,-1.7,-.7c-.6,0,-1.1,.3,-1.6,.7c-.4,.4,-.6,1,-.6,1.6c0,.6,.2,1.2,.6,1.7c.5,.4,1,.6,1.6,.6Z" class="g2_50" />
<path d="M291,178.2h24.6" class="g3_50" />
<path d="M291,180.5c.6,0,1.2,-.3,1.6,-.7c.5,-.4,.7,-1,.7,-1.6c0,-.6,-.2,-1.2,-.7,-1.7c-.4,-.4,-1,-.6,-1.6,-.6c-.6,0,-1.2,.2,-1.6,.6c-.4,.5,-.7,1.1,-.7,1.7c0,.6,.3,1.2,.7,1.6c.4,.4,1,.7,1.6,.7Z" class="g4_50" />
<path d="M315.6,180.5c.7,0,1.2,-.3,1.7,-.7c.4,-.4,.6,-1,.6,-1.6c0,-.6,-.2,-1.2,-.6,-1.7c-.5,-.4,-1,-.6,-1.7,-.6c-.6,0,-1.1,.2,-1.6,.6c-.4,.5,-.6,1.1,-.6,1.7c0,.6,.2,1.2,.6,1.6c.5,.4,1,.7,1.6,.7Z" class="g4_50" />
<path d="M291,202.7h24.6" class="g5_50" />
<path d="M291,205c.6,0,1.2,-.3,1.6,-.7c.5,-.4,.7,-1,.7,-1.6c0,-.6,-.2,-1.2,-.7,-1.6c-.4,-.5,-1,-.7,-1.6,-.7c-.6,0,-1.2,.2,-1.6,.7c-.4,.4,-.7,1,-.7,1.6c0,.6,.3,1.2,.7,1.6c.4,.4,1,.7,1.6,.7Z" class="g6_50" />
<path d="M315.6,205c.7,0,1.2,-.3,1.7,-.7c.4,-.4,.6,-1,.6,-1.6c0,-.6,-.2,-1.2,-.6,-1.6c-.5,-.5,-1,-.7,-1.7,-.7c-.6,0,-1.1,.2,-1.6,.7c-.4,.4,-.6,1,-.6,1.6c0,.6,.2,1.2,.6,1.6c.5,.4,1,.7,1.6,.7Z" class="g6_50" />
<path d="M454.4,650.5H564.6M454.4,699.7H564.6M436.5,776.8h150M330.1,892.5h65.2m48,0h49.9m26,0h60.2" class="g10_50" />
</svg>