<?xml version="1.0" encoding="UTF-8" standalone="no"?>
<!DOCTYPE svg PUBLIC "-//W3C//DTD SVG 1.1//EN"
"http://www.w3.org/Graphics/SVG/1.1/DTD/svg11.dtd">
<svg viewBox="0 0 909 1286" version="1.1" xmlns="http://www.w3.org/2000/svg" xmlns:xlink="http://www.w3.org/1999/xlink">
<defs>
<clipPath id="c0_43"><path d="M282.4,350.4V204.2H670.8V350.4Z" /></clipPath>
<clipPath id="c1_43"><path d="M282.4,525.9V379.7H670.8V525.9Z" /></clipPath>
<style type="text/css"><![CDATA[
.g0_43{
fill: #FFFFFF;
}
.g1_43{
fill: none;
stroke: #0000FF;
stroke-width: 0.68750006;
stroke-linecap: square;
stroke-linejoin: round;
stroke-opacity: 0.5;
}
.g2_43{
fill: #0000FF;
fill-opacity: 0.5;
stroke: #000000;
stroke-width: 0.34375003;
stroke-linecap: butt;
stroke-linejoin: round;
stroke-opacity: 0.5;
}
.g3_43{
stroke: #000000;
stroke-width: 0.34375003;
stroke-linecap: butt;
stroke-linejoin: round;
}
.g4_43{
fill: none;
stroke: #000000;
stroke-width: 0.68750006;
stroke-linecap: butt;
stroke-linejoin: round;
}
]]></style>
</defs>
<path d="M235.6,557.7H678.4V198.3H235.6Z" class="g0_43" />
<path d="M282.4,350.4H670.8V204.2H282.4Z" class="g0_43" />
<g clip-path="url(#c0_43)">
<path d="M613.8,558.4l-2.1,-4l-3.1,-72.8l-3.1,-75L602.4,395l-3.1,-6.4l-3.1,-11.9l-3.1,-2.2L590,371l-3.1,-2l-3.1,-1.1l-3.1,-7.8l-3.1,-6.4l-3.1,-.5l-3.2,-2.8l-3.1,-.4l-3.1,-1.2L562,345.4l-3.1,-1.2l-3.1,-5.5l-3.1,-6.3l-3.1,-4.2l-3.1,-6l-3.1,-4l-3.1,-5l-3.1,-12.3l-3.1,-32.3L531,265.9l-3.2,-3l-3.1,-.9l-3.1,-3.6l-3.1,-8.3l-3.1,-3l-3.1,-7.2l-3.1,-1.2l-3.1,-2.8L503,234.8l-3.1,-.1l-3.1,-.9l-3.1,-.1l-3.1,-3.9l-3.1,-.7l-3.2,-3.4l-3.1,-1.4L478.1,218l-3.1,-.1l-3.1,-.6l-3.1,-1l-3.1,-2.7l-3.1,-.2l-3.1,-.7l-3.1,-1.4l-3.1,-.5l-3.1,-.5l-3.1,-.5l-3.2,-2.3h-3.1l-3.1,-.4l-3.1,-.7l-3.1,-.3l-3.1,-.2l-3.1,-1.1h-3.1l-3.1,-.1l-3.1,-.1l-3.1,-.1h-3.1l-3.1,-.1h-6.3l-3.1,-.1H388l-3.1,-.1H282.4" class="g1_43" />
<path d="M577.6,355.8c.5,0,1,-.2,1.4,-.6c.4,-.4,.6,-.9,.6,-1.5c0,-.5,-.2,-1.1,-.6,-1.4c-.4,-.4,-.9,-.7,-1.4,-.7c-.6,0,-1.1,.3,-1.5,.7c-.4,.3,-.6,.9,-.6,1.4c0,.6,.2,1.1,.6,1.5c.4,.4,.9,.6,1.5,.6Z" class="g2_43" />
<path d="M574.5,355.2c.5,0,1,-.2,1.4,-.6c.4,-.4,.6,-.9,.6,-1.4c0,-.6,-.2,-1.1,-.6,-1.5c-.4,-.4,-.9,-.6,-1.4,-.6c-.6,0,-1.1,.2,-1.5,.6c-.4,.4,-.6,.9,-.6,1.5c0,.5,.2,1,.6,1.4c.4,.4,.9,.6,1.5,.6Z" class="g2_43" />
<path d="M571.3,352.5c.6,0,1.1,-.2,1.5,-.6c.4,-.4,.6,-.9,.6,-1.5c0,-.5,-.2,-1.1,-.6,-1.4c-.4,-.4,-.9,-.6,-1.5,-.6c-.5,0,-1,.2,-1.4,.6c-.4,.3,-.6,.9,-.6,1.4c0,.6,.2,1.1,.6,1.5c.4,.4,.9,.6,1.4,.6Z" class="g2_43" />
<path d="M568.2,352.1c.6,0,1.1,-.2,1.5,-.6c.4,-.4,.6,-.9,.6,-1.5c0,-.5,-.2,-1,-.6,-1.4c-.4,-.4,-.9,-.6,-1.5,-.6c-.5,0,-1,.2,-1.4,.6c-.4,.4,-.6,.9,-.6,1.4c0,.6,.2,1.1,.6,1.5c.4,.4,.9,.6,1.4,.6Z" class="g2_43" />
<path d="M565.1,350.9c.6,0,1.1,-.3,1.5,-.6c.4,-.4,.6,-1,.6,-1.5c0,-.6,-.2,-1.1,-.6,-1.5c-.4,-.3,-.9,-.6,-1.5,-.6c-.5,0,-1,.3,-1.4,.6c-.4,.4,-.6,.9,-.6,1.5c0,.5,.2,1.1,.6,1.5c.4,.3,.9,.6,1.4,.6Z" class="g2_43" />
</g>
<path d="M562,347.4c.6,0,1.1,-.2,1.5,-.6c.4,-.4,.6,-.9,.6,-1.4c0,-.6,-.2,-1.1,-.6,-1.5c-.4,-.4,-.9,-.6,-1.5,-.6c-.5,0,-1,.2,-1.4,.6c-.4,.4,-.6,.9,-.6,1.5c0,.5,.2,1,.6,1.4c.4,.4,.9,.6,1.4,.6Z" class="g2_43" />
<path d="M558.9,346.3c.6,0,1.1,-.2,1.5,-.6c.4,-.4,.6,-.9,.6,-1.5c0,-.5,-.2,-1.1,-.6,-1.4c-.4,-.4,-.9,-.6,-1.5,-.6c-.5,0,-1.1,.2,-1.4,.6c-.4,.3,-.6,.9,-.6,1.4c0,.6,.2,1.1,.6,1.5c.3,.4,.9,.6,1.4,.6Z" class="g2_43" />
<path d="M555.8,340.7c.6,0,1.1,-.2,1.5,-.6c.4,-.3,.6,-.9,.6,-1.4c0,-.6,-.2,-1.1,-.6,-1.5c-.4,-.4,-.9,-.6,-1.5,-.6c-.5,0,-1.1,.2,-1.4,.6c-.4,.4,-.6,.9,-.6,1.5c0,.5,.2,1.1,.6,1.4c.3,.4,.9,.6,1.4,.6Z" class="g2_43" />
<path d="M552.7,334.5c.6,0,1.1,-.2,1.5,-.6c.4,-.4,.6,-.9,.6,-1.5c0,-.5,-.2,-1,-.6,-1.4c-.4,-.4,-.9,-.6,-1.5,-.6c-.5,0,-1.1,.2,-1.5,.6c-.3,.4,-.6,.9,-.6,1.4c0,.6,.3,1.1,.6,1.5c.4,.4,1,.6,1.5,.6Z" class="g2_43" />
<path d="M549.6,330.3c.5,0,1.1,-.2,1.5,-.6c.3,-.4,.6,-.9,.6,-1.5c0,-.5,-.3,-1,-.6,-1.4c-.4,-.4,-1,-.6,-1.5,-.6c-.5,0,-1.1,.2,-1.5,.6c-.3,.4,-.6,.9,-.6,1.4c0,.6,.3,1.1,.6,1.5c.4,.4,1,.6,1.5,.6Z" class="g2_43" />
<path d="M546.5,324.2c.5,0,1.1,-.2,1.4,-.6c.4,-.3,.7,-.9,.7,-1.4c0,-.6,-.3,-1.1,-.7,-1.5c-.3,-.4,-.9,-.6,-1.4,-.6c-.6,0,-1.1,.2,-1.5,.6c-.4,.4,-.6,.9,-.6,1.5c0,.5,.2,1.1,.6,1.4c.4,.4,.9,.6,1.5,.6Z" class="g2_43" />
<path d="M543.4,320.2c.5,0,1.1,-.2,1.4,-.6c.4,-.4,.6,-.9,.6,-1.4c0,-.6,-.2,-1.1,-.6,-1.5c-.3,-.4,-.9,-.6,-1.4,-.6c-.6,0,-1.1,.2,-1.5,.6c-.4,.4,-.6,.9,-.6,1.5c0,.5,.2,1,.6,1.4c.4,.4,.9,.6,1.5,.6Z" class="g2_43" />
<path d="M540.3,315.3c.5,0,1,-.2,1.4,-.6c.4,-.4,.6,-.9,.6,-1.4c0,-.6,-.2,-1.1,-.6,-1.5c-.4,-.4,-.9,-.6,-1.4,-.6c-.6,0,-1.1,.2,-1.5,.6c-.4,.4,-.6,.9,-.6,1.5c0,.5,.2,1,.6,1.4c.4,.4,.9,.6,1.5,.6Z" class="g2_43" />
<path d="M537.2,303c.5,0,1,-.2,1.4,-.6c.4,-.4,.6,-.9,.6,-1.4c0,-.6,-.2,-1.1,-.6,-1.5c-.4,-.4,-.9,-.6,-1.4,-.6c-.6,0,-1.1,.2,-1.5,.6c-.4,.4,-.6,.9,-.6,1.5c0,.5,.2,1,.6,1.4c.4,.4,.9,.6,1.5,.6Z" class="g2_43" />
<path d="M534.1,270.7c.5,0,1,-.2,1.4,-.6c.4,-.4,.6,-.9,.6,-1.4c0,-.6,-.2,-1.1,-.6,-1.5c-.4,-.4,-.9,-.6,-1.4,-.6c-.6,0,-1.1,.2,-1.5,.6c-.4,.4,-.6,.9,-.6,1.5c0,.5,.2,1,.6,1.4c.4,.4,.9,.6,1.5,.6Z" class="g2_43" />
<path d="M531,268c.5,0,1,-.2,1.4,-.6c.4,-.4,.6,-.9,.6,-1.5c0,-.5,-.2,-1,-.6,-1.4c-.4,-.4,-.9,-.6,-1.4,-.6c-.6,0,-1.1,.2,-1.5,.6c-.4,.4,-.6,.9,-.6,1.4c0,.6,.2,1.1,.6,1.5c.4,.4,.9,.6,1.5,.6Z" class="g2_43" />
<path d="M527.8,265c.6,0,1.1,-.2,1.5,-.6c.4,-.4,.6,-.9,.6,-1.4c0,-.6,-.2,-1.1,-.6,-1.5c-.4,-.4,-.9,-.6,-1.5,-.6c-.5,0,-1,.2,-1.4,.6c-.4,.4,-.6,.9,-.6,1.5c0,.5,.2,1,.6,1.4c.4,.4,.9,.6,1.4,.6Z" class="g2_43" />
<path d="M524.7,264c.6,0,1.1,-.2,1.5,-.6c.4,-.4,.6,-.9,.6,-1.4c0,-.6,-.2,-1.1,-.6,-1.5c-.4,-.4,-.9,-.6,-1.5,-.6c-.5,0,-1,.2,-1.4,.6c-.4,.4,-.6,.9,-.6,1.5c0,.5,.2,1,.6,1.4c.4,.4,.9,.6,1.4,.6Z" class="g2_43" />
<path d="M521.6,260.5c.6,0,1.1,-.2,1.5,-.6c.4,-.4,.6,-.9,.6,-1.5c0,-.5,-.2,-1,-.6,-1.4c-.4,-.4,-.9,-.6,-1.5,-.6c-.5,0,-1,.2,-1.4,.6c-.4,.4,-.6,.9,-.6,1.4c0,.6,.2,1.1,.6,1.5c.4,.4,.9,.6,1.4,.6Z" class="g2_43" />
<path d="M518.5,252.2c.6,0,1.1,-.2,1.5,-.6c.4,-.4,.6,-.9,.6,-1.4c0,-.6,-.2,-1.1,-.6,-1.5c-.4,-.4,-.9,-.6,-1.5,-.6c-.5,0,-1,.2,-1.4,.6c-.4,.4,-.6,.9,-.6,1.5c0,.5,.2,1,.6,1.4c.4,.4,.9,.6,1.4,.6Z" class="g2_43" />
<path d="M515.4,249.2c.6,0,1.1,-.2,1.5,-.6c.4,-.4,.6,-.9,.6,-1.5c0,-.5,-.2,-1,-.6,-1.4c-.4,-.4,-.9,-.6,-1.5,-.6c-.5,0,-1.1,.2,-1.4,.6c-.4,.4,-.6,.9,-.6,1.4c0,.6,.2,1.1,.6,1.5c.3,.4,.9,.6,1.4,.6Z" class="g2_43" />
<path d="M512.3,241.9c.6,0,1.1,-.2,1.5,-.6c.4,-.3,.6,-.9,.6,-1.4c0,-.6,-.2,-1.1,-.6,-1.5c-.4,-.4,-.9,-.6,-1.5,-.6c-.5,0,-1.1,.2,-1.4,.6c-.4,.4,-.7,.9,-.7,1.5c0,.5,.3,1.1,.7,1.4c.3,.4,.9,.6,1.4,.6Z" class="g2_43" />
<path d="M509.2,240.8c.5,0,1.1,-.2,1.5,-.6c.3,-.4,.6,-.9,.6,-1.4c0,-.6,-.3,-1.1,-.6,-1.5c-.4,-.4,-1,-.6,-1.5,-.6c-.5,0,-1.1,.2,-1.5,.6c-.3,.4,-.6,.9,-.6,1.5c0,.5,.3,1,.6,1.4c.4,.4,1,.6,1.5,.6Z" class="g2_43" />
<path d="M506.1,238c.5,0,1.1,-.2,1.5,-.6c.3,-.4,.6,-.9,.6,-1.5c0,-.5,-.3,-1.1,-.6,-1.5c-.4,-.3,-1,-.6,-1.5,-.6c-.6,0,-1.1,.3,-1.5,.6c-.3,.4,-.6,1,-.6,1.5c0,.6,.3,1.1,.6,1.5c.4,.4,.9,.6,1.5,.6Z" class="g2_43" />
<path d="M503,236.9c.5,0,1.1,-.2,1.4,-.6c.4,-.4,.7,-.9,.7,-1.5c0,-.5,-.3,-1,-.7,-1.4c-.3,-.4,-.9,-.6,-1.4,-.6c-.6,0,-1.1,.2,-1.5,.6c-.4,.4,-.6,.9,-.6,1.4c0,.6,.2,1.1,.6,1.5c.4,.4,.9,.6,1.5,.6Z" class="g2_43" />
<path d="M499.9,236.8c.5,0,1.1,-.2,1.4,-.6c.4,-.4,.6,-.9,.6,-1.5c0,-.5,-.2,-1,-.6,-1.4c-.3,-.4,-.9,-.6,-1.4,-.6c-.6,0,-1.1,.2,-1.5,.6c-.4,.4,-.6,.9,-.6,1.4c0,.6,.2,1.1,.6,1.5c.4,.4,.9,.6,1.5,.6Z" class="g2_43" />
<path d="M496.8,235.9c.5,0,1,-.2,1.4,-.6c.4,-.4,.6,-.9,.6,-1.5c0,-.5,-.2,-1.1,-.6,-1.4c-.4,-.4,-.9,-.6,-1.4,-.6c-.6,0,-1.1,.2,-1.5,.6c-.4,.3,-.6,.9,-.6,1.4c0,.6,.2,1.1,.6,1.5c.4,.4,.9,.6,1.5,.6Z" class="g2_43" />
<path d="M493.7,235.8c.5,0,1,-.3,1.4,-.6c.4,-.4,.6,-1,.6,-1.5c0,-.5,-.2,-1.1,-.6,-1.5c-.4,-.3,-.9,-.6,-1.4,-.6c-.6,0,-1.1,.3,-1.5,.6c-.4,.4,-.6,1,-.6,1.5c0,.5,.2,1.1,.6,1.5c.4,.3,.9,.6,1.5,.6Z" class="g2_43" />
<path d="M490.6,231.9c.5,0,1,-.2,1.4,-.6c.4,-.4,.6,-.9,.6,-1.5c0,-.5,-.2,-1,-.6,-1.4c-.4,-.4,-.9,-.6,-1.4,-.6c-.6,0,-1.1,.2,-1.5,.6c-.4,.4,-.6,.9,-.6,1.4c0,.6,.2,1.1,.6,1.5c.4,.4,.9,.6,1.5,.6Z" class="g2_43" />
<path d="M487.5,231.2c.5,0,1,-.2,1.4,-.6c.4,-.4,.6,-.9,.6,-1.4c0,-.6,-.2,-1.1,-.6,-1.5c-.4,-.4,-.9,-.6,-1.4,-.6c-.6,0,-1.1,.2,-1.5,.6c-.4,.4,-.6,.9,-.6,1.5c0,.5,.2,1,.6,1.4c.4,.4,.9,.6,1.5,.6Z" class="g2_43" />
<path d="M484.3,227.8c.6,0,1.1,-.2,1.5,-.6c.4,-.4,.6,-.9,.6,-1.5c0,-.5,-.2,-1.1,-.6,-1.4c-.4,-.4,-.9,-.7,-1.5,-.7c-.5,0,-1,.3,-1.4,.7c-.4,.3,-.6,.9,-.6,1.4c0,.6,.2,1.1,.6,1.5c.4,.4,.9,.6,1.4,.6Z" class="g2_43" />
<path d="M481.2,226.4c.6,0,1.1,-.2,1.5,-.6c.4,-.4,.6,-.9,.6,-1.5c0,-.5,-.2,-1,-.6,-1.4c-.4,-.4,-.9,-.6,-1.5,-.6c-.5,0,-1,.2,-1.4,.6c-.4,.4,-.6,.9,-.6,1.4c0,.6,.2,1.1,.6,1.5c.4,.4,.9,.6,1.4,.6Z" class="g2_43" />
<path d="M478.1,220.1c.6,0,1.1,-.3,1.5,-.6c.4,-.4,.6,-1,.6,-1.5c0,-.6,-.2,-1.1,-.6,-1.5c-.4,-.3,-.9,-.6,-1.5,-.6c-.5,0,-1,.3,-1.4,.6c-.4,.4,-.6,.9,-.6,1.5c0,.5,.2,1.1,.6,1.5c.4,.3,.9,.6,1.4,.6Z" class="g2_43" />
<path d="M475,220c.6,0,1.1,-.2,1.5,-.6c.4,-.4,.6,-.9,.6,-1.4c0,-.6,-.2,-1.1,-.6,-1.5c-.4,-.4,-.9,-.6,-1.5,-.6c-.5,0,-1,.2,-1.4,.6c-.4,.4,-.6,.9,-.6,1.5c0,.5,.2,1,.6,1.4c.4,.4,.9,.6,1.4,.6Z" class="g2_43" />
<path d="M471.9,219.4c.6,0,1.1,-.2,1.5,-.6c.4,-.4,.6,-.9,.6,-1.5c0,-.5,-.2,-1.1,-.6,-1.4c-.4,-.4,-.9,-.7,-1.5,-.7c-.5,0,-1.1,.3,-1.4,.7c-.4,.3,-.6,.9,-.6,1.4c0,.6,.2,1.1,.6,1.5c.3,.4,.9,.6,1.4,.6Z" class="g2_43" />
<path d="M468.8,218.4c.6,0,1.1,-.3,1.5,-.6c.4,-.4,.6,-1,.6,-1.5c0,-.5,-.2,-1.1,-.6,-1.5c-.4,-.3,-.9,-.6,-1.5,-.6c-.5,0,-1.1,.3,-1.5,.6c-.3,.4,-.6,1,-.6,1.5c0,.5,.3,1.1,.6,1.5c.4,.3,1,.6,1.5,.6Z" class="g2_43" />
<path d="M465.7,215.6c.5,0,1.1,-.2,1.5,-.6c.3,-.4,.6,-.9,.6,-1.4c0,-.6,-.3,-1.1,-.6,-1.5c-.4,-.4,-1,-.6,-1.5,-.6c-.5,0,-1.1,.2,-1.5,.6c-.3,.4,-.6,.9,-.6,1.5c0,.5,.3,1,.6,1.4c.4,.4,1,.6,1.5,.6Z" class="g2_43" />
<path d="M462.6,215.5c.5,0,1.1,-.2,1.5,-.6c.3,-.4,.6,-.9,.6,-1.4c0,-.6,-.3,-1.1,-.6,-1.5c-.4,-.4,-1,-.6,-1.5,-.6c-.6,0,-1.1,.2,-1.5,.6c-.4,.4,-.6,.9,-.6,1.5c0,.5,.2,1,.6,1.4c.4,.4,.9,.6,1.5,.6Z" class="g2_43" />
<path d="M459.5,214.8c.5,0,1.1,-.2,1.4,-.6c.4,-.4,.6,-.9,.6,-1.5c0,-.5,-.2,-1,-.6,-1.4c-.3,-.4,-.9,-.6,-1.4,-.6c-.6,0,-1.1,.2,-1.5,.6c-.4,.4,-.6,.9,-.6,1.4c0,.6,.2,1.1,.6,1.5c.4,.4,.9,.6,1.5,.6Z" class="g2_43" />
<path d="M456.4,213.3c.5,0,1,-.2,1.4,-.6c.4,-.4,.6,-.9,.6,-1.4c0,-.6,-.2,-1.1,-.6,-1.5c-.4,-.4,-.9,-.6,-1.4,-.6c-.6,0,-1.1,.2,-1.5,.6c-.4,.4,-.6,.9,-.6,1.5c0,.5,.2,1,.6,1.4c.4,.4,.9,.6,1.5,.6Z" class="g2_43" />
<path d="M453.3,212.9c.5,0,1,-.3,1.4,-.6c.4,-.4,.6,-1,.6,-1.5c0,-.5,-.2,-1.1,-.6,-1.5c-.4,-.3,-.9,-.6,-1.4,-.6c-.6,0,-1.1,.3,-1.5,.6c-.4,.4,-.6,1,-.6,1.5c0,.5,.2,1.1,.6,1.5c.4,.3,.9,.6,1.5,.6Z" class="g2_43" />
<path d="M450.2,212.4c.5,0,1,-.2,1.4,-.6c.4,-.4,.6,-.9,.6,-1.5c0,-.5,-.2,-1.1,-.6,-1.4c-.4,-.4,-.9,-.6,-1.4,-.6c-.6,0,-1.1,.2,-1.5,.6c-.4,.3,-.6,.9,-.6,1.4c0,.6,.2,1.1,.6,1.5c.4,.4,.9,.6,1.5,.6Z" class="g2_43" />
<path d="M447.1,211.9c.5,0,1,-.2,1.4,-.6c.4,-.4,.6,-.9,.6,-1.5c0,-.5,-.2,-1.1,-.6,-1.4c-.4,-.4,-.9,-.6,-1.4,-.6c-.6,0,-1.1,.2,-1.5,.6c-.4,.3,-.6,.9,-.6,1.4c0,.6,.2,1.1,.6,1.5c.4,.4,.9,.6,1.5,.6Z" class="g2_43" />
<path d="M443.9,209.6c.6,0,1.1,-.2,1.5,-.6c.4,-.4,.6,-.9,.6,-1.5c0,-.5,-.2,-1,-.6,-1.4c-.4,-.4,-.9,-.6,-1.5,-.6c-.5,0,-1,.2,-1.4,.6c-.4,.4,-.6,.9,-.6,1.4c0,.6,.2,1.1,.6,1.5c.4,.4,.9,.6,1.4,.6Z" class="g2_43" />
<path d="M440.8,209.6c.6,0,1.1,-.2,1.5,-.6c.4,-.4,.6,-.9,.6,-1.5c0,-.5,-.2,-1.1,-.6,-1.4c-.4,-.4,-.9,-.6,-1.5,-.6c-.5,0,-1,.2,-1.4,.6c-.4,.3,-.6,.9,-.6,1.4c0,.6,.2,1.1,.6,1.5c.4,.4,.9,.6,1.4,.6Z" class="g2_43" />
<path d="M437.7,209.1c.6,0,1.1,-.2,1.5,-.6c.4,-.3,.6,-.9,.6,-1.4c0,-.6,-.2,-1.1,-.6,-1.5c-.4,-.4,-.9,-.6,-1.5,-.6c-.5,0,-1,.2,-1.4,.6c-.4,.4,-.6,.9,-.6,1.5c0,.5,.2,1.1,.6,1.4c.4,.4,.9,.6,1.4,.6Z" class="g2_43" />
<path d="M434.6,208.5c.6,0,1.1,-.2,1.5,-.6c.4,-.4,.6,-.9,.6,-1.4c0,-.6,-.2,-1.1,-.6,-1.5c-.4,-.4,-.9,-.6,-1.5,-.6c-.5,0,-1,.2,-1.4,.6c-.4,.4,-.6,.9,-.6,1.5c0,.5,.2,1,.6,1.4c.4,.4,.9,.6,1.4,.6Z" class="g2_43" />
<g clip-path="url(#c0_43)">
<path d="M431.5,208.2c.6,0,1.1,-.3,1.5,-.7c.4,-.3,.6,-.9,.6,-1.4c0,-.6,-.2,-1.1,-.6,-1.5c-.4,-.4,-.9,-.6,-1.5,-.6c-.5,0,-1.1,.2,-1.4,.6c-.4,.4,-.6,.9,-.6,1.5c0,.5,.2,1.1,.6,1.4c.3,.4,.9,.7,1.4,.7Z" class="g2_43" />
<path d="M428.4,208c.6,0,1.1,-.2,1.5,-.6c.4,-.4,.6,-.9,.6,-1.5c0,-.5,-.2,-1.1,-.6,-1.5c-.4,-.3,-.9,-.6,-1.5,-.6c-.5,0,-1.1,.3,-1.4,.6c-.4,.4,-.7,1,-.7,1.5c0,.6,.3,1.1,.7,1.5c.3,.4,.9,.6,1.4,.6Z" class="g2_43" />
<path d="M425.3,206.8c.6,0,1.1,-.2,1.5,-.6c.3,-.3,.6,-.9,.6,-1.4c0,-.6,-.3,-1.1,-.6,-1.5c-.4,-.4,-.9,-.6,-1.5,-.6c-.5,0,-1.1,.2,-1.5,.6c-.3,.4,-.6,.9,-.6,1.5c0,.5,.3,1.1,.6,1.4c.4,.4,1,.6,1.5,.6Z" class="g2_43" />
<path d="M422.2,206.8c.5,0,1.1,-.2,1.5,-.6c.3,-.4,.6,-.9,.6,-1.4c0,-.6,-.3,-1.1,-.6,-1.5c-.4,-.4,-1,-.6,-1.5,-.6c-.6,0,-1.1,.2,-1.5,.6c-.3,.4,-.6,.9,-.6,1.5c0,.5,.3,1,.6,1.4c.4,.4,.9,.6,1.5,.6Z" class="g2_43" />
<path d="M419.1,206.8c.5,0,1.1,-.3,1.4,-.6c.4,-.4,.7,-1,.7,-1.5c0,-.5,-.3,-1.1,-.7,-1.5c-.3,-.3,-.9,-.6,-1.4,-.6c-.6,0,-1.1,.3,-1.5,.6c-.4,.4,-.6,1,-.6,1.5c0,.5,.2,1.1,.6,1.5c.4,.3,.9,.6,1.5,.6Z" class="g2_43" />
<path d="M416,206.7c.5,0,1.1,-.2,1.4,-.6c.4,-.4,.6,-.9,.6,-1.5c0,-.5,-.2,-1,-.6,-1.4c-.3,-.4,-.9,-.6,-1.4,-.6c-.6,0,-1.1,.2,-1.5,.6c-.4,.4,-.6,.9,-.6,1.4c0,.6,.2,1.1,.6,1.5c.4,.4,.9,.6,1.5,.6Z" class="g2_43" />
<path d="M412.9,206.6c.5,0,1,-.2,1.4,-.6c.4,-.4,.6,-.9,.6,-1.5c0,-.5,-.2,-1.1,-.6,-1.5c-.4,-.3,-.9,-.6,-1.4,-.6c-.6,0,-1.1,.3,-1.5,.6c-.4,.4,-.6,1,-.6,1.5c0,.6,.2,1.1,.6,1.5c.4,.4,.9,.6,1.5,.6Z" class="g2_43" />
<path d="M409.8,206.6c.5,0,1,-.3,1.4,-.6c.4,-.4,.6,-.9,.6,-1.5c0,-.5,-.2,-1.1,-.6,-1.5c-.4,-.3,-.9,-.6,-1.4,-.6c-.6,0,-1.1,.3,-1.5,.6c-.4,.4,-.6,1,-.6,1.5c0,.6,.2,1.1,.6,1.5c.4,.3,.9,.6,1.5,.6Z" class="g2_43" />
<path d="M406.7,206.5c.5,0,1,-.2,1.4,-.6c.4,-.4,.6,-.9,.6,-1.5c0,-.5,-.2,-1,-.6,-1.4c-.4,-.4,-.9,-.6,-1.4,-.6c-.6,0,-1.1,.2,-1.5,.6c-.4,.4,-.6,.9,-.6,1.4c0,.6,.2,1.1,.6,1.5c.4,.4,.9,.6,1.5,.6Z" class="g2_43" />
<path d="M403.6,206.5c.5,0,1,-.2,1.4,-.6c.4,-.4,.6,-.9,.6,-1.5c0,-.5,-.2,-1,-.6,-1.4c-.4,-.4,-.9,-.6,-1.4,-.6c-.6,0,-1.1,.2,-1.5,.6c-.4,.4,-.6,.9,-.6,1.4c0,.6,.2,1.1,.6,1.5c.4,.4,.9,.6,1.5,.6Z" class="g2_43" />
<path d="M400.4,206.5c.6,0,1.1,-.3,1.5,-.6c.4,-.4,.6,-1,.6,-1.5c0,-.6,-.2,-1.1,-.6,-1.5c-.4,-.4,-.9,-.6,-1.5,-.6c-.5,0,-1,.2,-1.4,.6c-.4,.4,-.6,.9,-.6,1.5c0,.5,.2,1.1,.6,1.5c.4,.3,.9,.6,1.4,.6Z" class="g2_43" />
<path d="M397.3,206.4c.6,0,1.1,-.2,1.5,-.6c.4,-.4,.6,-.9,.6,-1.5c0,-.5,-.2,-1,-.6,-1.4c-.4,-.4,-.9,-.6,-1.5,-.6c-.5,0,-1,.2,-1.4,.6c-.4,.4,-.6,.9,-.6,1.4c0,.6,.2,1.1,.6,1.5c.4,.4,.9,.6,1.4,.6Z" class="g2_43" />
<path d="M394.2,206.4c.6,0,1.1,-.2,1.5,-.6c.4,-.4,.6,-.9,.6,-1.5c0,-.5,-.2,-1,-.6,-1.4c-.4,-.4,-.9,-.6,-1.5,-.6c-.5,0,-1,.2,-1.4,.6c-.4,.4,-.6,.9,-.6,1.4c0,.6,.2,1.1,.6,1.5c.4,.4,.9,.6,1.4,.6Z" class="g2_43" />
<path d="M391.1,206.4c.6,0,1.1,-.2,1.5,-.6c.4,-.4,.6,-.9,.6,-1.5c0,-.5,-.2,-1,-.6,-1.4c-.4,-.4,-.9,-.6,-1.5,-.6c-.5,0,-1,.2,-1.4,.6c-.4,.4,-.6,.9,-.6,1.4c0,.6,.2,1.1,.6,1.5c.4,.4,.9,.6,1.4,.6Z" class="g2_43" />
<path d="M388,206.4c.6,0,1.1,-.3,1.5,-.6c.4,-.4,.6,-1,.6,-1.5c0,-.6,-.2,-1.1,-.6,-1.5c-.4,-.4,-.9,-.6,-1.5,-.6c-.5,0,-1.1,.2,-1.4,.6c-.4,.4,-.6,.9,-.6,1.5c0,.5,.2,1.1,.6,1.5c.3,.3,.9,.6,1.4,.6Z" class="g2_43" />
<path d="M384.9,206.3c.6,0,1.1,-.2,1.5,-.6c.4,-.4,.6,-.9,.6,-1.5c0,-.5,-.2,-1,-.6,-1.4c-.4,-.4,-.9,-.6,-1.5,-.6c-.5,0,-1.1,.2,-1.4,.6c-.4,.4,-.7,.9,-.7,1.4c0,.6,.3,1.1,.7,1.5c.3,.4,.9,.6,1.4,.6Z" class="g2_43" />
<path d="M381.8,206.3c.5,0,1.1,-.2,1.5,-.6c.3,-.4,.6,-.9,.6,-1.5c0,-.5,-.3,-1,-.6,-1.4c-.4,-.4,-1,-.6,-1.5,-.6c-.5,0,-1.1,.2,-1.5,.6c-.3,.4,-.6,.9,-.6,1.4c0,.6,.3,1.1,.6,1.5c.4,.4,1,.6,1.5,.6Z" class="g2_43" />
<path d="M378.7,206.3c.5,0,1.1,-.2,1.5,-.6c.3,-.4,.6,-.9,.6,-1.5c0,-.5,-.3,-1.1,-.6,-1.4c-.4,-.4,-1,-.6,-1.5,-.6c-.6,0,-1.1,.2,-1.5,.6c-.4,.3,-.6,.9,-.6,1.4c0,.6,.2,1.1,.6,1.5c.4,.4,.9,.6,1.5,.6Z" class="g2_43" />
<path d="M375.6,206.3c.5,0,1.1,-.2,1.4,-.6c.4,-.4,.6,-.9,.6,-1.5c0,-.5,-.2,-1.1,-.6,-1.4c-.3,-.4,-.9,-.6,-1.4,-.6c-.6,0,-1.1,.2,-1.5,.6c-.4,.3,-.6,.9,-.6,1.4c0,.6,.2,1.1,.6,1.5c.4,.4,.9,.6,1.5,.6Z" class="g2_43" />
<path d="M372.5,206.3c.5,0,1.1,-.2,1.4,-.6c.4,-.4,.6,-.9,.6,-1.5c0,-.5,-.2,-1.1,-.6,-1.5c-.3,-.3,-.9,-.6,-1.4,-.6c-.6,0,-1.1,.3,-1.5,.6c-.4,.4,-.6,1,-.6,1.5c0,.6,.2,1.1,.6,1.5c.4,.4,.9,.6,1.5,.6Z" class="g2_43" />
<path d="M369.4,206.3c.5,0,1,-.2,1.4,-.6c.4,-.4,.6,-.9,.6,-1.5c0,-.5,-.2,-1.1,-.6,-1.5c-.4,-.3,-.9,-.6,-1.4,-.6c-.6,0,-1.1,.3,-1.5,.6c-.4,.4,-.6,1,-.6,1.5c0,.6,.2,1.1,.6,1.5c.4,.4,.9,.6,1.5,.6Z" class="g2_43" />
<path d="M366.3,206.3c.5,0,1,-.3,1.4,-.6c.4,-.4,.6,-.9,.6,-1.5c0,-.5,-.2,-1.1,-.6,-1.5c-.4,-.3,-.9,-.6,-1.4,-.6c-.6,0,-1.1,.3,-1.5,.6c-.4,.4,-.6,1,-.6,1.5c0,.6,.2,1.1,.6,1.5c.4,.3,.9,.6,1.5,.6Z" class="g2_43" />
<path d="M363.2,206.2c.5,0,1,-.2,1.4,-.6c.4,-.3,.6,-.9,.6,-1.4c0,-.6,-.2,-1.1,-.6,-1.5c-.4,-.4,-.9,-.6,-1.4,-.6c-.6,0,-1.1,.2,-1.5,.6c-.4,.4,-.6,.9,-.6,1.5c0,.5,.2,1.1,.6,1.4c.4,.4,.9,.6,1.5,.6Z" class="g2_43" />
<path d="M360,206.2c.6,0,1.1,-.2,1.5,-.6c.4,-.3,.6,-.9,.6,-1.4c0,-.6,-.2,-1.1,-.6,-1.5c-.4,-.4,-.9,-.6,-1.5,-.6c-.5,0,-1,.2,-1.4,.6c-.4,.4,-.6,.9,-.6,1.5c0,.5,.2,1.1,.6,1.4c.4,.4,.9,.6,1.4,.6Z" class="g2_43" />
<path d="M356.9,206.2c.6,0,1.1,-.2,1.5,-.6c.4,-.4,.6,-.9,.6,-1.4c0,-.6,-.2,-1.1,-.6,-1.5c-.4,-.4,-.9,-.6,-1.5,-.6c-.5,0,-1,.2,-1.4,.6c-.4,.4,-.6,.9,-.6,1.5c0,.5,.2,1,.6,1.4c.4,.4,.9,.6,1.4,.6Z" class="g2_43" />
<path d="M353.8,206.2c.6,0,1.1,-.2,1.5,-.6c.4,-.4,.6,-.9,.6,-1.4c0,-.6,-.2,-1.1,-.6,-1.5c-.4,-.4,-.9,-.6,-1.5,-.6c-.5,0,-1,.2,-1.4,.6c-.4,.4,-.6,.9,-.6,1.5c0,.5,.2,1,.6,1.4c.4,.4,.9,.6,1.4,.6Z" class="g2_43" />
<path d="M350.7,206.2c.6,0,1.1,-.2,1.5,-.6c.4,-.4,.6,-.9,.6,-1.4c0,-.6,-.2,-1.1,-.6,-1.5c-.4,-.4,-.9,-.6,-1.5,-.6c-.5,0,-1,.2,-1.4,.6c-.4,.4,-.6,.9,-.6,1.5c0,.5,.2,1,.6,1.4c.4,.4,.9,.6,1.4,.6Z" class="g2_43" />
<path d="M347.6,206.2c.6,0,1.1,-.2,1.5,-.6c.4,-.4,.6,-.9,.6,-1.4c0,-.6,-.2,-1.1,-.6,-1.5c-.4,-.4,-.9,-.6,-1.5,-.6c-.5,0,-1.1,.2,-1.4,.6c-.4,.4,-.6,.9,-.6,1.5c0,.5,.2,1,.6,1.4c.3,.4,.9,.6,1.4,.6Z" class="g2_43" />
<path d="M344.5,206.2c.6,0,1.1,-.2,1.5,-.6c.4,-.4,.6,-.9,.6,-1.4c0,-.6,-.2,-1.1,-.6,-1.5c-.4,-.4,-.9,-.6,-1.5,-.6c-.5,0,-1.1,.2,-1.4,.6c-.4,.4,-.6,.9,-.6,1.5c0,.5,.2,1,.6,1.4c.3,.4,.9,.6,1.4,.6Z" class="g2_43" />
<path d="M341.4,206.2c.6,0,1.1,-.2,1.5,-.6c.4,-.4,.6,-.9,.6,-1.4c0,-.6,-.2,-1.1,-.6,-1.5c-.4,-.4,-.9,-.6,-1.5,-.6c-.5,0,-1.1,.2,-1.5,.6c-.3,.4,-.6,.9,-.6,1.5c0,.5,.3,1,.6,1.4c.4,.4,1,.6,1.5,.6Z" class="g2_43" />
<path d="M338.3,206.2c.5,0,1.1,-.2,1.5,-.6c.3,-.4,.6,-.9,.6,-1.4c0,-.6,-.3,-1.1,-.6,-1.5c-.4,-.4,-1,-.6,-1.5,-.6c-.5,0,-1.1,.2,-1.5,.6c-.3,.4,-.6,.9,-.6,1.5c0,.5,.3,1,.6,1.4c.4,.4,1,.6,1.5,.6Z" class="g2_43" />
<path d="M335.2,206.2c.5,0,1.1,-.2,1.4,-.6c.4,-.4,.7,-.9,.7,-1.4c0,-.6,-.3,-1.1,-.7,-1.5c-.3,-.4,-.9,-.6,-1.4,-.6c-.6,0,-1.1,.2,-1.5,.6c-.4,.4,-.6,.9,-.6,1.5c0,.5,.2,1,.6,1.4c.4,.4,.9,.6,1.5,.6Z" class="g2_43" />
<path d="M332.1,206.2c.5,0,1.1,-.2,1.4,-.6c.4,-.4,.6,-.9,.6,-1.4c0,-.6,-.2,-1.1,-.6,-1.5c-.3,-.4,-.9,-.6,-1.4,-.6c-.6,0,-1.1,.2,-1.5,.6c-.4,.4,-.6,.9,-.6,1.5c0,.5,.2,1,.6,1.4c.4,.4,.9,.6,1.5,.6Z" class="g2_43" />
<path d="M329,206.2c.5,0,1,-.2,1.4,-.6c.4,-.4,.6,-.9,.6,-1.4c0,-.6,-.2,-1.1,-.6,-1.5c-.4,-.4,-.9,-.6,-1.4,-.6c-.6,0,-1.1,.2,-1.5,.6c-.4,.4,-.6,.9,-.6,1.5c0,.5,.2,1,.6,1.4c.4,.4,.9,.6,1.5,.6Z" class="g2_43" />
<path d="M325.9,206.2c.5,0,1,-.2,1.4,-.6c.4,-.4,.6,-.9,.6,-1.4c0,-.6,-.2,-1.1,-.6,-1.5c-.4,-.4,-.9,-.6,-1.4,-.6c-.6,0,-1.1,.2,-1.5,.6c-.4,.4,-.6,.9,-.6,1.5c0,.5,.2,1,.6,1.4c.4,.4,.9,.6,1.5,.6Z" class="g2_43" />
<path d="M322.8,206.2c.5,0,1,-.2,1.4,-.6c.4,-.4,.6,-.9,.6,-1.4c0,-.6,-.2,-1.1,-.6,-1.5c-.4,-.4,-.9,-.6,-1.4,-.6c-.6,0,-1.1,.2,-1.5,.6c-.4,.4,-.6,.9,-.6,1.5c0,.5,.2,1,.6,1.4c.4,.4,.9,.6,1.5,.6Z" class="g2_43" />
<path d="M319.7,206.2c.5,0,1,-.2,1.4,-.6c.4,-.4,.6,-.9,.6,-1.4c0,-.6,-.2,-1.1,-.6,-1.5c-.4,-.4,-.9,-.6,-1.4,-.6c-.6,0,-1.1,.2,-1.5,.6c-.4,.4,-.6,.9,-.6,1.5c0,.5,.2,1,.6,1.4c.4,.4,.9,.6,1.5,.6Z" class="g2_43" />
<path d="M316.5,206.2c.6,0,1.1,-.2,1.5,-.6c.4,-.4,.6,-.9,.6,-1.4c0,-.6,-.2,-1.1,-.6,-1.5c-.4,-.4,-.9,-.6,-1.5,-.6c-.5,0,-1,.2,-1.4,.6c-.4,.4,-.6,.9,-.6,1.5c0,.5,.2,1,.6,1.4c.4,.4,.9,.6,1.4,.6Z" class="g2_43" />
<path d="M313.4,206.2c.6,0,1.1,-.2,1.5,-.6c.4,-.4,.6,-.9,.6,-1.4c0,-.6,-.2,-1.1,-.6,-1.5c-.4,-.4,-.9,-.6,-1.5,-.6c-.5,0,-1,.2,-1.4,.6c-.4,.4,-.6,.9,-.6,1.5c0,.5,.2,1,.6,1.4c.4,.4,.9,.6,1.4,.6Z" class="g2_43" />
<path d="M310.3,206.2c.6,0,1.1,-.2,1.5,-.6c.4,-.4,.6,-.9,.6,-1.4c0,-.6,-.2,-1.1,-.6,-1.5c-.4,-.4,-.9,-.6,-1.5,-.6c-.5,0,-1,.2,-1.4,.6c-.4,.4,-.6,.9,-.6,1.5c0,.5,.2,1,.6,1.4c.4,.4,.9,.6,1.4,.6Z" class="g2_43" />
<path d="M307.2,206.2c.6,0,1.1,-.2,1.5,-.6c.4,-.4,.6,-.9,.6,-1.4c0,-.6,-.2,-1.1,-.6,-1.5c-.4,-.4,-.9,-.6,-1.5,-.6c-.5,0,-1,.2,-1.4,.6c-.4,.4,-.6,.9,-.6,1.5c0,.5,.2,1,.6,1.4c.4,.4,.9,.6,1.4,.6Z" class="g2_43" />
<path d="M304.1,206.2c.6,0,1.1,-.2,1.5,-.6c.4,-.4,.6,-.9,.6,-1.4c0,-.6,-.2,-1.1,-.6,-1.5c-.4,-.4,-.9,-.6,-1.5,-.6c-.5,0,-1.1,.2,-1.4,.6c-.4,.4,-.6,.9,-.6,1.5c0,.5,.2,1,.6,1.4c.3,.4,.9,.6,1.4,.6Z" class="g2_43" />
<path d="M301,206.2c.6,0,1.1,-.2,1.5,-.6c.4,-.4,.6,-.9,.6,-1.4c0,-.6,-.2,-1.1,-.6,-1.5c-.4,-.4,-.9,-.6,-1.5,-.6c-.5,0,-1.1,.2,-1.4,.6c-.4,.4,-.7,.9,-.7,1.5c0,.5,.3,1,.7,1.4c.3,.4,.9,.6,1.4,.6Z" class="g2_43" />
<path d="M297.9,206.2c.5,0,1.1,-.2,1.5,-.6c.3,-.4,.6,-.9,.6,-1.4c0,-.6,-.3,-1.1,-.6,-1.5c-.4,-.4,-1,-.6,-1.5,-.6c-.5,0,-1.1,.2,-1.5,.6c-.3,.4,-.6,.9,-.6,1.5c0,.5,.3,1,.6,1.4c.4,.4,1,.6,1.5,.6Z" class="g2_43" />
<path d="M294.8,206.2c.5,0,1.1,-.2,1.5,-.6c.3,-.4,.6,-.9,.6,-1.4c0,-.6,-.3,-1.1,-.6,-1.5c-.4,-.4,-1,-.6,-1.5,-.6c-.6,0,-1.1,.2,-1.5,.6c-.3,.4,-.6,.9,-.6,1.5c0,.5,.3,1,.6,1.4c.4,.4,.9,.6,1.5,.6Z" class="g2_43" />
<path d="M291.7,206.2c.5,0,1.1,-.2,1.4,-.6c.4,-.4,.7,-.9,.7,-1.4c0,-.6,-.3,-1.1,-.7,-1.5c-.3,-.4,-.9,-.6,-1.4,-.6c-.6,0,-1.1,.2,-1.5,.6c-.4,.4,-.6,.9,-.6,1.5c0,.5,.2,1,.6,1.4c.4,.4,.9,.6,1.5,.6Z" class="g2_43" />
<path d="M288.6,206.2c.5,0,1.1,-.2,1.4,-.6c.4,-.4,.6,-.9,.6,-1.4c0,-.6,-.2,-1.1,-.6,-1.5c-.3,-.4,-.9,-.6,-1.4,-.6c-.6,0,-1.1,.2,-1.5,.6c-.4,.4,-.6,.9,-.6,1.5c0,.5,.2,1,.6,1.4c.4,.4,.9,.6,1.5,.6Z" class="g2_43" />
<path d="M285.5,206.2c.5,0,1,-.2,1.4,-.6c.4,-.4,.6,-.9,.6,-1.4c0,-.6,-.2,-1.1,-.6,-1.5c-.4,-.4,-.9,-.6,-1.4,-.6c-.6,0,-1.1,.2,-1.5,.6c-.4,.4,-.6,.9,-.6,1.5c0,.5,.2,1,.6,1.4c.4,.4,.9,.6,1.5,.6Z" class="g2_43" />
<path d="M282.4,206.2c.5,0,1,-.2,1.4,-.6c.4,-.4,.6,-.9,.6,-1.4c0,-.6,-.2,-1.1,-.6,-1.5c-.4,-.4,-.9,-.6,-1.4,-.6c-.6,0,-1.1,.2,-1.5,.6c-.4,.4,-.6,.9,-.6,1.5c0,.5,.2,1,.6,1.4c.4,.4,.9,.6,1.5,.6Z" class="g2_43" />
</g>
<path d="M282.4,350.4v-2.7" class="g3_43" />
<path d="M282.4,204.2v2.7" class="g3_43" />
<path d="M360,350.4v-2.7" class="g3_43" />
<path d="M360,204.2v2.7" class="g3_43" />
<path d="M437.7,350.4v-2.7" class="g3_43" />
<path d="M437.7,204.2v2.7" class="g3_43" />
<path d="M515.4,350.4v-2.7" class="g3_43" />
<path d="M515.4,204.2v2.7" class="g3_43" />
<path d="M593.1,350.4v-2.7" class="g3_43" />
<path d="M593.1,204.2v2.7" class="g3_43" />
<path d="M670.8,350.4v-2.7" class="g3_43" />
<path d="M670.8,204.2v2.7" class="g3_43" />
<path d="M282.4,329h2.7" class="g3_43" />
<path d="M670.8,329H668" class="g3_43" />
<path d="M282.4,288.7h2.7" class="g3_43" />
<path d="M670.8,288.7H668" class="g3_43" />
<path d="M282.4,248.4h2.7" class="g3_43" />
<path d="M670.8,248.4H668" class="g3_43" />
<path d="M282.4,208.1h2.7" class="g3_43" />
<path d="M670.8,208.1H668" class="g3_43" />
<path d="M282.4,204.2H670.8m0,146.2V204.2M282.4,350.4H670.8m-388.4,0V204.2" class="g4_43" />
<path d="M282.4,525.9H670.8V379.7H282.4Z" class="g0_43" />
<path d="M667.7,525.9H462.6l-3.1,-.1l-3.1,-.2l-3.1,-.2l-3.1,-.3l-3.1,-.3l-3.2,-14.6l-3.1,2.4L437.7,507l-3.1,-14.7l-3.1,-9.5l-3.1,-1.3L425.3,379.7L422.2,404l-3.1,13.4L416,429.9l-3.1,3.4l-3.1,16.4l-3.1,9.2L403.6,471l-3.2,6.9l-3.1,6.1l-3.1,7.6l-3.1,6l-3.1,3.9l-3.1,2.9l-3.1,3.9l-3.1,3l-3.1,2.5l-3.1,2.1l-3.1,1.8l-3.1,1.5l-3.1,1.1l-3.2,1l-3.1,.8l-3.1,.7l-3.1,.5l-3.1,.5l-3.1,.4l-3.1,.3l-3.1,.2l-3.1,.3l-3.1,.1l-3.1,.2l-3.1,.1l-3.1,.1l-3.1,.1h-3.2l-3.1,.1h-6.2l-3.1,.1H291.7l-3.1,.1h-6.2" class="g1_43" />
<g clip-path="url(#c1_43)">
<path d="M667.7,528c.5,0,1,-.3,1.4,-.6c.4,-.4,.6,-1,.6,-1.5c0,-.5,-.2,-1.1,-.6,-1.5c-.4,-.3,-.9,-.6,-1.4,-.6c-.6,0,-1.1,.3,-1.5,.6c-.4,.4,-.6,1,-.6,1.5c0,.5,.2,1.1,.6,1.5c.4,.3,.9,.6,1.5,.6Z" class="g2_43" />
<path d="M664.6,528c.5,0,1,-.3,1.4,-.6c.4,-.4,.6,-1,.6,-1.5c0,-.5,-.2,-1.1,-.6,-1.5c-.4,-.3,-.9,-.6,-1.4,-.6c-.6,0,-1.1,.3,-1.5,.6c-.4,.4,-.6,1,-.6,1.5c0,.5,.2,1.1,.6,1.5c.4,.3,.9,.6,1.5,.6Z" class="g2_43" />
<path d="M661.5,528c.5,0,1,-.3,1.4,-.6c.4,-.4,.6,-1,.6,-1.5c0,-.5,-.2,-1.1,-.6,-1.5c-.4,-.3,-.9,-.6,-1.4,-.6c-.6,0,-1.1,.3,-1.5,.6c-.4,.4,-.6,1,-.6,1.5c0,.5,.2,1.1,.6,1.5c.4,.3,.9,.6,1.5,.6Z" class="g2_43" />
<path d="M658.4,528c.5,0,1,-.3,1.4,-.6c.4,-.4,.6,-1,.6,-1.5c0,-.5,-.2,-1.1,-.6,-1.5c-.4,-.3,-.9,-.6,-1.4,-.6c-.6,0,-1.1,.3,-1.5,.6c-.4,.4,-.6,1,-.6,1.5c0,.5,.2,1.1,.6,1.5c.4,.3,.9,.6,1.5,.6Z" class="g2_43" />
<path d="M655.2,528c.6,0,1.1,-.3,1.5,-.6c.4,-.4,.6,-1,.6,-1.5c0,-.5,-.2,-1.1,-.6,-1.5c-.4,-.3,-.9,-.6,-1.5,-.6c-.5,0,-1,.3,-1.4,.6c-.4,.4,-.6,1,-.6,1.5c0,.5,.2,1.1,.6,1.5c.4,.3,.9,.6,1.4,.6Z" class="g2_43" />
<path d="M652.1,528c.6,0,1.1,-.3,1.5,-.6c.4,-.4,.6,-1,.6,-1.5c0,-.5,-.2,-1.1,-.6,-1.5c-.4,-.3,-.9,-.6,-1.5,-.6c-.5,0,-1,.3,-1.4,.6c-.4,.4,-.6,1,-.6,1.5c0,.5,.2,1.1,.6,1.5c.4,.3,.9,.6,1.4,.6Z" class="g2_43" />
<path d="M649,528c.6,0,1.1,-.3,1.5,-.6c.4,-.4,.6,-1,.6,-1.5c0,-.5,-.2,-1.1,-.6,-1.5c-.4,-.3,-.9,-.6,-1.5,-.6c-.5,0,-1,.3,-1.4,.6c-.4,.4,-.6,1,-.6,1.5c0,.5,.2,1.1,.6,1.5c.4,.3,.9,.6,1.4,.6Z" class="g2_43" />
<path d="M645.9,528c.6,0,1.1,-.3,1.5,-.6c.4,-.4,.6,-1,.6,-1.5c0,-.5,-.2,-1.1,-.6,-1.5c-.4,-.3,-.9,-.6,-1.5,-.6c-.5,0,-1,.3,-1.4,.6c-.4,.4,-.6,1,-.6,1.5c0,.5,.2,1.1,.6,1.5c.4,.3,.9,.6,1.4,.6Z" class="g2_43" />
<path d="M642.8,528c.6,0,1.1,-.3,1.5,-.6c.4,-.4,.6,-1,.6,-1.5c0,-.5,-.2,-1.1,-.6,-1.5c-.4,-.3,-.9,-.6,-1.5,-.6c-.5,0,-1.1,.3,-1.4,.6c-.4,.4,-.6,1,-.6,1.5c0,.5,.2,1.1,.6,1.5c.3,.3,.9,.6,1.4,.6Z" class="g2_43" />
<path d="M639.7,528c.6,0,1.1,-.3,1.5,-.6c.4,-.4,.6,-1,.6,-1.5c0,-.5,-.2,-1.1,-.6,-1.5c-.4,-.3,-.9,-.6,-1.5,-.6c-.5,0,-1.1,.3,-1.4,.6c-.4,.4,-.7,1,-.7,1.5c0,.5,.3,1.1,.7,1.5c.3,.3,.9,.6,1.4,.6Z" class="g2_43" />
<path d="M636.6,528c.6,0,1.1,-.3,1.5,-.6c.3,-.4,.6,-1,.6,-1.5c0,-.5,-.3,-1.1,-.6,-1.5c-.4,-.3,-.9,-.6,-1.5,-.6c-.5,0,-1.1,.3,-1.5,.6c-.3,.4,-.6,1,-.6,1.5c0,.5,.3,1.1,.6,1.5c.4,.3,1,.6,1.5,.6Z" class="g2_43" />
<path d="M633.5,528c.5,0,1.1,-.3,1.5,-.6c.3,-.4,.6,-1,.6,-1.5c0,-.5,-.3,-1.1,-.6,-1.5c-.4,-.3,-1,-.6,-1.5,-.6c-.6,0,-1.1,.3,-1.5,.6c-.3,.4,-.6,1,-.6,1.5c0,.5,.3,1.1,.6,1.5c.4,.3,.9,.6,1.5,.6Z" class="g2_43" />
<path d="M630.4,528c.5,0,1.1,-.3,1.4,-.6c.4,-.4,.7,-1,.7,-1.5c0,-.5,-.3,-1.1,-.7,-1.5c-.3,-.3,-.9,-.6,-1.4,-.6c-.6,0,-1.1,.3,-1.5,.6c-.4,.4,-.6,1,-.6,1.5c0,.5,.2,1.1,.6,1.5c.4,.3,.9,.6,1.5,.6Z" class="g2_43" />
<path d="M627.3,528c.5,0,1.1,-.3,1.4,-.6c.4,-.4,.6,-1,.6,-1.5c0,-.5,-.2,-1.1,-.6,-1.5c-.3,-.3,-.9,-.6,-1.4,-.6c-.6,0,-1.1,.3,-1.5,.6c-.4,.4,-.6,1,-.6,1.5c0,.5,.2,1.1,.6,1.5c.4,.3,.9,.6,1.5,.6Z" class="g2_43" />
<path d="M624.2,528c.5,0,1,-.3,1.4,-.6c.4,-.4,.6,-1,.6,-1.5c0,-.5,-.2,-1.1,-.6,-1.5c-.4,-.3,-.9,-.6,-1.4,-.6c-.6,0,-1.1,.3,-1.5,.6c-.4,.4,-.6,1,-.6,1.5c0,.5,.2,1.1,.6,1.5c.4,.3,.9,.6,1.5,.6Z" class="g2_43" />
<path d="M621.1,528c.5,0,1,-.3,1.4,-.6c.4,-.4,.6,-1,.6,-1.5c0,-.5,-.2,-1.1,-.6,-1.5c-.4,-.3,-.9,-.6,-1.4,-.6c-.6,0,-1.1,.3,-1.5,.6c-.4,.4,-.6,1,-.6,1.5c0,.5,.2,1.1,.6,1.5c.4,.3,.9,.6,1.5,.6Z" class="g2_43" />
<path d="M618,528c.5,0,1,-.3,1.4,-.6c.4,-.4,.6,-1,.6,-1.5c0,-.5,-.2,-1.1,-.6,-1.5c-.4,-.3,-.9,-.6,-1.4,-.6c-.6,0,-1.1,.3,-1.5,.6c-.4,.4,-.6,1,-.6,1.5c0,.5,.2,1.1,.6,1.5c.4,.3,.9,.6,1.5,.6Z" class="g2_43" />
<path d="M614.9,528c.5,0,1,-.3,1.4,-.6c.4,-.4,.6,-1,.6,-1.5c0,-.5,-.2,-1.1,-.6,-1.5c-.4,-.3,-.9,-.6,-1.4,-.6c-.6,0,-1.1,.3,-1.5,.6c-.4,.4,-.6,1,-.6,1.5c0,.5,.2,1.1,.6,1.5c.4,.3,.9,.6,1.5,.6Z" class="g2_43" />
<path d="M611.7,528c.6,0,1.1,-.3,1.5,-.6c.4,-.4,.6,-1,.6,-1.5c0,-.5,-.2,-1.1,-.6,-1.5c-.4,-.3,-.9,-.6,-1.5,-.6c-.5,0,-1,.3,-1.4,.6c-.4,.4,-.6,1,-.6,1.5c0,.5,.2,1.1,.6,1.5c.4,.3,.9,.6,1.4,.6Z" class="g2_43" />
<path d="M608.6,528c.6,0,1.1,-.3,1.5,-.6c.4,-.4,.6,-1,.6,-1.5c0,-.5,-.2,-1.1,-.6,-1.5c-.4,-.3,-.9,-.6,-1.5,-.6c-.5,0,-1,.3,-1.4,.6c-.4,.4,-.6,1,-.6,1.5c0,.5,.2,1.1,.6,1.5c.4,.3,.9,.6,1.4,.6Z" class="g2_43" />
<path d="M605.5,528c.6,0,1.1,-.3,1.5,-.6c.4,-.4,.6,-1,.6,-1.5c0,-.5,-.2,-1.1,-.6,-1.5c-.4,-.3,-.9,-.6,-1.5,-.6c-.5,0,-1,.3,-1.4,.6c-.4,.4,-.6,1,-.6,1.5c0,.5,.2,1.1,.6,1.5c.4,.3,.9,.6,1.4,.6Z" class="g2_43" />
<path d="M602.4,528c.6,0,1.1,-.3,1.5,-.6c.4,-.4,.6,-1,.6,-1.5c0,-.5,-.2,-1.1,-.6,-1.5c-.4,-.3,-.9,-.6,-1.5,-.6c-.5,0,-1,.3,-1.4,.6c-.4,.4,-.6,1,-.6,1.5c0,.5,.2,1.1,.6,1.5c.4,.3,.9,.6,1.4,.6Z" class="g2_43" />
<path d="M599.3,528c.6,0,1.1,-.3,1.5,-.6c.4,-.4,.6,-1,.6,-1.5c0,-.5,-.2,-1.1,-.6,-1.5c-.4,-.3,-.9,-.6,-1.5,-.6c-.5,0,-1.1,.3,-1.4,.6c-.4,.4,-.6,1,-.6,1.5c0,.5,.2,1.1,.6,1.5c.3,.3,.9,.6,1.4,.6Z" class="g2_43" />
<path d="M596.2,528c.6,0,1.1,-.3,1.5,-.6c.4,-.4,.6,-1,.6,-1.5c0,-.5,-.2,-1.1,-.6,-1.5c-.4,-.3,-.9,-.6,-1.5,-.6c-.5,0,-1.1,.3,-1.4,.6c-.4,.4,-.7,1,-.7,1.5c0,.5,.3,1.1,.7,1.5c.3,.3,.9,.6,1.4,.6Z" class="g2_43" />
<path d="M593.1,528c.5,0,1.1,-.3,1.5,-.6c.3,-.4,.6,-1,.6,-1.5c0,-.5,-.3,-1.1,-.6,-1.5c-.4,-.3,-1,-.6,-1.5,-.6c-.5,0,-1.1,.3,-1.5,.6c-.3,.4,-.6,1,-.6,1.5c0,.5,.3,1.1,.6,1.5c.4,.3,1,.6,1.5,.6Z" class="g2_43" />
<path d="M590,528c.5,0,1.1,-.3,1.5,-.6c.3,-.4,.6,-1,.6,-1.5c0,-.5,-.3,-1.1,-.6,-1.5c-.4,-.3,-1,-.6,-1.5,-.6c-.6,0,-1.1,.3,-1.5,.6c-.4,.4,-.6,1,-.6,1.5c0,.5,.2,1.1,.6,1.5c.4,.3,.9,.6,1.5,.6Z" class="g2_43" />
<path d="M586.9,528c.5,0,1.1,-.3,1.4,-.6c.4,-.4,.6,-1,.6,-1.5c0,-.5,-.2,-1.1,-.6,-1.5c-.3,-.3,-.9,-.6,-1.4,-.6c-.6,0,-1.1,.3,-1.5,.6c-.4,.4,-.6,1,-.6,1.5c0,.5,.2,1.1,.6,1.5c.4,.3,.9,.6,1.5,.6Z" class="g2_43" />
<path d="M583.8,528c.5,0,1.1,-.3,1.4,-.6c.4,-.4,.6,-1,.6,-1.5c0,-.5,-.2,-1.1,-.6,-1.5c-.3,-.3,-.9,-.6,-1.4,-.6c-.6,0,-1.1,.3,-1.5,.6c-.4,.4,-.6,1,-.6,1.5c0,.5,.2,1.1,.6,1.5c.4,.3,.9,.6,1.5,.6Z" class="g2_43" />
<path d="M580.7,528c.5,0,1,-.3,1.4,-.6c.4,-.4,.6,-1,.6,-1.5c0,-.5,-.2,-1.1,-.6,-1.5c-.4,-.3,-.9,-.6,-1.4,-.6c-.6,0,-1.1,.3,-1.5,.6c-.4,.4,-.6,1,-.6,1.5c0,.5,.2,1.1,.6,1.5c.4,.3,.9,.6,1.5,.6Z" class="g2_43" />
<path d="M577.6,528c.5,0,1,-.3,1.4,-.6c.4,-.4,.6,-1,.6,-1.5c0,-.5,-.2,-1.1,-.6,-1.5c-.4,-.3,-.9,-.6,-1.4,-.6c-.6,0,-1.1,.3,-1.5,.6c-.4,.4,-.6,1,-.6,1.5c0,.5,.2,1.1,.6,1.5c.4,.3,.9,.6,1.5,.6Z" class="g2_43" />
<path d="M574.5,528c.5,0,1,-.3,1.4,-.6c.4,-.4,.6,-1,.6,-1.5c0,-.5,-.2,-1.1,-.6,-1.5c-.4,-.3,-.9,-.6,-1.4,-.6c-.6,0,-1.1,.3,-1.5,.6c-.4,.4,-.6,1,-.6,1.5c0,.5,.2,1.1,.6,1.5c.4,.3,.9,.6,1.5,.6Z" class="g2_43" />
<path d="M571.3,528c.6,0,1.1,-.3,1.5,-.6c.4,-.4,.6,-1,.6,-1.5c0,-.5,-.2,-1.1,-.6,-1.5c-.4,-.3,-.9,-.6,-1.5,-.6c-.5,0,-1,.3,-1.4,.6c-.4,.4,-.6,1,-.6,1.5c0,.5,.2,1.1,.6,1.5c.4,.3,.9,.6,1.4,.6Z" class="g2_43" />
<path d="M568.2,528c.6,0,1.1,-.3,1.5,-.6c.4,-.4,.6,-1,.6,-1.5c0,-.5,-.2,-1.1,-.6,-1.5c-.4,-.3,-.9,-.6,-1.5,-.6c-.5,0,-1,.3,-1.4,.6c-.4,.4,-.6,1,-.6,1.5c0,.5,.2,1.1,.6,1.5c.4,.3,.9,.6,1.4,.6Z" class="g2_43" />
<path d="M565.1,528c.6,0,1.1,-.3,1.5,-.6c.4,-.4,.6,-1,.6,-1.5c0,-.5,-.2,-1.1,-.6,-1.5c-.4,-.3,-.9,-.6,-1.5,-.6c-.5,0,-1,.3,-1.4,.6c-.4,.4,-.6,1,-.6,1.5c0,.5,.2,1.1,.6,1.5c.4,.3,.9,.6,1.4,.6Z" class="g2_43" />
<path d="M562,528c.6,0,1.1,-.3,1.5,-.6c.4,-.4,.6,-1,.6,-1.5c0,-.5,-.2,-1.1,-.6,-1.5c-.4,-.3,-.9,-.6,-1.5,-.6c-.5,0,-1,.3,-1.4,.6c-.4,.4,-.6,1,-.6,1.5c0,.5,.2,1.1,.6,1.5c.4,.3,.9,.6,1.4,.6Z" class="g2_43" />
<path d="M558.9,528c.6,0,1.1,-.3,1.5,-.6c.4,-.4,.6,-1,.6,-1.5c0,-.5,-.2,-1.1,-.6,-1.5c-.4,-.3,-.9,-.6,-1.5,-.6c-.5,0,-1.1,.3,-1.4,.6c-.4,.4,-.6,1,-.6,1.5c0,.5,.2,1.1,.6,1.5c.3,.3,.9,.6,1.4,.6Z" class="g2_43" />
<path d="M555.8,528c.6,0,1.1,-.3,1.5,-.6c.4,-.4,.6,-1,.6,-1.5c0,-.5,-.2,-1.1,-.6,-1.5c-.4,-.3,-.9,-.6,-1.5,-.6c-.5,0,-1.1,.3,-1.4,.6c-.4,.4,-.6,1,-.6,1.5c0,.5,.2,1.1,.6,1.5c.3,.3,.9,.6,1.4,.6Z" class="g2_43" />
<path d="M552.7,528c.6,0,1.1,-.3,1.5,-.6c.4,-.4,.6,-1,.6,-1.5c0,-.5,-.2,-1.1,-.6,-1.5c-.4,-.3,-.9,-.6,-1.5,-.6c-.5,0,-1.1,.3,-1.5,.6c-.3,.4,-.6,1,-.6,1.5c0,.5,.3,1.1,.6,1.5c.4,.3,1,.6,1.5,.6Z" class="g2_43" />
<path d="M549.6,528c.5,0,1.1,-.3,1.5,-.6c.3,-.4,.6,-1,.6,-1.5c0,-.5,-.3,-1.1,-.6,-1.5c-.4,-.3,-1,-.6,-1.5,-.6c-.5,0,-1.1,.3,-1.5,.6c-.3,.4,-.6,1,-.6,1.5c0,.5,.3,1.1,.6,1.5c.4,.3,1,.6,1.5,.6Z" class="g2_43" />
<path d="M546.5,528c.5,0,1.1,-.3,1.4,-.6c.4,-.4,.7,-1,.7,-1.5c0,-.5,-.3,-1.1,-.7,-1.5c-.3,-.3,-.9,-.6,-1.4,-.6c-.6,0,-1.1,.3,-1.5,.6c-.4,.4,-.6,1,-.6,1.5c0,.5,.2,1.1,.6,1.5c.4,.3,.9,.6,1.5,.6Z" class="g2_43" />
<path d="M543.4,528c.5,0,1.1,-.3,1.4,-.6c.4,-.4,.6,-1,.6,-1.5c0,-.5,-.2,-1.1,-.6,-1.5c-.3,-.3,-.9,-.6,-1.4,-.6c-.6,0,-1.1,.3,-1.5,.6c-.4,.4,-.6,1,-.6,1.5c0,.5,.2,1.1,.6,1.5c.4,.3,.9,.6,1.5,.6Z" class="g2_43" />
<path d="M540.3,528c.5,0,1,-.3,1.4,-.6c.4,-.4,.6,-1,.6,-1.5c0,-.5,-.2,-1.1,-.6,-1.5c-.4,-.3,-.9,-.6,-1.4,-.6c-.6,0,-1.1,.3,-1.5,.6c-.4,.4,-.6,1,-.6,1.5c0,.5,.2,1.1,.6,1.5c.4,.3,.9,.6,1.5,.6Z" class="g2_43" />
<path d="M537.2,528c.5,0,1,-.3,1.4,-.6c.4,-.4,.6,-1,.6,-1.5c0,-.5,-.2,-1.1,-.6,-1.5c-.4,-.3,-.9,-.6,-1.4,-.6c-.6,0,-1.1,.3,-1.5,.6c-.4,.4,-.6,1,-.6,1.5c0,.5,.2,1.1,.6,1.5c.4,.3,.9,.6,1.5,.6Z" class="g2_43" />
<path d="M534.1,528c.5,0,1,-.3,1.4,-.6c.4,-.4,.6,-1,.6,-1.5c0,-.5,-.2,-1.1,-.6,-1.5c-.4,-.3,-.9,-.6,-1.4,-.6c-.6,0,-1.1,.3,-1.5,.6c-.4,.4,-.6,1,-.6,1.5c0,.5,.2,1.1,.6,1.5c.4,.3,.9,.6,1.5,.6Z" class="g2_43" />
<path d="M531,528c.5,0,1,-.3,1.4,-.6c.4,-.4,.6,-1,.6,-1.5c0,-.5,-.2,-1.1,-.6,-1.5c-.4,-.3,-.9,-.6,-1.4,-.6c-.6,0,-1.1,.3,-1.5,.6c-.4,.4,-.6,1,-.6,1.5c0,.5,.2,1.1,.6,1.5c.4,.3,.9,.6,1.5,.6Z" class="g2_43" />
<path d="M527.8,528c.6,0,1.1,-.3,1.5,-.6c.4,-.4,.6,-1,.6,-1.5c0,-.5,-.2,-1.1,-.6,-1.5c-.4,-.3,-.9,-.6,-1.5,-.6c-.5,0,-1,.3,-1.4,.6c-.4,.4,-.6,1,-.6,1.5c0,.5,.2,1.1,.6,1.5c.4,.3,.9,.6,1.4,.6Z" class="g2_43" />
<path d="M524.7,528c.6,0,1.1,-.3,1.5,-.6c.4,-.4,.6,-1,.6,-1.5c0,-.5,-.2,-1.1,-.6,-1.5c-.4,-.3,-.9,-.6,-1.5,-.6c-.5,0,-1,.3,-1.4,.6c-.4,.4,-.6,1,-.6,1.5c0,.5,.2,1.1,.6,1.5c.4,.3,.9,.6,1.4,.6Z" class="g2_43" />
<path d="M521.6,528c.6,0,1.1,-.3,1.5,-.6c.4,-.4,.6,-1,.6,-1.5c0,-.5,-.2,-1.1,-.6,-1.5c-.4,-.3,-.9,-.6,-1.5,-.6c-.5,0,-1,.3,-1.4,.6c-.4,.4,-.6,1,-.6,1.5c0,.5,.2,1.1,.6,1.5c.4,.3,.9,.6,1.4,.6Z" class="g2_43" />
<path d="M518.5,528c.6,0,1.1,-.3,1.5,-.6c.4,-.4,.6,-1,.6,-1.5c0,-.5,-.2,-1.1,-.6,-1.5c-.4,-.3,-.9,-.6,-1.5,-.6c-.5,0,-1,.3,-1.4,.6c-.4,.4,-.6,1,-.6,1.5c0,.5,.2,1.1,.6,1.5c.4,.3,.9,.6,1.4,.6Z" class="g2_43" />
<path d="M515.4,528c.6,0,1.1,-.3,1.5,-.6c.4,-.4,.6,-1,.6,-1.5c0,-.5,-.2,-1.1,-.6,-1.5c-.4,-.3,-.9,-.6,-1.5,-.6c-.5,0,-1.1,.3,-1.4,.6c-.4,.4,-.6,1,-.6,1.5c0,.5,.2,1.1,.6,1.5c.3,.3,.9,.6,1.4,.6Z" class="g2_43" />
<path d="M512.3,528c.6,0,1.1,-.3,1.5,-.6c.4,-.4,.6,-1,.6,-1.5c0,-.5,-.2,-1.1,-.6,-1.5c-.4,-.3,-.9,-.6,-1.5,-.6c-.5,0,-1.1,.3,-1.4,.6c-.4,.4,-.7,1,-.7,1.5c0,.5,.3,1.1,.7,1.5c.3,.3,.9,.6,1.4,.6Z" class="g2_43" />
<path d="M509.2,528c.5,0,1.1,-.3,1.5,-.6c.3,-.4,.6,-1,.6,-1.5c0,-.5,-.3,-1.1,-.6,-1.5c-.4,-.3,-1,-.6,-1.5,-.6c-.5,0,-1.1,.3,-1.5,.6c-.3,.4,-.6,1,-.6,1.5c0,.5,.3,1.1,.6,1.5c.4,.3,1,.6,1.5,.6Z" class="g2_43" />
<path d="M506.1,528c.5,0,1.1,-.3,1.5,-.6c.3,-.4,.6,-1,.6,-1.5c0,-.5,-.3,-1.1,-.6,-1.5c-.4,-.3,-1,-.6,-1.5,-.6c-.6,0,-1.1,.3,-1.5,.6c-.3,.4,-.6,1,-.6,1.5c0,.5,.3,1.1,.6,1.5c.4,.3,.9,.6,1.5,.6Z" class="g2_43" />
<path d="M503,528c.5,0,1.1,-.3,1.4,-.6c.4,-.4,.7,-1,.7,-1.5c0,-.5,-.3,-1.1,-.7,-1.5c-.3,-.3,-.9,-.6,-1.4,-.6c-.6,0,-1.1,.3,-1.5,.6c-.4,.4,-.6,1,-.6,1.5c0,.5,.2,1.1,.6,1.5c.4,.3,.9,.6,1.5,.6Z" class="g2_43" />
<path d="M499.9,528c.5,0,1.1,-.3,1.4,-.6c.4,-.4,.6,-1,.6,-1.5c0,-.5,-.2,-1.1,-.6,-1.5c-.3,-.3,-.9,-.6,-1.4,-.6c-.6,0,-1.1,.3,-1.5,.6c-.4,.4,-.6,1,-.6,1.5c0,.5,.2,1.1,.6,1.5c.4,.3,.9,.6,1.5,.6Z" class="g2_43" />
<path d="M496.8,528c.5,0,1,-.3,1.4,-.6c.4,-.4,.6,-1,.6,-1.5c0,-.5,-.2,-1.1,-.6,-1.5c-.4,-.3,-.9,-.6,-1.4,-.6c-.6,0,-1.1,.3,-1.5,.6c-.4,.4,-.6,1,-.6,1.5c0,.5,.2,1.1,.6,1.5c.4,.3,.9,.6,1.5,.6Z" class="g2_43" />
<path d="M493.7,528c.5,0,1,-.3,1.4,-.6c.4,-.4,.6,-1,.6,-1.5c0,-.5,-.2,-1.1,-.6,-1.5c-.4,-.3,-.9,-.6,-1.4,-.6c-.6,0,-1.1,.3,-1.5,.6c-.4,.4,-.6,1,-.6,1.5c0,.5,.2,1.1,.6,1.5c.4,.3,.9,.6,1.5,.6Z" class="g2_43" />
<path d="M490.6,528c.5,0,1,-.3,1.4,-.6c.4,-.4,.6,-1,.6,-1.5c0,-.5,-.2,-1.1,-.6,-1.5c-.4,-.3,-.9,-.6,-1.4,-.6c-.6,0,-1.1,.3,-1.5,.6c-.4,.4,-.6,1,-.6,1.5c0,.5,.2,1.1,.6,1.5c.4,.3,.9,.6,1.5,.6Z" class="g2_43" />
<path d="M487.5,528c.5,0,1,-.3,1.4,-.6c.4,-.4,.6,-1,.6,-1.5c0,-.5,-.2,-1.1,-.6,-1.5c-.4,-.3,-.9,-.6,-1.4,-.6c-.6,0,-1.1,.3,-1.5,.6c-.4,.4,-.6,1,-.6,1.5c0,.5,.2,1.1,.6,1.5c.4,.3,.9,.6,1.5,.6Z" class="g2_43" />
<path d="M484.3,528c.6,0,1.1,-.3,1.5,-.6c.4,-.4,.6,-1,.6,-1.5c0,-.5,-.2,-1.1,-.6,-1.5c-.4,-.3,-.9,-.6,-1.5,-.6c-.5,0,-1,.3,-1.4,.6c-.4,.4,-.6,1,-.6,1.5c0,.5,.2,1.1,.6,1.5c.4,.3,.9,.6,1.4,.6Z" class="g2_43" />
<path d="M481.2,528c.6,0,1.1,-.3,1.5,-.6c.4,-.4,.6,-1,.6,-1.5c0,-.5,-.2,-1.1,-.6,-1.5c-.4,-.3,-.9,-.6,-1.5,-.6c-.5,0,-1,.3,-1.4,.6c-.4,.4,-.6,1,-.6,1.5c0,.5,.2,1.1,.6,1.5c.4,.3,.9,.6,1.4,.6Z" class="g2_43" />
<path d="M478.1,528c.6,0,1.1,-.3,1.5,-.6c.4,-.4,.6,-1,.6,-1.5c0,-.5,-.2,-1.1,-.6,-1.5c-.4,-.3,-.9,-.6,-1.5,-.6c-.5,0,-1,.3,-1.4,.6c-.4,.4,-.6,1,-.6,1.5c0,.5,.2,1.1,.6,1.5c.4,.3,.9,.6,1.4,.6Z" class="g2_43" />
<path d="M475,528c.6,0,1.1,-.3,1.5,-.6c.4,-.4,.6,-1,.6,-1.5c0,-.5,-.2,-1.1,-.6,-1.5c-.4,-.3,-.9,-.6,-1.5,-.6c-.5,0,-1,.3,-1.4,.6c-.4,.4,-.6,1,-.6,1.5c0,.5,.2,1.1,.6,1.5c.4,.3,.9,.6,1.4,.6Z" class="g2_43" />
<path d="M471.9,528c.6,0,1.1,-.3,1.5,-.6c.4,-.4,.6,-1,.6,-1.5c0,-.5,-.2,-1.1,-.6,-1.5c-.4,-.3,-.9,-.6,-1.5,-.6c-.5,0,-1.1,.3,-1.4,.6c-.4,.4,-.6,1,-.6,1.5c0,.5,.2,1.1,.6,1.5c.3,.3,.9,.6,1.4,.6Z" class="g2_43" />
<path d="M468.8,528c.6,0,1.1,-.3,1.5,-.6c.4,-.4,.6,-1,.6,-1.5c0,-.5,-.2,-1.1,-.6,-1.5c-.4,-.3,-.9,-.6,-1.5,-.6c-.5,0,-1.1,.3,-1.5,.6c-.3,.4,-.6,1,-.6,1.5c0,.5,.3,1.1,.6,1.5c.4,.3,1,.6,1.5,.6Z" class="g2_43" />
<path d="M465.7,527.9c.5,0,1.1,-.2,1.5,-.6c.3,-.4,.6,-.9,.6,-1.4c0,-.6,-.3,-1.1,-.6,-1.5c-.4,-.4,-1,-.6,-1.5,-.6c-.5,0,-1.1,.2,-1.5,.6c-.3,.4,-.6,.9,-.6,1.5c0,.5,.3,1,.6,1.4c.4,.4,1,.6,1.5,.6Z" class="g2_43" />
<path d="M462.6,527.9c.5,0,1.1,-.2,1.5,-.6c.3,-.4,.6,-.9,.6,-1.4c0,-.6,-.3,-1.1,-.6,-1.5c-.4,-.4,-1,-.6,-1.5,-.6c-.6,0,-1.1,.2,-1.5,.6c-.4,.4,-.6,.9,-.6,1.5c0,.5,.2,1,.6,1.4c.4,.4,.9,.6,1.5,.6Z" class="g2_43" />
<path d="M459.5,527.9c.5,0,1.1,-.2,1.4,-.6c.4,-.4,.6,-.9,.6,-1.5c0,-.5,-.2,-1,-.6,-1.4c-.3,-.4,-.9,-.6,-1.4,-.6c-.6,0,-1.1,.2,-1.5,.6c-.4,.4,-.6,.9,-.6,1.4c0,.6,.2,1.1,.6,1.5c.4,.4,.9,.6,1.5,.6Z" class="g2_43" />
<path d="M456.4,527.6c.5,0,1,-.2,1.4,-.6c.4,-.4,.6,-.9,.6,-1.4c0,-.6,-.2,-1.1,-.6,-1.5c-.4,-.4,-.9,-.6,-1.4,-.6c-.6,0,-1.1,.2,-1.5,.6c-.4,.4,-.6,.9,-.6,1.5c0,.5,.2,1,.6,1.4c.4,.4,.9,.6,1.5,.6Z" class="g2_43" />
<path d="M453.3,527.5c.5,0,1,-.3,1.4,-.6c.4,-.4,.6,-1,.6,-1.5c0,-.5,-.2,-1.1,-.6,-1.5c-.4,-.3,-.9,-.6,-1.4,-.6c-.6,0,-1.1,.3,-1.5,.6c-.4,.4,-.6,1,-.6,1.5c0,.5,.2,1.1,.6,1.5c.4,.3,.9,.6,1.5,.6Z" class="g2_43" />
<path d="M450.2,527.2c.5,0,1,-.2,1.4,-.6c.4,-.4,.6,-.9,.6,-1.5c0,-.5,-.2,-1,-.6,-1.4c-.4,-.4,-.9,-.6,-1.4,-.6c-.6,0,-1.1,.2,-1.5,.6c-.4,.4,-.6,.9,-.6,1.4c0,.6,.2,1.1,.6,1.5c.4,.4,.9,.6,1.5,.6Z" class="g2_43" />
<path d="M447.1,526.8c.5,0,1,-.2,1.4,-.6c.4,-.4,.6,-.9,.6,-1.4c0,-.6,-.2,-1.1,-.6,-1.5c-.4,-.4,-.9,-.6,-1.4,-.6c-.6,0,-1.1,.2,-1.5,.6c-.4,.4,-.6,.9,-.6,1.5c0,.5,.2,1,.6,1.4c.4,.4,.9,.6,1.5,.6Z" class="g2_43" />
</g>
<path d="M443.9,512.3c.6,0,1.1,-.3,1.5,-.7c.4,-.3,.6,-.9,.6,-1.4c0,-.6,-.2,-1.1,-.6,-1.5c-.4,-.4,-.9,-.6,-1.5,-.6c-.5,0,-1,.2,-1.4,.6c-.4,.4,-.6,.9,-.6,1.5c0,.5,.2,1.1,.6,1.4c.4,.4,.9,.7,1.4,.7Z" class="g2_43" />
<path d="M440.8,514.6c.6,0,1.1,-.2,1.5,-.6c.4,-.4,.6,-.9,.6,-1.4c0,-.6,-.2,-1.1,-.6,-1.5c-.4,-.4,-.9,-.6,-1.5,-.6c-.5,0,-1,.2,-1.4,.6c-.4,.4,-.6,.9,-.6,1.5c0,.5,.2,1,.6,1.4c.4,.4,.9,.6,1.4,.6Z" class="g2_43" />
<path d="M437.7,509.1c.6,0,1.1,-.2,1.5,-.6c.4,-.4,.6,-.9,.6,-1.5c0,-.5,-.2,-1,-.6,-1.4c-.4,-.4,-.9,-.6,-1.5,-.6c-.5,0,-1,.2,-1.4,.6c-.4,.4,-.6,.9,-.6,1.4c0,.6,.2,1.1,.6,1.5c.4,.4,.9,.6,1.4,.6Z" class="g2_43" />
<path d="M434.6,494.4c.6,0,1.1,-.2,1.5,-.6c.4,-.4,.6,-.9,.6,-1.5c0,-.5,-.2,-1.1,-.6,-1.4c-.4,-.4,-.9,-.7,-1.5,-.7c-.5,0,-1,.3,-1.4,.7c-.4,.3,-.6,.9,-.6,1.4c0,.6,.2,1.1,.6,1.5c.4,.4,.9,.6,1.4,.6Z" class="g2_43" />
<path d="M431.5,484.8c.6,0,1.1,-.2,1.5,-.6c.4,-.4,.6,-.9,.6,-1.4c0,-.6,-.2,-1.1,-.6,-1.5c-.4,-.4,-.9,-.6,-1.5,-.6c-.5,0,-1.1,.2,-1.4,.6c-.4,.4,-.6,.9,-.6,1.5c0,.5,.2,1,.6,1.4c.3,.4,.9,.6,1.4,.6Z" class="g2_43" />
<path d="M428.4,483.6c.6,0,1.1,-.3,1.5,-.6c.4,-.4,.6,-1,.6,-1.5c0,-.5,-.2,-1.1,-.6,-1.5c-.4,-.3,-.9,-.6,-1.5,-.6c-.5,0,-1.1,.3,-1.4,.6c-.4,.4,-.7,1,-.7,1.5c0,.5,.3,1.1,.7,1.5c.3,.3,.9,.6,1.4,.6Z" class="g2_43" />
<g clip-path="url(#c1_43)">
<path d="M425.3,381.7c.6,0,1.1,-.2,1.5,-.6c.3,-.4,.6,-.9,.6,-1.4c0,-.6,-.3,-1.1,-.6,-1.5c-.4,-.4,-.9,-.6,-1.5,-.6c-.5,0,-1.1,.2,-1.5,.6c-.3,.4,-.6,.9,-.6,1.5c0,.5,.3,1,.6,1.4c.4,.4,1,.6,1.5,.6Z" class="g2_43" />
</g>
<path d="M422.2,406c.5,0,1.1,-.2,1.5,-.6c.3,-.4,.6,-.9,.6,-1.4c0,-.6,-.3,-1.1,-.6,-1.5c-.4,-.4,-1,-.6,-1.5,-.6c-.6,0,-1.1,.2,-1.5,.6c-.3,.4,-.6,.9,-.6,1.5c0,.5,.3,1,.6,1.4c.4,.4,.9,.6,1.5,.6Z" class="g2_43" />
<path d="M419.1,419.5c.5,0,1.1,-.2,1.4,-.6c.4,-.4,.7,-.9,.7,-1.5c0,-.5,-.3,-1,-.7,-1.4c-.3,-.4,-.9,-.6,-1.4,-.6c-.6,0,-1.1,.2,-1.5,.6c-.4,.4,-.6,.9,-.6,1.4c0,.6,.2,1.1,.6,1.5c.4,.4,.9,.6,1.5,.6Z" class="g2_43" />
<path d="M416,431.9c.5,0,1.1,-.2,1.4,-.6c.4,-.4,.6,-.9,.6,-1.4c0,-.6,-.2,-1.1,-.6,-1.5c-.3,-.4,-.9,-.6,-1.4,-.6c-.6,0,-1.1,.2,-1.5,.6c-.4,.4,-.6,.9,-.6,1.5c0,.5,.2,1,.6,1.4c.4,.4,.9,.6,1.5,.6Z" class="g2_43" />
<path d="M412.9,435.3c.5,0,1,-.2,1.4,-.6c.4,-.4,.6,-.9,.6,-1.4c0,-.6,-.2,-1.1,-.6,-1.5c-.4,-.4,-.9,-.6,-1.4,-.6c-.6,0,-1.1,.2,-1.5,.6c-.4,.4,-.6,.9,-.6,1.5c0,.5,.2,1,.6,1.4c.4,.4,.9,.6,1.5,.6Z" class="g2_43" />
<path d="M409.8,451.8c.5,0,1,-.2,1.4,-.6c.4,-.4,.6,-.9,.6,-1.5c0,-.5,-.2,-1,-.6,-1.4c-.4,-.4,-.9,-.6,-1.4,-.6c-.6,0,-1.1,.2,-1.5,.6c-.4,.4,-.6,.9,-.6,1.4c0,.6,.2,1.1,.6,1.5c.4,.4,.9,.6,1.5,.6Z" class="g2_43" />
<path d="M406.7,461c.5,0,1,-.2,1.4,-.6c.4,-.4,.6,-.9,.6,-1.5c0,-.5,-.2,-1.1,-.6,-1.5c-.4,-.3,-.9,-.6,-1.4,-.6c-.6,0,-1.1,.3,-1.5,.6c-.4,.4,-.6,1,-.6,1.5c0,.6,.2,1.1,.6,1.5c.4,.4,.9,.6,1.5,.6Z" class="g2_43" />
<path d="M403.6,473.1c.5,0,1,-.2,1.4,-.6c.4,-.4,.6,-.9,.6,-1.5c0,-.5,-.2,-1,-.6,-1.4c-.4,-.4,-.9,-.6,-1.4,-.6c-.6,0,-1.1,.2,-1.5,.6c-.4,.4,-.6,.9,-.6,1.4c0,.6,.2,1.1,.6,1.5c.4,.4,.9,.6,1.5,.6Z" class="g2_43" />
<path d="M400.4,479.9c.6,0,1.1,-.2,1.5,-.6c.4,-.4,.6,-.9,.6,-1.4c0,-.6,-.2,-1.1,-.6,-1.5c-.4,-.4,-.9,-.6,-1.5,-.6c-.5,0,-1,.2,-1.4,.6c-.4,.4,-.6,.9,-.6,1.5c0,.5,.2,1,.6,1.4c.4,.4,.9,.6,1.4,.6Z" class="g2_43" />
<path d="M397.3,486.1c.6,0,1.1,-.2,1.5,-.6c.4,-.4,.6,-.9,.6,-1.5c0,-.5,-.2,-1.1,-.6,-1.4c-.4,-.4,-.9,-.6,-1.5,-.6c-.5,0,-1,.2,-1.4,.6c-.4,.3,-.6,.9,-.6,1.4c0,.6,.2,1.1,.6,1.5c.4,.4,.9,.6,1.4,.6Z" class="g2_43" />
<path d="M394.2,493.6c.6,0,1.1,-.2,1.5,-.6c.4,-.4,.6,-.9,.6,-1.4c0,-.6,-.2,-1.1,-.6,-1.5c-.4,-.4,-.9,-.6,-1.5,-.6c-.5,0,-1,.2,-1.4,.6c-.4,.4,-.6,.9,-.6,1.5c0,.5,.2,1,.6,1.4c.4,.4,.9,.6,1.4,.6Z" class="g2_43" />
<path d="M391.1,499.7c.6,0,1.1,-.3,1.5,-.6c.4,-.4,.6,-.9,.6,-1.5c0,-.5,-.2,-1.1,-.6,-1.5c-.4,-.3,-.9,-.6,-1.5,-.6c-.5,0,-1,.3,-1.4,.6c-.4,.4,-.6,1,-.6,1.5c0,.6,.2,1.1,.6,1.5c.4,.3,.9,.6,1.4,.6Z" class="g2_43" />
<path d="M388,503.5c.6,0,1.1,-.2,1.5,-.6c.4,-.4,.6,-.9,.6,-1.4c0,-.6,-.2,-1.1,-.6,-1.5c-.4,-.4,-.9,-.6,-1.5,-.6c-.5,0,-1.1,.2,-1.4,.6c-.4,.4,-.6,.9,-.6,1.5c0,.5,.2,1,.6,1.4c.3,.4,.9,.6,1.4,.6Z" class="g2_43" />
<path d="M384.9,506.5c.6,0,1.1,-.2,1.5,-.6c.4,-.4,.6,-.9,.6,-1.5c0,-.5,-.2,-1.1,-.6,-1.4c-.4,-.4,-.9,-.6,-1.5,-.6c-.5,0,-1.1,.2,-1.4,.6c-.4,.3,-.7,.9,-.7,1.4c0,.6,.3,1.1,.7,1.5c.3,.4,.9,.6,1.4,.6Z" class="g2_43" />
<path d="M381.8,510.3c.5,0,1.1,-.2,1.5,-.6c.3,-.4,.6,-.9,.6,-1.4c0,-.6,-.3,-1.1,-.6,-1.5c-.4,-.4,-1,-.6,-1.5,-.6c-.5,0,-1.1,.2,-1.5,.6c-.3,.4,-.6,.9,-.6,1.5c0,.5,.3,1,.6,1.4c.4,.4,1,.6,1.5,.6Z" class="g2_43" />
<path d="M378.7,513.3c.5,0,1.1,-.2,1.5,-.6c.3,-.4,.6,-.9,.6,-1.4c0,-.6,-.3,-1.1,-.6,-1.5c-.4,-.4,-1,-.6,-1.5,-.6c-.6,0,-1.1,.2,-1.5,.6c-.4,.4,-.6,.9,-.6,1.5c0,.5,.2,1,.6,1.4c.4,.4,.9,.6,1.5,.6Z" class="g2_43" />
<path d="M375.6,515.9c.5,0,1.1,-.2,1.4,-.6c.4,-.4,.6,-.9,.6,-1.5c0,-.5,-.2,-1,-.6,-1.4c-.3,-.4,-.9,-.6,-1.4,-.6c-.6,0,-1.1,.2,-1.5,.6c-.4,.4,-.6,.9,-.6,1.4c0,.6,.2,1.1,.6,1.5c.4,.4,.9,.6,1.5,.6Z" class="g2_43" />
<path d="M372.5,518c.5,0,1.1,-.2,1.4,-.6c.4,-.4,.6,-.9,.6,-1.5c0,-.5,-.2,-1.1,-.6,-1.4c-.3,-.4,-.9,-.6,-1.4,-.6c-.6,0,-1.1,.2,-1.5,.6c-.4,.3,-.6,.9,-.6,1.4c0,.6,.2,1.1,.6,1.5c.4,.4,.9,.6,1.5,.6Z" class="g2_43" />
<path d="M369.4,519.8c.5,0,1,-.2,1.4,-.6c.4,-.4,.6,-.9,.6,-1.5c0,-.5,-.2,-1.1,-.6,-1.4c-.4,-.4,-.9,-.6,-1.4,-.6c-.6,0,-1.1,.2,-1.5,.6c-.4,.3,-.6,.9,-.6,1.4c0,.6,.2,1.1,.6,1.5c.4,.4,.9,.6,1.5,.6Z" class="g2_43" />
<path d="M366.3,521.2c.5,0,1,-.2,1.4,-.6c.4,-.3,.6,-.9,.6,-1.4c0,-.6,-.2,-1.1,-.6,-1.5c-.4,-.4,-.9,-.6,-1.4,-.6c-.6,0,-1.1,.2,-1.5,.6c-.4,.4,-.6,.9,-.6,1.5c0,.5,.2,1.1,.6,1.4c.4,.4,.9,.6,1.5,.6Z" class="g2_43" />
<path d="M363.2,522.3c.5,0,1,-.2,1.4,-.6c.4,-.4,.6,-.9,.6,-1.4c0,-.6,-.2,-1.1,-.6,-1.5c-.4,-.4,-.9,-.6,-1.4,-.6c-.6,0,-1.1,.2,-1.5,.6c-.4,.4,-.6,.9,-.6,1.5c0,.5,.2,1,.6,1.4c.4,.4,.9,.6,1.5,.6Z" class="g2_43" />
<path d="M360,523.3c.6,0,1.1,-.2,1.5,-.6c.4,-.4,.6,-.9,.6,-1.4c0,-.6,-.2,-1.1,-.6,-1.5c-.4,-.4,-.9,-.6,-1.5,-.6c-.5,0,-1,.2,-1.4,.6c-.4,.4,-.6,.9,-.6,1.5c0,.5,.2,1,.6,1.4c.4,.4,.9,.6,1.4,.6Z" class="g2_43" />
<path d="M356.9,524.2c.6,0,1.1,-.3,1.5,-.6c.4,-.4,.6,-1,.6,-1.5c0,-.6,-.2,-1.1,-.6,-1.5c-.4,-.4,-.9,-.6,-1.5,-.6c-.5,0,-1,.2,-1.4,.6c-.4,.4,-.6,.9,-.6,1.5c0,.5,.2,1.1,.6,1.5c.4,.3,.9,.6,1.4,.6Z" class="g2_43" />
<path d="M353.8,524.8c.6,0,1.1,-.2,1.5,-.6c.4,-.3,.6,-.9,.6,-1.4c0,-.6,-.2,-1.1,-.6,-1.5c-.4,-.4,-.9,-.6,-1.5,-.6c-.5,0,-1,.2,-1.4,.6c-.4,.4,-.6,.9,-.6,1.5c0,.5,.2,1.1,.6,1.4c.4,.4,.9,.6,1.4,.6Z" class="g2_43" />
<path d="M350.7,525.4c.6,0,1.1,-.2,1.5,-.6c.4,-.4,.6,-.9,.6,-1.5c0,-.5,-.2,-1,-.6,-1.4c-.4,-.4,-.9,-.6,-1.5,-.6c-.5,0,-1,.2,-1.4,.6c-.4,.4,-.6,.9,-.6,1.4c0,.6,.2,1.1,.6,1.5c.4,.4,.9,.6,1.4,.6Z" class="g2_43" />
<path d="M347.6,525.9c.6,0,1.1,-.3,1.5,-.6c.4,-.4,.6,-.9,.6,-1.5c0,-.5,-.2,-1.1,-.6,-1.5c-.4,-.3,-.9,-.6,-1.5,-.6c-.5,0,-1.1,.3,-1.4,.6c-.4,.4,-.6,1,-.6,1.5c0,.6,.2,1.1,.6,1.5c.3,.3,.9,.6,1.4,.6Z" class="g2_43" />
<g clip-path="url(#c1_43)">
<path d="M344.5,526.2c.6,0,1.1,-.2,1.5,-.6c.4,-.3,.6,-.9,.6,-1.4c0,-.6,-.2,-1.1,-.6,-1.5c-.4,-.4,-.9,-.6,-1.5,-.6c-.5,0,-1.1,.2,-1.4,.6c-.4,.4,-.6,.9,-.6,1.5c0,.5,.2,1.1,.6,1.4c.3,.4,.9,.6,1.4,.6Z" class="g2_43" />
<path d="M341.4,526.6c.6,0,1.1,-.3,1.5,-.6c.4,-.4,.6,-1,.6,-1.5c0,-.6,-.2,-1.1,-.6,-1.5c-.4,-.4,-.9,-.6,-1.5,-.6c-.5,0,-1.1,.2,-1.5,.6c-.3,.4,-.6,.9,-.6,1.5c0,.5,.3,1.1,.6,1.5c.4,.3,1,.6,1.5,.6Z" class="g2_43" />
<path d="M338.3,526.8c.5,0,1.1,-.2,1.5,-.6c.3,-.4,.6,-.9,.6,-1.5c0,-.5,-.3,-1,-.6,-1.4c-.4,-.4,-1,-.6,-1.5,-.6c-.5,0,-1.1,.2,-1.5,.6c-.3,.4,-.6,.9,-.6,1.4c0,.6,.3,1.1,.6,1.5c.4,.4,1,.6,1.5,.6Z" class="g2_43" />
<path d="M335.2,527c.5,0,1.1,-.2,1.4,-.6c.4,-.4,.7,-.9,.7,-1.4c0,-.6,-.3,-1.1,-.7,-1.5c-.3,-.4,-.9,-.6,-1.4,-.6c-.6,0,-1.1,.2,-1.5,.6c-.4,.4,-.6,.9,-.6,1.5c0,.5,.2,1,.6,1.4c.4,.4,.9,.6,1.5,.6Z" class="g2_43" />
<path d="M332.1,527.2c.5,0,1.1,-.2,1.4,-.6c.4,-.4,.6,-.9,.6,-1.5c0,-.5,-.2,-1,-.6,-1.4c-.3,-.4,-.9,-.6,-1.4,-.6c-.6,0,-1.1,.2,-1.5,.6c-.4,.4,-.6,.9,-.6,1.4c0,.6,.2,1.1,.6,1.5c.4,.4,.9,.6,1.5,.6Z" class="g2_43" />
<path d="M329,527.3c.5,0,1,-.2,1.4,-.6c.4,-.4,.6,-.9,.6,-1.4c0,-.6,-.2,-1.1,-.6,-1.5c-.4,-.4,-.9,-.6,-1.4,-.6c-.6,0,-1.1,.2,-1.5,.6c-.4,.4,-.6,.9,-.6,1.5c0,.5,.2,1,.6,1.4c.4,.4,.9,.6,1.5,.6Z" class="g2_43" />
<path d="M325.9,527.4c.5,0,1,-.2,1.4,-.6c.4,-.3,.6,-.9,.6,-1.4c0,-.6,-.2,-1.1,-.6,-1.5c-.4,-.4,-.9,-.6,-1.4,-.6c-.6,0,-1.1,.2,-1.5,.6c-.4,.4,-.6,.9,-.6,1.5c0,.5,.2,1.1,.6,1.4c.4,.4,.9,.6,1.5,.6Z" class="g2_43" />
<path d="M322.8,527.5c.5,0,1,-.2,1.4,-.6c.4,-.4,.6,-.9,.6,-1.4c0,-.6,-.2,-1.1,-.6,-1.5c-.4,-.4,-.9,-.6,-1.4,-.6c-.6,0,-1.1,.2,-1.5,.6c-.4,.4,-.6,.9,-.6,1.5c0,.5,.2,1,.6,1.4c.4,.4,.9,.6,1.5,.6Z" class="g2_43" />
<path d="M319.7,527.6c.5,0,1,-.2,1.4,-.6c.4,-.4,.6,-.9,.6,-1.4c0,-.6,-.2,-1.1,-.6,-1.5c-.4,-.4,-.9,-.6,-1.4,-.6c-.6,0,-1.1,.2,-1.5,.6c-.4,.4,-.6,.9,-.6,1.5c0,.5,.2,1,.6,1.4c.4,.4,.9,.6,1.5,.6Z" class="g2_43" />
<path d="M316.5,527.7c.6,0,1.1,-.2,1.5,-.6c.4,-.4,.6,-.9,.6,-1.5c0,-.5,-.2,-1.1,-.6,-1.4c-.4,-.4,-.9,-.6,-1.5,-.6c-.5,0,-1,.2,-1.4,.6c-.4,.3,-.6,.9,-.6,1.4c0,.6,.2,1.1,.6,1.5c.4,.4,.9,.6,1.4,.6Z" class="g2_43" />
<path d="M313.4,527.7c.6,0,1.1,-.2,1.5,-.6c.4,-.4,.6,-.9,.6,-1.4c0,-.6,-.2,-1.1,-.6,-1.5c-.4,-.4,-.9,-.6,-1.5,-.6c-.5,0,-1,.2,-1.4,.6c-.4,.4,-.6,.9,-.6,1.5c0,.5,.2,1,.6,1.4c.4,.4,.9,.6,1.4,.6Z" class="g2_43" />
<path d="M310.3,527.8c.6,0,1.1,-.2,1.5,-.6c.4,-.4,.6,-.9,.6,-1.5c0,-.5,-.2,-1.1,-.6,-1.4c-.4,-.4,-.9,-.7,-1.5,-.7c-.5,0,-1,.3,-1.4,.7c-.4,.3,-.6,.9,-.6,1.4c0,.6,.2,1.1,.6,1.5c.4,.4,.9,.6,1.4,.6Z" class="g2_43" />
<path d="M307.2,527.8c.6,0,1.1,-.2,1.5,-.6c.4,-.4,.6,-.9,.6,-1.5c0,-.5,-.2,-1,-.6,-1.4c-.4,-.4,-.9,-.6,-1.5,-.6c-.5,0,-1,.2,-1.4,.6c-.4,.4,-.6,.9,-.6,1.4c0,.6,.2,1.1,.6,1.5c.4,.4,.9,.6,1.4,.6Z" class="g2_43" />
<path d="M304.1,527.8c.6,0,1.1,-.2,1.5,-.6c.4,-.4,.6,-.9,.6,-1.4c0,-.6,-.2,-1.1,-.6,-1.5c-.4,-.4,-.9,-.6,-1.5,-.6c-.5,0,-1.1,.2,-1.4,.6c-.4,.4,-.6,.9,-.6,1.5c0,.5,.2,1,.6,1.4c.3,.4,.9,.6,1.4,.6Z" class="g2_43" />
<path d="M301,527.9c.6,0,1.1,-.3,1.5,-.6c.4,-.4,.6,-1,.6,-1.5c0,-.5,-.2,-1.1,-.6,-1.5c-.4,-.3,-.9,-.6,-1.5,-.6c-.5,0,-1.1,.3,-1.4,.6c-.4,.4,-.7,1,-.7,1.5c0,.5,.3,1.1,.7,1.5c.3,.3,.9,.6,1.4,.6Z" class="g2_43" />
<path d="M297.9,527.9c.5,0,1.1,-.2,1.5,-.6c.3,-.4,.6,-.9,.6,-1.5c0,-.5,-.3,-1.1,-.6,-1.4c-.4,-.4,-1,-.6,-1.5,-.6c-.5,0,-1.1,.2,-1.5,.6c-.3,.3,-.6,.9,-.6,1.4c0,.6,.3,1.1,.6,1.5c.4,.4,1,.6,1.5,.6Z" class="g2_43" />
<path d="M294.8,527.9c.5,0,1.1,-.2,1.5,-.6c.3,-.4,.6,-.9,.6,-1.5c0,-.5,-.3,-1,-.6,-1.4c-.4,-.4,-1,-.6,-1.5,-.6c-.6,0,-1.1,.2,-1.5,.6c-.3,.4,-.6,.9,-.6,1.4c0,.6,.3,1.1,.6,1.5c.4,.4,.9,.6,1.5,.6Z" class="g2_43" />
<path d="M291.7,527.9c.5,0,1.1,-.2,1.4,-.6c.4,-.4,.7,-.9,.7,-1.5c0,-.5,-.3,-1,-.7,-1.4c-.3,-.4,-.9,-.6,-1.4,-.6c-.6,0,-1.1,.2,-1.5,.6c-.4,.4,-.6,.9,-.6,1.4c0,.6,.2,1.1,.6,1.5c.4,.4,.9,.6,1.5,.6Z" class="g2_43" />
<path d="M288.6,527.9c.5,0,1.1,-.2,1.4,-.6c.4,-.4,.6,-.9,.6,-1.4c0,-.6,-.2,-1.1,-.6,-1.5c-.3,-.4,-.9,-.6,-1.4,-.6c-.6,0,-1.1,.2,-1.5,.6c-.4,.4,-.6,.9,-.6,1.5c0,.5,.2,1,.6,1.4c.4,.4,.9,.6,1.5,.6Z" class="g2_43" />
<path d="M285.5,527.9c.5,0,1,-.2,1.4,-.6c.4,-.4,.6,-.9,.6,-1.4c0,-.6,-.2,-1.1,-.6,-1.5c-.4,-.4,-.9,-.6,-1.4,-.6c-.6,0,-1.1,.2,-1.5,.6c-.4,.4,-.6,.9,-.6,1.5c0,.5,.2,1,.6,1.4c.4,.4,.9,.6,1.5,.6Z" class="g2_43" />
<path d="M282.4,527.9c.5,0,1,-.2,1.4,-.6c.4,-.4,.6,-.9,.6,-1.4c0,-.6,-.2,-1.1,-.6,-1.5c-.4,-.4,-.9,-.6,-1.4,-.6c-.6,0,-1.1,.2,-1.5,.6c-.4,.4,-.6,.9,-.6,1.5c0,.5,.2,1,.6,1.4c.4,.4,.9,.6,1.5,.6Z" class="g2_43" />
</g>
<path d="M282.4,525.9v-2.7" class="g3_43" />
<path d="M282.4,379.7v2.7" class="g3_43" />
<path d="M360,525.9v-2.7" class="g3_43" />
<path d="M360,379.7v2.7" class="g3_43" />
<path d="M437.7,525.9v-2.7" class="g3_43" />
<path d="M437.7,379.7v2.7" class="g3_43" />
<path d="M515.4,525.9v-2.7" class="g3_43" />
<path d="M515.4,379.7v2.7" class="g3_43" />
<path d="M593.1,525.9v-2.7" class="g3_43" />
<path d="M593.1,379.7v2.7" class="g3_43" />
<path d="M670.8,525.9v-2.7" class="g3_43" />
<path d="M670.8,379.7v2.7" class="g3_43" />
<path d="M282.4,525.9h2.7" class="g3_43" />
<path d="M670.8,525.9H668" class="g3_43" />
<path d="M282.4,496.7h2.7" class="g3_43" />
<path d="M670.8,496.7H668" class="g3_43" />
<path d="M282.4,467.4h2.7" class="g3_43" />
<path d="M670.8,467.4H668" class="g3_43" />
<path d="M282.4,438.2h2.7" class="g3_43" />
<path d="M670.8,438.2H668" class="g3_43" />
<path d="M282.4,408.9h2.7" class="g3_43" />
<path d="M670.8,408.9H668" class="g3_43" />
<path d="M282.4,379.7h2.7" class="g3_43" />
<path d="M670.8,379.7H668" class="g3_43" />
<path d="M282.4,379.7H670.8m0,146.2V379.7M282.4,525.9H670.8m-388.4,0V379.7" class="g4_43" />
</svg>