<?xml version="1.0" encoding="UTF-8" standalone="no"?>
<!DOCTYPE svg PUBLIC "-//W3C//DTD SVG 1.1//EN"
"http://www.w3.org/Graphics/SVG/1.1/DTD/svg11.dtd">
<svg viewBox="0 0 909 1286" version="1.1" xmlns="http://www.w3.org/2000/svg" xmlns:xlink="http://www.w3.org/1999/xlink">
<defs>
<style type="text/css"><![CDATA[
.g0_32{
fill: #FFFFFF;
}
.g1_32{
fill: #0000FF;
fill-opacity: 0.2;
stroke: #000000;
stroke-width: 0.68750006;
stroke-linecap: butt;
stroke-linejoin: round;
stroke-opacity: 0.2;
}
.g2_32{
fill: #0000FF;
stroke: #0000FF;
stroke-width: 0.68750006;
stroke-linecap: butt;
stroke-linejoin: miter;
}
.g3_32{
fill: none;
stroke: #0000FF;
stroke-width: 1.3750001;
stroke-linecap: square;
stroke-linejoin: round;
}
.g4_32{
fill: none;
stroke: #000000;
stroke-width: 0.68750006;
stroke-linecap: square;
stroke-linejoin: miter;
}
.g5_32{
stroke: #000000;
stroke-width: 0.34375003;
stroke-linecap: butt;
stroke-linejoin: round;
}
.g6_32{
fill: none;
stroke: #000000;
stroke-width: 0.6080556;
stroke-linecap: butt;
stroke-linejoin: miter;
}
.g7_32{
fill: none;
stroke: #000000;
stroke-width: 0.7608333;
stroke-linecap: butt;
stroke-linejoin: miter;
}
]]></style>
</defs>
<path d="M282.5,484H631.6V198.3H282.5Z" class="g0_32" />
<path d="M317.1,453.4H624V215.8H317.1Z" class="g0_32" />
<path d="M378.4,453.4v-99l.3,.4l.2,.4l.3,.4l.2,.4l.3,.4l.2,.3l.3,.4l.2,.4l.3,.4l.2,.4l.2,.4l.3,.3l.2,.4l.3,.4l.2,.4l.3,.3l.2,.4l.3,.4l.2,.3l.3,.4l.2,.4l.2,.3l.3,.4l.2,.4l.3,.3l.2,.4l.3,.3l.2,.4l.3,.3l.2,.4l.3,.3l.2,.4l.2,.3l.3,.4l.2,.3l.3,.4l.2,.3l.3,.4l.2,.3l.3,.3l.2,.4l.3,.3l.2,.3l.2,.4l.3,.3l.2,.3l.3,.4l.2,.3l.3,.3l.2,.3l.3,.4l.2,.3l.3,.3l.2,.3l.2,.3l.3,.4l.2,.3l.3,.3l.2,.3l.3,.3l.2,.3l.3,.3l.2,.4l.3,.3l.2,.3l.2,.3l.3,.3l.2,.3l.3,.3l.2,.3l.3,.3l.2,.3l.3,.3l.2,.3l.3,.3l.2,.3l.2,.2l.3,.3l.2,.3l.3,.3l.2,.3l.3,.3l.2,.3l.3,.3l.2,.2l.3,.3l.2,.3l.2,.3l.3,.3l.2,.2l.3,.3l.2,.3l.3,.3l.2,.2l.3,.3l.2,.3l.3,.2l.2,.3l.2,.3l.3,.2l.2,.3l.3,.3l.2,.2l.3,.3l.2,.3l.3,.2l.2,.3l.3,.2l.2,.3l.2,.2l.3,.3l.2,.2l.3,.3l.2,.3l.3,.2l.2,.3l.3,.2l.2,.2l.3,.3l.2,.2l.3,.3l.2,.2l.2,.3l.3,.2l.2,.3l.3,.2l.2,.2l.3,.3l.2,.2l.3,.2l.2,.3l.3,.2l.2,.2l.2,.3l.3,.2l.2,.2l.3,.3l.2,.2l.3,.2l.2,.2l.3,.3l.2,.2l.3,.2l.2,.2l.2,.3l.3,.2l.2,.2l.3,.2l.2,.2l.3,.3l.2,.2l.3,.2l.2,.2l.3,.2l.2,.2l.2,.3l.3,.2l.2,.2l.3,.2l.2,.2l.3,.2l.2,.2l.3,.2l.2,.2l.3,.2l.2,.2l.2,.2l.3,.2l.2,.2l.3,.2l.2,.2l.3,.2l.2,.2l.3,.2l.2,.2l.3,.2l.2,.2l.2,.2l.3,.2l.2,.2l.3,.2l.2,.2l.3,.2l.2,.2l.3,.2l.2,.2l.3,.1l.2,.2l.2,.2l.3,.2l.2,.2l.3,.2l.2,.2l.3,.1l.2,.2l.3,.2l.2,.2l.3,.2l.2,.1l.2,.2l.3,.2l.2,.2l.3,.1l.2,.2l.3,.2l.2,.2l.3,.1l.2,.2l.3,.2l.2,.2l.2,.1l.3,.2l.2,.2l.3,.1l.2,.2l.3,.2l.2,.1l.3,.2l.2,.2l.3,.1l.2,.2l.2,.2l.3,.1l.2,.2l.3,.1l.2,.2l.3,.2l.2,.1l.3,.2l.2,.1l.3,.2l.2,.2l.2,.1l.3,.2l.2,.1l.3,.2l.2,.1l.3,.2l.2,.1l.3,.2l.2,.1l.3,.2l.2,.1l.2,.2l.3,.1l.2,.2l.3,.1l.2,.2l.3,.1l.2,.2l.3,.1l.2,.2l.3,.1l.2,.2l.2,.1l.3,.1l.2,.2l.3,.1l.2,.2l.3,.1l.2,.1l.3,.2l.2,.1l.3,.2l.2,.1l.3,.1l.2,.2l.2,.1l.3,.1l.2,.2l.3,.1l.2,.1l.3,.2l.2,.1l.3,.1l.2,.2l.3,.1l.2,.1l.2,.2l.3,.1l.2,.1l.3,.2l.2,.1l.3,.1l.2,.1l.3,.2l.2,.1l.3,.1l.2,.1l.2,.2l.3,.1l.2,.1l.3,.1l.2,.2l.3,.1l.2,.1l.3,.1l.2,.1l.3,.2l.2,.1l.2,.1l.3,.1l.2,.1l.3,.2l.2,.1l.3,.1l.2,.1l.3,.1l.2,.1l.3,.1l.2,.2l.2,.1l.3,.1l.2,.1l.3,.1l.2,.1l.3,.1l.2,.2l.3,.1l.2,.1l.3,.1l.2,.1l.2,.1l.3,.1l.2,.1l.3,.1l.2,.1l.3,.1l.2,.1l.3,.2l.2,.1l.3,.1l.2,.1l.2,.1l.3,.1l.2,.1l.3,.1l.2,.1l.3,.1l.2,.1l.3,.1l.2,.1l.3,.1l.2,.1l.2,.1l.3,.1l.2,.1l.3,.1l.2,.1l.3,.1l.2,.1l.3,.1l.2,.1l.3,.1l.2,.1l.2,.1l.3,.1l.2,.1h.3l.2,.1l.3,.1l.2,.1l.3,.1l.2,.1l.3,.1l.2,.1l.2,.1l.3,.1l.2,.1l.3,.1l.2,.1h.3l.2,.1l.3,.1l.2,.1l.3,.1l.2,.1l.2,.1l.3,.1h.2l.3,.1l.2,.1l.3,.1l.2,.1l.3,.1l.2,.1h.3l.2,.1l.2,.1l.3,.1l.2,.1l.3,.1h.2l.3,.1l.2,.1l.3,.1l.2,.1l.3,.1h.2l.3,.1l.2,.1l.2,.1h.3l.2,.1l.3,.1l.2,.1l.3,.1h.2l.3,.1l.2,.1l.3,.1h.2l.2,.1l.3,.1l.2,.1h.3l.2,.1l.3,.1l.2,.1h.3l.2,.1l.3,.1l.2,.1h.2l.3,.1l.2,.1l.3,.1h.2l.3,.1l.2,.1h.3l.2,.1l.3,.1l.2,.1h.2l.3,.1l.2,.1h.3l.2,.1l.3,.1h.2l.3,.1l.2,.1h.3l.2,.1l.2,.1h.3l.2,.1l.3,.1h.2l.3,.1l.2,.1h.3l.2,.1l.3,.1h.2l.2,.1h.3l.2,.1l.3,.1h.2l.3,.1l.2,.1h.3l.2,.1h.3l.2,.1l.2,.1h.3l.2,.1l.3,.1h.2l.3,.1h.2l.3,.1l.2,.1h.3l.2,.1h.2l.3,.1h.2l.3,.1l.2,.1h.3l.2,.1h.3l.2,.1h.3l.2,.1l.2,.1h.3l.2,.1h.3l.2,.1h.3l.2,.1h.3l.2,.1h.3l.2,.1l.2,.1h.3l.2,.1h.3l.2,.1h.3l.2,.1h.3l.2,.1h.3l.2,.1h.2l.3,.1h.2l.3,.1h.2l.3,.1h.2l.3,.1h.2l.3,.1h.2l.2,.1h.3l.2,.1h.3l.2,.1h.3l.2,.1h.3l.2,.1h.3l.2,.1h.2l.3,.1h.5l.2,.1h.3l.2,.1h.3l.2,.1h.3l.2,.1h.3l.2,.1h.5l.2,.1h.3l.2,.1h.3l.2,.1h.5l.3,.1h.2l.2,.1h.3l.2,.1h.5l.3,.1h.2l.3,.1h.2l.3,.1h.4l.3,.1h.2l.3,.1h.5l.2,.1h.3l.2,.1h.5l.2,.1h.5l.3,.1h.2l.3,.1h.5l.2,.1h.3l.2,.1h.5l.2,.1h.5l.3,.1h.5l.2,.1h.3l.2,.1h.5l.2,.1h.5l.3,.1h.5l.2,.1h.5l.2,.1h.5l.3,.1h.5l.2,.1h.5l.3,.1h.4l.3,.1h.5l.2,.1h.5l.3,.1h.5l.2,.1h.5l.2,.1h.8l.2,.1h.5l.3,.1h.4l.3,.1h.7l.3,.1h.5l.2,.1h.7l.3,.1h.5l.2,.1h.8l.2,.1h.5l.2,.1h.8l.2,.1h.8l.2,.1h.5l.3,.1h.7l.2,.1h.8l.2,.1h.8l.2,.1h.7l.3,.1h.7l.3,.1h.9l.3,.1h.7l.3,.1h.7l.3,.1h.7l.2,.1h1l.3,.1h.7l.2,.1h1l.3,.1h1l.2,.1h1l.2,.1h1l.3,.1h.9l.3,.1h1l.2,.1h1l.2,.1h1l.3,.1h1.2l.2,.1h1l.3,.1h1.2l.2,.1h1.3l.2,.1h1.2l.3,.1h1.2l.3,.1h1.2l.2,.1h1.3l.2,.1h1.5l.2,.1H581l.2,.1h1.5l.3,.1h1.4l.3,.1h1.5l.2,.1h1.7l.3,.1h1.7l.2,.1H592l.3,.1H594l.3,.1h1.9l.3,.1h1.9l.3,.1h1.9l.3,.1h1.9l.3,.1h2.2l.2,.1H608l.2,.1h2.5l.2,.1h2.5l.3,.1h2.7l.2,.1h2.9l.3,.1h2.9l.3,.1h1v1.8H378.4Z" class="g1_32" />
<path d="M378.4,239.6l1.6,15.8h-1.5v198h-.1v-198h-1.5Z" class="g2_32" />
<path d="M378.4,354.4l3.5,5.4l3.4,5.1l3.5,4.8l3.4,4.6l3.4,4.3l3.5,4.1l3.6,4.1l3.7,3.9l3.7,3.6l3.7,3.4l3.7,3.3l3.9,3.2l3.9,3.1l4,2.8l4.1,2.9l4.2,2.6l4.2,2.5l4.4,2.5l4.4,2.3l4.7,2.2l4.9,2.2l4.9,2l5.2,1.9l5.4,1.9l5.6,1.8l5.9,1.7l6.1,1.6l6.4,1.5l6.7,1.4l7.1,1.3l7.3,1.3l7.9,1.1l8.3,1.1l9.1,1.1l9.9,.9l10.5,.9l11.6,.8l12.7,.7l14.3,.6l15.9,.6l3,.1m-306.9,1.8h61.3" class="g3_32" />
<path d="M317.1,215.8H624m0,237.6V215.8M317.1,453.4H624m-306.9,0V215.8" class="g4_32" />
<path d="M317.1,453.4v-2.8" class="g5_32" />
<path d="M317.1,215.8v2.7" class="g5_32" />
<path d="M378.4,453.4v-2.8" class="g5_32" />
<path d="M378.4,215.8v2.7" class="g5_32" />
<path d="M439.8,453.4v-2.8" class="g5_32" />
<path d="M439.8,215.8v2.7" class="g5_32" />
<path d="M501.2,453.4v-2.8" class="g5_32" />
<path d="M501.2,215.8v2.7" class="g5_32" />
<path d="M562.6,453.4v-2.8" class="g5_32" />
<path d="M562.6,215.8v2.7" class="g5_32" />
<path d="M624,453.4v-2.8" class="g5_32" />
<path d="M624,215.8v2.7" class="g5_32" />
<path d="M317.1,453.4h2.7" class="g5_32" />
<path d="M624,453.4h-2.8" class="g5_32" />
<path d="M317.1,413.8h2.7" class="g5_32" />
<path d="M624,413.8h-2.8" class="g5_32" />
<path d="M317.1,374.2h2.7" class="g5_32" />
<path d="M624,374.2h-2.8" class="g5_32" />
<path d="M317.1,334.6h2.7" class="g5_32" />
<path d="M624,334.6h-2.8" class="g5_32" />
<path d="M317.1,295h2.7" class="g5_32" />
<path d="M624,295h-2.8" class="g5_32" />
<path d="M317.1,255.4h2.7" class="g5_32" />
<path d="M624,255.4h-2.8" class="g5_32" />
<path d="M572.5,660.7h5.3" class="g6_32" />
<path d="M183.1,763.2H731m-547.6,9v-8.7m547.2,8.7v-8.7M183.4,789V772.2M730.6,789V772.2M183.4,805.7V789m547.2,16.7V789M183.4,822.4V805.7m547.2,16.7V805.7M183.4,839.2V822.4m547.2,16.8V822.4M183.4,855.9V839.2m547.2,16.7V839.2M183.4,872.7V855.9m547.2,16.8V855.9M183.4,889.4V872.7m547.2,16.7V872.7M183.4,906.1V889.4m547.2,16.7V889.4M183.4,922.9V906.1m547.2,16.8V906.1M183.4,939.6V922.9m547.2,16.7V922.9M183.4,956.4V939.6m547.2,16.8V939.6M183.4,973.1V956.4m547.2,16.7V956.4M183.4,989.9V973.1m547.2,16.8V973.1m-547.2,33.5V989.9m547.2,16.7V989.9" class="g7_32" />
</svg>