<?xml version="1.0" encoding="UTF-8" standalone="no"?>
<!DOCTYPE svg PUBLIC "-//W3C//DTD SVG 1.1//EN"
"http://www.w3.org/Graphics/SVG/1.1/DTD/svg11.dtd">
<svg viewBox="0 0 909 1286" version="1.1" xmlns="http://www.w3.org/2000/svg" xmlns:xlink="http://www.w3.org/1999/xlink">
<defs>
<style type="text/css"><![CDATA[
.g0_24{
fill: none;
stroke: #000000;
stroke-width: 0.7608333;
stroke-linecap: butt;
stroke-linejoin: miter;
}
]]></style>
</defs>
<path d="M183.1,250.3H731m-547.6,9.1v-8.7m547.2,8.7v-8.7M183.4,276.1V259.4m547.2,16.7V259.4M183.4,292.8V276.1m547.2,16.7V276.1M183.4,309.6V292.8m547.2,16.8V292.8M183.4,326.3V309.6m547.2,16.7V309.6M183.4,343.1V326.3m547.2,16.8V326.3M183.4,359.8V343.1m547.2,16.7V343.1M183.4,376.6V359.8m547.2,16.8V359.8M183.4,393.3V376.6m547.2,16.7V376.6M183.4,410V393.3M730.6,410V393.3M183.4,426.8V410m547.2,16.8V410M183.4,443.5V426.8m547.2,16.7V426.8M183.4,460.3V443.5m547.2,16.8V443.5M183.4,477V460.3M730.6,477V460.3M183.4,493.8V477m547.2,16.8V477M183.4,502.4v-8.6m547.2,8.6v-8.6m-547.5,9H731M183.1,749.4H731m-547.6,9v-8.7m547.2,8.7v-8.7M183.4,775.1V758.4m547.2,16.7V758.4M183.4,791.9V775.1m547.2,16.8V775.1M183.4,800.5v-8.6m547.2,8.6v-8.6m-547.5,9H731" class="g0_24" />
</svg>