<?xml version="1.0" encoding="UTF-8" standalone="no"?>
<!DOCTYPE svg PUBLIC "-//W3C//DTD SVG 1.1//EN"
"http://www.w3.org/Graphics/SVG/1.1/DTD/svg11.dtd">
<svg viewBox="0 0 909 1286" version="1.1" xmlns="http://www.w3.org/2000/svg" xmlns:xlink="http://www.w3.org/1999/xlink">
<defs>
<style type="text/css"><![CDATA[
.g0_22{
fill: none;
stroke: #000000;
stroke-width: 0.6080556;
stroke-linecap: butt;
stroke-linejoin: miter;
}
]]></style>
</defs>
<path d="M108.3,110.1h694m-694,22.4V110.4m200.8,22.1V110.4m85.8,22.1V110.4m112.3,22.1V110.4m192.2,22.1V110.4m102.9,22.1V110.4m-694,22.4h694m-694,22.3v-22m200.8,22v-22m85.8,22v-22m112.3,22v-22m192.2,22v-22m102.9,22v-22m-694,44.1V155.1m200.8,22.1V155.1m85.8,22.1V155.1m112.3,22.1V155.1m192.2,22.1V155.1m102.9,22.1V155.1m-694,44.2V177.2m200.8,22.1V177.2m85.8,22.1V177.2m112.3,22.1V177.2m192.2,22.1V177.2m102.9,22.1V177.2m-694,44.2V199.3m200.8,22.1V199.3m85.8,22.1V199.3m112.3,22.1V199.3m192.2,22.1V199.3m102.9,22.1V199.3m-694,44.1v-22m200.8,22v-22m85.8,22v-22m112.3,22v-22m192.2,22v-22m102.9,22v-22m-694,44.1V243.4m200.8,22.1V243.4m85.8,22.1V243.4m112.3,22.1V243.4m192.2,22.1V243.4m102.9,22.1V243.4m-694,44.2V265.5m200.8,22.1V265.5m85.8,22.1V265.5m112.3,22.1V265.5m192.2,22.1V265.5m102.9,22.1V265.5m-694,44.1v-22m200.8,22v-22m85.8,22v-22m112.3,22v-22m192.2,22v-22m102.9,22v-22m-694,44.1V309.6m200.8,22.1V309.6m85.8,22.1V309.6m112.3,22.1V309.6m192.2,22.1V309.6m102.9,22.1V309.6m-694,44.2V331.7m200.8,22.1V331.7m85.8,22.1V331.7m112.3,22.1V331.7m192.2,22.1V331.7m102.9,22.1V331.7m-694,22.4h694m-694,22.4V354.4m200.8,22.1V354.4m85.8,22.1V354.4m112.3,22.1V354.4m192.2,22.1V354.4m102.9,22.1V354.4m-694,22.4h694m-694,157.1H801.2M108.6,732.6V533.9M800.9,732.6V533.9M108.3,732.6H801.2" class="g0_22" />
</svg>