<?xml version="1.0" encoding="UTF-8" standalone="no"?>
<!DOCTYPE svg PUBLIC "-//W3C//DTD SVG 1.1//EN"
"http://www.w3.org/Graphics/SVG/1.1/DTD/svg11.dtd">
<svg viewBox="0 0 909 1286" version="1.1" xmlns="http://www.w3.org/2000/svg" xmlns:xlink="http://www.w3.org/1999/xlink">
<defs>
<style type="text/css"><![CDATA[
.g0_75{
fill: none;
stroke: #000000;
stroke-width: 0.6080556;
stroke-linecap: butt;
stroke-linejoin: miter;
}
.g1_75{
fill: #FFFFFF;
}
.g2_75{
fill: #0000FF;
fill-opacity: 0.5;
stroke: #000000;
stroke-width: 0.7638889;
stroke-linecap: square;
stroke-linejoin: round;
stroke-opacity: 0.5;
}
.g3_75{
stroke: #000000;
stroke-width: 0.38194445;
stroke-linecap: butt;
stroke-linejoin: round;
}
.g4_75{
}
.g5_75{
fill: none;
stroke: #000000;
stroke-width: 0.7638889;
stroke-linecap: square;
stroke-linejoin: round;
}
]]></style>
</defs>
<path d="M477.3,126.2H483m160.3,44.2h5.6" class="g0_75" />
<path d="M260.6,607.9H648.8V296.8H260.6Z" class="g1_75" />
<path d="M293.4,580.1h341v-264h-341Z" class="g1_75" />
<path d="M309,580.1h15.9v-3.8H309Z" class="g2_75" />
<path d="M324.9,580.1h15.8v-3.8H324.9Z" class="g2_75" />
<path d="M340.7,580.1h15.8V568.8H340.7Z" class="g2_75" />
<path d="M356.5,580.1h15.9V565H356.5Z" class="g2_75" />
<path d="M372.4,580.1h15.8V523.5H372.4Z" class="g2_75" />
<path d="M388.2,580.1h15.9V508.4H388.2Z" class="g2_75" />
<path d="M404.1,580.1h15.8v-132H404.1Z" class="g2_75" />
<path d="M419.9,580.1h15.8V444.3H419.9Z" class="g2_75" />
<path d="M435.7,580.1h15.9V353.8H435.7Z" class="g2_75" />
<path d="M451.6,580.1h15.8V323.6H451.6Z" class="g2_75" />
<path d="M467.4,580.1h15.9V331.2H467.4Z" class="g2_75" />
<path d="M483.3,580.1h15.8V406.6H483.3Z" class="g2_75" />
<path d="M499.1,580.1h15.8V421.7H499.1Z" class="g2_75" />
<path d="M514.9,580.1h15.9V387.8H514.9Z" class="g2_75" />
<path d="M530.8,580.1h15.8V474.5H530.8Z" class="g2_75" />
<path d="M546.6,580.1h15.8V557.5H546.6Z" class="g2_75" />
<path d="M562.4,580.1h15.9V553.7H562.4Z" class="g2_75" />
<path d="M578.3,580.1h15.8V553.7H578.3Z" class="g2_75" />
<path d="M594.1,580.1H610v-7.5H594.1Z" class="g2_75" />
<path d="M610,580.1h15.8V568.8H610Z" class="g2_75" />
<path d="M293.4,580.1v-3" class="g3_75" />
<path d="M293.4,316.1v3.1" class="g3_75" />
<path d="M336,580.1v-3" class="g3_75" />
<path d="M336,316.1v3.1" class="g3_75" />
<path d="M378.6,580.1v-3" class="g3_75" />
<path d="M378.6,316.1v3.1" class="g3_75" />
<path d="M421.3,580.1v-3" class="g3_75" />
<path d="M421.3,316.1v3.1" class="g3_75" />
<path d="M463.9,580.1v-3" class="g3_75" />
<path d="M463.9,316.1v3.1" class="g3_75" />
<path d="M506.5,580.1v-3" class="g3_75" />
<path d="M506.5,316.1v3.1" class="g3_75" />
<path d="M549.1,580.1v-3" class="g3_75" />
<path d="M549.1,316.1v3.1" class="g3_75" />
<path d="M591.8,580.1v-3" class="g3_75" />
<path d="M591.8,316.1v3.1" class="g3_75" />
<path d="M634.4,580.1v-3" class="g3_75" />
<path d="M634.4,316.1v3.1" class="g3_75" />
<path d="M455.3,600.1h3.6v-.3h-3.6Z" class="g4_75" />
<path d="M293.4,580.1h3" class="g3_75" />
<path d="M634.4,580.1h-3.1" class="g3_75" />
<path d="M293.4,542.4h3" class="g3_75" />
<path d="M634.4,542.4h-3.1" class="g3_75" />
<path d="M293.4,504.7h3" class="g3_75" />
<path d="M634.4,504.7h-3.1" class="g3_75" />
<path d="M293.4,467h3" class="g3_75" />
<path d="M634.4,467h-3.1" class="g3_75" />
<path d="M293.4,429.2h3" class="g3_75" />
<path d="M634.4,429.2h-3.1" class="g3_75" />
<path d="M293.4,391.5h3" class="g3_75" />
<path d="M634.4,391.5h-3.1" class="g3_75" />
<path d="M293.4,353.8h3" class="g3_75" />
<path d="M634.4,353.8h-3.1" class="g3_75" />
<path d="M293.4,316.1h3" class="g3_75" />
<path d="M634.4,316.1h-3.1" class="g3_75" />
<path d="M293.4,316.1h341m0,264v-264m-341,264h341m-341,0v-264" class="g5_75" />
</svg>