<?xml version="1.0" encoding="UTF-8" standalone="no"?>
<!DOCTYPE svg PUBLIC "-//W3C//DTD SVG 1.1//EN"
"http://www.w3.org/Graphics/SVG/1.1/DTD/svg11.dtd">
<svg viewBox="0 0 909 1286" version="1.1" xmlns="http://www.w3.org/2000/svg" xmlns:xlink="http://www.w3.org/1999/xlink">
<defs>
<style type="text/css"><![CDATA[
.g0_42{
fill: none;
stroke: #000000;
stroke-width: 0.7608333;
stroke-linecap: butt;
stroke-linejoin: miter;
}
]]></style>
</defs>
<path d="M183.4,220V203.3M730.6,220V203.3M183.4,236.8V220m547.2,16.8V220M183.4,253.5V236.8m547.2,16.7V236.8M183.4,270.3V253.5m547.2,16.8V253.5M183.4,287V270.3M730.6,287V270.3M183.4,303.8V287m547.2,16.8V287M183.4,320.5V303.8m547.2,16.7V303.8M183.4,337.2V320.5m547.2,16.7V320.5M183.4,354V337.2M730.6,354V337.2M183.4,370.7V354m547.2,16.7V354M183.4,387.5V370.7m547.2,16.8V370.7M183.4,404.2V387.5m547.2,16.7V387.5M183.4,421V404.2M730.6,421V404.2M183.4,437.7V421m547.2,16.7V421M183.4,454.4V437.7m547.2,16.7V437.7M183.4,471.2V454.4m547.2,16.8V454.4M183.4,487.9V471.2m547.2,16.7V471.2M183.4,504.7V487.9m547.2,16.8V487.9M183.4,521.4V504.7m547.2,16.7V504.7M183.4,538.2V521.4m547.2,16.8V521.4M183.4,554.9V538.2m547.2,16.7V538.2M183.4,571.6V554.9m547.2,16.7V554.9M183.4,588.4V571.6m547.2,16.8V571.6M183.4,605.1V588.4m547.2,16.7V588.4M183.4,621.9V605.1m547.2,16.8V605.1M183.4,638.6V621.9m547.2,16.7V621.9M183.4,655.4V638.6m547.2,16.8V638.6M183.4,672.1V655.4m547.2,16.7V655.4M183.4,688.8V672.1m547.2,16.7V672.1M183.4,705.6V688.8m547.2,16.8V688.8M183.4,722.3V705.6m547.2,16.7V705.6M183.4,739.1V722.3m547.2,16.8V722.3M183.4,755.8V739.1m547.2,16.7V739.1M183.4,772.6V755.8m547.2,16.8V755.8M183.4,781.2v-8.6m547.2,8.6v-8.6m-547.5,9H731" class="g0_42" />
</svg>