<?xml version="1.0" encoding="UTF-8" standalone="no"?>
<!DOCTYPE svg PUBLIC "-//W3C//DTD SVG 1.1//EN"
"http://www.w3.org/Graphics/SVG/1.1/DTD/svg11.dtd">
<svg viewBox="0 0 909 1286" version="1.1" xmlns="http://www.w3.org/2000/svg" xmlns:xlink="http://www.w3.org/1999/xlink">
<defs>
<style type="text/css"><![CDATA[
.g0_65{
fill: none;
stroke: #000000;
stroke-width: 0.6080556;
stroke-linecap: butt;
stroke-linejoin: miter;
}
.g1_65{
fill: #FFFFFF;
}
.g2_65{
fill: none;
stroke: #0000FF;
stroke-width: 0.7638889;
stroke-linecap: square;
stroke-linejoin: round;
}
.g3_65{
stroke: #000000;
stroke-width: 0.38194445;
stroke-linecap: butt;
stroke-linejoin: round;
}
.g4_65{
fill: none;
stroke: #000000;
stroke-width: 0.7638889;
stroke-linecap: square;
stroke-linejoin: round;
}
.g5_65{
fill: #0000FF;
fill-opacity: 0.5;
stroke: #000000;
stroke-width: 0.7638889;
stroke-linecap: square;
stroke-linejoin: round;
stroke-opacity: 0.5;
}
]]></style>
</defs>
<path d="M108.3,126.2H801.2m-692.6,9v-8.7m692.3,8.7v-8.7M108.6,155.9V135.2m692.3,20.7V135.2M108.6,164.6v-8.7m692.3,8.7v-8.7m-692.6,9H801.2M108.3,261.2H801.2m-692.6,9v-8.7m692.3,8.7v-8.7M108.6,290.9V270.2m692.3,20.7V270.2M108.6,299.5v-8.6m692.3,8.6v-8.6m-692.6,8.9H801.2" class="g0_65" />
<path d="M256.5,794.5H652.9V448.4H256.5Z" class="g1_65" />
<path d="M297.5,597.8h341v-140h-341Z" class="g1_65" />
<path d="M297.5,561.7l.7,-54.6l.6,43.4l.7,2.8l.7,-21l.7,-.2l.7,21.2l.7,-80l.6,88.2l.7,-10.7l.7,27.7l.7,-13.3l.7,-29.2l.6,33.7L307,553l.7,25.5l.7,-53.2l.7,36.9l.7,-84.3l.6,91.1l.7,14.3l.7,-61.4l.7,30.4l.7,9.9l.6,-49.7l.7,-16.3l.7,65.3l.7,-49.3l.7,9.1l.7,21.1l.6,26.5l.7,-.8l.7,-54l.7,-11.3l.7,29l.6,2.9l.7,6.1l.7,-22.1l.7,69.1l.7,-23.5l.7,-5l.6,-36.8l.7,49.4l.7,-9.7l.7,-51l.7,-8l.7,19.7l.6,7.9l.7,4.4l.7,16.1l.7,13.3l.7,-2.2l.6,-14.9l.7,-23.4l.7,5.2l.7,35.4l.7,-15.7l.7,5.1l.6,15.8l.7,-54.3l.7,40.6l.7,-15.1l.7,32.5l.6,-13.3l.7,-54l.7,58l.7,-23.6l.7,27.9l.7,-19.2l.6,-41.9l.7,-6.7l.7,-4.3l.7,14.2l.7,48l.6,-24l.7,13.7l.7,-27.4l.7,42.4l.7,-9.7l.7,14.9l.6,-54.5l.7,21.6l.7,-2.4l.7,9.1l.7,-16.8l.6,39.1l.7,-28.9l.7,9l.7,-19.8l.7,39.8l.7,-33.5l.6,-20.2l.7,32.6l.7,-7.7l.7,1l.7,15.9l.7,-52.7l.6,65.7l.7,-32.5l.7,10.5l.7,-36.4l.7,40.6L367,507l.7,61.1l.7,-32.1l.7,42.3l.7,-17.6l.7,-62.2l.6,32.5l.7,7.7l.7,33.4l.7,2.9l.7,-7.2l.6,-39.6l1.4,29.2l.7,-.2l.7,-12.9l.7,12l.6,7l.7,-10.2l.7,5.4l.7,14.4l.7,-42.3l.6,36.6l.7,-8.9l.7,-11.9l.7,-3.8l.7,-14.5l.7,4.8l.6,26.3l.7,16.7L388.2,507l.7,51.5l.6,8l.7,-18.1l.7,26.8l.7,-51.3l.7,-1.6l.7,36.3l.6,-43.6l.7,18l.7,-27.8l.7,65.9l.7,3.3l.7,-27.7l.6,-8l.7,2.7l.7,-12.3l.7,22.1l.7,-72.1l.6,57.1l.7,-18.5l.7,42.8l.7,-15.8l.7,-25.3l.7,-21.6l.6,50l.7,-1.3l.7,21.5l.7,-36.2l.7,10.5l.6,3.3l.7,-55l1.4,80.7l.7,-10.4l.7,-40.1l.6,9.4l.7,35.4l.7,10.6l.7,-50.4l.7,13.1l.6,-37.1l.7,60.4l.7,-2.9l.7,-5.2l.7,-27.5l.7,42.2l.6,-17.1l.7,-27.6l.7,49l.7,-49.5l.7,-21.5l.6,74l.7,-17.3l.7,-14.2l.7,12.4l.7,2.4l.7,-2.6l.6,-27.5l.7,-21.9l.7,39.3l.7,3.7l.7,-10.6l.7,3.7l.6,-39l.7,45.8l.7,-9.1l.7,1.4l.7,13.7l.6,-43.4l.7,67.4l.7,-17.5l.7,-65.2l.7,36.5l.7,-35.9l.6,16.1l.7,54.1l.7,-54.9l.7,35.9l.7,18.2l1.3,-52.9l.7,22.9l.7,-1.4l.7,22.2l.7,-23l.6,-14.7l.7,21.3l.7,-6.3l.7,15.4l.7,-14.4l.6,-59.1l.7,64.6l.7,5.8l.7,23.7L453.7,516l.6,4.5l.7,28.1l.7,-42.6l.7,22.6l.7,3l.6,30.7l.7,-7.8l.7,-.2l.7,-22.2l.7,3l.7,49.4l.6,-53.4l.7,1.2l.7,8.1l.7,13.9h.7l.7,29l.6,-87.4l.7,45.9l.7,-51.5l.7,67.5l.7,-33.6l.6,25.7l.7,-37.4l.7,71.4l.7,-56.4l.7,20.1l.7,5.5l.6,-14.3l.7,13.5l.7,-16.8l.7,1l.7,.5l.6,9.4l.7,-15l.7,-50.6l.7,65.8l.7,-16l.7,-2.2l.6,36.4l.7,-15.7l.7,-34.2l.7,43.9l.7,-10.6l.6,29.5l.7,-9.4l.7,-38.2l.7,-28.7l.7,31.7l.7,-24.6l.6,9.2l.7,59.8l.7,-14.1l.7,-63.7l.7,-6.4l1.3,75.8l.7,-41.5l.7,21.5l.7,-39.2l.7,25.6l.6,32.2l.7,9.4l.7,-28.2l.7,-42.4l.7,10.1l.7,-8.8L500,554l.7,29.6l.7,-34.2l.7,17.1l.7,-59.3l.6,21.4l.7,29.3l.7,-47.7l.7,12l.7,26.3l.7,-4.3l.6,-44l.7,59.1l.7,20.1l.7,-70.1l.7,50.2l.6,-50.1l.7,64.1l.7,-40.5l.7,32l.7,6.8l.7,-20.5l.6,-29.1l.7,37.2l.7,-11.5l.7,21l.7,-13.8l.6,-41.1l.7,50.2l.7,-73l.7,33.6l.7,-5.1l.7,49l.6,-58.8l.7,53.2l.7,-2.1l.7,-11l.7,-42.2l.6,48.2l.7,2.2l.7,-33.1l.7,26.7l.7,-34.4l.7,20.3l.6,-21l.7,50.1l.7,-34.1l.7,6l.7,36.4l.7,-58l.6,25.6l.7,-30.9l.7,10.7l.7,28.8l.7,-6.9l.6,-1.3l.7,38l.7,-1.9l.7,-26.8l.7,-10.9l.7,15.4l.6,-11.3l.7,1.9l.7,-35.4l.7,-4.3l.7,24.8l.6,40.9l.7,-22.6l.7,11.2l.7,-40.8l.7,42.1l.7,-22.8l.6,10.7l.7,-11l.7,-49.7l.7,47.4l.7,32l.6,-27.6l.7,-4l.7,-9.4l.7,32l.7,-54.1l.7,7.4l1.3,68.3l.7,-99.1l.7,43.1l.7,-3.5l.6,1.1l.7,23.5l.7,-47l.7,-1.4l.7,69.1l1.3,-56l.7,66.7l.7,-30.1l.7,21.9l.7,2.8l.7,-29l.6,-20.9l.7,6.2l.7,-28.3l.7,59.1l.7,-15.6l.6,13.6l.7,-51.9l.7,74.2l.7,-93.9l.7,15.8l.7,31.2l.6,-47.1l.7,38l.7,-22.2l.7,29.9l.7,-2l.6,-9l.7,18.5l.7,-27.1l.7,26.8l.7,8.6l.7,21.4l.6,-81l.7,29.2l.7,6.5l.7,21.8l.7,-33.3l.6,-16.1l.7,36.7l.7,-28.7l.7,15.4l.7,24.7l.7,-11.9l.6,-21.6l1.4,54.1l.7,-28l.7,-4.9l.6,-9.5l.7,55.7l.7,-31.5l.7,-4.3l.7,2.2l.7,-32.9l.6,50.7l.7,-19l.7,-2.8l.7,11.1l.7,2.2l.7,18l.6,-27.9l.7,3.8l.7,4.7l.7,7.3l1.3,-89.5l.7,56.1l1.4,14.8l.7,9.5l.7,-27.5l.6,46.6l.7,-13.4l.7,-39.1l.7,25.1l.7,-7.3l.6,20.1l.7,-13.3l.7,10.7l.7,21.6l.7,2l.7,-3.5l.6,-36.8l.7,-22.4l.7,16.2l.7,-4.5l.7,49.5l.6,-74.2l.7,83.4l.7,-34.3l.7,-15l.7,-23.6l.7,18.1l.6,23.9l.7,14.1l.7,-66.7l.7,19.6l.7,31.8l.6,-41.7l.7,-2.8l1.4,68.6l.7,-44.7l.7,30.5l.6,-23.7l.7,21.8l.7,-27.9l.7,4.1l.7,15.1l.7,-4.3l.6,-52.8l.7,74.6l.7,2.1" class="g2_65" />
<path d="M297.5,597.8v-3.1" class="g3_65" />
<path d="M297.5,457.8v3" class="g3_65" />
<path d="M365.7,597.8v-3.1" class="g3_65" />
<path d="M365.7,457.8v3" class="g3_65" />
<path d="M433.9,597.8v-3.1" class="g3_65" />
<path d="M433.9,457.8v3" class="g3_65" />
<path d="M502.1,597.8v-3.1" class="g3_65" />
<path d="M502.1,457.8v3" class="g3_65" />
<path d="M570.3,597.8v-3.1" class="g3_65" />
<path d="M570.3,457.8v3" class="g3_65" />
<path d="M638.5,597.8v-3.1" class="g3_65" />
<path d="M638.5,457.8v3" class="g3_65" />
<path d="M297.5,597.8h3" class="g3_65" />
<path d="M638.5,597.8h-3.1" class="g3_65" />
<path d="M297.5,569.8h3" class="g3_65" />
<path d="M638.5,569.8h-3.1" class="g3_65" />
<path d="M297.5,541.8h3" class="g3_65" />
<path d="M638.5,541.8h-3.1" class="g3_65" />
<path d="M297.5,513.8h3" class="g3_65" />
<path d="M638.5,513.8h-3.1" class="g3_65" />
<path d="M297.5,485.8h3" class="g3_65" />
<path d="M638.5,485.8h-3.1" class="g3_65" />
<path d="M297.5,457.8h3" class="g3_65" />
<path d="M638.5,457.8h-3.1" class="g3_65" />
<path d="M297.5,457.8h341m0,140v-140m-341,140h341m-341,0v-140" class="g4_65" />
<path d="M297.5,765.8h341v-140h-341Z" class="g1_65" />
<path d="M303.2,765.8h3.3v-1.1h-3.3Z" class="g5_65" />
<path d="M306.5,765.8h3.3v-3.9h-3.3Z" class="g5_65" />
<path d="M309.8,765.8h3.3v-3.4h-3.3Z" class="g5_65" />
<path d="M313.1,765.8h3.3v-6.7h-3.3Z" class="g5_65" />
<path d="M316.4,765.8h3.3V755.7h-3.3Z" class="g5_65" />
<path d="M319.7,765.8H323V750.7h-3.3Z" class="g5_65" />
<path d="M323,765.8h3.3V752.9H323Z" class="g5_65" />
<path d="M326.3,765.8h3.3V753.5h-3.3Z" class="g5_65" />
<path d="M329.6,765.8h3.3V741.1h-3.3Z" class="g5_65" />
<path d="M332.9,765.8h3.3V742.3h-3.3Z" class="g5_65" />
<path d="M336.2,765.8h3.3V730.5h-3.3Z" class="g5_65" />
<path d="M339.5,765.8h3.3V724.9h-3.3Z" class="g5_65" />
<path d="M342.8,765.8h3.3V727.7h-3.3Z" class="g5_65" />
<path d="M346.1,765.8h3.3V719.3h-3.3Z" class="g5_65" />
<path d="M349.4,765.8h3.3V707.5h-3.3Z" class="g5_65" />
<path d="M352.7,765.8H356V716.5h-3.3Z" class="g5_65" />
<path d="M356,765.8h3.3V710.3H356Z" class="g5_65" />
<path d="M359.3,765.8h3.3V702.5h-3.3Z" class="g5_65" />
<path d="M362.6,765.8H366V700.3h-3.4Z" class="g5_65" />
<path d="M366,765.8h3.3V689.6H366Z" class="g5_65" />
<path d="M369.3,765.8h3.3V693h-3.3Z" class="g5_65" />
<path d="M372.6,765.8h3.3V694.1h-3.3Z" class="g5_65" />
<path d="M375.9,765.8h3.3V682.9h-3.3Z" class="g5_65" />
<path d="M379.2,765.8h3.3V675.1h-3.3Z" class="g5_65" />
<path d="M382.5,765.8h3.3V691.3h-3.3Z" class="g5_65" />
<path d="M385.8,765.8h3.3V681.2h-3.3Z" class="g5_65" />
<path d="M389.1,765.8h3.3V682.9h-3.3Z" class="g5_65" />
<path d="M392.4,765.8h3.3v-93h-3.3Z" class="g5_65" />
<path d="M395.7,765.8H399V675.1h-3.3Z" class="g5_65" />
<path d="M399,765.8h3.3V669.5H399Z" class="g5_65" />
<path d="M402.3,765.8h3.3V659.9h-3.3Z" class="g5_65" />
<path d="M405.6,765.8h3.3V644.3h-3.3Z" class="g5_65" />
<path d="M408.9,765.8h3.3V663.9h-3.3Z" class="g5_65" />
<path d="M412.2,765.8h3.3V657.7h-3.3Z" class="g5_65" />
<path d="M415.5,765.8h3.3V662.2h-3.3Z" class="g5_65" />
<path d="M418.8,765.8h3.3V666.1h-3.3Z" class="g5_65" />
<path d="M422.1,765.8h3.3V653.2h-3.3Z" class="g5_65" />
<path d="M425.4,765.8h3.3v-107h-3.3Z" class="g5_65" />
<path d="M428.7,765.8H432V645.4h-3.3Z" class="g5_65" />
<path d="M432,765.8h3.3V645.4H432Z" class="g5_65" />
<path d="M435.3,765.8h3.3V665h-3.3Z" class="g5_65" />
<path d="M438.6,765.8h3.3V659.9h-3.3Z" class="g5_65" />
<path d="M441.9,765.8h3.3V655.5h-3.3Z" class="g5_65" />
<path d="M445.2,765.8h3.3V647.1h-3.3Z" class="g5_65" />
<path d="M448.5,765.8h3.3V644.3h-3.3Z" class="g5_65" />
<path d="M451.8,765.8h3.3V663.9h-3.3Z" class="g5_65" />
<path d="M455.1,765.8h3.3V657.1h-3.3Z" class="g5_65" />
<path d="M458.4,765.8h3.3V653.2h-3.3Z" class="g5_65" />
<path d="M461.7,765.8H465V659.4h-3.3Z" class="g5_65" />
<path d="M465,765.8h3.3V661.1H465Z" class="g5_65" />
<path d="M468.3,765.8h3.3V672.3h-3.3Z" class="g5_65" />
<path d="M471.6,765.8h3.3V663.9h-3.3Z" class="g5_65" />
<path d="M474.9,765.8h3.3V662.7h-3.3Z" class="g5_65" />
<path d="M478.2,765.8h3.3V677.9h-3.3Z" class="g5_65" />
<path d="M481.5,765.8h3.3V672.3h-3.3Z" class="g5_65" />
<path d="M484.8,765.8h3.3V670.6h-3.3Z" class="g5_65" />
<path d="M488.1,765.8h3.3V677.3h-3.3Z" class="g5_65" />
<path d="M491.4,765.8h3.3V689.6h-3.3Z" class="g5_65" />
<path d="M494.7,765.8H498V687.9h-3.3Z" class="g5_65" />
<path d="M498,765.8h3.3V691.9H498Z" class="g5_65" />
<path d="M501.3,765.8h3.3V690.2h-3.3Z" class="g5_65" />
<path d="M504.6,765.8h3.3V693h-3.3Z" class="g5_65" />
<path d="M507.9,765.8h3.3V691.9h-3.3Z" class="g5_65" />
<path d="M511.2,765.8h3.3v-65h-3.3Z" class="g5_65" />
<path d="M514.5,765.8h3.3V700.3h-3.3Z" class="g5_65" />
<path d="M517.8,765.8h3.3v-70h-3.3Z" class="g5_65" />
<path d="M521.1,765.8h3.4V712.6h-3.4Z" class="g5_65" />
<path d="M524.5,765.8h3.3V716.5h-3.3Z" class="g5_65" />
<path d="M527.8,765.8h3.3v-51h-3.3Z" class="g5_65" />
<path d="M531.1,765.8h3.3V717.6h-3.3Z" class="g5_65" />
<path d="M534.4,765.8h3.3V727.7h-3.3Z" class="g5_65" />
<path d="M537.7,765.8H541V721h-3.3Z" class="g5_65" />
<path d="M541,765.8h3.3V736.7H541Z" class="g5_65" />
<path d="M544.3,765.8h3.3V724.9h-3.3Z" class="g5_65" />
<path d="M547.6,765.8h3.3V740h-3.3Z" class="g5_65" />
<path d="M550.9,765.8h3.3V740.6h-3.3Z" class="g5_65" />
<path d="M554.2,765.8h3.3V732.2h-3.3Z" class="g5_65" />
<path d="M557.5,765.8h3.3V741.1h-3.3Z" class="g5_65" />
<path d="M560.8,765.8h3.3V743.4h-3.3Z" class="g5_65" />
<path d="M564.1,765.8h3.3V747.3h-3.3Z" class="g5_65" />
<path d="M567.4,765.8h3.3V747.3h-3.3Z" class="g5_65" />
<path d="M570.7,765.8H574v-14h-3.3Z" class="g5_65" />
<path d="M574,765.8h3.3V753.5H574Z" class="g5_65" />
<path d="M577.3,765.8h3.3V752.9h-3.3Z" class="g5_65" />
<path d="M580.6,765.8h3.3V753.5h-3.3Z" class="g5_65" />
<path d="M583.9,765.8h3.3v-8.4h-3.3Z" class="g5_65" />
<path d="M587.2,765.8h3.3v-5.6h-3.3Z" class="g5_65" />
<path d="M590.5,765.8h3.3v-7.9h-3.3Z" class="g5_65" />
<path d="M593.8,765.8h3.3v-3.9h-3.3Z" class="g5_65" />
<path d="M597.1,765.8h3.3v-3.4h-3.3Z" class="g5_65" />
<path d="M600.4,765.8h3.3v-3.9h-3.3Z" class="g5_65" />
<path d="M603.7,765.8H607v-1.1h-3.3Z" class="g5_65" />
<path d="M607,765.8h3.3v-.6H607Z" class="g5_65" />
<path d="M610.3,765.8h3.3v-.6h-3.3Z" class="g5_65" />
<path d="M613.6,765.8h3.3h-3.3Z" class="g5_65" />
<path d="M616.9,765.8h3.3h-3.3Z" class="g5_65" />
<path d="M620.2,765.8h3.3v-.6h-3.3Z" class="g5_65" />
<path d="M623.5,765.8h3.3h-3.3Z" class="g5_65" />
<path d="M626.8,765.8h3.3h-3.3Z" class="g5_65" />
<path d="M630.1,765.8h3.3v-.6h-3.3Z" class="g5_65" />
<path d="M297.5,765.8v-3.1" class="g3_65" />
<path d="M297.5,625.8v3" class="g3_65" />
<path d="M365.7,765.8v-3.1" class="g3_65" />
<path d="M365.7,625.8v3" class="g3_65" />
<path d="M433.9,765.8v-3.1" class="g3_65" />
<path d="M433.9,625.8v3" class="g3_65" />
<path d="M502.1,765.8v-3.1" class="g3_65" />
<path d="M502.1,625.8v3" class="g3_65" />
<path d="M570.3,765.8v-3.1" class="g3_65" />
<path d="M570.3,625.8v3" class="g3_65" />
<path d="M638.5,765.8v-3.1" class="g3_65" />
<path d="M638.5,625.8v3" class="g3_65" />
<path d="M297.5,765.8h3" class="g3_65" />
<path d="M638.5,765.8h-3.1" class="g3_65" />
<path d="M297.5,737.8h3" class="g3_65" />
<path d="M638.5,737.8h-3.1" class="g3_65" />
<path d="M297.5,709.8h3" class="g3_65" />
<path d="M638.5,709.8h-3.1" class="g3_65" />
<path d="M297.5,681.8h3" class="g3_65" />
<path d="M638.5,681.8h-3.1" class="g3_65" />
<path d="M297.5,653.8h3" class="g3_65" />
<path d="M638.5,653.8h-3.1" class="g3_65" />
<path d="M297.5,625.8h3" class="g3_65" />
<path d="M638.5,625.8h-3.1" class="g3_65" />
<path d="M297.5,625.8h341m0,140v-140m-341,140h341m-341,0v-140" class="g4_65" />
<path d="M386.7,1007.1h5.7" class="g0_65" />
</svg>