<?xml version="1.0" encoding="UTF-8" standalone="no"?>
<!DOCTYPE svg PUBLIC "-//W3C//DTD SVG 1.1//EN"
"http://www.w3.org/Graphics/SVG/1.1/DTD/svg11.dtd">
<svg viewBox="0 0 909 1286" version="1.1" xmlns="http://www.w3.org/2000/svg" xmlns:xlink="http://www.w3.org/1999/xlink">
<defs>
<style type="text/css"><![CDATA[
.g0_80{
fill: none;
stroke: #000000;
stroke-width: 0.6080556;
stroke-linecap: butt;
stroke-linejoin: miter;
}
]]></style>
</defs>
<path d="M108.3,558.1H801.2m-692.6,9v-8.7m692.3,8.7v-8.7M108.6,587.8V567.1m692.3,20.7V567.1M108.6,608.5V587.8m692.3,20.7V587.8M108.6,629.2V608.5m692.3,20.7V608.5M108.6,649.9V629.2m692.3,20.7V629.2M108.6,670.6V649.9m692.3,20.7V649.9M108.6,691.3V670.6m692.3,20.7V670.6M108.6,712V691.3M800.9,712V691.3M108.6,732.7V712m692.3,20.7V712M108.6,753.4V732.7m692.3,20.7V732.7M108.6,762.1v-8.7m692.3,8.7v-8.7m-692.6,9H801.2" class="g0_80" />
</svg>