<?xml version="1.0" encoding="UTF-8" standalone="no"?>
<!DOCTYPE svg PUBLIC "-//W3C//DTD SVG 1.1//EN"
"http://www.w3.org/Graphics/SVG/1.1/DTD/svg11.dtd">
<svg viewBox="0 0 909 1286" version="1.1" xmlns="http://www.w3.org/2000/svg" xmlns:xlink="http://www.w3.org/1999/xlink">
<defs>
<clipPath id="c0_83"><path d="M257.2,489.6V108.3H652.3V489.6Z" /></clipPath>
<style type="text/css"><![CDATA[
.g0_83{
fill: #FFFFFF;
}
.g1_83{
fill: none;
stroke: #000000;
stroke-width: 2.0625;
stroke-linecap: butt;
stroke-linejoin: round;
}
.g2_83{
fill: none;
stroke: #000000;
stroke-width: 0.68750006;
stroke-linecap: round;
stroke-linejoin: round;
stroke-dasharray: 3,4;
}
.g3_83{
fill: none;
stroke: #000000;
stroke-width: 0.68750006;
stroke-linecap: round;
stroke-linejoin: round;
}
.g4_83{
fill: none;
stroke: #000000;
stroke-width: 0.6080556;
stroke-linecap: butt;
stroke-linejoin: miter;
}
]]></style>
</defs>
<g clip-path="url(#c0_83)">
<path d="M257.2,489.6H652.5V108H257.2V489.6Z" class="g0_83" />
</g>
<path d="M330.2,280.2h58V183.8h-58Z" class="g0_83" />
<path d="M330.2,250.1h58" class="g1_83" />
<path d="M359.2,304.3V280.2m0,-108.4v12" class="g2_83" />
<path d="M344.7,304.3h29m-29,-132.5h29M330.2,280.2h58V183.8h-58v96.4" class="g3_83" />
<path d="M402.7,304.3h58.1V268.1H402.7Z" class="g0_83" />
<path d="M402.7,286.2h58.1" class="g1_83" />
<path d="M431.8,328.4V304.3m0,-60.3v24.1" class="g2_83" />
<path d="M417.2,328.4h29.1M417.2,244h29.1m-43.6,60.3h58.1V268.1H402.7v36.2" class="g3_83" />
<path d="M475.3,316.3h58V280.2h-58Z" class="g0_83" />
<path d="M475.3,298.2h58" class="g1_83" />
<path d="M504.3,364.5V316.3m0,-84.3v48.2" class="g2_83" />
<path d="M489.8,364.5h29M489.8,232h29m-43.5,84.3h58V280.2h-58v36.1" class="g3_83" />
<path d="M547.9,352.4h58V316.3h-58Z" class="g0_83" />
<path d="M547.9,340.4h58" class="g1_83" />
<path d="M576.9,400.6V352.4m0,-72.2v36.1" class="g2_83" />
<path d="M562.4,400.6h29m-29,-120.4h29m-43.5,72.2h58V316.3h-58v36.1m26.5,60.2c0,-1.3,1.1,-2.4,2.5,-2.4c1.3,0,2.5,1.1,2.5,2.4c0,1.4,-1.2,2.5,-2.5,2.5c-1.4,0,-2.5,-1.1,-2.5,-2.5m0,-168.6c0,-1.3,1.1,-2.4,2.5,-2.4c1.3,0,2.5,1.1,2.5,2.4c0,1.4,-1.2,2.5,-2.5,2.5c-1.4,0,-2.5,-1.1,-2.5,-2.5M359.2,422.3H576.9m-217.7,0v6.6m72.6,-6.6v6.6m72.5,-6.6v6.6m72.6,-6.6v6.6M311.3,400.6V220m0,180.6h-6.6m6.6,-60.2h-6.6m6.6,-60.2h-6.6M311.3,220h-6.6m6.6,202.3H624.8V162.2H311.3V422.3" class="g3_83" />
<path d="M108.3,806.9H801.2m-692.6,9v-8.7m692.3,8.7v-8.7M108.6,836.6V815.9m692.3,20.7V815.9M108.6,857.3V836.6m692.3,20.7V836.6M108.6,878V857.3M800.9,878V857.3M108.6,898.7V878m692.3,20.7V878M108.6,919.4V898.7m692.3,20.7V898.7M108.6,940.1V919.4m692.3,20.7V919.4M108.6,960.8V940.1m692.3,20.7V940.1M108.6,981.5V960.8m692.3,20.7V960.8m-692.3,41.4V981.5m692.3,20.7V981.5m-692.3,41.4v-20.7m692.3,20.7v-20.7m-692.3,41.4v-20.7m692.3,20.7v-20.7m-692.3,41.4v-20.7m692.3,20.7v-20.7M108.6,1085v-20.7M800.9,1085v-20.7m-692.3,41.4V1085m692.3,20.7V1085m-692.3,41.4v-20.7m692.3,20.7v-20.7m-692.3,41.4v-20.7m692.3,20.7v-20.7m-692.3,41.4v-20.7m692.3,20.7v-20.7" class="g4_83" />
</svg>