<?xml version="1.0" encoding="UTF-8" standalone="no"?>
<!DOCTYPE svg PUBLIC "-//W3C//DTD SVG 1.1//EN"
"http://www.w3.org/Graphics/SVG/1.1/DTD/svg11.dtd">
<svg viewBox="0 0 909 1286" version="1.1" xmlns="http://www.w3.org/2000/svg" xmlns:xlink="http://www.w3.org/1999/xlink">
<defs>
<style type="text/css"><![CDATA[
.g0_78{
fill: none;
stroke: #000000;
stroke-width: 0.6080556;
stroke-linecap: butt;
stroke-linejoin: miter;
}
]]></style>
</defs>
<path d="M108.3,637.4H801.2m-692.6,9v-8.7m692.3,8.7v-8.7M108.6,667.1V646.4m692.3,20.7V646.4M108.6,687.8V667.1m692.3,20.7V667.1M108.6,708.5V687.8m692.3,20.7V687.8M108.6,729.2V708.5m692.3,20.7V708.5M108.6,749.9V729.2m692.3,20.7V729.2M108.6,770.6V749.9m692.3,20.7V749.9M108.6,791.3V770.6m692.3,20.7V770.6M108.6,812V791.3M800.9,812V791.3M108.6,832.7V812m692.3,20.7V812M108.6,841.3v-8.6m692.3,8.6v-8.6m-692.6,8.9H801.2M108.3,1000.7H801.2m-692.6,8.9V1001m692.3,8.6V1001m-692.3,29.3v-20.7m692.3,20.7v-20.7M108.6,1051v-20.7M800.9,1051v-20.7m-692.3,41.4V1051m692.3,20.7V1051m-692.3,29.4v-8.7m692.3,8.7v-8.7m-692.6,9H801.2m-692.9,12.5H385.4" class="g0_78" />
</svg>