<?xml version="1.0" encoding="UTF-8" standalone="no"?>
<!DOCTYPE svg PUBLIC "-//W3C//DTD SVG 1.1//EN"
"http://www.w3.org/Graphics/SVG/1.1/DTD/svg11.dtd">
<svg viewBox="0 0 909 1286" version="1.1" xmlns="http://www.w3.org/2000/svg" xmlns:xlink="http://www.w3.org/1999/xlink">
<defs>
<style type="text/css"><![CDATA[
.g0_23{
fill: none;
stroke: #000000;
stroke-width: 0.6080556;
stroke-linecap: butt;
stroke-linejoin: miter;
}
]]></style>
</defs>
<path d="M137.5,566.9H772M137.5,589.3V567.2m159.2,22.1V567.2m67.9,22.1V567.2m112.3,22.1V567.2m192.2,22.1V567.2M772,589.3V567.2M137.5,611.3v-22m159.2,22v-22m67.9,22v-22m112.3,22v-22m192.2,22v-22m102.9,22v-22M137.5,611.6H772M137.5,634V611.9M296.7,634V611.9M364.6,634V611.9M476.9,634V611.9M669.1,634V611.9M772,634V611.9M137.5,656.1V634m159.2,22.1V634m67.9,22.1V634m112.3,22.1V634m192.2,22.1V634M772,656.1V634M137.5,678.1v-22m159.2,22v-22m67.9,22v-22m112.3,22v-22m192.2,22v-22m102.9,22v-22M137.5,700.2V678.1m159.2,22.1V678.1m67.9,22.1V678.1m112.3,22.1V678.1m192.2,22.1V678.1M772,700.2V678.1M137.5,722.3V700.2m159.2,22.1V700.2m67.9,22.1V700.2m112.3,22.1V700.2m192.2,22.1V700.2M772,722.3V700.2M137.5,744.4V722.3m159.2,22.1V722.3m67.9,22.1V722.3m112.3,22.1V722.3m192.2,22.1V722.3M772,744.4V722.3M137.5,766.4v-22m159.2,22v-22m67.9,22v-22m112.3,22v-22m192.2,22v-22m102.9,22v-22M137.5,788.5V766.4m159.2,22.1V766.4m67.9,22.1V766.4m112.3,22.1V766.4m192.2,22.1V766.4M772,788.5V766.4M137.5,810.6V788.5m159.2,22.1V788.5m67.9,22.1V788.5m112.3,22.1V788.5m192.2,22.1V788.5M772,810.6V788.5M137.5,832.6v-22m159.2,22v-22m67.9,22v-22m112.3,22v-22m192.2,22v-22m102.9,22v-22M137.5,854.7V832.6m159.2,22.1V832.6m67.9,22.1V832.6m112.3,22.1V832.6m192.2,22.1V832.6M772,854.7V832.6M137.5,855H772M137.5,877.4V855.3m159.2,22.1V855.3m67.9,22.1V855.3m112.3,22.1V855.3m192.2,22.1V855.3M772,877.4V855.3M137.5,877.7H772" class="g0_23" />
</svg>