<?xml version="1.0" encoding="UTF-8" standalone="no"?>
<!DOCTYPE svg PUBLIC "-//W3C//DTD SVG 1.1//EN"
"http://www.w3.org/Graphics/SVG/1.1/DTD/svg11.dtd">
<svg viewBox="0 0 909 1286" version="1.1" xmlns="http://www.w3.org/2000/svg" xmlns:xlink="http://www.w3.org/1999/xlink">
<defs>
<style type="text/css"><![CDATA[
.g0_17{
fill: none;
stroke: #000000;
stroke-width: 0.6080556;
stroke-linecap: butt;
stroke-linejoin: miter;
}
]]></style>
</defs>
<path d="M146,108.6H763.5M146,130.9v-22m104.4,22v-22m361.2,22v-22m151.9,22v-22M146,131.3H763.5M146,153.6v-22m104.4,22v-22m361.2,22v-22m151.9,22v-22M146,175.7V153.6m104.4,22.1V153.6m361.2,22.1V153.6m151.9,22.1V153.6M146,197.8V175.7m104.4,22.1V175.7m361.2,22.1V175.7m151.9,22.1V175.7M146,219.8v-22m104.4,22v-22m361.2,22v-22m151.9,22v-22M146,220.1H763.5m-606,204.7H751.9M157.5,447.2V425.1m121.8,22.1V425.1m65.3,22.1V425.1m112.2,22.1V425.1m192.3,22.1V425.1m102.8,22.1V425.1M157.5,447.5H751.9M157.5,469.9V447.8m121.8,22.1V447.8m65.3,22.1V447.8m112.2,22.1V447.8m192.3,22.1V447.8m102.8,22.1V447.8M157.5,492V469.9M279.3,492V469.9M344.6,492V469.9M456.8,492V469.9M649.1,492V469.9M751.9,492V469.9M157.5,514V492m121.8,22V492m65.3,22V492m112.2,22V492m192.3,22V492m102.8,22V492M157.5,536.1V514m121.8,22.1V514m65.3,22.1V514m112.2,22.1V514m192.3,22.1V514m102.8,22.1V514M157.5,536.4H751.9M157.5,558.8V536.7m121.8,22.1V536.7m65.3,22.1V536.7m112.2,22.1V536.7m192.3,22.1V536.7m102.8,22.1V536.7M157.5,559.1H751.9M157.5,966.2H751.9M157.5,988.6V966.5m121.8,22.1V966.5m65.3,22.1V966.5m112.2,22.1V966.5m192.3,22.1V966.5m102.8,22.1V966.5M157.5,988.9H751.9m-594.4,22.4V989.2m121.8,22.1V989.2m65.3,22.1V989.2m112.2,22.1V989.2m192.3,22.1V989.2m102.8,22.1V989.2m-594.4,44.2v-22.1m121.8,22.1v-22.1m65.3,22.1v-22.1m112.2,22.1v-22.1m192.3,22.1v-22.1m102.8,22.1v-22.1m-594.4,44.1v-22m121.8,22v-22m65.3,22v-22m112.2,22v-22m192.3,22v-22m102.8,22v-22m-594.4,44.1v-22.1m121.8,22.1v-22.1m65.3,22.1v-22.1m112.2,22.1v-22.1m192.3,22.1v-22.1m102.8,22.1v-22.1m-594.4,22.4H751.9m-594.4,22.4v-22.1m121.8,22.1v-22.1m65.3,22.1v-22.1m112.2,22.1v-22.1m192.3,22.1v-22.1m102.8,22.1v-22.1m-594.4,22.4H751.9" class="g0_17" />
</svg>