<?xml version="1.0" encoding="UTF-8" standalone="no"?>
<!DOCTYPE svg PUBLIC "-//W3C//DTD SVG 1.1//EN"
"http://www.w3.org/Graphics/SVG/1.1/DTD/svg11.dtd">
<svg viewBox="0 0 909 1286" version="1.1" xmlns="http://www.w3.org/2000/svg" xmlns:xlink="http://www.w3.org/1999/xlink">
<defs>
<clipPath id="c0_53"><path d="M300.7,381.7v-264h341v264Z" /></clipPath>
<style type="text/css"><![CDATA[
.g0_53{
fill: #FFFFFF;
}
.g1_53{
fill: none;
stroke: #0000FF;
stroke-width: 0.7638889;
stroke-linecap: square;
stroke-linejoin: round;
}
.g2_53{
fill: #0000FF;
stroke: #000000;
stroke-width: 0.38194445;
stroke-linecap: butt;
stroke-linejoin: round;
}
.g3_53{
stroke: #000000;
stroke-width: 0.38194445;
stroke-linecap: butt;
stroke-linejoin: round;
}
.g4_53{
fill: none;
stroke: #000000;
stroke-width: 0.7638889;
stroke-linecap: square;
stroke-linejoin: round;
}
.g5_53{
fill: #0000FF;
stroke: #000000;
stroke-width: 0.7638889;
stroke-linecap: square;
stroke-linejoin: round;
}
]]></style>
</defs>
<path d="M256.3,411.4H653.2V108.3H256.3Z" class="g0_53" />
<path d="M300.7,381.7h341v-264h-341Z" class="g0_53" />
<path d="M300.7,381.7H416.6l3.4,-.1l3.5,-.1l3.4,-.2l3.4,-.4l3.4,-.8l3.4,-1.3l3.4,-2.3l3.4,-3.8l3.4,-5.8l3.4,-8.6l3.4,-12.2l3.5,-16.5L461,308.5l3.4,-25.6l3.4,-29.4L471.2,222l3.4,-31.5L478,161.8l3.4,-23.2l3.4,-15l3.4,-5.2l3.5,5.2l3.4,15l3.4,23.2l3.4,28.7l3.4,31.5l3.4,31.5l3.4,29.4l3.4,25.6l3.4,21.1l3.4,16.5l3.5,12.2l3.4,8.6l3.4,5.8l3.4,3.8l3.4,2.3l3.4,1.3l3.4,.8l3.4,.4l3.4,.2l3.4,.1l3.5,.1h81.8" class="g1_53" />
<g clip-path="url(#c0_53)">
<path d="M300.7,383.6c.5,0,1,-.2,1.3,-.6c.4,-.3,.6,-.8,.6,-1.3c0,-.5,-.2,-1,-.6,-1.4c-.3,-.3,-.8,-.5,-1.3,-.5c-.5,0,-1,.2,-1.4,.5c-.3,.4,-.5,.9,-.5,1.4c0,.5,.2,1,.5,1.3c.4,.4,.9,.6,1.4,.6Z" class="g2_53" />
<path d="M304.1,383.6c.5,0,1,-.2,1.4,-.6c.3,-.3,.5,-.8,.5,-1.3c0,-.5,-.2,-1,-.5,-1.4c-.4,-.3,-.9,-.5,-1.4,-.5c-.5,0,-1,.2,-1.3,.5c-.4,.4,-.6,.9,-.6,1.4c0,.5,.2,1,.6,1.3c.3,.4,.8,.6,1.3,.6Z" class="g2_53" />
<path d="M307.5,383.6c.5,0,1,-.2,1.4,-.6c.3,-.3,.5,-.8,.5,-1.3c0,-.5,-.2,-1,-.5,-1.4c-.4,-.3,-.9,-.5,-1.4,-.5c-.5,0,-1,.2,-1.3,.5c-.4,.4,-.6,.9,-.6,1.4c0,.5,.2,1,.6,1.3c.3,.4,.8,.6,1.3,.6Z" class="g2_53" />
<path d="M310.9,383.6c.5,0,1,-.2,1.4,-.6c.3,-.3,.5,-.8,.5,-1.3c0,-.5,-.2,-1,-.5,-1.4c-.4,-.3,-.9,-.5,-1.4,-.5c-.5,0,-1,.2,-1.3,.5c-.4,.4,-.6,.9,-.6,1.4c0,.5,.2,1,.6,1.3c.3,.4,.8,.6,1.3,.6Z" class="g2_53" />
<path d="M314.3,383.6c.5,0,1,-.2,1.4,-.6c.3,-.3,.5,-.8,.5,-1.3c0,-.5,-.2,-1,-.5,-1.4c-.4,-.3,-.9,-.5,-1.4,-.5c-.5,0,-1,.2,-1.3,.5c-.4,.4,-.6,.9,-.6,1.4c0,.5,.2,1,.6,1.3c.3,.4,.8,.6,1.3,.6Z" class="g2_53" />
<path d="M317.7,383.6c.5,0,1,-.2,1.4,-.6c.3,-.3,.6,-.8,.6,-1.3c0,-.5,-.3,-1,-.6,-1.4c-.4,-.3,-.9,-.5,-1.4,-.5c-.5,0,-1,.2,-1.3,.5c-.4,.4,-.6,.9,-.6,1.4c0,.5,.2,1,.6,1.3c.3,.4,.8,.6,1.3,.6Z" class="g2_53" />
<path d="M321.2,383.6c.5,0,.9,-.2,1.3,-.6c.4,-.3,.6,-.8,.6,-1.3c0,-.5,-.2,-1,-.6,-1.4c-.4,-.3,-.8,-.5,-1.3,-.5c-.6,0,-1,.2,-1.4,.5c-.4,.4,-.6,.9,-.6,1.4c0,.5,.2,1,.6,1.3c.4,.4,.8,.6,1.4,.6Z" class="g2_53" />
<path d="M324.6,383.6c.5,0,1,-.2,1.3,-.6c.4,-.3,.6,-.8,.6,-1.3c0,-.5,-.2,-1,-.6,-1.4c-.3,-.3,-.8,-.5,-1.3,-.5c-.5,0,-1,.2,-1.4,.5c-.3,.4,-.5,.9,-.5,1.4c0,.5,.2,1,.5,1.3c.4,.4,.9,.6,1.4,.6Z" class="g2_53" />
<path d="M328,383.6c.5,0,1,-.2,1.3,-.6c.4,-.3,.6,-.8,.6,-1.3c0,-.5,-.2,-1,-.6,-1.4c-.3,-.3,-.8,-.5,-1.3,-.5c-.5,0,-1,.2,-1.4,.5c-.3,.4,-.5,.9,-.5,1.4c0,.5,.2,1,.5,1.3c.4,.4,.9,.6,1.4,.6Z" class="g2_53" />
<path d="M331.4,383.6c.5,0,1,-.2,1.3,-.6c.4,-.3,.6,-.8,.6,-1.3c0,-.5,-.2,-1,-.6,-1.4c-.3,-.3,-.8,-.5,-1.3,-.5c-.5,0,-1,.2,-1.4,.5c-.3,.4,-.5,.9,-.5,1.4c0,.5,.2,1,.5,1.3c.4,.4,.9,.6,1.4,.6Z" class="g2_53" />
<path d="M334.8,383.6c.5,0,1,-.2,1.3,-.6c.4,-.3,.6,-.8,.6,-1.3c0,-.5,-.2,-1,-.6,-1.4c-.3,-.3,-.8,-.5,-1.3,-.5c-.5,0,-1,.2,-1.4,.5c-.3,.4,-.5,.9,-.5,1.4c0,.5,.2,1,.5,1.3c.4,.4,.9,.6,1.4,.6Z" class="g2_53" />
<path d="M338.2,383.6c.5,0,1,-.2,1.4,-.6c.3,-.3,.5,-.8,.5,-1.3c0,-.5,-.2,-1,-.5,-1.4c-.4,-.3,-.9,-.5,-1.4,-.5c-.5,0,-1,.2,-1.3,.5c-.4,.4,-.6,.9,-.6,1.4c0,.5,.2,1,.6,1.3c.3,.4,.8,.6,1.3,.6Z" class="g2_53" />
<path d="M341.6,383.6c.5,0,1,-.2,1.4,-.6c.3,-.3,.5,-.8,.5,-1.3c0,-.5,-.2,-1,-.5,-1.4c-.4,-.3,-.9,-.5,-1.4,-.5c-.5,0,-1,.2,-1.3,.5c-.4,.4,-.6,.9,-.6,1.4c0,.5,.2,1,.6,1.3c.3,.4,.8,.6,1.3,.6Z" class="g2_53" />
<path d="M345,383.6c.5,0,1,-.2,1.4,-.6c.3,-.3,.5,-.8,.5,-1.3c0,-.5,-.2,-1,-.5,-1.4c-.4,-.3,-.9,-.5,-1.4,-.5c-.5,0,-1,.2,-1.3,.5c-.4,.4,-.6,.9,-.6,1.4c0,.5,.2,1,.6,1.3c.3,.4,.8,.6,1.3,.6Z" class="g2_53" />
<path d="M348.4,383.6c.5,0,1,-.2,1.4,-.6c.3,-.3,.5,-.8,.5,-1.3c0,-.5,-.2,-1,-.5,-1.4c-.4,-.3,-.9,-.5,-1.4,-.5c-.5,0,-1,.2,-1.3,.5c-.4,.4,-.6,.9,-.6,1.4c0,.5,.2,1,.6,1.3c.3,.4,.8,.6,1.3,.6Z" class="g2_53" />
<path d="M351.8,383.6c.5,0,1,-.2,1.4,-.6c.3,-.3,.6,-.8,.6,-1.3c0,-.5,-.3,-1,-.6,-1.4c-.4,-.3,-.9,-.5,-1.4,-.5c-.5,0,-1,.2,-1.3,.5c-.4,.4,-.6,.9,-.6,1.4c0,.5,.2,1,.6,1.3c.3,.4,.8,.6,1.3,.6Z" class="g2_53" />
<path d="M355.3,383.6c.5,0,.9,-.2,1.3,-.6c.4,-.3,.6,-.8,.6,-1.3c0,-.5,-.2,-1,-.6,-1.4c-.4,-.3,-.8,-.5,-1.3,-.5c-.6,0,-1,.2,-1.4,.5c-.4,.4,-.6,.9,-.6,1.4c0,.5,.2,1,.6,1.3c.4,.4,.8,.6,1.4,.6Z" class="g2_53" />
<path d="M358.7,383.6c.5,0,1,-.2,1.3,-.6c.4,-.3,.6,-.8,.6,-1.3c0,-.5,-.2,-1,-.6,-1.4c-.3,-.3,-.8,-.5,-1.3,-.5c-.5,0,-1,.2,-1.4,.5c-.3,.4,-.5,.9,-.5,1.4c0,.5,.2,1,.5,1.3c.4,.4,.9,.6,1.4,.6Z" class="g2_53" />
<path d="M362.1,383.6c.5,0,1,-.2,1.3,-.6c.4,-.3,.6,-.8,.6,-1.3c0,-.5,-.2,-1,-.6,-1.4c-.3,-.3,-.8,-.5,-1.3,-.5c-.5,0,-1,.2,-1.4,.5c-.3,.4,-.5,.9,-.5,1.4c0,.5,.2,1,.5,1.3c.4,.4,.9,.6,1.4,.6Z" class="g2_53" />
<path d="M365.5,383.6c.5,0,1,-.2,1.3,-.6c.4,-.3,.6,-.8,.6,-1.3c0,-.5,-.2,-1,-.6,-1.4c-.3,-.3,-.8,-.5,-1.3,-.5c-.5,0,-1,.2,-1.4,.5c-.3,.4,-.5,.9,-.5,1.4c0,.5,.2,1,.5,1.3c.4,.4,.9,.6,1.4,.6Z" class="g2_53" />
<path d="M368.9,383.6c.5,0,1,-.2,1.3,-.6c.4,-.3,.6,-.8,.6,-1.3c0,-.5,-.2,-1,-.6,-1.4c-.3,-.3,-.8,-.5,-1.3,-.5c-.5,0,-1,.2,-1.4,.5c-.3,.4,-.5,.9,-.5,1.4c0,.5,.2,1,.5,1.3c.4,.4,.9,.6,1.4,.6Z" class="g2_53" />
<path d="M372.3,383.6c.5,0,1,-.2,1.4,-.6c.3,-.3,.5,-.8,.5,-1.3c0,-.5,-.2,-1,-.5,-1.4c-.4,-.3,-.9,-.5,-1.4,-.5c-.5,0,-1,.2,-1.3,.5c-.4,.4,-.6,.9,-.6,1.4c0,.5,.2,1,.6,1.3c.3,.4,.8,.6,1.3,.6Z" class="g2_53" />
<path d="M375.7,383.6c.5,0,1,-.2,1.4,-.6c.3,-.3,.5,-.8,.5,-1.3c0,-.5,-.2,-1,-.5,-1.4c-.4,-.3,-.9,-.5,-1.4,-.5c-.5,0,-1,.2,-1.3,.5c-.4,.4,-.6,.9,-.6,1.4c0,.5,.2,1,.6,1.3c.3,.4,.8,.6,1.3,.6Z" class="g2_53" />
<path d="M379.1,383.6c.5,0,1,-.2,1.4,-.6c.3,-.3,.5,-.8,.5,-1.3c0,-.5,-.2,-1,-.5,-1.4c-.4,-.3,-.9,-.5,-1.4,-.5c-.5,0,-1,.2,-1.3,.5c-.4,.4,-.6,.9,-.6,1.4c0,.5,.2,1,.6,1.3c.3,.4,.8,.6,1.3,.6Z" class="g2_53" />
<path d="M382.5,383.6c.5,0,1,-.2,1.4,-.6c.3,-.3,.5,-.8,.5,-1.3c0,-.5,-.2,-1,-.5,-1.4c-.4,-.3,-.9,-.5,-1.4,-.5c-.5,0,-1,.2,-1.3,.5c-.4,.4,-.6,.9,-.6,1.4c0,.5,.2,1,.6,1.3c.3,.4,.8,.6,1.3,.6Z" class="g2_53" />
<path d="M385.9,383.6c.5,0,1,-.2,1.4,-.6c.3,-.3,.6,-.8,.6,-1.3c0,-.5,-.3,-1,-.6,-1.4c-.4,-.3,-.9,-.5,-1.4,-.5c-.5,0,-1,.2,-1.3,.5c-.4,.4,-.6,.9,-.6,1.4c0,.5,.2,1,.6,1.3c.3,.4,.8,.6,1.3,.6Z" class="g2_53" />
<path d="M389.4,383.6c.5,0,.9,-.2,1.3,-.6c.4,-.3,.6,-.8,.6,-1.3c0,-.5,-.2,-1,-.6,-1.4c-.4,-.3,-.8,-.5,-1.3,-.5c-.6,0,-1,.2,-1.4,.5c-.4,.4,-.6,.9,-.6,1.4c0,.5,.2,1,.6,1.3c.4,.4,.8,.6,1.4,.6Z" class="g2_53" />
<path d="M392.8,383.6c.5,0,1,-.2,1.3,-.6c.4,-.3,.6,-.8,.6,-1.3c0,-.5,-.2,-1,-.6,-1.4c-.3,-.3,-.8,-.5,-1.3,-.5c-.5,0,-1,.2,-1.4,.5c-.3,.4,-.5,.9,-.5,1.4c0,.5,.2,1,.5,1.3c.4,.4,.9,.6,1.4,.6Z" class="g2_53" />
<path d="M396.2,383.6c.5,0,1,-.2,1.3,-.6c.4,-.3,.6,-.8,.6,-1.3c0,-.5,-.2,-1,-.6,-1.4c-.3,-.3,-.8,-.5,-1.3,-.5c-.5,0,-1,.2,-1.4,.5c-.3,.4,-.5,.9,-.5,1.4c0,.5,.2,1,.5,1.3c.4,.4,.9,.6,1.4,.6Z" class="g2_53" />
<path d="M399.6,383.6c.5,0,1,-.2,1.3,-.6c.4,-.3,.6,-.8,.6,-1.3c0,-.5,-.2,-1,-.6,-1.4c-.3,-.3,-.8,-.5,-1.3,-.5c-.5,0,-1,.2,-1.4,.5c-.3,.4,-.5,.9,-.5,1.4c0,.5,.2,1,.5,1.3c.4,.4,.9,.6,1.4,.6Z" class="g2_53" />
<path d="M403,383.6c.5,0,1,-.2,1.3,-.6c.4,-.3,.6,-.8,.6,-1.3c0,-.5,-.2,-1,-.6,-1.4c-.3,-.3,-.8,-.5,-1.3,-.5c-.5,0,-1,.2,-1.4,.5c-.3,.4,-.5,.9,-.5,1.4c0,.5,.2,1,.5,1.3c.4,.4,.9,.6,1.4,.6Z" class="g2_53" />
<path d="M406.4,383.6c.5,0,1,-.2,1.4,-.6c.3,-.3,.5,-.8,.5,-1.3c0,-.5,-.2,-1,-.5,-1.4c-.4,-.3,-.9,-.5,-1.4,-.5c-.5,0,-1,.2,-1.3,.5c-.4,.4,-.6,.9,-.6,1.4c0,.5,.2,1,.6,1.3c.3,.4,.8,.6,1.3,.6Z" class="g2_53" />
<path d="M409.8,383.6c.5,0,1,-.2,1.4,-.6c.3,-.3,.5,-.8,.5,-1.3c0,-.5,-.2,-1,-.5,-1.4c-.4,-.3,-.9,-.5,-1.4,-.5c-.5,0,-1,.2,-1.3,.5c-.4,.4,-.6,.9,-.6,1.4c0,.5,.2,1,.6,1.3c.3,.4,.8,.6,1.3,.6Z" class="g2_53" />
<path d="M413.2,383.6c.5,0,1,-.2,1.4,-.6c.3,-.3,.5,-.8,.5,-1.3c0,-.5,-.2,-1,-.5,-1.4c-.4,-.3,-.9,-.5,-1.4,-.5c-.5,0,-1,.2,-1.3,.5c-.4,.4,-.6,.9,-.6,1.4c0,.5,.2,1,.6,1.3c.3,.4,.8,.6,1.3,.6Z" class="g2_53" />
<path d="M416.6,383.6c.5,0,1,-.2,1.4,-.6c.3,-.4,.5,-.8,.5,-1.3c0,-.6,-.2,-1,-.5,-1.4c-.4,-.4,-.9,-.6,-1.4,-.6c-.5,0,-1,.2,-1.3,.6c-.4,.4,-.6,.8,-.6,1.4c0,.5,.2,.9,.6,1.3c.3,.4,.8,.6,1.3,.6Z" class="g2_53" />
<path d="M420,383.5c.5,0,1,-.2,1.4,-.5c.3,-.4,.6,-.9,.6,-1.4c0,-.5,-.3,-1,-.6,-1.3c-.4,-.4,-.9,-.6,-1.4,-.6c-.5,0,-1,.2,-1.3,.6c-.4,.3,-.6,.8,-.6,1.3c0,.5,.2,1,.6,1.4c.3,.3,.8,.5,1.3,.5Z" class="g2_53" />
<path d="M423.5,383.4c.5,0,.9,-.2,1.3,-.6c.4,-.3,.6,-.8,.6,-1.3c0,-.5,-.2,-1,-.6,-1.4c-.4,-.3,-.8,-.5,-1.3,-.5c-.6,0,-1,.2,-1.4,.5c-.4,.4,-.6,.9,-.6,1.4c0,.5,.2,1,.6,1.3c.4,.4,.8,.6,1.4,.6Z" class="g2_53" />
<path d="M426.9,383.2c.5,0,1,-.2,1.3,-.6c.4,-.3,.6,-.8,.6,-1.3c0,-.5,-.2,-1,-.6,-1.4c-.3,-.3,-.8,-.5,-1.3,-.5c-.5,0,-1,.2,-1.4,.5c-.3,.4,-.5,.9,-.5,1.4c0,.5,.2,1,.5,1.3c.4,.4,.9,.6,1.4,.6Z" class="g2_53" />
<path d="M430.3,382.8c.5,0,1,-.2,1.3,-.6c.4,-.3,.6,-.8,.6,-1.3c0,-.5,-.2,-1,-.6,-1.4c-.3,-.3,-.8,-.5,-1.3,-.5c-.5,0,-1,.2,-1.4,.5c-.3,.4,-.5,.9,-.5,1.4c0,.5,.2,1,.5,1.3c.4,.4,.9,.6,1.4,.6Z" class="g2_53" />
<path d="M433.7,382c.5,0,1,-.2,1.3,-.5c.4,-.4,.6,-.9,.6,-1.4c0,-.5,-.2,-1,-.6,-1.3c-.3,-.4,-.8,-.6,-1.3,-.6c-.5,0,-1,.2,-1.4,.6c-.3,.3,-.5,.8,-.5,1.3c0,.5,.2,1,.5,1.4c.4,.3,.9,.5,1.4,.5Z" class="g2_53" />
</g>
<path d="M437.1,380.7c.5,0,1,-.2,1.3,-.6c.4,-.3,.6,-.8,.6,-1.3c0,-.5,-.2,-1,-.6,-1.4c-.3,-.3,-.8,-.5,-1.3,-.5c-.5,0,-1,.2,-1.4,.5c-.3,.4,-.5,.9,-.5,1.4c0,.5,.2,1,.5,1.3c.4,.4,.9,.6,1.4,.6Z" class="g2_53" />
<path d="M440.5,378.4c.5,0,1,-.2,1.4,-.6c.3,-.3,.5,-.8,.5,-1.3c0,-.5,-.2,-1,-.5,-1.4c-.4,-.3,-.9,-.5,-1.4,-.5c-.5,0,-1,.2,-1.3,.5c-.4,.4,-.6,.9,-.6,1.4c0,.5,.2,1,.6,1.3c.3,.4,.8,.6,1.3,.6Z" class="g2_53" />
<path d="M443.9,374.6c.5,0,1,-.2,1.4,-.5c.3,-.4,.5,-.9,.5,-1.4c0,-.5,-.2,-1,-.5,-1.3c-.4,-.4,-.9,-.6,-1.4,-.6c-.5,0,-1,.2,-1.3,.6c-.4,.3,-.6,.8,-.6,1.3c0,.5,.2,1,.6,1.4c.3,.3,.8,.5,1.3,.5Z" class="g2_53" />
<path d="M447.3,368.8c.5,0,1,-.2,1.4,-.5c.3,-.4,.5,-.9,.5,-1.4c0,-.5,-.2,-1,-.5,-1.3c-.4,-.4,-.9,-.6,-1.4,-.6c-.5,0,-1,.2,-1.3,.6c-.4,.3,-.6,.8,-.6,1.3c0,.5,.2,1,.6,1.4c.3,.3,.8,.5,1.3,.5Z" class="g2_53" />
<path d="M450.7,360.2c.5,0,1,-.2,1.4,-.6c.3,-.3,.5,-.8,.5,-1.3c0,-.5,-.2,-1,-.5,-1.4c-.4,-.3,-.9,-.5,-1.4,-.5c-.5,0,-1,.2,-1.3,.5c-.4,.4,-.6,.9,-.6,1.4c0,.5,.2,1,.6,1.3c.3,.4,.8,.6,1.3,.6Z" class="g2_53" />
<path d="M454.1,348c.5,0,1,-.2,1.4,-.6c.3,-.4,.6,-.8,.6,-1.3c0,-.6,-.3,-1,-.6,-1.4c-.4,-.4,-.9,-.6,-1.4,-.6c-.5,0,-1,.2,-1.3,.6c-.4,.4,-.6,.8,-.6,1.4c0,.5,.2,.9,.6,1.3c.3,.4,.8,.6,1.3,.6Z" class="g2_53" />
<path d="M457.6,331.5c.5,0,.9,-.2,1.3,-.6c.4,-.3,.6,-.8,.6,-1.3c0,-.5,-.2,-1,-.6,-1.4c-.4,-.3,-.8,-.5,-1.3,-.5c-.6,0,-1,.2,-1.4,.5c-.4,.4,-.6,.9,-.6,1.4c0,.5,.2,1,.6,1.3c.4,.4,.8,.6,1.4,.6Z" class="g2_53" />
<path d="M461,310.4c.5,0,1,-.2,1.3,-.6c.4,-.3,.6,-.8,.6,-1.3c0,-.5,-.2,-1,-.6,-1.4c-.3,-.3,-.8,-.5,-1.3,-.5c-.5,0,-1,.2,-1.4,.5c-.3,.4,-.5,.9,-.5,1.4c0,.5,.2,1,.5,1.3c.4,.4,.9,.6,1.4,.6Z" class="g2_53" />
<path d="M464.4,284.8c.5,0,1,-.2,1.3,-.6c.4,-.3,.6,-.8,.6,-1.3c0,-.5,-.2,-1,-.6,-1.4c-.3,-.3,-.8,-.5,-1.3,-.5c-.5,0,-1,.2,-1.4,.5c-.3,.4,-.5,.9,-.5,1.4c0,.5,.2,1,.5,1.3c.4,.4,.9,.6,1.4,.6Z" class="g2_53" />
<path d="M467.8,255.4c.5,0,1,-.2,1.3,-.5c.4,-.4,.6,-.9,.6,-1.4c0,-.5,-.2,-1,-.6,-1.3c-.3,-.4,-.8,-.6,-1.3,-.6c-.5,0,-1,.2,-1.4,.6c-.3,.3,-.5,.8,-.5,1.3c0,.5,.2,1,.5,1.4c.4,.3,.9,.5,1.4,.5Z" class="g2_53" />
<path d="M471.2,223.9c.5,0,1,-.2,1.3,-.6c.4,-.3,.6,-.8,.6,-1.3c0,-.5,-.2,-1,-.6,-1.4c-.3,-.3,-.8,-.5,-1.3,-.5c-.5,0,-1,.2,-1.4,.5c-.3,.4,-.5,.9,-.5,1.4c0,.5,.2,1,.5,1.3c.4,.4,.9,.6,1.4,.6Z" class="g2_53" />
<path d="M474.6,192.4c.5,0,1,-.2,1.4,-.6c.3,-.3,.5,-.8,.5,-1.3c0,-.5,-.2,-1,-.5,-1.4c-.4,-.3,-.9,-.5,-1.4,-.5c-.5,0,-1,.2,-1.3,.5c-.4,.4,-.6,.9,-.6,1.4c0,.5,.2,1,.6,1.3c.3,.4,.8,.6,1.3,.6Z" class="g2_53" />
<path d="M478,163.7c.5,0,1,-.2,1.4,-.6c.3,-.3,.5,-.8,.5,-1.3c0,-.5,-.2,-1,-.5,-1.4c-.4,-.3,-.9,-.5,-1.4,-.5c-.5,0,-1,.2,-1.3,.5c-.4,.4,-.6,.9,-.6,1.4c0,.5,.2,1,.6,1.3c.3,.4,.8,.6,1.3,.6Z" class="g2_53" />
<path d="M481.4,140.5c.5,0,1,-.2,1.4,-.5c.3,-.4,.5,-.9,.5,-1.4c0,-.5,-.2,-1,-.5,-1.3c-.4,-.4,-.9,-.6,-1.4,-.6c-.5,0,-1,.2,-1.3,.6c-.4,.3,-.6,.8,-.6,1.3c0,.5,.2,1,.6,1.4c.3,.3,.8,.5,1.3,.5Z" class="g2_53" />
<path d="M484.8,125.5c.5,0,1,-.2,1.4,-.5c.3,-.4,.5,-.9,.5,-1.4c0,-.5,-.2,-1,-.5,-1.3c-.4,-.4,-.9,-.6,-1.4,-.6c-.5,0,-1,.2,-1.3,.6c-.4,.3,-.6,.8,-.6,1.3c0,.5,.2,1,.6,1.4c.3,.3,.8,.5,1.3,.5Z" class="g2_53" />
<g clip-path="url(#c0_53)">
<path d="M488.2,120.3c.5,0,1,-.2,1.4,-.6c.3,-.3,.6,-.8,.6,-1.3c0,-.5,-.3,-1,-.6,-1.4c-.4,-.3,-.9,-.5,-1.4,-.5c-.5,0,-1,.2,-1.3,.5c-.4,.4,-.6,.9,-.6,1.4c0,.5,.2,1,.6,1.3c.3,.4,.8,.6,1.3,.6Z" class="g2_53" />
</g>
<path d="M491.7,125.5c.5,0,.9,-.2,1.3,-.5c.4,-.4,.6,-.9,.6,-1.4c0,-.5,-.2,-1,-.6,-1.3c-.4,-.4,-.8,-.6,-1.3,-.6c-.6,0,-1,.2,-1.4,.6c-.4,.3,-.6,.8,-.6,1.3c0,.5,.2,1,.6,1.4c.4,.3,.8,.5,1.4,.5Z" class="g2_53" />
<path d="M495.1,140.5c.5,0,1,-.2,1.3,-.5c.4,-.4,.6,-.9,.6,-1.4c0,-.5,-.2,-1,-.6,-1.3c-.3,-.4,-.8,-.6,-1.3,-.6c-.5,0,-1,.2,-1.4,.6c-.3,.3,-.5,.8,-.5,1.3c0,.5,.2,1,.5,1.4c.4,.3,.9,.5,1.4,.5Z" class="g2_53" />
<path d="M498.5,163.7c.5,0,1,-.2,1.3,-.6c.4,-.3,.6,-.8,.6,-1.3c0,-.5,-.2,-1,-.6,-1.4c-.3,-.3,-.8,-.5,-1.3,-.5c-.5,0,-1,.2,-1.4,.5c-.3,.4,-.5,.9,-.5,1.4c0,.5,.2,1,.5,1.3c.4,.4,.9,.6,1.4,.6Z" class="g2_53" />
<path d="M501.9,192.4c.5,0,1,-.2,1.3,-.6c.4,-.3,.6,-.8,.6,-1.3c0,-.5,-.2,-1,-.6,-1.4c-.3,-.3,-.8,-.5,-1.3,-.5c-.5,0,-1,.2,-1.4,.5c-.3,.4,-.5,.9,-.5,1.4c0,.5,.2,1,.5,1.3c.4,.4,.9,.6,1.4,.6Z" class="g2_53" />
<path d="M505.3,223.9c.5,0,1,-.2,1.3,-.6c.4,-.3,.6,-.8,.6,-1.3c0,-.5,-.2,-1,-.6,-1.4c-.3,-.3,-.8,-.5,-1.3,-.5c-.5,0,-1,.2,-1.4,.5c-.3,.4,-.5,.9,-.5,1.4c0,.5,.2,1,.5,1.3c.4,.4,.9,.6,1.4,.6Z" class="g2_53" />
<path d="M508.7,255.4c.5,0,1,-.2,1.4,-.5c.3,-.4,.5,-.9,.5,-1.4c0,-.5,-.2,-1,-.5,-1.3c-.4,-.4,-.9,-.6,-1.4,-.6c-.5,0,-1,.2,-1.3,.6c-.4,.3,-.6,.8,-.6,1.3c0,.5,.2,1,.6,1.4c.3,.3,.8,.5,1.3,.5Z" class="g2_53" />
<path d="M512.1,284.8c.5,0,1,-.2,1.4,-.6c.3,-.3,.5,-.8,.5,-1.3c0,-.5,-.2,-1,-.5,-1.4c-.4,-.3,-.9,-.5,-1.4,-.5c-.5,0,-1,.2,-1.3,.5c-.4,.4,-.6,.9,-.6,1.4c0,.5,.2,1,.6,1.3c.3,.4,.8,.6,1.3,.6Z" class="g2_53" />
<path d="M515.5,310.4c.5,0,1,-.2,1.4,-.6c.3,-.3,.5,-.8,.5,-1.3c0,-.5,-.2,-1,-.5,-1.4c-.4,-.3,-.9,-.5,-1.4,-.5c-.5,0,-1,.2,-1.3,.5c-.4,.4,-.6,.9,-.6,1.4c0,.5,.2,1,.6,1.3c.3,.4,.8,.6,1.3,.6Z" class="g2_53" />
<path d="M518.9,331.5c.5,0,1,-.2,1.4,-.6c.3,-.3,.5,-.8,.5,-1.3c0,-.5,-.2,-1,-.5,-1.4c-.4,-.3,-.9,-.5,-1.4,-.5c-.5,0,-1,.2,-1.3,.5c-.4,.4,-.6,.9,-.6,1.4c0,.5,.2,1,.6,1.3c.3,.4,.8,.6,1.3,.6Z" class="g2_53" />
<path d="M522.3,348c.5,0,1,-.2,1.4,-.6c.3,-.4,.6,-.8,.6,-1.3c0,-.6,-.3,-1,-.6,-1.4c-.4,-.4,-.9,-.6,-1.4,-.6c-.5,0,-1,.2,-1.3,.6c-.4,.4,-.6,.8,-.6,1.4c0,.5,.2,.9,.6,1.3c.3,.4,.8,.6,1.3,.6Z" class="g2_53" />
<path d="M525.8,360.2c.5,0,.9,-.2,1.3,-.6c.4,-.3,.6,-.8,.6,-1.3c0,-.5,-.2,-1,-.6,-1.4c-.4,-.3,-.8,-.5,-1.3,-.5c-.6,0,-1,.2,-1.4,.5c-.4,.4,-.6,.9,-.6,1.4c0,.5,.2,1,.6,1.3c.4,.4,.8,.6,1.4,.6Z" class="g2_53" />
<path d="M529.2,368.8c.5,0,1,-.2,1.3,-.5c.4,-.4,.6,-.9,.6,-1.4c0,-.5,-.2,-1,-.6,-1.3c-.3,-.4,-.8,-.6,-1.3,-.6c-.5,0,-1,.2,-1.4,.6c-.3,.3,-.5,.8,-.5,1.3c0,.5,.2,1,.5,1.4c.4,.3,.9,.5,1.4,.5Z" class="g2_53" />
<path d="M532.6,374.6c.5,0,1,-.2,1.3,-.5c.4,-.4,.6,-.9,.6,-1.4c0,-.5,-.2,-1,-.6,-1.3c-.3,-.4,-.8,-.6,-1.3,-.6c-.5,0,-1,.2,-1.4,.6c-.3,.3,-.5,.8,-.5,1.3c0,.5,.2,1,.5,1.4c.4,.3,.9,.5,1.4,.5Z" class="g2_53" />
<path d="M536,378.4c.5,0,1,-.2,1.3,-.6c.4,-.3,.6,-.8,.6,-1.3c0,-.5,-.2,-1,-.6,-1.4c-.3,-.3,-.8,-.5,-1.3,-.5c-.5,0,-1,.2,-1.4,.5c-.3,.4,-.5,.9,-.5,1.4c0,.5,.2,1,.5,1.3c.4,.4,.9,.6,1.4,.6Z" class="g2_53" />
<path d="M539.4,380.7c.5,0,1,-.2,1.3,-.6c.4,-.3,.6,-.8,.6,-1.3c0,-.5,-.2,-1,-.6,-1.4c-.3,-.3,-.8,-.5,-1.3,-.5c-.5,0,-1,.2,-1.4,.5c-.3,.4,-.5,.9,-.5,1.4c0,.5,.2,1,.5,1.3c.4,.4,.9,.6,1.4,.6Z" class="g2_53" />
<g clip-path="url(#c0_53)">
<path d="M542.8,382c.5,0,1,-.2,1.4,-.5c.3,-.4,.5,-.9,.5,-1.4c0,-.5,-.2,-1,-.5,-1.3c-.4,-.4,-.9,-.6,-1.4,-.6c-.5,0,-1,.2,-1.3,.6c-.4,.3,-.6,.8,-.6,1.3c0,.5,.2,1,.6,1.4c.3,.3,.8,.5,1.3,.5Z" class="g2_53" />
<path d="M546.2,382.8c.5,0,1,-.2,1.4,-.6c.3,-.3,.5,-.8,.5,-1.3c0,-.5,-.2,-1,-.5,-1.4c-.4,-.3,-.9,-.5,-1.4,-.5c-.5,0,-1,.2,-1.3,.5c-.4,.4,-.6,.9,-.6,1.4c0,.5,.2,1,.6,1.3c.3,.4,.8,.6,1.3,.6Z" class="g2_53" />
<path d="M549.6,383.2c.5,0,1,-.2,1.4,-.6c.3,-.3,.5,-.8,.5,-1.3c0,-.5,-.2,-1,-.5,-1.4c-.4,-.3,-.9,-.5,-1.4,-.5c-.5,0,-1,.2,-1.3,.5c-.4,.4,-.6,.9,-.6,1.4c0,.5,.2,1,.6,1.3c.3,.4,.8,.6,1.3,.6Z" class="g2_53" />
<path d="M553,383.4c.5,0,1,-.2,1.4,-.6c.3,-.3,.5,-.8,.5,-1.3c0,-.5,-.2,-1,-.5,-1.4c-.4,-.3,-.9,-.5,-1.4,-.5c-.5,0,-1,.2,-1.3,.5c-.4,.4,-.6,.9,-.6,1.4c0,.5,.2,1,.6,1.3c.3,.4,.8,.6,1.3,.6Z" class="g2_53" />
<path d="M556.4,383.5c.5,0,1,-.2,1.4,-.5c.3,-.4,.6,-.9,.6,-1.4c0,-.5,-.3,-1,-.6,-1.3c-.4,-.4,-.9,-.6,-1.4,-.6c-.5,0,-1,.2,-1.3,.6c-.4,.3,-.6,.8,-.6,1.3c0,.5,.2,1,.6,1.4c.3,.3,.8,.5,1.3,.5Z" class="g2_53" />
<path d="M559.9,383.6c.5,0,.9,-.2,1.3,-.6c.4,-.4,.6,-.8,.6,-1.3c0,-.6,-.2,-1,-.6,-1.4c-.4,-.4,-.8,-.6,-1.3,-.6c-.6,0,-1,.2,-1.4,.6c-.4,.4,-.6,.8,-.6,1.4c0,.5,.2,.9,.6,1.3c.4,.4,.8,.6,1.4,.6Z" class="g2_53" />
<path d="M563.3,383.6c.5,0,1,-.2,1.3,-.6c.4,-.3,.6,-.8,.6,-1.3c0,-.5,-.2,-1,-.6,-1.4c-.3,-.3,-.8,-.5,-1.3,-.5c-.5,0,-1,.2,-1.4,.5c-.3,.4,-.5,.9,-.5,1.4c0,.5,.2,1,.5,1.3c.4,.4,.9,.6,1.4,.6Z" class="g2_53" />
<path d="M566.7,383.6c.5,0,1,-.2,1.3,-.6c.4,-.3,.6,-.8,.6,-1.3c0,-.5,-.2,-1,-.6,-1.4c-.3,-.3,-.8,-.5,-1.3,-.5c-.5,0,-1,.2,-1.4,.5c-.3,.4,-.5,.9,-.5,1.4c0,.5,.2,1,.5,1.3c.4,.4,.9,.6,1.4,.6Z" class="g2_53" />
<path d="M570.1,383.6c.5,0,1,-.2,1.3,-.6c.4,-.3,.6,-.8,.6,-1.3c0,-.5,-.2,-1,-.6,-1.4c-.3,-.3,-.8,-.5,-1.3,-.5c-.5,0,-1,.2,-1.4,.5c-.3,.4,-.5,.9,-.5,1.4c0,.5,.2,1,.5,1.3c.4,.4,.9,.6,1.4,.6Z" class="g2_53" />
<path d="M573.5,383.6c.5,0,1,-.2,1.3,-.6c.4,-.3,.6,-.8,.6,-1.3c0,-.5,-.2,-1,-.6,-1.4c-.3,-.3,-.8,-.5,-1.3,-.5c-.5,0,-1,.2,-1.4,.5c-.3,.4,-.5,.9,-.5,1.4c0,.5,.2,1,.5,1.3c.4,.4,.9,.6,1.4,.6Z" class="g2_53" />
<path d="M576.9,383.6c.5,0,1,-.2,1.4,-.6c.3,-.3,.5,-.8,.5,-1.3c0,-.5,-.2,-1,-.5,-1.4c-.4,-.3,-.9,-.5,-1.4,-.5c-.5,0,-1,.2,-1.3,.5c-.4,.4,-.6,.9,-.6,1.4c0,.5,.2,1,.6,1.3c.3,.4,.8,.6,1.3,.6Z" class="g2_53" />
<path d="M580.3,383.6c.5,0,1,-.2,1.4,-.6c.3,-.3,.5,-.8,.5,-1.3c0,-.5,-.2,-1,-.5,-1.4c-.4,-.3,-.9,-.5,-1.4,-.5c-.5,0,-1,.2,-1.3,.5c-.4,.4,-.6,.9,-.6,1.4c0,.5,.2,1,.6,1.3c.3,.4,.8,.6,1.3,.6Z" class="g2_53" />
<path d="M583.7,383.6c.5,0,1,-.2,1.4,-.6c.3,-.3,.5,-.8,.5,-1.3c0,-.5,-.2,-1,-.5,-1.4c-.4,-.3,-.9,-.5,-1.4,-.5c-.5,0,-1,.2,-1.3,.5c-.4,.4,-.6,.9,-.6,1.4c0,.5,.2,1,.6,1.3c.3,.4,.8,.6,1.3,.6Z" class="g2_53" />
<path d="M587.1,383.6c.5,0,1,-.2,1.4,-.6c.3,-.3,.5,-.8,.5,-1.3c0,-.5,-.2,-1,-.5,-1.4c-.4,-.3,-.9,-.5,-1.4,-.5c-.5,0,-1,.2,-1.3,.5c-.4,.4,-.6,.9,-.6,1.4c0,.5,.2,1,.6,1.3c.3,.4,.8,.6,1.3,.6Z" class="g2_53" />
<path d="M590.5,383.6c.5,0,1,-.2,1.4,-.6c.3,-.3,.6,-.8,.6,-1.3c0,-.5,-.3,-1,-.6,-1.4c-.4,-.3,-.9,-.5,-1.4,-.5c-.5,0,-1,.2,-1.3,.5c-.4,.4,-.6,.9,-.6,1.4c0,.5,.2,1,.6,1.3c.3,.4,.8,.6,1.3,.6Z" class="g2_53" />
<path d="M594,383.6c.5,0,.9,-.2,1.3,-.6c.4,-.3,.6,-.8,.6,-1.3c0,-.5,-.2,-1,-.6,-1.4c-.4,-.3,-.8,-.5,-1.3,-.5c-.6,0,-1,.2,-1.4,.5c-.4,.4,-.6,.9,-.6,1.4c0,.5,.2,1,.6,1.3c.4,.4,.8,.6,1.4,.6Z" class="g2_53" />
<path d="M597.4,383.6c.5,0,1,-.2,1.3,-.6c.4,-.3,.6,-.8,.6,-1.3c0,-.5,-.2,-1,-.6,-1.4c-.3,-.3,-.8,-.5,-1.3,-.5c-.5,0,-1,.2,-1.4,.5c-.3,.4,-.5,.9,-.5,1.4c0,.5,.2,1,.5,1.3c.4,.4,.9,.6,1.4,.6Z" class="g2_53" />
<path d="M600.8,383.6c.5,0,1,-.2,1.3,-.6c.4,-.3,.6,-.8,.6,-1.3c0,-.5,-.2,-1,-.6,-1.4c-.3,-.3,-.8,-.5,-1.3,-.5c-.5,0,-1,.2,-1.4,.5c-.3,.4,-.5,.9,-.5,1.4c0,.5,.2,1,.5,1.3c.4,.4,.9,.6,1.4,.6Z" class="g2_53" />
<path d="M604.2,383.6c.5,0,1,-.2,1.3,-.6c.4,-.3,.6,-.8,.6,-1.3c0,-.5,-.2,-1,-.6,-1.4c-.3,-.3,-.8,-.5,-1.3,-.5c-.5,0,-1,.2,-1.4,.5c-.3,.4,-.5,.9,-.5,1.4c0,.5,.2,1,.5,1.3c.4,.4,.9,.6,1.4,.6Z" class="g2_53" />
<path d="M607.6,383.6c.5,0,1,-.2,1.3,-.6c.4,-.3,.6,-.8,.6,-1.3c0,-.5,-.2,-1,-.6,-1.4c-.3,-.3,-.8,-.5,-1.3,-.5c-.5,0,-1,.2,-1.4,.5c-.3,.4,-.5,.9,-.5,1.4c0,.5,.2,1,.5,1.3c.4,.4,.9,.6,1.4,.6Z" class="g2_53" />
<path d="M611,383.6c.5,0,1,-.2,1.4,-.6c.3,-.3,.5,-.8,.5,-1.3c0,-.5,-.2,-1,-.5,-1.4c-.4,-.3,-.9,-.5,-1.4,-.5c-.5,0,-1,.2,-1.3,.5c-.4,.4,-.6,.9,-.6,1.4c0,.5,.2,1,.6,1.3c.3,.4,.8,.6,1.3,.6Z" class="g2_53" />
<path d="M614.4,383.6c.5,0,1,-.2,1.4,-.6c.3,-.3,.5,-.8,.5,-1.3c0,-.5,-.2,-1,-.5,-1.4c-.4,-.3,-.9,-.5,-1.4,-.5c-.5,0,-1,.2,-1.3,.5c-.4,.4,-.6,.9,-.6,1.4c0,.5,.2,1,.6,1.3c.3,.4,.8,.6,1.3,.6Z" class="g2_53" />
<path d="M617.8,383.6c.5,0,1,-.2,1.4,-.6c.3,-.3,.5,-.8,.5,-1.3c0,-.5,-.2,-1,-.5,-1.4c-.4,-.3,-.9,-.5,-1.4,-.5c-.5,0,-1,.2,-1.3,.5c-.4,.4,-.6,.9,-.6,1.4c0,.5,.2,1,.6,1.3c.3,.4,.8,.6,1.3,.6Z" class="g2_53" />
<path d="M621.2,383.6c.5,0,1,-.2,1.4,-.6c.3,-.3,.5,-.8,.5,-1.3c0,-.5,-.2,-1,-.5,-1.4c-.4,-.3,-.9,-.5,-1.4,-.5c-.5,0,-1,.2,-1.3,.5c-.4,.4,-.6,.9,-.6,1.4c0,.5,.2,1,.6,1.3c.3,.4,.8,.6,1.3,.6Z" class="g2_53" />
<path d="M624.6,383.6c.5,0,1,-.2,1.4,-.6c.3,-.3,.6,-.8,.6,-1.3c0,-.5,-.3,-1,-.6,-1.4c-.4,-.3,-.9,-.5,-1.4,-.5c-.5,0,-1,.2,-1.3,.5c-.4,.4,-.6,.9,-.6,1.4c0,.5,.2,1,.6,1.3c.3,.4,.8,.6,1.3,.6Z" class="g2_53" />
<path d="M628.1,383.6c.5,0,.9,-.2,1.3,-.6c.4,-.3,.6,-.8,.6,-1.3c0,-.5,-.2,-1,-.6,-1.4c-.4,-.3,-.8,-.5,-1.3,-.5c-.6,0,-1,.2,-1.4,.5c-.4,.4,-.6,.9,-.6,1.4c0,.5,.2,1,.6,1.3c.4,.4,.8,.6,1.4,.6Z" class="g2_53" />
<path d="M631.5,383.6c.5,0,1,-.2,1.3,-.6c.4,-.3,.6,-.8,.6,-1.3c0,-.5,-.2,-1,-.6,-1.4c-.3,-.3,-.8,-.5,-1.3,-.5c-.5,0,-1,.2,-1.4,.5c-.3,.4,-.5,.9,-.5,1.4c0,.5,.2,1,.5,1.3c.4,.4,.9,.6,1.4,.6Z" class="g2_53" />
<path d="M634.9,383.6c.5,0,1,-.2,1.3,-.6c.4,-.3,.6,-.8,.6,-1.3c0,-.5,-.2,-1,-.6,-1.4c-.3,-.3,-.8,-.5,-1.3,-.5c-.5,0,-1,.2,-1.4,.5c-.3,.4,-.5,.9,-.5,1.4c0,.5,.2,1,.5,1.3c.4,.4,.9,.6,1.4,.6Z" class="g2_53" />
<path d="M638.3,383.6c.5,0,1,-.2,1.3,-.6c.4,-.3,.6,-.8,.6,-1.3c0,-.5,-.2,-1,-.6,-1.4c-.3,-.3,-.8,-.5,-1.3,-.5c-.5,0,-1,.2,-1.4,.5c-.3,.4,-.5,.9,-.5,1.4c0,.5,.2,1,.5,1.3c.4,.4,.9,.6,1.4,.6Z" class="g2_53" />
<path d="M641.7,383.6c.5,0,1,-.2,1.3,-.6c.4,-.3,.6,-.8,.6,-1.3c0,-.5,-.2,-1,-.6,-1.4c-.3,-.3,-.8,-.5,-1.3,-.5c-.5,0,-1,.2,-1.4,.5c-.3,.4,-.5,.9,-.5,1.4c0,.5,.2,1,.5,1.3c.4,.4,.9,.6,1.4,.6Z" class="g2_53" />
</g>
<path d="M300.7,381.7v-3.1" class="g3_53" />
<path d="M300.7,117.7v3" class="g3_53" />
<path d="M385.9,381.7v-3.1" class="g3_53" />
<path d="M385.9,117.7v3" class="g3_53" />
<path d="M471.2,381.7v-3.1" class="g3_53" />
<path d="M471.2,117.7v3" class="g3_53" />
<path d="M556.4,381.7v-3.1" class="g3_53" />
<path d="M556.4,117.7v3" class="g3_53" />
<path d="M641.7,381.7v-3.1" class="g3_53" />
<path d="M641.7,117.7v3" class="g3_53" />
<path d="M300.7,381.7h3" class="g3_53" />
<path d="M641.7,381.7h-3.1" class="g3_53" />
<path d="M300.7,348.7h3" class="g3_53" />
<path d="M641.7,348.7h-3.1" class="g3_53" />
<path d="M300.7,315.7h3" class="g3_53" />
<path d="M641.7,315.7h-3.1" class="g3_53" />
<path d="M300.7,282.7h3" class="g3_53" />
<path d="M641.7,282.7h-3.1" class="g3_53" />
<path d="M300.7,249.7h3" class="g3_53" />
<path d="M641.7,249.7h-3.1" class="g3_53" />
<path d="M300.7,216.7h3" class="g3_53" />
<path d="M641.7,216.7h-3.1" class="g3_53" />
<path d="M300.7,183.7h3" class="g3_53" />
<path d="M641.7,183.7h-3.1" class="g3_53" />
<path d="M300.7,150.7h3" class="g3_53" />
<path d="M641.7,150.7h-3.1" class="g3_53" />
<path d="M300.7,117.7h3" class="g3_53" />
<path d="M641.7,117.7h-3.1" class="g3_53" />
<path d="M300.7,117.7h341m0,264v-264m-341,264h341m-341,0v-264" class="g4_53" />
<path d="M263.6,1031.2H645.8V728.1H263.6Z" class="g0_53" />
<path d="M296.4,1001.5h341v-264h-341Z" class="g0_53" />
<path d="M329.1,1001.5H332V988.3h-2.9Z" class="g5_53" />
<path d="M332,1001.5h2.9H332Z" class="g5_53" />
<path d="M334.9,1001.5h2.9h-2.9Z" class="g5_53" />
<path d="M337.8,1001.5h2.9h-2.9Z" class="g5_53" />
<path d="M340.7,1001.5h2.9h-2.9Z" class="g5_53" />
<path d="M343.6,1001.5h2.9h-2.9Z" class="g5_53" />
<path d="M346.5,1001.5h2.9V981.7h-2.9Z" class="g5_53" />
<path d="M349.4,1001.5h2.9h-2.9Z" class="g5_53" />
<path d="M352.3,1001.5h2.9v-6.6h-2.9Z" class="g5_53" />
<path d="M355.2,1001.5h2.9v-6.6h-2.9Z" class="g5_53" />
<path d="M358.1,1001.5H361h-2.9Z" class="g5_53" />
<path d="M361,1001.5h2.9V975.1H361Z" class="g5_53" />
<path d="M363.9,1001.5h2.9h-2.9Z" class="g5_53" />
<path d="M366.8,1001.5h2.9h-2.9Z" class="g5_53" />
<path d="M369.7,1001.5h2.9V975.1h-2.9Z" class="g5_53" />
<path d="M372.6,1001.5h2.9V981.7h-2.9Z" class="g5_53" />
<path d="M375.5,1001.5h2.9V981.7h-2.9Z" class="g5_53" />
<path d="M378.4,1001.5h2.9v-33h-2.9Z" class="g5_53" />
<path d="M381.3,1001.5h2.9V988.3h-2.9Z" class="g5_53" />
<path d="M384.2,1001.5h2.9V961.9h-2.9Z" class="g5_53" />
<path d="M387.1,1001.5H390V961.9h-2.9Z" class="g5_53" />
<path d="M390,1001.5h2.9V948.7H390Z" class="g5_53" />
<path d="M392.9,1001.5h2.9V961.9h-2.9Z" class="g5_53" />
<path d="M395.8,1001.5h2.9V942.1h-2.9Z" class="g5_53" />
<path d="M398.7,1001.5h2.9V948.7h-2.9Z" class="g5_53" />
<path d="M401.6,1001.5h2.9V961.9h-2.9Z" class="g5_53" />
<path d="M404.5,1001.5h2.9V915.7h-2.9Z" class="g5_53" />
<path d="M407.4,1001.5h2.9v-66h-2.9Z" class="g5_53" />
<path d="M410.3,1001.5h2.9V909.1h-2.9Z" class="g5_53" />
<path d="M413.2,1001.5h2.9v-99h-2.9Z" class="g5_53" />
<path d="M416.1,1001.5H419V909.1h-2.9Z" class="g5_53" />
<path d="M419,1001.5h2.9V856.3H419Z" class="g5_53" />
<path d="M421.9,1001.5h2.9V928.9h-2.9Z" class="g5_53" />
<path d="M424.8,1001.5h2.9v-99h-2.9Z" class="g5_53" />
<path d="M427.7,1001.5h2.9v-99h-2.9Z" class="g5_53" />
<path d="M430.6,1001.5h2.9V895.9h-2.9Z" class="g5_53" />
<path d="M433.5,1001.5h2.9V882.7h-2.9Z" class="g5_53" />
<path d="M436.4,1001.5h2.9V816.7h-2.9Z" class="g5_53" />
<path d="M439.3,1001.5h2.9v-132h-2.9Z" class="g5_53" />
<path d="M442.2,1001.5h2.9V843.1h-2.9Z" class="g5_53" />
<path d="M445.1,1001.5H448V889.3h-2.9Z" class="g5_53" />
<path d="M448,1001.5h2.9V790.3H448Z" class="g5_53" />
<path d="M450.9,1001.5h2.9V796.9h-2.9Z" class="g5_53" />
<path d="M453.8,1001.5h2.9v-165h-2.9Z" class="g5_53" />
<path d="M456.7,1001.5h2.9V823.3h-2.9Z" class="g5_53" />
<path d="M459.6,1001.5h2.9v-231h-2.9Z" class="g5_53" />
<path d="M462.5,1001.5h2.9V843.1h-2.9Z" class="g5_53" />
<path d="M465.4,1001.5h2.9V810.1h-2.9Z" class="g5_53" />
<path d="M468.3,1001.5h2.9V816.7h-2.9Z" class="g5_53" />
<path d="M471.2,1001.5h2.9V750.7h-2.9Z" class="g5_53" />
<path d="M474.1,1001.5H477V889.3h-2.9Z" class="g5_53" />
<path d="M477,1001.5h2.9V783.7H477Z" class="g5_53" />
<path d="M479.9,1001.5h2.9V849.7h-2.9Z" class="g5_53" />
<path d="M482.8,1001.5h2.9v-165h-2.9Z" class="g5_53" />
<path d="M485.7,1001.5h2.9V909.1h-2.9Z" class="g5_53" />
<path d="M488.6,1001.5h2.9V895.9h-2.9Z" class="g5_53" />
<path d="M491.5,1001.5h2.9V862.9h-2.9Z" class="g5_53" />
<path d="M494.4,1001.5h2.9V862.9h-2.9Z" class="g5_53" />
<path d="M497.3,1001.5h2.9V876.1h-2.9Z" class="g5_53" />
<path d="M500.2,1001.5h2.9V915.7h-2.9Z" class="g5_53" />
<path d="M503.1,1001.5H506V882.7h-2.9Z" class="g5_53" />
<path d="M506,1001.5h2.9V856.3H506Z" class="g5_53" />
<path d="M508.9,1001.5h2.9v-132h-2.9Z" class="g5_53" />
<path d="M511.8,1001.5h2.9V889.3h-2.9Z" class="g5_53" />
<path d="M514.7,1001.5h2.9V909.1h-2.9Z" class="g5_53" />
<path d="M517.6,1001.5h2.9V928.9h-2.9Z" class="g5_53" />
<path d="M520.5,1001.5h2.9v-66h-2.9Z" class="g5_53" />
<path d="M523.4,1001.5h2.9V955.3h-2.9Z" class="g5_53" />
<path d="M526.3,1001.5h2.9V942.1h-2.9Z" class="g5_53" />
<path d="M529.2,1001.5h2.9V909.1h-2.9Z" class="g5_53" />
<path d="M532.1,1001.5H535v-33h-2.9Z" class="g5_53" />
<path d="M535,1001.5h2.9V915.7H535Z" class="g5_53" />
<path d="M537.9,1001.5h2.9v-33h-2.9Z" class="g5_53" />
<path d="M540.8,1001.5h2.9v-33h-2.9Z" class="g5_53" />
<path d="M543.7,1001.5h2.9V948.7h-2.9Z" class="g5_53" />
<path d="M546.6,1001.5h2.9V981.7h-2.9Z" class="g5_53" />
<path d="M549.5,1001.5h2.9v-33h-2.9Z" class="g5_53" />
<path d="M552.4,1001.5h2.9v-6.6h-2.9Z" class="g5_53" />
<path d="M555.3,1001.5h2.9v-6.6h-2.9Z" class="g5_53" />
<path d="M558.2,1001.5h2.9V981.7h-2.9Z" class="g5_53" />
<path d="M561.1,1001.5H564V988.3h-2.9Z" class="g5_53" />
<path d="M564,1001.5h2.9v-6.6H564Z" class="g5_53" />
<path d="M566.9,1001.5h2.9v-6.6h-2.9Z" class="g5_53" />
<path d="M569.8,1001.5h2.9h-2.9Z" class="g5_53" />
<path d="M572.7,1001.5h2.9h-2.9Z" class="g5_53" />
<path d="M575.6,1001.5h2.9V988.3h-2.9Z" class="g5_53" />
<path d="M578.5,1001.5h2.9h-2.9Z" class="g5_53" />
<path d="M581.4,1001.5h2.9h-2.9Z" class="g5_53" />
<path d="M584.3,1001.5h2.9v-6.6h-2.9Z" class="g5_53" />
<path d="M587.2,1001.5h2.9h-2.9Z" class="g5_53" />
<path d="M590.1,1001.5H593v-6.6h-2.9Z" class="g5_53" />
<path d="M593,1001.5h2.9H593Z" class="g5_53" />
<path d="M595.9,1001.5h2.9h-2.9Z" class="g5_53" />
<path d="M598.8,1001.5h2.9h-2.9Z" class="g5_53" />
<path d="M601.7,1001.5h2.9h-2.9Z" class="g5_53" />
<path d="M604.6,1001.5h2.9h-2.9Z" class="g5_53" />
<path d="M607.5,1001.5h2.9h-2.9Z" class="g5_53" />
<path d="M610.4,1001.5h2.9h-2.9Z" class="g5_53" />
<path d="M613.3,1001.5h2.9h-2.9Z" class="g5_53" />
<path d="M616.2,1001.5h2.9v-6.6h-2.9Z" class="g5_53" />
<path d="M296.4,1001.5v-3" class="g3_53" />
<path d="M296.4,737.5v3.1" class="g3_53" />
<path d="M339,1001.5v-3" class="g3_53" />
<path d="M339,737.5v3.1" class="g3_53" />
<path d="M381.6,1001.5v-3" class="g3_53" />
<path d="M381.6,737.5v3.1" class="g3_53" />
<path d="M424.2,1001.5v-3" class="g3_53" />
<path d="M424.2,737.5v3.1" class="g3_53" />
<path d="M466.9,1001.5v-3" class="g3_53" />
<path d="M466.9,737.5v3.1" class="g3_53" />
<path d="M509.5,1001.5v-3" class="g3_53" />
<path d="M509.5,737.5v3.1" class="g3_53" />
<path d="M552.1,1001.5v-3" class="g3_53" />
<path d="M552.1,737.5v3.1" class="g3_53" />
<path d="M594.7,1001.5v-3" class="g3_53" />
<path d="M594.7,737.5v3.1" class="g3_53" />
<path d="M637.4,1001.5v-3" class="g3_53" />
<path d="M637.4,737.5v3.1" class="g3_53" />
<path d="M296.4,1001.5h3" class="g3_53" />
<path d="M637.4,1001.5h-3.1" class="g3_53" />
<path d="M296.4,968.5h3" class="g3_53" />
<path d="M637.4,968.5h-3.1" class="g3_53" />
<path d="M296.4,935.5h3" class="g3_53" />
<path d="M637.4,935.5h-3.1" class="g3_53" />
<path d="M296.4,902.5h3" class="g3_53" />
<path d="M637.4,902.5h-3.1" class="g3_53" />
<path d="M296.4,869.5h3" class="g3_53" />
<path d="M637.4,869.5h-3.1" class="g3_53" />
<path d="M296.4,836.5h3" class="g3_53" />
<path d="M637.4,836.5h-3.1" class="g3_53" />
<path d="M296.4,803.5h3" class="g3_53" />
<path d="M637.4,803.5h-3.1" class="g3_53" />
<path d="M296.4,770.5h3" class="g3_53" />
<path d="M637.4,770.5h-3.1" class="g3_53" />
<path d="M296.4,737.5h3" class="g3_53" />
<path d="M637.4,737.5h-3.1" class="g3_53" />
<path d="M296.4,737.5h341m0,264v-264m-341,264h341m-341,0v-264" class="g4_53" />
</svg>