<?xml version="1.0" encoding="UTF-8" standalone="no"?>
<!DOCTYPE svg PUBLIC "-//W3C//DTD SVG 1.1//EN"
"http://www.w3.org/Graphics/SVG/1.1/DTD/svg11.dtd">
<svg viewBox="0 0 909 1286" version="1.1" xmlns="http://www.w3.org/2000/svg" xmlns:xlink="http://www.w3.org/1999/xlink">
<defs>
<style type="text/css"><![CDATA[
.g0_19{
fill: #FFFFFF;
}
.g1_19{
stroke: #000000;
stroke-width: 0.34375003;
stroke-linecap: butt;
stroke-linejoin: round;
}
.g2_19{
fill: none;
stroke: #000000;
stroke-width: 0.68750006;
stroke-linecap: square;
stroke-linejoin: round;
}
.g3_19{
fill: none;
stroke: #000000;
stroke-width: 1.3750001;
stroke-linecap: square;
stroke-linejoin: round;
}
.g4_19{
fill: #0000FF;
fill-opacity: 0.5;
stroke: #000000;
stroke-width: 0.68750006;
stroke-linecap: square;
stroke-linejoin: round;
stroke-opacity: 0.5;
}
]]></style>
</defs>
<path d="M207.1,712.6H707V198.3H207.1Z" class="g0_19" />
<path d="M241.7,425H450.9V215.8H241.7Z" class="g0_19" />
<image preserveAspectRatio="none" x="242" y="215" width="210" height="210" xlink:href="img/1.png" />
<path d="M262.6,425v-2.7" class="g1_19" />
<path d="M262.6,215.8v2.7" class="g1_19" />
<path d="M304.5,425v-2.7" class="g1_19" />
<path d="M304.5,215.8v2.7" class="g1_19" />
<path d="M346.3,425v-2.7" class="g1_19" />
<path d="M346.3,215.8v2.7" class="g1_19" />
<path d="M388.2,425v-2.7" class="g1_19" />
<path d="M388.2,215.8v2.7" class="g1_19" />
<path d="M430,425v-2.7" class="g1_19" />
<path d="M430,215.8v2.7" class="g1_19" />
<path d="M241.7,404.1h2.7" class="g1_19" />
<path d="M450.9,404.1h-2.7" class="g1_19" />
<path d="M241.7,362.3h2.7" class="g1_19" />
<path d="M450.9,362.3h-2.7" class="g1_19" />
<path d="M241.7,320.4h2.7" class="g1_19" />
<path d="M450.9,320.4h-2.7" class="g1_19" />
<path d="M241.7,278.6h2.7" class="g1_19" />
<path d="M450.9,278.6h-2.7" class="g1_19" />
<path d="M241.7,236.7h2.7" class="g1_19" />
<path d="M450.9,236.7h-2.7" class="g1_19" />
<path d="M241.7,215.8H450.9m0,209.2V215.8M241.7,425H450.9m-209.2,0V215.8" class="g2_19" />
<path d="M492.8,425H702V215.8H492.8Z" class="g0_19" />
<path d="M513.7,425v-2.7" class="g1_19" />
<path d="M513.7,215.8v2.7" class="g1_19" />
<path d="M555.6,425v-2.7" class="g1_19" />
<path d="M555.6,215.8v2.7" class="g1_19" />
<path d="M597.4,425v-2.7" class="g1_19" />
<path d="M597.4,215.8v2.7" class="g1_19" />
<path d="M639.3,425v-2.7" class="g1_19" />
<path d="M639.3,215.8v2.7" class="g1_19" />
<path d="M681.1,425v-2.7" class="g1_19" />
<path d="M681.1,215.8v2.7" class="g1_19" />
<path d="M492.8,404.1h2.7" class="g1_19" />
<path d="M702,404.1h-2.7" class="g1_19" />
<path d="M492.8,362.3h2.7" class="g1_19" />
<path d="M702,362.3h-2.7" class="g1_19" />
<path d="M492.8,320.4h2.7" class="g1_19" />
<path d="M702,320.4h-2.7" class="g1_19" />
<path d="M492.8,278.6h2.7" class="g1_19" />
<path d="M702,278.6h-2.7" class="g1_19" />
<path d="M492.8,236.7h2.7" class="g1_19" />
<path d="M702,236.7h-2.7" class="g1_19" />
<path d="M492.8,215.8H702M702,425V215.8M492.8,425H702m-209.2,0V215.8" class="g2_19" />
<path d="M241.7,687.6H450.9v-216H241.7Z" class="g0_19" />
<path d="M241.7,687.6h20.9l2.1,-.1h2.1l2.1,-.1l2.1,-.1l2.1,-.1l2.1,-.2l2.1,-.2l2,-.3l2.1,-.4l2.1,-.6l2.1,-.7l2.1,-1l2.1,-1.2l2.1,-1.5l2.1,-1.9l2.1,-2.3l2.1,-2.9l2.1,-3.4l2.1,-4.1l2.1,-4.8l2,-5.6l2.1,-6.4l2.1,-7.2l2.1,-8.1l2.1,-8.9l2.1,-9.7l2.1,-10.4l2.1,-11l2.1,-11.3l2.1,-11.6l2.1,-11.6l2.1,-11.3l2.1,-10.9l2,-10l2.1,-9.1l2.1,-7.7l2.1,-6.3l2.1,-4.7l2.1,-2.8l2.1,-1l2.1,1l2.1,2.8l2.1,4.7l2.1,6.3l2.1,7.7l2.1,9.1l2.1,10l2,10.9l2.1,11.3l2.1,11.6l2.1,11.6l2.1,11.3l2.1,11l2.1,10.4l2.1,9.7l2.1,8.9l2.1,8.1l2.1,7.2l2.1,6.4l2.1,5.6l2,4.8l2.1,4.1l2.1,3.4l2.1,2.9l2.1,2.3l2.1,1.9l2.1,1.5l2.1,1.2l2.1,1l2.1,.7l2.1,.6l2.1,.4l2.1,.3l2,.2l2.1,.2l2.1,.1l2.1,.1l2.1,.1h2.1l2.1,.1h20.9" class="g3_19" />
<path d="M262.6,687.6v-2.7" class="g1_19" />
<path d="M262.6,471.6v2.8" class="g1_19" />
<path d="M304.5,687.6v-2.7" class="g1_19" />
<path d="M304.5,471.6v2.8" class="g1_19" />
<path d="M346.3,687.6v-2.7" class="g1_19" />
<path d="M346.3,471.6v2.8" class="g1_19" />
<path d="M388.2,687.6v-2.7" class="g1_19" />
<path d="M388.2,471.6v2.8" class="g1_19" />
<path d="M430,687.6v-2.7" class="g1_19" />
<path d="M430,471.6v2.8" class="g1_19" />
<path d="M241.7,687.6h2.7" class="g1_19" />
<path d="M450.9,687.6h-2.7" class="g1_19" />
<path d="M241.7,591.6h2.7" class="g1_19" />
<path d="M450.9,591.6h-2.7" class="g1_19" />
<path d="M241.7,495.6h2.7" class="g1_19" />
<path d="M450.9,495.6h-2.7" class="g1_19" />
<path d="M241.7,471.6H450.9m0,216v-216m-209.2,216H450.9m-209.2,0v-216" class="g2_19" />
<path d="M492.8,687.6H702v-216H492.8Z" class="g0_19" />
<path d="M529.8,687.6h4.3v-4.3h-4.3Z" class="g4_19" />
<path d="M534.1,687.6h4.3h-4.3Z" class="g4_19" />
<path d="M538.4,687.6h4.3V679h-4.3Z" class="g4_19" />
<path d="M542.7,687.6h4.4V670.3h-4.4Z" class="g4_19" />
<path d="M547.1,687.6h4.3v-4.3h-4.3Z" class="g4_19" />
<path d="M551.4,687.6h4.3V674.7h-4.3Z" class="g4_19" />
<path d="M555.7,687.6H560V657.4h-4.3Z" class="g4_19" />
<path d="M560,687.6h4.3V635.8H560Z" class="g4_19" />
<path d="M564.3,687.6h4.3V627.1h-4.3Z" class="g4_19" />
<path d="M568.6,687.6H573V583.9h-4.4Z" class="g4_19" />
<path d="M573,687.6h4.3v-108H573Z" class="g4_19" />
<path d="M577.3,687.6h4.3v-108h-4.3Z" class="g4_19" />
<path d="M581.6,687.6h4.3V523.5h-4.3Z" class="g4_19" />
<path d="M585.9,687.6h4.3V532.1h-4.3Z" class="g4_19" />
<path d="M590.2,687.6h4.4V506.2h-4.4Z" class="g4_19" />
<path d="M594.6,687.6h4.3V523.5h-4.3Z" class="g4_19" />
<path d="M598.9,687.6h4.3V514.8h-4.3Z" class="g4_19" />
<path d="M603.2,687.6h4.3V510.5h-4.3Z" class="g4_19" />
<path d="M607.5,687.6h4.3V562.3h-4.3Z" class="g4_19" />
<path d="M611.8,687.6h4.3v-108h-4.3Z" class="g4_19" />
<path d="M616.1,687.6h4.4V571h-4.4Z" class="g4_19" />
<path d="M620.5,687.6h4.3V609.9h-4.3Z" class="g4_19" />
<path d="M624.8,687.6h4.3V627.1h-4.3Z" class="g4_19" />
<path d="M629.1,687.6h4.3V627.1h-4.3Z" class="g4_19" />
<path d="M633.4,687.6h4.3V653.1h-4.3Z" class="g4_19" />
<path d="M637.7,687.6H642V670.3h-4.3Z" class="g4_19" />
<path d="M642,687.6h4.4V666H642Z" class="g4_19" />
<path d="M646.4,687.6h4.3v-4.3h-4.3Z" class="g4_19" />
<path d="M650.7,687.6H655v-4.3h-4.3Z" class="g4_19" />
<path d="M655,687.6h4.3v-4.3H655Z" class="g4_19" />
<path d="M513.7,687.6v-2.7" class="g1_19" />
<path d="M513.7,471.6v2.8" class="g1_19" />
<path d="M555.6,687.6v-2.7" class="g1_19" />
<path d="M555.6,471.6v2.8" class="g1_19" />
<path d="M597.4,687.6v-2.7" class="g1_19" />
<path d="M597.4,471.6v2.8" class="g1_19" />
<path d="M639.3,687.6v-2.7" class="g1_19" />
<path d="M639.3,471.6v2.8" class="g1_19" />
<path d="M681.1,687.6v-2.7" class="g1_19" />
<path d="M681.1,471.6v2.8" class="g1_19" />
<path d="M492.8,687.6h2.7" class="g1_19" />
<path d="M702,687.6h-2.7" class="g1_19" />
<path d="M492.8,644.4h2.7" class="g1_19" />
<path d="M702,644.4h-2.7" class="g1_19" />
<path d="M492.8,601.2h2.7" class="g1_19" />
<path d="M702,601.2h-2.7" class="g1_19" />
<path d="M492.8,558h2.7" class="g1_19" />
<path d="M702,558h-2.7" class="g1_19" />
<path d="M492.8,514.8h2.7" class="g1_19" />
<path d="M702,514.8h-2.7" class="g1_19" />
<path d="M492.8,471.6h2.7" class="g1_19" />
<path d="M702,471.6h-2.7" class="g1_19" />
<path d="M492.8,471.6H702m0,216v-216m-209.2,216H702m-209.2,0v-216" class="g2_19" />
</svg>