<?xml version="1.0" encoding="UTF-8" standalone="no"?>
<!DOCTYPE svg PUBLIC "-//W3C//DTD SVG 1.1//EN"
"http://www.w3.org/Graphics/SVG/1.1/DTD/svg11.dtd">
<svg viewBox="0 0 909 1286" version="1.1" xmlns="http://www.w3.org/2000/svg" xmlns:xlink="http://www.w3.org/1999/xlink">
<defs>
<style type="text/css"><![CDATA[
.g0_21{
fill: none;
stroke: #000000;
stroke-width: 0.7608333;
stroke-linecap: butt;
stroke-linejoin: miter;
}
]]></style>
</defs>
<path d="M183.1,272.6H731m-547.6,9V273m547.2,8.6V273M183.4,298.4V281.6m547.2,16.8V281.6M183.4,315.1V298.4m547.2,16.7V298.4M183.4,331.9V315.1m547.2,16.8V315.1M183.4,348.6V331.9m547.2,16.7V331.9M183.4,365.4V348.6m547.2,16.8V348.6M183.4,382.1V365.4m547.2,16.7V365.4M183.4,398.8V382.1m547.2,16.7V382.1M183.4,415.6V398.8m547.2,16.8V398.8M183.4,432.3V415.6m547.2,16.7V415.6M183.4,449.1V432.3m547.2,16.8V432.3M183.4,465.8V449.1m547.2,16.7V449.1M183.4,482.6V465.8m547.2,16.8V465.8M183.4,499.3V482.6m547.2,16.7V482.6M183.4,516V499.3M730.6,516V499.3M183.4,532.8V516m547.2,16.8V516M183.4,549.5V532.8m547.2,16.7V532.8M183.4,566.3V549.5m547.2,16.8V549.5M183.4,583V566.3M730.6,583V566.3M183.4,599.8V583m547.2,16.8V583M183.4,616.5V599.8m547.2,16.7V599.8M183.4,633.2V616.5m547.2,16.7V616.5M183.4,650V633.2M730.6,650V633.2M183.4,666.7V650m547.2,16.7V650M183.4,683.5V666.7m547.2,16.8V666.7M183.4,700.2V683.5m547.2,16.7V683.5M183.4,717V700.2M730.6,717V700.2M183.4,733.7V717m547.2,16.7V717M183.4,750.4V733.7m547.2,16.7V733.7M183.4,767.2V750.4m547.2,16.8V750.4M183.4,783.9V767.2m547.2,16.7V767.2M183.4,800.7V783.9m547.2,16.8V783.9M183.4,809.3v-8.6m547.2,8.6v-8.6m-547.5,9H731M183.1,919.8H731m-547.6,9v-8.6m547.2,8.6v-8.6M183.4,945.6V928.8m547.2,16.8V928.8M183.4,962.3V945.6m547.2,16.7V945.6M183.4,971v-8.7M730.6,971v-8.7m-547.5,9.1H731" class="g0_21" />
</svg>