<?xml version="1.0" encoding="UTF-8" standalone="no"?>
<!DOCTYPE svg PUBLIC "-//W3C//DTD SVG 1.1//EN"
"http://www.w3.org/Graphics/SVG/1.1/DTD/svg11.dtd">
<svg viewBox="0 0 909 1286" version="1.1" xmlns="http://www.w3.org/2000/svg" xmlns:xlink="http://www.w3.org/1999/xlink">
<defs>
<style type="text/css"><![CDATA[
.g0_42{
fill: none;
stroke: #000000;
stroke-width: 0.6080556;
stroke-linecap: butt;
stroke-linejoin: miter;
}
.g1_42{
fill: #FFFFFF;
}
.g2_42{
fill-opacity: 0.2;
stroke: #000000;
stroke-width: 0.7638889;
stroke-linecap: butt;
stroke-linejoin: round;
stroke-opacity: 0.2;
}
.g3_42{
fill: #BFBF00;
fill-opacity: 0.2;
stroke: #BFBF00;
stroke-width: 0.7638889;
stroke-linecap: butt;
stroke-linejoin: round;
stroke-opacity: 0.2;
}
.g4_42{
fill: none;
stroke: #000000;
stroke-width: 1.5277778;
stroke-linecap: square;
stroke-linejoin: round;
}
.g5_42{
stroke: #000000;
stroke-width: 0.38194445;
stroke-linecap: butt;
stroke-linejoin: round;
}
.g6_42{
fill: none;
stroke: #000000;
stroke-width: 0.7638889;
stroke-linecap: square;
stroke-linejoin: round;
}
]]></style>
</defs>
<path d="M108.3,143.4H801.2m-692.6,8.9v-8.6m692.3,8.6v-8.6M108.6,173V152.3M800.9,173V152.3M108.6,193.7V173m692.3,20.7V173M108.6,214.4V193.7m692.3,20.7V193.7M108.6,235.1V214.4m692.3,20.7V214.4M108.6,255.8V235.1m692.3,20.7V235.1M108.6,276.5V255.8m692.3,20.7V255.8M108.6,297.2V276.5m692.3,20.7V276.5M108.6,317.9V297.2m692.3,20.7V297.2M108.6,338.6V317.9m692.3,20.7V317.9M108.6,359.3V338.6m692.3,20.7V338.6M108.6,368v-8.7M800.9,368v-8.7m-692.6,9H801.2" class="g0_42" />
<path d="M259.3,942.1H650.2v-302H259.3Z" class="g1_42" />
<path d="M297.7,913.5h341v-264h-341Z" class="g1_42" />
<path d="M410.6,913.5v-27l.3,-.1l.4,-.1h.3l.3,-.1l.4,-.1l.3,-.1h.4l.3,-.1l.4,-.1l.3,-.1l.3,-.1l.4,-.2l.3,-.1l.4,-.1l.3,-.1l.3,-.2l.4,-.1l.3,-.2l.4,-.2l.3,-.2l.3,-.1l.4,-.2l.3,-.3l.4,-.2l.3,-.2l.3,-.3l.4,-.2l.3,-.3l.4,-.3l.3,-.3l.4,-.3l.3,-.3l.3,-.3l.4,-.4l.3,-.4l.4,-.4l.3,-.4l.3,-.4l.4,25.7l.3,-.5l.4,-.5l.3,-.5l.3,-.5l.4,-.6l.3,-.6l.4,-.6l.3,-.6l.3,-.7l.4,-.7l.3,-.7l.4,-.7l.3,-.8l.4,-.8l.3,-.9l.3,-.8l.4,-.9l.3,-1l.4,-1l.3,-1l.3,-1l.4,-1.1l.3,-1.1l.4,-1.2l.3,-1.2l.3,-1.2l.4,-1.3l.3,-1.3l.4,-1.3l.3,-1.4l.4,-1.5l.3,-1.4l.3,-1.6l.4,-1.5l.3,-1.7l.4,-1.6l.3,-1.7l.3,-1.8l.4,-1.8l.3,-1.8l.4,-1.9l.3,-1.9l.3,-2l.4,-2.1l.3,-2l.4,-2.2l.3,-2.1l.3,-2.2l.4,-2.3l.3,-2.3l.4,-2.4l.3,-2.4l.4,-2.4l.3,-2.5l.3,-2.5l.4,-2.6l.3,-2.6l.4,-2.7l.3,-2.7l.3,-2.7l.4,-2.8l.3,-2.8l.4,-2.8l.3,-2.9L446,801l.4,-3l.3,-2.9l.4,-3l.3,-3l.4,-3.1l.3,-3.1l.3,-3.1l.4,-3.1l.3,-3.1l.4,-3.1l.3,-3.2l.3,-3.2l.4,-3.1l.3,-3.2l.4,-3.2l.3,-3.2l.3,-3.1l.4,-3.2l.3,-3.2l.4,-3.1l.3,-3.2l.3,-3.1l.4,-3.1l.3,-3.1l.4,-3l.3,-3.1l.4,-3l.3,-2.9l.3,-2.9l.4,-2.9l.3,-2.9l.4,-2.8l.3,-2.8l.3,-2.7l.4,-2.6l.3,-2.6l.4,-2.5l.3,-2.5l.3,-2.4l.4,-2.4L460,680l.4,-2.2l.3,-2.1l.3,-2.1l.4,-1.9l.3,-1.9l.4,-1.8l.3,-1.8l.4,-1.6l.3,-1.5l.3,-1.5l.4,-1.4l.3,-1.2l.4,-1.2l.3,-1.1l.3,-1l.4,-.8l.3,-.8l.4,-.7l.3,-.6l.3,-.4l.4,-.4l.3,-.3l.4,-.1l.3,-.1l.4,52.5l.3,.1l.3,.3l.4,.4l.3,.4l.4,.6l.3,.7l.3,.8l.4,.8l.3,1l.4,1.1l.3,1.2l.3,1.2l.4,1.4l.3,1.5l.4,1.5l.3,1.6l.3,1.8l.4,1.8l.3,1.9l.4,1.9l.3,2.1l.4,2.1l.3,2.2l.3,2.3l.4,2.4l.3,2.4l.4,2.5l.3,2.5l.3,2.6l.4,2.6l.3,2.7l.4,2.8l.3,2.8l.3,2.9l.4,2.9l.3,2.9l.4,3l.3,2.9l.4,3.1l.3,3l.3,3.1l.4,3.1l.3,3.1l.4,3.2l.3,3.1l.3,3.2l.4,3.2l.3,3.1l.4,3.2l.3,3.2l.3,3.2l.4,3.1l.3,3.2l.4,3.2l.3,3.1l.3,3.1l.4,3.1l.3,3.1l.4,3.1l.3,3.1l.4,3l.3,3l.3,2.9l.4,3l.3,2.9l.4,2.9l.3,2.8l.3,2.8l.4,-49.6l.3,2.7l.4,2.7l.3,2.7l.3,2.6l.4,2.6l.3,2.5l.4,2.5l.3,2.4l.3,2.4l.4,2.4l.3,2.3l.4,2.2l.3,2.3l.4,2.1l.3,2.2l.3,2l.4,2.1l.3,1.9l.4,2l.3,1.9l.3,1.8l.4,1.8l.3,1.7l.4,1.7l.3,1.7l.3,1.6l.4,1.6l.3,1.5l.4,1.4l.3,1.5l.4,1.4l.3,1.3l.3,1.3l.4,1.3l.3,1.2l.4,1.1l.3,1.2l.3,1.1l.4,1l.3,1l.4,1l.3,1l.3,.9l.4,.8l.3,.9l.4,.8l.3,.7l.3,.7l.4,.7l.3,.7l.4,.6l.3,.6l.4,.5l.3,.6l.3,.5l.4,.4l.3,.5l.4,.4l.3,.3l.3,.4l.4,.3l.3,.3l.4,.3l.3,.2l.3,.2l.4,.2l.3,.1l.4,.1l.3,.1l.4,.1h1.3l.4,-.1h.3l.3,-.1l.4,-.2l.3,-.1l.4,-.2l.3,-.2l.3,-.2l.4,-.3l.3,-.2l.4,-.3l.3,-.3l.3,-.3l.4,-.4l.3,-.3l.4,-.4l.3,-.4l.4,-.4l.3,-.4l.3,-.4l.4,-.5l.3,-.4l.4,-.5l.3,-.4l.3,-.5l.4,-.5l.3,-.4l.4,-.5l.3,-.5l.3,-.5l.4,-.5l.3,-.4l.4,-.5l.3,-.5l.3,-.4l.4,-.4l.3,-.5l.4,-.4l.3,-.4l.4,-.4l.3,-.4l.3,-.3l.4,-.4l.3,-.3l.4,-.3l.3,-.2l.3,-.3l.4,-.2l.3,-.2l.4,-.2l.3,-.1l.3,-.2h.4l.3,-.1h.4l.3,-.1l.4,.1h.3l.3,.1l.4,.1l.3,.1v25.9H410.6Z" class="g2_42" />
<path d="M538.5,913.5V887.8l.3,.2l.3,.2l.4,.2l.3,.3l.4,.3l.3,.3l.3,.4l.4,.3l.3,.4l.4,.4l.3,.4l.3,.4l.4,.5l.3,.4l.4,.5l.3,.5l.4,.5l.3,.5l.3,.5l.4,.5l.3,.5l.4,.6l.3,.5l.3,.5l.4,.6l.3,.5l.4,.5l.3,.5l.3,.6l.4,.5l.3,.5l.4,.5l.3,.5l.4,.5l.3,.4l.3,.5l.4,.5l.3,.4l.4,.4l.3,.4l.3,.5l.4,.3l.3,.4l.4,.4l.3,.4l.3,.3l.4,.3l.3,.3l.4,.4l.3,.2l.3,.3l.4,.3l.3,.2l.4,.3l.3,.2l.4,.2l.3,.2l.3,.2l.4,.2l.3,.2l.4,.2l.3,.1l.3,.2l.4,.1l.3,.1l.4,.2l.3,.1l.3,.1l.4,.1l.3,.1l.4,.1h.3l.3,.1l.4,.1h.3l.4,.1l.3,.1h.4l.3,.1h.7l.3,.1h.7l.3,.1h1.1l.3,.1h2.1l.3,.1h67.5H538.5Z" class="g3_42" />
<path d="M297.7,913.5v0h102l.3,-.1l.4,-26.2h2.7l.3,-.1h1.7l.4,-.1h1l.3,-.1h.7l.4,-.1h.6l.4,-.1h.3l.4,-.1h.3l.3,-.1h.4v27H297.7Z" class="g3_42" />
<path d="M297.7,913.5h102l.3,-.1l.4,-26.2l4.7,-.1l3.4,-.3l2.4,-.4L413,886l1.7,-.6l1.7,-.6l1.7,-.9l1.3,-1l1.4,-1.1l1.4,-1.3l1.3,-1.6l.4,25.7l1.3,-2l1.4,-2.4l1.4,-2.8l1.3,-3.3l1.4,-3.9l1.4,-4.4l1.3,-5l1.4,-5.6l1.4,-6.4l1.3,-7.1l1.7,-9.9l1.7,-11.1l1.7,-12.2l2.1,-16.1l2.4,-20.3l3,-28l5.2,-46.9l2,-17.2L459,687.1l1.4,-9.3l1.3,-8l1.1,-5.2l1,-4.4l1,-3.5l.7,-1.8l.7,-1.5l.6,-1l.7,-.7l.4,-.1l.3,-.1l.4,52.5l.3,.1l.7,.7l.7,1l.6,1.5l.7,1.8l.7,2.3l1,4.1l1,4.9l1.1,5.6l1.3,8.7l1.4,9.8l1.7,13.5l2.1,17.7l3,28.1l4.5,40.7l2.3,20.3l.4,-49.6l2,15.8l1.7,12l1.7,10.8l1.7,9.7l1.4,6.9l1.4,6.1l1.3,5.5l1.4,4.8l1.4,4.1l1.3,3.6l1.4,2.9l1,1.9l1,1.6l1.1,1.3l1,1l1,.8l1,.5l1.1,.3h1l1,-.1l1,-.4l1,-.6l1.1,-.8l1.3,-1.3l1.4,-1.6l1.7,-2.2l5.1,-6.9l1.4,-1.5l1,-.8l1,-.7l1,-.5l1.1,-.1h.7l1,.2l1,.5l1,.7l1,1l1.4,1.5l1.4,1.8l2,3l4.5,6.8l1.7,2.2l1.7,2l1.3,1.3l1.4,1.2l1.4,.9l1.3,.8l1.7,.7l1.7,.6l2.1,.4l2.4,.3l3,.2l4.8,.1h64.1" class="g4_42" />
<path d="M297.7,913.5v-3" class="g5_42" />
<path d="M297.7,649.5v3.1" class="g5_42" />
<path d="M365.9,913.5v-3" class="g5_42" />
<path d="M365.9,649.5v3.1" class="g5_42" />
<path d="M434.1,913.5v-3" class="g5_42" />
<path d="M434.1,649.5v3.1" class="g5_42" />
<path d="M502.3,913.5v-3" class="g5_42" />
<path d="M502.3,649.5v3.1" class="g5_42" />
<path d="M570.5,913.5v-3" class="g5_42" />
<path d="M570.5,649.5v3.1" class="g5_42" />
<path d="M638.7,913.5v-3" class="g5_42" />
<path d="M638.7,649.5v3.1" class="g5_42" />
<path d="M297.7,913.5h3.1" class="g5_42" />
<path d="M638.7,913.5h-3" class="g5_42" />
<path d="M297.7,880.5h3.1" class="g5_42" />
<path d="M638.7,880.5h-3" class="g5_42" />
<path d="M297.7,847.5h3.1" class="g5_42" />
<path d="M638.7,847.5h-3" class="g5_42" />
<path d="M297.7,814.5h3.1" class="g5_42" />
<path d="M638.7,814.5h-3" class="g5_42" />
<path d="M297.7,781.5h3.1" class="g5_42" />
<path d="M638.7,781.5h-3" class="g5_42" />
<path d="M297.7,748.5h3.1" class="g5_42" />
<path d="M638.7,748.5h-3" class="g5_42" />
<path d="M297.7,715.5h3.1" class="g5_42" />
<path d="M638.7,715.5h-3" class="g5_42" />
<path d="M297.7,682.5h3.1" class="g5_42" />
<path d="M638.7,682.5h-3" class="g5_42" />
<path d="M297.7,649.5h3.1" class="g5_42" />
<path d="M638.7,649.5h-3" class="g5_42" />
<path d="M297.7,649.5h341m0,264v-264m-341,264h341m-341,0v-264" class="g6_42" />
</svg>