<?xml version="1.0" encoding="UTF-8" standalone="no"?>
<!DOCTYPE svg PUBLIC "-//W3C//DTD SVG 1.1//EN"
"http://www.w3.org/Graphics/SVG/1.1/DTD/svg11.dtd">
<svg viewBox="0 0 909 1286" version="1.1" xmlns="http://www.w3.org/2000/svg" xmlns:xlink="http://www.w3.org/1999/xlink">
<defs>
<style type="text/css"><![CDATA[
.g0_23{
fill: none;
stroke: #000000;
stroke-width: 0.7608333;
stroke-linecap: butt;
stroke-linejoin: miter;
}
.g1_23{
fill: none;
stroke: #000000;
stroke-width: 0.6080556;
stroke-linecap: butt;
stroke-linejoin: miter;
}
]]></style>
</defs>
<path d="M183.4,220V203.3M730.6,220V203.3M183.4,236.8V220m547.2,16.8V220M183.4,253.5V236.8m547.2,16.7V236.8M183.4,270.3V253.5m547.2,16.8V253.5M183.4,287V270.3M730.6,287V270.3M183.4,303.8V287m547.2,16.8V287M183.4,312.4v-8.6m547.2,8.6v-8.6m-547.5,9H731" class="g0_23" />
<path d="M377.3,355.1h5.3M262.2,376.4h5.3m149.6,0h5.3" class="g1_23" />
<path d="M183.1,508.4H731m-547.6,9v-8.6m547.2,8.6v-8.6M183.4,534.2V517.4m547.2,16.8V517.4M183.4,550.9V534.2m547.2,16.7V534.2M183.4,567.7V550.9m547.2,16.8V550.9M183.4,584.4V567.7m547.2,16.7V567.7M183.4,601.1V584.4m547.2,16.7V584.4M183.4,617.9V601.1m547.2,16.8V601.1M183.4,634.6V617.9m547.2,16.7V617.9M183.4,651.4V634.6m547.2,16.8V634.6M183.4,668.1V651.4m547.2,16.7V651.4M183.4,684.8V668.1m547.2,16.7V668.1M183.4,701.6V684.8m547.2,16.8V684.8M183.4,718.3V701.6m547.2,16.7V701.6M183.4,735.1V718.3m547.2,16.8V718.3M183.4,751.8V735.1m547.2,16.7V735.1M183.4,768.6V751.8m547.2,16.8V751.8M183.4,785.3V768.6m547.2,16.7V768.6M183.4,802V785.3M730.6,802V785.3M183.4,810.7V802m547.2,8.7V802m-547.5,9.1H731" class="g0_23" />
</svg>