<?xml version="1.0" encoding="UTF-8" standalone="no"?>
<!DOCTYPE svg PUBLIC "-//W3C//DTD SVG 1.1//EN"
"http://www.w3.org/Graphics/SVG/1.1/DTD/svg11.dtd">
<svg viewBox="0 0 909 1286" version="1.1" xmlns="http://www.w3.org/2000/svg" xmlns:xlink="http://www.w3.org/1999/xlink">
<defs>
<style type="text/css"><![CDATA[
.g0_25{
fill: #FFFFFF;
}
.g1_25{
fill: none;
stroke: #0000FF;
stroke-width: 0.68750006;
stroke-linecap: square;
stroke-linejoin: round;
}
.g2_25{
stroke: #000000;
stroke-width: 0.34375003;
stroke-linecap: butt;
stroke-linejoin: round;
}
.g3_25{
fill: none;
stroke: #000000;
stroke-width: 0.68750006;
stroke-linecap: butt;
stroke-linejoin: round;
}
]]></style>
</defs>
<path d="M275.8,484H638.3V198.3H275.8Z" class="g0_25" />
<path d="M315.7,453.4H622.6V215.8H315.7Z" class="g0_25" />
<path d="M315.7,242.6l.2,36.6l.1,5.8l.2,41.9l.1,6.8l.2,40.5l.1,10.3l.2,4.2l.1,15.5l.2,-8.1l.2,5.9l.1,-13.4l.2,-1.3l.1,7.3l.2,1.5l.1,7.7l.2,.3l.1,-4l.2,6.8l.4,-10.5l.2,-.2l.1,-6.7l.2,2.2l.2,3.4l.1,-7.4l.2,-.9l.1,-3.6l.2,6.3l.1,-12.7l.2,15.1l.1,7.2l.2,-5.2l.1,-16l.2,-.2l.1,26.2l.2,.9l.3,-27.4l.2,20.4l.1,4.1l.2,-2.1l.1,6l.2,.7l.1,-12.4l.2,4.9l.1,-17.8l.2,15.9l.1,-10.7l.2,19.1l.1,6.6l.2,-5.1l.2,2.9l.1,-2.3l.2,2.2l.1,7.3l.2,-13.7l.1,-.6l.2,5.6l.1,8.6l.2,-2.1l.1,-7.4l.2,10.3l.1,-9l.2,-2l.1,-6.5l.2,7l.3,27.5l.2,-14.7l.3,-6l.1,-4l.2,.9l.1,18.2l.2,-14.9l.1,1.5l.2,-.6l.1,3.3l.4,-9.3l.1,4.4l.2,-14.5l.1,14.9l.2,-7.8l.1,2.5l.2,13.2l.1,-4l.2,5l.3,3.8l.1,.5l.2,-16.9l.1,4.6l.2,-3.7l.3,5l.2,-2l.1,18.1l.2,-2.5l.1,-5l.2,-15.5l.1,4.6l.2,.1l.1,2l.2,11.1l.1,.9l.2,-13.6l.3,6l.2,-1.1l.1,-2.9l.2,8.9l.1,-17.1l.2,.4l.1,2.9l.2,-3.9l.3,16.1l.1,2.1l.2,-8.2l.1,4.7l.2,-2.3l.1,-13l.4,22.8l.3,-9.5l.1,-9.5l.2,12.8l.1,-6.1l.2,-.7l.1,-2.8l.2,2.8l.1,-2.8l.2,10.4l.1,-14l.2,-4.4l.2,13.1l.3,-3.4l.1,-.5l.2,5l.1,-1l.3,-12.2l.2,9.4l.1,-14.8l.2,12.1l.1,5.3l.2,-22.2l.1,.7l.2,6.2l.2,15.6l.1,-1.6l.2,1.8l.1,-.6l.2,7.6l.1,-8.5l.3,-8l.2,9.7l.1,-8.4l.2,-3l.1,11.3l.2,-1.8l.1,-3.6l.2,2.5l.2,-7.6l.1,2.6l.2,-4.3l.1,8.6l.2,2.2l.1,-5.3l.3,9.2l.2,-2.1l.1,-4.9l.2,2.7l.3,-4.8l.1,2.7l.2,11.4l.2,-.5l.1,-2.5l.2,-10.6l.1,-2.9l.2,2.7l.1,-10.5l.3,14.3l.2,-3.6h.1l.2,-7.4l.1,20.2l.4,-9.4l.1,14.7l.2,-15.5l.1,-3.6l.2,14l.3,-12.8l.1,2.6l.2,7.5l.1,-6.4l.2,-.1l.1,-.3l.2,.6l.1,3.2l.2,-8.3l.2,-2.4l.1,3.1l.2,.5l.1,12.7l.2,-9.8l.1,-3.2l.2,2.2l.1,.5l.3,7.5l.2,-11l.1,9.9l.2,2.5l.1,-.3l.2,-8.1l.2,2.4l.1,5.4L351,416l.2,8.3l.1,-8l.2,6.9l.1,-8.9l.2,-15.4l.1,4.7l.2,-4.3l.1,-.1l.2,20.9l.1,-14.4l.2,10.8l.2,4.3l.1,-2.9l.2,3.1l.1,-13.9l.5,18.5l.1,-.7l.2,.1l.1,-4.2l.2,-7.7l.1,1l.2,-5.2l.2,.6l.1,-3.2l.5,12.2l.1,7.2l.2,-6.1l.1,11.4l.2,-11.4l.4,-11.2l.3,10.2l.2,-4.4l.2,17.5l.1,-22.2l.2,10.1l.1,-2l.2,-3.7l.3,16.6l.1,-.7l.2,-14.1l.1,-6l.2,25l.4,-31.4l.2,6.2l.2,11.9l.1,-7.8l.2,-1l.1,5.6l.2,-2.4l.1,10.2l.2,-16.4l.1,11l.2,2l.1,3.2l.3,-8.5l.2,-.5l.1,6l.2,-5.6l.2,3.9l.1,-.8l.2,6.6l.3,-7.9l.1,-7.9l.2,7l.1,.8l.2,-6.2l.1,4.3l.2,-8l.1,8l.2,-1.8l.2,1l.1,-8.6l.2,14.5l.1,-8l.2,3.8l.1,-3.8l.2,4.1l.1,1.4L365,415l.1,3.6l.2,1.6l.1,6.3l.2,-11.3l.1,6l.2,-15.4l.2,14.9l.1,6.2l.2,-13.7l.1,.9l.2,5.1L367,413l.1,1.1l.2,.1l.1,1.3l.2,5l.1,-4.6l.2,4.6l.1,-14.7l.2,8.9l.2,-5.8l.1,10l.3,10.2l.2,-16.6l.1,.3l.3,-5.1l.2,-2.7l.1,6.4l.2,-4.6l.3,16.6l.3,5.2l.2,-7.6l.1,3.9l.2,-15.2l.1,1.2l.3,16.1l.2,-.7l.1,-10.5l.2,8.7l.4,-14.7l.4,17l.1,1.9l.2,-5.2l.1,2.9l.2,-.7l.1,-4.2l.2,4.6l.1,-4.2l.2,2l.1,-8.4l.2,4.5l.1,1.1l.2,-16.4l.1,.7l.2,7.3l.2,1.3l.1,-5.6l.2,2.1l.1,-4.2l.2,2.5l.1,-2.4l.3,18l.2,-11.2l.1,3.8l.2,-.2l.1,-5.6l.2,9.6l.1,3l.2,-6.7l.2,5.6l.1,-3l.2,-5.8l.1,8.9l.2,-6.9l.1,.2l.2,9.8l.1,1.8l.2,-1.3l.1,-9.4l.2,3l.1,-15.1l.3,17.9l.2,.5l.2,-5.2l.1,-2.1l.2,2.6l.1,-10.4l.2,5.4l.3,-7.7l.1,8.4l.2,-2.2l.3,15.6l.1,-18l.2,6.3l.2,-.9l.1,3.3l.2,-1.6l.1,-9.3l.2,-1.6l.3,15.3l.1,5.2l.2,-4.8l.1,2.3l.2,-14.4l.1,4l.2,-1.2l.1,5.6l.2,-2l.2,-5l.1,-.3l.2,4.7l.1,-2.1l.2,11.7l.1,.8l.2,-10.5l.1,10.6l.2,-11.5l.1,10.9l.2,-2.3l.1,.1l.2,-6.1l.1,5.2l.2,-6.9l.2,2.2l.1,.4l.2,10.6l.1,-8.5l.2,-1.1l.3,-7.8l.1,14.1l.3,-8.1l.2,4.9l.1,-5.5l.2,-1.2l.1,-12l.2,28.7l.2,-1l.4,-19.2l.2,12.4l.1,-.6l.2,-7.1l.1,6.8l.3,-11.4l.2,3.5l.1,1.6l.4,5.4l.1,-4.4l.2,5.8l.1,-12.4l.2,6l.1,-2.3l.2,-.3l.1,-8.4l.2,14.1l.1,5.7l.2,2.3l.1,-16.5l.2,14.8l.1,-10.9h.2l.2,5.9l.1,-3.3l.2,2.8l.1,-1l.3,-8.2l.2,12.3l.1,-1.6l.3,4.5l.2,-1.2l.1,2.2l.2,-.9h.1l.2,-13l.2,8.4l.1,-9l.2,9.2l.1,-9.4l.3,12.8l.2,-1.7l.1,-12.5l.2,.2l.3,15.3l.1,-11l.2,7.8l.1,1.4l.2,-6.7l.2,-2.4l.3,-1l.1,3l.2,-19.6l.1,2.1l.2,-4.7l.1,16.6l.2,3.4l.1,-6.9l.2,4.1l.1,12.5l.2,-2.1l.2,-4.8l.1,17.3l.2,-20.8l.1,10.7l.2,-9.9l.1,3.9l.2,-.3l.1,-6.1l.2,-1.9l.1,2.5l.2,-.9l.1,9.3l.2,-12.7l.1,-2.1l.2,2l.2,-2.3l.1,18.6l.2,-3.8l.1,-.5l.2,-1.9l.1,-6.5l.2,-1.4l.1,4.6l.5,-9.9l.1,2.9l.2,-5.7l.1,1.2l.2,-2.6l.2,12l.1,-2l.2,1.7l.1,-11l.2,9.3l.1,-2.2l.2,8.5l.1,-.2l.2,-7.4l.1,7.7l.3,6.7l.3,-17.4l.2,13.6l.2,-22.3l.1,8.2l.2,1.5l.1,-.1l.2,8.1l.1,-1.1l.2,7.1l.1,-2.6l.2,-7.5l.1,-1.1l.3,17.5l.2,-6.2l.2,-.7l.1,-4.1l.2,4.6l.1,-4.5l.2,7.6l.1,-.3l.2,4l.1,-11.6l.2,-4.4l.1,13.1l.2,-11.8l.1,-.8l.2,-8.1l.1,3.5l.2,6.2l.2,-7.1l.1,1.9l.2,3.5l.1,.3l.2,.6l.1,8.7l.2,-.7l.1,3.9l.2,-8.5l.1,.7l.2,-.8l.1,-6.4l.2,-.9l.1,14.6l.2,-6.3l.2,2.1l.1,-1.7l.2,-20.4l.1,39.6l.2,-38.8l.1,17.5l.2,-7.3l.1,3.6l.2,.1l.1,1.2l.3,-.8l.2,15.5l.1,-21.4l.2,3.7l.2,.1l.1,8.3l.2,-.9l.1,6.8l.2,-3.5l.1,2.6l.3,-4.9l.3,8.6l.2,-2l.1,-7.9l.2,-13.5l.2,-2.3l.1,9l.2,16.5l.1,.2l.2,-21.9l.3,1.5l.1,-6.7l.2,7.8l.1,.2l.2,4.4l.1,-.7l.2,-8.9l.1,10.4l.2,-.4l.2,2.4l.1,-1.7l.2,-11.5l.4,8.2l.2,-1.5l.1,.3l.2,4.1l.1,9.7l.2,-2.4l.1,-16.1l.2,15.9l.1,1.6l.2,-10.4l.2,6.3l.1,.8l.2,4.7l.1,8.5l.3,-8.7l.2,-1.7l.1,-10.5l.3,3.2l.2,-.3l.1,-10.3l.2,16.4l.1,-.2l.2,1.4l.2,-2.1l.1,3.9l.3,-12.5l.3,13.8l.2,-6l.3,1.9l.1,-.7l.2,4.8l.1,-19.4l.2,.9l.2,-8.4l.1,17.8l.3,-6.6l.2,17.1l.1,-8.1l.5,-10.5l.1,7l.2,2.7l.1,-4l.2,1.5l.1,-4.7l.2,-8.1l.2,16.1l.1,-9.1l.2,-2.6l.1,5.7l.2,1.6l.1,-5.7l.2,7.5l.1,-6l.2,-9.2l.1,9l.2,1.3l.1,15.4l.3,-4.8l.4,-9.8l.1,8l.2,-2.1l.1,-15.9l.2,22.3l.1,-2.8l.2,4.1l.1,-3.1l.2,-5.2L432,431l.2,-20.4l.1,1.4l.2,5.4l.1,-1.6l.2,-9.4l.2,15.7l.1,-2.3l.2,6.8l.1,-13.9l.3,4.9l.2,3.9l.1,-5l.2,5.7l.1,-4.9l.2,7.4l.1,-5.3l.2,-1.1l.2,-4.2l.1,5.2l.3,-3.3l.2,1.5l.1,8.4l.3,-11.7l.2,5.8l.1,-8l.2,.2l.1,-3l.2,-6.2l.1,5.1l.2,-3.8l.2,8.5l.3,7.1h.1l.2,5.8l.3,-13.5l.1,-.7l.2,8.6l.1,-2.4l.2,-14h.1l.2,24.2l.3,-12.8l.2,1.4l.1,4.7l.2,-8.5l.1,1.8l.2,13.7l.1,-.6l.2,-14.7l.3,11.1l.3,-15.1l.1,9.9l.2,1.5l.1,-1.1l.2,-3.9l.2,7.4l.1,-14.4l.2,1.3l.1,17l.2,-1.3l.1,4.6l.2,-7.1l.1,-.1l.3,-10.3l.2,16.3l.1,-4l.2,-17.1l.2,20.8l.1,-13.5l.2,-.8l.1,1.2l.2,4.4l.1,-7.7l.2,1.3l.1,9.6l.2,-4l.1,-6.5l.2,-1.3l.1,1.4l.2,-4l.1,17.1l.2,1.3l.2,-7.8l.1,2.2l.2,-10.2l.1,1l.3,12.3l.2,-6.9l.1,-1.1l.3,13.8l.2,.6l.1,-1.1l.2,-12.2l.1,6.3l.4,-13.1l.1,12.2l.2,-1.9l.1,.3l.2,1.4l.1,2.6l.2,-10.6l.1,.4l.2,11.1l.3,-8.5l.1,-1.2l.2,.3l.1,-1.8l.2,-.1l.2,5l.1,-2.6l.2,-6.2l.1,-1.8l.2,14.2l.1,-14.5l.2,5.1l.1,9.6l.3,-11.6l.2,-1.5l.3,6.3l.3,-4.5l.2,3.5l.3,15l.1,-4.3l.2,-10.4l.3,-5.6l.1,4.9l.2,1.9l.1,-.7l.3,-3.2l.2,-.6l.2,1.8l.3,7l.1,-2.6l.2,1.6l.1,.2l.3,-11.2l.3,6.2l.2,-.2l.1,4.2l.2,1.2l.1,6.2l.2,-2.2l.2,-9.8l.1,3.9l.2,-1l.1,5.7L458,409l.1,16.2l.2,-.3l.3,-15.6l.1,16.8l.2,2l.1,-8.2l.2,2.1l.1,1l.2,-2.2l.2,5.8l.3,-16.5l.1,19.2l.3,-12.1l.2,2.6l.1,.9l.2,3.8l.1,8l.2,-6.6l.1,.7l.2,-1.1l.2,5.3l.1,-21.5l.3,15.7l.2,-13.2l.1,-4l.2,21.3l.1,-14l.2,9.2L463,422l.2,-5.6l.1,.2l.2,-.4l.1,-13.4l.2,8.3l.2,1.1l.1,16.6l.2,.2l.1,-5.7l.2,7.5l.1,-.5l.3,-8l.2,-5.2l.1,2.3l.2,.9l.1,-12.3l.2,5.2l.1,-3.5l.4,17.3l.1,-18.5l.2,13.8l.1,-7.6h.2l.1,13.4l.2,-7.6l.1,.1l.2,1.7l.3,-15.1l.1,13.3l.2,-13.3l.3,19.5l.2,-8.3l.1,-.2l.2,-5.6l.1,8l.2,1l.1,-2.9l.2,-6l.1,.1l.2,-2.3l.1,5.5l.2,-9.9l.1,4.3h.2l.2,-.8l.1,1.1l.2,13.8l.1,-7.9l.2,5.2l.1,1.9l.2,-5l.1,-.4l.2,-12.2l.1,26.2l.2,-12.5l.1,-4.3l.2,-14.3l.1,14.7l.2,-4.7l.3,17.7l.3,-13l.2,8.2l.1,-.6l.2,-2.3l.1,8.4l.2,-22.6l.1,18.9l.5,-8.8l.1,1.6l.2,-6.1l.2,-.7l.1,12.1l.2,-15.7l.1,10.7l.2,-2.6l.1,-6.7l.2,.7l.1,3.4l.2,1.6l.1,-1.6l.2,4.3l.1,12.9l.2,-9.3l.1,6.6l.2,-6.1l.2,1.2l.1,-3.7l.2,-11.4l.1,9.6l.3,7.2l.2,-3.4l.1,-7l.2,-2.5l.1,18.8l.2,-19.8l.1,5.1l.2,-4.5l.2,4.8l.1,1.8l.2,-5.1l.1,8.6l.2,1.2l.1,-8.7l.2,12.5l.1,-5.3l.2,.3l.1,-4.3l.2,12.3l.1,2.2l.2,-10.4l.1,7.9l.2,-7.5l.2,1.6l.1,8.1l.2,-5.6l.1,-2.7l.2,-10.8l.1,15.6l.2,-6.8l.1,5.9l.2,-14.2l.3,.4l.1,3l.2,-2l.1,1.3l.2,-2.3l.3,7.3l.2,-6.6l.3,-2l.1,-6l.3,16.3l.3,-8.2l.2,5.5l.1,1.9l.2,-12.2l.2,13.9l.1,.4l.5,-10.7l.1,-2.5l.2,-4.3l.1,14.2l.2,-6.5l.1,3.1l.2,9.9l.1,-.8l.2,-11l.1,.6l.2,-9.1l.2,13l.1,-17.5l.2,14.7l.1,-3.3l.2,3.3l.1,-13.3l.2,5.3l.1,9.4l.2,-.5l.3,3.3l.1,-2.7l.2,-4.5l.1,11.2l.2,3.3l.2,-13.5l.1,-3.3l.2,10.6l.1,-7.3l.2,11.8l.1,1.1l.2,-22.5l.1,12.5l.2,.5l.1,-15.6l.3,16l.3,-8.4l.2,6.5l.2,1.5l.1,-7.1l.2,14.8l.1,2l.3,-15.1l.2,-.2l.1,1.5l.2,8.5l.1,-3.8l.2,-.7l.1,2.7l.2,-7.3l.2,5.2l.1,8.3l.2,-8.6l.1,5.7l.2,-6l.1,1.2l.2,6.4l.1,-3.7l.2,6.6l.1,-3.5l.2,-15.6l.1,9.3l.2,-1.7l.1,-3.3l.2,25.1l.2,-14l.1,-7l.2,8.9l.1,.5l.2,-4.9l.1,5.5l.2,-19.3l.1,16.4l.2,-3l.1,-15.7l.2,9l.1,1.4l.2,-2.4l.1,-5.4l.2,12.1l.2,-.3l.1,-15l.2,22.7l.4,-16.4l.2,6l.3,-17.1l.3,26.8l.3,-11.2l.1,3.2l.2,-12.8l.2,2.1l.1,12l.2,-2.9l.1,3.9l.2,-6.3l.3,4.6l.1,-5.6l.2,-1.5l.1,1.4l.2,7.9l.1,.3l.2,2.8l.2,-8.5l.1,.6l.2,3.9l.1,.2l.2,-.5l.1,-15.3l.2,17.7l.1,-7.3l.2,1.1l.1,1.9l.2,-4l.1,-.1l.2,-.2l.1,1.1l.2,5.5l.2,-1.3l.1,-3.8l.2,5.1l.1,-.7l.2,-1.7l.1,2.8l.2,6.9l.1,-9.6l.2,-3.8l.1,10.5l.2,-3.1l.1,1.1l.2,-15.7l.1,9.8l.2,-2l.2,8l.1,.3l.2,6.9l.1,-17.7l.2,10.7l.1,-2.3l.2,-5.5l.1,-9.8l.2,7.1l.1,-6l.2,3.8l.1,9l.2,-7.4l.3,3.7l.2,-5.3l.1,14.1l.2,1.4l.1,-12.1l.3,9.6l.2,-8.6l.1,-1.2l.2,-3.8l.1,7.8l.5,-4.5l.2,11.1l.1,-2.1l.2,-8.8l.1,1.4l.2,10.3l.1,-23l.3,13.4l.2,-6.1l.1,2.4l.2,.8l.1,4.6l.2,-3.5l.1,1.9l.2,-2.2l.2,8.6l.1,-13.2l.2,4.2l.1,13.9l.2,-4.3l.1,-.9l.2,-10.3l.3,1.2l.1,-2.2l.2,5.6l.1,-2.6l.2,-.1l.1,-1.2l.4,2.3l.1,-2.9l.2,6.1l.1,1.3l.2,9.2l.1,-9l.2,.7l.1,2.6l.2,-15.1l.1,-.4l.2,11.2l.1,-3l.2,4.5l.1,-3l.2,-10.2l.2,3.9l.1,-.4l.2,-3.8l.1,5l.2,12.7l.1,3.3l.2,-12l.1,12.3l.2,4l.3,-10.7l.1,2.7l.2,-8.7l.2,3.3l.1,12.2l.2,-12.3l.1,-4.5l.2,11.1l.1,-13.6l.2,3.2l.1,-7.5l.2,11.8l.1,-5.5l.2,10.9l.1,5.3l.2,-2.3l.1,-17.4l.2,16.7L524,405l.1,16l.2,1.6l.1,-.4l.2,-6.7l.1,6.3l.3,-11.1l.2,-1.8l.1,6.3l.2,.4l.1,7.2l.2,-14.5h.1l.2,-10.4l.2,21.8l.1,-3.1l.3,3.5l.2,-8.2l.1,.4l.3,16.7l.2,-23.1l.1,.9l.3,13.8l.2,2.9l.3,-5.6l.2,.3l.1,-.6l.2,-4.9l.1,5.7l.2,-6.4l.3,10.5l.3,-7l.1,4l.2,-.2l.1,-3.5l.2,-.8l.2,10l.1,4.2l.2,-20.7l.1,-1.4l.2,1.2l.3,8.9l.1,-.3l.2,2.4l.1,-8.7l.2,10.8l.1,-9.8l.2,-1.9l.1,4.3l.2,.2l.2,4.4l.1,1.9l.2,.8l.1,-12.1l.2,5.5l.1,13.6l.2,-14.6l.1,13.3l.2,-10.6l.1,-1.2l.2,4.1l.1,-11l.3,9l.2,1.7l.2,-2.4l.1,-4.7l.2,.6l.1,2l.2,-5.3l.1,15.6l.2,-14l.1,-6.9l.2,18.7l.1,-3.6l.2,2.8l.3,-9.6l.1,5.5l.2,-4.9l.3,-2.4l.2,-2.2l.1,-.1l.2,17.2l.3,-19.9l.1,.4l.2,-2.7l.1,14.3l.2,-5l.1,6.7l.2,-7.3l.2,14.5l.1,-11.9l.2,2.4l.1,-10.7l.5,10l.1,12.5l.2,-16.4l.1,7.6l.2,-9.4l.1,17.1l.2,.8l.1,-17.2l.2,-.2l.2,2.3l.1,6.1l.2,-8.3l.1,15.2l.2,.8l.1,-17.3l.2,-1.1l.1,19.3l.2,-.4l.1,8.3l.2,-23.5l.1,11.5l.2,-2.9l.1,-11.1l.2,20.8l.2,-10.3l.1,-1.5l.2,.9l.1,-5.6l.2,-2.5l.1,7.5l.2,-3.3l.1,-6.8l.2,17.6l.1,-14.2l.2,1.2l.1,5.9l.2,-6.6l.1,9.8l.2,-7.8l.2,8.1l.1,.5l.2,5.3l.1,-22.3l.2,1.2l.1,7.2l.2,-3.5l.3,3l.1,6.4l.3,-21.3l.2,25.6l.2,-2.7l.1,-5.1l.2,5.9l.1,-6.8l.2,7.8l.1,-17l.2,9l.1,15.3l.3,-12.2l.2,7l.1,-4.5l.2,-.8l.1,-2.1l.2,11l.2,-6.9l.1,-10.5l.2,14.7l.1,-22l.2,14.7l.1,.1l.2,-2.4l.1,8.9l.2,-16.3l.1,8.4l.2,3.7l.3,-14.1l.1,-.2l.2,-1.9l.2,10.4l.1,-7.9l.2,12.9l.3,4.7l.3,-12.7l.1,4.3l.2,11.9l.1,-19.5l.3,9.2l.2,-6.9l.3,15.5l.2,-13.7l.1,-4.9l.2,-1.1l.1,11.7l.2,-17.1l.3,24.8l.1,-17l.2,-2.9l.3,11.3l.1,-5.9l.2,6.5l.2,2.2l.1,8.1l.2,-23.1l.3,12.1l.1,-3.1l.2,5.5l.1,-8.5l.2,3.2l.1,-2.3l.2,.4l.1,4.7l.2,-1.7l.1,-6.9l.2,1.5l.2,-.4l.1,.3l.2,4.2l.1,-.7l.2,10.5l.1,1.5l.2,-13.6h.1l.2,-4.9l.1,14.6l.2,-9.2l.1,4.6h.2l.1,-7.1l.2,5.3l.2,-.7l.1,-3.3l.2,12.8l.1,-10.2l.2,.9l.1,-8l.2,9.3l.1,-7.9l.2,3.4l.1,-4.6l.2,11l.1,4.5l.2,-4.3l.1,-13.8l.2,12l.2,1.9l.1,-7.1l.2,10.2l.1,-5.4l.2,.7l.1,.3l.2,-6.6l.1,-1.3l.2,22.6l.1,-10.4l.2,-2.4l.1,-12.5l.2,18.2l.2,-.4l.1,-1.7l.2,-9.6l.3,13.5l.1,-5.8l.2,-8.9l.1,-.3l.2,-2.3l.1,9.7l.2,-.8l.1,-6.5l.2,-3l.1,2.6l.2,-6.8l.2,-2.7l.1,23.3l.3,-14.7l.2,14.5l.1,-7l.2,-1.4l.1,1.1l.2,-1l.1,-1.9l.2,12.6l.1,-3.2l.2,-13.6l.3,-.8l.2,-1.9l.1,9.6l.2,1.5l.1,-8.5l.2,3.2l.1,-6.5l.2,5.1l.1,-4.1l.2,9.5l.1,3.9l.2,12.8l.1,-14.7l.2,1l.1,-10.5l.2,2.1l.2,3.5l.1,-8.7l.2,-1.1l.1,19.3l.3,-12.1l.2,-9.9l.1,2.3l.2,19.8l.1,-5l.2,-1.2l.1,1.3l.2,-18.5l.6,20l.2,-5.7l.1,7.7l.2,-9.8l.1,-1.2l.2,8.1l.1,-4.1l.2,-7.5l.1,-.7l.2,2.9l.1,-4.8l.2,-1.4l.2,1.5l.1,13.6l.3,-11.9l.3,9.1l.2,-5.4l.1,11.4l.2,-11.8l.1,.6l.2,12.6l.1,-7.4l.2,-2.4l.1,25.3l.2,-10l.2,-16.2l.1,1.6l.2,3.1l.1,-1.4l.2,-6.4l.1,3.2l.2,-5.7l.1,10.2l.2,-2.7l.1,4.7l.2,-3.1l.1,3.2l.2,-4.3l.1,.1l.2,-1.3l.2,-3.1h.1l.2,9l.1,-4.8l.2,-7.8l.1,8l.2,-6.9l.1,13.3l.2,-4.6l.1,-1.7l.2,.8l.1,-5.1l.2,9.2L584,421l.1,-26.5l.2,16.7l.1,.8l.2,1.5l.1,5.3l.2,-1.1l.3,7.6l.1,-5.3l.3,9.7l.2,-18.1l.1,4.1l.2,.4l.3,-8.4l.2,.2l.3,17l.1,-6.2l.2,-.9l.1,-3.2l.2,3.7l.3,2.7l.1,-7.9l.2,1.1l.1,3.4l.2,15l.2,-10.4l.1,-.5l.2,-10l.1,-1.1l.2,7.7l.1,-2.9l.2,2l.1,-.4l.2,-.8l.1,-.3l.2,-1.4l.1,11.2l.2,-1.3l.1,5.9l.2,-8.4l.2,4l.1,-8.7l.2,3.3l.1,-7.7l.2,4.7l.1,-2.8l.2,-.1l.3,6.1l.1,-2.5l.2,1.2l.5,-7.1l.1,2.7l.2,-4.7l.1,1.7l.2,16.8l.1,-3.1l.2,5l.1,-13.1l.2,.9l.1,-11.7l.2,9.4l.1,-4l.2,10.6l.1,4.1l.2,-.5l.2,2.9l.1,-11.1l.2,1.8l.1,5.3l.2,-.9l.1,.5l.2,-14.9l.1,16.3l.2,-10.9l.1,9.8l.3,-6.4l.2,-9.7l.1,2.2l.4,6.7l.3,-5.7l.1,-5.7l.2,8.2l.1,-.9l.2,-9l.1,-1.7l.5,25l.1,-22.9l.2,14.1l.1,-3.5l.2,-10.1l.2,4.3l.1,-.5l.2,15.6l.1,-16.6l.2,1.9l.1,9.6l.2,-5.6l.1,1.2l.2,6.9l.1,.4l.2,-16.4l.1,14.8l.2,-6.1l.2,5.9l.1,-6.8l.2,4.3l.1,-3.3l.2,7.5l.1,-10.4l.2,-1.5l.1,2.4l.2,5.9l.1,-5.6l.2,3.7l.1,-5.3l.2,4.1l.1,-5.5l.2,.1l.2,.9l.1,4.3l.2,-3.5l.1,-1.4l.2,-7.1l.1,2.4l.2,3.7l.1,11.1l.2,-9.9l.1,1.8l.2,-1l.1,7.5l.2,-4.7l.1,1.9l.2,-6.4l.2,1.4l.1,-.4l.2,3.8l.1,.1l.2,-3.7l.1,5.1l.2,-3.5l.1,-.6l.2,12.2l.1,-.4l.2,-14.4l.1,-6.7l.2,11.2l.1,4.3l.2,-.8l.2,-6.9l.1,5.2l.2,-5.2l.1,3.7l.2,1.5l.1,-.6l.2,-7.1l.1,7l.2,-4.9h.1l.2,2.8l.1,-3.8l.2,8.7l.3,2.9l.2,-5.7l.3,3.1l.3,-3l.1,9.3l.2,-.2l.3,-6.4l.1,.5l.2,4.1l.1,-18.5l.2,.5l.2,5.1l.1,.9l.3,19.6l.2,-18l.3,14.6l.1,-.3l.2,-12.2l.1,7.6l.3,-16.9l.2,24.8l.1,1.7l.2,-12.9l.2,-.5l.1,-4.1l.2,4.9l.1,-2.3l.3,4.5l.2,-7.9l.1,-12.6l.2,20l.1,-4.7l.2,2.8l.1,-13.9l.3,25l.4,-11.7l.1,3.8l.2,-10.6l.3,11.5l.1,-9.8l.2,.8l.1,-3.4l.2,1l.1,5.9l.2,2.4l.1,-2.8l.2,-8.2l.2,2.5l.1,11.3l.2,-8l.1,-2.6l.2,3.6l.1,1.8l.2,6l.1,1.2l.2,-7.9l.1,2.1l.2,.4l.1,-6.2l.2,1.4l.1,-11.9l.2,4.5l.2,9.2l.1,-.1l.2,2.3l.1,5.4l.2,-16" class="g1_25" />
<path d="M315.7,453.4v-2.8" class="g2_25" />
<path d="M315.7,215.8v2.7" class="g2_25" />
<path d="M392.4,453.4v-2.8" class="g2_25" />
<path d="M392.4,215.8v2.7" class="g2_25" />
<path d="M469.2,453.4v-2.8" class="g2_25" />
<path d="M469.2,215.8v2.7" class="g2_25" />
<path d="M545.9,453.4v-2.8" class="g2_25" />
<path d="M545.9,215.8v2.7" class="g2_25" />
<path d="M622.6,453.4v-2.8" class="g2_25" />
<path d="M622.6,215.8v2.7" class="g2_25" />
<path d="M315.7,453.4h2.8" class="g2_25" />
<path d="M622.6,453.4h-2.7" class="g2_25" />
<path d="M315.7,423.7h2.8" class="g2_25" />
<path d="M622.6,423.7h-2.7" class="g2_25" />
<path d="M315.7,394h2.8" class="g2_25" />
<path d="M622.6,394h-2.7" class="g2_25" />
<path d="M315.7,364.3h2.8" class="g2_25" />
<path d="M622.6,364.3h-2.7" class="g2_25" />
<path d="M315.7,334.6h2.8" class="g2_25" />
<path d="M622.6,334.6h-2.7" class="g2_25" />
<path d="M315.7,304.9h2.8" class="g2_25" />
<path d="M622.6,304.9h-2.7" class="g2_25" />
<path d="M315.7,275.2h2.8" class="g2_25" />
<path d="M622.6,275.2h-2.7" class="g2_25" />
<path d="M315.7,245.5h2.8" class="g2_25" />
<path d="M622.6,245.5h-2.7" class="g2_25" />
<path d="M315.7,215.8h2.8" class="g2_25" />
<path d="M622.6,215.8h-2.7" class="g2_25" />
<path d="M315.7,215.8H622.6m0,237.6V215.8M315.7,453.4H622.6m-306.9,0V215.8" class="g3_25" />
</svg>