<?xml version="1.0" encoding="UTF-8" standalone="no"?>
<!DOCTYPE svg PUBLIC "-//W3C//DTD SVG 1.1//EN"
"http://www.w3.org/Graphics/SVG/1.1/DTD/svg11.dtd">
<svg viewBox="0 0 909 1286" version="1.1" xmlns="http://www.w3.org/2000/svg" xmlns:xlink="http://www.w3.org/1999/xlink">
<defs>
<style type="text/css"><![CDATA[
.g0_84{
fill: none;
stroke: #000000;
stroke-width: 0.6080556;
stroke-linecap: butt;
stroke-linejoin: miter;
}
.g1_84{
fill: #FFFFFF;
}
.g2_84{
fill: none;
stroke: #0000FF;
stroke-width: 0.9166667;
stroke-linecap: square;
stroke-linejoin: round;
}
.g3_84{
fill: none;
stroke: #000000;
stroke-width: 0.9166667;
stroke-linecap: square;
stroke-linejoin: miter;
}
.g4_84{
stroke: #000000;
stroke-width: 0.45833334;
stroke-linecap: butt;
stroke-linejoin: round;
}
]]></style>
</defs>
<path d="M108.6,132.7V112m692.3,20.7V112M108.6,153.4V132.7m692.3,20.7V132.7M108.6,174.1V153.4m692.3,20.7V153.4M108.6,194.8V174.1m692.3,20.7V174.1M108.6,215.5V194.8m692.3,20.7V194.8M108.6,236.2V215.5m692.3,20.7V215.5M108.6,256.9V236.2m692.3,20.7V236.2M108.6,265.6v-8.7m692.3,8.7v-8.7m-692.6,9H801.2M296.8,389.3h5.6" class="g0_84" />
<path d="M216,949.6H693.4v-381H216Z" class="g1_84" />
<path d="M259.8,908.8H669V592H259.8Z" class="g1_84" />
<path d="M259.8,749v27.6l.1,-64.6l.1,105.7l.1,-97.1v24.8l.1,63.1l.1,-24.3v-5.6l.1,2.4l.1,-16.5V777l.1,4.4v20.3l.1,-59.6V793l.1,-22.8l.1,3.3v65.7l.1,-34.4v1.3V712l.1,26l.1,95.8l.1,-48l.1,53.1L261.5,734l.1,-12.9l.2,77V784.7l.1,44.2L262,725.3l.1,48.4v41.7l.1,-74.7l.1,6.3v79.9V775.4l.1,8.8V746.6l.2,107l.2,-111.3V723.6v91.5l.1,-77.8v2l.1,-5.2V855.8l.1,-77.2l.1,-51.8v44.7l.1,-35.6l.1,64l.1,-17.2V741.9l.1,42.1V724.7l.1,5.2v41.6v-4.2l.1,-76.7l.1,104.3V729.3l.1,28.9l.1,36.4V722.3v61.2l.1,6.5l.1,-.6v45.5l.1,-82.9v1.4l.2,50.9V723.2v36.3l.1,11.2l.1,-34.9l.1,1.7V776l.1,-9.6V756.2l.2,53.4V726.2l.1,9.1V858l.1,-29V704.8l.1,92.7V821l.2,-123.8V856.9l.1,-79.3V676.7l.1,68.6l.1,74.9l.1,-38.7v1.1l.1,-.3l.1,-26v.9l.1,42.4V779.4l.1,-67.1v6.9l.1,41.1V748.7l.1,-16.7l.1,49.8V754.1v26.1l.1,-46.4v15l.1,72.6V813l.1,-17V720.1l.1,31.6l.1,43.8l.2,-64.1V794l.1,-30.5V765l.1,43.4V760.5v56.1l.1,-17.1l.1,-89.9l.1,81.9v-6l.1,1.5V737l.1,75.7l.1,-61.7l.1,19l.1,-63.9l.2,81.2l.1,-29v25.1V761.7l.2,-33.5l.1,104.3l.1,-19.4l.1,-84v46.3V763.3l.1,-72.7V816.1l.1,-42.4V747.2v26l.1,-1.3v72.8l.1,-13.2l.1,-73.5l.1,7.1V780l.1,61.7V768.9l.1,15.6l.1,-41.3l.1,140.7l.1,-121.1V759l.1,-62.2v43.7l.1,28.7V741.7l.1,29.3V711l.1,25l.1,38.9V742.6l.1,68.2V749.4l.1,10.8v-3l.2,-29.1v59.6V724.1l.1,19.8v49l.1,-.1V721v23.8l.1,66.4V774.7l.1,-69.6l.1,61.7V742.3L272,789l.1,-70.4l.2,75.6l.2,-56.4v43V762.4l.1,-43.6V833.3l.1,-74.6v-5v82.4l.1,-76l.1,82.8V726.8l.1,94.5V748.8l.1,18.4V727.1l.1,19.4v56.4l.1,-3.4V769.9l.1,8.3v50.6l.1,-69.2v29l.1,39.4V731.4l.1,59.9v27.2l.1,-51.6l.1,37.5V779.1l.1,-33.8l.1,73l.2,-86l.1,79.6l.1,-73v89.3l.1,-79.9l.1,8V803V789.7l.1,-35.9l.1,16.6v18.9V773l.1,.8l.1,65.1V802.1l.1,-41.4v2.5l.1,-19.7v23.7l.1,-49.7l.1,89.1V735.8l.1,37.8V792l.1,-60.6v67.9l.1,-1.5V741.5V863.8l.1,-77.2V716.4l.1,74.1V746.9l.1,-3.4l.1,77l.1,-61.5l.1,-13v10.8l.1,-3.9v93V778.2l.1,22V769.7l.1,9.3v24.7V720.3l.1,89.3v-9.7l.1,-51.2v1.4l.1,89.4V810.3l.1,1.6v36.5l.1,-102.7l.1,31.9V718.2l.1,41.6v7.1l.2,75.3l.1,-113.6l.1,1.2l.1,7.9V806l.1,-11.9v-2.8l.2,-83.3v31.6l.1,73.6v-9.7l.1,-7.9V725.3l.1,80.8V777l.1,-50.3l.1,80.2v-5.1l.1,-84.7l.1,75.9l.1,-76.2v47.5l.1,4.5v16l.1,-7.3V702.1l.1,54.7v-7.1l.1,12.5V737.9l.1,118.6l.2,-122.8V845.4l.1,-48.4l.1,-28.9v27.3l.1,-68.2l.1,8.3v52.1V744.2l.1,-12v64.4l.1,-11.4l.1,-70v69.1l.1,-27.1V738.1l.1,75.5V777l.1,-50.2v88l.1,-71.2v72.2l.1,-8.9l.1,-72.8l.1,105.3l.1,-45V755l.1,44.5l.1,-80.6v93.5l.1,-4.6V724.2l.1,9.1V720.4l.1,6.7v1.3v-.2l.1,65.6l.1,-41.3V739.7l.2,38.7V751.5l.1,43.3l.1,-38.7v2.6l.1,20.8v-4.2l.1,-84v28.4l.1,89.1l.1,-38.1V744l.1,21.2v15.2l.1,-24.3l.1,9.2V749.6v43.6l.1,-8.2l.1,13.8l.1,-50.5v41.2V717.3l.1,64v9l.1,-48.6V748l.1,47.6l.1,-102.8v95l.1,-28.8V700.9l.1,22.5L284,806V700.3l.1,45.1V832l.1,-73v38.8l.1,-42l.1,28.7V767.2l.1,-13.9V854.6l.1,-50.6V707.6l.1,26.6l.1,49.4l.1,23.3l.1,-53.3l.1,20.6l.1,-96.8l.1,131.4v-22v12.6l.2,-47v47.2l.1,-63v34l.1,93.6l.1,-139.8l.1,68.1l.1,-12.2l.1,27.3V796.8l.1,34.9V786.8l.1,2.6v52.2l.1,-29.4V717.7l.1,32.7v-9.9l.1,2v4.1l.1,36V719.2l.1,124.9l.1,-57.4V757.8l.1,56.6l.1,-65.5l.2,91.4l.1,-40.5v19.8l.1,-19.7V771.6v21.7l.1,-5.3v22.2l.1,-46.2v50l.1,-1.8V759.9l.1,8.7v19.6l.1,-79.8v90.8V770.4l.1,-25v32.2l.1,-54.7v43.5l.1,49.3l.1,-128.9v74.8l.1,-5.7l.1,15V751l.1,40.8V738.9l.1,70.1l.1,-2.8v-11l.2,-72v58V741.8l.2,20.4v39l.1,-20.7V688l.1,44.6v-3.7l.1,30.4v-9l.1,-6.1v4.4l.1,78.6l.1,-134.4v99.7L290,767v36.3l.1,-56v1.3l.1,60.8l.1,-97.3v98.1V784l.1,-58.4l.1,12.1l.1,68.8l.1,-32.9l.1,51.7V755.8l.1,30v35.7l.1,-96v32.6l.1,47.4l.1,-64.2v25.2l.1,18.9V759.6l.1,13.5v.1l.1,-69.6l.1,137.5l.1,-94.5l.1,44.9V756v14.4l.1,30.1V733.1l.1,28.8l.1,-35.9v16l.1,35.8v-6.4l.1,-25.7l.2,59l.1,-54.4l.1,58.5v-64l.1,11.4v34.4l.1,-12.6l.1,-3.5V749.9l.1,105.4V802.7l.1,-87.2V748l.1,5.5V733.1l.1,103.2V789.7l.1,4.8v-64l.1,11.3v57.3l.1,-16.7l.1,-42.1l.1,64.4V718.3l.1,24.8l.1,58.9V772.5l.1,-20v55l.1,-83.5V829.3l.1,-50.3v36.6l.1,-78.9l.1,31.2l.1,-10.1V727l.1,98.3V753.5v7.7l.1,-1.5V734l.1,81.9V724.8l.1,29.3V736.6l.1,2.3v13.2v-4.8l.1,92.8V790.5l.1,-8.1l.2,123l.1,-27.2V860.8l.1,33.6v-5.2l.1,9.4v-6.5l.1,1.9l.1,4.1l.1,-5.3v1l.1,1.1l.1,-1.6v.2h.1l.1,.7V894l.1,.1h.2l.1,.3V894h.1v.3l.1,-.1h.3l.2,-.1l.2,.2l.2,-.9l.1,.4v-.3l.1,-.2v.1l.1,1.2v-.2l.1,.2l.1,-.1v-.1l.1,.1l.1,-.1l.1,.3l.1,-.1l.1,-.1v.2l.2,-.4v.1l.2,-.2v.1v-.1l2.7,-.1V894l.1,.4l.1,-.6v.1l.2,-.7v.5v-.4l.1,.1l.1,1.6l.1,-1.8l.1,.1l.1,1.2v-1.1l.1,2.5v-1.1l.1,-4.8l.1,.5v-1.4l.1,3.6V881.8v13l.2,-59.6l.1,55.2V858.5l.2,-7l.1,-114.1v23.4l.1,-25.2V790V760.9l.1,1.1V722.2l.1,63.6V772.3l.1,24.5l.1,-47.2v10.8l.1,10.6v-.6l.1,5.5v45.8l.1,-1.6v7.4l.2,-50.8v2.1l.1,-24.1v5.4l.1,25.3l.1,-53.9V769l.1,30.2l.1,-75.2V827.9l.1,-12.3v28.8l.1,-76.2l.1,29.1v-8.2l.1,-98.5l.1,21.8l.1,105.6V795.1l.1,-99.7v105l.2,-78.5v94.8l.1,-75.3l.1,100.3v-6.4l.2,-86.5l.1,59.9l.1,-50V828l.1,-60.4v-12l.2,57.6l.2,-87.3l.1,79.2l.1,-56v75.5v-6.3l.2,-72.4l.1,31.6V767l.2,-13V718.5l.2,47.9V718.2l.1,79l.1,-29.3v18.8V765.4l.1,1.4v17.9l.1,-47.3l.1,17.2v.5l.2,65.8V712.1v88.6l.1,-57.2l.1,60.1l.1,-74.1l.1,117.1l.1,-75.3v32.5l.1,30.1l.1,-101.3l.1,69.9l.1,-17.1l.1,-33.5l.1,35.2v21.4L310.4,688l.1,82.7v68.9v-7.7l.3,-107.6v-20l.2,89.6v-6.1v44.6l.1,-2.6l.1,-81.2l.1,5.1l.1,52.1V732.2v49.3l.1,67.7V783.8l.1,2.3l.1,-53.9v57.6V779.1l.1,-31.5v8.2l.1,16.6V752.2l.1,80.6l.1,-44.3V795l.2,-82.6l.1,60.6l.1,-8.3V750.8l.1,52.6V784.2l.1,-34.6v4.5l.1,42.7V756.2l.1,72.4l.1,-41.2l.1,-34.4v6.7l.1,39.7V738.7v56.4l.1,16.8l.1,-109.3l.1,66.1v-40v11l.2,44.1v-29v90.7l.1,-51.2V765.4l.1,3.3v73.2V810.5l.1,-6.8v10.8l.1,-63.4v35.2v-.2l.3,-72.8l.1,68.5l.1,-68.2v40.9l.1,49.8V786.7l.1,7.3V765.1l.1,51.7V729.4l.1,49.5V780V726l.1,24.8l.1,45.8l.1,-5.7V772.2v10.3l.2,35.5V772.3l.1,54.7V790.5l.1,-111V836.9V789.5l.1,-45.6l.1,61.7V749.7L316,806l.1,-72.6v12.2l.1,58.9l.1,-.9l.1,-42.8l.1,19.7v.6l.2,57.4V732.2l.1,7.7v107V772.1l.1,-47.4v99l.2,-111l.2,106.2l.1,-14.8l.1,-96.8v18.2l.2,94.2V797.2l.1,1.5v-8.2l.1,11.7L318,771v40.7V781.5l.1,-1.1v-19l.1,7.3v48.6l.2,-106.5v98.7l.1,-22.5l.1,-46.6v.6l.1,6.6v51.9l.1,-97.9V747l.1,12.2V744v89.1l.1,-34.7l.1,-20.5l.1,5.1V743.5l.1,25.1l.1,21.8v-4.6l.1,41.7V766.1l.1,34.7l.1,-12.6V731.8l.1,32.1v39.7v-3.4l.1,-52v35.4l.1,-8.2v12.7V768.3l.1,29.9l.1,-77v85.3l.1,-38.7v12l.1,-1.1V737.8v38.6l.1,-12.4v25.7l.1,-12.7V729.4l.1,55.7V764.9l.1,-65.3l.1,106.1V757l.1,48.3V729.7l.1,109.8v-49l.1,-63.2V762l.1,39l.1,-126.4l.1,154.8V812.1l.1,-12.3v-78v25.6l.1,97.9l.1,-60.5v-6.5v33.6l.2,-66.4l.1,68.9l.1,-7.3V785.5v34.1l.2,-57.1V873.1L322.5,755v31.5l.1,-20.4l.1,24.3V765.1v20.2l.1,-4.3v20.5l.1,-18V734.2v57.3l.1,-13.2l.1,-40v40.5l.1,-2.7l.1,-16.9l.1,32.3v-3.3l.1,-16.4l.1,57V737.7l.1,20.8v32.4l.1,-32.3v12V752.3l.1,93.1l.1,-20.3V762.7l.1,15.9v54.3l.1,-5.3l.2,-85.6v62.3l.1,-28.2v5l.1,-1.6l.1,-67.1v24.4l.1,33.3v49.3l.2,-99.7V829.4l.1,-71.5V719.1l.1,50.5V718.2l.1,80.2V771.1l.1,-39.1v31.2l.1,-3.2v-7.7l.1,.8v6v-3.3l.1,49.5l.1,-15.7l.1,-36.1v1.8l.1,25.8l.1,-71.5V817l.1,-52.8V737.5l.2,92l.1,-149l.2,88.2l.2,67.9v-7.3L327,812l.1,-98.7v55.8l.2,46.6l.1,-91.6l.1,46.1l.1,-36.9l.1,2.1v94.4l.1,-57.6v-11l.1,3.1v24.4V763.9l.1,89.9l.1,-30.1V777.9v50.3l.1,-29.5l.1,-72l.2,75.8l.1,-81v62l.1,-24.9l.1,-4.6v47.9V766.4l.1,-3.4V724.2l.1,102.6V793.9l.1,-2.9v27.4l.1,-66.7v12.2l.2,69.9l.1,-21.5l.1,-55.1l.1,16.4v-5.4l.1,-9.4v16l.1,-62.5v77.2l.1,-28l.1,-13.6v75.8l.1,-21.2V784.8l.1,12.7v40.8l.1,-62.5v71.1l.1,-128V814l.1,-19V746l.1,40.3l.1,-24.5v-43l.1,81.7l.1,-19.6v23.6l.1,-84.1l.1,67.1V728l.1,8.5V818l.1,-62.1V729l.1,35V727.9v40.4l.1,-27.6v-6.9l.1,72.1V769.6l.1,17l.1,-34.3v39.6V760.3l.1,-39.8v68.6l.1,-3.4l.1,-3.7V711.3v23l.1,126.9l.1,-130.6v89.2l.1,-8V722.9l.1,118.5V755.2l.1,6.1v57.8l.1,-146.8l.1,112l.1,-18.9v2.8l.1,-2.4v30.6V739.5l.1,23.1l.1,84.5V835.8l.1,21.4l.1,-12v16.7l.1,-1.1l.1,-108.7l.1,2.9v25.3l.1,-54L334,810V785.2l.1,78.6V815.7l.1,-11l.1,-97.2l.2,74.6v8.1l.1,35.9v-76l.1,62.3V758.5l.2,64.3L335,773l.1,9.2v-6.5l.1,-67.6l.1,25.6l.1,67.3V789.1l.1,-7.6l.1,-84l.1,119.6l.1,-88.5l.1,53.8l.1,-6.2V757.6v4l.1,37.1l.1,-76.9l.2,51.3v-30v7.2l.1,73.6l.2,-65.8v46.8l.2,-6.2V720.1l.1,97.4l.1,-21.8v-1.4l.1,-102l.1,98.9l.1,23.8V787.6l.1,5.8l.1,21.7V716.7l.1,76.1v-10l.1,30V710.2l.1,71.7l.1,-49.4v72.9l.1,-26.7l.1,-38.1V759l.1,-26.4v7.7l.1,32.4l.1,-35.5v16.4l.1,3.1V721.1l.1,119.9l.2,-118.1l.1,121.3V733.1l.1,34.1V715.9l.2,133l.1,-110.8l.1,51.2V773.1l.1,-35.4v52l.1,-14.7v4.8l.1,28.1l.1,-91.8l.2,87.3V776.2l.1,20.2v-3.8l.1,46.6V729.3l.1,112.9l.1,-54.8V772.1v24.4l.1,-2.6l.1,-46.5v55.3V762.3l.2,29.4L341,742v10.4l.1,45.9V760.6l.1,-14.7v27.5l.1,-1.9l.1,-51.3v47.4l.1,-69.7l.1,107.7v-67l.1,58.3l.1,-44.6v2.2l.1,40.5V725.3l.1,10.3l.1,61.9v-8.7l.1,-28.2l.1,50.7V738.1V801l.2,-60.8l.1,83.1l.1,-87.6l.1,1.1l.2,66.5v-1.7v66.1l.1,-14.8l.1,-122.5V764l.1,11.2V755.7l.1,39v-8.4l.1,-8.4v35.3l.2,-166l.1,178.1l.1,-46.5V756.9l.1,48.3V772.7l.1,-48.3l.1,82.6l.1,-66.3v27.4l.1,23.7l.1,-94.1v48.5l.1,32.4V751.3l.1,18.5V786l.1,-45.5l.2,97.8l.1,-89.3v53.5l.1,-24.2l.1,-35v54.3l.1,-70.6v66.3l.1,-2.5V743.1v80.8l.1,-85.7v35.3l.1,20v-105l.1,56.9l.1,63.6V789.8L346,754v25.3l.1,42.7V756.9l.1,3.8l.1,50.9v-32l.1,18.1v35.1v-4.1l.1,-53.6l.1,14.3v-46l.1,69.5V748.3l.1,9.5V727.9l.2,74.5V764.6v20.6l.1,18.1V745.5l.1,22.7l.1,-30.7l.1,94.3V786.6l.1,-52.4v54.6l.1,-21.8l.1,-37.8l.1,96.8l.2,-68.3l.1,8.1V747.1l.1,8.6v8.1l.1,-7.3v49l.1,-6.9l.1,-62.3l.1,22.9V727.6l.1,57.7l.1,11l.2,-61.4l.1,58V764.4l.1,-13.6v70.1l.1,-21.8l.1,-59.4v88.2l.1,-42.7V721v74l.1,-40.5v1l.1,91.4l.1,-7.8V767.4l.1,62.9v-1.8L350,723.9l.1,29.9v38.5l.1,-6.4V744.2l.1,17.4l.1,-22v78.1V719.1l.1,42.4v12.8l.1,-13.7v57.6V777.4l.1,6V763l.1,74.1V791l.1,-15v27.7l.1,-30.3v49.8l.1,-73.7v86.6l.1,-89.7l.1,40.8l.1,-53.5v75l.1,-26.2l.1,-47.9v76.5l.1,-99v31l.2,78.8L352,694.3l.1,132.1l.1,-24.9v-20l.1,3.1v12.9l.2,-89.2l.1,109.2l.1,-63.2v8.4l.1,15.9V767.7l.1,1.5v-31l.2,81.4v-104l.1,58.5l.1,61.8l.1,-53.4l.2,49.5V794.2v43.7l.1,-40.4V758.7l.1,18.6l.1,52l.1,-81.8l.1,-30.2v14.3l.1,72.4l.1,-65.8V847.7l.1,-28.6l.1,-37.1l.1,24V770.2l.1,13.6v10.9V738.2l.1,48.7V768l.1,36.7V735.3l.1,25.3V735.1l.1,15.5v36.3V707.5l.1,45.1v40.1l.1,-2.5V749.4l.1,41.9V737.4v30.5l.1,21.3V741.1l.1,88.8l.1,-29.4v14.9l.2,67.5l.1,-40.2l.1,43.1l.1,-21v15.7l.1,-4.5l.2,-144.8l.1,76.3V726.3l.1,60.7v-4.8l.1,-46.6v11.3l.2,61l.1,-67.5l.1,97.3V784l.1,71.6v-8.2l.1,-106.7V782l.1,-42.8l.2,66.6l.1,-54.3v46.7l.1,-59.3v83.3l.1,-74.5v84l.1,-47.3v-20v14.7l.1,4.7l.1,-46.9V800l.1,-31.7V730.5l.1,22.3v28.5V765l.1,-2.1v1.5l.1,60.5l.1,-21.9l.1,-56.8l.1,4.8v55.9l.1,-10.1V764.9l.1,46V772.7l.1,11.2v39.5l.1,-26l.1,-38.4l.1,73.3V785l.1,10.5V777.1l.1,82.2V798.5l.1,-36.9L360,780l.1,43.4v-41v17.4l.1,-12V761.2l.2,93.1V731.4l.1,6.7l.1,36.4v45.3l.1,-56.1v15.2l.1,39.3l.1,-103.1l.1,79.2V724.1l.1,11.2l.1,65V758.4V855l.1,-42l.1,-78.5v51.4l.1,-27.4l.1,45.8l.1,-88v5.8l.1,70l.1,-51.5l.1,43.9l.1,-31.2v10.6l.1,25.3V746.3l.1,60.7l.1,-2V732.2l.1,32l.1,-77.8l.1,121l.1,-25.9V729.8l.1,16.1V800l.1,-9.4v1.9l.1,37.5l.1,-92.9l.1,23.7v8.4l.1,-47.4v63l.1,-17.5v-32v37.5l.1,-39.5v8.4l.1,68.2V729.4l.2,64.3V733.6l.1,23.7V705.8l.1,125.9l.1,-80.1v28.1l.1,14.8V701.8l.1,47.5l.1,65.6l.1,-84.7l.2,90.8l.1,-82.6l.1,47.9V759l.1,-74.9l.1,87.2V753.8l.1,24.8v-3.3l.1,-8.5l.1,8.3V762.9l.1,44.1V760.9l.1,53.9V758l.1,29.5l.1,-10.8l.1,16l.1,-70.4l.1,25.8l.1,52.9l.1,-87.6v59.1v-4.3l.1,74.4l.1,-9.6V751.1l.1,15.2v-.4l.1,65.9l.1,-37.1V758l.1,3.4l.1,66.6l.1,-92.8v43.2l.1,-8.9V734.6v57.1l.1,-65.3V759l.1,35.6l.1,-66.7l.1,50.8l.1,19.3V782.7v8.6l.1,65.4L368,745v36.7l.1,-8.3v-19l.1,46V750.1v64.5l.1,-23.7l.1,-53.2l.2,110.9l.1,-101.9v32.7l.1,-55.3v76.5l.1,-35.6v61.4L369,789l.1,-80.9l.1,91.8l.1,-18V751.7l.1,45.1V759.5l.1,62.6l.1,-77.3l.2,108V813l.2,-37.8l.1,40.9l.1,-85.3l.1,9.3v-4l.1,52.3V770.8l.1,-63.9l.1,102.3v-60l.1,34.6V782l.1,-29.3l.1,-24.3L371,835V720.3l.1,44.9v16.3l.1,-38.9v9.2l.2,55.7V746.2v23.6l.1,56.8l.1,-35v-41v11.5l.2,68.8V731.4l.1,40.9l.1,50.8V810.2l.1,-77.7l.2,91.7l.1,-79.8v40.1l.1,4V817V796.6l.1,-39.4l.1,68.8V805.7l.1,-45.2v76.9l.1,-14l.1,-59.3l.1,75l.1,-90.8l.2,89.8l.1,-82.8v43.4l.1,-2V736.2l.1,26.8v26.8l.1,-36.9v42.2V787l.1,-42.8l.2,67.9V776.9l.1,50.5V723.9l.1,29.7l.1,39V754.8l.1,9.5v39.5l.1,-46.1v51.4l.1,-11.9v-63l.1,22.2v56.5l.1,-9.4l.1,-81v4.7l.1,58.9l.1,-44.3v69.9V763l.1,-10.1V794l.1,-27.4V755.9v4.9l.1,31.7V761l.1,-16.3l.1,92.9l.1,-72.1l.1,1.6v47.3l.1,-15l.2,-110.5l.1,155.8V813.4l.1,25.6V779.9l.1,2.1l.1,34.2V748.4l.1,23.2l.1,79.1l.2,-99v36.2l.1,-23V735.2l.1,3.3v81v-65l.3,75.1l.1,-78.9l.1,9.3v37.4l.1,-51.4v84.7l.1,-58.6V729.4v5.5l.1,84.2V787.3l.1,-10.4v15l.1,44.3V822.9l.1,-74.2l.1,71.1V788.4l.1,-63.9l.1,77.7v-8.6l.1,-90.4l.1,25.4v43.6V772l.1,-48v69l.1,-.4V741.8v13.1l.1,33.9l.1,-5.8l.1,-26.9v12.1l.1,-20.3v32.6l.1,-56v16.3l.1,48.3v-4.5l.1,-23.8v25.3l.1,-50.8v25.1l.1,10.3V739.6l.2,98.1l.1,-81.9v20.4v-9.6l.2,76.5l.2,-99.8v87l.1,-23.6l.1,-64.9v16.4l.1,-.8V739.1l.1,37.4l.1,-50.1v49.2l.1,-34.7v1.6l.1,58.1v-28l.2,30.5l.1,-35.4l.1,94V713.5l.1,56.4v49.9l.1,-97L382,760V702.9v89.4l.1,-11.7V740.5l.1,73.5V757.7l.1,8.6l.1,23.6V748l.1,70.4v-4.2l.1,-64.5l.1,29.7v-2.1l.1,-31.2v15.4l.2,52l.1,-79.4v13.7l.1,25l.1,30.3V751.7v8.6l.1,31.4V720.9l.1,14.6v46.6l.1,-19.5l.1,24.9l.1,-3.1v-46v70.9l.1,-25.3l.1,42.8V774.2v51.2l.1,4.6l.1,-134.3l.1,64.8v-2.4l.1,-41.4v65.6l.2,-93.8l.1,127.7l.1,-5.9v31.9l.1,-100.4v19.6l.1,-11.9v55l.1,-76.4v23.1l.1,36.5l.1,-3.9V730.6v40.7l.1,.3v17.1l.2,-69.6l.1,64.4l.1,-44.4l.1,58.6V772.1L386,762v59.4l.2,-60.2l.1,46.5l.2,-48.6v61.7l.1,-16.6l.1,-44.8v67.2V801.9l.2,-19.6l.1,67.4l.1,-118.8l.2,50.9l.1,-23.3v15.9V713.5l.1,23.7l.2,81l.1,-74.9v48l.1,27.5l.1,52l.1,-110.5l.1,23.2v16.9l.1,-30V804l.2,-70.7l.2,64v-69l.1,6.6v-3.7l.1,92.5V755.1l.1,2.2l.1,30.8V774.7l.1,-20.7v9.7l.1,5.6l.1,-25.4l.1,58.7V806l.1,-48.7v13.9l.1,55.8l.1,-15.2V760.3v10.8l.1,63.7V735.7l.1,32.2l.1,32.9V753.1l.1,9.5v92.3l.1,-94.5v21.3l.2,-77.4v45.1l.1,53.4l.1,-47v42.7l.1,-3.6l.1,-65.1l.1,105.4V784.8l.1,-58.4V798l.1,-13.5v23.7l.1,-43.4v28.7l.1,4V748.4l.1,62.6V725.2l.1,38.7l.1,11.7v70.2l.1,-32.4l.1,-39.9v24.7l.1,-66v45.9l.1,-6.5V735.5l.1,90.2V799.2l.1,2.7l.1,-96.7l.1,106.2l.1,-42.5v30.3V760.3l.1,51.7v-4.2l.2,-61.6v44.5l.1,-3.2l.1,-73.5l.1,74.2v-2l.1,-60.3v20.4l.1,52.8V723.5l.1,12.8v59.8l.1,-20.9l.1,3.7V750v1.9l.1,24.8V739l.1,78V735.7l.1,3.6l.1,49.1V770.1l.1,10.2l.1,-14.4v4.5l.1,12V749.6l.1,20.1l.1,-49.6l.1,93.4l.1,-3.1l.1,-108.6l.1,82.5v-32l.1,45.5l.1,-114.1V843.6l.1,-60.4V717.5l.1,48.6v42.8l.1,-87.6v56.9l.1,-71.2V817.2l.1,-47.7V738.9l.2,72.9V751.2v18.1l.2,48.8v-33l.1,6.3l.1,-48.8l.1,63.6l.1,-53l.1,7V738.7l.2,53.8V716.4l.1,49.6v47.6l.1,-67l.1,72.2V719.7v82.8l.1,-17.9l.1,-34.1v5.1l.1,78l.1,-27.9V724.4l.1,19.7v38.5l.1,-11.2V755.1l.1,52l.1,-64.6l.1,14.3v27.6V769l.1,-27.1v17.2l.1,12V757l.2,53.9l.1,-100.2l.1,43V742.2v8.5l.1,98.1l.1,-41.1v-.4l.1,-32.4v63.8l.2,-72V754.4v28.4l.2,-65v6.1l.2,93.9V769l.1,.7l.1,33.6V733.5l.1,57.8v57l.1,-86.5v64.5l.1,-29.2l.2,-36.5v38.9l.1,-30.9V757.1l.1,35.6v-32l.1,20.2v22.5l.1,-61.7l.1,15.1v44.1l.1,-52.9l.1,24v27l.1,-43.3l.1,-9.1v57.6l.1,-19.6l.1,-58.5l.1,92.2V779.9l.1,-8.2V738.2l.1,12.2V728.2l.1,62.7l.1,-11.6V727.6v60.1l.1,-22.6l.1,-33.2l.1,59l.1,-72.2V774V759.7l.1,85.7l.1,-61.5V762.6l.1,8.2v40.8l.1,-42.6l.1,10.3V759.8v32.1l.1,-41.6v47.8l.1,-24.4V742.6l.1,33.8l.1,-45.8v45.3l.1,50.6l.2,-71.6V776l.1,-40.6l.1,79.1l.2,-59.8V732.5l.1,39.2v-52l.1,77.2V728.6l.3,66.5V751.8v57.5l.1,-68.5l.1,17.2v71l.2,-141.8l.1,73.7l.1,52.2V739.4v39l.1,30.9l.1,-89.1l.1,33.5v36.6V783l.1,-21.7l.1,6.5v-28l.1,14v35.1l.1,-20v-6.3v34.6l.1,-24.7v-7.7l.1,21.9V767l.1,43.6L406,699l.1,46.8V723.1v2.1l.2,118.4v-9.8l.1,-57.8l.1,48.4v-18l.2,-48l.1,73.4v-113l.1,53.5V801l.1,-38.4v4.8l.1,-6.5V801l.1,-86.4v60.5l.2,-47.8v.8l.1,73.1V704.8l.1,61.8v4.6l.1,74.3V834l.1,-54.2l.1,8.7V765l.1,106.1L408.1,759v54.9l.1,-58.8l.1,23.4V762.1V839l.1,-49.8V753.8l.1,27.2l.1,23.5l.1,-37v22.4l.1,-39.3v70.5l.2,-75.8l.1,29.2l.1,-33v55.3l.1,-82.9l.1,28.7l.1,41.2V683.9l.1,44v73.6l.1,-17.8V771.9l.1,12.5l.1,-15.9v7.3l.1,58.8V811.2l.2,-114.8v47l.1,-3.9l.1,6l.2,92.8l.1,-77.3v56.6l.1,-79.8v12.9l.1,86.2l.1,-91.4v33.3l.1,-53.3l.1,5.1l.2,95.4V815l.1,-94.8v33.3l.1,88.5V756.8l.1,-5.3V868.7l.1,-136.5l.1,39.2v16.5v-8.6l.1,.5l.1,-28.9v7.9l.1,70.8v-54l.1,-2.4V740.5l.1,26.6V770V752.4l.1,56.4l.1,-53.7l.1,66.8V798.4l.1,-84.1v84.8l.2,-117V791.2l.1,-45V724.5l.2,68.2v-.8v28.4l.2,-94.6v55V745l.1,13l.1,46.8V778.7l.1,61V797.9l.1,-57v6.8l.1,51.2V714.3l.1,98.7l.1,-38.6v20.7l.1,-27.9v42.5l.1,-16.2V742.9v83.8l.1,-71v29.6l.1,-38V865.5v-4.3l.1,-55.1l.2,63v-4.5l.1,-88.3V857l.1,-4.3l.2,-115.2v63.9V770.1l.1,-34.7l.1,86.4l.1,-30.2V752.1l.1,56.3V752.9l.1,33.5V757.6l.2,65.3V760.6l.1,17.5l.1,103.9l.2,-148.1l.1,68V757.3l.1,-74.1l.1,85.7V715.5l.1,58.2v-6.4l.1,-24.3v67.6V766.9l.1,-9.2l.1,-48.4v38.5V700.4l.1,103.3V789.9l.1,-69.1v22l.1,65.6V766.3l.1,5.4l.1,-42.3v50.9l.1,-11.5v10.7l.1,-32.1v59.5l.1,-37.3l.1,8.4v2.2l.1,-42.1v54.4l.1,-74.9v71.1l.1,-20.2l.1,61.2l.1,-12.8l.1,-65l.1,78V778.3l.1,-34.5l.1,37V745.6l.2,36.7V726.2l.1,29.4l.1,66.3V767.8l.1,19.5v13.3l.2,-49l.1,57.4l.1,-51.5l.1,-44.3v96L420,773v1.6l.1,38.2V746.3l.1,26.7l.1,-19v54.3l.1,-7.9V725.7l.1,37.9l.1,67.8l.1,-83.1l.1,6.1V723.2l.1,115.6l.1,-70v70.7l.1,-39.8V770.2l.1,86.1V742.9v84.3l.1,12.2V714.9l.1,3.5l.2,90.9l.1,-13.2v36.3l.1,-4l.1,-90.6l.1,4v50.3l.1,-45.1V714.4V839.2l.1,-85.2V731.9l.2,74l.1,-97.2l.2,102.8l.1,-23.7l.1,39.8L423,722.5V842.9l.1,-82.1l.1,40.5l.1,-39.2V756l.1,42.6V780.9l.1,-64.4l.1,108.3l.1,-15.4l.1,-34.2l.1,24.8v-2.8L424,741v19l.1,54.8V779l.1,-34.6l.1,67.1V724l.1,41.6l.1,-9.5V857.3V785.2l.1,17.4l.1,-78.8l.1,46.9v40.8l.1,-39.6l.1,8.6v43.3l.2,-87.1l.2,76.3V796v47.6l.1,-33.2V769.3l.1,38.7V791.8l.1,40.5V798.9l.1,-51.2l.1,21.7V746.8L426,792l.1,-53.9l.1,94.6V815.3l.1,-24.5v52.8l.1,-13.6v-4.4l.1,-67v1.2l.1,50.8V712.1l.1,17.7l.1,55.5V745.7l.1,15.2v-.6l.1,-34.5v79.3l.1,-39.2l.1,-44.7V825l.1,-26.5v1.7l.1,8.8V771.7l.1,70.8v-28l.1,-90.2l.1,32.6l.2,59.4l.1,-63.6v19.1l.1,8l.1,-27.8v65.8V746.9l.1,21.5l.1,39.7V737.6l.1,26v5.1l.1,-74.8l.2,125.2V775.7l.1,29.7v18.7L429,781l.1,19.9v49.8V832.6l.2,-87.3l.1,32.8v-7.8l.1,-44.7v19.9l.1,4.5v-4.2l.1,68.1V726.3l.1,79.2v-26l.1,8.2V808l.1,-58.6v30.9l.1,38.1V686.2l.1,67.3l.1,65.2l.2,-70.3l.1,54.2V782.2l.2,-54.7l.1,57.1l.1,-58.1l.1,20.4l.1,104.9l.1,1l.1,-86.3l.1,37v-72l.1,54.6l.1,-10.7V797l.1,-45l.1,32.1l.1,-45v2.2l.1,-4v59.1l.1,-11V741.3l.1,21.7V886.1l.1,-86v15.5v-2.1l.1,-63.3l.1,9.9l.1,59.8v-.2l.1,-71.7l.1,57.5v-106v68.2l.1,40.4l.1,-24.5V771.4v36.4l.1,-17.4v-8.3l.1,1.1V731.6v37l.1,26V708.9l.1,18l.1,115.9l.2,-101.4v49.7l.1,-5.2v-35l.1,27.8v6.5l.2,-67.5l.1,66.9l.1,-25l.1,35.3v-63v14.8l.1,23.5V748.8l.1,-42v72.1l.1,-16.9v-9.7l.1,7.6v-.5l.1,49.5l.1,29.6l.1,-83.6l.1,53l.1,-72.4l.1,45.6l.1,-4.3v4.6l.1,-27.1l.2,59.9V769.3l.1,5.5v27.4V773l.1,3.2v31.9l.1,-110.7V775l.1,-16.4V830V765.7l.1,21l.1,-78.8v21.2l.1,50.3V753.5l.1,9.2v27V753.2l.1,8.8v44.5l.1,-87.9v69.7l.1,-8.9l.1,-23.7v74.8l.1,-187.7l.1,97.2l.1,-36.3v-1.2v57.2l.1,-14l.1,-6.2v17.1V732.2l.3,94.9V754.5l.1,7.6v43.3l.1,-30.9V731.3l.1,57.2V739l.1,49l.1,-80.5l.1,51V840l.1,-38.5l.1,37.8V763.6l.1,10.7v18.9l.1,-18.2V741.5l.1,46.7V771.9l.1,-35.9l.1,50.9V774.2l.1,-37.9v3.3l.2,57.7v-41l.1,70.5V772.2l.1,34.8V729.5l.1,101.9V787.8l.1,-25.5v1.1l.1,10.8l.1,-27l.1,44.8l.1,-57.9v16.1l.2,94.6V759.4l.1,17.3l.1,24.2l.1,-73.7l.2,65.3v-24l.1,27.1v-7l.1,-27.8v59.1l.1,-52.8l.1,15.5l.1,97.5l.1,-123.9l.1,28.6l.1,37.7V795.4l.1,-27.7l.1,89.9L442.1,741v3.6l.1,32.3l.1,-53v52.2V758.4l.1,21.3l.1,-38.4l.2,53.5l.1,-75.3l.1,88.9l.1,-49.1V799l.2,-34.8v7.2l.1,-64.6V836.5l.1,-25.4l.1,-26.2v66.8V818l.1,-3.2V836l.1,-61.2l.1,-16.1l.1,46.9V794.2l.1,-20l.1,57.6V765.9l.1,105.2V786.9l.1,-65l.1,69.2V768.5l.1,-1.3V728.7l.1,88.3V789.3l.1,-77.6v56.4l.1,18.4l.1,-54.4l.1,75.4l.1,-69.4v7.6l.1,31.6V721.6l.1,2.3V860.2l.1,-5.1l.1,-80.4v.6l.1,38.9l.1,-2.4v-68l.1,20.5v2.2l.1,-27.7l.1,98.6l.1,-80.7l.1,-38.3v8.5l.2,71.2V795l.1,-72.9l.1,105.9V757.3l.1,-1.2v30.6l.1,-27.1l.1,20.7V761.4V795L447,676.3v26.5l.1,97.9l.1,-32.4v38.8l.1,-49.3v7.4l.1,41.2V780.2l.1,-47.9l.2,65.2V761.9l.1,64.9L448,713.3l.2,94.2l.2,-52.6l.1,77.7v-9.2l.2,-108v90.5l.1,-58l.1,60.1l.1,-55.4l.1,11.6v11.1v-1.8l.1,-17.5l.1,45.9v-4.1l.1,-1.4l.2,-42v58.2l.1,-46.9V733.1l.1,28.3l.1,74.6l.1,-83.7l.1,43.4V777.8l.1,-79.1v58l.1,30.5V777.1l.1,-32.1l.1,16.8v82.4l.1,-114.3l.1,48.9v-3.5l.2,-27.5l.1,110.9l.1,-24.8v9.3l.1,-98.9l.1,2.4v79.6l.1,-17.7v-94l.1,37.8V695l.1,12.6v95l.1,-20v8.8l.1,-66.5v13.7l.1,28.5V756.8l.1,-5.7l.1,34.3v-2.6l.1,-31.3l.1,60.4v-7.7l.1,-39l.1,84.1V814.2l.1,12.9V726.6l.1,45.3v44.5l.1,-80.7v45.2l.1,32.4l.1,-77.7l.1,9.3l.1,-54.4v50.2l.2,99.3v-9.9l.2,-119.5v85.1l.1,-32.5l.1,-28.5V846.5l.1,-50.1l.1,49.1l.1,-7.6l.1,-47.1l.1,-69.8v24.9l.2,73.2V741.5l.1,11.4l.1,-.5v68.9l.1,-30.2V705.2l.2,131.5V720.5l.1,20.6l.1,71.4V755.6l.1,90.7V768.6l.1,-53.3l.1,115.3v1.2l.1,-24.1v5.6l.1,-90.7l.1,20.7l.1,57.4V788.1l.1,-35.4l.1,47.8V754.2v6l.1,18.8V731.9l.1,16.3l.1,25V743.3l.1,12.4v51.6V784.5l.2,-6.2V721.6l.1,20.2l.1,65.4V748l.1,36.5v30.6V804.7l.1,-116.5l.1,49.8v-6.3v49.9l.1,-54.5v85l.1,-25.7l.1,-29.6l.1,20.3V760.7l.1,.4v43.7V775l.1,5.4l.1,56.2V823.5l.2,-79.2v60.4l.1,-28.5V746l.1,8l.1,72.9V792.2l.2,-64.9v87.8l.1,-49l.1,52l.2,-59.6l.2,85.4l.1,-131.7V815.1l.1,-10.6l.1,-40.3v41.9l.1,-24.6v.8l.1,29V747.1l.1,11.9l.1,92.7l.1,-32.4v47.3l.1,-27.2V747.9l.1,88.9l.1,-54.9l.1,66.5v-86v9.7l.1,35.8V775.7l.1,13.5v89.3l.1,-147l.1,86.5l.1,-34.1l.2,49.2V778.8l.1,-15.6v71.1l.1,-47.7v-5.1v24.8l.2,-42.4v37.4V739.5l.1,18.3l.1,-4.7v21.7l.1,-101.5V778.8l.1,-30.1L462,803l.1,-94.4v86.6l.1,-5.3V810l.1,-10.9v-8.9l.1,-77.3l.2,144.8l.1,-103.8l.1,15.9v26.1l.1,-4.8v-9.6v6.4l.1,22.4l.1,-10.3l.1,-68.6l.1,37.6V727.6v68.7l.1,-78.7v65.2l.1,28.8l.1,-76.1l.2,77.7V752.6l.1,15v50.9l.1,-55.8v1.8l.1,8.5v64.8l.1,-4.2V730.7l.1,7.7v58.4l.1,-3.1V767.6v38.2l.1,-25.9V748.5l.1,23.7v-2.1l.1,30.1l.1,-96l.1,127.9V785.9l.1,17.7v-14l.1,-7.8V735.7l.1,20.6l.1,-15.7v18.8v-22l.1,1.2l.1,73l.1,-15.3v.6v-4l.1,-41.4l.1,85.8V721.8l.1,64.9l.1,-42.9l.2,73.6V773.2l.1,17.2l.2,-32.2v33v-9.8l.1,-81.6l.1,45.6l.1,89.6l.1,-88.2v30.4l.1,1.2v9.5l.1,-62.2l.1,62.3l.1,-29.2l.1,57.5V729.4l.2,105.9l.1,-78.8l.1,108.1v-50L468,712.3l.1,41.1V707.9l.2,90.6V746l.1,13.9v8.5l.1,37.7V701.6l.1,47.4v70.5l.1,-75.6v25l.2,-45.4l.1,42.2l.1,-5.9V715.6l.1,77.7l.1,-42.9v42.5l.1,7.2V735.7v76.7l.1,-27.4V746.2l.1,10.6v57.6l.2,-65.9l.1,79.8V751.2l.1,15v57.7l.1,-45.5V743v32.6l.1,-7.7V727l.1,35.1v-3.6v3.7l.1,28.6l.1,-4.2l.1,-51.5l.1,26.6v77.2l.1,-27.8l.1,-6.2l.1,-50.6v37.1l.1,-55.1l.1,54.8V736.6l.2,92.8l.1,-72.6l.1,122.8l.1,-124.5l.1,55.6l.1,-50.3V703.6l.1,109.8l.1,-57.5l.1,-2.7l.1,36.9l.2,-28.9v117l.1,-140.3l.1,22.2v33.3l.1,-7.7V738.5l.1,21l.1,43.4l.1,-15.2v-13l.1,8.7v2l.2,48V766.6l.1,10.8v8.1l.1,-18.2v65.1l.1,-53v6.2l.1,-73.2l.1,19.4l.2,39.4V730.6v53.8l.1,-4.7V723.9l.1,32.1v27.8l.1,-53.6l.1,40.5V728.1l.1,28.4v44V712.2l.1,54.3V762l.1,53.4V737l.1,59.9v-43l.1,-8l.1,28V753.8l.1,7.5V864.8V727.7l.1,15.1l.1,69.3l.1,-10l.1,-69l.1,3l.1,49.7v-2.6l.1,-22.4l.1,59.5l.1,-96.8V800l.1,-60.5l.1,22.1V759l.1,-5.3v64.1l.1,-50.7l.1,-34v64.3l.1,-13.1v7.9l.2,-54.7l.1,87.4V778.3l.1,-19.7v28V774.9l.2,-36.9v72.9V769.1l.1,-33.4v44.1l.1,-15.5v-39v77.8l.1,-45.9l.1,-11.3v68.5l.1,-80.4l.2,94.7V764.9v32.8l.1,33.5v-23l.1,-102.6v21.2l.1,92.6l.1,-98.2l.2,52.2V750.6l.1,34.4l.1,-13V758.7l.1,54.6V780.9l.1,-66.7v32.2l.1,.9v76l.1,43.2l.1,-142v54l.1,-5.4V736.5l.1,78.8l.1,-47.8l.1,19.7V775.1l.1,-86.7v91.5l.1,-65.5l.1,29.3V726.1l.2,82.2V783.2V838l.1,-12.3V797.2l.1,19.3v-3.3l.2,-112.5l.1,115.1l.1,19.6V820l.1,2.4V763.9V786l.2,12.1V763.6v1.1l.1,84l.1,-157.2l.1,18.5v5.8l.1,71.5l.1,-1V756.6v2.9l.1,14.2V747.8l.1,38.7V737.3l.1,47.6l.2,-121.3l.1,140.1v-2.1l.1,30.8V737.1l.1,29.5l.1,67.5V789.6v11.1l.1,-29.5v13.4l.1,27.1l.1,-74.9v77.4l.1,-30.6V764v43.9l.1,-22.4l.1,-59.6l.3,105.8l.1,-57.2v57.2l.1,-57.3v58.2l.1,-78.5v33.5l.1,4.5V741.5v52.7l.1,-24.5l.1,-19.9v68.5l.1,-13.2V714.6l.1,89.7v11.9l.1,-52.6v72.1l.1,-67.8V799l.1,-9.5V762l.1,-40v29.2l.1,58V759.6l.1,24.8l.1,25.6V757.2l.1,.5v22.1l.1,-3.2l.1,-6.3v48.1V762.3l.1,22.2l.1,-24.1v26.2l.1,-106.9l.1,130.9v-77l.1,-63.6v60.8l.1,52.8V728.2v31l.1,68.3l.1,-85.4v67.6l.1,-16.8V733.3V812l.1,-.9l.1,-80.8l.1,79.4l.1,-21.9v-1l.1,62.4l.1,-122.7v2.8l.1,100.8V743.8l.1,11.5v96.4l.1,-66.9V694V804.9l.1,-44.9V748.2l.1,57.3l.1,-19.1v16.7l.1,-10.4l.1,-49.5l.1,36.1V733.9l.1,21.7l.1,37.1V744.2l.1,73.6V766.7v8.4l.1,42.7V754.6l.1,43.3v2.3l.1,-44.5V714.8l.1,140v-26l.2,-48.7v13.4l.1,-85.3l.1,23l.1,48.8v-9.2v.8l.1,6.3l.1,-34.8l.1,51.5V747.8l.1,16.9v14.8l.1,-4.7v-7.4l.1,-40.5l.1,63.9l.1,-24.8l.1,79.5l.1,-97.3l.1,42.1V757.7l.2,52.7V760.5v81.3l.1,-44.4l.1,-73.7v70.6l.1,-50.3v33.1l.1,-.2V783l.1,-8.2v11.1l.1,-65.9v90.6l.1,-48v34.5l.1,-65.4l.1,67.7l.1,-20.7l.1,36.5V785.7v54.8l.1,-15l.1,-43.3v75.2l.1,-102.3V786l.1,56.2V777.4l.1,39.6v-5.8l.1,2.8V750.8l.1,55.5V812l.1,-58.1l.1,54.9l.1,-31V719l.1,2.5l.1,70.3l.1,-80.3V723l.2,75.6l.1,-48.5l.1,9.7v45l.2,-87.1v-1.1l.2,60.9V759.8l.1,33.4l.1,-104.3V857.2l.1,-2.1V815.2l.1,2v31.1l.1,-11.6l.1,-54.6l.1,42.7l.1,-77v16l.1,35.9l.2,-58.3V841.9l.1,-91.5l.1,6.1V775V757.7l.2,8.1l.1,-72.7l.2,147.9l.2,-125.5v89.7V760l.1,-15.2V766l.1,-28.5V778l.1,-16.3V750.4l.1,35l.1,-41.4v58.8l.1,-5l.2,-87.1l.1,38.7V723.6l.1,31.7V736.9l.1,-20.8l.1,92.3l.1,-14.5V839l.1,-115l.1,52.1l.1,-9.9v4.6l.1,-1.5v-5.2l.1,40.7V780.7l.1,-38.2l.1,46.6v-8.9l.1,25.7l.1,-31v27.3l.1,34.1V765.2l.1,17.1l.1,9.9v-6.3l.1,-63.3v38.5l.1,7.7V755.7v37.6l.1,-34.1v11.6l.1,-6.4v.7l.1,107.3l.1,-88.4l.1,34.1V729.7l.2,83.3V758.6l.1,12l.1,-28.9V754l.1,67.7l.1,-77v59.9V781.5l.1,-20.4v15.3l.1,2v-6.5l.1,21.2V763.9v58l.1,-65l.1,15.1l.1,68.7v-117l.1,29.1v94.6v-129l.1,103.4l.1,-34.2v24.5l.1,-7.2l.1,-71.2v47.9l.1,-18.5l.1,52.3l.1,-93V826l.1,-91.7l.1,44.5v31.3V794.3l.1,.4v22l.1,-83.6l.1,.4l.2,98.9V747.7l.1,30V754.1l.1,24.2V720.9l.1,115.8l.1,3.5V799.7l.1,6.3v49.1l.2,-117.5l.1,55.8V748.5l.1,8.3v40.5V765.6l.1,3.4V712.6l.1,81.4V722.2l.1,83.7l.1,-27V699.1v33.7l.1,86.5l.1,-47.3V720.2l.1,62.4l.1,-4.8l.1,-61.3l.2,106V776.4l.1,47.6V706.8l.1,100.1V737.4l.1,18.3V765l.1,-22.4V845.3V783l.1,2v20.2l.1,-18.3V789l.1,29.1V749.6v8.5l.1,74.8v-79l.1,11.1v70V740l.1,35.9l.1,5.9l.1,-30.7l.1,47.1V747.3v23.6l.1,24.2l.1,-11.5v21.5l.1,-.7V738.3v38.4l.1,31.7V754l.1,19.8V791l.1,-9.1V730.6l.1,60l.1,7.4l.1,-46.2l.1,39.8l.1,-6.6l.1,-31.2v39.6l.1,-16.1v4.5l.1,-18.5v35.9V746.3l.1,66.6V741.5l.1,31.1v2.3l.1,-1.7v12.3l.1,-59.5v20.2l.1,34.5V748.3l.1,-27v7.6l.1,6.2V693.9v16.5l.1,83.7l.1,-8.2l.1,-58.1v64.5l.1,-17.9l.1,63.3l.1,-96.3v16.1l.1,51.3V748.4l.1,21.3v34l.1,-26l.1,-36.4v84l.1,-52.4V719.7l.1,94.8V769.2l.1,-4.1V795V713.8l.1,13.4l.1,62.7V769.3l.1,-2.3v82.4l.1,-53v-3.6l.1,16.1V730.8l.1,1.7l.1,53.4l.1,-30.1v21.7l.1,-14.1l.1,100.4L509,856l.1,-94.6l.1,16.1v17.4l.1,-41.4v51.7l.1,-73.8l.1,23.6V734.9l.1,69.8l.1,-72.3v34.5l.1,61.2l.1,-12.3v4.7L510,851l.1,-6.7v38l.1,-128.8l.1,.9v22.4l.1,-51.8v22.2l.1,47.9l.1,-.9v12.9V762l.2,56.3v-75l.1,18.3l.2,63.8v-66l.1,23.9v4l.1,-25.2v31.7l.1,-21.1v50.4l.1,-67.1l.1,56.2l.1,-15.9V724.8l.1,25.3v7.2l.1,55.6V746.6L512,770v28.3l.1,-58.4l.1,67.8l.1,-4.5l.1,-58.8l.1,3.4v73l.1,-59V772l.1,-24.5v-64l.1,113.1l.1,-41.5V731.3V772l.1,-44.5V831.8l.1,-33.5l.1,-67.5l.1,60.6v-8l.1,17.5l.1,-40.1l.1,83.1V788.8v10.1l.1,-49.9l.1,18.2v10.5l.1,23.2V758.2l.1,18.3v2.6l.1,8.9l.1,-50.2v71.9l.1,-29.2V740.6l.1,41.8V766.3l.1,-16.9v67.4l.1,-80.7v61l.1,-4.5V742.4l.1,85.4v-3.9l.1,-62.1v64.5l.1,-86v9.8l.1,85.6l.1,-112.4l.1,59.9l.1,-22.7v17.8l.1,-7l.1,-26.1l.1,77.6l.1,-91.6l.1,106V762.7l.1,.5V735.6v39.2l.1,-10.9v-9.7l.1,10.3v-9.4l.1,-15.8v22.6l.1,-13.5V724.1l.2,140.1V731.7l.1,43.3v74.5l.1,-147.3l.1,47.3v68.4l.1,-2.7l.1,-48v29.2l.1,-40.4v9.5l.1,33.2v-.1l.1,-57v14.1l.1,36.7V753.3l.1,27.9v48.9l.1,-79.7l.1,44.3l.1,-71.9l.1,106.7l.1,-27.7v-7.1v18.4h.1l.1,-88v90.7l.1,-24.1l.1,-49.4v4.1l.1,14V831l.1,-121.3l.2,84.2v4.3l.1,-39.7v68.6V763.3l.1,-12.3l.1,74.4V735.5l.1,9.7l.1,46.4V774.9l.1,23.2V731.6l.1,53.1V827V771.2l.1,26.3l.1,5.5v-7.7l.1,42.3l.1,-74.8l.1,5.7l.1,43.1V749.9l.1,13.6l.1,27v-26l.1,16.8v2.3V760.3l.1,41.9V752.9l.1,8.7l.1,35.3V758.2l.1,11.4v32.9l.2,-133.4l.1,142.4l.1,37.6V813.4l.1,-89.4v27l.2,45.5l.1,-65.6l.1,48.3l.1,-57.3v30.9l.1,46.1V711.8l.1,71.9v10.4V725.8l.1,44.4v37.2l.1,-20.3V728.6v27.5l.1,75.7l.1,-11.2l.1,-44.5v56.4l.1,-85.7v54.7l.1,35.2V821.5l.3,-100.8v11.8l.1,81.2l.2,-99.7l.1,72.7V769.5l.1,23.4v-2.7l.1,-72.3v91.7l.1,-41.1l.2,68.3l.1,-42.6v6.5l.1,-64.5l.1,23.5v-34l.1,41.1V711.4v78.7l.1,-9.1V749.3l.1,27.1v13.1l.1,-2l.1,-33.2l.1,65.4l.1,-54.4v20.2v-7.8l.1,-41v17l.2,103V822.3l.1,-102.1l.1,16.8v64.7V732l.1,13.4v71.2l.1,-47.9l.1,55.4l.1,-49.9v48.9v-2.4l.1,-24.1v20.8l.1,-1.2l.1,-32.4v2.1V783l.1,51.4l.1,-92.3l.1,12.9v15.6l.1,-22.2v74.2l.1,-16.5l.1,-52.9V770l.1,90l.1,-18.9l.1,-100.6l.1,76.8V728.9l.1,72.3v53l.1,-19.3V722.4l.1,39.8V822V764.6l.1,-11l.1,43.7l.1,-88.1l.1,99.9l.1,-46.8l.1,2.8V785l.1,-20.2v31l.1,-69.6l.1,66.6l.1,-54.4v26.3l.1,4.6v21.3l.1,-4.1V757.4l.1,5.7v-8l.1,27.3V771.5l.1,-35.8v25l.1,-7v39.1V771.6l.1,-54.1l.2,98.9v-8.7l.1,59.5l.1,-134.1l.1,12.7l.1,35.9v-3.8l.1,-25.1l.1,-2.4l.1,40.5l.1,-17.9V727.8l.1,6.1l.1,50l.1,-21v10l.2,50.3l.1,-76.1v29.7l.1,-23V697.2l.1,70.4V751.5l.1,51.3v-6.5l.1,-68.4l.1,43.7l.1,21.5l.1,4.6v-8.5l.1,54.3l.1,-66.5l.1,8.6l.1,-60.4v11.1L532,815V780.1l.1,-67l.2,99.7V742.2l.1,27v-26l.1,17v8V737.8l.1,57l.1,-18.4v-35v36l.1,-48.4v51.1l.1,-51.3v16.6l.1,36.2V738.8l.1,53.8l.1,-6.7V737.5v32.6l.1,11.4l.1,-29.8l.1,65.9l.1,-51.6V733.3l.1,38.5V750.1l.1,-25.8v81l.1,-6.3V673.4l.1,1.5V796.4l.1,-6.9l.2,-61.3v58.5l.1,-52.6v50.4l.1,-14.2l.2,34.7l.1,-91.9V832.6l.1,-41.3l.1,14.1l.1,-54v89.5l.1,-83V773V748.4l.1,.3l.1,47.9V720.1V789l.2,-53.7V720.8l.2,128.9l.1,-105.2v39.4L536,780l.1,2.7V759.8v52l.1,-28.3v-3.7l.1,15.8V749.1l.1,.2v66.2l.1,-70.1l.1,-13.9v.4l.1,27.6V721.9l.1,61.6V704.8v37.9l.1,56l.1,-59V854.4V769.6l.1,-11.6l.1,90.3V811.4l.1,-64.4v9.9l.1,65.9l.1,-86.9l.1,77.1V723.5l.1,39.2v6.9l.1,-65l.1,49.1v34.5l.1,-20.5V766l.1,28.6l.1,-34.8v19.7l.1,20.7l.1,-67.8l.1,82.6V795.4l.1,-44.3l.1,8.7V707l.1,113.7l.1,-47.5l.1,-43.6v20.9l.2,71.2V761.5l.1,14.9v67.7l.1,-21.8l.1,-37.8v6.3l.1,24.3V765.8l.1,39.9l.2,-64.1V842l.1,-20.1l.1,-42.3l.1,25.3v-4.7l.1,-18.6l.1,61.9l.1,-64.9V787l.1,-60.7v30l.1,-21v83.3l.1,-58.6V724.1l.1,67.8V775.5l.1,-24.7v83.4V798.6l.1,-7.4v30.4l.1,-51.8v2.9l.1,30.5v-.6l.1,-.4v55.7l.1,-18V747.7l.1,34.5l.1,20v-52l.1,14v27.3l.1,-23.2v-34l.1,59.1l.1,-57.9v3.1l.1,75.3V796.3l.1,-23l.1,2.6v22.4l.1,-49.5l.1,90.9l.1,-121.1v76.2l.1,-42.6l.1,4.8V731.8l.2,70.8V793l.1,-66.8v23.6l.1,8.9V733.9l.1,4.4v10.8l.1,69.6l.1,-81.1v35.1l.1,6.2v22.6v-52l.1,13.1v45.5l.1,-39v-2.9l.1,56l.1,-51v12.2l.1,-29.1v20l.1,-.2v12.5l.1,-44.1v89.1l.1,-3.2V751.9l.1,7.6v54.2l.1,-84.8l.2,58.6V727.3v72.5L545,777V743.8l.1,33.4l.1,-70.4l.1,113.6V772.2l.1,-10.4v2.3l.2,-7.5l.1,66.4l.1,-81.6l.2,36.2V754.3l.1,57.6V802l.1,-41l.1,58.4l.1,-11.7V786.5l.1,34.6V743l.1,24.9V753.8l.1,2v38.1l.1,-56.1l.1,19.2v15.8V740.6l.2,71.9V754.4v44l.1,-3.2l.1,-70v35.1l.1,17.2V745.4l.1,13.1v3.4l.1,-36v5.4l.1,83.8V775.5l.1,16.8V773.2l.1,21.2V752.2l.1,29.5v-1l.1,-50V739l.1,95.3l.1,-26.3V739v57.7l.1,-6.7V740l.1,69l.1,-6.2v24.3l.1,-88.5v16.3l.1,25.3V768.9l.1,-23.6v65.5v-63l.3,67.3V785.7l.1,-59.9l.1,69.8V784.9l.1,42.3l.1,-70.4v32.5l.2,-38.3l.1,20.7V726.6l.1,43.5v39.8l.1,-56.1v15.7l.2,-33.1l.1,37.7l.1,-6.1v31.2v-3.6l.1,-32.3l.1,68.9l.1,-29l.1,-85.9l.1,122.2l.2,-107.9V786l.1,-.8v4.7l.1,23.5V743.7v40.2l.1,9l.1,-48.5v4.3l.1,12.2V733.2l.2,68.4l.1,-87.7l.1,70.6V763.1l.1,6.3v34.9l.1,-6.6v21.7l.2,-88.1v78.4l.1,-29.7l.1,3.8l.1,-28.9v2l.2,60.7V772.2l.2,71.8l.1,-114.1l.1,68.1l.1,-27.7l.1,51.8l.1,-80l.1,81.6l.1,-121.6l.1,140l.1,-66.2V735.5v40.6l.1,-9.6l.1,-25.6v95.8l.1,-2.9V738.2l.1,21.6l.1,39.3v2.8l.1,45.3l.1,-100.8v1.2l.1,34.8l.1,-17.8V808l.1,-16.1V741.4l.1,64.8V770.1l.1,3.1v2.4l.2,-21.8v81.7l.1,-35.6V785.8l.1,-57v65.3l.1,-3.3v-6.2l.1,-24.7L556,810v-.3l.1,-69.5v45.9l.1,63.7V789.2l.1,-6.3v12.9l.1,-33.3v52V811l.1,-78.1l.1,11.4v25.1V728l.1,61l.1,-11.9V726.2v29l.1,40.3V770.4l.1,-41v49V753.8l.1,.6v-2.2l.1,36.8l.1,-9V761.5l.1,52.7V777.7l.1,-11.1v42.1V758l.1,20.1l.1,-40v5.6l.1,53.6V751.7l.1,-26.3v74.4l.1,-13.6l.1,-2.4V755.9l.1,81.9l.1,-30v25.4l.1,17.9V779.3l.1,53.1l.1,-66l.1,58.7V772.6l.1,-58.3v96.9l.1,-39.3l.1,-31.6l.1,38.4V710.3v22.1l.1,66.4l.1,-55.6v12.7l.1,-5.8l.1,23v-13v19.7l.1,-73.1v51.8l.1,59.2v-8.5l.1,50.6l.1,-86.7l.1,31.4V750.4l.1,38.7v40.6l.1,-34.6v-5.2v18.4l.1,-63.1l.1,59.8V712.7l.1,30.2l.1,43.8l.1,-17.2l.1,17V775.8l.1,-3.2V741.3v48.5l.1,-5l.1,-22.1v61.8l.1,-5.3l.1,-54.6v-7.5l.2,65.8V730.8l.1,121.5V784.9l.1,5.3V757.3l.1,4.8v36.4V794l.1,-21.7l.1,2.5v21.5V783.4l.1,-2.4v34.6l.1,-27.6v1l.1,-47.9l.2,100.1V763.5l.1,7.7l.1,1.5v47.6V734.9l.1,16.6l.1,62.6l.1,-66v27l.1,8.5V726.5l.2,64.8v5.8l.1,-54.4v43l.1,-47l.1,78.4V789.3l.1,24.9l.1,-55.1l.1,1.8v30.5l.1,-82.9v83.1V715.7l.1,21.1v84.3l.1,-65.4v-3.2l.2,72.1l.1,-51.9l.2,35.8v-40V774l.1,36.1l.1,-81v35.7l.1,-.7l.1,-25.9l.1,50.7l.1,50l.1,-98.1v19l.1,27.6v-4.6l.1,-17.2v19.3l.1,-34l.1,64.2V754.8l.1,64.7l.1,-25.1l.1,-32.2l.1,75.6l.1,-104.7v7l.1,51l.1,-60.6v19.6l.1,-23.1l.1,93.9V751.6l.1,32.1l.1,15.6V744.7l.1,11.8l.1,66.4l.1,-71.6v16.9l.1,51.4V790.1l.1,-51.3v18.8l.2,45.6V781.4v53.5l.1,-14.1V763.6l.1,23l.1,12.1L568,730l.1,12.7v62V768.1l.2,-53V777l.1,-5l.1,-49.1l.2,57.2l.1,-45.3l.1,69.7V767.3l.1,4.8v31.3l.1,-56l.1,23.7v18.1V733.8l.1,92.5l.1,-44.8V741.3v59.5l.1,-14h.1V751.2l.1,4.1v55.5V737.6l.1,28.4l.1,77.4L570,711.8l.1,65.7v-13l.1,42.6l.1,-83.1V839l.1,-47.2l.1,-19.3v12.6l.1,14.6v-32v59l.1,-52.9V754.7l.1,16.8v19.9V779.9l.2,-33.6v92.5V777.6l.1,-2.8v35.6l.1,-23v2.4V752.5l.1,9.3v30.6l.1,-34.8v9.3l.1,86.4V815.4l.2,-53.3V732.7v21.6l.1,71.2l.1,-95.3v48.1L572,767v4l.1,45.4V747.7l.1,22.3V751.3l.1,21.8v-.7l.1,-26.6l.1,76.6l.1,-81v54.7V750.8l.1,-11.3v4.7l.1,106.5V783.6l.1,-28.4l.1,80l.1,-56.7l.1,46.8V784.1l.1,5.1V766.6l.1,81l.1,-74.2v32.4l.1,-55.3l.1,25.2v31.8v-4.2l.1,-80.8l.1,41.1V797l.1,-67l.1,89.8V761.9l.1,-67.1v65.6l.1,65.1l.1,-90.7v69.7l.1,-53.5l.1,-45.5v77.7l.1,-13.9l.2,63.1L575,721.3l.1,8.9v60l.1,-5.5l.1,-55.9v91.8l.1,-52V700.7l.1,46.5v35.7l.1,-7.4V754.7l.1,107.3V753.8l.1,37V705.9l.1,40.5l.1,38V727.5l.1,27.4l.1,4.5V737.9l.2,71.4L576.5,709v71.2l.1,-38.9v-5.4V795l.1,-11.9V747.2l.1,49V765.5l.1,-36.1l.1,105.1l.1,-88.7l.1,53l.1,-81.5l.1,148.1l.1,-19.1l.1,-104l.1,38V737.6l.1,24.1v44.9l.1,-61.3l.1,150.8l.1,-6.6l.1,-105.8v12.8l.2,-47.3v39.4l.1,-4.8V734.2l.1,46.4v81.1l.1,-49.8V729.7l.1,41.5v-1.3l.1,-16v48.4l.1,-27.2v-2.6l.1,10.2v-28v23.5l.1,45.5l.1,-76.3l.1,20.6v-4.4l.1,50.1l.1,-95.6l.1,104.9l.1,-96l.1,59.3L580,768v37.2V770.1l.1,6.3l.1,-54.6l.1,17.7V728.7v7.5l.2,107.1v-91l.2,64.7V775.6v1.1l.1,25.5l.1,-39.8l.1,72.5l.1,-9.2V796.4l.1,45.9l.1,-111.8V754l.1,3.1V728.4l.1,85.6l.1,-84.2v30.4l.1,34.6V757.6l.1,46.8V753.5l.1,13v66.1l.1,-72.4l.1,24.8l.1,95.5V849.1l.1,-20.5v9.5V711.7l.1,46.9l.1,-65.2v92l.1,-31.1v-7.8l.1,61v-4.7l.2,16.7L583,717.2v33.5l.1,-.1V730l.1,21.7V707.2l.2,114.6V724.9l.1,63.5v38.4l.1,-78.3v51.3v-.1l.1,-50.6v32.4l.1,-8.7l.1,64.9V806.9l.1,14l.1,-77.3l.2,63.3v-69l.1,62.5l.1,-10.3V734.7v11.1l.1,42.3l.1,-20.5V728.7l.1,67.8l.2,-53.8V811v-7.7l.1,-73.2l.1,39.7V714.3l.1,95l.1,-43.8v64.2v-78l.1,68.7l.2,-68.6v1.4v-6.8l.1,127.4V782.5l.1,-27.8v92.4V778l.2,-61.3l.1,68.8v-7l.1,-25.7v3l.1,81.4V791.1h.1l.1,-59.5v.3l.1,60.4l.1,-8.7v16.9l.2,-71.1v57.7V775.6l.1,-53.8l.1,86.4V763.5l.2,39.1v-8.4l.1,-58.3V746l.1,37.3V762.2l.1,-21.9l.1,77.8l.1,-30.9v18.3L588,732l.1,27.6v-24l.1,74.4l.1,-29.3V750.8l.1,35.2l.1,-9.2l.1,51.2l.1,-87.9v30.2l.1,56.2v-22l.1,-75.3l.1,32.6V772V752.3l.1,43.7l.1,-12.7l.1,-54.5V751l.1,36V761.7l.1,50.3V749.1l.1,61.1l.1,-23v19.5l.2,-70.1V849.5l.1,-97.4l.1,39.6V768.9l.1,56.7V754.8l.2,49.3V741.7v48.1l.2,-41.3v83.3l.1,-30.5l.1,-56.3l.1,42.7l.1,-16.4v26.6l.1,-11.8v-2.5l.1,51.7V736.2l.1,40.3v30.6l.1,-47.5v3.9l.1,37.8v-5.7l.1,-86.5v90.6l.1,-44l.1,37.7l.2,-42.3v12.3v-6.6l.1,-29.8l.1,47.4v-7.8l.1,62.7l.1,-102.6v80.2l.1,8.4V709.6l.1,39.3v1.4l.1,-25.6l.1,63V719.2l.1,11.6V736l.1,-12.2V749l.1,-25.6v69.5l.1,-20.4V746.8l.1,40.8V769.5l.1,-35.1l.1,55V721.8l.1,86.7l.1,-20.6l.1,-38.6v53.2l.1,-65.2l.1,-1V709.7v79.1l.1,-5.6l.1,-66.2v73.3l.1,-9.2l.1,-41.8v5.2l.2,42.4l.1,-17.9v23.4l.1,-44.9v8l.1,58.7V740.5v82.3L595,760v-5.7l.1,48.9l.1,.1v3.8l.1,-1.6l.2,-50.8v42.7l.1,-39.7l.1,-25.7v.8l.2,83l.1,-25.5V730.5v21.6l.1,41.6v-35l.1,9l.1,-23.8v80.4l.2,-118.1v69.1l.1,-10.6v-.5l.1,7.3V745.4v39.5l.1,-40.5l.1,2.8v80.9V801.5l.3,-106.6l.1,110.2V717.6l.1,26.8V821l.1,-60.9l.1,23.1V760.6v32l.2,-77.5l.1,96.9V720.5l.1,33.1l.1,-40.2v81.4l.1,-2.2V756.3l.1,34.1V779.1l.1,66.2V796.4l.1,-39.2v14.6l.1,-22.3v19.9l.1,38.6l.1,-66.1l.1,8.7V787l.1,-72.7v26l.1,65.2V779.7l.1,-45.5v2.4l.2,87.6V758.8v35.3l.1,21.1l.1,-52.1l.1,35.2l.1,-65.6l.1,118.6l.2,-118.7l.1,60.8l.1,-95.1V809.7l.1,-14.1V739.9l.1,23.6l.1,30.4l.1,-104.3l.1,49.2l.1,96.4L601,725.3v89.6l.1,-23V747.4l.1,18.3l.1,39.9l.1,-48.7v49.8l.1,-78.6l.1,33.9V735.4l.2,95.2V782.8l.1,23.9v42.7l.1,-29.9V799.8l.1,84.5l.1,-19.9l.1,-47.8v56.6l.1,-54.5l.1,-14.6v12.7l.1,-60.1v9.6l.1,56.4l.1,-80.5v52.3l.1,-15l.1,18.4V763.8v62.6l.1,-19.8l.1,6.9V729.9v76.3l.1,48.2v-40l.1,-61.5l.1,31.1v18l.1,-52.3l.1,79.5l.1,-30v45.2l.1,-115.6v32.5l.1,37.1V741.2l.1,119.4V823.4l.1,-1.1l.2,-88.8l.1,87l.1,-10.9V733.4v81.4l.1,-19.2l.1,59.5v-44v5.1L605,688.7l.1,105.7V758.3l.1,19.2l.1,-72.1l.2,81V756l.2,83.6V802.4l.1,8.8v32.1l.1,-79.4l.1,33.7v-1.9l.1,-26v.9l.1,19.6V729l.1,15l.1,3.8V851.1l.1,-64.4l.1,-71.8l.2,112.9V759.2l.1,45.2l.1,-14.1v25.1l.1,-21.3V723.8v8.9l.1,69.2l.1,-75.8v37.4l.1,72.9l.1,-33.3v32.3l.1,-84.2l.1,5.2l.1,38.5v73l.1,-124.2l.1,45.6V761.9l.2,64.4V741.5v21.4l.1,36.2V779.9l.1,-1.3v50.2l.1,-5.4v6.8l.1,-83.7v27.2l.1,-27.3l.2,68.7l.1,-70.6l.1,59.5V768.7l.1,-18.8v53.8l.1,-12.6v-1.8l.1,-47.5l.1,55.9l.1,-8.1v10.9l.1,-1.4l.1,-116.2l.1,109.8l.1,-33.3v44l.1,-52.5l.2,77.3l.1,-94.5V775v-1.2l.1,46.9V743.8l.1,27.1l.1,44.9V794.6l.1,-55.3v35.8l.1,-38.7v33.5v-4.3l.1,9.5V736.5l.1,26.8v13V761.2l.2,93.4L611.5,706l.2,90.1V759.9l.1,10.7v13.2V761.7l.1,18.7v34.9L612,805V740.6l.1,13V858l.1,-23.1v24.3l.2,-102.8V777l.1,16V759.5l.1,1.2v82.1l.1,-35.3l.2,-77.7v65V775.6l.2,-38.6l.1,78V790.6l.2,-10l.1,57.3l.1,-103.6V795l.1,-5.5v38l.1,-16.8V708.8l.1,44l.1,40.7l.2,-82.1l.1,96.8V746.9l.1,19.9v71.3l.1,-10.7V767.2l.1,22.7l.1,-64.9l.1,47.1l.1,-16.9v4l.1,-11.7V818l.2,-81.1v33.8V753l.1,-77.2v41.5l.1,79l.2,-74.7l.1,79.3l.1,-49l.1,8.8v48.4V786.2l.1,-39.3l.1,23.5V747.2l.1,50.5V690.1l.1,55.7v1.6l.1,95.9l.1,-69.8l.1,12.9l.1,-2.4v7l.1,-95.2l.1,150.7l.1,-81.8v45.8l.2,-48.3v62.1V782.1l.1,-11.9l.1,39.1V730.2l.1,65.5l.1,-16.7l.1,-25.4v8.2l.2,25.9l.1,-37.6v9.1l.1,90.3l.1,-95.6l.1,33.7v62.5V792.5l.1,17.1v-5.9l.1,-7v57.1l.1,-51V778.5v54.3l.1,-42.7l.1,-64.2v13.5l.1,78L619,694.5v86.4l.1,-1.9v89.1l.1,-24.2V753l.1,20.4v6l.1,-21.4v3.3l.1,67.2l.2,-108.9l.1,88.4l.1,-33.2v67.7l.1,-27l.1,-82.7V798l.1,-29.4l.1,97.8l.1,-102.3l.1,-11.5v13.7l.1,49.2V772.8l.1,26.3l.1,-54.6v.4l.1,114L621,741.8l.1,81.1l.1,-14l.1,-55.6v33.2l.1,-12.4v15l.1,-42.8v30.2l.1,-6.8l.1,-33.4v32.4l.1,-29.6V717.9l.1,1.4v41.4V724.6l.1,-11.1l.1,115.5V723.6l.1,15.8l.1,114.3v-35l.1,5.3v6.9l.1,-7.7v41.6l.1,-125.6l.1,34.5V755.1l.1,-43.1l.1,49.5v-22l.2,98.8V776l.1,16.5v-5.6l.1,-36.1v16.3l.2,-41.2v92.9V756.3l.1,-3.9l.1,36.6V765.2l.1,21.3v33.6l.1,-80.1l.1,10.2V801l.1,-6.3v5l.2,-70.2V794l.1,-2.9v-.8l.1,-50.1l.1,61.1V743.8v15.1l.1,-44.7v66.9l.1,-63.6l.1,63.1V756l.1,-41.5v54.2l.1,-18.9v-8.1l.1,96V778.1l.1,7.1v90.5l.1,-76.7v3.2l.1,-41.7v55.3l.1,-18.1V801l.1,-57.9l.1,83.4V774.6l.1,28.6V754.8l.1,22.6v73.4l.1,-131l.1,45.8l.1,-43.6l.1,16.9v99.7l.1,-6.5l.1,-75l.1,53.5V792.9l.1,-31.8v35.4l.1,-29.9v-24v43.3l.1,-40.8V695.7l.1,125.3l.2,-96.2v71.7l.1,-16.1v1.3l.2,-58.9v94.6V721.2l.1,66.4v6.7l.1,-6.6V773.5V808l.1,-29.1V723.3l.1,36.2v36.9V743.2l.1,49.4l.1,-3.9V745.6l.1,22.8l.1,-7v63.4l.1,-20.6l.1,-3.8V742.5l.1,54.2V773l.1,45.4V808.2l.1,7.7V789.8l.1,.7v-1.3l.1,-51.9l.2,72.7l.1,1.1V737.7l.1,52.7V766l.1,-7.8V715.8l.1,99.5l.1,-4.5V777.7v29.5l.1,-11.2v2.1l.1,38.3V788.1v28.6l.1,36.6l.1,-115.4l.1,15.3l.1,-40.6v89.7l.1,-16.7l.1,-43.6v21.2l.1,-71.3V794l.1,-24.2V733.2l.1,4.6L631,787V734.2l.2,93.9l.1,-34.6V713l.1,45.9v55V781.6l.1,-8.5v31.2l.1,-71.8v50.7l.1,-35.3v4.3l.1,40.3V768l.1,-41.4v73.6l.1,-61.9v23.1l.1,66.9V798.5l.1,-65.9l.1,8.6v7.6l.1,52.4v-45l.1,19.9l.1,-32.1v55.8l.1,-47.8l.1,52.3v26V744.5l.1,22.8l.1,-2.1v16.6l.1,-7.1l.1,45.4l.2,-80.3v-.6l.1,31.8l.1,-43.3v33l.1,-16.7v29.5l.1,-67v35.6l.1,49.3V756.5l.1,26.8v-8.7l.1,19.1V755.9l.1,58.4l.1,-15.9v36.3l.1,-60.1l.1,14.7V766.6l.1,59.7v-2.2l.2,-91.9v98.1V746.8l.3,127.9l.2,-122.1l.2,91.6V786.1l.1,5.5l.2,-32v27.2l.1,-12.7l.1,-20.9v91.6l.1,-19.3l.1,-90.4l.2,79.6V784.9v4.6l.1,19.5l.1,-58.2l.1,42V774.3l.1,-19.6l.1,84.9L637,715.9l.1,184.5V776.9l.1,1.6v-6.4l.2,73.3l.1,-.6V806.1l.1,-100.6l.1,20.5l.1,96.5V796.3l.1,-82.8v76.8l.1,-72.7l.2,121.1l.1,-80.7l.1,52V786.3l.1,-21.3v30.3l.1,-62.3v49.4v-7.2l.1,-43.8l.1,86v-.9l.1,-91.1l.1,2l.1,134.9V821l.2,-76.6v58V787.9l.2,-73.9v13.7l.1,45.9l.1,-47.3v13.6l.2,61.4l.1,-48.1l.1,54.5V777l.1,-2.1v48.3l.1,-18.1l.1,-112.7l.1,1.2l.1,116.5V734.5v57.7l.1,-34.5v-8.5l.1,6.7v38.8l.1,-81.9l.1,79.8l.1,-27.7v21.4l.1,-66V755l.1,67.2l.1,-.6l.1,-86.9v40l.1,-4V729.6l.1,58.4l.1,-28.3v22.8V764l.1,-11.8v68.3l.1,-60.8V749.1v33.5l.1,-36v73l.1,-31.4v64.1l.1,-129.2v62l.1,4.1v-33l.1,14.1v-4.7l.1,-18l.1,37.5V727.2l.1,17.1l.1,99.1V822.3l.2,-74.9v23.8l.1,-14.6v52.7l.1,-104.5v51l.1,19.6V743l.1,12.3l.1,9.5V748.3l.1,63.4V766.8l.1,10.5v14.6V748.4l.1,46.5v-9.7L644,748v37.1v-6l.1,2.3v4.4l.1,20.2V765.7l.1,74.2l.1,-106.5l.1,16.2v20.5V749.7l.1,-2.7v8.5l.1,-5.4v-.5V778l.1,-6V744.1l.1,.7l.1,71.3V758.7l.1,23.2v-43l.1,47.9V730.6l.1,81.9v-109l.1,93.7l.1,-40.1v71l.1,-26.7v-50v48.9l.1,5.9l.1,-83.1v79.7l.1,-65.1v-7.3l.1,15.7V820l.1,-10.2l.1,-80v45.3l.1,-29.4v71.2l.1,-14.3l.1,-58V810V788l.1,-45.5v45.8l.1,-21.8V712.9v82.8l.1,-6.6l.1,33.9l.2,-88.1v3.5l.2,51.6v-5.9l.1,17.6V779.6l.1,95.6V675.9l.1,101.6v20.8v-8.2l.1,-94.4v69.5l.1,49l.1,-78.8l.2,56.2V761.4v77.9l.2,-91v45.4l.1,-2.4V701.8l.1,36.9V841l.1,-25.4l.1,-109.4V811.3l.1,-34.9v-3l.1,3.1v13.1l.1,-83.1v69l.1,-53.1v91.9l.1,-11.4V751.2l.2,61.7v-38l.1,25.1v14l.1,-51.4v51.6l.1,-.8V773.1l.1,18.1l.1,-31.2l.2,47l.1,-67.8v18.2l.1,32.5l.1,-51.2l.2,85V754.4l.1,32.2l.1,.2v47.9l.1,-21.3l.1,-11.5v35.7V771.7l.1,20.8l.1,33.4V741.3l.1,35.5V756.2l.1,101.1v-152l.1,41.3v44.8l.1,-58.2l.1,5.4v52.9l.1,-10.4V710.5l.1,48.9v4.4L652,787l.1,-76.4v72.3l.1,-28V798l.1,-32.9l.1,-6.9v5.9l.1,54.7V805.2l.2,-84.1v40.5l.1,-9.8l.1,36.4V731.7l.1,50v3.7l.1,54l.1,-4.8l.1,-79.6l.1,5.9l.1,44.4V786.2l.1,-52.5v23.9l.2,56.9l.1,-70.7l.1,89.1l.1,-107.8l.1,97.9V789.3l.1,-23.7v21.6l.1,-8.7v39.6l.1,-94.5V783l.1,-61l.2,103.9V762.2l.1,29.9L655,752l.1,63.4V701.7V807.4l.1,7l.1,-63.5l.1,25.2l.1,-103.7l.1,111.9V754.9l.1,3.2V745.8v63.7l.1,-20.3l.1,47.6l.1,-96.6l.2,49.8V779.5v51.2l.1,-9.5l.1,-74.3v13.4l.1,15.5l.1,-42.1l.1,92.6V778.1l.1,8V774.7l.1,-53.7v81l.1,-18.1l.1,-60.1l.1,56.4l.1,-7.3V716.4l.1,11.7l.1,57.2V742l.1,56.2l.1,-10.6l.1,-27.4V778l.2,-36.9V770l.1,-9.9v-4.6l.1,24.1V760.1l.1,1.5V770l.1,-15l.1,51.4l.1,-68.1v.7l.1,21.2l.1,49.5V752.1l.1,11l.1,63.7l.1,-13.8V709.4v32.9l.1,59.6V771.6l.2,-32.5l.1,73.6V722.1l.1,60.1l.1,-33.1l.1,11.7v55.1V764.4l.1,-35.4v66.2l.1,-40V710.6l.1,12.2v30.3l.1,-50.2V739l.1,52.3V774l.1,13.2V761l.1,53.1V723.8l.1,14.2v71.7l.1,-8.7l.1,-66.6l.2,69.4V766.9l.1,46.4V741.7l.1,34.7l.1,45.2l.1,-25.9V728l.1,13.8l.2,107.4l.2,-134.8v14.3l.1,55.9v-7.2l.1,26.3V754.3l.1,53.2V767.9l.1,-7.2v71.6l.1,-81.7v61.7l.1,-6.8V777.1v45.4l.1,-42.6v10.3l.1,-42.3v4.7l.1,61.5V765.9l.1,-8.3v60.9V779l.1,-40.1l.2,34.4v-44l.1,71.1V781.5l.1,-15.8l.1,37.6V749.4l.1,93.9V773.2l.1,-43v83.4l.1,-49.6V743.4L664,827V788.7l.1,45.7v-54l.1,50.7l.1,15.9v14.5v-120l.1,26.4l.1,14.7V742.7l.2,96.1l.1,-11.8V781.9l.1,11v-6.4l.1,-54.9v56.9l.1,-3.9l.1,-77.2l.1,37.3v50.5l.1,-67.6l.2,94.8V760.2l.1,5.1v10.5l.1,49.6V798.2l.1,-9.2V749.8v20.9l.1,43.4V716l.1,31.8l.1,103.9l.1,-78.8l.1,25.5v7.7l.1,-6.3V760l.1,54.9v-12l.1,13.1V800.7l.1,-91.7v36.4l.2,74.2l.1,-83.4v31.6l.1,-4v35.4l.1,-8.2V731.6l.1,10.1l.1,56.7V710.3v49.3l.2,48.8V740.9l.1,4.1v7.2l.1,41.9V756.5l.1,15.3l.1,.9v41.8V730.2l.1,40.4l.1,-56.2l.1,118.8l.1,-63.5l.1,-9.9v52.1V782.5l.1,-9.5l.1,56.5V702.2V854.4l.1,-51.9" class="g2_84" />
<path d="M259.8,592H669m0,316.8V592M259.8,908.8H669m-409.2,0V592" class="g3_84" />
<path d="M259.8,908.8v-3.7" class="g4_84" />
<path d="M259.8,592v3.7" class="g4_84" />
<path d="M341.6,908.8v-3.7" class="g4_84" />
<path d="M341.6,592v3.7" class="g4_84" />
<path d="M423.4,908.8v-3.7" class="g4_84" />
<path d="M423.4,592v3.7" class="g4_84" />
<path d="M505.3,908.8v-3.7" class="g4_84" />
<path d="M505.3,592v3.7" class="g4_84" />
<path d="M587.1,908.8v-3.7" class="g4_84" />
<path d="M587.1,592v3.7" class="g4_84" />
<path d="M669,908.8v-3.7" class="g4_84" />
<path d="M669,592v3.7" class="g4_84" />
<path d="M259.8,908.8h3.6" class="g4_84" />
<path d="M669,908.8h-3.7" class="g4_84" />
<path d="M259.8,856h3.6" class="g4_84" />
<path d="M669,856h-3.7" class="g4_84" />
<path d="M259.8,803.2h3.6" class="g4_84" />
<path d="M669,803.2h-3.7" class="g4_84" />
<path d="M259.8,750.4h3.6" class="g4_84" />
<path d="M669,750.4h-3.7" class="g4_84" />
<path d="M259.8,697.6h3.6" class="g4_84" />
<path d="M669,697.6h-3.7" class="g4_84" />
<path d="M259.8,644.8h3.6" class="g4_84" />
<path d="M669,644.8h-3.7" class="g4_84" />
<path d="M259.8,592h3.6" class="g4_84" />
<path d="M669,592h-3.7" class="g4_84" />
<path d="M108.3,1113.1H801.2m-692.6,9v-8.7m692.3,8.7v-8.7m-692.3,29.4v-20.7m692.3,20.7v-20.7m-692.3,41.4v-20.7m692.3,20.7v-20.7m-692.3,41.4v-20.7m692.3,20.7v-20.7" class="g0_84" />
</svg>