<?xml version="1.0" encoding="UTF-8" standalone="no"?>
<!DOCTYPE svg PUBLIC "-//W3C//DTD SVG 1.1//EN"
"http://www.w3.org/Graphics/SVG/1.1/DTD/svg11.dtd">
<svg viewBox="0 0 909 1286" version="1.1" xmlns="http://www.w3.org/2000/svg" xmlns:xlink="http://www.w3.org/1999/xlink">
<defs>
<style type="text/css"><![CDATA[
.g0_48{
fill: none;
stroke: #000000;
stroke-width: 0.6080556;
stroke-linecap: butt;
stroke-linejoin: miter;
}
]]></style>
</defs>
<path d="M108.6,132.7V112m692.3,20.7V112M108.6,153.4V132.7m692.3,20.7V132.7M108.6,174.1V153.4m692.3,20.7V153.4M108.6,194.8V174.1m692.3,20.7V174.1M108.6,215.5V194.8m692.3,20.7V194.8M108.6,236.2V215.5m692.3,20.7V215.5M108.6,256.9V236.2m692.3,20.7V236.2M108.6,277.6V256.9m692.3,20.7V256.9M108.6,298.3V277.6m692.3,20.7V277.6M108.6,319V298.3M800.9,319V298.3M108.6,339.7V319m692.3,20.7V319M108.6,360.4V339.7m692.3,20.7V339.7M108.6,381.1V360.4m692.3,20.7V360.4M108.6,401.8V381.1m692.3,20.7V381.1M108.6,422.5V401.8m692.3,20.7V401.8M108.6,443.2V422.5m692.3,20.7V422.5M108.6,463.9V443.2m692.3,20.7V443.2M108.6,484.6V463.9m692.3,20.7V463.9M108.6,505.3V484.6m692.3,20.7V484.6M108.6,526V505.3M800.9,526V505.3M108.6,546.7V526m692.3,20.7V526M108.6,567.4V546.7m692.3,20.7V546.7M108.6,588.1V567.4m692.3,20.7V567.4M108.6,608.8V588.1m692.3,20.7V588.1M108.6,629.5V608.8m692.3,20.7V608.8M108.6,638.2v-8.7m692.3,8.7v-8.7m-692.6,9H801.2M138.8,659.2H770.7M138.8,681.6v-22m159.2,22v-22m65.3,22v-22m112.3,22v-22m192.2,22v-22m102.9,22v-22M138.8,703.7V681.6M298,703.7V681.6m65.3,22.1V681.6m112.3,22.1V681.6m192.2,22.1V681.6m102.9,22.1V681.6M138.8,704H770.7M138.8,726.4V704.3M298,726.4V704.3m65.3,22.1V704.3m112.3,22.1V704.3m192.2,22.1V704.3m102.9,22.1V704.3M138.8,748.4v-22m159.2,22v-22m65.3,22v-22m112.3,22v-22m192.2,22v-22m102.9,22v-22M138.8,770.5V748.4M298,770.5V748.4m65.3,22.1V748.4m112.3,22.1V748.4m192.2,22.1V748.4m102.9,22.1V748.4M138.8,792.6V770.5M298,792.6V770.5m65.3,22.1V770.5m112.3,22.1V770.5m192.2,22.1V770.5m102.9,22.1V770.5M138.8,814.7V792.6M298,814.7V792.6m65.3,22.1V792.6m112.3,22.1V792.6m192.2,22.1V792.6m102.9,22.1V792.6M138.8,836.7v-22m159.2,22v-22m65.3,22v-22m112.3,22v-22m192.2,22v-22m102.9,22v-22M138.8,858.8V836.7M298,858.8V836.7m65.3,22.1V836.7m112.3,22.1V836.7m192.2,22.1V836.7m102.9,22.1V836.7M138.8,880.9V858.8M298,880.9V858.8m65.3,22.1V858.8m112.3,22.1V858.8m192.2,22.1V858.8m102.9,22.1V858.8M138.8,902.9v-22m159.2,22v-22m65.3,22v-22m112.3,22v-22m192.2,22v-22m102.9,22v-22M138.8,925V902.9M298,925V902.9M363.3,925V902.9M475.6,925V902.9M667.8,925V902.9M770.7,925V902.9M138.8,947.1V925M298,947.1V925m65.3,22.1V925m112.3,22.1V925m192.2,22.1V925m102.9,22.1V925M138.8,947.4H770.7M138.8,969.7v-22m159.2,22v-22m65.3,22v-22m112.3,22v-22m192.2,22v-22m102.9,22v-22M138.8,970.1H770.7" class="g0_48" />
</svg>