<?xml version="1.0" encoding="UTF-8" standalone="no"?>
<!DOCTYPE svg PUBLIC "-//W3C//DTD SVG 1.1//EN"
"http://www.w3.org/Graphics/SVG/1.1/DTD/svg11.dtd">
<svg viewBox="0 0 909 1286" version="1.1" xmlns="http://www.w3.org/2000/svg" xmlns:xlink="http://www.w3.org/1999/xlink">
<defs>
<style type="text/css"><![CDATA[
.g0_14{
fill: none;
stroke: #000000;
stroke-width: 0.6080556;
stroke-linecap: butt;
stroke-linejoin: miter;
}
]]></style>
</defs>
<path d="M138.7,507.3h632m-632,22.3v-22m121.8,22v-22m65.3,22v-22m112.2,22v-22m229.9,22v-22m102.8,22v-22M138.7,530h632m-632,22.3v-22m121.8,22v-22m65.3,22v-22m112.2,22v-22m229.9,22v-22m102.8,22v-22m-632,44.1V552.3m121.8,22.1V552.3m65.3,22.1V552.3M438,574.4V552.3m229.9,22.1V552.3m102.8,22.1V552.3m-632,22.4h632m-632,22.4V575m121.8,22.1V575m65.3,22.1V575M438,597.1V575m229.9,22.1V575m102.8,22.1V575m-632,22.4h632" class="g0_14" />
</svg>