<?xml version="1.0" encoding="UTF-8" standalone="no"?>
<!DOCTYPE svg PUBLIC "-//W3C//DTD SVG 1.1//EN"
"http://www.w3.org/Graphics/SVG/1.1/DTD/svg11.dtd">
<svg viewBox="0 0 909 1286" version="1.1" xmlns="http://www.w3.org/2000/svg" xmlns:xlink="http://www.w3.org/1999/xlink">
<defs>
<style type="text/css"><![CDATA[
.g0_73{
fill: #FFFFFF;
}
.g1_73{
fill: none;
stroke: #0000FF;
stroke-width: 0.53472227;
stroke-linecap: square;
stroke-linejoin: round;
}
.g2_73{
stroke: #000000;
stroke-width: 0.26736113;
stroke-linecap: butt;
stroke-linejoin: round;
}
.g3_73{
fill: none;
stroke: #000000;
stroke-width: 0.53472227;
stroke-linecap: square;
stroke-linejoin: round;
}
.g4_73{
fill: #0000FF;
fill-opacity: 0.5;
stroke: #000000;
stroke-width: 0.53472227;
stroke-linecap: square;
stroke-linejoin: round;
stroke-opacity: 0.5;
}
]]></style>
</defs>
<path d="M178.6,513.5H459.3v-280H178.6Z" class="g0_73" />
<path d="M210.5,319.6H449.2V247.1H210.5Z" class="g0_73" />
<path d="M210.5,287.8L211,286l.5,-25.4l.4,27.1l.5,13.2l.5,-11.7l.5,19l.4,-13.7l.5,-10.7l.5,11.6l.5,-2.1l.5,-13.3l.4,-6.8l.5,1.2l.5,-8.3l.5,24.4l.4,-.2l.5,-5.6l.5,-2.1l.5,13l.5,-30l.4,3.8l1,32.4l.5,-20.4l.4,1.8l.5,-8.5l.5,10.1l.5,5.7l.5,-13.9l.4,-8.1l.5,24.4l.5,-5.1l.5,-9.8l.4,-5l.5,7.9l.5,.9l.5,.5l.4,-3.4l.5,9.8l.5,-11.8l.5,4.8l.5,13.3l.4,-7.6l.5,-9.9l.5,-3l.5,-14.6l.4,19.7l.5,8.1l.5,-14.1l.5,7l.5,-16.9l.4,34.3l.5,11.1l.5,-35.1l.5,8.8l.4,-3l.5,-9l.5,-4.3l.5,12.4l.5,16.4l.4,-22.8l.5,18.4l.5,-4.3l.5,-6.5l.4,9.6l.5,-8.8l.5,2.1l.5,25.4l.4,-15.6l.5,-2.2l.5,-3.7l.5,2.9l.5,-7.7l.4,-18.6l.5,6l.5,11.9l.5,2.8l.4,-13l1,20.6l.5,-21.2l.5,4.2l.4,2.7l.5,24.2l.5,-24.1l.5,-4.5L252,287l.5,-4.3l.5,-.7l.5,-9.4l.4,5.2l.5,7.9l.5,-.7l1,-11.6l.4,19.3l.5,-12.3l.5,-3.3l.5,-5.1l.4,5l.5,-4.8l.5,10.1l.5,1.6l.5,13.3l.4,-21.3l.5,20.1l.5,23.4l.5,-25.2l.4,-14l.5,-5.7l.5,1.5l.5,-.8l.5,2.3l.4,-3.8l.5,14.6l.5,-18.3l.5,9.2l.4,13.5l.5,-8.8l.5,2.4l.5,-16.1l.4,-10.2l.5,2.4l.5,11.2l.5,28.3l.5,-11.9l.4,-.3l.5,-8.4l.5,13.6l.5,7.3l.4,-20.7l.5,-4.9l.5,2.6l.5,14.8l.5,-13.7l.4,4.8l.5,-6.1l.5,-4.3l.5,10.8l.4,-17.3l.5,9.4l.5,5.9l.5,-.3l.5,3.3l.4,-3.5l1,-23.7l.5,15.6l.4,12l.5,-3.8l.5,-3l.5,22.7l.4,-18.4l.5,-8l.5,3.2L285,292l.5,-17.4l.4,27.7l.5,-37.1l.5,14.4l.5,4.6l.4,-2.6l.5,14l.5,-30.2l.5,11.4l.5,-8.8l.4,4.9l.5,3.3l.5,8.7l.5,-7.1l.4,6.8l.5,4.1l.5,5.6l.5,-7.3l.5,4.8l.4,1.6l.5,-9.8l.5,-12.8l.5,7.3l.4,3.2l.5,5.1l.5,-8.1l.5,.2l.4,7.7l.5,-16.2l.5,5.8l.5,-7.2l.5,1.7l.4,9.9l.5,12.2l.5,-4.4l.5,-13.7l.4,22.3l.5,-26.5l.5,18.4l.5,-3l.5,-31.5l.4,25.1l.5,3.9l.5,-.7l.5,20.1l.4,-14.3l.5,-16.5l.5,14.3l.5,-4.5l.5,11.4l.4,3.9l.5,2.9l.5,-4.6l.5,-6.1l.4,13.9l.5,-25.2l.5,-.7l.5,6.8l.4,14.9l.5,-17.7l.5,7.4l.5,-17.5l.5,8.6l.4,-1.1l.5,19.4l.5,-17.5l.5,19.4l.4,-14.8l.5,-10.8l.5,6.8l.5,1.3l.5,3l.4,-12.2l.5,18.7l.5,7.3l.5,-14.7l.4,-17.8l.5,6.4l.5,-14.8l.5,8.7l.5,13.5l.4,2.1l.5,1.1l.5,6.5l.5,-17.4l.4,17l.5,-13.5l.5,2.3l.5,12.2l.9,-9.6l.5,3.5l.5,2.9l.5,5.7l.4,-4.9l.5,-18.9l.5,9.8l.5,-4.7l.4,4.4l.5,-5.5l.5,23.2l.5,-16.2l.5,10.5l.4,-20.6l.5,-2.3l.5,14.4l.5,-11.1l.4,1.8l.5,4l.5,17.3l.5,-10.1l.4,-27.7l.5,16.2l.5,3.9l.5,-2.9l.5,-12.6l.4,21.2l.5,-17.8l.5,12.2l.5,-5.7l.4,5.6l.5,3.9l.5,2.4l.5,-2.1l.9,-6l.5,15.9l.5,-17.5l.5,.7l.4,15.3l.5,-9.3l.5,-1.1l.5,12.8l.5,-21.7l.4,20.1l.5,4l.5,-10.1l.5,-8.4l.4,.3l.5,4.7l.5,-5.3l.5,.6l.4,-17.3l.5,29.5l.5,-9.9l.5,4l.5,-5.8l.4,14.4l.5,1.9l.5,-16.6l.5,-4.7l.4,-1.4l.5,8.9l.5,-3.2l.5,18l.5,-10.3l.4,-.5l.5,3.5l.5,12l.5,-25.9l.4,9.6l.5,-20.9l.5,15.2l.5,-12.7l.5,17l.4,-.6l.5,-2.6l.5,-.2l.5,-7.3l.4,11.8l.5,-3.2l.5,3.3l.5,-5.5l.4,-7.3l.5,8.3l.5,-12.3l.5,.1l.5,21.9l.4,7.1l.5,-7.9l.5,-24.1l.5,26.7l.4,-3.1l.5,-16.8l.5,2.7l.5,21l.5,-7.2l.4,-13.7l.5,11.5l.5,14.3l.5,-15.1l.4,-4.3l1,12.3l.5,-2.4l.5,-3.3l.4,-12.5l.5,19.3l.5,-18.8l.5,16.7l.4,-2.2l.5,-10.3l.5,4.3l.5,5.8l.4,-1.1l.5,11.4l.5,-5.3l.5,4.5l.5,-16.4l.4,4l.5,-10.9l.5,-.9l.5,11.6l.4,-9.4l.5,2.5l.5,-10.9l.5,-15.9l.5,34.6l.4,-4.9l.5,1.3l.5,-2.2l.5,-2.8l.4,11.6l.5,-6l.5,-4.9l.5,-9.5l.5,2.6l.4,8.4l.5,-2.5l.5,.3l.5,-1.7l.4,-10.1l.5,7.8l.5,11.2l.5,-5.2l.4,2.6l.5,-2.8l.5,1.7l.5,.8l.9,14.7l.5,-38.9l.5,31l.5,-16.4l.4,3.1l.5,1.7l.5,9.6l.5,-3.9l.5,2.7l.4,.5l.5,6.7l.5,-9.2l.5,5.4l.4,-15.7l.5,15.3l.5,3l.5,4.7l.4,10l.5,-5.2l.5,-12.4l.5,-1.5l.5,7.6l.4,-6L411,279l.5,9.1l.5,-8l.4,-15.1l.5,17l.5,2.1l.5,-8.5l.5,-3.9l.9,2.8l.5,3.5l.5,2.2l.4,3l1,2.5l.5,-1.4l.9,-7.6l.5,1.9l.5,-5.6l.5,2.6l.4,-6.4l.5,6.7l.5,1.7l.5,-1.4l.4,4.1l.5,8.7l.5,-7.8l.5,4.3l.5,-9l.4,9.4l.5,-12.5l.5,.4l.5,17.7l.4,2.3l.5,19.2l1,-38.1l.5,-4.6l.4,27.9l.5,-12.8l.5,2.7l.5,-9.4l.4,10.2l.5,-9.3l.5,-14l.5,16.2l.9,-13.5l.5,10.9l.5,1.7l.5,6.7l.4,-20.5l1,20l.5,2.2l.4,-13.6l.5,-2.9l1,21.2l.5,-20.1l.4,24l.5,-13.6l.5,-8l.5,8.7l.4,5l.5,-10.8l.5,-13.6l.5,-1.5l.5,8.8l.4,18.7l.5,-11.6l.5,7.6l.5,-10.5l.4,18l.5,14.7l.5,-21.3l.5,-5.9l.5,28.7l.4,-30.8" class="g1_73" />
<path d="M210.5,319.6v-2.1" class="g2_73" />
<path d="M210.5,247.1v2.2" class="g2_73" />
<path d="M258.2,319.6v-2.1" class="g2_73" />
<path d="M258.2,247.1v2.2" class="g2_73" />
<path d="M306,319.6v-2.1" class="g2_73" />
<path d="M306,247.1v2.2" class="g2_73" />
<path d="M353.7,319.6v-2.1" class="g2_73" />
<path d="M353.7,247.1v2.2" class="g2_73" />
<path d="M401.5,319.6v-2.1" class="g2_73" />
<path d="M401.5,247.1v2.2" class="g2_73" />
<path d="M449.2,319.6v-2.1" class="g2_73" />
<path d="M449.2,247.1v2.2" class="g2_73" />
<path d="M210.5,319.6h2.1" class="g2_73" />
<path d="M449.2,319.6h-2.1" class="g2_73" />
<path d="M210.5,311.6h2.1" class="g2_73" />
<path d="M449.2,311.6h-2.1" class="g2_73" />
<path d="M210.5,303.5h2.1" class="g2_73" />
<path d="M449.2,303.5h-2.1" class="g2_73" />
<path d="M210.5,295.5h2.1" class="g2_73" />
<path d="M449.2,295.5h-2.1" class="g2_73" />
<path d="M210.5,287.4h2.1" class="g2_73" />
<path d="M449.2,287.4h-2.1" class="g2_73" />
<path d="M210.5,279.4h2.1" class="g2_73" />
<path d="M449.2,279.4h-2.1" class="g2_73" />
<path d="M210.5,271.3h2.1" class="g2_73" />
<path d="M449.2,271.3h-2.1" class="g2_73" />
<path d="M210.5,263.3h2.1" class="g2_73" />
<path d="M449.2,263.3h-2.1" class="g2_73" />
<path d="M210.5,255.2h2.1" class="g2_73" />
<path d="M449.2,255.2h-2.1" class="g2_73" />
<path d="M210.5,247.1h2.1" class="g2_73" />
<path d="M449.2,247.1h-2.1" class="g2_73" />
<path d="M210.5,247.1H449.2m0,72.5V247.1M210.5,319.6H449.2m-238.7,0V247.1" class="g3_73" />
<path d="M210.5,406.6H449.2V334.1H210.5Z" class="g0_73" />
<path d="M210.5,362.5L211,361l.5,34.9l.4,-35.5l.5,-8.4l.5,5.5l.5,-14.9l.4,11.7l.5,9.7l.5,-8.9l.5,-2.2l.5,18.9l.4,10.6l.5,-7.5l.5,13.8l.5,-28.1l.4,5.8l.5,-2.3l.5,4.1l.5,-10.5l.5,32.2l.4,-1.4l.5,-24l.5,-14.3l.5,16.1l.4,7.7l.5,10.1l.5,-15.9l.5,6.4l.5,1.9l.4,7l.5,-27.9l.5,10.9l.5,12.8l.4,-1.9l.5,-7.4l.5,-.2l.5,-2.1l.4,1l.5,-5.6l.5,7.1l.5,.5l.5,-21l.4,13.8l.5,11.5l.5,6.3l.5,9.1l.4,-22.9l.5,1.3l.5,7l.5,-11.1l.5,24l.4,-32.6l.5,-12.3l.5,34.1l.5,-7.3l.4,-.9l.5,8l.5,9.3l.5,-14.4l.5,-17l.4,12.8l.5,-7.1l.5,.6l.5,5l.4,-7.9l.5,3.7l.5,4.8L243,343l.4,14.2l.5,.8l.5,4.2l.5,.6l.5,8.6l.4,14.2l.5,-1.2l.5,-12.5l.5,1.6l.4,7.8l.5,-10.6l.5,-17.1l.5,27.3l.5,-2.1l.4,-8l.5,-16.7l.5,20.4l.5,3.5l.4,-15.8l.5,8.2l.5,-6.2l.5,10.5l.4,-1.4l.5,-2.8l.5,.5l.5,.8l.5,2.9l.4,-11.8l.5,.9l.5,5.2l.5,11l.4,-4.5l.5,7.8L260.2,353l.4,26.4l1,-44.4l.5,30.9l.4,3.1l.5,8.7l.5,-9.2l.5,13.2l.5,-7.3l.4,2.7l.5,-19.9l.5,19l.5,-3.8l.4,-9.6l.5,1.8l.5,-3.2l.5,24.3l.4,8l.5,-.5l.5,-17.8l.5,-29.2l.5,16l.4,-2.6l.5,12.4l.5,-16.5l.5,-6l.4,22.9l.5,-1.5l.5,8.3l.5,-25.2l.5,13.8l.4,1.9l.5,2.3l.5,6.1l.5,-10.8l.4,17l1,-16.4l.5,-3.3l.5,-8.2l.4,12.5l.5,8.1l.5,13.5l.5,-9.3l.4,-16.2l.5,4.9l.5,-4.5l.5,-24.2l.4,22l.5,13.6l.5,-4.7l.5,-16.8l.5,21.3l.4,-25.6l.5,22.9l.5,2.2l.5,-20.2l.4,16.1l.5,-19.6l.5,34l.5,-7l.5,10.1l.4,-7.7l.5,-6.2l.5,-1.3l.5,2.1l.4,-10.2l.5,-4.1l.5,-7.5l.5,13.3l.5,-8.7l.4,-3.9l.5,14.6l.5,12.6l.5,-10.7l.4,-1.1l.5,-3.4l.5,11.5l.5,-2.2l.4,-12.7l.5,20.3l.5,-6.2l.5,-.3l.5,2.7l.4,-2.6l.5,-14.6l.5,1.4l.5,12.7l.4,-23.3l.5,16.8l.5,-9.6l.5,6.4l.5,29l.4,-22.9l.5,-7.4l.5,2.1l.5,-25.4l.4,20.2l.5,14.9l.5,-8.5l.5,-.7l.5,-19.4l.4,7.3l.5,-.7l.5,.7l.5,10.4l.4,-17l.5,19.3l.5,4.9l.5,-9.1l.4,-4.1l.5,8.5l.5,-10.6l.5,21.4l.5,-6.1l.4,-3.4l.5,-20.3l.5,22.9l.5,-27.4l.4,22.6l.5,5.1l.5,-2.7l.5,7l.5,-12.2l.4,12l.5,-26.6l.5,5.6l.9,30.8l.5,-14.3l.5,17.5l.5,-6.7l.5,-15.8l.4,2.5l.5,3.7l.5,-14l.5,18.2l.4,-24.5l.5,29.1l.5,-9.4l.5,-16.1l.9,17.5l.5,-5.9l.5,-9.3l.5,-.5l.4,-3l.5,16.6l.5,-2l.5,3.2l.4,2l.5,3.1l.5,-23.9l.5,15.9l.5,-15.4l.4,29l.5,-7.2l.5,-10.5l.5,4.6l.4,7.7l.5,-7.4l.5,-15.3l.5,8.7l.4,23.7l.5,-7.8l.5,-4.2l.5,-.2l.5,7.3l.4,-10.5l.5,13.2l.5,-10.8l.5,7.7l.4,-6l.5,-1.7l.5,-7l.5,8.5l.5,-3.8l.4,8.4l.5,-24.2l.5,18.1l.5,1.2l.4,-12.7l.5,2.3l.5,.9l.5,-10.7l.5,22.8l.4,-20l.5,-2.5l.5,7.1l.5,17.2l.4,-7.7l.5,-5.5l.5,7.5l.5,-3.2l.4,21.5l.5,-28.5l.5,5.9l.5,-3.8l.5,5l.4,-13.4l.5,2.2l.5,9.9l.5,-2l.4,13.3L358,369l.5,8.6l.5,-19.8l.5,8.3l.4,-.1l.5,-2.5l.5,-13.5l.5,30.5l.4,-7.7l.5,18.6l.5,-16.8l.5,9.5l.5,-15.5l.4,3.5l.5,1.8l.5,-5.7l.5,12.8l.4,-6.8l.5,.7l.5,-2.2l.5,2.6l.4,7.7l.5,-10.9l.5,18.3l.5,-3.9l.5,-16.2l.4,-9.6l.5,9.1l.5,20.3l.5,-30.4l.4,5.6l.5,18l.5,4.8l.5,-24.7l.5,5.2l.4,19.5l.5,-13.4l.5,-17.9l.5,13.5l.4,-.2l.5,-4.6l.5,.7l.5,-5.2l.5,1l.4,16.9l.5,-22.6l.5,25.1l.5,-8.2l.4,-14.4l.5,12.4l.5,-.8l.5,-11.9l.4,4.3l1,-6l.5,-14.4l.5,27l.4,-1.6l.5,14.1l.5,-.8l.5,-17.5l.4,16.5l.5,-6.8l.5,14.7l.5,10.2l.5,-37.7l.4,11.4l.5,5.7l.5,-8.6l.5,9l.4,-11.4l.5,5.6l.5,-2.9l.5,12.6l.5,4.5l.4,-9.9l.5,-1.1l.5,3.9l.5,.6l.4,5.1l.5,.5l.5,-19.7l.5,7.6l.4,-1l.5,2l.5,-2.2l.5,3.3l.5,-16.7l.4,-6.4l.5,45.9l.5,-30.8l.5,16.7l.4,-7.8l.5,.6l.5,-12.3l.5,6.5l.5,-4.2l.4,2.5l.5,-13.4l.5,6.2l.5,2.6l.4,10.3l.5,-13.2l.5,-1.6l.5,.8l.4,-19.2l.5,10.4l.5,9.1l.5,5l.5,-9.1l.4,5l.5,11.7l.5,-9.5l.5,5.8l.4,15.4l.5,-17.9l.5,-1.9l.5,.5l.5,13.3l.4,-7.2l.5,8.1l.5,-3.9l.5,-1.4l.9,-7.8l.5,-2.2l.5,-1.2l.5,12.2l.4,1.8l.5,-9l.5,16.1l.5,-14.5l.4,9.5l.5,-13.4l.5,3.6l.5,9.1l.4,-11.9l.5,-5.2l.5,3.6l.5,-.2l.5,13l.4,-11.1l.5,5.8l.5,3.5l.5,-18.8l.4,-2.6l.5,-14.3l.5,26.7l.5,8.9l.5,-2.2l.4,-25.7l.5,15.8l.5,7.3l.5,-8.3l.4,-5.2l1,27.8l.5,-20l.5,6.5l.4,10.5l.5,-9.7l.5,4.1l.5,-13.9l.4,13.9l.5,-3.8l.5,-5.9l.5,-2.4l.4,6.4l.5,12.6l.5,-18l.5,-10.5l.5,23.6l.4,-21.3l.5,8.6l.5,7.4l.5,-9.5l.4,-5.9l.5,8.8l.5,18.8l.5,2.2l.5,-8.2l.4,-29.7l.5,18.5l.5,-11.8l.5,15.8l.4,-15.7l.5,-10.4l.5,19.2l.5,2.6l.5,-31.1l.4,37.7" class="g1_73" />
<path d="M210.5,406.6v-2.2" class="g2_73" />
<path d="M210.5,334.1v2.2" class="g2_73" />
<path d="M258.2,406.6v-2.2" class="g2_73" />
<path d="M258.2,334.1v2.2" class="g2_73" />
<path d="M306,406.6v-2.2" class="g2_73" />
<path d="M306,334.1v2.2" class="g2_73" />
<path d="M353.7,406.6v-2.2" class="g2_73" />
<path d="M353.7,334.1v2.2" class="g2_73" />
<path d="M401.5,406.6v-2.2" class="g2_73" />
<path d="M401.5,334.1v2.2" class="g2_73" />
<path d="M449.2,406.6v-2.2" class="g2_73" />
<path d="M449.2,334.1v2.2" class="g2_73" />
<path d="M210.5,406.6h2.1" class="g2_73" />
<path d="M449.2,406.6h-2.1" class="g2_73" />
<path d="M210.5,394.5h2.1" class="g2_73" />
<path d="M449.2,394.5h-2.1" class="g2_73" />
<path d="M210.5,382.4h2.1" class="g2_73" />
<path d="M449.2,382.4h-2.1" class="g2_73" />
<path d="M210.5,370.3h2.1" class="g2_73" />
<path d="M449.2,370.3h-2.1" class="g2_73" />
<path d="M210.5,358.3h2.1" class="g2_73" />
<path d="M449.2,358.3h-2.1" class="g2_73" />
<path d="M210.5,346.2h2.1" class="g2_73" />
<path d="M449.2,346.2h-2.1" class="g2_73" />
<path d="M210.5,334.1h2.1" class="g2_73" />
<path d="M449.2,334.1h-2.1" class="g2_73" />
<path d="M210.5,334.1H449.2m0,72.5V334.1M210.5,406.6H449.2m-238.7,0V334.1" class="g3_73" />
<path d="M210.5,493.5H449.2V421.1H210.5Z" class="g0_73" />
<path d="M210.5,479l.5,-9.2l.5,5.5l.4,4.3l.5,-2l.5,-11.3l.5,10.8l.4,-6.9l.5,-9.9l.5,6.3l.5,-1.1l.5,-3.8l.4,2.2l.5,9.4l.5,-8.3l.5,8.2l.4,-20.4l.5,17.8l.5,-10.8l.5,7.7l.5,-5.8L221,481l1,-21.4l.4,-7.8l.5,21l.5,-18.2l.5,17.3l.5,-17.9l.4,8.3l.5,1.7l.5,14.1l.5,-17l.4,5l.5,8.7l.5,-5.4l.5,2.7l.4,4.9l.5,-5.4l.5,7.2l.5,-8l.5,.1l.4,1.7l.5,-.7l.5,-2.4l.9,-25.3l.5,24.2l.5,5l.5,-15.1l.5,-6.7l.4,17.3l.5,-9.7l.5,21.3l.5,.3l.4,-11.8l.5,1.5l.5,-11.6l.5,21.4l.5,-10.2l.4,-24.3l.5,30.7l1,-13l.4,8.7l.5,11.4l.5,-7.4l.5,-5.8l.4,-16.4l.5,19.4l.5,-13.4l.5,4.5l.5,11.9l.4,-3l.5,-14l.5,14.1l.5,-8.7l.4,10.3l.5,-1.2l.5,-6.1l.5,1.7l.5,9.7l.4,-6.6l.5,-9.6l.5,3l.5,8.3l.4,-.2l.5,-.3l.5,-2.4l.5,-8.1l.4,-3.1l.5,14.3l.5,-.5l.5,-15.8l.5,10.4l.4,-19l.5,18.7l.5,-7.8l.5,-4.5l.4,16.1l.5,-1.4l.5,-15.4l.5,21.7l.5,-2.3l.4,-14.8l.5,7.2l.5,-24.2l.5,25.7l.4,2.6l.5,-10.6l.5,7.9l.5,5.2l.5,-9.8l.4,12.6l.5,-4.3l.5,-12.8l.5,14.6l.4,-4.2l.5,6.5l.5,-6.9l.9,-3.5l.5,5l.5,-8.7l1,16.2l.4,-4.1l.5,2.4l.5,-9.2l.5,5.3l.4,-4l.5,.1l.5,-19.7l1,18.9l.4,-3.3l.5,9.1l.5,-13.9l.5,23.4l.4,-18.2l.5,1.5l.5,11.7l.5,-14.2l.5,-2.4l.4,-8.1l.5,5.6l.5,13.9l.5,-18l.4,21.8l.5,-.7l.5,-27.1l.5,-8.5l.4,20.2l.5,6.2l.5,-.3l.5,.4l.5,-.3l.4,-26.6l.5,-2.1l.5,22.7l.5,-2.5l.4,9.2l.5,-6.9l.5,-4.3l.5,9.9l.5,3.7l.4,-1l.5,-9.7l.5,15.6l.5,-5.8l.4,17.2l.5,-33.1l.5,23.2l.5,-18.4l.5,3.6l.4,-29.5l.5,39.1l.5,-3.9l.5,-2.2l.4,10.7l.5,-1.1l.5,1.2l.5,-7l.4,-2.1l.5,-5.7l.5,15.6l.5,-14.3l.5,11.6l.4,-27.8l.5,18.3l.5,14.4l.5,-18.3l.4,10.8l.5,-14.6l.5,14.1l.5,6.7l.5,-21.8l.4,19l.5,-3.1l.5,-.6l.5,2.6l.4,6.9l.5,-3.7l.5,-6.9l.5,10.4l.5,-6.5l.4,1l.5,-14.3l.5,5.1l.5,8.8l.4,-3.1l.5,4.7l.5,-6.9l.5,-.6l.4,-15.2l.5,20l.5,8.4l.5,-5.8l.5,-8.7l.4,11.1l.5,-11.6l.5,13.4l.5,-24.3l.4,21.2l.5,1.4l.5,3.5l.5,-24.7l.5,-6.3l.4,21.8l.5,9l.5,-9.5l.5,-4l.4,-.4l.5,-17.1l.5,6.5l.5,17l.5,4.6l.4,-6.3l.5,8.2l.5,-8.6l.5,4l.4,-12.1l.5,4.7l.5,6l.5,4.2l.4,-17.8l.5,-1.3l.5,-8.7l.5,17.1l.5,1l.4,7.1l.5,-6.8l.5,-14.7l.5,24.3l.4,-3.8l.5,-9.3l.5,2.8l.5,11.1l.5,-.7l.4,-19.9l.5,5.5l.5,13.9l.5,-21.7l.4,-2.7l.5,23.7l.5,-14.4l.5,15.2l.4,-10.8l.5,.9l.5,-3.1l.5,8.7l.5,-4.1l.4,-5.5l1,10.2l.5,-5.8l.4,5.8l.5,-8.2l.5,7.8l.5,1l.5,-5.4l.4,3.8l.5,-21.1l.5,9.5l.5,13.8l.4,-3.5l.5,1.7L348,472l.5,-5.6l.5,-2.7l.4,-4.2l.5,17l.5,-7.2l.5,-31.4l.4,30.3l.5,4.6l.5,-6.3l.5,6.5l.4,-28l.5,29.8l.5,-8.8l.5,4.9l.5,1.1l.4,1.2l.5,-5.4l.5,-11.4l.5,17.6l.4,4.9L358,448l.5,13.1l.5,1.4l.5,1.8l.4,21.2l.5,-19.1l.5,-5.2l.5,16.3l.4,-2.8l1,-15.7l.5,1l.5,-2.5l.4,14.7l.5,-2.4l.5,-.7l.5,13.9l.4,-15.3l.5,.1l.5,2.3l.5,-4.5l.4,6l.5,1.8L369,472l.5,-13.9l.5,-20.6l.4,40.3l.5,-13.6l.5,-2.6l.5,19.1l.4,-1.9l.5,-7.1l.5,-1l.5,3.5l.5,8.8l.4,-31.3l.5,18.8l.5,-11.4l.9,19.5l.5,-11.6l.5,11.6l.5,-7.4l.5,-3.2l.4,3l.5,-15.8l.5,5l.5,15.5l.4,-5.6l.5,-1.7l.5,-4.6l.9,.1l.5,-10.1l.5,29l.5,-11.1l.5,-1.1l.4,-2.1l.5,-4l.5,7.4l.5,-2.2l.4,8.3l.5,-13.7l.5,5.5l.5,-24.8l.5,27.2l.4,10.4l.5,-18.5l.5,8.6l.5,-6l.4,-2.5l.5,8.4l.5,-1.3l.5,-7.8l.5,13.3l.4,-24.1l.5,26.7l.5,-5.6l.5,3.5l.4,-13.1l.5,-11.2l.5,17.7l.5,-2.2l.4,2.3l.5,6.2l.5,-13.4l.5,-9.2l.5,10.2l.4,12.5l.5,-20.9l.5,12.1l.5,-20.5l.4,29.4l.5,-17.5l.5,9l.5,1.7l.5,-.4l.4,4.4l.5,-7.2l.5,13.5l.9,-16.6l.5,12.8l.5,-3.3l.5,-13.4l.4,9.1l.5,-.4l.5,-21.9l.5,20.7l.5,10.4l.4,.3l.5,-1.5l.5,-11l.5,10.2l.4,-9.9l.5,7.5l.5,-8.5l.5,-14.2l.5,15.1l.4,-7.9l1,6.5l.5,-1.1l.4,18l.5,-9.2l.5,5.4l.5,-12.8l.5,6.2l.4,-12.4l.5,4.3l.5,2.9l.5,5.3l.4,-5.2l.5,-.2l.5,-9.5l.5,-5.5l.4,28.5l.5,-10.4l.5,7.9l.5,12.1l.5,-14.3l.4,-.8l.5,-13.3l.5,12.8l.5,1.7l.4,-28.9l1,25.7l.5,-2.6l.5,-11.4l.4,2.8l.5,3.9l.5,10.5l.5,-7.8l.4,-3.9L432,444l.5,23.1l.5,-19.6l.5,23.5l.4,3.8l.5,-5.6l.5,-23.7l.5,14.9l.4,11.8l.5,-4l.5,4.5l.5,-7l.4,8.7l.5,-.1l.5,-12.7l.5,-.1l.5,17.9l.4,-24.9l.5,20.1l.5,-9.5l.5,6l.4,-2.5l.5,-3.5l.5,-11.5l1,14.1l.4,2.7l.5,8.3l.5,-30.2l.5,19.4l.4,3.4l.5,-1l.5,-2.9l.5,-19l.5,4.6l.4,12.5" class="g1_73" />
<path d="M210.5,493.5v-2.1" class="g2_73" />
<path d="M210.5,421.1v2.1" class="g2_73" />
<path d="M258.2,493.5v-2.1" class="g2_73" />
<path d="M258.2,421.1v2.1" class="g2_73" />
<path d="M306,493.5v-2.1" class="g2_73" />
<path d="M306,421.1v2.1" class="g2_73" />
<path d="M353.7,493.5v-2.1" class="g2_73" />
<path d="M353.7,421.1v2.1" class="g2_73" />
<path d="M401.5,493.5v-2.1" class="g2_73" />
<path d="M401.5,421.1v2.1" class="g2_73" />
<path d="M449.2,493.5v-2.1" class="g2_73" />
<path d="M449.2,421.1v2.1" class="g2_73" />
<path d="M210.5,493.5h2.1" class="g2_73" />
<path d="M449.2,493.5h-2.1" class="g2_73" />
<path d="M210.5,481.5h2.1" class="g2_73" />
<path d="M449.2,481.5h-2.1" class="g2_73" />
<path d="M210.5,469.4h2.1" class="g2_73" />
<path d="M449.2,469.4h-2.1" class="g2_73" />
<path d="M210.5,457.3h2.1" class="g2_73" />
<path d="M449.2,457.3h-2.1" class="g2_73" />
<path d="M210.5,445.2h2.1" class="g2_73" />
<path d="M449.2,445.2h-2.1" class="g2_73" />
<path d="M210.5,433.2h2.1" class="g2_73" />
<path d="M449.2,433.2h-2.1" class="g2_73" />
<path d="M210.5,421.1h2.1" class="g2_73" />
<path d="M449.2,421.1h-2.1" class="g2_73" />
<path d="M210.5,421.1H449.2m0,72.4V421.1M210.5,493.5H449.2m-238.7,0V421.1" class="g3_73" />
<path d="M465.3,513.5H730.8V108.3H465.3Z" class="g0_73" />
<path d="M479.6,231.2H718.3V122.5H479.6Z" class="g0_73" />
<path d="M480.3,231.2h11.4v-1.4H480.3Z" class="g4_73" />
<path d="M491.7,231.2h11.4v-1.4H491.7Z" class="g4_73" />
<path d="M503.1,231.2h11.4v-4.1H503.1Z" class="g4_73" />
<path d="M514.5,231.2h11.4v-2.8H514.5Z" class="g4_73" />
<path d="M525.9,231.2h11.5V223H525.9Z" class="g4_73" />
<path d="M537.4,231.2h11.4V220.3H537.4Z" class="g4_73" />
<path d="M548.8,231.2h11.4V206.7H548.8Z" class="g4_73" />
<path d="M560.2,231.2h11.4V186.3H560.2Z" class="g4_73" />
<path d="M571.6,231.2h11.5v-53H571.6Z" class="g4_73" />
<path d="M583.1,231.2h11.4V149.6H583.1Z" class="g4_73" />
<path d="M594.5,231.2h11.4V133.3H594.5Z" class="g4_73" />
<path d="M605.9,231.2h11.4V127.9H605.9Z" class="g4_73" />
<path d="M617.3,231.2h11.4V137.4H617.3Z" class="g4_73" />
<path d="M628.7,231.2h11.5V164.6H628.7Z" class="g4_73" />
<path d="M640.2,231.2h11.4V193.1H640.2Z" class="g4_73" />
<path d="M651.6,231.2H663V206.7H651.6Z" class="g4_73" />
<path d="M663,231.2h11.4V220.3H663Z" class="g4_73" />
<path d="M674.4,231.2h11.4v-6.8H674.4Z" class="g4_73" />
<path d="M685.8,231.2h11.5v-4.1H685.8Z" class="g4_73" />
<path d="M697.3,231.2h11.4v-1.4H697.3Z" class="g4_73" />
<path d="M479.6,231.2V229" class="g2_73" />
<path d="M479.6,122.5v2.1" class="g2_73" />
<path d="M506.1,231.2V229" class="g2_73" />
<path d="M506.1,122.5v2.1" class="g2_73" />
<path d="M532.7,231.2V229" class="g2_73" />
<path d="M532.7,122.5v2.1" class="g2_73" />
<path d="M559.2,231.2V229" class="g2_73" />
<path d="M559.2,122.5v2.1" class="g2_73" />
<path d="M585.7,231.2V229" class="g2_73" />
<path d="M585.7,122.5v2.1" class="g2_73" />
<path d="M612.2,231.2V229" class="g2_73" />
<path d="M612.2,122.5v2.1" class="g2_73" />
<path d="M638.7,231.2V229" class="g2_73" />
<path d="M638.7,122.5v2.1" class="g2_73" />
<path d="M665.3,231.2V229" class="g2_73" />
<path d="M665.3,122.5v2.1" class="g2_73" />
<path d="M691.8,231.2V229" class="g2_73" />
<path d="M691.8,122.5v2.1" class="g2_73" />
<path d="M718.3,231.2V229" class="g2_73" />
<path d="M718.3,122.5v2.1" class="g2_73" />
<path d="M479.6,231.2h2.2" class="g2_73" />
<path d="M718.3,231.2h-2.1" class="g2_73" />
<path d="M479.6,217.6h2.2" class="g2_73" />
<path d="M718.3,217.6h-2.1" class="g2_73" />
<path d="M479.6,204h2.2" class="g2_73" />
<path d="M718.3,204h-2.1" class="g2_73" />
<path d="M479.6,190.4h2.2" class="g2_73" />
<path d="M718.3,190.4h-2.1" class="g2_73" />
<path d="M479.6,176.8h2.2" class="g2_73" />
<path d="M718.3,176.8h-2.1" class="g2_73" />
<path d="M479.6,163.2h2.2" class="g2_73" />
<path d="M718.3,163.2h-2.1" class="g2_73" />
<path d="M479.6,149.6h2.2" class="g2_73" />
<path d="M718.3,149.6h-2.1" class="g2_73" />
<path d="M479.6,136h2.2" class="g2_73" />
<path d="M718.3,136h-2.1" class="g2_73" />
<path d="M479.6,122.5h2.2" class="g2_73" />
<path d="M718.3,122.5h-2.1" class="g2_73" />
<path d="M479.6,122.5H718.3m0,108.7V122.5M479.6,231.2H718.3m-238.7,0V122.5" class="g3_73" />
<path d="M479.6,361.6H718.3V252.9H479.6Z" class="g0_73" />
<path d="M507,361.6h10.4v-6.2H507Z" class="g4_73" />
<path d="M517.4,361.6h10.5V357H517.4Z" class="g4_73" />
<path d="M527.9,361.6h10.4V346.1H527.9Z" class="g4_73" />
<path d="M538.3,361.6h10.4V335.2H538.3Z" class="g4_73" />
<path d="M548.7,361.6h10.4V325.9H548.7Z" class="g4_73" />
<path d="M559.1,361.6h10.4V310.4H559.1Z" class="g4_73" />
<path d="M569.5,361.6h10.4V282.4H569.5Z" class="g4_73" />
<path d="M579.9,361.6h10.4V270H579.9Z" class="g4_73" />
<path d="M590.3,361.6h10.5V270H590.3Z" class="g4_73" />
<path d="M600.8,361.6h10.4V263.8H600.8Z" class="g4_73" />
<path d="M611.2,361.6h10.4V285.5H611.2Z" class="g4_73" />
<path d="M621.6,361.6H632V301H621.6Z" class="g4_73" />
<path d="M632,361.6h10.4V315H632Z" class="g4_73" />
<path d="M642.4,361.6h10.4v-45H642.4Z" class="g4_73" />
<path d="M652.8,361.6h10.4V346.1H652.8Z" class="g4_73" />
<path d="M663.2,361.6h10.5V349.2H663.2Z" class="g4_73" />
<path d="M673.7,361.6h10.4V357H673.7Z" class="g4_73" />
<path d="M684.1,361.6h10.4V350.7H684.1Z" class="g4_73" />
<path d="M694.5,361.6h10.4v-1.5H694.5Z" class="g4_73" />
<path d="M704.9,361.6h10.4v-3.1H704.9Z" class="g4_73" />
<path d="M479.6,361.6v-2.1" class="g2_73" />
<path d="M479.6,252.9V255" class="g2_73" />
<path d="M519.4,361.6v-2.1" class="g2_73" />
<path d="M519.4,252.9V255" class="g2_73" />
<path d="M559.2,361.6v-2.1" class="g2_73" />
<path d="M559.2,252.9V255" class="g2_73" />
<path d="M599,361.6v-2.1" class="g2_73" />
<path d="M599,252.9V255" class="g2_73" />
<path d="M638.7,361.6v-2.1" class="g2_73" />
<path d="M638.7,252.9V255" class="g2_73" />
<path d="M678.5,361.6v-2.1" class="g2_73" />
<path d="M678.5,252.9V255" class="g2_73" />
<path d="M718.3,361.6v-2.1" class="g2_73" />
<path d="M718.3,252.9V255" class="g2_73" />
<path d="M479.6,361.6h2.2" class="g2_73" />
<path d="M718.3,361.6h-2.1" class="g2_73" />
<path d="M479.6,346.1h2.2" class="g2_73" />
<path d="M718.3,346.1h-2.1" class="g2_73" />
<path d="M479.6,330.6h2.2" class="g2_73" />
<path d="M718.3,330.6h-2.1" class="g2_73" />
<path d="M479.6,315h2.2" class="g2_73" />
<path d="M718.3,315h-2.1" class="g2_73" />
<path d="M479.6,299.5h2.2" class="g2_73" />
<path d="M718.3,299.5h-2.1" class="g2_73" />
<path d="M479.6,284h2.2" class="g2_73" />
<path d="M718.3,284h-2.1" class="g2_73" />
<path d="M479.6,268.4h2.2" class="g2_73" />
<path d="M718.3,268.4h-2.1" class="g2_73" />
<path d="M479.6,252.9h2.2" class="g2_73" />
<path d="M718.3,252.9h-2.1" class="g2_73" />
<path d="M479.6,252.9H718.3m0,108.7V252.9M479.6,361.6H718.3m-238.7,0V252.9" class="g3_73" />
<path d="M479.6,492.1H718.3V383.4H479.6Z" class="g0_73" />
<path d="M494.5,492.1h9.4v-2.8h-9.4Z" class="g4_73" />
<path d="M503.9,492.1h9.4V488h-9.4Z" class="g4_73" />
<path d="M513.3,492.1h9.4V473h-9.4Z" class="g4_73" />
<path d="M522.7,492.1H532V444.5h-9.3Z" class="g4_73" />
<path d="M532,492.1h9.4V426.8H532Z" class="g4_73" />
<path d="M541.4,492.1h9.4V394.2h-9.4Z" class="g4_73" />
<path d="M550.8,492.1h9.3V391.5h-9.3Z" class="g4_73" />
<path d="M560.1,492.1h9.4V401h-9.4Z" class="g4_73" />
<path d="M569.5,492.1h9.4V417.3h-9.4Z" class="g4_73" />
<path d="M578.9,492.1h9.4V452.7h-9.4Z" class="g4_73" />
<path d="M588.3,492.1h9.3v-49h-9.3Z" class="g4_73" />
<path d="M597.6,492.1H607V470.3h-9.4Z" class="g4_73" />
<path d="M607,492.1h9.4V469H607Z" class="g4_73" />
<path d="M616.4,492.1h9.4v-15h-9.4Z" class="g4_73" />
<path d="M625.8,492.1h9.3v-8.2h-9.3Z" class="g4_73" />
<path d="M635.1,492.1h9.4V481.2h-9.4Z" class="g4_73" />
<path d="M644.5,492.1h9.4v-2.8h-9.4Z" class="g4_73" />
<path d="M653.9,492.1h9.4V488h-9.4Z" class="g4_73" />
<path d="M663.3,492.1h9.3v-1.4h-9.3Z" class="g4_73" />
<path d="M672.6,492.1H682v-1.4h-9.4Z" class="g4_73" />
<path d="M479.6,492.1v-2.2" class="g2_73" />
<path d="M479.6,383.4v2.1" class="g2_73" />
<path d="M519.4,492.1v-2.2" class="g2_73" />
<path d="M519.4,383.4v2.1" class="g2_73" />
<path d="M559.2,492.1v-2.2" class="g2_73" />
<path d="M559.2,383.4v2.1" class="g2_73" />
<path d="M599,492.1v-2.2" class="g2_73" />
<path d="M599,383.4v2.1" class="g2_73" />
<path d="M638.7,492.1v-2.2" class="g2_73" />
<path d="M638.7,383.4v2.1" class="g2_73" />
<path d="M678.5,492.1v-2.2" class="g2_73" />
<path d="M678.5,383.4v2.1" class="g2_73" />
<path d="M718.3,492.1v-2.2" class="g2_73" />
<path d="M718.3,383.4v2.1" class="g2_73" />
<path d="M479.6,492.1h2.2" class="g2_73" />
<path d="M718.3,492.1h-2.1" class="g2_73" />
<path d="M479.6,478.5h2.2" class="g2_73" />
<path d="M718.3,478.5h-2.1" class="g2_73" />
<path d="M479.6,464.9h2.2" class="g2_73" />
<path d="M718.3,464.9h-2.1" class="g2_73" />
<path d="M479.6,451.3h2.2" class="g2_73" />
<path d="M718.3,451.3h-2.1" class="g2_73" />
<path d="M479.6,437.7h2.2" class="g2_73" />
<path d="M718.3,437.7h-2.1" class="g2_73" />
<path d="M479.6,424.1h2.2" class="g2_73" />
<path d="M718.3,424.1h-2.1" class="g2_73" />
<path d="M479.6,410.5h2.2" class="g2_73" />
<path d="M718.3,410.5h-2.1" class="g2_73" />
<path d="M479.6,396.9h2.2" class="g2_73" />
<path d="M718.3,396.9h-2.1" class="g2_73" />
<path d="M479.6,383.4h2.2" class="g2_73" />
<path d="M718.3,383.4h-2.1" class="g2_73" />
<path d="M479.6,383.4H718.3m0,108.7V383.4M479.6,492.1H718.3m-238.7,0V383.4" class="g3_73" />
<path d="M300.7,746.1h308v-231h-308Z" class="g0_73" />
<path d="M339.2,723H577.9V538.2H339.2Z" class="g0_73" />
<path d="M339.2,723v-2.2" class="g2_73" />
<path d="M339.2,538.2v2.1" class="g2_73" />
<path d="M365.7,723v-2.2" class="g2_73" />
<path d="M365.7,538.2v2.1" class="g2_73" />
<path d="M392.3,723v-2.2" class="g2_73" />
<path d="M392.3,538.2v2.1" class="g2_73" />
<path d="M418.8,723v-2.2" class="g2_73" />
<path d="M418.8,538.2v2.1" class="g2_73" />
<path d="M445.3,723v-2.2" class="g2_73" />
<path d="M445.3,538.2v2.1" class="g2_73" />
<path d="M471.8,723v-2.2" class="g2_73" />
<path d="M471.8,538.2v2.1" class="g2_73" />
<path d="M498.4,723v-2.2" class="g2_73" />
<path d="M498.4,538.2v2.1" class="g2_73" />
<path d="M524.9,723v-2.2" class="g2_73" />
<path d="M524.9,538.2v2.1" class="g2_73" />
<path d="M551.4,723v-2.2" class="g2_73" />
<path d="M551.4,538.2v2.1" class="g2_73" />
<path d="M577.9,723v-2.2" class="g2_73" />
<path d="M577.9,538.2v2.1" class="g2_73" />
<path d="M339.2,723h2.2" class="g2_73" />
<path d="M577.9,723h-2.1" class="g2_73" />
<path d="M339.2,692.2h2.2" class="g2_73" />
<path d="M577.9,692.2h-2.1" class="g2_73" />
<path d="M339.2,661.4h2.2" class="g2_73" />
<path d="M577.9,661.4h-2.1" class="g2_73" />
<path d="M339.2,630.6h2.2" class="g2_73" />
<path d="M577.9,630.6h-2.1" class="g2_73" />
<path d="M339.2,599.8h2.2" class="g2_73" />
<path d="M577.9,599.8h-2.1" class="g2_73" />
<path d="M339.2,569h2.2" class="g2_73" />
<path d="M577.9,569h-2.1" class="g2_73" />
<path d="M339.2,538.2h2.2" class="g2_73" />
<path d="M577.9,538.2h-2.1" class="g2_73" />
<path d="M339.2,538.2H577.9m0,184.8V538.2M339.2,723H577.9m-238.7,0V538.2" class="g3_73" />
</svg>