<?xml version="1.0" encoding="UTF-8" standalone="no"?>
<!DOCTYPE svg PUBLIC "-//W3C//DTD SVG 1.1//EN"
"http://www.w3.org/Graphics/SVG/1.1/DTD/svg11.dtd">
<svg viewBox="0 0 909 1286" version="1.1" xmlns="http://www.w3.org/2000/svg" xmlns:xlink="http://www.w3.org/1999/xlink">
<defs>
<style type="text/css"><![CDATA[
.g0_25{
fill: none;
stroke: #000000;
stroke-width: 0.6080556;
stroke-linecap: butt;
stroke-linejoin: miter;
}
]]></style>
</defs>
<path d="M137.5,108.6H772M137.5,130.9v-22m159.2,22v-22m67.9,22v-22m112.3,22v-22m192.2,22v-22m102.9,22v-22M137.5,153V130.9M296.7,153V130.9M364.6,153V130.9M476.9,153V130.9M669.1,153V130.9M772,153V130.9M137.5,153.3H772M137.5,175.7V153.6m159.2,22.1V153.6m67.9,22.1V153.6m112.3,22.1V153.6m192.2,22.1V153.6M772,175.7V153.6M137.5,197.8V175.7m159.2,22.1V175.7m67.9,22.1V175.7m112.3,22.1V175.7m192.2,22.1V175.7M772,197.8V175.7M137.5,219.8v-22m159.2,22v-22m67.9,22v-22m112.3,22v-22m192.2,22v-22m102.9,22v-22M137.5,241.9V219.8m159.2,22.1V219.8m67.9,22.1V219.8m112.3,22.1V219.8m192.2,22.1V219.8M772,241.9V219.8M137.5,264V241.9M296.7,264V241.9M364.6,264V241.9M476.9,264V241.9M669.1,264V241.9M772,264V241.9M137.5,286V264m159.2,22V264m67.9,22V264m112.3,22V264m192.2,22V264M772,286V264M137.5,308.1V286m159.2,22.1V286m67.9,22.1V286m112.3,22.1V286m192.2,22.1V286M772,308.1V286M137.5,330.2V308.1m159.2,22.1V308.1m67.9,22.1V308.1m112.3,22.1V308.1m192.2,22.1V308.1M772,330.2V308.1M137.5,352.3V330.2m159.2,22.1V330.2m67.9,22.1V330.2m112.3,22.1V330.2m192.2,22.1V330.2M772,352.3V330.2M137.5,374.3v-22m159.2,22v-22m67.9,22v-22m112.3,22v-22m192.2,22v-22m102.9,22v-22M137.5,396.4V374.3m159.2,22.1V374.3m67.9,22.1V374.3m112.3,22.1V374.3m192.2,22.1V374.3M772,396.4V374.3M137.5,396.7H772M137.5,419.1V397m159.2,22.1V397m67.9,22.1V397m112.3,22.1V397m192.2,22.1V397M772,419.1V397M137.5,419.4H772" class="g0_25" />
</svg>