<?xml version="1.0" encoding="UTF-8" standalone="no"?>
<!DOCTYPE svg PUBLIC "-//W3C//DTD SVG 1.1//EN"
"http://www.w3.org/Graphics/SVG/1.1/DTD/svg11.dtd">
<svg viewBox="0 0 909 1286" version="1.1" xmlns="http://www.w3.org/2000/svg" xmlns:xlink="http://www.w3.org/1999/xlink">
<defs>
<style type="text/css"><![CDATA[
.g0_26{
fill: #FFFFFF;
}
.g1_26{
fill: #0000FF;
fill-opacity: 0.5;
stroke: #000000;
stroke-width: 0.68750006;
stroke-linecap: butt;
stroke-linejoin: round;
stroke-opacity: 0.5;
}
.g2_26{
stroke: #000000;
stroke-width: 0.34375003;
stroke-linecap: butt;
stroke-linejoin: round;
}
.g3_26{
fill: none;
stroke: #000000;
stroke-width: 0.68750006;
stroke-linecap: butt;
stroke-linejoin: round;
}
]]></style>
</defs>
<path d="M285.3,484H628.8V198.3H285.3Z" class="g0_26" />
<path d="M316.9,453.4H623.8V215.8H316.9Z" class="g0_26" />
<path d="M348.3,453.4H351V450h-2.7Z" class="g1_26" />
<path d="M351,453.4h2.8H351Z" class="g1_26" />
<path d="M353.8,453.4h2.7h-2.7Z" class="g1_26" />
<path d="M356.5,453.4h2.7h-2.7Z" class="g1_26" />
<path d="M359.2,453.4h2.7h-2.7Z" class="g1_26" />
<path d="M361.9,453.4h2.8v-6.8h-2.8Z" class="g1_26" />
<path d="M364.7,453.4h2.7h-2.7Z" class="g1_26" />
<path d="M367.4,453.4h2.7h-2.7Z" class="g1_26" />
<path d="M370.1,453.4h2.8h-2.8Z" class="g1_26" />
<path d="M372.9,453.4h2.7h-2.7Z" class="g1_26" />
<path d="M375.6,453.4h2.7h-2.7Z" class="g1_26" />
<path d="M378.3,453.4H381V450h-2.7Z" class="g1_26" />
<path d="M381,453.4h2.8H381Z" class="g1_26" />
<path d="M383.8,453.4h2.7v-6.8h-2.7Z" class="g1_26" />
<path d="M386.5,453.4h2.7h-2.7Z" class="g1_26" />
<path d="M389.2,453.4H392v-6.8h-2.8Z" class="g1_26" />
<path d="M392,453.4h2.7H392Z" class="g1_26" />
<path d="M394.7,453.4h2.7h-2.7Z" class="g1_26" />
<path d="M397.4,453.4h2.7V450h-2.7Z" class="g1_26" />
<path d="M400.1,453.4h2.8V443.2h-2.8Z" class="g1_26" />
<path d="M402.9,453.4h2.7V443.2h-2.7Z" class="g1_26" />
<path d="M405.6,453.4h2.7V429.6h-2.7Z" class="g1_26" />
<path d="M408.3,453.4h2.8V450h-2.8Z" class="g1_26" />
<path d="M411.1,453.4h2.7V409.3h-2.7Z" class="g1_26" />
<path d="M413.8,453.4h2.7V422.8h-2.7Z" class="g1_26" />
<path d="M416.5,453.4h2.7V405.9h-2.7Z" class="g1_26" />
<path d="M419.2,453.4H422V429.6h-2.8Z" class="g1_26" />
<path d="M422,453.4h2.7V409.3H422Z" class="g1_26" />
<path d="M424.7,453.4h2.7V395.7h-2.7Z" class="g1_26" />
<path d="M427.4,453.4h2.8V402.5h-2.8Z" class="g1_26" />
<path d="M430.2,453.4h2.7V402.5h-2.7Z" class="g1_26" />
<path d="M432.9,453.4h2.7V368.5h-2.7Z" class="g1_26" />
<path d="M435.6,453.4h2.7V344.8h-2.7Z" class="g1_26" />
<path d="M438.3,453.4h2.8V334.6h-2.8Z" class="g1_26" />
<path d="M441.1,453.4h2.7V375.3h-2.7Z" class="g1_26" />
<path d="M443.8,453.4h2.7V348.2h-2.7Z" class="g1_26" />
<path d="M446.5,453.4h2.8V365.1h-2.8Z" class="g1_26" />
<path d="M449.3,453.4H452V348.2h-2.7Z" class="g1_26" />
<path d="M452,453.4h2.7V351.6H452Z" class="g1_26" />
<path d="M454.7,453.4h2.7v-112h-2.7Z" class="g1_26" />
<path d="M457.4,453.4h2.8V317.6h-2.8Z" class="g1_26" />
<path d="M460.2,453.4h2.7V310.8h-2.7Z" class="g1_26" />
<path d="M462.9,453.4h2.7V338h-2.7Z" class="g1_26" />
<path d="M465.6,453.4h2.8V327.8h-2.8Z" class="g1_26" />
<path d="M468.4,453.4h2.7v-129h-2.7Z" class="g1_26" />
<path d="M471.1,453.4h2.7V321h-2.7Z" class="g1_26" />
<path d="M473.8,453.4h2.7V280.3h-2.7Z" class="g1_26" />
<path d="M476.5,453.4h2.8V266.7h-2.8Z" class="g1_26" />
<path d="M479.3,453.4H482V239.6h-2.7Z" class="g1_26" />
<path d="M482,453.4h2.7V283.7H482Z" class="g1_26" />
<path d="M484.7,453.4h2.7V317.6h-2.7Z" class="g1_26" />
<path d="M487.4,453.4h2.8V263.3h-2.8Z" class="g1_26" />
<path d="M490.2,453.4h2.7V280.3h-2.7Z" class="g1_26" />
<path d="M492.9,453.4h2.7V266.7h-2.7Z" class="g1_26" />
<path d="M495.6,453.4h2.8V253.1h-2.8Z" class="g1_26" />
<path d="M498.4,453.4h2.7V280.3h-2.7Z" class="g1_26" />
<path d="M501.1,453.4h2.7V259.9h-2.7Z" class="g1_26" />
<path d="M503.8,453.4h2.7V290.5h-2.7Z" class="g1_26" />
<path d="M506.5,453.4h2.8V270.1h-2.8Z" class="g1_26" />
<path d="M509.3,453.4H512V266.7h-2.7Z" class="g1_26" />
<path d="M512,453.4h2.7V290.5H512Z" class="g1_26" />
<path d="M514.7,453.4h2.8V321h-2.8Z" class="g1_26" />
<path d="M517.5,453.4h2.7V314.2h-2.7Z" class="g1_26" />
<path d="M520.2,453.4h2.7V290.5h-2.7Z" class="g1_26" />
<path d="M522.9,453.4h2.7V344.8h-2.7Z" class="g1_26" />
<path d="M525.6,453.4h2.8V331.2h-2.8Z" class="g1_26" />
<path d="M528.4,453.4h2.7V355h-2.7Z" class="g1_26" />
<path d="M531.1,453.4h2.7V351.6h-2.7Z" class="g1_26" />
<path d="M533.8,453.4h2.8V368.5h-2.8Z" class="g1_26" />
<path d="M536.6,453.4h2.7V388.9h-2.7Z" class="g1_26" />
<path d="M539.3,453.4H542v-112h-2.7Z" class="g1_26" />
<path d="M542,453.4h2.7V385.5H542Z" class="g1_26" />
<path d="M544.7,453.4h2.8V409.3h-2.8Z" class="g1_26" />
<path d="M547.5,453.4h2.7V405.9h-2.7Z" class="g1_26" />
<path d="M550.2,453.4h2.7V402.5h-2.7Z" class="g1_26" />
<path d="M552.9,453.4h2.8V395.7h-2.8Z" class="g1_26" />
<path d="M555.7,453.4h2.7V419.5h-2.7Z" class="g1_26" />
<path d="M558.4,453.4h2.7V422.8h-2.7Z" class="g1_26" />
<path d="M561.1,453.4h2.7v-17h-2.7Z" class="g1_26" />
<path d="M563.8,453.4h2.8v-17h-2.8Z" class="g1_26" />
<path d="M566.6,453.4h2.7V422.8h-2.7Z" class="g1_26" />
<path d="M569.3,453.4H572V426.2h-2.7Z" class="g1_26" />
<path d="M572,453.4h2.8V429.6H572Z" class="g1_26" />
<path d="M574.8,453.4h2.7v-6.8h-2.7Z" class="g1_26" />
<path d="M577.5,453.4h2.7h-2.7Z" class="g1_26" />
<path d="M580.2,453.4h2.7V443.2h-2.7Z" class="g1_26" />
<path d="M582.9,453.4h2.8V443.2h-2.8Z" class="g1_26" />
<path d="M585.7,453.4h2.7h-2.7Z" class="g1_26" />
<path d="M588.4,453.4h2.7V443.2h-2.7Z" class="g1_26" />
<path d="M591.1,453.4h2.8v-6.8h-2.8Z" class="g1_26" />
<path d="M593.9,453.4h2.7V443.2h-2.7Z" class="g1_26" />
<path d="M596.6,453.4h2.7h-2.7Z" class="g1_26" />
<path d="M599.3,453.4H602V450h-2.7Z" class="g1_26" />
<path d="M602,453.4h2.8V450H602Z" class="g1_26" />
<path d="M604.8,453.4h2.7h-2.7Z" class="g1_26" />
<path d="M607.5,453.4h2.7v-6.8h-2.7Z" class="g1_26" />
<path d="M610.2,453.4H613h-2.8Z" class="g1_26" />
<path d="M613,453.4h2.7H613Z" class="g1_26" />
<path d="M615.7,453.4h2.7h-2.7Z" class="g1_26" />
<path d="M618.4,453.4h2.7V450h-2.7Z" class="g1_26" />
<path d="M316.9,453.4v-2.8" class="g2_26" />
<path d="M316.9,215.8v2.7" class="g2_26" />
<path d="M385.1,453.4v-2.8" class="g2_26" />
<path d="M385.1,215.8v2.7" class="g2_26" />
<path d="M453.3,453.4v-2.8" class="g2_26" />
<path d="M453.3,215.8v2.7" class="g2_26" />
<path d="M521.5,453.4v-2.8" class="g2_26" />
<path d="M521.5,215.8v2.7" class="g2_26" />
<path d="M589.7,453.4v-2.8" class="g2_26" />
<path d="M589.7,215.8v2.7" class="g2_26" />
<path d="M316.9,453.4h2.8" class="g2_26" />
<path d="M623.8,453.4h-2.7" class="g2_26" />
<path d="M316.9,419.5h2.8" class="g2_26" />
<path d="M623.8,419.5h-2.7" class="g2_26" />
<path d="M316.9,385.5h2.8" class="g2_26" />
<path d="M623.8,385.5h-2.7" class="g2_26" />
<path d="M316.9,351.6h2.8" class="g2_26" />
<path d="M623.8,351.6h-2.7" class="g2_26" />
<path d="M316.9,317.6h2.8" class="g2_26" />
<path d="M623.8,317.6h-2.7" class="g2_26" />
<path d="M316.9,283.7h2.8" class="g2_26" />
<path d="M623.8,283.7h-2.7" class="g2_26" />
<path d="M316.9,249.7h2.8" class="g2_26" />
<path d="M623.8,249.7h-2.7" class="g2_26" />
<path d="M316.9,215.8h2.8" class="g2_26" />
<path d="M623.8,215.8h-2.7" class="g2_26" />
<path d="M316.9,215.8H623.8m0,237.6V215.8M316.9,453.4H623.8m-306.9,0V215.8" class="g3_26" />
<path d="M283.8,836.2H630.3v-278H283.8Z" class="g0_26" />
<path d="M318.4,805.6H625.3V568H318.4Z" class="g0_26" />
<path d="M318.4,805.6v-2.7" class="g2_26" />
<path d="M318.4,568v2.8" class="g2_26" />
<path d="M386.6,805.6v-2.7" class="g2_26" />
<path d="M386.6,568v2.8" class="g2_26" />
<path d="M454.8,805.6v-2.7" class="g2_26" />
<path d="M454.8,568v2.8" class="g2_26" />
<path d="M523,805.6v-2.7" class="g2_26" />
<path d="M523,568v2.8" class="g2_26" />
<path d="M591.2,805.6v-2.7" class="g2_26" />
<path d="M591.2,568v2.8" class="g2_26" />
<path d="M318.4,805.6h2.8" class="g2_26" />
<path d="M625.3,805.6h-2.7" class="g2_26" />
<path d="M318.4,746.2h2.8" class="g2_26" />
<path d="M625.3,746.2h-2.7" class="g2_26" />
<path d="M318.4,686.8h2.8" class="g2_26" />
<path d="M625.3,686.8h-2.7" class="g2_26" />
<path d="M318.4,627.4h2.8" class="g2_26" />
<path d="M625.3,627.4h-2.7" class="g2_26" />
<path d="M318.4,568h2.8" class="g2_26" />
<path d="M625.3,568h-2.7" class="g2_26" />
<path d="M318.4,568H625.3m0,237.6V568M318.4,805.6H625.3m-306.9,0V568" class="g3_26" />
</svg>