<?xml version="1.0" encoding="UTF-8" standalone="no"?>
<!DOCTYPE svg PUBLIC "-//W3C//DTD SVG 1.1//EN"
"http://www.w3.org/Graphics/SVG/1.1/DTD/svg11.dtd">
<svg viewBox="0 0 909 1286" version="1.1" xmlns="http://www.w3.org/2000/svg" xmlns:xlink="http://www.w3.org/1999/xlink">
<defs>
<style type="text/css"><![CDATA[
.g0_37{
fill: #FFFFFF;
}
.g1_37{
fill: none;
stroke: #000000;
stroke-width: 1.8333334;
stroke-linecap: square;
stroke-linejoin: round;
}
.g2_37{
stroke: #000000;
stroke-width: 0.45833334;
stroke-linecap: butt;
stroke-linejoin: round;
}
.g3_37{
fill: none;
stroke: #000000;
stroke-width: 0.9166667;
stroke-linecap: square;
stroke-linejoin: round;
}
.g4_37{
fill: none;
stroke: #000000;
stroke-width: 0.6080556;
stroke-linecap: butt;
stroke-linejoin: miter;
}
]]></style>
</defs>
<path d="M220.2,470.6H689.3V108.3H220.2Z" class="g0_37" />
<path d="M266.3,436.4H675.5V119.6H266.3Z" class="g0_37" />
<path d="M266.3,436.4l122.4,-.1h.4l.4,-31.5l5.7,-.2l4.1,-.3l2.9,-.5l2.4,-.5l2.1,-.6l2,-.9l2.1,-1l1.6,-1.1l1.6,-1.4l1.7,-1.6l1.6,-1.9l.4,30.9l1.6,-2.5l1.7,-2.8l1.6,-3.4l1.7,-4l1.6,-4.6l1.6,-5.3l1.7,-6l1.6,-6.8l1.6,-7.6l1.7,-8.5l2,-11.9L438.2,349l2,-14.7l2.5,-19.2l2.8,-24.5l3.7,-33.5l6.2,-56.3l2.4,-20.6l2.1,-15.6l1.6,-11.1l1.6,-9.6l1.3,-6.2l1.2,-5.3l1.2,-4.2l.8,-2.2l.9,-1.8l.8,-1.2l.8,-.8l.4,-.2h.4l.4,62.9l.4,.2l.8,.8l.9,1.2l.8,1.8l.8,2.2l.8,2.7l1.2,4.9l1.3,5.9l1.2,6.8l1.6,10.4l1.7,11.7l2,16.3l2.5,21.2l3.7,33.7l5.3,48.8l2.8,24.4l.5,-59.5l2.4,18.9l2.1,14.4l2,13l2,11.6l1.7,8.3l1.6,7.4l1.7,6.5l1.6,5.8l1.6,4.9l1.7,4.3l1.6,3.5l1.2,2.3l1.3,1.9l1.2,1.5l1.2,1.3l1.2,.9l1.3,.6l1.2,.4h1.2l1.2,-.2l1.3,-.4l1.2,-.8l1.2,-.9L536,422l1.6,-1.9l2.1,-2.6l6.1,-8.3l1.6,-1.7l1.3,-1.1l1.2,-.8l1.2,-.5l1.2,-.3l.9,.1l1.2,.2l1.2,.6l1.2,.9l1.3,1.1l1.6,1.9l1.6,2.2l2.5,3.6l5.3,8.1l2.1,2.7l2,2.3l1.6,1.7l1.7,1.3l1.6,1.2l1.7,.9l2,.9l2,.6l2.5,.5l2.9,.4l3.6,.2l5.8,.1l15.1,.1h61.8" class="g1_37" />
<path d="M266.3,436.4v-3.7" class="g2_37" />
<path d="M266.3,119.6v3.6" class="g2_37" />
<path d="M348.1,436.4v-3.7" class="g2_37" />
<path d="M348.1,119.6v3.6" class="g2_37" />
<path d="M430,436.4v-3.7" class="g2_37" />
<path d="M430,119.6v3.6" class="g2_37" />
<path d="M511.8,436.4v-3.7" class="g2_37" />
<path d="M511.8,119.6v3.6" class="g2_37" />
<path d="M593.7,436.4v-3.7" class="g2_37" />
<path d="M593.7,119.6v3.6" class="g2_37" />
<path d="M675.5,436.4v-3.7" class="g2_37" />
<path d="M675.5,119.6v3.6" class="g2_37" />
<path d="M266.3,436.4H270" class="g2_37" />
<path d="M675.5,436.4h-3.7" class="g2_37" />
<path d="M266.3,396.8H270" class="g2_37" />
<path d="M675.5,396.8h-3.7" class="g2_37" />
<path d="M266.3,357.2H270" class="g2_37" />
<path d="M675.5,357.2h-3.7" class="g2_37" />
<path d="M266.3,317.6H270" class="g2_37" />
<path d="M675.5,317.6h-3.7" class="g2_37" />
<path d="M266.3,278H270" class="g2_37" />
<path d="M675.5,278h-3.7" class="g2_37" />
<path d="M266.3,238.4H270" class="g2_37" />
<path d="M675.5,238.4h-3.7" class="g2_37" />
<path d="M266.3,198.8H270" class="g2_37" />
<path d="M675.5,198.8h-3.7" class="g2_37" />
<path d="M266.3,159.2H270" class="g2_37" />
<path d="M675.5,159.2h-3.7" class="g2_37" />
<path d="M266.3,119.6H270" class="g2_37" />
<path d="M675.5,119.6h-3.7" class="g2_37" />
<path d="M266.3,119.6H675.5m0,316.8V119.6M266.3,436.4H675.5m-409.2,0V119.6" class="g3_37" />
<path d="M108.3,595.5H801.2M108.6,728V595.5M800.9,728V595.5M108.3,728H801.2" class="g4_37" />
</svg>