<?xml version="1.0" encoding="UTF-8" standalone="no"?>
<!DOCTYPE svg PUBLIC "-//W3C//DTD SVG 1.1//EN"
"http://www.w3.org/Graphics/SVG/1.1/DTD/svg11.dtd">
<svg viewBox="0 0 909 1286" version="1.1" xmlns="http://www.w3.org/2000/svg" xmlns:xlink="http://www.w3.org/1999/xlink">
<defs>
<style type="text/css"><![CDATA[
.g0_24{
fill: none;
stroke: #000000;
stroke-width: 0.7302778;
stroke-linecap: butt;
stroke-linejoin: miter;
}
.g1_24{
fill: #FFFFFF;
}
.g2_24{
fill: none;
stroke: #0000FF;
stroke-width: 0.9166667;
stroke-linecap: square;
stroke-linejoin: round;
}
.g3_24{
fill: #0000FF;
stroke: #000000;
stroke-width: 0.45833334;
stroke-linecap: butt;
stroke-linejoin: round;
}
.g4_24{
fill: none;
stroke: #FF0000;
stroke-width: 0.9166667;
stroke-linecap: square;
stroke-linejoin: round;
}
.g5_24{
fill: #FF0000;
stroke: #000000;
stroke-width: 0.45833334;
stroke-linecap: butt;
stroke-linejoin: round;
}
.g6_24{
fill: none;
stroke: #008000;
stroke-width: 0.9166667;
stroke-linecap: square;
stroke-linejoin: round;
}
.g7_24{
fill: #008000;
stroke: #000000;
stroke-width: 0.45833334;
stroke-linecap: butt;
stroke-linejoin: round;
}
.g8_24{
stroke: #000000;
stroke-width: 0.45833334;
stroke-linecap: butt;
stroke-linejoin: round;
}
.g9_24{
fill: none;
stroke: #000000;
stroke-width: 0.9166667;
stroke-linecap: square;
stroke-linejoin: round;
}
.g10_24{
fill: #FFFFFF;
stroke: #000000;
stroke-width: 0.9166667;
stroke-linecap: square;
stroke-linejoin: round;
}
]]></style>
</defs>
<path d="M244,130.3h53.5" class="g0_24" />
<path d="M223.8,726.9H685.7V369.1H223.8Z" class="g1_24" />
<path d="M269.9,692.5H679.1V375.7H269.9Z" class="g1_24" />
<path d="M304,615.2l68.2,-55.3l68.2,14.8l68.2,50.9l68.2,29.9L645,663" class="g2_24" />
<path d="M304,619.8c1.2,0,2.4,-.5,3.2,-1.3c.9,-.9,1.4,-2,1.4,-3.3c0,-1.2,-.5,-2.3,-1.4,-3.2c-.8,-.9,-2,-1.3,-3.2,-1.3c-1.2,0,-2.4,.4,-3.3,1.3c-.8,.9,-1.3,2,-1.3,3.2c0,1.3,.5,2.4,1.3,3.3c.9,.8,2.1,1.3,3.3,1.3Z" class="g3_24" />
<path d="M372.2,564.5c1.2,0,2.4,-.5,3.2,-1.3c.9,-.9,1.4,-2.1,1.4,-3.3c0,-1.2,-.5,-2.4,-1.4,-3.2c-.8,-.9,-2,-1.4,-3.2,-1.4c-1.2,0,-2.4,.5,-3.3,1.4c-.8,.8,-1.3,2,-1.3,3.2c0,1.2,.5,2.4,1.3,3.3c.9,.8,2.1,1.3,3.3,1.3Z" class="g3_24" />
<path d="M440.4,579.3c1.2,0,2.4,-.5,3.2,-1.3c.9,-.9,1.4,-2,1.4,-3.3c0,-1.2,-.5,-2.3,-1.4,-3.2c-.8,-.9,-2,-1.3,-3.2,-1.3c-1.2,0,-2.4,.4,-3.3,1.3c-.8,.9,-1.3,2,-1.3,3.2c0,1.3,.5,2.4,1.3,3.3c.9,.8,2.1,1.3,3.3,1.3Z" class="g3_24" />
<path d="M508.6,630.1c1.2,0,2.4,-.4,3.2,-1.3c.9,-.9,1.4,-2,1.4,-3.2c0,-1.3,-.5,-2.4,-1.4,-3.3c-.8,-.9,-2,-1.3,-3.2,-1.3c-1.2,0,-2.4,.4,-3.3,1.3c-.8,.9,-1.3,2,-1.3,3.3c0,1.2,.5,2.3,1.3,3.2c.9,.9,2.1,1.3,3.3,1.3Z" class="g3_24" />
<path d="M576.8,660.1c1.2,0,2.4,-.5,3.2,-1.4c.9,-.8,1.4,-2,1.4,-3.2c0,-1.2,-.5,-2.4,-1.4,-3.3c-.8,-.8,-2,-1.3,-3.2,-1.3c-1.2,0,-2.4,.5,-3.3,1.3c-.8,.9,-1.3,2.1,-1.3,3.3c0,1.2,.5,2.4,1.3,3.2c.9,.9,2.1,1.4,3.3,1.4Z" class="g3_24" />
<path d="M645,667.5c1.2,0,2.4,-.4,3.2,-1.3c.9,-.9,1.4,-2,1.4,-3.2c0,-1.3,-.5,-2.4,-1.4,-3.3c-.8,-.8,-2,-1.3,-3.2,-1.3c-1.2,0,-2.4,.5,-3.3,1.3c-.8,.9,-1.3,2,-1.3,3.3c0,1.2,.5,2.3,1.3,3.2c.9,.9,2.1,1.3,3.3,1.3Z" class="g3_24" />
<path d="M304,654.7l68.2,-36l68.2,-45h68.2l68.2,45l68.2,36" class="g4_24" />
<path d="M304,659.2c1.2,0,2.4,-.4,3.2,-1.3c.9,-.9,1.4,-2,1.4,-3.2c0,-1.3,-.5,-2.4,-1.4,-3.3c-.8,-.8,-2,-1.3,-3.2,-1.3c-1.2,0,-2.4,.5,-3.3,1.3c-.8,.9,-1.3,2,-1.3,3.3c0,1.2,.5,2.3,1.3,3.2c.9,.9,2.1,1.3,3.3,1.3Z" class="g5_24" />
<path d="M372.2,623.2c1.2,0,2.4,-.4,3.2,-1.3c.9,-.9,1.4,-2,1.4,-3.2c0,-1.3,-.5,-2.4,-1.4,-3.3c-.8,-.8,-2,-1.3,-3.2,-1.3c-1.2,0,-2.4,.5,-3.3,1.3c-.8,.9,-1.3,2,-1.3,3.3c0,1.2,.5,2.3,1.3,3.2c.9,.9,2.1,1.3,3.3,1.3Z" class="g5_24" />
<path d="M440.4,578.2c1.2,0,2.4,-.4,3.2,-1.3c.9,-.9,1.4,-2,1.4,-3.2c0,-1.3,-.5,-2.4,-1.4,-3.3c-.8,-.8,-2,-1.3,-3.2,-1.3c-1.2,0,-2.4,.5,-3.3,1.3c-.8,.9,-1.3,2,-1.3,3.3c0,1.2,.5,2.3,1.3,3.2c.9,.9,2.1,1.3,3.3,1.3Z" class="g5_24" />
<path d="M508.6,578.2c1.2,0,2.4,-.4,3.2,-1.3c.9,-.9,1.4,-2,1.4,-3.2c0,-1.3,-.5,-2.4,-1.4,-3.3c-.8,-.8,-2,-1.3,-3.2,-1.3c-1.2,0,-2.4,.5,-3.3,1.3c-.8,.9,-1.3,2,-1.3,3.3c0,1.2,.5,2.3,1.3,3.2c.9,.9,2.1,1.3,3.3,1.3Z" class="g5_24" />
<path d="M576.8,623.2c1.2,0,2.4,-.4,3.2,-1.3c.9,-.9,1.4,-2,1.4,-3.2c0,-1.3,-.5,-2.4,-1.4,-3.3c-.8,-.8,-2,-1.3,-3.2,-1.3c-1.2,0,-2.4,.5,-3.3,1.3c-.8,.9,-1.3,2,-1.3,3.3c0,1.2,.5,2.3,1.3,3.2c.9,.9,2.1,1.3,3.3,1.3Z" class="g5_24" />
<path d="M645,659.2c1.2,0,2.4,-.4,3.2,-1.3c.9,-.9,1.4,-2,1.4,-3.2c0,-1.3,-.5,-2.4,-1.4,-3.3c-.8,-.8,-2,-1.3,-3.2,-1.3c-1.2,0,-2.4,.5,-3.3,1.3c-.8,.9,-1.3,2,-1.3,3.3c0,1.2,.5,2.3,1.3,3.2c.9,.9,2.1,1.3,3.3,1.3Z" class="g5_24" />
<path d="M304,663.6l68.2,-1.8l68.2,-12.9l68.2,-44.2l68.2,-59L645,569.3" class="g6_24" />
<path d="M304,668.1c1.2,0,2.4,-.4,3.2,-1.3c.9,-.9,1.4,-2,1.4,-3.2c0,-1.3,-.5,-2.4,-1.4,-3.3c-.8,-.8,-2,-1.3,-3.2,-1.3c-1.2,0,-2.4,.5,-3.3,1.3c-.8,.9,-1.3,2,-1.3,3.3c0,1.2,.5,2.3,1.3,3.2c.9,.9,2.1,1.3,3.3,1.3Z" class="g7_24" />
<path d="M372.2,666.4c1.2,0,2.4,-.5,3.2,-1.3c.9,-.9,1.4,-2.1,1.4,-3.3c0,-1.2,-.5,-2.4,-1.4,-3.2c-.8,-.9,-2,-1.4,-3.2,-1.4c-1.2,0,-2.4,.5,-3.3,1.4c-.8,.8,-1.3,2,-1.3,3.2c0,1.2,.5,2.4,1.3,3.3c.9,.8,2.1,1.3,3.3,1.3Z" class="g7_24" />
<path d="M440.4,653.5c1.2,0,2.4,-.5,3.2,-1.4c.9,-.8,1.4,-2,1.4,-3.2c0,-1.2,-.5,-2.4,-1.4,-3.2c-.8,-.9,-2,-1.4,-3.2,-1.4c-1.2,0,-2.4,.5,-3.3,1.4c-.8,.8,-1.3,2,-1.3,3.2c0,1.2,.5,2.4,1.3,3.2c.9,.9,2.1,1.4,3.3,1.4Z" class="g7_24" />
<path d="M508.6,609.3c1.2,0,2.4,-.5,3.2,-1.4c.9,-.8,1.4,-2,1.4,-3.2c0,-1.2,-.5,-2.4,-1.4,-3.3c-.8,-.8,-2,-1.3,-3.2,-1.3c-1.2,0,-2.4,.5,-3.3,1.3c-.8,.9,-1.3,2.1,-1.3,3.3c0,1.2,.5,2.4,1.3,3.2c.9,.9,2.1,1.4,3.3,1.4Z" class="g7_24" />
<path d="M576.8,550.3c1.2,0,2.4,-.5,3.2,-1.4c.9,-.8,1.4,-2,1.4,-3.2c0,-1.2,-.5,-2.4,-1.4,-3.3c-.8,-.8,-2,-1.3,-3.2,-1.3c-1.2,0,-2.4,.5,-3.3,1.3c-.8,.9,-1.3,2.1,-1.3,3.3c0,1.2,.5,2.4,1.3,3.2c.9,.9,2.1,1.4,3.3,1.4Z" class="g7_24" />
<path d="M645,573.9c1.2,0,2.4,-.5,3.2,-1.4c.9,-.8,1.4,-2,1.4,-3.2c0,-1.2,-.5,-2.4,-1.4,-3.3c-.8,-.8,-2,-1.3,-3.2,-1.3c-1.2,0,-2.4,.5,-3.3,1.3c-.8,.9,-1.3,2.1,-1.3,3.3c0,1.2,.5,2.4,1.3,3.2c.9,.9,2.1,1.4,3.3,1.4Z" class="g7_24" />
<path d="M304,692.5v-3.7" class="g8_24" />
<path d="M304,375.7v3.6" class="g8_24" />
<path d="M372.2,692.5v-3.7" class="g8_24" />
<path d="M372.2,375.7v3.6" class="g8_24" />
<path d="M440.4,692.5v-3.7" class="g8_24" />
<path d="M440.4,375.7v3.6" class="g8_24" />
<path d="M508.6,692.5v-3.7" class="g8_24" />
<path d="M508.6,375.7v3.6" class="g8_24" />
<path d="M576.8,692.5v-3.7" class="g8_24" />
<path d="M576.8,375.7v3.6" class="g8_24" />
<path d="M645,692.5v-3.7" class="g8_24" />
<path d="M645,375.7v3.6" class="g8_24" />
<path d="M269.9,663.7h3.6" class="g8_24" />
<path d="M679.1,663.7h-3.7" class="g8_24" />
<path d="M269.9,606.1h3.6" class="g8_24" />
<path d="M679.1,606.1h-3.7" class="g8_24" />
<path d="M269.9,548.5h3.6" class="g8_24" />
<path d="M679.1,548.5h-3.7" class="g8_24" />
<path d="M269.9,490.9h3.6" class="g8_24" />
<path d="M679.1,490.9h-3.7" class="g8_24" />
<path d="M269.9,433.3h3.6" class="g8_24" />
<path d="M679.1,433.3h-3.7" class="g8_24" />
<path d="M269.9,375.7H679.1m0,316.8V375.7M269.9,692.5H679.1m-409.2,0V375.7" class="g9_24" />
<path d="M417,459.9H532V384.5H417v75.4Z" class="g10_24" />
<path d="M424,397.7h35.2" class="g2_24" />
<path d="M441.6,402.2c1.2,0,2.4,-.4,3.2,-1.3c.9,-.9,1.4,-2,1.4,-3.2c0,-1.3,-.5,-2.4,-1.4,-3.3c-.8,-.8,-2,-1.3,-3.2,-1.3c-1.2,0,-2.4,.5,-3.2,1.3c-.9,.9,-1.4,2,-1.4,3.3c0,1.2,.5,2.3,1.4,3.2c.8,.9,2,1.3,3.2,1.3Z" class="g3_24" />
<path d="M424,422.2h35.2" class="g4_24" />
<path d="M441.6,426.8c1.2,0,2.4,-.5,3.2,-1.4c.9,-.8,1.4,-2,1.4,-3.2c0,-1.2,-.5,-2.4,-1.4,-3.3c-.8,-.8,-2,-1.3,-3.2,-1.3c-1.2,0,-2.4,.5,-3.2,1.3c-.9,.9,-1.4,2.1,-1.4,3.3c0,1.2,.5,2.4,1.4,3.2c.8,.9,2,1.4,3.2,1.4Z" class="g5_24" />
<path d="M424,446.7h35.2" class="g6_24" />
<path d="M441.6,451.3c1.2,0,2.4,-.5,3.2,-1.3c.9,-.9,1.4,-2.1,1.4,-3.3c0,-1.2,-.5,-2.4,-1.4,-3.2c-.8,-.9,-2,-1.4,-3.2,-1.4c-1.2,0,-2.4,.5,-3.2,1.4c-.9,.8,-1.4,2,-1.4,3.2c0,1.2,.5,2.4,1.4,3.3c.8,.8,2,1.3,3.2,1.3Z" class="g7_24" />
</svg>