<?xml version="1.0" encoding="UTF-8" standalone="no"?>
<!DOCTYPE svg PUBLIC "-//W3C//DTD SVG 1.1//EN"
"http://www.w3.org/Graphics/SVG/1.1/DTD/svg11.dtd">
<svg viewBox="0 0 909 1286" version="1.1" xmlns="http://www.w3.org/2000/svg" xmlns:xlink="http://www.w3.org/1999/xlink">
<defs>
<style type="text/css"><![CDATA[
.g0_74{
fill: #FFFFFF;
}
.g1_74{
fill: #0000FF;
stroke: #000000;
stroke-width: 0.38194445;
stroke-linecap: butt;
stroke-linejoin: round;
}
.g2_74{
fill: none;
stroke: #FF0000;
stroke-width: 0.7638889;
stroke-linecap: square;
stroke-linejoin: round;
stroke-opacity: 0.2;
}
.g3_74{
stroke: #000000;
stroke-width: 0.38194445;
stroke-linecap: butt;
stroke-linejoin: round;
}
.g4_74{
fill: none;
stroke: #000000;
stroke-width: 0.7638889;
stroke-linecap: square;
stroke-linejoin: round;
}
.g5_74{
fill: none;
stroke: #000000;
stroke-width: 0.6080556;
stroke-linecap: butt;
stroke-linejoin: miter;
}
]]></style>
</defs>
<path d="M255.8,424.1H653.7V108.3H255.8Z" class="g0_74" />
<path d="M298.2,391.7h341v-264h-341Z" class="g0_74" />
<path d="M359.6,225.3c.5,0,1,-.2,1.4,-.5c.3,-.4,.5,-.9,.5,-1.4c0,-.5,-.2,-1,-.5,-1.3c-.4,-.4,-.9,-.6,-1.4,-.6c-.5,0,-1,.2,-1.3,.6c-.4,.3,-.6,.8,-.6,1.3c0,.5,.2,1,.6,1.4c.3,.3,.8,.5,1.3,.5Z" class="g1_74" />
<path d="M366.4,198.9c.5,0,1,-.2,1.4,-.5c.3,-.4,.5,-.9,.5,-1.4c0,-.5,-.2,-1,-.5,-1.3c-.4,-.4,-.9,-.6,-1.4,-.6c-.5,0,-1,.2,-1.3,.6c-.4,.3,-.6,.8,-.6,1.3c0,.5,.2,1,.6,1.4c.3,.3,.8,.5,1.3,.5Z" class="g1_74" />
<path d="M373.2,208.8c.5,0,1,-.2,1.4,-.5c.4,-.4,.6,-.9,.6,-1.4c0,-.5,-.2,-1,-.6,-1.3c-.4,-.4,-.9,-.6,-1.4,-.6c-.5,0,-.9,.2,-1.3,.6c-.4,.3,-.6,.8,-.6,1.3c0,.5,.2,1,.6,1.4c.4,.3,.8,.5,1.3,.5Z" class="g1_74" />
<path d="M376.7,225.3c.5,0,.9,-.2,1.3,-.5c.4,-.4,.6,-.9,.6,-1.4c0,-.5,-.2,-1,-.6,-1.3c-.4,-.4,-.8,-.6,-1.3,-.6c-.6,0,-1,.2,-1.4,.6c-.4,.3,-.6,.8,-.6,1.3c0,.5,.2,1,.6,1.4c.4,.3,.8,.5,1.4,.5Z" class="g1_74" />
<path d="M376.7,241.8c.5,0,.9,-.2,1.3,-.5c.4,-.4,.6,-.9,.6,-1.4c0,-.5,-.2,-1,-.6,-1.3c-.4,-.4,-.8,-.6,-1.3,-.6c-.6,0,-1,.2,-1.4,.6c-.4,.3,-.6,.8,-.6,1.3c0,.5,.2,1,.6,1.4c.4,.3,.8,.5,1.4,.5Z" class="g1_74" />
<path d="M383.5,231.9c.5,0,1,-.2,1.3,-.5c.4,-.4,.6,-.9,.6,-1.4c0,-.5,-.2,-1,-.6,-1.3c-.3,-.4,-.8,-.6,-1.3,-.6c-.5,0,-1,.2,-1.4,.6c-.3,.3,-.5,.8,-.5,1.3c0,.5,.2,1,.5,1.4c.4,.3,.9,.5,1.4,.5Z" class="g1_74" />
<path d="M390.3,208.8c.5,0,1,-.2,1.3,-.5c.4,-.4,.6,-.9,.6,-1.4c0,-.5,-.2,-1,-.6,-1.3c-.3,-.4,-.8,-.6,-1.3,-.6c-.5,0,-1,.2,-1.4,.6c-.3,.3,-.5,.8,-.5,1.3c0,.5,.2,1,.5,1.4c.4,.3,.9,.5,1.4,.5Z" class="g1_74" />
<path d="M393.7,225.3c.5,0,1,-.2,1.4,-.5c.3,-.4,.5,-.9,.5,-1.4c0,-.5,-.2,-1,-.5,-1.3c-.4,-.4,-.9,-.6,-1.4,-.6c-.5,0,-1,.2,-1.3,.6c-.4,.3,-.6,.8,-.6,1.3c0,.5,.2,1,.6,1.4c.3,.3,.8,.5,1.3,.5Z" class="g1_74" />
<path d="M397.1,241.8c.5,0,1,-.2,1.4,-.5c.3,-.4,.5,-.9,.5,-1.4c0,-.5,-.2,-1,-.5,-1.3c-.4,-.4,-.9,-.6,-1.4,-.6c-.5,0,-1,.2,-1.3,.6c-.4,.3,-.6,.8,-.6,1.3c0,.5,.2,1,.6,1.4c.3,.3,.8,.5,1.3,.5Z" class="g1_74" />
<path d="M407.3,258.3c.5,0,1,-.2,1.4,-.5c.4,-.4,.6,-.9,.6,-1.4c0,-.5,-.2,-1,-.6,-1.3c-.4,-.4,-.9,-.6,-1.4,-.6c-.5,0,-.9,.2,-1.3,.6c-.4,.3,-.6,.8,-.6,1.3c0,.5,.2,1,.6,1.4c.4,.3,.8,.5,1.3,.5Z" class="g1_74" />
<path d="M424.4,255c.5,0,1,-.2,1.3,-.5c.4,-.4,.6,-.9,.6,-1.4c0,-.5,-.2,-1,-.6,-1.3c-.3,-.4,-.8,-.6,-1.3,-.6c-.5,0,-1,.2,-1.4,.6c-.3,.3,-.5,.8,-.5,1.3c0,.5,.2,1,.5,1.4c.4,.3,.9,.5,1.4,.5Z" class="g1_74" />
<path d="M438,241.8c.5,0,1,-.2,1.4,-.5c.3,-.4,.5,-.9,.5,-1.4c0,-.5,-.2,-1,-.5,-1.3c-.4,-.4,-.9,-.6,-1.4,-.6c-.5,0,-1,.2,-1.3,.6c-.4,.3,-.6,.8,-.6,1.3c0,.5,.2,1,.6,1.4c.3,.3,.8,.5,1.3,.5Z" class="g1_74" />
<path d="M455.1,245.1c.5,0,1,-.2,1.3,-.5c.4,-.4,.6,-.9,.6,-1.4c0,-.5,-.2,-1,-.6,-1.3c-.3,-.4,-.8,-.6,-1.3,-.6c-.5,0,-1,.2,-1.4,.6c-.3,.3,-.5,.8,-.5,1.3c0,.5,.2,1,.5,1.4c.4,.3,.9,.5,1.4,.5Z" class="g1_74" />
<path d="M465.3,268.2c.5,0,1,-.2,1.4,-.5c.3,-.4,.5,-.9,.5,-1.4c0,-.5,-.2,-1,-.5,-1.3c-.4,-.4,-.9,-.6,-1.4,-.6c-.5,0,-1,.2,-1.3,.6c-.4,.3,-.6,.8,-.6,1.3c0,.5,.2,1,.6,1.4c.3,.3,.8,.5,1.3,.5Z" class="g1_74" />
<path d="M479,241.8c.5,0,.9,-.2,1.3,-.5c.4,-.4,.6,-.9,.6,-1.4c0,-.5,-.2,-1,-.6,-1.3c-.4,-.4,-.8,-.6,-1.3,-.6c-.6,0,-1,.2,-1.4,.6c-.4,.3,-.6,.8,-.6,1.3c0,.5,.2,1,.6,1.4c.4,.3,.8,.5,1.4,.5Z" class="g1_74" />
<path d="M485.8,255c.5,0,1,-.2,1.3,-.5c.4,-.4,.6,-.9,.6,-1.4c0,-.5,-.2,-1,-.6,-1.3c-.3,-.4,-.8,-.6,-1.3,-.6c-.5,0,-1,.2,-1.4,.6c-.3,.3,-.5,.8,-.5,1.3c0,.5,.2,1,.5,1.4c.4,.3,.9,.5,1.4,.5Z" class="g1_74" />
<path d="M513.1,278.1c.5,0,.9,-.2,1.3,-.5c.4,-.4,.6,-.9,.6,-1.4c0,-.5,-.2,-1,-.6,-1.3c-.4,-.4,-.8,-.6,-1.3,-.6c-.6,0,-1,.2,-1.4,.6c-.4,.3,-.6,.8,-.6,1.3c0,.5,.2,1,.6,1.4c.4,.3,.8,.5,1.4,.5Z" class="g1_74" />
<path d="M519.9,255c.5,0,1,-.2,1.3,-.5c.4,-.4,.6,-.9,.6,-1.4c0,-.5,-.2,-1,-.6,-1.3c-.3,-.4,-.8,-.6,-1.3,-.6c-.5,0,-1,.2,-1.4,.6c-.3,.3,-.5,.8,-.5,1.3c0,.5,.2,1,.5,1.4c.4,.3,.9,.5,1.4,.5Z" class="g1_74" />
<path d="M523.3,294.6c.5,0,1,-.2,1.3,-.5c.4,-.4,.6,-.9,.6,-1.4c0,-.5,-.2,-1,-.6,-1.3c-.3,-.4,-.8,-.6,-1.3,-.6c-.5,0,-1,.2,-1.4,.6c-.3,.3,-.5,.8,-.5,1.3c0,.5,.2,1,.5,1.4c.4,.3,.9,.5,1.4,.5Z" class="g1_74" />
<path d="M526.7,258.3c.5,0,1,-.2,1.3,-.5c.4,-.4,.6,-.9,.6,-1.4c0,-.5,-.2,-1,-.6,-1.3c-.3,-.4,-.8,-.6,-1.3,-.6c-.5,0,-1,.2,-1.4,.6c-.3,.3,-.5,.8,-.5,1.3c0,.5,.2,1,.5,1.4c.4,.3,.9,.5,1.4,.5Z" class="g1_74" />
<path d="M530.1,294.6c.5,0,1,-.2,1.4,-.5c.3,-.4,.5,-.9,.5,-1.4c0,-.5,-.2,-1,-.5,-1.3c-.4,-.4,-.9,-.6,-1.4,-.6c-.5,0,-1,.2,-1.3,.6c-.4,.3,-.6,.8,-.6,1.3c0,.5,.2,1,.6,1.4c.3,.3,.8,.5,1.3,.5Z" class="g1_74" />
<path d="M536.9,264.9c.5,0,1,-.2,1.4,-.5c.3,-.4,.5,-.9,.5,-1.4c0,-.5,-.2,-1,-.5,-1.3c-.4,-.4,-.9,-.6,-1.4,-.6c-.5,0,-1,.2,-1.3,.6c-.4,.3,-.6,.8,-.6,1.3c0,.5,.2,1,.6,1.4c.3,.3,.8,.5,1.3,.5Z" class="g1_74" />
<path d="M540.3,288c.5,0,1,-.2,1.4,-.5c.3,-.4,.5,-.9,.5,-1.4c0,-.5,-.2,-1,-.5,-1.3c-.4,-.4,-.9,-.6,-1.4,-.6c-.5,0,-1,.2,-1.3,.6c-.4,.3,-.6,.8,-.6,1.3c0,.5,.2,1,.6,1.4c.3,.3,.8,.5,1.3,.5Z" class="g1_74" />
<path d="M543.7,271.5c.5,0,1,-.2,1.4,-.5c.4,-.4,.6,-.9,.6,-1.4c0,-.5,-.2,-1,-.6,-1.3c-.4,-.4,-.9,-.6,-1.4,-.6c-.5,0,-.9,.2,-1.3,.6c-.4,.3,-.6,.8,-.6,1.3c0,.5,.2,1,.6,1.4c.4,.3,.8,.5,1.3,.5Z" class="g1_74" />
<path d="M547.2,301.2c.5,0,.9,-.2,1.3,-.5c.4,-.4,.6,-.9,.6,-1.4c0,-.5,-.2,-1,-.6,-1.3c-.4,-.4,-.8,-.6,-1.3,-.6c-.6,0,-1,.2,-1.4,.6c-.4,.3,-.6,.8,-.6,1.3c0,.5,.2,1,.6,1.4c.4,.3,.8,.5,1.4,.5Z" class="g1_74" />
<path d="M550.6,255c.5,0,1,-.2,1.3,-.5c.4,-.4,.6,-.9,.6,-1.4c0,-.5,-.2,-1,-.6,-1.3c-.3,-.4,-.8,-.6,-1.3,-.6c-.5,0,-1,.2,-1.4,.6c-.3,.3,-.5,.8,-.5,1.3c0,.5,.2,1,.5,1.4c.4,.3,.9,.5,1.4,.5Z" class="g1_74" />
<path d="M554,241.8c.5,0,1,-.2,1.3,-.5c.4,-.4,.6,-.9,.6,-1.4c0,-.5,-.2,-1,-.6,-1.3c-.3,-.4,-.8,-.6,-1.3,-.6c-.5,0,-1,.2,-1.4,.6c-.3,.3,-.5,.8,-.5,1.3c0,.5,.2,1,.5,1.4c.4,.3,.9,.5,1.4,.5Z" class="g1_74" />
<path d="M560.8,274.8c.5,0,1,-.2,1.3,-.5c.4,-.4,.6,-.9,.6,-1.4c0,-.5,-.2,-1,-.6,-1.3c-.3,-.4,-.8,-.6,-1.3,-.6c-.5,0,-1,.2,-1.4,.6c-.3,.3,-.5,.8,-.5,1.3c0,.5,.2,1,.5,1.4c.4,.3,.9,.5,1.4,.5Z" class="g1_74" />
<path d="M567.6,291.3c.5,0,1,-.2,1.4,-.5c.3,-.4,.5,-.9,.5,-1.4c0,-.5,-.2,-1,-.5,-1.3c-.4,-.4,-.9,-.6,-1.4,-.6c-.5,0,-1,.2,-1.3,.6c-.4,.3,-.6,.8,-.6,1.3c0,.5,.2,1,.6,1.4c.3,.3,.8,.5,1.3,.5Z" class="g1_74" />
<path d="M577.8,274.8c.5,0,1,-.2,1.4,-.5c.4,-.4,.6,-.9,.6,-1.4c0,-.5,-.2,-1,-.6,-1.3c-.4,-.4,-.9,-.6,-1.4,-.6c-.5,0,-.9,.2,-1.3,.6c-.4,.3,-.6,.8,-.6,1.3c0,.5,.2,1,.6,1.4c.4,.3,.8,.5,1.3,.5Z" class="g1_74" />
<path d="M298.2,207.2l341,88.3m-341,-89.7l341,86.3M298.2,185l341,133.8M298.2,207.1l341,85.5m-341,-74.7l341,74m-341,-83.5l341,81.5M298.2,224l341,61.1m-341,-72.4l341,77.1m-341,-85.9l341,90.4m-341,-80.8l341,78.2m-341,-79.9l341,75.2m-341,-86.2l341,101M298.2,195.3l341,115.5M298.2,196.2l341,105.3m-341,-112l341,124m-341,-104l341,85.7m-341,-85.9l341,93.6m-341,-98.2l341,90.5M298.2,203l341,96m-341,-85.3l341,81.7M298.2,189l341,125.7M298.2,192.1l341,123.8M298.2,205.7l341,91.1m-341,-78.1l341,71.6M298.2,202l341,93.4m-341,-91.9l341,103.9M298.2,196.5l341,117.8M298.2,204.8l341,96.1m-341,-91.4l341,104.8M298.2,198.1l341,107.4M298.2,191.4l341,117m-341,-97l341,78.8m-341,-83l341,93.8M298.2,199.2l341,111.3M298.2,195.1l341,108.6M298.2,201.6l341,98.6m-341,-97.9l341,98.3m-341,-97.8l341,95.3M298.2,200l341,96.7M298.2,208l341,89.1m-341,-98.7l341,98.8m-341,-95l341,99.5m-341,-88.5l341,70.7m-341,-77l341,89.7m-341,-97.8l341,105.4M298.2,196.4l341,113.9M298.2,184.4l341,126.4M298.2,200.6l341,95.1m-341,-88.5l341,97M298.2,195.6L639.2,302M298.2,201.4l341,91.3M298.2,187.5l341,124.1m-341,-96l341,79.5m-341,-70.4l341,62.7M298.2,196l341,109.3M298.2,203.2l341,99.3M298.2,200.7l341,98M298.2,193.3l341,109.1M298.2,189.8l341,121.7M298.2,199.9L639.2,302m-341,-88.6l341,78.9m-341,-97.6l341,96.4m-341,-81.3l341,86.6m-341,-90.1l341,87.4m-341,-92.8l341,94.4m-341,-86.5l341,83.5m-341,-90.7l341,88.6m-341,-86.8l341,95m-341,-74.3l341,61.7m-341,-74.5l341,81.1m-341,-82.9l341,82.2m-341,-85.2l341,87.8m-341,-85.4l341,88.6m-341,-94.9L639.2,303M298.2,187.3l341,119.9m-341,-115l341,118.3M298.2,202l341,101.1m-341,-98.8l341,103.3m-341,-114l341,114M298.2,202.1l341,99.5m-341,-91.1l341,76.1m-341,-93.4l341,113.4m-341,-110l341,110.5M298.2,198.8l341,99.6m-341,-79.8l341,76.8m-341,-96.5l341,104.6M298.2,195.2l341,109.5m-341,-98.1l341,87.8m-341,-91.3l341,99.1m-341,-99.7l341,90.7m-341,-98.4l341,104.9M298.2,199.1l341,103m-341,-96.5l341,99.2m-341,-99.9l341,99.9M298.2,200l341,101.1M298.2,195.5l341,104.9m-341,-89.1l341,88.8m-341,-98.9l341,90.1m-341,-92.9l341,97.2M298.2,194.3l341,112.2" class="g2_74" />
<path d="M298.2,391.7v-3" class="g3_74" />
<path d="M298.2,127.7v3.1" class="g3_74" />
<path d="M366.4,391.7v-3" class="g3_74" />
<path d="M366.4,127.7v3.1" class="g3_74" />
<path d="M434.6,391.7v-3" class="g3_74" />
<path d="M434.6,127.7v3.1" class="g3_74" />
<path d="M502.8,391.7v-3" class="g3_74" />
<path d="M502.8,127.7v3.1" class="g3_74" />
<path d="M571,391.7v-3" class="g3_74" />
<path d="M571,127.7v3.1" class="g3_74" />
<path d="M639.2,391.7v-3" class="g3_74" />
<path d="M639.2,127.7v3.1" class="g3_74" />
<path d="M298.2,391.7h3.1" class="g3_74" />
<path d="M639.2,391.7h-3" class="g3_74" />
<path d="M298.2,358.7h3.1" class="g3_74" />
<path d="M639.2,358.7h-3" class="g3_74" />
<path d="M298.2,325.7h3.1" class="g3_74" />
<path d="M639.2,325.7h-3" class="g3_74" />
<path d="M298.2,292.7h3.1" class="g3_74" />
<path d="M639.2,292.7h-3" class="g3_74" />
<path d="M298.2,259.7h3.1" class="g3_74" />
<path d="M639.2,259.7h-3" class="g3_74" />
<path d="M298.2,226.7h3.1" class="g3_74" />
<path d="M639.2,226.7h-3" class="g3_74" />
<path d="M298.2,193.7h3.1" class="g3_74" />
<path d="M639.2,193.7h-3" class="g3_74" />
<path d="M298.2,160.7h3.1" class="g3_74" />
<path d="M639.2,160.7h-3" class="g3_74" />
<path d="M298.2,127.7h3.1" class="g3_74" />
<path d="M639.2,127.7h-3" class="g3_74" />
<path d="M298.2,127.7h341m0,264v-264m-341,264h341m-341,0v-264" class="g4_74" />
<path d="M108.3,1081.9H801.2m-692.6,9v-8.7m692.3,8.7v-8.7m-692.3,29.4v-20.7m692.3,20.7v-20.7m-692.3,29.3v-8.6m692.3,8.6v-8.6m-692.6,8.9H801.2m-295.8,35.1H511m-307.2,22h5.6" class="g5_74" />
</svg>