<?xml version="1.0" encoding="UTF-8" standalone="no"?>
<!DOCTYPE svg PUBLIC "-//W3C//DTD SVG 1.1//EN"
"http://www.w3.org/Graphics/SVG/1.1/DTD/svg11.dtd">
<svg viewBox="0 0 909 1286" version="1.1" xmlns="http://www.w3.org/2000/svg" xmlns:xlink="http://www.w3.org/1999/xlink">
<defs>
<style type="text/css"><![CDATA[
.g0_79{
fill: none;
stroke: #000000;
stroke-width: 0.6080556;
stroke-linecap: butt;
stroke-linejoin: miter;
}
]]></style>
</defs>
<path d="M108.3,199.3H801.2m-692.6,9v-8.7m692.3,8.7v-8.7M108.6,229V208.3M800.9,229V208.3M108.6,249.7V229m692.3,20.7V229M108.6,270.4V249.7m692.3,20.7V249.7M108.6,279v-8.6M800.9,279v-8.6m-692.6,8.9H801.2m-692.9,439H801.2m-692.6,9v-8.7m692.3,8.7v-8.7M108.6,748V727.3M800.9,748V727.3M108.6,768.7V748m692.3,20.7V748M108.6,789.4V768.7m692.3,20.7V768.7M108.6,810.1V789.4m692.3,20.7V789.4M108.6,830.8V810.1m692.3,20.7V810.1M108.6,851.5V830.8m692.3,20.7V830.8M108.6,872.2V851.5m692.3,20.7V851.5M108.6,892.9V872.2m692.3,20.7V872.2M108.6,913.6V892.9m692.3,20.7V892.9M108.6,934.3V913.6m692.3,20.7V913.6M108.6,955V934.3M800.9,955V934.3M108.6,975.7V955m692.3,20.7V955M108.6,996.4V975.7m692.3,20.7V975.7m-692.3,41.4V996.4m692.3,20.7V996.4m-692.3,41.4v-20.7m692.3,20.7v-20.7m-692.3,41.4v-20.7m692.3,20.7v-20.7m-692.3,29.3v-8.6m692.3,8.6v-8.6m-692.6,8.9H801.2" class="g0_79" />
</svg>