<?xml version="1.0" encoding="UTF-8" standalone="no"?>
<!DOCTYPE svg PUBLIC "-//W3C//DTD SVG 1.1//EN"
"http://www.w3.org/Graphics/SVG/1.1/DTD/svg11.dtd">
<svg viewBox="0 0 909 1286" version="1.1" xmlns="http://www.w3.org/2000/svg" xmlns:xlink="http://www.w3.org/1999/xlink">
<defs>
<style type="text/css"><![CDATA[
.g0_82{
fill: none;
stroke: #000000;
stroke-width: 0.6080556;
stroke-linecap: butt;
stroke-linejoin: miter;
}
]]></style>
</defs>
<path d="M308.1,135.8H601.3M308.1,158.1v-22m58.3,22v-22m78.3,22v-22m78.3,22v-22m78.3,22v-22M308.1,158.4H601.3M308.1,180.8v-22m58.3,22v-22m78.3,22v-22m78.3,22v-22m78.3,22v-22M308.1,202.9V180.8m58.3,22.1V180.8m78.3,22.1V180.8M523,202.9V180.8m78.3,22.1V180.8M308.1,225V202.9M366.4,225V202.9M444.7,225V202.9M523,225V202.9M601.3,225V202.9M308.1,225.3H601.3m-293.2,51H601.3M308.1,298.6v-22m58.3,22v-22m78.3,22v-22m78.3,22v-22m78.3,22v-22M308.1,298.9H601.3M308.1,321.3V299.2m58.3,22.1V299.2m78.3,22.1V299.2M523,321.3V299.2m78.3,22.1V299.2M308.1,343.4V321.3m58.3,22.1V321.3m78.3,22.1V321.3M523,343.4V321.3m78.3,22.1V321.3M308.1,365.4v-22m58.3,22v-22m78.3,22v-22m78.3,22v-22m78.3,22v-22M308.1,365.7H601.3" class="g0_82" />
</svg>