<?xml version="1.0" encoding="UTF-8" standalone="no"?>
<!DOCTYPE svg PUBLIC "-//W3C//DTD SVG 1.1//EN"
"http://www.w3.org/Graphics/SVG/1.1/DTD/svg11.dtd">
<svg viewBox="0 0 909 1286" version="1.1" xmlns="http://www.w3.org/2000/svg" xmlns:xlink="http://www.w3.org/1999/xlink">
<defs>
<style type="text/css"><![CDATA[
.g0_63{
fill: none;
stroke: #000000;
stroke-width: 0.6080556;
stroke-linecap: butt;
stroke-linejoin: miter;
}
]]></style>
</defs>
<path d="M187.6,337.9h5.6m83.6,79.2h5.6M108.3,601.7H801.2m-692.6,9V602m692.3,8.7V602M108.6,631.4V610.7m692.3,20.7V610.7M108.6,652.1V631.4m692.3,20.7V631.4M108.6,672.8V652.1m692.3,20.7V652.1M108.6,693.5V672.8m692.3,20.7V672.8M108.6,714.2V693.5m692.3,20.7V693.5M108.6,734.9V714.2m692.3,20.7V714.2M108.6,755.6V734.9m692.3,20.7V734.9M108.6,776.3V755.6m692.3,20.7V755.6M108.6,797V776.3M800.9,797V776.3M108.6,817.7V797m692.3,20.7V797M108.6,838.4V817.7m692.3,20.7V817.7M108.6,859.1V838.4m692.3,20.7V838.4M108.6,879.8V859.1m692.3,20.7V859.1M108.6,900.5V879.8m692.3,20.7V879.8M108.6,921.2V900.5m692.3,20.7V900.5M108.6,941.9V921.2m692.3,20.7V921.2M108.6,962.6V941.9m692.3,20.7V941.9M108.6,983.3V962.6m692.3,20.7V962.6M108.6,1004V983.3M800.9,1004V983.3m-692.3,41.4V1004m692.3,20.7V1004m-692.3,41.4v-20.7m692.3,20.7v-20.7M108.6,1054v-8.6m692.3,8.6v-8.6m-692.6,8.9H801.2m-511.7,35.1h5.6m-186.8,39.2H801.2m-692.6,9v-8.7m692.3,8.7v-8.7m-692.3,29.4v-20.7m692.3,20.7v-20.7M108.6,1179v-20.7M800.9,1179v-20.7" class="g0_63" />
</svg>