<?xml version="1.0" encoding="UTF-8" standalone="no"?>
<!DOCTYPE svg PUBLIC "-//W3C//DTD SVG 1.1//EN"
"http://www.w3.org/Graphics/SVG/1.1/DTD/svg11.dtd">
<svg viewBox="0 0 909 1286" version="1.1" xmlns="http://www.w3.org/2000/svg" xmlns:xlink="http://www.w3.org/1999/xlink">
<defs>
<style type="text/css"><![CDATA[
.g0_34{
fill: #FFFFFF;
}
.g1_34{
fill: #0000FF;
fill-opacity: 0.5;
stroke: #000000;
stroke-width: 0.68750006;
stroke-linecap: butt;
stroke-linejoin: round;
stroke-opacity: 0.5;
}
.g2_34{
stroke: #000000;
stroke-width: 0.34375003;
stroke-linecap: butt;
stroke-linejoin: round;
}
.g3_34{
fill: none;
stroke: #000000;
stroke-width: 0.68750006;
stroke-linecap: butt;
stroke-linejoin: round;
}
]]></style>
</defs>
<path d="M186,477.5H728.1V198.3H186Z" class="g0_34" />
<path d="M217.6,445.7H444.3V208.1H217.6Z" class="g0_34" />
<path d="M335.9,445.7H337v-9.5h-1.1Z" class="g1_34" />
<path d="M343.5,445.7h1.1v-4.8h-1.1Z" class="g1_34" />
<path d="M344.6,445.7h1v-4.8h-1Z" class="g1_34" />
<path d="M346.7,445.7h1.1V431.4h-1.1Z" class="g1_34" />
<path d="M347.8,445.7h1.1V421.9h-1.1Z" class="g1_34" />
<path d="M348.9,445.7H350V431.4h-1.1Z" class="g1_34" />
<path d="M350,445.7h1.1v-9.5H350Z" class="g1_34" />
<path d="M351.1,445.7h1V421.9h-1Z" class="g1_34" />
<path d="M352.1,445.7h1.1v-19h-1.1Z" class="g1_34" />
<path d="M353.2,445.7h1.1V402.9h-1.1Z" class="g1_34" />
<path d="M354.3,445.7h1.1v-19h-1.1Z" class="g1_34" />
<path d="M355.4,445.7h1.1v-38h-1.1Z" class="g1_34" />
<path d="M356.5,445.7h1.1V412.4h-1.1Z" class="g1_34" />
<path d="M357.6,445.7h1V412.4h-1Z" class="g1_34" />
<path d="M358.6,445.7h1.1v-19h-1.1Z" class="g1_34" />
<path d="M359.7,445.7h1.1V421.9h-1.1Z" class="g1_34" />
<path d="M360.8,445.7h1.1V417.2h-1.1Z" class="g1_34" />
<path d="M361.9,445.7H363V431.4h-1.1Z" class="g1_34" />
<path d="M363,445.7h1.1V417.2H363Z" class="g1_34" />
<path d="M364.1,445.7h1V374.4h-1Z" class="g1_34" />
<path d="M365.1,445.7h1.1v-57h-1.1Z" class="g1_34" />
<path d="M366.2,445.7h1.1V383.9h-1.1Z" class="g1_34" />
<path d="M367.3,445.7h1.1v-57h-1.1Z" class="g1_34" />
<path d="M368.4,445.7h1.1V374.4h-1.1Z" class="g1_34" />
<path d="M369.5,445.7h1.1V402.9h-1.1Z" class="g1_34" />
<path d="M370.6,445.7h1V379.2h-1Z" class="g1_34" />
<path d="M371.6,445.7h1.1V355.4h-1.1Z" class="g1_34" />
<path d="M372.7,445.7h1.1V374.4h-1.1Z" class="g1_34" />
<path d="M373.8,445.7h1.1v-95h-1.1Z" class="g1_34" />
<path d="M374.9,445.7H376V417.2h-1.1Z" class="g1_34" />
<path d="M376,445.7h1.1V374.4H376Z" class="g1_34" />
<path d="M377.1,445.7h1.1V379.2h-1.1Z" class="g1_34" />
<path d="M378.2,445.7h1V398.2h-1Z" class="g1_34" />
<path d="M379.2,445.7h1.1v-76h-1.1Z" class="g1_34" />
<path d="M380.3,445.7h1.1v-114h-1.1Z" class="g1_34" />
<path d="M381.4,445.7h1.1V312.6h-1.1Z" class="g1_34" />
<path d="M382.5,445.7h1.1V383.9h-1.1Z" class="g1_34" />
<path d="M383.6,445.7h1.1V383.9h-1.1Z" class="g1_34" />
<path d="M384.7,445.7h1v-95h-1Z" class="g1_34" />
<path d="M385.7,445.7h1.1v-114h-1.1Z" class="g1_34" />
<path d="M386.8,445.7h1.1V317.4h-1.1Z" class="g1_34" />
<path d="M387.9,445.7H389V317.4h-1.1Z" class="g1_34" />
<path d="M389,445.7h1.1V345.9H389Z" class="g1_34" />
<path d="M390.1,445.7h1.1V317.4h-1.1Z" class="g1_34" />
<path d="M391.2,445.7h1V345.9h-1Z" class="g1_34" />
<path d="M392.2,445.7h1.1v-76h-1.1Z" class="g1_34" />
<path d="M393.3,445.7h1.1V345.9h-1.1Z" class="g1_34" />
<path d="M394.4,445.7h1.1v-95h-1.1Z" class="g1_34" />
<path d="M395.5,445.7h1.1v-95h-1.1Z" class="g1_34" />
<path d="M396.6,445.7h1.1V364.9h-1.1Z" class="g1_34" />
<path d="M397.7,445.7h1v-114h-1Z" class="g1_34" />
<path d="M398.7,445.7h1.1V336.4h-1.1Z" class="g1_34" />
<path d="M399.8,445.7h1.1V269.9h-1.1Z" class="g1_34" />
<path d="M400.9,445.7H402V307.9h-1.1Z" class="g1_34" />
<path d="M402,445.7h1.1V345.9H402Z" class="g1_34" />
<path d="M403.1,445.7h1.1V312.6h-1.1Z" class="g1_34" />
<path d="M404.2,445.7h1V383.9h-1Z" class="g1_34" />
<path d="M405.2,445.7h1.1V345.9h-1.1Z" class="g1_34" />
<path d="M406.3,445.7h1.1V307.9h-1.1Z" class="g1_34" />
<path d="M407.4,445.7h1.1V326.9h-1.1Z" class="g1_34" />
<path d="M408.5,445.7h1.1V336.4h-1.1Z" class="g1_34" />
<path d="M409.6,445.7h1.1V293.6h-1.1Z" class="g1_34" />
<path d="M410.7,445.7h1V317.4h-1Z" class="g1_34" />
<path d="M411.7,445.7h1.1V336.4h-1.1Z" class="g1_34" />
<path d="M412.8,445.7h1.1V312.6h-1.1Z" class="g1_34" />
<path d="M413.9,445.7H415V293.6h-1.1Z" class="g1_34" />
<path d="M415,445.7h1.1V317.4H415Z" class="g1_34" />
<path d="M416.1,445.7h1.1V345.9h-1.1Z" class="g1_34" />
<path d="M417.2,445.7h1.1V312.6h-1.1Z" class="g1_34" />
<path d="M418.3,445.7h1V317.4h-1Z" class="g1_34" />
<path d="M419.3,445.7h1.1V326.9h-1.1Z" class="g1_34" />
<path d="M420.4,445.7h1.1V336.4h-1.1Z" class="g1_34" />
<path d="M421.5,445.7h1.1V336.4h-1.1Z" class="g1_34" />
<path d="M422.6,445.7h1.1V274.6h-1.1Z" class="g1_34" />
<path d="M423.7,445.7h1.1V307.9h-1.1Z" class="g1_34" />
<path d="M424.8,445.7h1V279.4h-1Z" class="g1_34" />
<path d="M425.8,445.7h1.1V269.9h-1.1Z" class="g1_34" />
<path d="M426.9,445.7H428V288.9h-1.1Z" class="g1_34" />
<path d="M428,445.7h1.1V307.9H428Z" class="g1_34" />
<path d="M429.1,445.7h1.1V255.6h-1.1Z" class="g1_34" />
<path d="M430.2,445.7h1.1V269.9h-1.1Z" class="g1_34" />
<path d="M431.3,445.7h1V312.6h-1Z" class="g1_34" />
<path d="M432.3,445.7h1.1V288.9h-1.1Z" class="g1_34" />
<path d="M433.4,445.7h1.1V269.9h-1.1Z" class="g1_34" />
<path d="M434.5,445.7h1.1V288.9h-1.1Z" class="g1_34" />
<path d="M435.6,445.7h1.1V312.6h-1.1Z" class="g1_34" />
<path d="M436.7,445.7h1.1v-114h-1.1Z" class="g1_34" />
<path d="M437.8,445.7h1V217.6h-1Z" class="g1_34" />
<path d="M438.8,445.7h1.1V279.4h-1.1Z" class="g1_34" />
<path d="M439.9,445.7H441V274.6h-1.1Z" class="g1_34" />
<path d="M441,445.7h1.1V255.6H441Z" class="g1_34" />
<path d="M442.1,445.7h1.1V303.1h-1.1Z" class="g1_34" />
<path d="M443.2,445.7h1.1V284.1h-1.1Z" class="g1_34" />
<path d="M227.5,445.7v-2.8" class="g2_34" />
<path d="M227.5,208.1v2.7" class="g2_34" />
<path d="M260.3,445.7v-2.8" class="g2_34" />
<path d="M260.3,208.1v2.7" class="g2_34" />
<path d="M293.1,445.7v-2.8" class="g2_34" />
<path d="M293.1,208.1v2.7" class="g2_34" />
<path d="M326,445.7v-2.8" class="g2_34" />
<path d="M326,208.1v2.7" class="g2_34" />
<path d="M358.8,445.7v-2.8" class="g2_34" />
<path d="M358.8,208.1v2.7" class="g2_34" />
<path d="M391.6,445.7v-2.8" class="g2_34" />
<path d="M391.6,208.1v2.7" class="g2_34" />
<path d="M424.4,445.7v-2.8" class="g2_34" />
<path d="M424.4,208.1v2.7" class="g2_34" />
<path d="M217.6,445.7h2.7" class="g2_34" />
<path d="M444.3,445.7h-2.8" class="g2_34" />
<path d="M217.6,398.2h2.7" class="g2_34" />
<path d="M444.3,398.2h-2.8" class="g2_34" />
<path d="M217.6,350.7h2.7" class="g2_34" />
<path d="M444.3,350.7h-2.8" class="g2_34" />
<path d="M217.6,303.1h2.7" class="g2_34" />
<path d="M444.3,303.1h-2.8" class="g2_34" />
<path d="M217.6,255.6h2.7" class="g2_34" />
<path d="M444.3,255.6h-2.8" class="g2_34" />
<path d="M217.6,208.1h2.7" class="g2_34" />
<path d="M444.3,208.1h-2.8" class="g2_34" />
<path d="M217.6,208.1H444.3m0,237.6V208.1M217.6,445.7H444.3m-226.7,0V208.1" class="g3_34" />
<path d="M489.6,445.7H716.3V208.1H489.6Z" class="g0_34" />
<path d="M489.7,445.7h1.4V371h-1.4Z" class="g1_34" />
<path d="M491.1,445.7h1.4V289.6h-1.4Z" class="g1_34" />
<path d="M492.5,445.7h1.4V282.8h-1.4Z" class="g1_34" />
<path d="M493.9,445.7h1.4V269.2h-1.4Z" class="g1_34" />
<path d="M495.3,445.7h1.4V330.3h-1.4Z" class="g1_34" />
<path d="M496.7,445.7h1.4V303.1h-1.4Z" class="g1_34" />
<path d="M498.1,445.7h1.4V296.3h-1.4Z" class="g1_34" />
<path d="M499.5,445.7h1.4V303.1h-1.4Z" class="g1_34" />
<path d="M500.9,445.7h1.4V289.6h-1.4Z" class="g1_34" />
<path d="M502.3,445.7h1.4V269.2h-1.4Z" class="g1_34" />
<path d="M503.7,445.7h1.4V357.4h-1.4Z" class="g1_34" />
<path d="M505.1,445.7h1.4V289.6h-1.4Z" class="g1_34" />
<path d="M506.5,445.7h1.4V282.8h-1.4Z" class="g1_34" />
<path d="M507.9,445.7h1.4V255.6h-1.4Z" class="g1_34" />
<path d="M509.3,445.7h1.4V282.8h-1.4Z" class="g1_34" />
<path d="M510.7,445.7h1.4V262.4h-1.4Z" class="g1_34" />
<path d="M512.1,445.7h1.4V309.9h-1.4Z" class="g1_34" />
<path d="M513.5,445.7h1.4V276h-1.4Z" class="g1_34" />
<path d="M514.9,445.7h1.4v-129h-1.4Z" class="g1_34" />
<path d="M516.3,445.7h1.4V309.9h-1.4Z" class="g1_34" />
<path d="M517.7,445.7h1.4V269.2h-1.4Z" class="g1_34" />
<path d="M519.1,445.7h1.4V296.3h-1.4Z" class="g1_34" />
<path d="M520.5,445.7h1.4V255.6h-1.4Z" class="g1_34" />
<path d="M521.9,445.7h1.4V330.3h-1.4Z" class="g1_34" />
<path d="M523.3,445.7h1.5V309.9h-1.5Z" class="g1_34" />
<path d="M524.8,445.7h1.4V276h-1.4Z" class="g1_34" />
<path d="M526.2,445.7h1.4V343.9h-1.4Z" class="g1_34" />
<path d="M527.6,445.7H529V309.9h-1.4Z" class="g1_34" />
<path d="M529,445.7h1.4V269.2H529Z" class="g1_34" />
<path d="M530.4,445.7h1.4V330.3h-1.4Z" class="g1_34" />
<path d="M531.8,445.7h1.4V282.8h-1.4Z" class="g1_34" />
<path d="M533.2,445.7h1.4v-129h-1.4Z" class="g1_34" />
<path d="M534.6,445.7H536V276h-1.4Z" class="g1_34" />
<path d="M536,445.7h1.4V330.3H536Z" class="g1_34" />
<path d="M537.4,445.7h1.4V303.1h-1.4Z" class="g1_34" />
<path d="M538.8,445.7h1.4V309.9h-1.4Z" class="g1_34" />
<path d="M540.2,445.7h1.4V214.9h-1.4Z" class="g1_34" />
<path d="M541.6,445.7H543V323.5h-1.4Z" class="g1_34" />
<path d="M543,445.7h1.4V323.5H543Z" class="g1_34" />
<path d="M544.4,445.7h1.4V276h-1.4Z" class="g1_34" />
<path d="M545.8,445.7h1.4V255.6h-1.4Z" class="g1_34" />
<path d="M547.2,445.7h1.4v-129h-1.4Z" class="g1_34" />
<path d="M548.6,445.7H550V269.2h-1.4Z" class="g1_34" />
<path d="M550,445.7h1.4v-129H550Z" class="g1_34" />
<path d="M551.4,445.7h1.4V282.8h-1.4Z" class="g1_34" />
<path d="M552.8,445.7h1.4V282.8h-1.4Z" class="g1_34" />
<path d="M554.2,445.7h1.4V323.5h-1.4Z" class="g1_34" />
<path d="M555.6,445.7H557v-129h-1.4Z" class="g1_34" />
<path d="M557,445.7h1.4V337.1H557Z" class="g1_34" />
<path d="M558.4,445.7h1.4V289.6h-1.4Z" class="g1_34" />
<path d="M559.8,445.7h1.4V269.2h-1.4Z" class="g1_34" />
<path d="M561.2,445.7h1.4V309.9h-1.4Z" class="g1_34" />
<path d="M562.6,445.7H564V248.8h-1.4Z" class="g1_34" />
<path d="M564,445.7h1.4V323.5H564Z" class="g1_34" />
<path d="M565.4,445.7h1.4v-129h-1.4Z" class="g1_34" />
<path d="M566.8,445.7h1.4V248.8h-1.4Z" class="g1_34" />
<path d="M568.2,445.7h1.5V242h-1.5Z" class="g1_34" />
<path d="M569.7,445.7h1.4V337.1h-1.4Z" class="g1_34" />
<path d="M571.1,445.7h1.4V282.8h-1.4Z" class="g1_34" />
<path d="M572.5,445.7h1.4V296.3h-1.4Z" class="g1_34" />
<path d="M573.9,445.7h1.4V296.3h-1.4Z" class="g1_34" />
<path d="M575.3,445.7h1.4V323.5h-1.4Z" class="g1_34" />
<path d="M576.7,445.7h1.4V262.4h-1.4Z" class="g1_34" />
<path d="M578.1,445.7h1.4V242h-1.4Z" class="g1_34" />
<path d="M579.5,445.7h1.4V282.8h-1.4Z" class="g1_34" />
<path d="M580.9,445.7h1.4V343.9h-1.4Z" class="g1_34" />
<path d="M582.3,445.7h1.4V323.5h-1.4Z" class="g1_34" />
<path d="M583.7,445.7h1.4V343.9h-1.4Z" class="g1_34" />
<path d="M585.1,445.7h1.4v-95h-1.4Z" class="g1_34" />
<path d="M586.5,445.7h1.4V330.3h-1.4Z" class="g1_34" />
<path d="M587.9,445.7h1.4V296.3h-1.4Z" class="g1_34" />
<path d="M589.3,445.7h1.4V255.6h-1.4Z" class="g1_34" />
<path d="M590.7,445.7h1.4v-95h-1.4Z" class="g1_34" />
<path d="M592.1,445.7h1.4V296.3h-1.4Z" class="g1_34" />
<path d="M593.5,445.7h1.4V296.3h-1.4Z" class="g1_34" />
<path d="M594.9,445.7h1.4v-95h-1.4Z" class="g1_34" />
<path d="M596.3,445.7h1.4V289.6h-1.4Z" class="g1_34" />
<path d="M597.7,445.7h1.4V289.6h-1.4Z" class="g1_34" />
<path d="M599.1,445.7h1.4v-129h-1.4Z" class="g1_34" />
<path d="M600.5,445.7h1.4V242h-1.4Z" class="g1_34" />
<path d="M601.9,445.7h1.4V364.2h-1.4Z" class="g1_34" />
<path d="M603.3,445.7h1.4V330.3h-1.4Z" class="g1_34" />
<path d="M604.7,445.7h1.4V330.3h-1.4Z" class="g1_34" />
<path d="M606.1,445.7h1.4V384.6h-1.4Z" class="g1_34" />
<path d="M607.5,445.7h1.4V364.2h-1.4Z" class="g1_34" />
<path d="M608.9,445.7h1.4V323.5h-1.4Z" class="g1_34" />
<path d="M610.3,445.7h1.4V357.4h-1.4Z" class="g1_34" />
<path d="M611.7,445.7h1.5V323.5h-1.5Z" class="g1_34" />
<path d="M613.2,445.7h1.4V384.6h-1.4Z" class="g1_34" />
<path d="M614.6,445.7H616V391.4h-1.4Z" class="g1_34" />
<path d="M616,445.7h1.4V398.2H616Z" class="g1_34" />
<path d="M617.4,445.7h1.4V405h-1.4Z" class="g1_34" />
<path d="M618.8,445.7h1.4V418.5h-1.4Z" class="g1_34" />
<path d="M620.2,445.7h1.4V425.3h-1.4Z" class="g1_34" />
<path d="M621.6,445.7H623V432.1h-1.4Z" class="g1_34" />
<path d="M623,445.7h1.4V432.1H623Z" class="g1_34" />
<path d="M624.4,445.7h1.4V432.1h-1.4Z" class="g1_34" />
<path d="M628.6,445.7H630v-6.8h-1.4Z" class="g1_34" />
<path d="M489.6,445.7v-2.8" class="g2_34" />
<path d="M489.6,208.1v2.7" class="g2_34" />
<path d="M546.3,445.7v-2.8" class="g2_34" />
<path d="M546.3,208.1v2.7" class="g2_34" />
<path d="M602.9,445.7v-2.8" class="g2_34" />
<path d="M602.9,208.1v2.7" class="g2_34" />
<path d="M659.6,445.7v-2.8" class="g2_34" />
<path d="M659.6,208.1v2.7" class="g2_34" />
<path d="M716.3,445.7v-2.8" class="g2_34" />
<path d="M716.3,208.1v2.7" class="g2_34" />
<path d="M489.6,445.7h2.8" class="g2_34" />
<path d="M716.3,445.7h-2.8" class="g2_34" />
<path d="M489.6,411.8h2.8" class="g2_34" />
<path d="M716.3,411.8h-2.8" class="g2_34" />
<path d="M489.6,377.8h2.8" class="g2_34" />
<path d="M716.3,377.8h-2.8" class="g2_34" />
<path d="M489.6,343.9h2.8" class="g2_34" />
<path d="M716.3,343.9h-2.8" class="g2_34" />
<path d="M489.6,309.9h2.8" class="g2_34" />
<path d="M716.3,309.9h-2.8" class="g2_34" />
<path d="M489.6,276h2.8" class="g2_34" />
<path d="M716.3,276h-2.8" class="g2_34" />
<path d="M489.6,242h2.8" class="g2_34" />
<path d="M716.3,242h-2.8" class="g2_34" />
<path d="M489.6,208.1h2.8" class="g2_34" />
<path d="M716.3,208.1h-2.8" class="g2_34" />
<path d="M489.6,208.1H716.3m0,237.6V208.1M489.6,445.7H716.3m-226.7,0V208.1" class="g3_34" />
</svg>