<?xml version="1.0" encoding="UTF-8" standalone="no"?>
<!DOCTYPE svg PUBLIC "-//W3C//DTD SVG 1.1//EN"
"http://www.w3.org/Graphics/SVG/1.1/DTD/svg11.dtd">
<svg viewBox="0 0 909 1286" version="1.1" xmlns="http://www.w3.org/2000/svg" xmlns:xlink="http://www.w3.org/1999/xlink">
<defs>
<style type="text/css"><![CDATA[
.g0_13{
fill: none;
stroke: #000000;
stroke-width: 0.6080556;
stroke-linecap: butt;
stroke-linejoin: miter;
}
]]></style>
</defs>
<path d="M138.7,173.8h632m-632,22.3v-22m121.8,22v-22m65.3,22v-22m112.2,22v-22m229.9,22v-22m102.8,22v-22m-632,22.3h632m-632,22.4v-22m121.8,22v-22m65.3,22v-22m112.2,22v-22m229.9,22v-22m102.8,22v-22m-632,44.1V218.8m121.8,22.1V218.8m65.3,22.1V218.8M438,240.9V218.8m229.9,22.1V218.8m102.8,22.1V218.8m-632,22.4h632m-632,22.4V241.5m121.8,22.1V241.5m65.3,22.1V241.5M438,263.6V241.5m229.9,22.1V241.5m102.8,22.1V241.5m-632,22.4h632m-507,632.5h382m-382,22.3v-22m121.8,22v-22m141,22v-22m119.2,22v-22M263.7,919h382m-382,22.4v-22m121.8,22v-22m141,22v-22m119.2,22v-22m-382,44.1V941.4m121.8,22.1V941.4m141,22.1V941.4m119.2,22.1V941.4m-382,22.4h382m-382,22.4V964.1m121.8,22.1V964.1m141,22.1V964.1m119.2,22.1V964.1m-382,44.1v-22m121.8,22v-22m141,22v-22m119.2,22v-22m-382,22.3h382" class="g0_13" />
</svg>