<?xml version="1.0" encoding="UTF-8" standalone="no"?>
<!DOCTYPE svg PUBLIC "-//W3C//DTD SVG 1.1//EN"
"http://www.w3.org/Graphics/SVG/1.1/DTD/svg11.dtd">
<svg viewBox="0 0 909 1286" version="1.1" xmlns="http://www.w3.org/2000/svg" xmlns:xlink="http://www.w3.org/1999/xlink">
<defs>
<style type="text/css"><![CDATA[
.g0_68{
fill: #FFFFFF;
}
.g1_68{
fill: #0000FF;
stroke: #000000;
stroke-width: 0.38194445;
stroke-linecap: butt;
stroke-linejoin: round;
}
.g2_68{
stroke: #000000;
stroke-width: 0.38194445;
stroke-linecap: butt;
stroke-linejoin: round;
}
.g3_68{
fill: none;
stroke: #000000;
stroke-width: 0.7638889;
stroke-linecap: square;
stroke-linejoin: round;
}
]]></style>
</defs>
<path d="M255.8,414.1H653.7V108.3H255.8Z" class="g0_68" />
<path d="M298.2,381.7h341v-264h-341Z" class="g0_68" />
<path d="M359.6,215.3c.5,0,1,-.2,1.4,-.6c.3,-.3,.5,-.8,.5,-1.3c0,-.5,-.2,-1,-.5,-1.4c-.4,-.3,-.9,-.5,-1.4,-.5c-.5,0,-1,.2,-1.3,.5c-.4,.4,-.6,.9,-.6,1.4c0,.5,.2,1,.6,1.3c.3,.4,.8,.6,1.3,.6Z" class="g1_68" />
<path d="M366.4,188.9c.5,0,1,-.2,1.4,-.6c.3,-.3,.5,-.8,.5,-1.3c0,-.5,-.2,-1,-.5,-1.4c-.4,-.3,-.9,-.5,-1.4,-.5c-.5,0,-1,.2,-1.3,.5c-.4,.4,-.6,.9,-.6,1.4c0,.5,.2,1,.6,1.3c.3,.4,.8,.6,1.3,.6Z" class="g1_68" />
<path d="M373.2,198.8c.5,0,1,-.2,1.4,-.6c.4,-.3,.6,-.8,.6,-1.3c0,-.5,-.2,-1,-.6,-1.4c-.4,-.3,-.9,-.5,-1.4,-.5c-.5,0,-.9,.2,-1.3,.5c-.4,.4,-.6,.9,-.6,1.4c0,.5,.2,1,.6,1.3c.4,.4,.8,.6,1.3,.6Z" class="g1_68" />
<path d="M376.7,215.3c.5,0,.9,-.2,1.3,-.6c.4,-.3,.6,-.8,.6,-1.3c0,-.5,-.2,-1,-.6,-1.4c-.4,-.3,-.8,-.5,-1.3,-.5c-.6,0,-1,.2,-1.4,.5c-.4,.4,-.6,.9,-.6,1.4c0,.5,.2,1,.6,1.3c.4,.4,.8,.6,1.4,.6Z" class="g1_68" />
<path d="M376.7,231.8c.5,0,.9,-.2,1.3,-.6c.4,-.3,.6,-.8,.6,-1.3c0,-.5,-.2,-1,-.6,-1.4c-.4,-.3,-.8,-.5,-1.3,-.5c-.6,0,-1,.2,-1.4,.5c-.4,.4,-.6,.9,-.6,1.4c0,.5,.2,1,.6,1.3c.4,.4,.8,.6,1.4,.6Z" class="g1_68" />
<path d="M383.5,221.9c.5,0,1,-.2,1.3,-.6c.4,-.3,.6,-.8,.6,-1.3c0,-.5,-.2,-1,-.6,-1.4c-.3,-.3,-.8,-.5,-1.3,-.5c-.5,0,-1,.2,-1.4,.5c-.3,.4,-.5,.9,-.5,1.4c0,.5,.2,1,.5,1.3c.4,.4,.9,.6,1.4,.6Z" class="g1_68" />
<path d="M390.3,198.8c.5,0,1,-.2,1.3,-.6c.4,-.3,.6,-.8,.6,-1.3c0,-.5,-.2,-1,-.6,-1.4c-.3,-.3,-.8,-.5,-1.3,-.5c-.5,0,-1,.2,-1.4,.5c-.3,.4,-.5,.9,-.5,1.4c0,.5,.2,1,.5,1.3c.4,.4,.9,.6,1.4,.6Z" class="g1_68" />
<path d="M393.7,215.3c.5,0,1,-.2,1.4,-.6c.3,-.3,.5,-.8,.5,-1.3c0,-.5,-.2,-1,-.5,-1.4c-.4,-.3,-.9,-.5,-1.4,-.5c-.5,0,-1,.2,-1.3,.5c-.4,.4,-.6,.9,-.6,1.4c0,.5,.2,1,.6,1.3c.3,.4,.8,.6,1.3,.6Z" class="g1_68" />
<path d="M397.1,231.8c.5,0,1,-.2,1.4,-.6c.3,-.3,.5,-.8,.5,-1.3c0,-.5,-.2,-1,-.5,-1.4c-.4,-.3,-.9,-.5,-1.4,-.5c-.5,0,-1,.2,-1.3,.5c-.4,.4,-.6,.9,-.6,1.4c0,.5,.2,1,.6,1.3c.3,.4,.8,.6,1.3,.6Z" class="g1_68" />
<path d="M407.3,248.3c.5,0,1,-.2,1.4,-.6c.4,-.3,.6,-.8,.6,-1.3c0,-.5,-.2,-1,-.6,-1.4c-.4,-.3,-.9,-.5,-1.4,-.5c-.5,0,-.9,.2,-1.3,.5c-.4,.4,-.6,.9,-.6,1.4c0,.5,.2,1,.6,1.3c.4,.4,.8,.6,1.3,.6Z" class="g1_68" />
<path d="M424.4,245c.5,0,1,-.2,1.3,-.6c.4,-.3,.6,-.8,.6,-1.3c0,-.5,-.2,-1,-.6,-1.4c-.3,-.3,-.8,-.5,-1.3,-.5c-.5,0,-1,.2,-1.4,.5c-.3,.4,-.5,.9,-.5,1.4c0,.5,.2,1,.5,1.3c.4,.4,.9,.6,1.4,.6Z" class="g1_68" />
<path d="M438,231.8c.5,0,1,-.2,1.4,-.6c.3,-.3,.5,-.8,.5,-1.3c0,-.5,-.2,-1,-.5,-1.4c-.4,-.3,-.9,-.5,-1.4,-.5c-.5,0,-1,.2,-1.3,.5c-.4,.4,-.6,.9,-.6,1.4c0,.5,.2,1,.6,1.3c.3,.4,.8,.6,1.3,.6Z" class="g1_68" />
<path d="M455.1,235.1c.5,0,1,-.2,1.3,-.6c.4,-.3,.6,-.8,.6,-1.3c0,-.5,-.2,-1,-.6,-1.4c-.3,-.3,-.8,-.5,-1.3,-.5c-.5,0,-1,.2,-1.4,.5c-.3,.4,-.5,.9,-.5,1.4c0,.5,.2,1,.5,1.3c.4,.4,.9,.6,1.4,.6Z" class="g1_68" />
<path d="M465.3,258.2c.5,0,1,-.2,1.4,-.6c.3,-.3,.5,-.8,.5,-1.3c0,-.5,-.2,-1,-.5,-1.4c-.4,-.3,-.9,-.5,-1.4,-.5c-.5,0,-1,.2,-1.3,.5c-.4,.4,-.6,.9,-.6,1.4c0,.5,.2,1,.6,1.3c.3,.4,.8,.6,1.3,.6Z" class="g1_68" />
<path d="M479,231.8c.5,0,.9,-.2,1.3,-.6c.4,-.3,.6,-.8,.6,-1.3c0,-.5,-.2,-1,-.6,-1.4c-.4,-.3,-.8,-.5,-1.3,-.5c-.6,0,-1,.2,-1.4,.5c-.4,.4,-.6,.9,-.6,1.4c0,.5,.2,1,.6,1.3c.4,.4,.8,.6,1.4,.6Z" class="g1_68" />
<path d="M485.8,245c.5,0,1,-.2,1.3,-.6c.4,-.3,.6,-.8,.6,-1.3c0,-.5,-.2,-1,-.6,-1.4c-.3,-.3,-.8,-.5,-1.3,-.5c-.5,0,-1,.2,-1.4,.5c-.3,.4,-.5,.9,-.5,1.4c0,.5,.2,1,.5,1.3c.4,.4,.9,.6,1.4,.6Z" class="g1_68" />
<path d="M513.1,268.1c.5,0,.9,-.2,1.3,-.6c.4,-.3,.6,-.8,.6,-1.3c0,-.5,-.2,-1,-.6,-1.4c-.4,-.3,-.8,-.5,-1.3,-.5c-.6,0,-1,.2,-1.4,.5c-.4,.4,-.6,.9,-.6,1.4c0,.5,.2,1,.6,1.3c.4,.4,.8,.6,1.4,.6Z" class="g1_68" />
<path d="M519.9,245c.5,0,1,-.2,1.3,-.6c.4,-.3,.6,-.8,.6,-1.3c0,-.5,-.2,-1,-.6,-1.4c-.3,-.3,-.8,-.5,-1.3,-.5c-.5,0,-1,.2,-1.4,.5c-.3,.4,-.5,.9,-.5,1.4c0,.5,.2,1,.5,1.3c.4,.4,.9,.6,1.4,.6Z" class="g1_68" />
<path d="M523.3,284.6c.5,0,1,-.2,1.3,-.6c.4,-.3,.6,-.8,.6,-1.3c0,-.5,-.2,-1,-.6,-1.4c-.3,-.3,-.8,-.5,-1.3,-.5c-.5,0,-1,.2,-1.4,.5c-.3,.4,-.5,.9,-.5,1.4c0,.5,.2,1,.5,1.3c.4,.4,.9,.6,1.4,.6Z" class="g1_68" />
<path d="M526.7,248.3c.5,0,1,-.2,1.3,-.6c.4,-.3,.6,-.8,.6,-1.3c0,-.5,-.2,-1,-.6,-1.4c-.3,-.3,-.8,-.5,-1.3,-.5c-.5,0,-1,.2,-1.4,.5c-.3,.4,-.5,.9,-.5,1.4c0,.5,.2,1,.5,1.3c.4,.4,.9,.6,1.4,.6Z" class="g1_68" />
<path d="M530.1,284.6c.5,0,1,-.2,1.4,-.6c.3,-.3,.5,-.8,.5,-1.3c0,-.5,-.2,-1,-.5,-1.4c-.4,-.3,-.9,-.5,-1.4,-.5c-.5,0,-1,.2,-1.3,.5c-.4,.4,-.6,.9,-.6,1.4c0,.5,.2,1,.6,1.3c.3,.4,.8,.6,1.3,.6Z" class="g1_68" />
<path d="M536.9,254.9c.5,0,1,-.2,1.4,-.6c.3,-.3,.5,-.8,.5,-1.3c0,-.5,-.2,-1,-.5,-1.4c-.4,-.3,-.9,-.5,-1.4,-.5c-.5,0,-1,.2,-1.3,.5c-.4,.4,-.6,.9,-.6,1.4c0,.5,.2,1,.6,1.3c.3,.4,.8,.6,1.3,.6Z" class="g1_68" />
<path d="M540.3,278c.5,0,1,-.2,1.4,-.6c.3,-.3,.5,-.8,.5,-1.3c0,-.5,-.2,-1,-.5,-1.4c-.4,-.3,-.9,-.5,-1.4,-.5c-.5,0,-1,.2,-1.3,.5c-.4,.4,-.6,.9,-.6,1.4c0,.5,.2,1,.6,1.3c.3,.4,.8,.6,1.3,.6Z" class="g1_68" />
<path d="M543.7,261.5c.5,0,1,-.2,1.4,-.6c.4,-.3,.6,-.8,.6,-1.3c0,-.5,-.2,-1,-.6,-1.4c-.4,-.3,-.9,-.5,-1.4,-.5c-.5,0,-.9,.2,-1.3,.5c-.4,.4,-.6,.9,-.6,1.4c0,.5,.2,1,.6,1.3c.4,.4,.8,.6,1.3,.6Z" class="g1_68" />
<path d="M547.2,291.2c.5,0,.9,-.2,1.3,-.6c.4,-.3,.6,-.8,.6,-1.3c0,-.5,-.2,-1,-.6,-1.4c-.4,-.3,-.8,-.5,-1.3,-.5c-.6,0,-1,.2,-1.4,.5c-.4,.4,-.6,.9,-.6,1.4c0,.5,.2,1,.6,1.3c.4,.4,.8,.6,1.4,.6Z" class="g1_68" />
<path d="M550.6,245c.5,0,1,-.2,1.3,-.6c.4,-.3,.6,-.8,.6,-1.3c0,-.5,-.2,-1,-.6,-1.4c-.3,-.3,-.8,-.5,-1.3,-.5c-.5,0,-1,.2,-1.4,.5c-.3,.4,-.5,.9,-.5,1.4c0,.5,.2,1,.5,1.3c.4,.4,.9,.6,1.4,.6Z" class="g1_68" />
<path d="M554,231.8c.5,0,1,-.2,1.3,-.6c.4,-.3,.6,-.8,.6,-1.3c0,-.5,-.2,-1,-.6,-1.4c-.3,-.3,-.8,-.5,-1.3,-.5c-.5,0,-1,.2,-1.4,.5c-.3,.4,-.5,.9,-.5,1.4c0,.5,.2,1,.5,1.3c.4,.4,.9,.6,1.4,.6Z" class="g1_68" />
<path d="M560.8,264.8c.5,0,1,-.2,1.3,-.6c.4,-.3,.6,-.8,.6,-1.3c0,-.5,-.2,-1,-.6,-1.4c-.3,-.3,-.8,-.5,-1.3,-.5c-.5,0,-1,.2,-1.4,.5c-.3,.4,-.5,.9,-.5,1.4c0,.5,.2,1,.5,1.3c.4,.4,.9,.6,1.4,.6Z" class="g1_68" />
<path d="M567.6,281.3c.5,0,1,-.2,1.4,-.6c.3,-.3,.5,-.8,.5,-1.3c0,-.5,-.2,-1,-.5,-1.4c-.4,-.3,-.9,-.5,-1.4,-.5c-.5,0,-1,.2,-1.3,.5c-.4,.4,-.6,.9,-.6,1.4c0,.5,.2,1,.6,1.3c.3,.4,.8,.6,1.3,.6Z" class="g1_68" />
<path d="M577.8,264.8c.5,0,1,-.2,1.4,-.6c.4,-.3,.6,-.8,.6,-1.3c0,-.5,-.2,-1,-.6,-1.4c-.4,-.3,-.9,-.5,-1.4,-.5c-.5,0,-.9,.2,-1.3,.5c-.4,.4,-.6,.9,-.6,1.4c0,.5,.2,1,.6,1.3c.4,.4,.8,.6,1.3,.6Z" class="g1_68" />
<path d="M298.2,381.7v-3.1" class="g2_68" />
<path d="M298.2,117.7v3" class="g2_68" />
<path d="M366.4,381.7v-3.1" class="g2_68" />
<path d="M366.4,117.7v3" class="g2_68" />
<path d="M434.6,381.7v-3.1" class="g2_68" />
<path d="M434.6,117.7v3" class="g2_68" />
<path d="M502.8,381.7v-3.1" class="g2_68" />
<path d="M502.8,117.7v3" class="g2_68" />
<path d="M571,381.7v-3.1" class="g2_68" />
<path d="M571,117.7v3" class="g2_68" />
<path d="M639.2,381.7v-3.1" class="g2_68" />
<path d="M639.2,117.7v3" class="g2_68" />
<path d="M298.2,381.7h3.1" class="g2_68" />
<path d="M639.2,381.7h-3" class="g2_68" />
<path d="M298.2,348.7h3.1" class="g2_68" />
<path d="M639.2,348.7h-3" class="g2_68" />
<path d="M298.2,315.7h3.1" class="g2_68" />
<path d="M639.2,315.7h-3" class="g2_68" />
<path d="M298.2,282.7h3.1" class="g2_68" />
<path d="M639.2,282.7h-3" class="g2_68" />
<path d="M298.2,249.7h3.1" class="g2_68" />
<path d="M639.2,249.7h-3" class="g2_68" />
<path d="M298.2,216.7h3.1" class="g2_68" />
<path d="M639.2,216.7h-3" class="g2_68" />
<path d="M298.2,183.7h3.1" class="g2_68" />
<path d="M639.2,183.7h-3" class="g2_68" />
<path d="M298.2,150.7h3.1" class="g2_68" />
<path d="M639.2,150.7h-3" class="g2_68" />
<path d="M298.2,117.7h3.1" class="g2_68" />
<path d="M639.2,117.7h-3" class="g2_68" />
<path d="M298.2,117.7h341m0,264v-264m-341,264h341m-341,0v-264" class="g3_68" />
</svg>