<?xml version="1.0" encoding="UTF-8" standalone="no"?>
<!DOCTYPE svg PUBLIC "-//W3C//DTD SVG 1.1//EN"
"http://www.w3.org/Graphics/SVG/1.1/DTD/svg11.dtd">
<svg viewBox="0 0 909 1286" version="1.1" xmlns="http://www.w3.org/2000/svg" xmlns:xlink="http://www.w3.org/1999/xlink">
<defs>
<style type="text/css"><![CDATA[
.g0_41{
fill: #FFFFFF;
}
.g1_41{
fill: none;
stroke: #000000;
stroke-width: 1.3750001;
stroke-linecap: square;
stroke-linejoin: round;
}
.g2_41{
fill: none;
stroke: #FF0000;
stroke-width: 1.3750001;
stroke-linecap: butt;
stroke-linejoin: round;
stroke-dasharray: 5,5;
}
.g3_41{
fill: none;
stroke: #0000FF;
stroke-width: 1.3750001;
stroke-linecap: square;
stroke-linejoin: round;
}
.g4_41{
fill: none;
stroke: #000000;
stroke-width: 0.68750006;
stroke-linecap: square;
stroke-linejoin: miter;
}
.g5_41{
stroke: #000000;
stroke-width: 0.34375003;
stroke-linecap: butt;
stroke-linejoin: round;
}
.g6_41{
fill: #FFFFFF;
stroke: #000000;
stroke-width: 0.68750006;
stroke-linecap: butt;
stroke-linejoin: miter;
}
.g7_41{
fill: none;
stroke: #000000;
stroke-width: 0.7608333;
stroke-linecap: butt;
stroke-linejoin: miter;
}
]]></style>
</defs>
<path d="M290.6,477.5H623.5V198.3H290.6Z" class="g0_41" />
<path d="M309,445.7H615.9V208.1H309Z" class="g0_41" />
<path d="M309,215.6l16.2,6.2l15.7,6.1l15,6.1l14.5,5.9l13.8,5.9l13.2,5.8l12.6,5.6l11.9,5.6l11.7,5.6l11,5.4l10.8,5.5l10.1,5.4l9.8,5.3l9.2,5.2l8.9,5.2l8.3,5l8,5l7.7,5l7.3,4.9l6.8,4.8l6.4,4.7l6.2,4.6l5.8,4.6l5.5,4.6l5.2,4.5l5,4.4l4.6,4.4l4.3,4.3l3.9,4.1l4,4.4l3.7,4.3l3.4,4.2l3.1,4.1l2.7,3.9l2.8,4.1l2.4,4l2.2,3.7l2.1,4l1.9,3.9l1.5,3.4l1.5,3.9l1.3,3.4l1.2,3.9l.9,3.4l.9,4l.7,3.2l.6,4.3l.3,3l.3,7.3" class="g1_41" />
<path d="M309,445.7l224.3,-.1l11.7,-.1l7.4,-.3l5.2,-.3l4.3,-.4l3.3,-.5l3.1,-.6l2.5,-.6l2.1,-.7l2.2,-.8l1.8,-.9l1.8,-1l1.6,-1l1.5,-1.2l1.6,-1.4l1.5,-1.6l1.5,-1.8l1.2,-1.7l1.3,-2l1.2,-2.1l1.2,-2.5l1.3,-2.7l1.2,-3.1l1.2,-3.5l1.2,-3.9l1.3,-4.5l1.2,-5l1.2,-5.6l1.3,-6.4l1.2,-7.2l1.2,-8.1l1.2,-9.1l1.3,-10.3l1.2,-11.6L608.5,330l1.2,-14.7L611,298.7l1.2,-18.8l1.2,-21.1L614.7,235l1.2,-26.9" class="g2_41" />
<path d="M309,445.3l16.6,-.4l13.5,-.4l11.6,-.5l10.5,-.6l9.8,-.7l9.2,-.9l8.6,-.9l8.6,-1.1l8.6,-1.2l8.9,-1.4L425,435.4l15.9,-3l12,-2.2l7.7,-1.2l6.4,-.9l5.6,-.6l5.2,-.5l4.9,-.3h9.2l4.6,.2l4.3,.4l4.6,.5l4.6,.7l4.6,.8l4.9,1.1l5.5,1.3l6.5,1.7l10.7,3.1l9.2,2.5l6.2,1.6l5.5,1.2l5.2,1.1l4.9,.8l4.9,.6l5.3,.5l5.5,.4l6.1,.3l7.4,.1l10.7,.1h2.8" class="g3_41" />
<path d="M309,208.1H615.9m0,237.6V208.1M309,445.7H615.9m-306.9,0V208.1" class="g4_41" />
<path d="M309,445.7v-2.8" class="g5_41" />
<path d="M309,208.1v2.7" class="g5_41" />
<path d="M360.1,445.7v-2.8" class="g5_41" />
<path d="M360.1,208.1v2.7" class="g5_41" />
<path d="M411.3,445.7v-2.8" class="g5_41" />
<path d="M411.3,208.1v2.7" class="g5_41" />
<path d="M462.4,445.7v-2.8" class="g5_41" />
<path d="M462.4,208.1v2.7" class="g5_41" />
<path d="M513.6,445.7v-2.8" class="g5_41" />
<path d="M513.6,208.1v2.7" class="g5_41" />
<path d="M564.7,445.7v-2.8" class="g5_41" />
<path d="M564.7,208.1v2.7" class="g5_41" />
<path d="M615.9,445.7v-2.8" class="g5_41" />
<path d="M615.9,208.1v2.7" class="g5_41" />
<path d="M309,445.7h2.7" class="g5_41" />
<path d="M615.9,445.7h-2.8" class="g5_41" />
<path d="M309,416h2.7" class="g5_41" />
<path d="M615.9,416h-2.8" class="g5_41" />
<path d="M309,386.3h2.7" class="g5_41" />
<path d="M615.9,386.3h-2.8" class="g5_41" />
<path d="M309,356.6h2.7" class="g5_41" />
<path d="M615.9,356.6h-2.8" class="g5_41" />
<path d="M309,326.9h2.7" class="g5_41" />
<path d="M615.9,326.9h-2.8" class="g5_41" />
<path d="M309,297.2h2.7" class="g5_41" />
<path d="M615.9,297.2h-2.8" class="g5_41" />
<path d="M309,267.5h2.7" class="g5_41" />
<path d="M615.9,267.5h-2.8" class="g5_41" />
<path d="M309,237.8h2.7" class="g5_41" />
<path d="M615.9,237.8h-2.8" class="g5_41" />
<path d="M309,208.1h2.7" class="g5_41" />
<path d="M615.9,208.1h-2.8" class="g5_41" />
<path d="M483.2,273.9H609.3V214.7H483.2Z" class="g6_41" />
<path d="M492.4,224.6h18.5" class="g1_41" />
<path d="M492.4,243h18.5" class="g2_41" />
<path d="M492.4,261.4h18.5" class="g3_41" />
<path d="M183.1,640.2H731m-547.6,9.1v-8.7m547.2,8.7v-8.7M183.4,666V649.3M730.6,666V649.3M183.4,682.8V666m547.2,16.8V666M183.4,699.5V682.8m547.2,16.7V682.8M183.4,716.2V699.5m547.2,16.7V699.5M183.4,733V716.2M730.6,733V716.2M183.4,749.7V733m547.2,16.7V733M183.4,766.5V749.7m547.2,16.8V749.7M183.4,783.2V766.5m547.2,16.7V766.5M183.4,800V783.2M730.6,800V783.2M183.4,816.7V800m547.2,16.7V800M183.4,833.4V816.7m547.2,16.7V816.7M183.4,850.2V833.4m547.2,16.8V833.4M183.4,866.9V850.2m547.2,16.7V850.2M183.4,883.7V866.9m547.2,16.8V866.9M183.4,900.4V883.7m547.2,16.7V883.7M183.4,917.2V900.4m547.2,16.8V900.4M183.4,933.9V917.2m547.2,16.7V917.2M183.4,950.6V933.9m547.2,16.7V933.9M183.4,967.4V950.6m547.2,16.8V950.6M183.4,984.1V967.4m547.2,16.7V967.4m-547.2,33.5V984.1m547.2,16.8V984.1m-547.2,33.5v-16.7m547.2,16.7v-16.7m-547.2,33.5v-16.8m547.2,16.8v-16.8m-547.2,33.5v-16.7m547.2,16.7v-16.7" class="g7_41" />
</svg>