<?xml version="1.0" encoding="UTF-8" standalone="no"?>
<!DOCTYPE svg PUBLIC "-//W3C//DTD SVG 1.1//EN"
"http://www.w3.org/Graphics/SVG/1.1/DTD/svg11.dtd">
<svg viewBox="0 0 909 1286" version="1.1" xmlns="http://www.w3.org/2000/svg" xmlns:xlink="http://www.w3.org/1999/xlink">
<defs>
<style type="text/css"><![CDATA[
.g0_45{
fill: none;
stroke: #000000;
stroke-width: 0.6080556;
stroke-linecap: butt;
stroke-linejoin: miter;
}
]]></style>
</defs>
<path d="M138.8,930.9H770.7M138.8,953.2v-22m159.2,22v-22m65.3,22v-22m112.3,22v-22m192.2,22v-22m102.9,22v-22M138.8,975.3V953.2M298,975.3V953.2m65.3,22.1V953.2m112.3,22.1V953.2m192.2,22.1V953.2m102.9,22.1V953.2M138.8,975.6H770.7M138.8,998V975.9M298,998V975.9M363.3,998V975.9M475.6,998V975.9M667.8,998V975.9M770.7,998V975.9m-631.9,44.2V998M298,1020.1V998m65.3,22.1V998m112.3,22.1V998m192.2,22.1V998m102.9,22.1V998m-631.9,44.1v-22m159.2,22v-22m65.3,22v-22m112.3,22v-22m192.2,22v-22m102.9,22v-22m-631.9,44.1v-22.1M298,1064.2v-22.1m65.3,22.1v-22.1m112.3,22.1v-22.1m192.2,22.1v-22.1m102.9,22.1v-22.1m-631.9,22.4H770.7m-631.9,22.4v-22.1M298,1086.9v-22.1m65.3,22.1v-22.1m112.3,22.1v-22.1m192.2,22.1v-22.1m102.9,22.1v-22.1m-631.9,22.4H770.7m-662.4,55.4H385.4" class="g0_45" />
</svg>