<?xml version="1.0" encoding="UTF-8" standalone="no"?>
<!DOCTYPE svg PUBLIC "-//W3C//DTD SVG 1.1//EN"
"http://www.w3.org/Graphics/SVG/1.1/DTD/svg11.dtd">
<svg viewBox="0 0 909 1286" version="1.1" xmlns="http://www.w3.org/2000/svg" xmlns:xlink="http://www.w3.org/1999/xlink">
<defs>
<style type="text/css"><![CDATA[
.g0_9{
fill: #FFFFFF;
stroke: #000000;
stroke-width: 1.9676011;
stroke-linecap: butt;
stroke-linejoin: miter;
stroke-miterlimit: 4;
}
.g1_9{
fill: none;
stroke: #000000;
stroke-width: 3.6666667;
stroke-linecap: butt;
stroke-linejoin: miter;
stroke-miterlimit: 4;
}
.g2_9{
fill: none;
stroke: #000000;
stroke-width: 1.9317285;
stroke-linecap: butt;
stroke-linejoin: miter;
stroke-miterlimit: 4;
}
.g3_9{
stroke: #000000;
stroke-width: 0.31150216;
stroke-linecap: butt;
stroke-linejoin: miter;
stroke-miterlimit: 4;
}
.g4_9{
fill: none;
stroke: #000000;
stroke-width: 1.9030643;
stroke-linecap: butt;
stroke-linejoin: miter;
stroke-miterlimit: 4;
}
.g5_9{
stroke: #000000;
stroke-width: 0.34157345;
stroke-linecap: butt;
stroke-linejoin: miter;
stroke-miterlimit: 4;
}
.g6_9{
fill: none;
stroke: #000000;
stroke-width: 1.8174841;
stroke-linecap: butt;
stroke-linejoin: miter;
stroke-miterlimit: 4;
}
.g7_9{
stroke: #000000;
stroke-width: 0.15277778;
stroke-linecap: butt;
stroke-linejoin: miter;
stroke-miterlimit: 4;
}
.g8_9{
fill: #FFFFFF;
stroke: #000000;
stroke-width: 3.6605344;
stroke-linecap: butt;
stroke-linejoin: miter;
stroke-miterlimit: 4;
}
.g9_9{
fill: none;
stroke: #000000;
stroke-width: 0.6080556;
stroke-linecap: butt;
stroke-linejoin: miter;
}
]]></style>
</defs>
<path d="M516.6,553.3c0,12.5,-30.2,22.7,-67.5,22.7c-37.2,0,-67.4,-10.2,-67.4,-22.7c0,-12.5,30.2,-22.7,67.4,-22.7c37.3,0,67.5,10.2,67.5,22.7Z" class="g0_9" />
<path d="M236.5,687.4H656.6M236.5,704V670.8M656.6,704V670.8" class="g1_9" />
<path d="M613.1,571.1l38.7,113.5" class="g2_9" />
<path fill-rule="evenodd" d="M649.3,677.3l-4.9,-2.4l8,11.5l-.7,-14Z" class="g3_9" />
<path d="M314.1,579L273.7,684.2" class="g4_9" />
<path fill-rule="evenodd" d="M276.4,677.1l-2.2,-4.9L273,686l8.3,-11Z" class="g5_9" />
<path d="M446.7,575.8L456,684.7" class="g6_9" />
<path fill-rule="evenodd" d="M455.4,677.4l-4,-3.3l4.7,12.4l2.6,-13Z" class="g7_9" />
<path d="M377.8,555.7c0,12.5,-30.2,22.7,-67.5,22.7c-37.2,0,-67.4,-10.2,-67.4,-22.7c0,-12.5,30.2,-22.7,67.4,-22.7c37.3,0,67.5,10.2,67.5,22.7Z" class="g0_9" />
<path d="M677.9,550.7c0,12.5,-30.2,22.7,-67.4,22.7C573.2,573.4,543,563.2,543,550.7C543,538.2,573.2,528,610.5,528c37.2,0,67.4,10.2,67.4,22.7Z" class="g0_9" />
<path d="M236.5,686.9H656v16.2H236.5V686.9Z" class="g8_9" />
<image x="235" y="685" width="422" height="20" xlink:href="shade/1.png" />
<path d="M132.9,889.2H776.6M132.9,911.6V889.5m643.7,22.1V889.5M132.9,911.9H776.6M108.3,1110.4H385.4" class="g9_9" />
</svg>