<?xml version="1.0" encoding="UTF-8" standalone="no"?>
<!DOCTYPE svg PUBLIC "-//W3C//DTD SVG 1.1//EN"
"http://www.w3.org/Graphics/SVG/1.1/DTD/svg11.dtd">
<svg viewBox="0 0 909 1286" version="1.1" xmlns="http://www.w3.org/2000/svg" xmlns:xlink="http://www.w3.org/1999/xlink">
<defs>
<clipPath id="c0_35"><path d="M267.9,536.7V219.9H677.1V536.7Z" /></clipPath>
<style type="text/css"><![CDATA[
.g0_35{
fill: #FFFFFF;
}
.g1_35{
fill: none;
stroke: #0000FF;
stroke-width: 1.8333334;
stroke-linecap: butt;
stroke-linejoin: round;
stroke-dasharray: 6,6;
}
.g2_35{
fill: none;
stroke: #FF0000;
stroke-width: 1.8333334;
stroke-linecap: butt;
stroke-linejoin: round;
stroke-dasharray: 6,6;
}
.g3_35{
fill: none;
stroke: #008000;
stroke-width: 1.8333334;
stroke-linecap: butt;
stroke-linejoin: round;
stroke-dasharray: 6,6;
}
.g4_35{
fill: none;
stroke: #0000FF;
stroke-width: 1.8333334;
stroke-linecap: square;
stroke-linejoin: round;
stroke-opacity: 0.5;
}
.g5_35{
fill: none;
stroke: #FF0000;
stroke-width: 1.8333334;
stroke-linecap: square;
stroke-linejoin: round;
stroke-opacity: 0.5;
}
.g6_35{
fill: none;
stroke: #008000;
stroke-width: 1.8333334;
stroke-linecap: square;
stroke-linejoin: round;
stroke-opacity: 0.5;
}
.g7_35{
stroke: #000000;
stroke-width: 0.45833334;
stroke-linecap: butt;
stroke-linejoin: round;
}
.g8_35{
fill: none;
stroke: #000000;
stroke-width: 0.9166667;
stroke-linecap: square;
stroke-linejoin: round;
}
.g9_35{
fill: #FFFFFF;
stroke: #000000;
stroke-width: 0.9166667;
stroke-linecap: square;
stroke-linejoin: round;
}
]]></style>
</defs>
<path d="M225.8,571.1H683.7V196.6H225.8Z" class="g0_35" />
<path d="M267.9,536.7H677.1V219.9H267.9Z" class="g0_35" />
<g clip-path="url(#c0_35)">
<path d="M265.9,526.2H679.1" class="g1_35" />
<path d="M265.9,529.6l165.7,.1H605.5l73.6,-.1" class="g2_35" />
<path d="M265.9,534.9l8.1,-.8l8.2,-.9l6.2,-.9l6.1,-1.1l6.1,-1.3l6.2,-1.6l6.1,-1.8l6.1,-2.1l4.1,-1.6l4.1,-1.7l4.1,-1.9l4.1,-2l4.1,-2.2l4.1,-2.4l4.1,-2.6l4.1,-2.7l4.1,-2.9l6.1,-4.7l6.2,-5l6.1,-5.4l6.1,-5.6l8.2,-7.9l10.2,-10.2l12.3,-12.3l6.2,-5.9l6.1,-5.7l4.1,-3.5l4.1,-3.4l4.1,-3.1l4.1,-2.9l4.1,-2.7l4,-2.3l4.1,-2l4.1,-1.7l4.1,-1.3l4.1,-.9l4.1,-.6l4.1,-.2l4.1,.2l4.1,.6l4.1,.9l4.1,1.3l4.1,1.7l4,2l4.1,2.3l4.1,2.7l4.1,2.9l4.1,3.1l4.1,3.4l6.1,5.4l6.2,5.7l8.2,8.1l22.5,22.4l6.1,5.8l6.2,5.5l6.1,5.3l6.1,4.9l6.2,4.6l4.1,2.8l4,2.6l4.1,2.5l4.1,2.3l4.1,2.1l4.1,2l4.1,1.8l4.1,1.7l6.1,2.2l6.2,1.9l6.1,1.6l6.2,1.4l6.1,1.1l6.1,1l6.2,.8l8.2,.8l4,.4" class="g3_35" />
<path d="M265.9,536.7l77.7,-.1l10.2,-.2l6.2,-.3l4.1,-.3l4.1,-.5l4,-.7l4.1,-1l2.1,-.7l2,-.8l2.1,-.9l2,-1l2.1,-1.2l2,-1.4l2.1,-1.6l2,-1.9l2,-2.1l2.1,-2.4l2,-2.7l2.1,-3.1l2,-3.4l2.1,-3.7l2,-4.2l2.1,-4.7l2,-5l2.1,-5.5l2,-6l2.1,-6.5l2,-6.9l2,-7.5l2.1,-7.8l4.1,-17.1L431.6,417l4.1,-19.7l12.2,-60.5L452,318.4l2.1,-8.4l2,-7.9l2.1,-7.1l2,-6.4l2.1,-5.5l2,-4.6l2.1,-3.7l2,-2.6l2.1,-1.6l2,-.5l2,.5l2.1,1.6l2,2.6l2.1,3.7l2,4.6l2.1,5.5l2,6.4l2.1,7.1l2,7.9l2.1,8.4l4,18.4l4.1,19.8l10.3,50.6l4.1,19.2l4.1,17.8l2,8.4l2,7.8l2.1,7.5l2,6.9l2.1,6.5l2,6l2.1,5.5l2,5l2.1,4.7l2,4.2l2.1,3.7l2,3.4l2.1,3.1l2,2.7l2,2.4l2.1,2.1l2,1.9l2.1,1.6l2,1.4l2.1,1.2l2,1l2.1,.9l2,.8l4.1,1.2l4.1,.9l4.1,.6l4.1,.4l6.1,.3l8.2,.3l12.3,.1h69.5" class="g4_35" />
<path d="M265.9,536.7l77.7,-.1l10.2,-.2l6.2,-.3l4.1,-.3l4.1,-.5l4,-.7l4.1,-1.1l2.1,-.6l2,-.8l2.1,-.9l2,-1l2.1,-1.2l2,-1.5l2.1,-1.6l2,-1.8l2,-2.1l2.1,-2.4l2,-2.8l2.1,-3l2,-3.4l2.1,-3.8l2,-4.2l2.1,-4.6l2,-5.1l2.1,-5.5l2,-6l2.1,-6.5l2,-6.9l2,-7.4l2.1,-7.9l4.1,-17l4.1,-18.6l4.1,-19.6l12.2,-60.4L452,318.5l2.1,-8.5l2,-7.8l2.1,-7.1l2,-6.4l2.1,-5.5l2,-4.6l2.1,-3.6l2,-2.7l2.1,-1.6l2,-.5l2,.5l2.1,1.6l2,2.7l2.1,3.6l2,4.6l2.1,5.5l2,6.4l2.1,7.1l2,7.8l2.1,8.5l4,18.4l4.1,19.7l10.3,50.6l4.1,19.2l4.1,17.8l2,8.3l2,7.9l2.1,7.4l2,6.9l2.1,6.5l2,6l2.1,5.5l2,5.1l2.1,4.6l2,4.2l2.1,3.8l2,3.4l2.1,3l2,2.8l2,2.4l2.1,2.1l2,1.8l2.1,1.6l2,1.5l2.1,1.2l2,1l2.1,.9l2,.8l4.1,1.2l4.1,.9l4.1,.5l4.1,.5l6.1,.3l8.2,.3l12.3,.1h69.5" class="g5_35" />
<path d="M265.9,536.7l87.9,-.1l8.2,-.1l6.2,-.3l4,-.4l4.1,-.5l4.1,-.8l2.1,-.5l2,-.7l2.1,-.8l2,-.9l2.1,-1.1l2,-1.3l2,-1.5l2.1,-1.8l2,-2.1l2.1,-2.4l2,-2.8l2.1,-3.2l2,-3.6l2.1,-4.1l2,-4.5l2.1,-5.2l2,-5.7l2.1,-6.2l2,-6.9l2,-7.5l2.1,-8.2l2,-8.7l2.1,-9.4l2,-9.9L433.6,414l4.1,-23.2L452,307l2.1,-10.7l2,-10.1l2.1,-9.1l2,-8.3l2.1,-7.1l2,-6l2.1,-4.8l2,-3.5l2.1,-2l2,-.7l2,.7l2.1,2l2,3.5l2.1,4.8l2,6l2.1,7.1l2,8.3l2.1,9.1l2,10.1L493,307l4,23l14.4,84l4.1,21.5l2,9.9l2.1,9.4l2,8.7l2,8.2l2.1,7.5l2,6.9l2.1,6.2l2,5.7l2.1,5.2l2,4.5l2.1,4.1l2,3.6l2.1,3.2l2,2.8l2.1,2.4l2,2.1l2,1.8l2.1,1.5l2,1.3l2.1,1.1l2,.9l2.1,.8l2,.7l4.1,.9l4.1,.7l4.1,.4l6.1,.4l8.2,.2l14.3,.1h75.7" class="g6_35" />
</g>
<path d="M267.9,536.7V533" class="g7_35" />
<path d="M267.9,219.9v3.7" class="g7_35" />
<path d="M370.2,536.7V533" class="g7_35" />
<path d="M370.2,219.9v3.7" class="g7_35" />
<path d="M472.5,536.7V533" class="g7_35" />
<path d="M472.5,219.9v3.7" class="g7_35" />
<path d="M574.8,536.7V533" class="g7_35" />
<path d="M574.8,219.9v3.7" class="g7_35" />
<path d="M267.9,536.7h3.7" class="g7_35" />
<path d="M677.1,536.7h-3.7" class="g7_35" />
<path d="M267.9,483.9h3.7" class="g7_35" />
<path d="M677.1,483.9h-3.7" class="g7_35" />
<path d="M267.9,431.1h3.7" class="g7_35" />
<path d="M677.1,431.1h-3.7" class="g7_35" />
<path d="M267.9,378.3h3.7" class="g7_35" />
<path d="M677.1,378.3h-3.7" class="g7_35" />
<path d="M267.9,325.5h3.7" class="g7_35" />
<path d="M677.1,325.5h-3.7" class="g7_35" />
<path d="M267.9,272.7h3.7" class="g7_35" />
<path d="M677.1,272.7h-3.7" class="g7_35" />
<path d="M267.9,219.9h3.7" class="g7_35" />
<path d="M677.1,219.9h-3.7" class="g7_35" />
<path d="M267.9,219.9H677.1m0,316.8V219.9M267.9,536.7H677.1m-409.2,0V219.9" class="g8_35" />
<path d="M555.7,304.2H668.3V228.7H555.7v75.5Z" class="g9_35" />
<path d="M568.1,241.9h24.6" class="g1_35" />
<path d="M568.1,266.4h24.6" class="g2_35" />
<path d="M568.1,291h24.6" class="g3_35" />
</svg>