<?xml version="1.0" encoding="UTF-8" standalone="no"?>
<!DOCTYPE svg PUBLIC "-//W3C//DTD SVG 1.1//EN"
"http://www.w3.org/Graphics/SVG/1.1/DTD/svg11.dtd">
<svg viewBox="0 0 909 1286" version="1.1" xmlns="http://www.w3.org/2000/svg" xmlns:xlink="http://www.w3.org/1999/xlink">
<defs>
<style type="text/css"><![CDATA[
.g0_64{
fill: none;
stroke: #000000;
stroke-width: 0.6080556;
stroke-linecap: butt;
stroke-linejoin: miter;
}
]]></style>
</defs>
<path d="M108.6,132.7V112m692.3,20.7V112M108.6,153.4V132.7m692.3,20.7V132.7M108.6,174.1V153.4m692.3,20.7V153.4M108.6,194.8V174.1m692.3,20.7V174.1M108.6,215.5V194.8m692.3,20.7V194.8M108.6,236.2V215.5m692.3,20.7V215.5M108.6,256.9V236.2m692.3,20.7V236.2M108.6,277.6V256.9m692.3,20.7V256.9M108.6,298.3V277.6m692.3,20.7V277.6M108.6,319V298.3M800.9,319V298.3M108.6,339.7V319m692.3,20.7V319M108.6,360.4V339.7m692.3,20.7V339.7M108.6,381.1V360.4m692.3,20.7V360.4M108.6,401.8V381.1m692.3,20.7V381.1M108.6,422.5V401.8m692.3,20.7V401.8M108.6,443.2V422.5m692.3,20.7V422.5M108.6,463.9V443.2m692.3,20.7V443.2M108.6,484.6V463.9m692.3,20.7V463.9M108.6,505.3V484.6m692.3,20.7V484.6M108.6,526V505.3M800.9,526V505.3M108.6,546.7V526m692.3,20.7V526M108.6,567.4V546.7m692.3,20.7V546.7M108.6,588.1V567.4m692.3,20.7V567.4M108.6,608.8V588.1m692.3,20.7V588.1M108.6,629.5V608.8m692.3,20.7V608.8M108.6,650.2V629.5m692.3,20.7V629.5M108.6,670.9V650.2m692.3,20.7V650.2M108.6,691.6V670.9m692.3,20.7V670.9M108.6,712.3V691.6m692.3,20.7V691.6M108.6,733V712.3M800.9,733V712.3M108.6,753.7V733m692.3,20.7V733M108.6,774.4V753.7m692.3,20.7V753.7M108.6,795.1V774.4m692.3,20.7V774.4M108.6,803.8v-8.7m692.3,8.7v-8.7m-692.6,9H801.2M184.1,883.3h5.7m-5.7,66.2h5.7" class="g0_64" />
</svg>