<?xml version="1.0" encoding="UTF-8" standalone="no"?>
<!DOCTYPE svg PUBLIC "-//W3C//DTD SVG 1.1//EN"
"http://www.w3.org/Graphics/SVG/1.1/DTD/svg11.dtd">
<svg viewBox="0 0 909 1286" version="1.1" xmlns="http://www.w3.org/2000/svg" xmlns:xlink="http://www.w3.org/1999/xlink">
<defs>
<clipPath id="c0_33"><path d="M263.3,448.4V131.6H672.5V448.4Z" /></clipPath>
<style type="text/css"><![CDATA[
.g0_33{
fill: #FFFFFF;
}
.g1_33{
fill: none;
stroke: #0000FF;
stroke-width: 1.8333334;
stroke-linecap: butt;
stroke-linejoin: round;
stroke-dasharray: 6,6;
}
.g2_33{
fill: none;
stroke: #FF0000;
stroke-width: 1.8333334;
stroke-linecap: butt;
stroke-linejoin: round;
stroke-dasharray: 6,6;
}
.g3_33{
fill: none;
stroke: #008000;
stroke-width: 1.8333334;
stroke-linecap: butt;
stroke-linejoin: round;
stroke-dasharray: 6,6;
}
.g4_33{
fill: none;
stroke: #0000FF;
stroke-width: 1.8333334;
stroke-linecap: square;
stroke-linejoin: round;
}
.g5_33{
fill: none;
stroke: #FF0000;
stroke-width: 1.8333334;
stroke-linecap: square;
stroke-linejoin: round;
}
.g6_33{
fill: none;
stroke: #008000;
stroke-width: 1.8333334;
stroke-linecap: square;
stroke-linejoin: round;
}
.g7_33{
stroke: #000000;
stroke-width: 0.45833334;
stroke-linecap: butt;
stroke-linejoin: round;
}
.g8_33{
fill: none;
stroke: #000000;
stroke-width: 0.9166667;
stroke-linecap: square;
stroke-linejoin: round;
}
.g9_33{
fill: #FFFFFF;
stroke: #000000;
stroke-width: 0.9166667;
stroke-linecap: square;
stroke-linejoin: round;
}
.g10_33{
fill: none;
stroke: #000000;
stroke-width: 0.7302778;
stroke-linecap: butt;
stroke-linejoin: miter;
}
]]></style>
</defs>
<path d="M221.2,482.8H688.3V108.3H221.2Z" class="g0_33" />
<path d="M263.3,448.4H672.5V131.6H263.3Z" class="g0_33" />
<g clip-path="url(#c0_33)">
<path d="M263.3,422H672.5" class="g1_33" />
<path d="M263.3,171.9l.4,80.9l.4,35.8l.5,21.4l.4,14.5l.8,19.1l.8,12.3l.8,8.7l.8,6.7l.9,5.2l.8,4.3l1.2,5.2l1.2,4.1l1.3,3.4l1.2,2.9l1.2,2.4l1.6,2.7l1.7,2.3l1.6,2l2.1,2.1l2,1.9l2.5,1.8l2.4,1.6l2.9,1.6l3.3,1.6l3.2,1.3L303,419l4.1,1.3l4.9,1.2l5.3,1.2l6.2,1.1l6.9,1.1l8.2,1l9.4,1l10.7,.9l12.2,.8l14,.7l15.9,.7l18,.4l20.1,.4l21.7,.2l22.1,-.1l21.6,-.2l20.1,-.4l18,-.6l16,-.7l13.5,-.8l11.8,-.9l10.3,-1l8.6,-1l7.7,-1.1l6.6,-1.2l5.7,-1.2l4.9,-1.2l4.5,-1.3l4.1,-1.4l3.7,-1.5l3.3,-1.6l2.8,-1.6l2.5,-1.6l2.4,-1.8l2.1,-1.9l2,-2.1l1.7,-2l1.6,-2.3l1.6,-2.7l1.3,-2.4l1.2,-2.9l1.2,-3.4l1.3,-4.1l.8,-3.3l.8,-3.9l.8,-4.8l.8,-5.8l.8,-7.6l.9,-10.3l.8,-15l.4,-10.8l.4,-14.5l.4,-21.4l.4,-35.8l.4,-80.9" class="g2_33" />
<path d="M263.3,448.4L411,448.3l4.1,-.2l2.9,-.3l2,-.4l1.7,-.5l1.6,-.8l1.7,-1l1.2,-.9l1.2,-1.2l1.2,-1.6l1.3,-1.8l1.2,-2.3l1.2,-2.7l1.3,-3.2l1.2,-3.9L436,423l1.2,-5.3l1.3,-6.1l1.2,-6.9L441.3,394L443,381.7l1.6,-14.1l1.6,-15.8L448.3,330l2.4,-28.9l8.2,-99l1.7,-16.3l1.2,-10.6l1.2,-9l1.2,-7.2l.9,-3.8l.8,-2.8l.8,-1.9l.4,-.6l.4,-.4l.4,-.1l.4,.1l.4,.4l.5,.6l.4,.8l.8,2.4l.8,3.3l.8,4.2l.8,5l1.3,9l1.2,10.6l1.6,16.3l2.1,23l2.8,35.2l4.5,55.6l2.5,27.5l2,20.4l1.7,14.5l1.6,12.8l1.7,11.1l1.6,9.4l1.2,6.1l1.2,5.3l1.3,4.5l1.2,3.9l1.2,3.2l1.3,2.7l1.2,2.3l1.2,1.8l1.2,1.6l1.3,1.2l1.2,.9l1.6,1l1.7,.8l1.6,.5l2,.4l2.5,.3l3.7,.2l6.1,.1H672.5" class="g3_33" />
<path d="M263.3,448.4l3.3,-.1l3.3,-.3l3.7,-.5l3.6,-.7l4.1,-1l4.1,-1.3l4.5,-1.5l4.9,-2l5.8,-2.4l6.5,-3.1l7.8,-3.9l12.3,-6.3l15.1,-7.9l8.6,-4.2l7.4,-3.4l6.9,-3l6.2,-2.4l6.1,-2.2l5.7,-1.8l5.7,-1.7l5.8,-1.4l5.3,-1.1l5.3,-.9l5.3,-.7l5.4,-.5l5.3,-.3l5.3,-.1l5.3,.1l5.7,.3l5.8,.5l5.7,.7l6.1,1l6.2,1.2l6.5,1.4l7,1.8l7.3,2.1l7.8,2.5l8.6,2.9l10.2,3.7l14,5.3l25.7,9.8l10.7,3.8l9.4,3.2l8.6,2.6l7.8,2.2l7.3,1.9l7.4,1.7l7.4,1.5L614,445l7.4,1.1l7.3,.8l7.4,.6l7.8,.5l8.6,.3l10.2,.1h9.8" class="g4_33" />
<path d="M263.3,448.4l1.7,-.1l2.4,-.5l2.9,-.9l3.7,-1.2l4.1,-1.7l4.9,-2.2l6.5,-3.2l9.4,-4.8l19.7,-10.1l8.6,-4.2l7.7,-3.5l7,-3l6.5,-2.5l6.6,-2.4l6.1,-2l6.2,-1.8l6.1,-1.6l6.1,-1.4l6.2,-1.1l6.1,-1l6.2,-.7l6.1,-.5l6.1,-.3l6.2,-.1h6.1l6.6,.3l6.5,.5l6.5,.7l7,1l7.4,1.2l7.3,1.4l7.8,1.7l8.6,2.1l9.4,2.5l10.2,3l12.3,3.7l18,5.7l24.2,7.7l12.7,3.8l10.6,3l9.4,2.5l9,2.1l8.6,1.8l8.2,1.5l7.8,1.3l7.7,1l7.8,.9l7.8,.6l8.2,.5l8.6,.2l9.8,.1h2" class="g5_33" />
<path d="M263.3,448.4l147.3,-.1l4.1,-.2l2.9,-.3l2,-.4l1.7,-.6l1.6,-.7l1.2,-.7l1.3,-1l1.2,-1.1l1.2,-1.5l1.3,-1.8l1.2,-2.2l1.2,-2.7l1.2,-3.2l1.3,-3.8l1.2,-4.5l1.2,-5.3l1.2,-6.1l1.3,-6.9l1.2,-8l1.6,-12l1.7,-13.9L445,355.8l2.1,-21.9l2,-24l3.3,-41.4L456.5,217l2,-23l1.7,-16l1.2,-10.3l1.2,-8.4l.8,-4.6l.8,-3.7l.9,-2.7l.8,-1.8l.4,-.5l.4,-.2h.4l.4,.2l.4,.5l.4,.7l.9,2.2l.8,3.1l.8,4.1l.8,4.9l1.2,9l1.3,10.7l1.6,16.6l2,23.4l2.9,36l4.5,56.9l2.5,28.2l2,20.9l1.6,14.8l1.7,13l1.6,11.3l1.7,9.5l1.2,6.1l1.2,5.3l1.2,4.6l1.3,3.8l1.2,3.3l1.2,2.7l1.3,2.2l1.2,1.9l1.2,1.4l1.2,1.2l1.3,1l1.6,.9l1.6,.7l1.7,.5l2,.4l2.9,.4l3.7,.1l6.5,.1H672.5" class="g6_33" />
</g>
<path d="M263.3,448.4v-3.6" class="g7_33" />
<path d="M263.3,131.6v3.7" class="g7_33" />
<path d="M345.2,448.4v-3.6" class="g7_33" />
<path d="M345.2,131.6v3.7" class="g7_33" />
<path d="M427,448.4v-3.6" class="g7_33" />
<path d="M427,131.6v3.7" class="g7_33" />
<path d="M508.8,448.4v-3.6" class="g7_33" />
<path d="M508.8,131.6v3.7" class="g7_33" />
<path d="M590.7,448.4v-3.6" class="g7_33" />
<path d="M590.7,131.6v3.7" class="g7_33" />
<path d="M672.5,448.4v-3.6" class="g7_33" />
<path d="M672.5,131.6v3.7" class="g7_33" />
<path d="M263.3,448.4H267" class="g7_33" />
<path d="M672.5,448.4h-3.6" class="g7_33" />
<path d="M263.3,395.6H267" class="g7_33" />
<path d="M672.5,395.6h-3.6" class="g7_33" />
<path d="M263.3,342.8H267" class="g7_33" />
<path d="M672.5,342.8h-3.6" class="g7_33" />
<path d="M263.3,290H267" class="g7_33" />
<path d="M672.5,290h-3.6" class="g7_33" />
<path d="M263.3,237.2H267" class="g7_33" />
<path d="M672.5,237.2h-3.6" class="g7_33" />
<path d="M263.3,184.4H267" class="g7_33" />
<path d="M672.5,184.4h-3.6" class="g7_33" />
<path d="M263.3,131.6H267" class="g7_33" />
<path d="M672.5,131.6h-3.6" class="g7_33" />
<path d="M263.3,131.6H672.5m0,316.8V131.6M263.3,448.4H672.5m-409.2,0V131.6" class="g8_33" />
<path d="M551.2,215.9H663.7V140.4H551.2v75.5Z" class="g9_33" />
<path d="M563.5,153.6h24.6" class="g1_33" />
<path d="M563.5,178.2h24.6" class="g2_33" />
<path d="M563.5,202.7h24.6" class="g3_33" />
<path d="M430.7,888.6H591.9M430.7,944.2H546.9" class="g10_33" />
</svg>