<?xml version="1.0" encoding="UTF-8" standalone="no"?>
<!DOCTYPE svg PUBLIC "-//W3C//DTD SVG 1.1//EN"
"http://www.w3.org/Graphics/SVG/1.1/DTD/svg11.dtd">
<svg viewBox="0 0 909 1286" version="1.1" xmlns="http://www.w3.org/2000/svg" xmlns:xlink="http://www.w3.org/1999/xlink">
<defs>
<clipPath id="c0_93"><path d="M332.8,280.7V107.4H577.5V280.7Z" /></clipPath>
<style type="text/css"><![CDATA[
.g0_93{
fill: none;
stroke: #000000;
stroke-width: 1.0999999;
stroke-linecap: butt;
stroke-linejoin: miter;
stroke-miterlimit: 4;
}
.g1_93{
}
.g2_93{
fill: none;
stroke: #000000;
stroke-width: 1.1172425;
stroke-linecap: butt;
stroke-linejoin: miter;
stroke-miterlimit: 4;
}
.g3_93{
fill: none;
stroke: #000000;
stroke-width: 0.7302778;
stroke-linecap: butt;
stroke-linejoin: miter;
}
]]></style>
</defs>
<path d="M332.9,190.2L470.2,153.4L576.3,124.9M464.6,154.7l111.8,21M333,190.1l137.3,40.4l106.1,31.2M464.6,229.1l112,-14.2" class="g0_93" />
<path d="M391.9,152.9c0,-1.6,-1,-2.5,-2.9,-2.5h-4.7L382,161.7h1.4l1,-4.8H388c2.3,0,3.9,-1.9,3.9,-4Zm-4.2,2.7h-3l.8,-3.9h3c1.2,0,1.9,.5,1.9,1.5c0,1.3,-1,2.4,-2.7,2.4Zm9,-5.2c-2.7,2.8,-4.3,6.3,-4.3,9.5c0,1.8,.5,3.7,1.2,5h.9c-.6,-1.4,-.9,-2.9,-.9,-4.5c0,-3.4,1.4,-6.8,4,-10Zm7.2,7.9l.4,3.4h1.6l-1.6,-11.3h-1.8l-6.4,11.3h1.5l1.9,-3.4Zm-.2,-1.2h-3.5l2.9,-5.2Zm3.1,7.8c2.7,-2.8,4.3,-6.3,4.3,-9.4c0,-1.8,-.4,-3.8,-1.2,-5.1h-.8c.6,1.5,.8,3,.8,4.5c0,3.4,-1.3,6.9,-3.9,10Z" class="g1_93" />
<path d="M388.5,226.2c0,-1.6,-1,-2.5,-2.9,-2.5h-4.7l-2.4,11.2H380l1,-4.7h3.5c2.4,0,4,-1.9,4,-4Zm-4.2,2.7h-3l.8,-3.9h3c1.2,0,1.9,.5,1.9,1.5c0,1.3,-1,2.4,-2.7,2.4Zm9,-5.2c-2.7,2.8,-4.3,6.3,-4.3,9.5c0,1.8,.5,3.7,1.2,5h.9c-.6,-1.5,-.9,-2.9,-.9,-4.5c0,-3.4,1.4,-6.8,4,-10Zm7.2,7.9l.4,3.3h1.6l-1.6,-11.2h-1.8l-6.4,11.2h1.5l1.9,-3.3Zm-.2,-1.2h-3.5l2.9,-5.2Zm3.1,7.8c2.7,-2.8,4.3,-6.3,4.3,-9.4c0,-1.9,-.4,-3.8,-1.2,-5.1h-.8c.6,1.5,.8,2.9,.8,4.5c0,3.4,-1.3,6.8,-3.9,10Z" class="g1_93" />
<path d="M538.2,110.7c0,-1.6,-1,-2.4,-2.9,-2.4h-4.6l-2.4,11.2h1.5l1,-4.8h3.5c2.4,0,3.9,-1.9,3.9,-4Zm-4.2,2.8h-3l.9,-4h3c1.2,0,1.8,.5,1.8,1.5c0,1.3,-1,2.5,-2.7,2.5Zm9,-5.2c-2.6,2.8,-4.2,6.3,-4.2,9.4c0,1.8,.4,3.7,1.2,5.1h.8c-.6,-1.5,-.8,-3,-.8,-4.5c0,-3.4,1.3,-6.9,3.9,-10Zm9.5,7.2c0,-.9,-.4,-1.5,-1.5,-1.9c1.4,-.6,2.1,-1.7,2.1,-3.1c0,-1,-.5,-2.2,-2.7,-2.2h-4.6l-2.4,11.2h5.1c2.5,0,4,-1.9,4,-4ZM549,113.1h-2.8l.8,-3.6h2.8c1.3,0,1.9,.4,1.9,1.4c0,.9,-.6,2.2,-2.7,2.2Zm-.4,5.1h-3.5l.8,-3.8h3.5c1.1,0,1.7,.5,1.7,1.4c0,1.4,-1,2.4,-2.5,2.4Zm7.7,-9.9l-3.1,14.5h1l3,-14.5Zm8.2,7.8l.4,3.4h1.5l-1.5,-11.2H563l-6.4,11.2h1.6l1.9,-3.4Zm-.2,-1.2h-3.6l3,-5.1Zm3.1,7.9c2.7,-2.8,4.3,-6.3,4.3,-9.5c0,-1.8,-.4,-3.7,-1.2,-5h-.9c.6,1.4,.9,2.9,.9,4.5c0,3.4,-1.3,6.8,-3.9,10Z" class="g1_93" />
<path d="M538,178.7c0,-1.6,-1,-2.5,-2.9,-2.5h-4.6l-2.4,11.2h1.4l1,-4.7h3.6c2.3,0,3.9,-1.9,3.9,-4Zm-4.2,2.7h-3l.9,-3.9h3c1.2,0,1.8,.5,1.8,1.5c0,1.3,-1,2.4,-2.7,2.4Zm9,-5.2c-2.6,2.8,-4.3,6.3,-4.3,9.5c0,1.8,.5,3.7,1.2,5h.9c-.6,-1.4,-.9,-2.9,-.9,-4.5c0,-3.4,1.4,-6.8,4,-10Zm9.5,7.3c0,-1,-.4,-1.5,-1.5,-2c1.4,-.6,2.1,-1.7,2.1,-3.1c0,-.9,-.5,-2.2,-2.8,-2.2h-4.5l-2.4,11.2h5.1c2.4,0,4,-1.8,4,-3.9ZM548.8,181H546l.8,-3.5h2.7c1.3,0,1.9,.4,1.9,1.3c0,1,-.5,2.2,-2.6,2.2Zm-.4,5.2h-3.5l.8,-3.9h3.5c1.1,0,1.6,.5,1.6,1.4c0,1.4,-.9,2.5,-2.4,2.5Zm7.7,-10L553,190.7h.9L557,176.2Zm8.1,7.9l.4,3.3h1.6l-1.5,-11.2h-1.9l-6.4,11.2h1.5l2,-3.3Zm-.1,-1.2h-3.6l3,-5.2Zm3.1,7.8c2.7,-2.8,4.3,-6.3,4.3,-9.4c0,-1.8,-.5,-3.8,-1.2,-5.1h-.9c.6,1.5,.9,3,.9,4.5c0,3.4,-1.4,6.9,-3.9,10Z" class="g1_93" />
<path d="M396.3,222.6h6.9M545.6,174.4h6.8" class="g2_93" />
<path d="M541.8,224.1c0,-1.6,-1,-2.5,-2.8,-2.5h-4.7l-2.4,11.3h1.5l1,-4.8h3.5c2.4,0,3.9,-1.9,3.9,-4Zm-4.2,2.8h-2.9l.8,-4h3c1.2,0,1.8,.5,1.8,1.5c0,1.3,-1,2.5,-2.7,2.5Zm9.1,-5.3c-2.7,2.8,-4.3,6.3,-4.3,9.5c0,1.8,.4,3.7,1.2,5.1h.8c-.5,-1.5,-.8,-3,-.8,-4.6c0,-3.4,1.3,-6.8,3.9,-10Zm9.5,7.3c0,-1,-.5,-1.5,-1.5,-1.9c1.3,-.6,2.1,-1.8,2.1,-3.1c0,-1,-.6,-2.3,-2.8,-2.3h-4.6L547,232.9h5.1c2.5,0,4.1,-1.9,4.1,-4Zm-3.6,-2.4h-2.8l.8,-3.6h2.8c1.3,0,1.9,.4,1.9,1.3c0,1,-.5,2.3,-2.7,2.3Zm-.4,5.1h-3.5l.9,-3.9h3.5c1,0,1.6,.5,1.6,1.4c0,1.4,-1,2.5,-2.5,2.5Zm7.8,-10l-3.1,14.5h.9l3.1,-14.5Zm8.1,7.9l.4,3.4h1.6l-1.6,-11.3h-1.8l-6.4,11.3h1.5l1.9,-3.4Zm-.2,-1.2h-3.5l2.9,-5.1Zm3.1,7.9c2.7,-2.9,4.3,-6.4,4.3,-9.5c0,-1.8,-.4,-3.7,-1.2,-5.1h-.8c.6,1.5,.8,3,.8,4.5c0,3.5,-1.3,6.9,-3.9,10.1Z" class="g1_93" />
<g clip-path="url(#c0_93)">
<path d="M539.8,268.6c0,-1.6,-1,-2.4,-2.9,-2.4h-4.7l-2.3,11.2h1.4l1,-4.8h3.6c2.3,0,3.9,-1.9,3.9,-4Zm-4.2,2.8h-3l.8,-4h3c1.2,0,1.9,.5,1.9,1.5c0,1.3,-1,2.5,-2.7,2.5Zm9,-5.2c-2.7,2.8,-4.3,6.3,-4.3,9.4c0,1.8,.5,3.7,1.2,5.1h.9c-.6,-1.5,-.9,-3,-.9,-4.5c0,-3.5,1.4,-6.9,4,-10Zm9.5,7.2c0,-.9,-.4,-1.5,-1.5,-1.9c1.3,-.6,2.1,-1.7,2.1,-3.1c0,-1,-.5,-2.2,-2.8,-2.2h-4.6L545,277.4h5c2.5,0,4.1,-1.9,4.1,-4ZM550.5,271h-2.7l.7,-3.6h2.8c1.3,0,1.9,.4,1.9,1.3c0,1,-.5,2.3,-2.7,2.3Zm-.3,5.1h-3.5l.8,-3.8H551c1,0,1.6,.4,1.6,1.3c0,1.4,-.9,2.5,-2.4,2.5Zm7.7,-9.9l-3.1,14.5h.9l3.1,-14.5ZM566,274l.4,3.4H568l-1.6,-11.2h-1.8l-6.4,11.2h1.5l1.9,-3.4Zm-.1,-1.2h-3.6l2.9,-5.1Zm3.1,7.9c2.7,-2.8,4.3,-6.3,4.3,-9.5c0,-1.8,-.5,-3.7,-1.2,-5h-.9c.6,1.4,.9,2.9,.9,4.5c0,3.4,-1.4,6.8,-4,10Z" class="g1_93" />
</g>
<path d="M547.4,264.4h6.8m8,-.2H569M564.1,220h6.8" class="g2_93" />
<path d="M453.8,645.2H556" class="g3_93" />
</svg>