<?xml version="1.0" encoding="UTF-8" standalone="no"?>
<!DOCTYPE svg PUBLIC "-//W3C//DTD SVG 1.1//EN"
"http://www.w3.org/Graphics/SVG/1.1/DTD/svg11.dtd">
<svg viewBox="0 0 909 1286" version="1.1" xmlns="http://www.w3.org/2000/svg" xmlns:xlink="http://www.w3.org/1999/xlink">
<defs>
<style type="text/css"><![CDATA[
.g0_85{
fill: #FFFFFF;
}
.g1_85{
fill: #0000FF;
fill-opacity: 0.2;
stroke: #000000;
stroke-width: 0.9166667;
stroke-linecap: butt;
stroke-linejoin: miter;
stroke-opacity: 0.2;
}
.g2_85{
fill: none;
stroke: #000000;
stroke-width: 0.9166667;
stroke-linecap: square;
stroke-linejoin: miter;
}
.g3_85{
stroke: #000000;
stroke-width: 0.45833334;
stroke-linecap: butt;
stroke-linejoin: round;
}
.g4_85{
fill: none;
stroke: #000000;
stroke-width: 0.6080556;
stroke-linecap: butt;
stroke-linejoin: miter;
}
]]></style>
</defs>
<path d="M216.8,490.9H692.6V108.3H216.8Z" class="g0_85" />
<path d="M273.3,448.4H682.5V131.6H273.3Z" class="g0_85" />
<path d="M292.7,448.4h3.6v-1.6h-3.6Z" class="g1_85" />
<path d="M296.3,448.4H300v-2.1h-3.7Z" class="g1_85" />
<path d="M300,448.4h3.7v-1.6H300Z" class="g1_85" />
<path d="M303.7,448.4h3.6v-1.3h-3.6Z" class="g1_85" />
<path d="M307.3,448.4H311v-2.1h-3.7Z" class="g1_85" />
<path d="M311,448.4h3.7v-1H311Z" class="g1_85" />
<path d="M314.7,448.4h3.6v-1.3h-3.6Z" class="g1_85" />
<path d="M318.3,448.4H322v-1h-3.7Z" class="g1_85" />
<path d="M322,448.4h3.7v-.5H322Z" class="g1_85" />
<path d="M325.7,448.4h3.6v-1.3h-3.6Z" class="g1_85" />
<path d="M329.3,448.4H333v-1.3h-3.7Z" class="g1_85" />
<path d="M333,448.4h3.7v-.5H333Z" class="g1_85" />
<path d="M336.7,448.4h3.6v-.2h-3.6Z" class="g1_85" />
<path d="M340.3,448.4H344v-.5h-3.7Z" class="g1_85" />
<path d="M344,448.4h3.6v-.2H344Z" class="g1_85" />
<path d="M347.6,448.4h3.7v-.5h-3.7Z" class="g1_85" />
<path d="M351.3,448.4H355v-1.3h-3.7Z" class="g1_85" />
<path d="M355,448.4h3.6v-.5H355Z" class="g1_85" />
<path d="M358.6,448.4h3.7v-1.3h-3.7Z" class="g1_85" />
<path d="M362.3,448.4H366v-.2h-3.7Z" class="g1_85" />
<path d="M366,448.4h3.6H366Z" class="g1_85" />
<path d="M369.6,448.4h3.7v-1.3h-3.7Z" class="g1_85" />
<path d="M373.3,448.4H377v-2.1h-3.7Z" class="g1_85" />
<path d="M377,448.4h3.6v-1.6H377Z" class="g1_85" />
<path d="M380.6,448.4h3.7v-1.6h-3.7Z" class="g1_85" />
<path d="M384.3,448.4H388v-1h-3.7Z" class="g1_85" />
<path d="M388,448.4h3.6v-2.1H388Z" class="g1_85" />
<path d="M391.6,448.4h3.7v-.5h-3.7Z" class="g1_85" />
<path d="M395.3,448.4H399v-1h-3.7Z" class="g1_85" />
<path d="M399,448.4h3.6v-1.3H399Z" class="g1_85" />
<path d="M402.6,448.4h3.7v-1.6h-3.7Z" class="g1_85" />
<path d="M406.3,448.4H410v-.8h-3.7Z" class="g1_85" />
<path d="M410,448.4h3.6v-1.8H410Z" class="g1_85" />
<path d="M413.6,448.4h3.7v-1h-3.7Z" class="g1_85" />
<path d="M417.3,448.4H421v-1h-3.7Z" class="g1_85" />
<path d="M421,448.4h3.6v-.8H421Z" class="g1_85" />
<path d="M424.6,448.4h3.7v-1.6h-3.7Z" class="g1_85" />
<path d="M428.3,448.4h3.6v-.5h-3.6Z" class="g1_85" />
<path d="M431.9,448.4h3.7v-1h-3.7Z" class="g1_85" />
<path d="M435.6,448.4h3.7v-.2h-3.7Z" class="g1_85" />
<path d="M439.3,448.4h3.6h-3.6Z" class="g1_85" />
<path d="M442.9,448.4h3.7v-.2h-3.7Z" class="g1_85" />
<path d="M446.6,448.4h3.7h-3.7Z" class="g1_85" />
<path d="M450.3,448.4h3.6v-.5h-3.6Z" class="g1_85" />
<path d="M453.9,448.4h3.7v-1.6h-3.7Z" class="g1_85" />
<path d="M457.6,448.4h3.7v-.2h-3.7Z" class="g1_85" />
<path d="M461.3,448.4h3.6v-.8h-3.6Z" class="g1_85" />
<path d="M464.9,448.4h3.7v-.2h-3.7Z" class="g1_85" />
<path d="M468.6,448.4h3.7v-.2h-3.7Z" class="g1_85" />
<path d="M472.3,448.4h3.6v-.2h-3.6Z" class="g1_85" />
<path d="M475.9,448.4h3.7v-.2h-3.7Z" class="g1_85" />
<path d="M479.6,448.4h3.7v-.5h-3.7Z" class="g1_85" />
<path d="M483.3,448.4h3.6v-.8h-3.6Z" class="g1_85" />
<path d="M486.9,448.4h3.7v-.5h-3.7Z" class="g1_85" />
<path d="M490.6,448.4h3.7v-1.6h-3.7Z" class="g1_85" />
<path d="M494.3,448.4h3.6h-3.6Z" class="g1_85" />
<path d="M497.9,448.4h3.7v-1h-3.7Z" class="g1_85" />
<path d="M501.6,448.4h3.7v-1h-3.7Z" class="g1_85" />
<path d="M505.3,448.4h3.6v-.5h-3.6Z" class="g1_85" />
<path d="M508.9,448.4h3.7v-.8h-3.7Z" class="g1_85" />
<path d="M512.6,448.4h3.7v-2.6h-3.7Z" class="g1_85" />
<path d="M516.3,448.4h3.6v-2.3h-3.6Z" class="g1_85" />
<path d="M519.9,448.4h3.7v-1h-3.7Z" class="g1_85" />
<path d="M523.6,448.4h3.6v-6h-3.6Z" class="g1_85" />
<path d="M527.2,448.4h3.7V437.9h-3.7Z" class="g1_85" />
<path d="M530.9,448.4h3.7V426h-3.7Z" class="g1_85" />
<path d="M534.6,448.4h3.6V406.7h-3.6Z" class="g1_85" />
<path d="M538.2,448.4h3.7V370h-3.7Z" class="g1_85" />
<path d="M541.9,448.4h3.7V329.1h-3.7Z" class="g1_85" />
<path d="M545.6,448.4h3.6V266.3h-3.6Z" class="g1_85" />
<path d="M549.2,448.4h3.7V219.3h-3.7Z" class="g1_85" />
<path d="M552.9,448.4h3.7V190.5h-3.7Z" class="g1_85" />
<path d="M556.6,448.4h3.6V158.6h-3.6Z" class="g1_85" />
<path d="M560.2,448.4h3.7V166h-3.7Z" class="g1_85" />
<path d="M563.9,448.4h3.7V200.5h-3.7Z" class="g1_85" />
<path d="M567.6,448.4h3.6V217.7h-3.6Z" class="g1_85" />
<path d="M571.2,448.4h3.7V279.2h-3.7Z" class="g1_85" />
<path d="M574.9,448.4h3.7V327.3h-3.7Z" class="g1_85" />
<path d="M578.6,448.4h3.6v-86h-3.6Z" class="g1_85" />
<path d="M582.2,448.4h3.7V384.5h-3.7Z" class="g1_85" />
<path d="M585.9,448.4h3.7V399.1h-3.7Z" class="g1_85" />
<path d="M589.6,448.4h3.6v-28h-3.6Z" class="g1_85" />
<path d="M593.2,448.4h3.7V424.7h-3.7Z" class="g1_85" />
<path d="M596.9,448.4h3.7V432.9h-3.7Z" class="g1_85" />
<path d="M600.6,448.4h3.6v-7.1h-3.6Z" class="g1_85" />
<path d="M604.2,448.4h3.7v-5.2h-3.7Z" class="g1_85" />
<path d="M607.9,448.4h3.6v-3.1h-3.6Z" class="g1_85" />
<path d="M611.5,448.4h3.7v-2.1h-3.7Z" class="g1_85" />
<path d="M615.2,448.4h3.7v-1.8h-3.7Z" class="g1_85" />
<path d="M618.9,448.4h3.6v-1.3h-3.6Z" class="g1_85" />
<path d="M622.5,448.4h3.7v-.5h-3.7Z" class="g1_85" />
<path d="M626.2,448.4h3.7h-3.7Z" class="g1_85" />
<path d="M629.9,448.4h3.6h-3.6Z" class="g1_85" />
<path d="M633.5,448.4h3.7v-.5h-3.7Z" class="g1_85" />
<path d="M637.2,448.4h3.7h-3.7Z" class="g1_85" />
<path d="M640.9,448.4h3.6v-.5h-3.6Z" class="g1_85" />
<path d="M644.5,448.4h3.7h-3.7Z" class="g1_85" />
<path d="M648.2,448.4h3.7h-3.7Z" class="g1_85" />
<path d="M651.9,448.4h3.6h-3.6Z" class="g1_85" />
<path d="M655.5,448.4h3.7v-.2h-3.7Z" class="g1_85" />
<path d="M273.3,131.6H682.5m0,316.8V131.6M273.3,448.4H682.5m-409.2,0V131.6" class="g2_85" />
<path d="M273.3,448.4v-3.6" class="g3_85" />
<path d="M273.3,131.6v3.7" class="g3_85" />
<path d="M324.4,448.4v-3.6" class="g3_85" />
<path d="M324.4,131.6v3.7" class="g3_85" />
<path d="M375.6,448.4v-3.6" class="g3_85" />
<path d="M375.6,131.6v3.7" class="g3_85" />
<path d="M426.7,448.4v-3.6" class="g3_85" />
<path d="M426.7,131.6v3.7" class="g3_85" />
<path d="M477.9,448.4v-3.6" class="g3_85" />
<path d="M477.9,131.6v3.7" class="g3_85" />
<path d="M529,448.4v-3.6" class="g3_85" />
<path d="M529,131.6v3.7" class="g3_85" />
<path d="M580.2,448.4v-3.6" class="g3_85" />
<path d="M580.2,131.6v3.7" class="g3_85" />
<path d="M631.3,448.4v-3.6" class="g3_85" />
<path d="M631.3,131.6v3.7" class="g3_85" />
<path d="M682.5,448.4v-3.6" class="g3_85" />
<path d="M682.5,131.6v3.7" class="g3_85" />
<path d="M273.3,448.4h3.6" class="g3_85" />
<path d="M682.5,448.4h-3.7" class="g3_85" />
<path d="M273.3,395.6h3.6" class="g3_85" />
<path d="M682.5,395.6h-3.7" class="g3_85" />
<path d="M273.3,342.8h3.6" class="g3_85" />
<path d="M682.5,342.8h-3.7" class="g3_85" />
<path d="M273.3,290h3.6" class="g3_85" />
<path d="M682.5,290h-3.7" class="g3_85" />
<path d="M273.3,237.2h3.6" class="g3_85" />
<path d="M682.5,237.2h-3.7" class="g3_85" />
<path d="M273.3,184.4h3.6" class="g3_85" />
<path d="M682.5,184.4h-3.7" class="g3_85" />
<path d="M273.3,131.6h3.6" class="g3_85" />
<path d="M682.5,131.6h-3.7" class="g3_85" />
<path d="M589.9,527.9h5.6M108.6,587.1V566.4m692.3,20.7V566.4M108.6,607.8V587.1m692.3,20.7V587.1M108.6,628.5V607.8m692.3,20.7V607.8M108.6,637.2v-8.7m692.3,8.7v-8.7m-692.6,9H801.2M108.3,971.6H801.2m-692.6,9v-8.7m692.3,8.7v-8.7m-692.3,29.4V980.6m692.3,20.7V980.6M108.6,1022v-20.7M800.9,1022v-20.7m-692.3,41.4V1022m692.3,20.7V1022m-692.3,41.4v-20.7m692.3,20.7v-20.7m-692.3,41.4v-20.7m692.3,20.7v-20.7m-692.3,41.4v-20.7m692.3,20.7v-20.7m-692.3,41.4v-20.7m692.3,20.7v-20.7m-692.3,41.4v-20.7m692.3,20.7v-20.7m-692.3,41.4v-20.7m692.3,20.7v-20.7" class="g4_85" />
</svg>