<?xml version="1.0" encoding="UTF-8" standalone="no"?>
<!DOCTYPE svg PUBLIC "-//W3C//DTD SVG 1.1//EN"
"http://www.w3.org/Graphics/SVG/1.1/DTD/svg11.dtd">
<svg viewBox="0 0 909 1286" version="1.1" xmlns="http://www.w3.org/2000/svg" xmlns:xlink="http://www.w3.org/1999/xlink">
<defs>
<style type="text/css"><![CDATA[
.g0_87{
fill: none;
stroke: #000000;
stroke-width: 0.6080556;
stroke-linecap: butt;
stroke-linejoin: miter;
}
.g1_87{
fill: #FFFFFF;
}
.g2_87{
fill: none;
stroke: #0000FF;
stroke-width: 0.9166667;
stroke-linecap: square;
stroke-linejoin: round;
}
.g3_87{
fill: none;
stroke: #000000;
stroke-width: 0.9166667;
stroke-linecap: square;
stroke-linejoin: miter;
}
.g4_87{
stroke: #000000;
stroke-width: 0.45833334;
stroke-linecap: butt;
stroke-linejoin: round;
}
]]></style>
</defs>
<path d="M177.1,170.4h5.6" class="g0_87" />
<path d="M216,677.8H693.4v-381H216Z" class="g1_87" />
<path d="M259.8,637H669V320.2H259.8Z" class="g1_87" />
<path d="M259.8,424.7v81.2l.1,-11.9V422.3l.1,84.2V459.9l.1,-39.1v9l.1,103.2V471.1l.1,-6.9V508V422.2l.1,125.5V510.1L260.5,407l.1,92l.1,-71v82.5l.1,-48v27.7l.1,39.6V467.1l.1,11V454.2l.1,29V359.4l.1,146.4V482.5l.2,48l.1,-92.6v43.8l.1,-70.7l.1,65.8v-13l.1,-24.1v83.2l.1,-16.2V468v15.3l.1,32.1l.1,-60.7l.1,76.5V475.3l.1,-14.5l.2,23.5V462.7l.1,38.5l.1,-52.8l.1,15.3v61.1l.2,-96.6l.1,115.4V484.3l.1,7.4l.1,-61.8l.1,55.8V456.3l.1,28.5v2.7l.1,-35v79.1l.1,-73.3V370.5l.1,172.7l.1,-9.2V456.7l.2,82.8V451v12.5l.1,113.3V530.6l.1,-191.9v69.6l.3,102l.1,-62.3l.1,66.4V496.7l.1,-70l.1,26.2V435.2l.1,81.5l.1,-19.2v22.6l.1,-57.6l.1,4.7v-6.4l.1,18.1v-31l.1,52.5l.1,-9.1V418.2v37.2l.2,132v20.2L266,482.1l.1,52.4v3.1l.1,-135.1l.1,76.5l.1,-30.9V398.7l.1,121.1l.1,-81l.2,94.6v-8.2l.1,-68.8l.1,68.4V486.3l.1,-.2l.1,-79.4v37l.1,82.7l.1,-113.8l.1,36.6v29.7V424.4l.1,75.9l.1,-19.4l.1,-64.3l.1,79.1V402.8l.1,26.8v85.1l.1,-16.1V425.9l.1,21.5v29.5V433.6l.1,4.8l.1,74.4l.1,-83.1l.1,120.9l.2,-105v47.7V467.2l.1,22.7v12.3l.1,-88.4l.1,6.6v82.3l.1,-70.1l.1,3.1V505l.1,-16.7l.1,-35.3V393.8l.1,118.9l.1,-125l.1,91.9v-86l.2,132l.2,-99.3v73.9l.1,-17.4l.1,-71.2v23.1l.1,45.3V387l.1,143.6V498l.1,-91.4v53.8l.1,36.8l.1,-58.7v32.6l.1,-68.7v60.1l.1,13.3v-8l.1,-41.2v91.8l.1,-45.9v-135l.1,108.4V509l.1,-25.9l.1,-65.2v87.7l.1,-54.8v-41l.1,37.3v85.1V499.7l.2,-26.9v42.3l.1,-90.2v13.8l.1,73.3l.1,-115l.1,90.5V451.7l.1,-28.9v90V456.7l.1,-4.5v96.7l.1,-37.8v-76l.1,49.2v-53l.1,35v37.9v-5.9l.1,-46v32.5l.1,16.6V434.8l.1,33.6v29.4l.1,-83.2l.1,30.9v64.4V475.4l.1,-57.8l.1,2.2v53.4l.2,-85.2V510.5l.1,-39.5v3.1l.1,42.4V502l.1,-37.1l.1,.7v88.5l.1,-32.3l.1,-94.7v45.3l.1,24.6V453.4l.1,3.2V515l.1,-47.9v79.7l.1,-59.6v-5.5l.1,-37l.1,101.8l.2,-108.1v74l.1,-21.7l.1,28.1V437.1l.1,9.6l.1,128.1V439l.1,50.9l.1,8V442v52.2l.1,23.2V474.2l.1,30.3v20.8l.1,-94.3v33.1l.1,-58.9v47.9l.1,36.4V457.3l.1,29.4l.1,47.7l.2,-108.3v8.8l.1,6.5V408l.2,82.6V380.9V499.7l.1,-47.1V416.7l.1,66.4V453.8l.1,-9.1v55l.1,-70.5V553l.1,-30.5l.1,-93.7V583.9l.1,-112.8v-.2l.1,-35.3v89.3l.1,-28.4V451.2l.1,37.5v2.8l.1,41.9v-79V585.8l.1,-151.7l.1,67.1V466.1l.1,34.6l.1,-49.7v14.9l.1,.3v-.5l.1,67.1V488.6l.1,-20.2v28.3V418.2l.1,28.8l.1,97.8V460.4l.1,12.3l.2,-15.1l.1,43.2V382.4v37.1l.2,105.7l.1,-132.5l.1,125.2l.1,-47.9v.2l.1,45.9V478.5l.1,-41.3v9.9l.2,92V438.4l.1,25l.1,50.6V468.6l.1,8.6v31.4l.1,-103.2l.1,93.1V470.3l.1,11.9V464.4l.1,48.3l.1,-63.6l.1,43.1V418V532.4l.1,-19.4l.1,-65.2l.1,37v20.5v-7l.1,-34.8V489l.1,-4.6V448.8v18.1l.2,48.9V438.3l.1,11.8v27.8l.1,-40.8v88.5V475l.1,-13.6v46.8l.1,-63.6v13.7l.1,41V469.9l.1,-41.2l.1,68.7V451.6v3.9l.1,-.5l.1,48.8L283,400.6v77.3l.1,-32l.1,53.8v-.9l.1,-72.3v54.7l.1,-23.9l.1,6.1V450.3l.1,41.6V453.8l.1,-24.3v75.3l.2,-74.9V406l.1,60.1V441.8l.1,13.9v63.4l.1,-99.1v42.7l.1,62.3v-6.9l.2,-92.7l.1,132.2l.1,-123.3l.1,.6l.1,108.5L285,466v49.5l.1,-2V432.1l.1,34.8v4.4l.1,-101.1v95.5v-4l.1,1.8V436.1l.1,83.3V497.7l.2,-54.9l.1,32.6l.1,-23.1V369l.1,159.6V416.3l.1,86.8l.1,-70.7v94.4l.1,-30.9V446l.1,59.8l.2,-50.5V437.2l.1,104.2l.1,-82.4v35.8l.1,75.9V445.5l.1,64.2l.1,-75.6v72.3l.1,-23.3l.1,.7V456.2v15l.1,23.1V447.4l.1,22.8v52.7l.1,-24.3l.2,-80.6v97l.1,-61.1l.1,89.4V421.5l.1,10.2l.2,59.1v-9l.1,-32.2v49.1l.1,-8.2l.2,-74.7V527.6V489.1l.1,-102.5v74.2l.2,17.1l.1,-76.8l.2,125.3v-112l.1,31.6l.2,95.2l.1,-87.3l.1,17.5v62.4l.1,-69.6v4.9l.1,-31.2l.1,115.2l.1,-96.5l.1,58.1V419.4l.2,91.7V442.7l.1,19.4v27.8l.1,-43.9v19.1l.1,-10l.1,54.1V494.4l.1,-50.1v91.1l.1,-1.1l.1,-66.3v43.3l.1,-46.6v3.4l.1,73.9V494.1l.1,-43.1l.1,39.3v-2.5l.1,-17v31.3l.1,-73.5V536.3l.1,-85.7l.1,38v-66l.1,41v34.2V423l.1,38.4V498l.1,-74.3v64.1V470.2l.1,78.9V479.4l.1,-33.8V536l.1,-133.7l.1,22.3V462l.1,-62.8v49.4l.2,64.8v-8.2l.1,-69.9l.2,75.8V450.2l.1,12.9v51.5l.1,-109.4V533.1l.1,-109.7v68.4l.1,-20.8V420l.1,17.9l.2,80.7l.1,-60.1v47.6l.1,-41.6V429.4l.1,89.4V505.6l.1,-84.3v44.3l.1,78.3V504.2l.3,-108.4V544.2l.1,-58.8v44.1l.1,-85.1v31.9l.1,43.4V509.6l.1,-91.7v21l.1,121.2l.1,-48.7V466.5v12.3l.2,26.7v-6l.1,-37.1v29.3l.2,-61.2v5.7l.1,105.3l.1,-33.7v2.7V441.9l.1,6.7v37.7l.1,-44.6v34.2l.1,-39.9l.1,57.2v-5.9l.1,-29.5l.1,51.1l.1,-66.1v63.5l.1,-74l.1,41.3V462.2l.2,69.3V435.3l.1,73.1l.2,-90.2l.2,87.2V499v2l.2,117.6V508.3v68.3l.1,-12.9v12.1l.1,7V526.3l.1,54.3v-13l.1,-108.8l.1,22.6l.1,-10.8l.1,24.8V444v83.4l.1,-40.4l.1,16.6V452.4V556.5L298.9,447l.1,46v7.7l.2,-49.4l.1,39.7V441.7l.1,15.3l.1,25V409.6V431l.2,84.6l.1,-85.4v28.1l.1,95.2l.2,-139.7v44.9l.1,96l.1,-151.8V549.8l.1,-52.6V471.5v39.1l.1,-76.6v8.5l.1,66.5V465.6v10.3l.1,-45.5v45.4l.1,16.2V473.6v27.6l.2,-86.8l.1,121.7V508.3l.1,-80.9l.1,65.6V463l.1,-34.9l.1,113.5V467.8l.1,45l.1,-11.8v31.6l.2,-89.1v86.7l.1,-33.5V470.5v59.4l.1,-97.6l.1,41.3v26L302.3,381l.1,104.2l.1,-32.2l.1,30.7V421v57l.1,2.4l.2,-93.6V507.7l.1,-5.8v36.5l.1,-25.4V432v48l.1,20.6l.1,-54.4v63.4l.1,-29.6v18.1l.1,-15.6v-52v1l.2,78.9l.1,-4.9l.1,-61.4v39.8l.1,-61.8V468V456.9l.1,9.7l.1,98.2l.2,-72.8v89.7V515.5l.1,10.4l.1,-32.2v17.1l.1,38.2l.1,-112.8l.1,-49.2v98.4l.1,-16.5V443.5l.1,98.2V444.4v36.4l.1,-57.8v41.5l.1,66.4l.1,-34.1V483l.1,7.1l.1,36.6l.2,-58.9V456.9v29.2l.1,-22.8v-1.7l.1,-29.5l.1,69.2l.1,-90.6l.1,137.4l.1,-30.2l.1,59.6V566.6l.1,-118.8l.1,36.5V378.2l.1,181.1l.1,-71.6V453.5l.1,4.8v84.3l.1,-20.6l.1,5V483.9v56.6l.1,-91.9v12l.1,54.1V462.4v25.3l.1,-23.3l.1,-10.7v48.8l.1,-16.9V468.2l.1,47.8V466.3v2.2l.1,51.4l.1,-8.8v-7.8l.1,-32.6v76.8l.1,-92.6l.1,33.4V427.9l.1,23.9v23.6l.1,-74.7V502.5l.1,-49.4V417.6l.1,110.7v-108l.1,75.6v1.2l.1,-68.1v33.4l.1,24.4V405.1v75.3l.1,-13.2l.1,-21.5v31.1l.1,-7.5V432.5l.1,36.4l.1,40.3V431l.1,28.1v44V477.5l.1,-96.6v92.7l.1,30.7V452.6l.1,11.8l.1,75.2V468.3l.1,.2v48.1V413.2l.1,79.9l.1,27v59v-.8l.1,-100.8l.1,9v62.8V422l.1,14.2l.1,6.1l.1,102.9l.1,-60.3l.1,48.2V443.9v89.6l.1,-48.8v-15l.1,95.4v-7.5l.2,-76.8v7.3l.1,-28.6v58l.1,-10.2V436.1l.1,1.8l.1,125l.1,-124.6v48.2l.1,-42.7v11.8l.1,83.2V499.5l.1,66.9l.1,-103.1l.1,59l.2,-54.3v13.7l.1,-58.2l.1,94.2V459.8v7.3l.2,55.5V461.3v21.1l.1,27.3V447.5l.1,6.7V565.1l.1,-132.9l.1,48.3V581l.1,-151.2V432l.1,-19.9v92.1l.1,-21.6V451.4l.1,3.8V564.1l.1,-87.1v63.3l.1,-21.6l.1,-65.9v44.4l.1,51.5L314.4,422V525.4l.1,-22.4V405.7l.1,40.1v92.7V446.4l.1,-13.4l.2,44l.1,-22.7l.3,163.9l.1,-76v76.4l.1,-19.2V559.7l.1,72.4l.1,-18.1l.1,-78.7l.1,27.8l.2,-143.3v82l.1,-24.9V440.2l.1,.3V542.7l.1,-112.5v33.6l.1,66.1l.1,-159.6V479.7l.1,-64.2l.1,6.9l.1,119.3l.1,-61.1l.1,21.1l.1,-126.6l.1,101.2v-8.1v4.5l.1,17.3V457.1l.1,27.7V494V483.2l.1,101l.1,-127.9v18.5l.1,-51.4l.1,86.4V453.4l.1,54.8V486.8v22.7l.1,-15.5V440.1l.1,42.1v45.6V441.9l.1,14.5v53.3l.1,-13.9V462.6v64.6l.1,-49.3v-4.2l.1,61.7V498.2l.1,-29.5V422.4l.1,106.4V501.7l.1,-68.4v7.4l.1,-28.6l.1,119.8v-79l.1,4.5l.1,6.6v66.6l.1,-26V492.4l.1,81.7V556.9l.1,-25.8V435.2l.1,59.6V484.4l.1,-53.9v59.3l.1,-14.9V451.8l.1,64.6l.1,-6.2l.1,60.6V559.6l.1,-112.8l.1,6.7l.1,108.9l.1,-171V502.8l.1,20.3l.1,-72.7l.1,-52.8v67.3l.1,-16.4V445l.1,99.8V420.4l.1,36.8l.1,54.9l.1,-92.3v16.7l.1,49.7V442.7l.1,-28.8v65.3V424.5l.1,16.6l.1,57.1l.1,-90.1v75.2l.1,51.6V472.6l.1,10.2l.1,-17V387.9l.1,52.5v-5.8l.1,90.9V486.7l.1,-91.9V507.1l.1,-26.6l.1,-12.8v43.6V459.7l.1,30.7v-5.1l.1,-44.1v75.2L323,500l.1,28.6l.1,-76.4v4.9l.1,-5.2v15.8l.1,-6.3v-5.8l.2,61.7v-118l.1,32.7l.1,-15.7l.1,92.6V467.4l.1,-18.3l.1,51.6V449.1v32.7l.1,77.9l.1,-136.5l.1,90.6l.1,-40.1V590.5l.1,-190.9l.1,77.7V455.6v7.5l.1,55.8v-38l.1,-62.8v61.7l.1,-16.2v33.2l.1,-6.1v-3.3l.1,-26.9l.1,82l.1,-124l.1,86.2l.1,-87.5v31.9l.1,65.6V465.5l.1,-39.1V447l.1,35.7l.1,-29.5l.1,44l.1,-106.4V481l.1,-17.5l.1,42.5V467.3l.1,42.1v-68l.1,67.2V474.3l.1,1.2V457.1l.1,49.9V487.6l.2,-55.8V401.9l.2,200V465.2l.1,15.1V453.9l.1,49.5V468.3l.1,110.5l.1,-10.3l.1,-76.2v30.1l.1,-75l.1,20.7v46.7l.2,-106.5v97.1l.1,-22.8l.1,-80.2V527.6l.1,-49.3l.1,39.8l.1,-103.2V541.2l.1,-113.4l.1,34.3l.2,68.8V459.2l.1,27.3V502l.1,-58v54.7l.1,-14.2l.1,-49.4l.1,5.8l.1,71.4l.1,-17.2V422.7v41.2l.1,26.3V427.3l.1,80.5V469.7l.1,-45.1l.1,86V428.9l.1,14.4l.1,73l.1,-120.1V497.3l.1,-78.2l.1,26.6l.1,59.4l.1,-4.7V391.7l.1,40.6l.1,102.6V413.5v12.3l.1,78.7l.1,-57.8v76l.1,-14.7v-.4l.1,-64.8v18.6l.2,83.2l.2,-108.1l.1,100.8l.1,-58.5v43.4l.1,8.3l.1,-96.4v74.1l.1,80.6l.1,-141.2l.1,69.6V495.9l.1,-87.5l.1,88.1l.1,-11.5V427.6l.2,73.2v-9.5l.1,31.8V435l.1,73V464.7l.1,-2.2v45.2l.1,-152.9V477.1l.1,-6l.1,33.4V434.3l.1,18.8l.1,177.2L334,476.8v32.5V489l.1,-43.9l.1,3.4l.1,137.6l.1,-132.5v93.2V501.4l.1,-67.1l.1,24.6v73.5V473.9l.1,-26.1v36.5l.1,-2.7V422.2l.1,115.1l.1,-8.8l.1,-61.6V526l.2,-100l.1,97.6v-8.4l.1,.7l.1,-76.3l.1,95.1l.1,-21.1V430.5l.1,88.3V485.5L336,467V593.1l.1,-187v76.3l.1,45.9V461.9l.1,21v79.4l.1,-51.7V425.1l.1,66.5l.1,-55.7v7.6l.1,114V422.6v77.9l.1,25.6l.1,-113.7l.1,91.3l.1,-68.7V542.9l.1,-31.6l.1,-57.6l.1,83.3l.1,18.1l.1,-152V558.5l.1,-55.4l.1,30.8V442.7l.1,26.6v16.1l.1,-19.1v53.3V478.2l.1,-22.7l.1,61.6l.1,-113.4l.1,96.2V433.4l.1,55.9l.1,-32.3v1.8l.1,56.6V485.3l.1,-6V436.6l.1,67.7L339,548l.1,-48.4v52.7V529.6l.1,-71.6l.1,23v54.3l.1,-98.2V547.3l.1,-20.8l.1,-76.9V424.9l.1,81.9V441.3l.1,6.8v75.2V477.8l.1,-66.4l.1,88.1V434.7l.1,104.5V417.9l.1,114.4l.1,-64.7v43.8v-86l.1,65v-3.7l.1,36.1V461.7V545l.1,-33.8l.1,-61.4V556.5V525.8l.2,-85V471l.1,20.6V433.3V533.8l.1,-32.9l.1,-66.6l.1,46.8l.1,-1.4l.1,-20.1v39.6l.1,-57.3l.1,90.2V501.5l.1,-145.4V490.2l.1,45.6v-77l.1,33.4v27.4l.1,-76.1v61.9l.1,-54.8V563.5l.1,-36.4l.2,-92.5v53V420.9l.1,45.5l.1,41.9V392.5l.1,138.4V500l.1,-64.1v38.3l.1,13.3V442l.1,29.4v23.1l.2,-81.9V539.8l.1,-70.4v-58l.1,146.1l.2,-175.7v133V431.9l.1,-.3V418.9l.1,54.7V472l.1,-6.8l.1,-74.7v81.4V456.5l.1,-99.8l.2,135.5V381.9l.1,29.6l.1,124.3V508l.1,-93.5v88.6l.1,12.1V429.1l.1,18.4l.1,19.2V421l.1,75.7V420l.1,137.3V511.9l.1,-63.3l.1,3.4V561.7l.1,-39.8V462.4v36l.1,52.4V499.9l.1,-5.9v22.4v-63l.1,4.1v50.6l.1,-6.9V462.3l.1,74.4l.1,-78.5l.1,2.6l.1,35.5l.1,-9.2V439v53.6l.1,-9.2l.1,-46.4v98l.1,-68.7v4.4l.1,-21.7l.1,84.7l.1,-90.9v78.9l.1,-131.6V501.9l.1,-63.8l.1,55.3l.1,-54.2v27.3l.1,38.7V471.5l.1,59l.1,-127.8v32.5l.2,145V523.8v38.6l.1,-.5L348.1,420l.1,37.2V384.1v34.6l.1,107.4l.1,-1.3V473.9l.1,.1l.1,10.7V446.4v23.1l.1,98.2V483.2l.1,-116.4l.1,48.2l.1,129.3l.1,-103.8v43.1l.2,-55.5l.1,112.8l.1,-105.3v34.6l.1,27.4V451l.1,24.2l.1,41.1v14.4l.1,-76.9l.1,5v65.9l.1,-29.5l.1,-34v39.7l.1,-78.1l.1,10v33.1l.1,-27.3V404.9l.1,80.3V440.3l.2,88.6l.1,-105.4v63.8l.1,63.1l.1,-112.8v20.8l.1,75.4l.1,-17.4v-75V483l.1,19.2V419.3l.1,51.6v46.7l.1,-93.2l.1,102.9l.1,-119.7v38.1l.1,39.6l.1,54l.1,-113.5V530.2l.1,-29.7l.1,-40.5l.1,55.2l.1,-76.9l.1,15.7l.1,90.1V501.5l.1,-38.2l.1,70.7V405.9l.1,108.8l.1,-45.8v76.4l.2,-116.6v67.6v-17l.1,-70.9v27.4l.1,67.1l.1,-12.6l.1,-51.6v89.8l.1,-31.3v10.5l.1,-94.7l.1,19.8l.2,71.9V411.6l.1,44.8l.1,54l.1,-76.6l.1,58.5V389.7l.1,81.6l.1,-56l.1,71.4l.1,-34.9v66.8l.1,-98.2v99.2l.1,-24.9v12.9l.1,-92.3v65.2l.1,66.7V453.3l.1,36.3v59.5l.2,-109.7v3.8l.1,47.6V474.7l.1,-70.6l.1,5.8l.1,84.1l.1,-85.5l.1,156.8l.1,-58.4V407.8l.1,114.9V474.6l.1,-36.4v86.9l.1,-20.8V472.7l.1,78.6l.1,-70.4v30.2l.1,53l.1,-100v31.3l.1,23.5V486.2v41.1l.1,-55.1l.1,26.4v22.8V398l.1,77.4V461l.1,46.2V482.6l.1,-84v51.5l.1,68.4l.1,-33.3v-27v57.7l.2,-117.1v85.5l.1,-2.5V422.4l.1,111.8V511.9l.2,-78.5v38.7l.1,-7.4l.1,-4.4v4l.1,127.2V441.6l.1,58.6l.1,-70l.2,124.6l.1,-93.8v18.3l.1,9.3V447.3l.1,14.1v17.8l.1,-34.6v69.8l.1,-14.5V433.4l.2,85.5V381.4v72.2l.1,42.6l.1,-11.1v12.7l.1,-54.2l.1,41.4v-4.4l.1,3.5V461.6l.1,83.4l.1,-173.4V503.4l.1,-11.2l.1,39.1l.1,3.5l.1,77l.1,-167.4l.1,-2.8l.1,44.8V421.2l.1,26.8v34.8l.1,-70.2V542.3V497.9l.2,-75.2v54V383.1l.1,141.4l.1,-4.8V399.5l.1,58.6v20.5l.1,-40v76.7l.1,-33.1V470.5l.1,-88.3l.1,49.3v91.8l.1,-13.4V436.6l.1,15.1v.9l.1,-11.4v35.3l.1,-41.7V503V417.8l.1,24.9l.1,72.9V464.9l.1,-22v56.9l.1,-32.7l.1,-30.6l.1,66.1l.1,-90l.1,76.7l.1,-15.4l.1,-27.8l.1,107l.2,-165.7v71.3l.1,-12.6l.1,79V469l.1,11.2v48V449.3l.1,17.7l.1,-38.9V530.6l.1,-26.7v5.8l.1,-85.6l.2,61.8V417.8l.1,28.7l.1,94.7l.1,-76.3V486l.1,12.8V455.2l.1,13v38.7V472.8l.1,-30v7.3l.1,77V445.3l.1,48.1V445.9l.1,-42l.1,91.7v-9.8l.1,-4.2v21.3l.1,-45.4v59.1l.2,-94.4v83.4l.1,-76l.1,50.3V388.6v10.5l.1,159l.1,-74.9v-1.3l.1,-28.4l.1,39.2v-1.4l.1,-27.6v57.7V464.3l.1,-30.8l.1,88.7l.1,49.4v-6.3l.1,-123.2V472l.1,8.6l.2,-27.3l.1,39.9V431.7l.1,7.3v86.4v-56l.1,11.6V444.9l.1,86.1V439l.1,59.5l.1,-35.8V377.5v78.9l.1,49.1V458l.1,-28.8v37.4l.1,-25.2V425.6v20.3l.1,-48.7l.1,107.3l.2,-108.2l.1,154V483.1l.1,28.9V477.4l.1,17.3V516l.2,-75.5v70.3l.1,-22.7v2.5l.1,33.9l.1,-67.5l.1,84.8V463.6v83.9l.1,-38.2l.1,-97.8l.1,107.9l.1,-32.1l.1,-12.4V532V521.9l.1,-97.4l.1,85.3v-56l.1,98.6V488.8l.1,-4.1v13.5l.1,-39.7l.1,65.9l.1,-95.1l.1,7.5l.1,118.8v-35l.1,-37.8v36.9l.1,-14.7l.1,-80l.1,78.1V410.6l.1,51.1v53.9L372,404.4V525.3V493.5l.1,-105.3v92.9l.1,9l.1,-31.9l.1,41.3V489.2l.1,-42.8v13.2l.1,-3.3V440.7l.1,29.1V422.5l.1,103.1V488.2l.1,-88.7V547.2L373,399.6l.1,15v96.9l.1,-77.8l.1,53l.1,-82.5v92.1l.1,-88.3l.1,29.8v33.7l.1,-22.9v2.2l.1,17.3V411.2v81.3l.1,-25l.1,9.3V441.4l.1,55.5V485.5l.1,-52.9v11.2l.1,97.7l.1,-120l.1,61.6l.1,.7l.1,-41.7v11.1l.1,3.5V453v8.1l.1,-39.3v35l.1,-1.3v20V419.9l.1,38.9v5.4l.1,-49V516l.1,-30.2l.1,-31.3v36.6l.1,-115.6V526.7l.1,-46.6l.1,7.1V433.5v44.9l.1,10.6l.1,-42.7l.2,120.8V428.6l.1,46.2l.1,33.2V429.3V474l.1,35.2v-42l.1,6.7l.1,3.2l.1,50.9l.1,-75.5v38.4l.1,22.2l.1,-68.5V516l.1,-1.2l.1,-86.4v39l.1,-24.1v56.6l.1,-1.9V449.6l.1,27.9v-12l.1,-10v22.6l.1,-28.6v55.9l.1,-2.3V423.7l.1,73.1V457.2l.1,5.1l.1,90.4V468.4l.1,45V495.1l.1,-56.2l.1,135.9V530.3l.1,-91.6v59.8l.1,-27.1V432.8l.1,58.5V408.6l.1,1.3l.1,35.4l.1,27.5V396.7v74.9l.1,-20.4V499l.1,-58.4l.1,27v40.1l.1,-76.2l.1,.7V419v21.1l.1,-33.8V525.1l.1,-43.1V458.7l.1,31.4V450.4l.1,71.4V489.9l.2,-83.1l.1,120.2V393.4l.1,126.7l.1,-9.5V445.4v20l.2,44.5V443.7l.1,38.3l.1,17V473.4l.1,57.7l.1,-44.3v62.6l.1,-80.4v56.9l.2,-95.4l.1,96.6l.1,-23.3l.1,-40.7v30.7l.1,-53.9v76.9l.1,-37.3v-30l.1,1.8l.1,71.4v-4.3l.1,-93.1v36.1l.1,70.8l.1,-6.1l.1,-73.8v56.4l.1,-13.2l.1,-46.6v53.2V482.5l.1,-54.3l.1,38.6l.1,-57.7v95.7V399l.1,117.7V465.4l.1,-24.1v73.1l.1,-51.8v78.1l.1,-101l.1,144.4l.1,-38L383.6,401l.1,13.9l.1,130.3l.1,-10.5V433.6l.1,35l.1,13.2l.1,-17.3l.1,80.6l.2,-99V498l.1,-71.5v58.4l.1,.4V455.4l.1,83.2l.1,-22.2v12l.1,-75.6v38.3l.1,-11.7v85.5V416.8l.1,65.6l.1,-75.3l.1,104.1l.1,-46.4l.1,21.4v28.3V466.1l.1,34.9v19.7l.1,-96.7V526.5v-102l.2,104.8V471l.1,96.9v-86l.1,-28.4l.1,46.5V443.5l.1,41.4v-6.3l.1,-50.9V526l.1,-17.7l.1,39.7V515.4l.2,-126.7l.1,138.4V511l.2,-123.4l.1,123.5l.1,-23.5l.1,-15.7v15.7l.1,-17.8v71.5V474.6l.1,-38.9l.1,16.7v81.9l.1,-30.6V470.5l.1,14.3v7.5V469.4l.1,25.2V410.1l.1,127.4l.1,-20.4V484.9v21l.1,7.8V475.3l.1,58.5V508.5l.1,5.9l.1,14.8V418.1v15.6l.1,66.9l.1,-91.4V514.9l.1,-86v65.2l.1,48.6l.1,-122.8v59.8V438.4l.1,17l.1,84.4l.1,-138.6l.1,16.1v81.6l.1,-28.3V427.8l.1,120.5V462.9l.1,18.9l.1,-20.4v5.5l.1,51.2V498l.1,-25.4l.2,56.9l.1,-123.7v33.6l.1,37.8V438.1l.1,35.2l.1,10.7v-3l.1,23.2V395.3l.1,31.8V543.6l.1,-99.3v35.2l.1,24l.2,-63v.5l.1,44.9l.1,-18.5l.1,-63.9V528.9l.1,-45.2v-6.8l.1,8.1v36V498.8l.1,-92.7l.1,40.7l.1,108.5l.1,-98.8v90.8l.1,-62.2V435.8l.1,41.2l.1,20.3V426.8l.1,121.5V517.4l.1,-35.6V538V527.3l.1,-63.7l.1,68.6V443.3l.1,6.8v83.4l.1,-49.5v-5.3l.2,36.7l.1,-88.5l.1,74V487.7l.1,-34.3V556.2l.1,-41.8V568l.1,-107.7v45.1l.1,15.5l.1,-98.5v74.1V435.8l.1,-.1l.1,51.8l.1,-18.2v19.4V420.8l.1,5.9v97.8l.1,-89.6v39.5V439.7l.2,71.9V501l.1,-12.7V399.9l.1,104.8V397.8l.2,109.9l.1,-52.1v40.6L395.5,383V511.9l.1,-14.1V453.6l.1,66.8V483.1l.1,-41.4v5.9l.1,53.3l.1,-84.5v50.3l.2,61.1l.1,-81V563.4l.1,-55.5l.1,-59.2l.1,5.2l.2,86.3V408.8l.1,5.4v2.2l.2,58V426.3l.1,111.7l.1,-100.5v-6l.1,114.8l.1,-20.9V455.8v30.6l.2,98.5V451.7l.1,14.7l.1,22.6v-7.4l.1,-25.3v47.8V401.8l.1,99.1l.1,-47.1v89V460l.1,-62.7v58.1l.1,71l.1,-95.8l.1,49.5v54.3V511.9l.1,-23.1l.1,60.3V462.4l.1,1v.1l.1,-22.7v81.5l.1,-87.4v89.9v-36l.1,-57.4v74.5l.1,-27.9V434.1v66.7l.1,-87v50.7l.1,47.3l.1,-4.1V450.9l.1,14.1v46.9l.1,-56.4v20.6l.1,47.1V479.1l.1,2.9V453.8v98.5l.1,-172.1v63.7l.1,80l.1,-118.2l.1,120.7V465.9v.6l.1,46V500.9l.2,-71.3v11.3v-4.2l.1,51.4l.1,-31.1V443.4v46.9l.1,-20.9V427l.1,112.4l.1,-97.3v29l.1,33v-115l.1,69.2l.1,31.5V413l.1,37v90.8l.1,-26.4l.1,-135v60.5l.1,131.4V524.4l.1,-60.1v67l.1,-20.7V490.2l.1,-78.6v40l.1,-26.2l.1,132.5l.1,-87.5v31.5l.1,26.1V488.5l.1,12.6v-.2l.1,-84l.1,31.2v26.1V419l.1,24.4l.1,57.6V458.1l.1,15.9l.1,58.7V484l.1,-4v3.1l.1,27.8v-8.2l.2,-39.1l.1,58.8V379.8V547.5l.1,-62.5l.1,32.3l.1,-102.6l.1,85.8l.1,-88.6v60.8l.1,-33l.1,60.7V488.9l.1,-72.3l.1,109.7V430.2l.1,77v20.5l.1,-11.4V438l.1,63.4l.1,-2.9l.1,-44.3v48.4V474.3l.1,-38.6l.1,91.3l.1,-99.5l.1,111V489.4l.1,-41V505l.1,-90.9v36.6l.1,63.7V499l.2,-35v8V433l.1,28.6l.1,81.2V452l.1,23.8V437.3l.1,19.6l.1,82.5l.1,-36.8V478.2l.1,37.9v-32l.1,-29.1v54.4l.1,-42.2V433.9l.1,90.7l.1,-85.9l.1,105.3l.1,15.9l.2,-108v54.7V464.9l.2,48.3l.1,-8.8V439.9l.1,8.9l.1,65.2V500.7l.1,-14.2V418l.1,140.3V536.2l.2,-46.6l.1,21.6l.2,-82.5v.9l.2,70.9V475.3l.1,50.2V459.9l.1,25.5v16.4v-.7l.2,-51.3v88.1l.1,-73.2v-16V483l.1,-64.1l.1,80.1l.1,-73.5v23.2l.1,63.2V434.3v27.8l.1,42.3V468.8l.1,-52.3l.2,53.6v2l.1,9.6V432.1v26.1l.1,7.5v-29l.1,84.1V456.3v22.1l.1,-45.7V457l.1,12.1V408v54.2l.1,-2.5v16.1l.1,-1.2V415.7l.1,108.9V509.2l.1,-53.7V574.4l.1,-19.4V451.5l.1,19.6l.1,62.7l.2,-151.2l.1,109.2V460.7l.1,30v34L412,468v.8l.1,8V416.9l.1,150.8V508.1l.1,-93.5l.1,27.2v3.1v-8.1l.1,44.4V466.1l.1,-10.4v58.6l.1,-15.2l.1,-79.9v57.7l.1,47.1V454.7l.1,73.7V497.8l.1,-29.2v23.7l.1,63.5V481.2l.1,6.5v-28l.1,76.9V460.1l.1,6.8V443v54.5l.1,-66.5l.1,6.6v98.1l.1,-8.5V489.8l.1,33.9l.1,-35.3l.1,-78.4l.1,104.4V424.8l.1,94.4V429.7l.1,19.3v77.3l.1,-2v-1.2l.1,-50.2v39.7l.1,-16.8l.1,-92.4l.1,55.6l.1,17V422l.1,89.1V464.3l.1,-3.4V441.7l.2,55.6V429l.1,31.1V477l.1,-19.8l.1,14.5l.1,-48.3v80l.1,-34v2.1l.1,-15V483V466.7l.1,-29l.1,59.2V442.8l.1,59.5V442.2l.1,12.6V552l.1,-39.6l.1,-27.1V534l.1,-160.4l.1,177.2l.1,-101v97.7l.1,-6.8V478.1l.1,15v-10l.1,6.2v19.9l.1,-87.5v58.9l.1,-1.7l.1,-88.3v90.7l.1,-.1V449.6l.1,22.1v66.2l.1,-35.2V440.2v12.6l.1,153.8V517.7l.1,-12V427.9l.1,26l.1,114.2l.1,-123.5l.1,20.3v-2l.1,-18.1v34.6V451l.1,-43.9v14l.1,77.7l.1,-75.8v26.1l.1,46v-32l.1,-38.4l.1,117.1V469.6l.1,10.5V442.4l.1,2.4l.1,60.6l.1,-87.1l.1,61.6V421l.1,111.1V450.2l.1,-37.6V525.5V426l.1,8.7l.1,79.7V479.6l.1,16.1V565l.1,-154.8v38l.1,80.5V500.1l.1,-21.3v43.7l.1,-106.2l.1,66.5V457.1l.1,-30.3v19.4l.1,61.6v-7.4l.1,-41.2l.2,75.4l.1,-112.4l.1,145.1l.1,-125.5l.1,.3l.1,63.5V387.4l.1,142.4l.1,-48.1v35.8v-103l.1,40.5v48.8L422,496l.1,-72.8l.1,61.1l.1,-17.7v50.3l.1,-7.5l.1,-77.5V532.6l.1,-127.7V527.1l.1,-89v-6.7v66.4l.1,-28l.1,6V461.4l.1,31.8V450.6l.1,6.3l.1,52.3V492.5l.1,-59.8v72.9l.1,-23.3v33.6l.1,-18.5V480l.1,59.2V428.9l.1,10.4v33.2l.1,-72.3V508.5l.1,-27.3l.1,-75.7v42.7l.1,90.5l.1,-37.3l.1,-84.6V540.7l.1,-12.7l.1,-46v57l.1,-92.4l.1,22.3v9.5l.1,-49V540.6l.1,-94.2l.1,91.1V416v69.9l.1,15.8l.1,-87.6l.1,88.8l.1,-38.3V456v7.2l.2,91.6l.1,-158.7l.2,72.2V418.9v44.6l.1,-4.2l.1,34.6V414.7l.1,59V546l.1,-17.3V449.3l.1,6.8l.1,61.9l.2,-68.5v67.2l.1,-25.2V457.6l.1,55.3l.1,-22.7V515l.1,-64.1v41.6l.1,30L427.3,414v7.4l.2,65.4V412l.1,123.8V518.2l.1,24l.1,-72.8v21.3l.1,30.4V481.7l.1,128.7l.1,-161.5l.1,45.5V441.8v86l.1,-70.1l.1,7.5v56.4V489.5l.1,-9.1V433.5l.1,22.1V488l.1,-26.3v-5.2l.1,1.6v32l.1,-.1l.1,-2.8V435.6l.1,86.5V481.3l.1,-6.3l.1,37.2V439l.1,18.7V519l.1,-45.2V442.7v11.6l.1,50.7V416.8l.1,139.4v-30l.1,-56.5l.1,17.5v28l.1,-85.3v87l.1,-11l.1,-51.6v44.8l.1,-9.5v-9.5l.1,44.9V510.2l.1,-69.6l.1,8.1v38.6l.1,-91.4l.2,110.6V493.3l.1,22.5v-7l.1,-98l.1,107.4l.1,-17.4V450.6v78.7l.1,-13.8v-111l.1,90.4v34.7v-65l.1,38.9v33.7l.1,-11.7l.1,-122.2l.1,124.2l.1,-68.3l.1,49.6v-.3l.1,-65l.2,66.8V449.2l.1,3.2v69.7l.1,-8.1V454.2l.1,36.1V446.8l.1,87.2V496.2l.1,-6.6v37.8L433,414.5l.1,93.7V497.5l.2,-63.4v47.2l.1,-35.9v88.1l.1,-101.1l.1,21.1v71l.1,-30.3V393.7l.1,119.6V386.6l.1,25v83.5l.1,-16.8l.1,31.9l.1,-92.2v5.2l.1,41.9V452.9l.1,-36v23.5l.1,29.8V429.8l.1,68.6l.1,-58.6v24l.1,26.4v-9.3l.1,-102.2V569.4l.1,-75.1V432.7l.1,12.3v59.8v-123l.1,75.5l.1,37.1v63.7l.1,-128V542.4V524.7l.1,-123.4l.1,9.7v10.1l.1,136.8V517.6l.1,-67.7v16.7l.1,66.6L436,425.5l.1,.5v65.5l.1,-6l.1,-25.5l.1,88.5V494.8l.1,10.3V489.9l.1,98.4v-135l.1,33.2v-7.6l.1,-42.6l.1,141.7V493.5l.1,-53.8l.1,47.3l.1,-14.7v22v-35l.1,53.6V415.5l.1,37.7v47.3V446.6l.1,18.3v27l.1,-4.1V406.9V481l.1,35.1V440.3l.1,104.8V401l.1,70.2l.1,-18.8l.1,-15.9v48.8V454.6l.1,-12.5l.1,95l.1,-138V502.7l.1,-82.5l.1,73.2l.1,-28.8v4V423.5l.2,127.3l.1,-36l.1,-100.2v96.1l.1,-63.8V393.4V581.6l.1,-41.3V455.8l.1,6.5v49.8l.1,-22.2l.1,-109.4v23.9l.1,87.3V392l.1,76v14.7l.1,-64.8v15.8L440,526V439.2l.1,59.7V528l.1,-62.6v1.3l.1,69.1V491.5l.1,23l.1,-69.5v62.4V488.8l.1,-23.1v18l.1,-6.1V423.3l.1,126.9V489l.1,14.8V489.7l.1,-24.5V568.4l.1,-142.5v38.6l.1,36V470.6l.1,-49v39.2l.1,47.8v-8l.1,-84.5v80.4l.1,-11l.1,62.5V430.4v48.9l.1,27.7V459.9l.1,4.5v75.8V458.4l.1,31.5l.1,19.5V444l.1,28.9v-.1l.1,10v62V501l.1,-60.4l.1,7.1l.1,37.5V465.7V484l.1,-29.3l.1,3.7V444.1v17.7l.1,-33.3v24.8l.1,-6.6v51.7l.1,-18.9v14.4l.1,-65.8V438l.1,66.9l.2,-59.7v38.1V429.5l.1,18.1v58.1l.1,-25.1V402.9l.1,107.2v-5.6l.1,-86.9V527.3l.1,-37.4l.1,53.1V440.6l.1,5.1v91V424.4l.1,15.2l.1,67.9V489l.1,-3.8l.1,-54.3V580l.1,-53.9l.1,-51.8v32.4l.1,-144.2V515l.1,-40.1l.1,54.2v-32l.1,-81.5v37.8l.1,-21.5v57.6V476.2l.1,-41.4v30.4l.1,37.9V433.9l.1,31.1l.1,-31.5v71.7V485.1l.1,-21.5v48l.1,-41.9V423.9l.1,93.7V443.4l.1,-14.7l.1,99.1l.1,-19.2l.1,-61.7v71.4V378.6l.1,59.7l.1,68.3l.1,-6.8V437.6l.1,15.6v38l.1,-51.3v14.8l.1,123.5V478.3l.1,-56.5v26.9l.1,47.3l.1,-86.7v77.8v-5.7l.1,-53.2v83.2l.1,-51.3V430.3l.1,107.8l.1,-67.9v40.1l.1,-24.6V458.4l.1,29.6v-5.8l.1,-58.7v22l.1,17.6V437.3l.1,21l.1,68.3l.2,-91.4v11.3l.1,103.5l.1,-68.9V421.7v1.8l.1,60.7l.1,-16.9v9V447.1l.1,50.8V482.8l.1,-38.2v57.5V476.9l.1,-58.9v5.6l.1,56.5V419.9l.1,128.3l.1,-96.5v2.2l.1,53.3v-1.5l.1,-85.1v81.2l.1,-38.6V449.5l.1,7.2v58.8l.1,-79.3v17.3l.2,63.5l.1,-91.9l.1,117.2l.1,-37.6V481.3l.1,76.7V434.3l.1,13.8v2l.1,127.2l.1,-163V522.8L451,489V433.9l.1,144.8V438.5l.1,63.7v34l.2,-83.1v31.2l.1,-58.1v90.1l.1,-64.5l.1,80.8V503.5l.1,-59.3v17l.1,-3v23.2l.1,-63.6l.1,87.5l.2,-27.6v44.1l.1,-12.5l.1,19.1V494.7v13.2l.1,11.3l.1,-54.6v81.9l.1,-12.4l.1,-106.2l.1,17.9v36.5l.1,-14.8V384.2l.1,135.1v-72l.1,-12.9l.1,87.1l.2,-84.6v60.9V474.4l.1,-40.5l.1,98.1V480l.2,-57.2l.1,45.8l.1,-60.6V530.4l.1,-96.3l.1,55.5V425.5l.1,129.1V492.4l.1,-14.5l.1,68.3V466.4l.1,20.3V442.4l.1,94.3V457.8l.1,-40v76.5V417.4l.1,44.9l.1,68.8L455.3,427l.1,138.4v-178v93.7l.1,36.5V495.9l.1,-33.9v5.7l.1,36.2V482.2l.1,-24V525l.1,-57.3v24l.1,-20.3l.2,121l.1,-13.2l.1,-106.9l.1,15.4V378l.1,128.1l.1,-46.2V413.2l.1,62.5V462.2l.1,32.6V449.6l.1,58v-86l.1,72l.1,-2.8v4.8l.1,-113.7v50.7l.1,55.2l.1,-43v46.8l.1,-78v66.3l.1,55.3V497.1l.1,-58.6V534l.1,-112.4v17.2l.2,85.9V451l.1,41.6V466l.1,30.6V479.1l.1,3.5v34.7l.2,-80.3v65.3l.1,-13l.1,-26.8v35.6V468.7l.1,-73.8v41.9l.1,68V423.9l.1,12l.1,-38.2l.1,102.8l.1,-23.7v42.7l.1,-14.1V474.9l.1,.1l.1,-30.7v18.1l.1,79.1V448.1l.1,28.9v62.1l.1,-77.9l.1,4.7v42.4l.1,-29.2V460l.1,34.8V478.3l.1,-88.9V483l.1,-17.9l.1,-9.4V560.3l.1,-49.4v6.3l.1,-56.3v70.2V469.7l.1,-27.7v34.5l.1,-44.3v51.3l.1,-16.9v-5.8l.1,-52.9V583.6l.1,-107.9v-24v19.6l.1,29.5V468.4l.1,19.1v49.4l.2,-117.5v69.1V402.1l.1,96.8l.1,-38.4V506l.1,-77.5v64v-6.1l.1,-62.7l.1,89.8l.1,-1.3V470.3l.1,43.4V480.9l.1,41.3l.1,-52.6v12.7l.1,-2.9v54.2l.1,-63l.1,20.5V445.4l.1,14.4l.1,-71.4V525.2l.1,-55.4l.1,-59.9l.1,73.5v-7.6l.1,-15.1v25.9l.1,68.8V511.6l.1,.1V476.9l.1,14.7v-2.5l.1,-50.2v49.5l.1,47V435.3l.1,15.2V405.9l.1,136.7l.2,-113.1l.1,-9.8l.1,75.1V415.9l.1,73.3V419l.1,114.6l.1,-56V432.9l.1,23.3v-2l.1,123.1v-5.7l.1,-69.6l.1,45.3V389.6l.1,61.7l.1,62.4l.1,-85.5l.2,67l.1,-51.9l.2,94l.1,-125.1V569.6l.1,-86.4v9.7l.1,-9.7l.1,-21.8V422.8l.1,101.4V420l.1,99.6v49.1V466.6l.1,65.8v34.9l.2,-140v73.6l.1,-23.7v-4.4l.2,41.3l.1,-86.3V554.1l.1,-61.9V419.3l.1,70.9v3.2V455.6l.1,54.4V445.2l.1,65.3V481.7l.1,-78l.1,27.7v72l.1,-54.3v35.6l.1,15.7v-68l.1,103.5l.1,-140.3l.1,105.9v7.1V463.7l.1,6.2l.1,18.2V454.9l.1,3.3l.1,58.9V462l.1,25.2l.1,-51v52.7l.1,-24.4V422.6V557.4l.1,-57.1l.1,-.7V463.4l.1,13.6V462.4l.1,22.5V425.4l.1,15.8v55.9l.1,-14.9l.1,23.5V545l.2,-110.9v18.2l.3,146.3L470.5,464l.1,10.5V455.3l.1,75l.1,-81.1l.1,16.5v52.8l.1,-27.9V468l.1,10.4v24.3l.1,-95.7l.1,29.3v39l.1,-16.6v15.7l.1,-59.9l.1,67.6V430.8l.1,26.8v6.2l.1,35.1V442l.1,26.1V445.5l.1,81.4V495.1l.1,-14V427.9v7.4l.1,126.6v-53l.1,-22.7v52.1l.1,-10.1V452.3l.1,42.9V506v-5.3l.1,-21.9v34.1l.1,-38.6v73.9l.1,-26.9V484.6v6l.1,15.7V505l.1,-17.3v93.8l.1,-114.9v50l.1,16.7V485.5l.1,68.2l.1,-111.4v70.6l.1,-33l.1,32V496.7l.1,-8.5V450.9l.1,50.8l.1,-30.8v25.5l.2,-45.7v14.1V446.3l.1,45.3l.1,-17.3V449.7v20.1l.1,44.1V423.6l.1,48.1V497l.1,-51v11l.1,35.4V402.2l.1,35.8l.1,93.8l.1,-14.2l.1,-63.9l.1,28.7V407.9v51.5l.2,79.3l.1,-101V486l.1,-38.1v84.9l.1,-37.6V479.7l.1,70.8V513.4l.1,-41.1v85.6l.1,-7.6l.1,-100v47.1l.1,-75l.2,94.4V442.7l.1,13.3l.1,54.6V477.9l.1,-41.6v52.5l.1,-62.2v.7l.2,75.9v-58l.1,35.8v-8.5l.1,1.2l.1,54.6V502.6l.1,10.7l.1,-26.9v24.9l.1,-15.9l.1,-85.3v93.5l.1,-48.4l.1,17.1V415.2l.1,93.2l.2,-48.8v-6.5l.1,-26.1v21.2l.1,38.5V447.6v69.7l.1,-35.8l.1,-51.2l.2,96L478.9,422v17.4l.1,72.3l.1,-40.1V418.4l.1,76.2l.1,-28.7v-4.5v16.5l.1,-54.7v82.5l.1,-15.9v35.9l.1,-103.6l.1,20.7v76.9l.1,-88v37.4l.1,47.8l.1,-10v-50v3.7l.1,61.2V497.9l.1,-53.9v69.9l.1,-18.5V438.6l.1,50.6v54.5v-39l.2,-68.3l.1,75.3l.1,-37.6v57.6L480.9,348v89l.2,94.5V422.1l.1,82.9l.1,-31.2V488V460.4l.1,11.4l.1,-5.6v30.2l.2,-70.5v68.2l.1,-5.7v-8.2l.1,43.3v-42l.1,-74.7v86.4l.1,-4.2V432.1l.1,95.6l.1,-74.1l.1,50.4V438.6l.1,30.7v1.3l.1,-51.2v20.8l.1,82.9V454.9v3.5l.1,-6.8l.1,93.4L483,435.5l.1,8.1v13.7l.1,92.6l.2,-110.2v12.1l.1,42.8V424.3l.1,30.3v15.7l.1,-31.2l.1,108.5V446.4l.2,111.7l.3,-122.9l.1,62.4l.1,-13.1v32.6v-.2l.1,-112.8l.1,36.8v90.7V469l.1,12V457.2l.1,14v44.1V494.1l.1,-21.8v5.8l.1,7.7l.1,-62.9l.1,55.2l.1,22V467l.1,20.8V451.3l.1,2.7v27.5V471.1l.1,-24.7v22.4l.1,-5.4v1.3v-36l.2,104.5V412.6l.1,69.9v30.8l.1,-109V545l.1,-64.4l.1,19V428l.1,88.4V424.2v50.9l.1,88.2l.1,-97.6v13.6l.1,28.9v-18l.1,-39.2v57.2l.1,-38.1V385.2l.2,174l.1,-125.4l.1,86.6l.1,-150.5l.1,111.4V466.7l.1,-32.5v36.7l.1,-97.4l.1,168.6V480.8v35.6l.1,-42.3l.1,3.5l.1,36.4l.1,-14V424.9v38.7l.1,54.6V456.4l.1,25.3v9.5V438.4l.1,73.6V433.8l.1,14V539l.1,-121.9l.1,125.6l.1,-35.5l.1,-103.6l.1,1.2v91.4l.1,-25.7l.1,18.9V464.3v27.3l.1,-106V538.7l.1,-53.6l.1,18.9l.2,-81.8V531.1V383.2l.1,51.4l.1,58.1V461.6v4.7l.1,-30.1l.1,31.3V423.2v72.4l.1,-4.2l.1,-106.7v9.8l.1,123.2V460.5l.1,9.6V410.4l.1,39.1v-3.4v37.3l.1,-61.8v30.1L491,514l.2,-56.5v62.6l.1,-42.1V438.4l.1,26.5v9.5l.1,-51.3l.1,136.9l.1,-16.6v25.2l.1,-117v55.6l.1,110.1V552.1l.1,17.4v2.1l.1,-70.6v58.1l.2,-59V471.9l.1,127.8V493.1l.1,-64.3v94.7l.1,-3.8v-89v36.8l.1,55.9V419.9l.1,82.3l.1,-55.7v54.9L493,477v23.8l.1,-17.7l.1,-79.3V530.3l.1,-53.2v38.3l.2,-73.9l.1,54.1l.1,-49.7v62.5V496.6L493.8,367V480l.1,32.3l.1,-71.6v65.4l.1,-19.4l.1,-75.9l.1,10.5v88.6l.1,-4.1V412v52.4l.1,1.7l.1,-28.2l.1,89.7l.2,-79.7v26.7v-.4l.1,-40.1l.1,88.4V428.9v35.9l.1,66.8l.1,-38.1V474.9v4l.1,52.5l.1,-37.2V516l.1,-59.9l.1,44V494l.1,-50.2v7.9l.1,85.6l.1,-35.4V470.6l.1,99V488.7l.1,-47.2v37.7l.1,-11.4v23.8l.1,-8.7V446.5v18.4l.1,43.9l.1,-16.2l.1,-97.6l.1,91.3V440l.1,-51.7V493.2l.1,-28.1V441.9l.1,62.3v87.6l.2,-132.1v35.5l.1,-39.3v41.9l.1,-.4l.1,-34.4v18.7l.1,29.1l.1,-90.1v86.1V457.6l.1,-16.4V561l.1,-29l.1,-185.5V457.3l.1,76.4l.1,-94.4l.2,147.3V408.9l.1,9.8l.1,94.8V428.3l.1,64l.1,-104.6v28.1l.1,83.8l.1,-46.3l.1,33.6l.1,-61.5l.1,64.7V426v3.3l.1,51.9l.1,-45.3l.1,70.8l.1,-91.5v96.1v-55l.1,-16l.1,40.4V435.1v15.7l.2,71.5l.1,-42.1l.1,17.7l.1,-56.8V546.6l.1,-31.5l.1,-56.9l.1,105.5l.1,-108.3V529l.1,-56.7l.1,10.9V459.5l.1,94.2V473.9l.1,22.8l.1,-50.8v26.8l.1,11.4V429.2l.1,33.7v.3l.1,-60l.1,94l.1,-89.7l.2,139.2L502.4,395v88.4l.1,-27.8V427.8l.1,77.6V469.9l.1,8.4V454.4v23.9l.1,-94.6l.1,99l.1,-24.1v13.2l.1,-12.7V494l.1,-49.2v76.6L503.3,416l.1,25.1v34.1l.1,-12.8v10.1l.1,69.9V515.2l.1,-81.4l.1,69.4V446.8l.2,47.5l.1,-9.3V444.2v43.9l.1,-8.8V430.2l.1,54.6V463.4l.1,-20.1v75.6l.1,-88.7V468l.1,-13.2v52l.1,-21.3V459.7l.1,90.3V535.3L504.9,435l.1,34.6v36.6l.1,-24.2v46.3l.1,-114.4V521.3l.1,-25.1V437.6l.1,50.1V493l.1,-35.5v51l.1,-124.7v84l.1,19.7V451.1l.1,53.4V425.1l.1,4.7v98.9L506,416.6V519.9l.1,-46.6v46.4V504.4l.1,-74.1l.1,33.1v84.3V521.3l.2,-103.9l.1,88.7l.1,-12.8l.1,69.6V481.2l.1,46.5v87.1l.1,-73V478.1l.1,50v56.4l.1,-76.8l.1,44.3V517.8l.1,4.2V510.8l.1,-89.4v90.4l.1,-4.9V436.2l.1,20.1v58.6l.1,-81.2l.1,41.3V463l.2,69.2v-75v36.4l.1,13.7l.1,-31.4v30.6l.1,-39.7V539V441.4l.1,42.5l.1,16.5V408.7l.1,66.1V466l.1,68.7V439.4l.1,45.5v89.2L509,462.8V550l.1,-35.6V454.8l.1,34.5v4.1l.1,-50.6l.2,53.7V405l.1,48.3l.1,73.6v-30V522l.1,-47.8l.1,8.4v-12l.1,18.8v-9.9l.1,-40.6v46.7l.1,-105.3V507l.1,-10.4V386.4l.1,53.7v61.3l.1,-38.5v4.3l.1,36.3V450.3l.1,26.3v10.8l.1,85.2l.1,-154.7v59.8l.1,-35.5v-.9l.1,-63.4V483.2v-.3l.1,-91.5l.1,141.8V436.1l.1,27.5v72.1l.1,-34v-36l.1,16.9v62.7l.1,-37.5l.1,-60.7l.1,3.3l.1,48.4V439.7l.1,74.6v-3.5l.1,-111.9v52.6l.1,27.9l.1,-101.2l.1,134V456.1l.1,28.1l.1,-57.6v89l.1,-59.3v38.3l.1,25.8V415v84.1l.2,-55.5v60l.1,-7.8l.1,-74.3V546.3l.1,-81.7v-5.8l.1,8.6V498l.1,-74.1v34l.2,79.1V515.4l.1,27.1l.1,-71.9v29.5l.1,-36.5l.1,76.2v-9.5l.1,5.4v-2.3l.1,-16.1v27.9l.1,-93.4v67.4l.1,-48.8v7.5l.1,-18.8l.1,70.4l.1,30.5V527.2v48.5L515,504v53l.1,16.6l.1,-36.4l.1,60.1L515.4,441l.1,55.4l.1,16.8V482.1v99.5l.1,-161.4l.1,45.1v49.1V456.1l.1,4.8l.1,-7.8v30.8v-7.3l.1,-46.6v85.7l.1,-55.8v1.8l.1,74.5V439.8l.1,56.3V457.5l.1,-19.9v18.6v-.4l.2,20.6V463l.2,57.9V463.4l.1,26.1V437.1l.1,26.4v21.6l.2,-69.7v66.7l.1,-12.3V408.2l.2,115.8V470.7l.1,24v6.2l.1,-52.3v13l.1,10.5V413.7l.1,132.8l.1,-39V442.6v21.6l.1,14.5V446.1l.1,11.5v26V432.1l.1,123.1V492.5l.1,-66.6V536.8l.1,-78.5v99.8l.1,-6.7V460v83.7l.1,-6.7v40.3l.1,-73.4l.1,.7V458.9l.1,69l.1,-17.3V418.3l.1,89.5l.1,-31.7v16.7v-19l.1,81V491.9l.1,-13.1v23.8v-67l.1,53.8v77.7L519.8,433v36.5l.1,61.4l.1,-12.6l.1,-70.2v6.4l.1,84.7l.1,-38.9v35.4l.1,-23.6l.1,-65.7v49.9l.1,-43.2l.1,15.7V457.4l.1,85.2l.2,-87.3v13.1V439.3l.1,51.1l.1,-56.1V564.4l.1,-27.3V502l.1,23.3v25.5V424l.1,23.3l.1,33.2V431.8l.1,92.3V482.3l.1,20.6V423.2l.1,64.1v-19l.1,-54.1v74.3l.1,-115.9V550.1l.1,-52l.1,-85.3l.1,7.1l.1,75.2l.1,-76.1v12.3l.1,68.5l.1,-95.3v15.2l.1,23.2l.1,10.4v-2.7V561.5l.1,-85.3v-44l.1,78.5l.1,-35l.2,89.5V440.8l.1,17.4V443.9l.1,54.5l.1,-63.2v45l.1,-2V491V463.7l.1,39.4V488.3l.1,-81.3v7.6l.1,72.4l.1,-48.2l.1,23.2l.2,62.5V398.8l.1,50.7l.1,64l.1,-98.1l.1,107.4l.1,-99.6l.1,84.4l.1,-89.8v34.7l.1,-.2v45l.1,-58.9v61.7l.1,-8.3V477.6l.1,17.4V452.9l.1,17.5v5.5l.1,87.7v-50l.1,-73l.1,33.6l.1,-46.4V535.5l.1,-70v4.8l.1,29.4V426.9l.1,10.5v-5.5l.1,9v98.6V488.8l.1,-12.2v23.7l.1,-60.7v9.6l.1,19.1V443.2l.2,107.6V464.3l.1,16.9l.1,-38.6l.1,55.9V433.7l.1,126.2V450.2l.1,8.8v47l.1,-146.2v39.6l.1,73.3l.1,-6.5V452.5l.1,12.4l.1,72.3V502.5l.1,47V412.1l.1,30.1l.1,130l.1,-3.8V483l.1,33.6l.2,45.2v25.9l.1,-129l.1,86.9V419.8l.1,49.7v-.4l.2,-5.5v44.5V482.2l.1,-87.6l.1,92.3v-8.8l.1,-27v43V458.4l.1,-36.6l.1,90.8l.1,-82.7v43.2l.1,-50.9V481l.1,-11l.1,21.1l.1,-55.1l.1,96.8V469.7l.1,-39.1v76.1l.1,-77.8l.1,25.7v35.5V411l.1,39.1v5.8l.1,57.7V431.1l.1,29.4l.1,34.3V467.3l.1,76.6l.2,-108.3l.1,74.7V445.2l.1,87.8V505.4l.1,-56.8v78.3l.1,-33.3v10l.1,-120.4l.1,95.1V587.8l.1,-199.5l.1,166.8L532.3,451l.2,84.9l.2,-77.9V432.8l.2,68.1v-60l.1,8v82.7l.1,-46.3l.1,-20.9V442.7v34l.1,-46.3l.1,79l.1,-90.9v37.8l.1,86.7V441.2v36.5l.1,49.8V450.7l.1,32.1v26.3l.1,46.5V548L534,434.9l.1,14l.1,79.9V474.9l.1,56.8v-7.1l.1,-74.4l.1,77.4V403.9v30.8l.1,75.1l.1,-20.7V448.6l.1,3.3l.1,75.3l.1,-11.6V464.4v24.3l.1,60.8V441.9l.1,26.1V401.1l.1,49.1l.1,71.7l.1,-61.9l.1,125.4V457.9l.1,14.1v23.6l.1,-59.2l.1,9.7V546.9l.1,-14.6v56.9l.1,-83.7v15.4l.1,-25.6V532l.2,-124.1l.1,85.8v-23l.1,-11.8v25l.1,-2.3V454.3l.1,8.2v32l.1,-36.4v11.7l.1,18.3v-4.6l.1,-96v41.7l.1,29.9V445.2l.1,27.2V441.1l.1,74.6l.1,-65.3v45.2l.1,10.4V451.1l.1,14.5v20.8V462.7l.1,108.9V541.8l.1,-60.7v45.5l.2,-108.5v42.6V451l.1,-27.4l.1,95.8V448.9l.1,32.9l.1,-39.8l.1,76.8V459.2l.1,26.2v19.4l.1,-22.7v46.4l.1,-94.6V587.6L539,495V447.4l.1,19.9v101l.1,-79.1V440.8v39.1l.1,42.6l.1,-88.2l.1,158.7l.1,-165.4l.1,21.8v87.2V450.7l.1,-17.2l.1,146.7V550.8l.1,-105l.1,.5v75.9l.2,-98.9l.1,72.1V483.3v1.3l.1,-25v43.6l.1,-60v52l.1,-88.1v42.4l.1,37.1v-9.4l.1,5.5l.1,16.5V473.8l.1,98v-74l.1,-10v24l.1,-65.6v66.9l.1,-26.9v-57l.1,120.6V498.4l.1,29.4V457.6l.1,24.4v69.5l.1,-75.3v46l.1,-73.3v92.7l.1,-54.7V460.2l.1,13.8v.4l.1,-10.1V486l.1,-59.5l.1,66V476l.1,11V475.2l.1,19.2v-2.7l.1,-29.2v43.4l.1,-73.4v33.9l.1,-17.9v13.8l.1,9.7V437.6l.1,10.1v17.6l.1,70.9V412.7l.1,71.5v3.2l.1,-75.3l.1,91.1v-86l.1,103.1V482.2l.1,-54.3V532.2l.1,-19.7V434.6l.1,24.5v39.1l.1,-.4V461.4v.7l.1,90.7l.1,-131.3v69.8V409.8l.1,.3v94.4l.1,-3.3V406.1l.1,56v56.1l.1,-63.2v67.3l.1,-17.3l.1,-31l.1,84.1V407.4l.1,54.5l.1,48.2V461l.1,18.5l.1,-59.7l.1,66.6l.1,-8V451l.1,41.7V417.3v33.6l.2,52.2V397.7l.1,94.4l.1,-17v43.1l.1,-78.4v51.1l.1,3.5v72.8l.1,-118.9V461l.1,3.8v-8.6l.1,6.6v41.8l.1,-86.2l.1,30.2v6.3V421.6l.2,71.4v-2.7L547,365.1l.1,151.5V403.1l.2,100l.1,-44.2l.2,46.5v-1.7l.1,-87.4v63.6l.1,-1.4v-56l.1,73.2l.1,-4.4v3.6V432.2l.1,59.3v28.6l.1,-38v91l.1,-51.3v-3.9v.1l.1,28.4V450.8l.1,34.5v13.8l.1,-9.9v.2l.1,56.8V445.5l.1,13.2v57.4l.1,-22.7V467.7l.1,73.8l.1,-31.3l.1,-64.8v30.2l.1,-9.2l.1,2.9v38.2V491.7l.1,-85.1l.1,44.4v26.9V456.7l.1,-8.6l.1,103.4V506.8l.1,-39.6v71.1l.1,-22.2l.1,-14.9l.1,-91.5v83.6l.1,-35.8V426.6l.1,119.1l.1,-50.8l.1,-70.1l.1,54.4l.1,-47.2v12.1l.1,25.4l.1,-12.2V466l.1,-43.3l.1,84.3v12.3l.2,-96.2l.1,90.8l.1,-91v27.4l.1,107.9l.2,-176.3V521.2V457.5l.1,-29.3l.1,177.4l.1,-185.5V521l.1,-14.2V451.7l.1,7.9v42.2l.1,-5.8V472.2l.1,56v-2.9l.1,-106.1V473l.1,41.8V484.2l.1,24.4l.1,-57.7V475l.1,-4.7l.1,-91.8V490.8l.1,-3.4l.1,-52.9v64.8l.1,-77.2l.1,30.8v-2.8l.1,52v-5.3l.1,-102.2l.1,49.5v3.2L554,478V398.2l.1,111.7l.1,-65l.1,108.9v-75v2.8l.1,13.1V429.9l.1,54.4l.1,15.9V433.1v35l.1,-.8V459l.1,-42.2v32.8l.1,1.6v52.1l.1,-45v-3.9v69.7l.1,-17.8l.1,-61.6l.1,93.5V466.8l.1,24.7l.1,-36.9v3.5l.1,38.8l.1,-71.1V537.1l.1,-103.9v26.1l.1,-35.9v90.5l.1,-4.4V483.2l.1,58l.1,-106.9l.1,76.1V473l.1,-53.5v77v-23l.2,-78.9v92.7l.1,-8.8l.1,-41.4v26.4l.1,68.7L557,420.5V474l.1,-11.2v21.3l.1,-45l.1,6.9v51.6V431.1l.1,23.6l.1,9.8l.1,-52.1v1.5l.3,104.4l.1,-107l.1,81.8V439l.1,28.1v16.3V433.2l.1,61.7V492l.1,-83.5V534.4V470.8l.2,-105.6V528.6l.1,-76.3v-2.7l.1,39.6V434.1l.1,46.8v8.7l.1,-25.5v48.4l.1,-23.2l.1,-50.3l.1,60.5V476l.1,20.6l.1,-79.9l.1,101.1l.1,-89.4v44.8l.2,-44.6v55.8l.1,-26.3l.1,-40.6V442l.1,65.7V443.5v3.7l.1,20.5V439.9l.1,45.1V469.6l.1,-58.9l.1,81.4V441l.1,28.5V487l.1,-73.4l.1,36.9l.1,50V447.2l.1,63V421.8v25l.1,52.4V463.4l.1,-39.9v65.8V469.1l.1,-42.6l.1,53.1l.1,-101.8l.2,91l.1,-38.7v66.1L562,374.1v45.5l.1,81.3l.1,-59.7v36.4V424.4l.1,40.5l.1,-39.8v30.7l.1,19.4V454.6l.1,18.1l.1,-35.7v42.5l.1,-8.5l.1,-39.7v24.5L563,424v28.1l.1,69.1V359.6l.1,141.5v35.6l.1,-124.6v78.8l.1,-16.9v80.7l.1,-53.7l.1,-108.3v30.4l.2,114.7v-3.6l.1,-23.4v22.9L564,385.6V502.5l.1,-48.6V571.5l.1,-134l.1,63.8v-59v26.4l.1,21.2v-7.5l.1,-31.8v62.6V453.3l.1,-15.1v4.3l.1,91.8V365.6V483.3l.1,8.5l.1,-47.1v63.6V405.9l.1,44.2l.1,-17.9l.1,94.9V492.9l.1,-28.8v43.6l.2,-108.3l.1,93.9V408.2l.1,111.5V440.3l.1,16.4v85.1l.1,-34.1v22.7l.1,-95.9v95.6l.1,-46.7l.1,37.6V491.6l.1,-75.5l.1,109.7l.1,-73.8l.1,17V451.5l.1,-65.2V513l.1,-94.5V521.6l.1,-22l.1,-5.2V432.2v2.3l.1,35.9V430.7l.1,35.8V443l.1,41.2V454.3l.1,5.9V428.8v98.4l.1,-42V473.6l.1,-49.9l.1,74.8l.1,-65.3v73l.1,-22.1V456.9l.1,84.8V424.6l.1,49.7v21.2V419.4l.1,53.4v-8.2l.1,-43.5V533.4V511.7l.2,-84.6v85.4L568.7,399l.1,96.7v-6.1l.1,-39v40.3L569,414v8.4l.1,137.8l.1,-154V565.1l.1,-77.7l.1,-39.5v81.8l.1,-23.8l.1,-54.1l.1,33.5l.1,-44.9l.1,110L570,469l.1,30.5V484.6l.1,45.5V478.9l.1,58.8V514.8l.1,45.3V504.4l.1,21.1V554l.1,-21.7v-5.1l.1,-72.3l.1,87.5v-50l.1,-29v22.8l.1,36V404l.1,61.3v34.3l.1,-7V458.9v24.4l.1,-2.1l.1,-42.6l.1,10.8l.1,47.2V449.9l.1,71.9V467.5l.1,67.8l.1,-24.8V485v11.8l.1,17l.1,-56.1v47.2l.2,-82v67.9l.1,-54.2v.3l.1,37l.1,30.9l.1,-70.3l.1,105.7V452l.1,12l.1,48.2V484.1l.1,71.3V457.9l.1,12.8v43.1l.1,-5.4V473.8l.1,55.8l.1,-139.2l.1,157l.1,-114.3v15.7l.1,69.1l.1,-70.4v67.9l.2,-121.5l.1,116V482.5l.1,9l.1,-47.1l.1,101.2l.1,-36.3V392.5V521.6l.1,-51.4V403.5l.1,155.2l.1,-154.8l.1,98.7l.1,55.8l.1,-5.4l.1,-110.2v69.6V408.5l.1,17.2l.1,71.1v-3.3V499l.1,-100.2V571.2l.1,-46l.1,-122.7l.1,162.5l.1,-26.5V435.1l.1,41.8v52.2l.1,-21.6V417.2V586.1l.1,-131.2l.1,57.6v-64l.1,48.6V466.2l.1,-42v46.9l.1,-54.3l.1,96.3V468.2l.1,-15.5v84.1l.1,-41.1l.1,-57.9V530l.1,-105.8l.1,46.5v29.7V454.3l.1,34.8v87.8l.1,-49.4V505.6v74.2l.1,-54V383.7l.1,69.1l.1,-14.9v34.4l.1,-2.9v-9.2l.1,61.3V406.6l.1,94l.1,-21.3v41.4l.1,-59.1l.2,44.8V468.5l.1,9.1V501l.1,-89.9v59.1l.1,-35.7v26.6l.1,20.6V411.9v52.7l.1,-10.2v71.9L579.1,380v45.5l.1,8.4v74.5l.1,-82.1v27.6l.1,22.1v83.9l.1,-169.3l.1,103.4l.2,-57.5l.1,84.2V491.2L580,415v64.1V465.6l.1,58.8l.1,-65v46.9l.1,60V420.1l.1,52.3v5.9l.1,34.6V428v45.3l.1,-3.5l.1,41.1l.1,-48.9v46.1l.1,20.1V461.1v21.4l.1,33.9l.1,-90.7l.1,36.2V450.7l.1,75.6V462.2l.1,1.8V429.8l.1,67V478.3l.1,-25v51.8l.1,-60.5V456l.1,52.6v-30V482l.1,-55.8l.1,67.3V402.4l.1,27.7l.1,60.3l.1,-21.4v19.8V440.5l.1,41.6v15.2l.1,-31.1v24.2l.1,-31.3V577.2l.1,-79.6v-58V498l.1,-8l.1,-53.3v38.6L583,465l.1,-53v25.1l.1,26.3v-5.7l.1,14.2V457.7l.1,51.8V406.7v93.1l.2,46.7l.2,-132.6l.1,76.7V451.3l.1,17.2l.1,108.3v1.7l.2,-152.6l.1,61.1l.1,-52.3l.1,95.1l.1,2.6v-7.5l.1,41.5L585,390.7l.1,172.5V525.7l.1,-53.8l.1,114.9v-99l.1,3.4v-3.6l.1,-35l.1,14.8l.1,73.6V374.3l.1,79.9l.1,136.1l.2,-136.6V516l.1,-20l.1,85.7V470.6l.1,86.6l.1,-22.5v-5l.1,-102.8v146l.1,-58.5l.1,-80.6v3l.1,45.2V434.7l.1,70.5V414.3v31.2l.1,61.9V381.5l.1,108.8l.2,-59.5l.1,96.5V417.9l.1,35.1l.1,41.2v-5.6l.1,-56.2v14.9l.1,57.2V438l.1,9v13.4l.1,-8V440.9l.3,64.5V418.2l.1,21.5v113l.1,-36.7l.2,-121.1l.1,107.9l.1,-37.9v6.5l.1,32.9l.1,-94.4l.1,146V526.3l.1,-83.3l.1,36.5v24.4V491l.1,-23.6l.1,62.7l.1,-87.4l.1,69.7V452.5l.1,88V445.7l.1,37.3l.1,-27.2v12.6l.1,-24.2l.1,111.1l.1,-111.5l.1,53.5V486.4v26.9l.1,-61.6l.1,23.3v16.9l.1,-99.5v41.3l.1,95V482.4l.1,-23.2l.1,69.2l.1,-105.8l.2,57.6V433.4v82.1l.1,-33l.1,-92.2l.1,163.1V489l.1,-33.8v50.9l.1,-60.3v60.4v-37l.1,-43.5v79.6l.1,-99.6v68.8v-8.6l.1,47.1V455.2l.1,9.1v-2.9l.1,102.7v-158l.1,34.9V426.8l.1,43.1V422.1l.1,79l.1,-14.4V432.8v40.3l.1,54.7V460.6l.1,132.1V379.3v94.1l.1,108.8l.1,-24.2l.1,-145.9v-1.3l.1,85.2l.1,-61.4l.1,86.7l.1,-39.5v4V446.7l.1,31.9v41.2l.1,-40.7V422.6l.2,106.7V503.9v54.5l.1,-139.7v88.1l.1,47.9V423.1l.1,24.4V396l.1,156l.1,-33.3V444.6V466l.2,52.8V476.4l.1,51.8v-130l.1,41.7l.2,172V477.8l.1,12.6l.1,-15.9v64l.1,-63.1V407.7l.1,157.3l.1,-14.3l.1,-124.6v90.8l.1,-66.1v-19v71.1l.1,-38.5V446.6l.1,6.2v65.6l.1,-29.7v15.5l.2,-62.5v96l.1,-144.4l.1,45.5V409.1l.1,126.1l.1,-35.6V419.1v71.1l.1,-21.6v95.2l.1,-26.7l.1,-137.8V505.7l.1,-13.1v6.8l.2,-101.9v116l.1,-48.7v68.3l.1,-126.8l.1,69v36.4L598,411.3v125l.1,-25.5V499.1l.1,-64.8v36.9l.1,19.2V460.7l.1,107l.1,-179.3l.2,160.8V419.9v1.2l.1,107.6l.1,-84.4l.1,13.3v54l.1,-118.5v89.8l.1,10.1V448.9l.1,.6l.1,-14.1v61.3l.1,-59.4l.1,100.9l.1,-109.3l.1,100.5l.1,-60.2v30l.2,-69v48.2l.2,-37.2v77.6l.1,-135.2l.1,137.6l.1,11.2v-57l.1,20.9v12.4l.1,-70l.1,79.8V454.4l.1,8.6V430.7v89.2l.1,-7.1l.1,29.3V414.5l.1,111.9l.1,-40.9v93.8l.1,-59.4l.1,-12.5l.1,-63.9l.1,74.3v-8l.1,4.6V420l.1,80.8v-11l.1,-46.9v61.4l.1,-64.9v71.3l.1,-26.6V448.4l.1,74.5l.1,-72V488l.1,13V480.2v18.9l.1,-8.5V419.3l.1,65.9V456.5V510l.1,-24V430.9l.1,78.5V425.9l.1,19.3l.1,69.8V476.8l.1,-5.2v20.5l.1,-30.8v1.3l.1,42V445.3v29.9l.2,36.5v-5.5l.1,84.1V552.9l.1,-115.7v30.9l.1,-36.3v63.7l.1,-87.7V512.9l.1,-2.6l.2,-45.9l.1,78.5l.1,-138.6V542.6l.2,-107v55l.1,-33.8l.1,18.6v39V489.6l.2,-38.4l.1,74.5V498.9l.1,3.5l.1,-75.6l.1,71.5l.1,-119.1V501.4l.1,-47.3V406.5l.1,29.7l.1,86l.1,-63l.1,17l.1,57.5V505.2l.1,33.1V460.5l.1,64.7V476.4l.1,13v49V491.6l.1,14.7l.1,-.9v-33l.2,46.1V446.8l.1,13.2v52.6l.1,-12.6l.1,-53.3v82.1l.1,-91.2l.1,100.3V484.6l.1,-13.4v65.6l.1,-19.6V478.1l.1,42.9l.1,-97.4l.1,131.8l.1,-86.6l.1,36.6V520l.1,-65.9l.1,133.3V409.3l.1,44.4v46.7l.1,-40.4V445.1l.2,51.1V450.8l.1,25.6v37.8l.1,-5.3v-29l.1,58.8V476.9l.1,2.9v38.1l.1,-87.1v104l.1,-65.8v38.1l.1,-4.5V455l.1,40v-5.6l.1,-35.4v59.3l.1,-3.7v33l.1,-130.1l.1,50.3V464v-1.5l.1,-11v17.3l.1,-25.1v73.7v-33l.2,-25.2v74.9V510.9l.1,-68v8.7l.2,86.8V457.6l.1,64.8l.2,-73.5l.1,128.5l.2,-140.1v-7.2l.1,145.9l.2,-89.7v6.3l.1,-35v3.3l.1,70.1V494.5l.1,6V430.2l.1,69.3V457.4l.1,58.7l.1,-2V480.4l.1,32.1l.1,-6.4l.1,-71.2l.1,38.2l.1,-37.8V561.9V432l.1,75.2v27.9l.1,-105.4v15.4l.1,4.1v22.1l.1,-42v86.9l.1,-53.5V443.2l.1,74.5l.1,-21.8V442.4v11.2l.1,22.6l.1,-69.5l.1,68.7v-5.2l.1,-46.6l.1,86.2V473.2l.1,47.7v-7.6l.2,-69.2V544.8l.1,-62.5v-4.1v5.1l.1,-8.7V433.5l.1,49V471.7l.1,21.5l.1,-71.9v31.5l.1,95.1l.1,-68.3V439.1l.1,133.1l.1,-70.7l.1,-96.7V386.5l.1,84.9V415.8l.1,-11.6l.1,113.2l.1,-47.1v82.6l.1,-94.1l.1,6.8v-1.5l.1,47.9l.2,-94v22.4l.1,-19.8v12.5l.1,72.1l.1,-18.6V598.7l.1,-161.4l.1,54.2V425.8l.1,37.4l.1,69.6V469.1l.1,12.1V511l.1,-32.7v42.2V484.6l.2,-31.3v75.9V496.8l.2,-74.8v89.8l.1,-28.4V422.9l.1,58.8V465.6l.1,96.1V434.5l.1,56.2V450.5l.1,15.9v11l.1,-70.9V338.1l.1,151.2v-2.4l.1,-63l.1,23.3v-7.1V548.4l.1,-106.1l.1,12.1v-45l.1,109.3l.1,-93.6l.1,32.1v47.4l.1,-4.8V459.9l.1,40.6V481.7l.2,-18.7v14.3V436l.2,92.8l.1,-115.7l.1,81.5V448.1l.1,-59.4l.1,117.4V458.4l.1,25.1v79.1V400.5l.1,57l.1,37V471.6l.1,-34.5l.1,54.8V412l.1,10.2v.5l.1,66.1l.1,-21.4V441.5v22.7l.1,29.9v-5.4l.1,-31.4l.1,74.7V511.2l.2,-89.7l.1,75.9V472.2l.1,30.7V405.1l.1,150.4l.1,-27.7l.1,-63.8v67.3l.1,-29.2V470.3v9.4l.1,34.3V445.6l.1,12.6v66l.1,-60.7l.3,109.2l.1,-141.3v31.2l.1,62.2l.1,-102.5l.1,104.2l.1,-65.3l.1,45.8l.1,-5.3v16l.1,-18.5v31.9V424.8l.1,22.5l.1,14.7V381.2V493.1l.1,-25.1l.1,-9l.1,115.8V423.2l.1,23.4l.1,43.4v39.5l.1,-44.6l.1,67.5V540.9l.1,37.9V536.7l.1,25.3v15.4V562.7l.1,-64.1l.1,83.1V427.3l.1,11.9l.1,68.7V430.6v62.3l.1,-16.3v42.7l.2,-119.2V575.8l.1,-79.3l.1,-85.1l.1,54.8V393l.1,1.5V528.6l.1,-62.8l.1,47.9V452.4l.1,13.1l.1,34V474.9l.1,5.9l.1,-85.7l.1,110.5l.1,-25.1l.1,1.7V448.1l.1,60.3V368.6l.1,105.9V438.3l.2,67.8l.1,-53.1v12.1l.1,27.4l.1,-48.2v61.2v-1.1l.2,-81.1v71.3l.1,-6.6l.1,-37.4v55.5l.1,-20.5v-6.1l.1,10.5v-4l.1,-83.4v89.9V341.7l.1,170.3l.1,-38.5l.1,-42l.1,57v-56l.1,29.5l.1,50.1V439l.1,99.6v-56l.1,-49.4l.1,15.5v.1V446l.1,75.5l.1,-30.4v27.6l.2,-78v6.8l.1,56.4l.1,4l.1,-76.7v61.9l.1,-47.2v13.8l.1,-36.5l.1,76.7l.1,-36.9v50V401.3l.1,28l.1,48.1l.1,-56.1l.1,82.1V458.6l.1,-51v25.6l.1,90.2l.1,-20.8V445.7l.2,70.6V467.6l.1,82.6V513.3l.1,-77v89.9l.1,-55.1V451l.2,120.3V450.7l.1,23v7.6l.1,68.8V409.5l.1,32v-9.2l.1,110.1l.2,-68.1v40.5l.1,-6.9v-63l.1,17.3v72.4l.1,-30.8l.1,-69.6l.1,-8.9l.1,147.6l.1,-153.5l.2,74.3V446v57.7l.1,-104.5l.1,45.3l.1,85.3l.1,-93.3v36l.1,11.1v-25l.1,61.7l.1,-22.8l.1,-53.1l.2,80.6l.1,-47.8v81.2l.1,-53.5l.1,-78.4V448l.1,34.2V432.7l.2,76.1V426.2v102l.1,-1.4V372.9l.1,53.8V583.1V499.6l.1,-73.5l.1,21.4v73.4l.1,-99.9v95.8l.1,-30.4l.1,-41.8v35.3v-5.1l.1,-33.1l.1,89.6l.1,-96.1l.1,62.9v-2.3l.1,-65.8l.1,78.9l.1,-60.9V600.4V477.2l.1,-58.7v8.8l.1,60.6V445.7l.1,90.9V477.9l.1,-50.4v70.7l.1,-43.9v32.2l.1,9.5V426.2V446l.1,96.2l.1,-33.6l.1,-56.8v40.8l.1,-54.4v45.7l.1,.2v40.5V509.8l.2,-99.3v91.2l.1,-28.2v15.4L637,486V448.2l.1,.6l.1,81V470.6l.1,36.9v22.7l.2,-104v106l.1,-51.1l.1,9.4l.1,-48.3v83.6l.1,-158.5V544.8l.1,-86.4V412.9l.1,26.9v38.3l.1,-40.6v58.3V422.5l.1,71.4v50.6l.1,-149.6v63l.2,31.6V479.1l.1,41.2l.1,-5V481.8l.1,46.4l.1,-86.5v32.2l.1,-20.7l.1,144.9l.1,-168.7l.1,-.1v72.3l.1,-23.7V418.8v47.7l.1,73.2l.1,-91.2v31.8l.1,-37.3v29.4l.1,73l.1,-65.3v14.7l.1,42.9l.1,-80.4v18.1l.2,-28.8l.1,105.7l.1,-37.5V532l.1,56.8l.1,-158.4l.1,29.8v5.1l.1,55.3l.1,-.1l.1,-140.7l.1,130.9V478.5l.1,-24.2v47.1l.1,-58.8v.2l.2,25.8l.1,70.7l.2,-51l.1,63.8l.1,-96.5v45.3l.1,-67.7l.1,21.3v34.3v-17l.1,-44v47.7l.1,-23.6V424.6l.1,51.3V452l.1,-24.9v77.7l.1,-14.4V433.2l.2,72.2v11V437.9l.1,5.8l.1,-22.3l.2,122.9l.2,-142l.1,92.5l.1,-52.4l.1,75.3V437v35.9l.1,7.4l.1,-62.4v80.6l.1,-15.8V437.3l.1,83.3l.1,-68.4v16.5l.1,48.6l.1,-19l.1,-91.5v68.4l.1,-13.2V421.6V499l.1,-8.9l.1,-64.5v56.5l.1,-78.6V456l.2,32.8v-57v26.7l.1,56.7v-42l.1,-27.8V395.6l.2,108.6V469l.1,12.1V470.9l.1,95.5V529.2l.2,-108.3l.1,95.3V451.4l.1,6.4V485l.1,-11.6V419.2l.2,97V475.7v67.8l.1,-32.4l.1,-48.7l.1,94.1V534.8l.1,-92l.1,44.8v22.3V472.4l.1,9.8v64.6l.1,-135.5l.1,64.8l.1,-48.8v83.3V496.8l.2,-68.8l.1,86.3l.1,-64.2l.1,75V441.3l.1,58.9v6.7l.1,-77.4v25.1l.1,-21.8v48.7l.1,-20.6v34l.1,-69l.1,18v16.2l.1,69.6V424.8l.1,54.9v45.9l.1,-77.3l.1,61V504l.1,-138.6v82.9l.1,92l.1,-140.4l.1,66.4l.2,-74.8v105l.1,-34.7v5.4l.1,30v-2.7L650,458l.1,96.5V444.7v46.6l.1,40.5l.1,-71.4v33l.2,-57.7l.1,66.5l.1,-79.9v40l.1,106.4V433.1l.1,57.7V428.1l.1,14.3v66l.1,-42.9V457l.1,21.6V432.5l.1,14.4l.2,51.7v22.1l.1,-67.1l.1,110.1V469.8v34l.1,-158l.1,110.7v28.1V423.9l.1,17.7l.1,66.6v-3.6l.1,10.9V473l.1,1.5l.1,-1.1V409.1v34.4l.1,8.9V412.1l.1,82.3V474.6l.1,-32.5l.1,96.8l.1,-1.2V488.8l.1,56V508.4l.1,-81.7v4.2l.1,60.3V476.3l.1,-15.3v21.6l.1,-29.2l.1,51.8V413.8l.1,36l.1,77.2V473l.1,15.2V476.4l.1,-19.8v20.6l.1,-10.1l.1,20.5l.1,-75.4l.2,88l.1,-83l.1,121.3l.1,-105.4l.1,1.6l.1,87.8L655,503l.1,-70.6l.1,85.1l.1,-19.7V481.6v83.6l.1,-80.5V433.1l.1,79.7V385.3v86.3l.1,42.3l.1,-10.3V364.3V546.6l.1,-86.6l.1,32.6V455.8L656,509V451.9l.1,22.9V479l.1,-57v52.1V459.9l.2,41.5V444.8l.1,23.1v51.2l.1,-50.6v27.6l.1,-99.8v62.9l.1,32.2V468.9l.1,-40.8v20.2l.1,118.6V494l.1,-73.1l.1,42.6l.1,60.6l.1,-15.3V378.3l.1,89.7v-7.4v38.9l.1,-16.6l.1,-31.7l.1,23.9V441.8v64.8l.1,-91l.1,29.2l.1,76.1V429.2l.1,122.4V480.8l.1,33V483.9l.1,-3.7V524l.1,-54.9v24.7l.1,7V400l.1,69.8v65.9l.1,-103.1l.1,109.2v-.7L659,427V553l.1,-24V457.7l.1,35.4l.1,60V426.3v60.8l.1,78.3V544.8l.2,-65.8v35.7V470.4l.1,6.4v43.8l.1,-28.1V396.1l.1,99.5L660,447v65.8V487.6l.2,-64V425l.2,113.5l.1,-138.4v91.8v-2.7l.2,40.9l.1,-82.5v71.7l.1,-20.9V417.7l.1,54.7v6.4l.1,-12.3v20.6V435.8l.1,96.4V488.7l.1,-36.8l.1,-35.3v76.9v-7.8l.1,-42.2v15.9l.1,10.3v74l.1,-130.3l.1,51v47.7V471.6l.1,14.6v-4L662,452v9.8l.2,93.5V432.1l.1,14.3l.1,104l.1,-95.7v40.1l.1,24V501.5l.1,16.7v6.4l.1,-97.2l.1,132.3L663,450.3l.1,25.8V450.6l.1,2.2v11.7V417.8l.2,86v2.1l.1,-74v66l.1,-60.7v6.2V406.3l.2,115.3l.2,-48.3v38.9l.1,-55.7v58.7V447.6l.1,73l.1,-120.3v67.2l.1,-34.9V379.3l.1,112.4V420.2l.1,27.8l.1,91.6V412.7l.1,50.7V513l.1,-92.9l.1,17.1v32.3l.1,-14.4v12.6l.1,-13.4v54.4V446.8l.1,86.5V474.4l.1,-42.6v82l.1,-106.1l.1,22.7l.1,58.2l.1,-107.5l.1,154V379.7l.1,52l.1,57V436.4l.1,50.5V449.1l.1,-10.2v91.5l.1,-44.7V459.4l.2,52.3v-8.9l.2,-117v53.6V423.7l.2,144V384.9v95.3l.1,20.2V443l.1,62.3V454.6v4.1l.1,73.2l.1,-24.6l.1,-48.5l.1,38.9V413.6l.1,61.4v17.2v-6.1l.1,-18.4v13.6l.1,46.1V512l.1,-55v39l.1,-3.5v-36l.1,50.3l.1,-12.9l.1,-46.5l.1,83.5V418.4l.1,44.1v-9.1l.1,18.4l.1,-6.1V436v49.6l.1,-55.8v32.3" class="g2_87" />
<path d="M259.8,320.2H669M669,637V320.2M259.8,637H669m-409.2,0V320.2" class="g3_87" />
<path d="M259.8,637v-3.7" class="g4_87" />
<path d="M259.8,320.2v3.6" class="g4_87" />
<path d="M341.6,637v-3.7" class="g4_87" />
<path d="M341.6,320.2v3.6" class="g4_87" />
<path d="M423.4,637v-3.7" class="g4_87" />
<path d="M423.4,320.2v3.6" class="g4_87" />
<path d="M505.3,637v-3.7" class="g4_87" />
<path d="M505.3,320.2v3.6" class="g4_87" />
<path d="M587.1,637v-3.7" class="g4_87" />
<path d="M587.1,320.2v3.6" class="g4_87" />
<path d="M669,637v-3.7" class="g4_87" />
<path d="M669,320.2v3.6" class="g4_87" />
<path d="M259.8,637h3.6" class="g4_87" />
<path d="M669,637h-3.7" class="g4_87" />
<path d="M259.8,573.6h3.6" class="g4_87" />
<path d="M669,573.6h-3.7" class="g4_87" />
<path d="M259.8,510.2h3.6" class="g4_87" />
<path d="M669,510.2h-3.7" class="g4_87" />
<path d="M259.8,446.9h3.6" class="g4_87" />
<path d="M669,446.9h-3.7" class="g4_87" />
<path d="M259.8,383.5h3.6" class="g4_87" />
<path d="M669,383.5h-3.7" class="g4_87" />
<path d="M259.8,320.2h3.6" class="g4_87" />
<path d="M669,320.2h-3.7" class="g4_87" />
</svg>