<?xml version="1.0" encoding="UTF-8" standalone="no"?>
<!DOCTYPE svg PUBLIC "-//W3C//DTD SVG 1.1//EN"
"http://www.w3.org/Graphics/SVG/1.1/DTD/svg11.dtd">
<svg viewBox="0 0 909 1286" version="1.1" xmlns="http://www.w3.org/2000/svg" xmlns:xlink="http://www.w3.org/1999/xlink">
<defs>
<style type="text/css"><![CDATA[
.g0_57{
fill: none;
stroke: #000000;
stroke-width: 1.4065342;
stroke-linecap: butt;
stroke-linejoin: miter;
stroke-miterlimit: 4;
}
.g1_57{
stroke: #000000;
stroke-width: 0.15277778;
stroke-linecap: butt;
stroke-linejoin: miter;
stroke-miterlimit: 4;
}
.g2_57{
stroke: #000000;
stroke-width: 0.70326215;
stroke-linecap: butt;
stroke-linejoin: miter;
stroke-miterlimit: 4;
}
.g3_57{
}
.g4_57{
fill: #AAEEFF;
stroke: #000000;
stroke-width: 0.7944445;
stroke-linecap: butt;
stroke-linejoin: miter;
stroke-miterlimit: 4;
}
.g5_57{
fill: none;
stroke: #000000;
stroke-width: 0.7944445;
stroke-linecap: butt;
stroke-linejoin: miter;
stroke-miterlimit: 4;
}
.g6_57{
fill: none;
stroke: #000000;
stroke-width: 1.7724553;
stroke-linecap: butt;
stroke-linejoin: miter;
stroke-miterlimit: 4;
}
.g7_57{
fill: none;
stroke: #000000;
stroke-width: 0.6080556;
stroke-linecap: butt;
stroke-linejoin: miter;
}
]]></style>
</defs>
<path d="M356.3,114.1V281.7H587.7" class="g0_57" />
<path fill-rule="evenodd" d="M356.3,119.8l2.8,2.8l-2.8,-9.9l-2.8,9.9Z" class="g1_57" />
<path fill-rule="evenodd" d="M582.1,281.7l-2.8,2.8l9.9,-2.8l-9.9,-2.8Z" class="g2_57" />
<path d="M454.4,315.9c-2.7,0,-3.3,-1.5,-3.3,-2.7v-.1h-1.4c0,3.3,2.6,4.1,4.6,4.1c3.6,0,4.5,-2.1,4.5,-3.6c0,-1.4,-.9,-2.4,-2.5,-2.9l-2.9,-.7c-1.4,-.4,-1.9,-.9,-1.9,-1.8c0,-1.1,1.1,-1.9,2.6,-1.9c1.9,0,2.9,.8,2.9,2.3h1.4c0,-2.2,-1.6,-3.6,-4.2,-3.6c-2.6,0,-4.1,1.3,-4.1,3.4c0,1.5,.7,2.4,2.2,2.7l2.9,.8c1.5,.4,2.1,1,2.1,1.9c0,.8,-.4,2.1,-2.9,2.1Zm9.3,-7.4h-1.4v-2.3H461v2.3h-1.1v1.1H461v6.3c0,.8,.6,1.3,1.6,1.3c.3,0,.6,0,1.1,-.1V316c-.2,0,-.4,0,-.7,0c-.5,0,-.7,-.1,-.7,-.7v-5.7h1.4Zm1.1,2.5h1.4c.1,-1.1,.7,-1.5,1.9,-1.5c1.2,0,1.9,.4,1.9,1.2v.4c0,.5,-.4,.8,-1.4,.9c-2.4,.3,-4.1,.5,-4.1,2.7c0,1.5,1,2.5,2.7,2.5c1,0,1.9,-.4,2.8,-1.2c.1,.8,.5,1.2,1.4,1.2c.3,0,.5,0,.9,-.2v-1q-.2,.1,-.3,.1c-.5,0,-.7,-.3,-.7,-.7v-4.9c0,-1.5,-1.1,-2.2,-3.1,-2.2c-1.5,0,-3.3,.4,-3.4,2.7Zm2.7,5c-1,0,-1.7,-.5,-1.7,-1.3c0,-1.8,2.8,-1.4,4.2,-2v1.5c0,.8,-.9,1.8,-2.5,1.8Zm9.2,-7.5h-1.3v-2.3h-1.3v2.3h-1.2v1.1h1.2v6.3c0,.8,.5,1.3,1.6,1.3c.3,0,.6,0,1,-.1V316c-.1,0,-.3,0,-.6,0c-.6,0,-.7,-.1,-.7,-.7v-5.7h1.3Zm8.3,4.6c0,-3,-1.1,-4.8,-3.7,-4.8c-2.3,0,-3.8,1.7,-3.8,4.5c0,2.7,1.5,4.4,3.8,4.4c1.9,0,3.2,-1.1,3.6,-2.9h-1.4c-.3,1.1,-1.1,1.7,-2.1,1.7c-1.6,0,-2.5,-1.2,-2.5,-2.9ZM478.9,312c.2,-1.5,1.1,-2.5,2.4,-2.5c1.4,0,2.3,1.1,2.3,2.5Z" class="g3_57" />
<path d="M322.3,277.2v1.5c0,.3,.1,.4,.3,.4c.2,0,.4,-.1,.4,-.4v-.8h8.2v.8c0,.3,.2,.4,.4,.4c.2,0,.3,-.1,.3,-.4v-3.1c0,-.2,-.1,-.4,-.3,-.4c-.2,0,-.4,.2,-.4,.4v1.6h-4c1.1,-.7,1.6,-1.6,1.6,-2.9c0,-1.9,-1.5,-3.4,-3.4,-3.4c-1.9,0,-3.3,1.5,-3.3,3.4c0,1.3,.4,2.1,1.5,2.9Zm.4,-2.8c0,-1.6,1.2,-2.9,2.8,-2.9c1.4,0,2.6,1.3,2.6,2.9c0,1.5,-1.2,2.8,-2.7,2.8c-1.5,0,-2.7,-1.3,-2.7,-2.8Zm.8,-12.7c0,-.2,-.2,-.3,-.4,-.3c-.2,0,-1,.6,-1,1.5c0,.9,.5,1.6,1.8,3.1h-1.6v1.9c0,.2,.1,.4,.3,.4c.2,0,.4,-.2,.4,-.4v-1.2h5.3v1.5c0,.3,.1,.4,.3,.4c.2,0,.3,-.1,.3,-.4v-5c0,-.3,-.1,-.5,-.3,-.5c-.2,0,-.3,.2,-.3,.5V266h-3.5c-1.6,-1.7,-2,-2.3,-2,-3c0,-.7,.7,-1,.7,-1.3Zm-1.2,-6.4v2.6c0,.3,.1,.4,.3,.4c.2,0,.4,-.1,.4,-.4V256h5.3v2.5c0,.3,.1,.5,.3,.5c.2,0,.3,-.2,.3,-.5v-5.7c0,-.3,-.1,-.4,-.3,-.4c-.2,0,-.3,.1,-.3,.4v2.5Zm-3.3,.1v.9h1.7v-.9Zm3.1,-9.3c0,2.1,1.6,3.7,3.5,3.7c2,0,3.6,-1.6,3.6,-3.7c0,-2,-1.6,-3.6,-3.5,-3.6c-2,0,-3.6,1.6,-3.6,3.6Zm.6,0c0,-1.6,1.3,-2.9,3,-2.9c1.5,0,2.8,1.3,2.8,2.9c0,1.7,-1.3,3,-2.9,3c-1.6,0,-2.9,-1.3,-2.9,-3Zm.8,-13c0,-.2,-.2,-.3,-.4,-.3c-.2,0,-1,.6,-1,1.6c0,.8,.5,1.6,1.8,3h-1.6v1.9c0,.2,.1,.4,.3,.4c.2,0,.4,-.2,.4,-.4v-1.2h5.3v1.5c0,.3,.1,.4,.3,.4c.2,0,.3,-.1,.3,-.4v-5c0,-.3,-.1,-.4,-.3,-.4c-.2,0,-.3,.1,-.3,.4v2.8h-3.5c-1.6,-1.7,-2,-2.3,-2,-3c0,-.7,.7,-1,.7,-1.3Zm2,-16L323,214.5v-.1c0,-.3,-.2,-.4,-.4,-.4c-.2,0,-.3,.1,-.3,.4v1.7c0,.3,.1,.5,.3,.5c.2,0,.4,-.2,.4,-.5v-.7l2,2.2l-2,2.1V219c0,-.3,-.2,-.5,-.4,-.5c-.2,0,-.3,.2,-.3,.5v1.7c0,.3,.1,.4,.3,.4c.2,0,.4,-.1,.4,-.4v-.1l2.5,-2.6l2.8,2.9v.2c0,.3,.1,.4,.3,.4c.2,0,.3,-.1,.3,-.4V219c0,-.3,-.1,-.5,-.3,-.5c-.2,0,-.3,.2,-.3,.5v1.1l-2.4,-2.5l2.4,-2.5v1c0,.3,.1,.5,.3,.5c.2,0,.3,-.2,.3,-.5V214c0,-.3,-.1,-.4,-.3,-.4c-.2,0,-.3,.1,-.3,.4v.2Zm-6.2,-18.9v2.5c0,.3,.2,.4,.4,.4c.2,0,.3,-.1,.3,-.4v-1.9h8.3v2.6c0,.3,.1,.4,.3,.4c.2,0,.3,-.1,.3,-.4v-5.8c0,-.2,-.1,-.4,-.3,-.4c-.2,0,-.3,.1,-.3,.4v2.6Zm3,-9.5v2.5c0,.3,.1,.4,.3,.4c.2,0,.4,-.1,.4,-.4v-1.9h5.3v2.5c0,.3,.1,.5,.3,.5c.2,0,.3,-.2,.3,-.5v-5.7c0,-.3,-.1,-.4,-.3,-.4c-.2,0,-.3,.1,-.3,.4v2.6Zm-3.3,0v.9h1.7v-.9Zm7.1,-7.4l-.6,-.8l2.8,-2.8v.4c0,.3,.1,.5,.3,.5c.2,0,.3,-.2,.3,-.5v-2c0,-.3,-.1,-.5,-.3,-.5c-.2,0,-.3,.2,-.3,.5v.7l-3.3,3.3l-2,-2.5v-.8c0,-.3,-.2,-.4,-.4,-.4c-.2,0,-.3,.1,-.3,.4v2.1c0,.3,.1,.4,.3,.4c.2,0,.4,-.1,.4,-.4v-.4l2.3,2.8h-6v1.5c0,.3,.2,.4,.4,.4c.2,0,.3,-.1,.3,-.4v-.9h8.3v.9c0,.3,.1,.4,.3,.4c.2,0,.3,-.1,.3,-.4v-1.5Zm-.3,-14.9c-2.3,0,-3.7,1.6,-3.7,3.7c0,2,1.5,3.6,3.4,3.6c2,0,3.7,-1.7,3.7,-3.9c0,-1.4,-.8,-3.3,-1.3,-3.3c-.2,0,-.3,.1,-.3,.3q0,.1,.1,.2c.5,.7,.8,1.8,.8,2.8c0,1.7,-1.1,3,-2.7,3.2Zm-.7,6.6c-1.4,-.3,-2.4,-1.4,-2.4,-2.9c0,-1.6,1,-2.8,2.4,-3Zm-5.8,-12.9v2.5c0,.3,.2,.4,.4,.4c.2,0,.3,-.1,.3,-.4v-1.9h8.3v2.6c0,.3,.1,.4,.3,.4c.2,0,.3,-.1,.3,-.4v-5.8c0,-.3,-.1,-.4,-.3,-.4c-.2,0,-.3,.1,-.3,.4v2.6Zm3,-9.6v2.6c0,.3,.1,.4,.3,.4c.2,0,.4,-.1,.4,-.4v-1.9h5.3v2.5c0,.3,.1,.5,.3,.5c.2,0,.3,-.2,.3,-.5V148c0,-.3,-.1,-.4,-.3,-.4c-.2,0,-.3,.1,-.3,.4v2.5Zm-3.3,.1v.9h1.7v-.9Zm5.4,-11.4h3.9v.7c0,.3,.1,.4,.3,.4c.2,0,.3,-.1,.3,-.4v-2.1c0,-.3,-.1,-.4,-.3,-.4c-.2,0,-.3,.1,-.3,.4v.7h-4c-1.3,0,-2.2,1.1,-2.2,2.5c0,1,.3,1.7,1.3,2.5h-4.1V145c0,.3,.2,.4,.4,.4c.2,0,.3,-.1,.3,-.4v-.9h8.3v.8c0,.3,.1,.4,.3,.4c.2,0,.3,-.2,.3,-.4v-2.1c0,-.3,-.1,-.5,-.3,-.5c-.2,0,-.3,.2,-.3,.5v.7h-4.1l-.2,-.2c-1,-.9,-1.3,-1.3,-1.3,-2.2c0,-1.2,.7,-1.9,1.7,-1.9Zm-2.3,-7.4c0,2,1.6,3.6,3.5,3.6c2,0,3.6,-1.6,3.6,-3.6c0,-2,-1.6,-3.6,-3.5,-3.6c-2,0,-3.6,1.6,-3.6,3.6Zm.6,0c0,-1.7,1.3,-3,3,-3c1.5,0,2.8,1.4,2.8,3c0,1.7,-1.3,3,-2.9,3c-1.6,0,-2.9,-1.3,-2.9,-3Zm-.6,-9.5c0,2,1.6,3.6,3.5,3.6c2,0,3.6,-1.6,3.6,-3.6c0,-2,-1.6,-3.6,-3.5,-3.6c-2,0,-3.6,1.6,-3.6,3.6Zm.6,0c0,-1.7,1.3,-3,3,-3c1.5,0,2.8,1.3,2.8,3c0,1.6,-1.3,3,-2.9,3c-1.6,0,-2.9,-1.4,-2.9,-3Zm-3.4,-12.8v1.6c0,.2,.2,.4,.4,.4c.2,0,.3,-.2,.3,-.4v-.9h3.7c-1.1,.8,-1.6,1.7,-1.6,2.9c0,1.9,1.6,3.4,3.5,3.4c2,0,3.6,-1.5,3.6,-3.4c0,-1.2,-.6,-2.2,-1.7,-2.9h1.4v-1.5c0,-.3,-.1,-.4,-.3,-.4c-.2,0,-.3,.1,-.3,.4v.8Zm3.4,3.5c0,-1.6,1.3,-2.8,3,-2.8c1.5,0,2.8,1.3,2.8,2.8c0,1.6,-1.3,2.9,-2.9,2.9c-1.6,0,-2.9,-1.3,-2.9,-2.9Z" class="g3_57" />
<path d="M431.5,289.5v8h1.4V286.3H432c-.5,1.7,-.8,1.9,-3,2.2v1Z" class="g3_57" />
<path d="M501.4,291.9h1.4c0,-1.1,.3,-2.7,2.2,-2.7c1.3,0,2.3,.9,2.3,2.1c0,.9,-.6,1.7,-1.6,2.2l-1.4,.9c-2.4,1.3,-3.1,2.3,-3.2,4.8h7.5v-1.4h-5.9c.1,-.9,.6,-1.5,2,-2.3l1.6,-.8c1.6,-.9,2.4,-2.1,2.4,-3.4c0,-2,-1.5,-3.3,-3.6,-3.3c-1.6,0,-3.6,.5,-3.7,3.9Z" class="g3_57" />
<path d="M418.4,197h25.8v84.2H418.4V197Z" class="g4_57" />
<path d="M491.2,120.4h25.5V281.5H491.2V120.4Z" class="g4_57" />
<path d="M430.2,360.5l75.4,33.3l.5,42.4l-.4,41.3l-75.5,29.4l75.2,24.3v82.1l-75.2,24.1l75.1,23.3" class="g5_57" />
<path d="M435,360.1c0,2.8,-2.2,5,-5,5c-2.8,0,-5,-2.2,-5,-5c0,-2.7,2.2,-5,5,-5c2.8,0,5,2.3,5,5Z" class="g4_57" />
<path d="M510.2,394.8c0,2.8,-2.2,5.1,-5,5.1c-2.7,0,-5,-2.3,-5,-5.1c0,-2.7,2.3,-5,5,-5c2.8,0,5,2.3,5,5Z" class="g4_57" />
<path d="M511,437.4c0,2.7,-2.2,5,-5,5c-2.7,0,-5,-2.3,-5,-5c0,-2.8,2.3,-5,5,-5c2.8,0,5,2.2,5,5Z" class="g4_57" />
<path d="M510.2,477.5c0,2.8,-2.2,5,-5,5c-2.8,0,-5,-2.2,-5,-5c0,-2.8,2.2,-5,5,-5c2.8,0,5,2.2,5,5Z" class="g4_57" />
<path d="M436.4,506.4c0,2.8,-2.2,5,-5,5c-2.8,0,-5,-2.2,-5,-5c0,-2.8,2.2,-5,5,-5c2.8,0,5,2.2,5,5Z" class="g4_57" />
<path d="M510.2,530.9c0,2.7,-2.2,5,-5,5c-2.7,0,-5,-2.3,-5,-5c0,-2.8,2.3,-5,5,-5c2.8,0,5,2.2,5,5Z" class="g4_57" />
<path d="M510.2,611.9c0,2.8,-2.2,5,-5,5c-2.7,0,-5,-2.2,-5,-5c0,-2.8,2.3,-5,5,-5c2.8,0,5,2.2,5,5Z" class="g4_57" />
<path d="M510.2,570.2c0,2.8,-2.2,5,-5,5c-2.7,0,-5,-2.2,-5,-5c0,-2.8,2.3,-5,5,-5c2.8,0,5,2.2,5,5Z" class="g4_57" />
<path d="M436,637.2c0,2.8,-2.2,5,-5,5c-2.8,0,-5,-2.2,-5,-5c0,-2.8,2.2,-5,5,-5c2.8,0,5,2.2,5,5Z" class="g4_57" />
<path d="M510.2,660.5c0,2.7,-2.2,5,-5,5c-2.7,0,-5,-2.3,-5,-5c0,-2.8,2.3,-5,5,-5c2.8,0,5,2.2,5,5Z" class="g4_57" />
<path d="M389.7,360V682.9" class="g6_57" />
<path fill-rule="evenodd" d="M389.7,675.8l-3.6,-3.5l3.6,12.4l3.5,-12.4Z" class="g1_57" />
<path d="M338.5,498.9h3.7v-1.3h-9v1.3H337v10.3h1.5Zm6.6,2h-1.3v8.3h1.3Zm0,-3.3h-1.3v1.7h1.3Zm2.1,3.3v8.3h1.4V504c0,-1.2,.8,-2.2,1.9,-2.2c1,0,1.6,.6,1.6,1.7v5.7h1.3V504c0,-1.2,.9,-2.2,2,-2.2c.9,0,1.5,.6,1.5,1.7v5.7h1.3V503c0,-1.5,-.8,-2.4,-2.4,-2.4c-1.1,0,-1.8,.4,-2.5,1.3c-.5,-.9,-1.2,-1.3,-2.3,-1.3c-1.1,0,-1.8,.5,-2.6,1.4v-1.1Zm20,4.6c0,-3,-1.2,-4.9,-3.7,-4.9c-2.3,0,-3.8,1.8,-3.8,4.5c0,2.8,1.4,4.5,3.7,4.5c1.9,0,3.3,-1.1,3.6,-2.9h-1.3c-.4,1.1,-1.1,1.6,-2.2,1.6c-1.6,0,-2.4,-1.1,-2.5,-2.8Zm-6.1,-1.1c.1,-1.5,1,-2.5,2.4,-2.5c1.3,0,2.3,1.1,2.3,2.5Z" class="g3_57" />
<path d="M108.3,895.9H801.2M108.6,1102.5V895.9m692.3,206.6V895.9M108.3,1102.5H801.2" class="g7_57" />
</svg>