<?xml version="1.0" encoding="UTF-8" standalone="no"?>
<!DOCTYPE svg PUBLIC "-//W3C//DTD SVG 1.1//EN"
"http://www.w3.org/Graphics/SVG/1.1/DTD/svg11.dtd">
<svg viewBox="0 0 909 1286" version="1.1" xmlns="http://www.w3.org/2000/svg" xmlns:xlink="http://www.w3.org/1999/xlink">
<defs>
<clipPath id="c0_38"><path d="M313.5,445.7V208.1H620.4V445.7Z" /></clipPath>
<style type="text/css"><![CDATA[
.g0_38{
fill: #FFFFFF;
}
.g1_38{
fill: #0000FF;
fill-opacity: 0.2;
stroke: #000000;
stroke-width: 0.68750006;
stroke-linecap: butt;
stroke-linejoin: round;
stroke-opacity: 0.2;
}
.g2_38{
fill: none;
stroke: #000000;
stroke-width: 1.3750001;
stroke-linecap: square;
stroke-linejoin: round;
}
.g3_38{
stroke: #000000;
stroke-width: 0.34375003;
stroke-linecap: butt;
stroke-linejoin: round;
}
.g4_38{
fill: none;
stroke: #000000;
stroke-width: 0.68750006;
stroke-linecap: butt;
stroke-linejoin: round;
}
.g5_38{
fill: #FFFFFF;
stroke: #000000;
stroke-width: 0.68750006;
stroke-linecap: butt;
stroke-linejoin: round;
}
]]></style>
</defs>
<path d="M281.9,476.3H632.2v-278H281.9Z" class="g0_38" />
<path d="M313.5,445.7H620.4V208.1H313.5Z" class="g0_38" />
<path d="M313.8,445.7V210.6l.3,29.8l.3,16.3l.3,11.1l.3,8.3l.3,6.6l.3,5.5l.3,4.7l.3,4.1l.4,3.6l.3,3.2l.3,2.9l.3,2.6l.3,2.4l.3,2.2l.3,2.1l.3,1.9l.3,1.8l.3,1.7l.3,1.6l.3,1.5l.3,1.4l.3,1.4l.3,1.3l.4,1.2l.3,1.2l.3,1.1l.3,1.1l.3,1.1l.3,1l.3,.9l.3,1l.3,.9l.3,.8l.3,.9l.3,.8l.3,.8l.3,.7l.3,.8l.3,.7l.4,.7l.3,.7l.3,.6l.3,.7l.3,.6l.3,.6l.3,.6l.3,.6l.3,.6l.3,.6l.3,.5l.3,.5l.3,.6l.3,.5l.3,.5l.4,.5l.3,.5l.3,.4l.3,.5l.3,.5l.3,.4l.3,.4l.3,.5l.3,.4l.3,.4l.3,.4l.3,.4l.3,.4l.3,.4l.3,.4l.4,.4l.3,.3l.3,.4l.3,.4l.3,.3l.3,.4l.3,.3l.3,.3l.3,.4l.3,.3l.3,.3l.3,.4l.3,.3l.3,.3l.3,.3l.4,.3l.3,.3l.3,.3l.3,.3l.3,.3l.3,.3l.3,.2l.3,.3l.3,.3l.3,.3l.3,.2l.3,.3l.3,.3l.3,.2l.3,.3l.4,.2l.3,.3l.3,.2l.3,.3l.3,.2l.3,.3l.3,.2l.3,.2l.3,.3l.3,.2l.3,.2l.3,.2l.3,.3l.3,.2l.3,.2l.4,.2l.3,.2l.3,.3l.3,.2l.3,.2l.3,.2l.3,.2l.3,.2l.3,.2l.3,.2l.3,.2l.3,.2l.3,.2l.3,.2l.3,.2l.3,.2l.4,.1l.3,.2l.3,.2l.3,.2l.3,.2l.3,.2l.3,.1l.3,.2l.3,.2l.3,.2l.3,.1l.3,.2l.3,.2l.3,.2l.3,.1l.4,.2l.3,.2l.3,.1l.3,.2l.3,.2l.3,.1l.3,.2l.3,.1l.3,.2l.3,.1l.3,.2l.3,.2l.3,.1l.3,.2l.3,.1l.4,.2l.3,.1l.3,.2l.3,.1l.3,.2l.3,.1l.3,.1l.3,.2l.3,.1l.3,.2l.3,.1l.3,.2l.3,.1l.3,.1l.3,.2l.4,.1l.3,.1l.3,.2l.3,.1l.3,.1l.3,.2l.3,.1l.3,.1l.3,.2l.3,.1l.3,.1l.3,.1l.3,.2l.3,.1l.3,.1l.4,.2l.3,.1l.3,.1l.3,.1l.3,.1l.3,.2l.3,.1l.3,.1l.3,.1l.3,.1l.3,.2l.3,.1l.3,.1l.3,.1l.3,.1l.4,.1l.3,.2l.3,.1l.3,.1l.3,.1l.3,.1l.3,.1l.3,.1l.3,.1l.3,.1l.3,.2l.3,.1l.3,.1l.3,.1l.3,.1l.3,.1l.4,.1l.3,.1l.3,.1l.3,.1l.3,.1l.3,.1l.3,.1l.3,.1l.3,.1l.3,.1l.3,.1l.3,.1l.3,.1l.3,.1l.3,.1l.4,.1l.3,.1l.3,.1l.3,.1l.3,.1l.3,.1l.3,.1l.3,.1l.3,.1l.3,.1l.3,.1l.3,.1l.3,.1l.3,.1l.3,.1l.4,.1l.3,.1h.3l.3,.1l.3,.1l.3,.1l.3,.1l.3,.1l.3,.1l.3,.1l.3,.1l.3,.1h.3l.3,.1l.3,.1l.4,.1l.3,.1l.3,.1l.3,.1l.3,.1h.3l.3,.1l.3,.1l.3,.1l.3,.1l.3,.1h.3l.3,.1l.3,.1l.3,.1l.4,.1l.3,.1h.3l.3,.1l.3,.1l.3,.1l.3,.1h.3l.3,.1l.3,.1l.3,.1l.3,.1h.3l.3,.1l.3,.1l.4,.1l.3,.1h.3l.3,.1l.3,.1l.3,.1h.3l.3,.1l.3,.1l.3,.1h.3l.3,.1l.3,.1l.3,.1h.3l.3,.1l.4,.1l.3,.1h.3l.3,.1l.3,.1l.3,.1h.3l.3,.1l.3,.1h.3l.3,.1l.3,.1l.3,.1h.3l.3,.1l.4,.1h.3l.3,.1l.3,.1h.3l.3,.1l.3,.1l.3,.1h.3l.3,.1l.3,.1h.3l.3,.1l.3,.1h.3l.4,.1l.3,.1h.3l.3,.1l.3,.1h.3l.3,.1l.3,.1h.3l.3,.1l.3,.1h.3l.3,.1h.3l.3,.1l.4,.1h.3l.3,.1l.3,.1h.3l.3,.1l.3,.1h.3l.3,.1h.3l.3,.1l.3,.1h.3l.3,.1l.3,.1h.4l.3,.1h.3l.3,.1l.3,.1h.3l.3,.1l.3,.1h.3l.3,.1h.3l.3,.1l.3,.1h.3l.3,.1h.4l.3,.1h.3l.3,.1l.3,.1h.3l.3,.1h.3l.3,.1l.3,.1h.3l.3,.1h.3l.3,.1h.3l.3,.1l.4,.1h.3l.3,.1h.3l.3,.1h.3l.3,.1l.3,.1h.3l.3,.1h.3l.3,.1h.3l.3,.1h.3l.4,.1l.3,.1h.3l.3,.1h.3l.3,.1h.3l.3,.1h.3l.3,.1h.3l.3,.1l.3,.1h.3l.3,.1h.4l.3,.1h.3l.3,.1h.3l.3,.1h.3l.3,.1h.3l.3,.1h.3l.3,.1h.3l.3,.1h.3l.4,.1l.3,.1h.3l.3,.1h.3l.3,.1h.3l.3,.1h.3l.3,.1h.3l.3,.1h.3l.3,.1h.3l.4,.1h.3l.3,.1h.3l.3,.1h.3l.3,.1h.3l.3,.1h.3l.3,.1h.3l.3,.1h.3l.3,.1h.7l.3,.1h.3l.3,.1h.3l.3,.1h.3l.3,.1h.3l.3,.1h.3l.3,.1h.3l.3,.1h.3l.4,.1h.3l.3,.1h.3l.3,.1h.6l.3,.1h.3l.3,.1h.3l.3,.1h.3l.3,.1h.3l.4,.1h.3l.3,.1h.6l.3,.1h.3l.3,.1h.3l.3,.1h.3l.3,.1h.3l.3,.1h.7l.3,.1h.3l.3,.1h.3l.3,.1h.3l.3,.1h.6l.3,.1h.3l.3,.1h.3l.3,.1h.4l.3,.1h.6l.3,.1h.3l.3,.1h.3l.3,.1h.6l.3,.1h.3l.3,.1h.3l.4,.1h.6l.3,.1h.3l.3,.1h.3l.3,.1h.6l.3,.1h.3l.3,.1h.3l.3,.1h.7l.3,.1h.3l.3,.1h.6l.3,.1h.3l.3,.1h.3l.3,.1h.6l.3,.1h.3l.4,.1h.6l.3,.1h.3l.3,.1h.6l.3,.1h.3l.3,.1h.3l.3,.1h.6l.4,.1h.3l.3,.1h.6l.3,.1h.3l.3,.1h.6l.3,.1h.3l.3,.1h.6l.4,.1h.3l.3,.1h.6l.3,.1h.6l.3,.1h.3l.3,.1h.6l.3,.1h.3l.4,.1h.6l.3,.1h.3l.3,.1h.6l.3,.1h.6l.3,.1h.3l.3,.1h.7l.3,.1h.3l.3,.1h.6l.3,.1h.6l.3,.1h.3l.3,.1h.6l.3,.1h.4l.3,.1h.6l.3,.1h.6l.3,.1h.3l.3,.1h.6l.3,.1h.6l.3,.1h.4l.3,.1h.6l.3,.1h.6l.3,.1h.3l.3,.1h.6l.3,.1h.6l.4,.1h.6l.3,.1h.3l.3,.1h.6l.3,.1h.6l.3,.1h.3l.3,.1h.7l.3,.1h.6l.3,.1h.6l.3,.1h.3l.3,.1h.6l.3,.1h.6l.4,.1h.6l.3,.1h.3l.3,.1h.6l.3,.1h.6l.3,.1h.6l.3,.1h.4l.3,.1h.6l.3,.1h.6l.3,.1h.6l.3,.1h.3l.3,.1h.6l.4,.1h.6l.3,.1h.6l.3,.1h.3l.3,.1h.6l.3,.1h.6l.3,.1h.7l.3,.1h.6l.3,.1h.3l.3,.1h.6l.3,.1h.6l.3,.1h.6l.4,.1h.6l.3,.1h.3l.3,.1h.6l.3,.1h.6l.3,.1h.6l.3,.1h.4l.3,.1h.6l.3,.1h.6l.3,.1h.6l.3,.1h.6l.3,.1h.3l.4,.1h.6l.3,.1h.6l.3,.1h.6l.3,.1h.3l.3,.1h.6l.3,.1h.7l.3,.1h.6l.3,.1h.3l.3,.1h.6l.3,.1h.6l.3,.1h.7l.3,.1h.3l.3,.1h.6l.3,.1h.6l.3,.1h.3l.3,.1h.6l.3,.1h.7l.3,.1h.3l.3,.1h.6l.3,.1h.6l.3,.1h.3l.3,.1h.6l.3,.1h.7l.3,.1h.3l.3,.1h.6l.3,.1h.3l.3,.1h.6l.3,.1h.6l.4,.1h.3l.3,.1h.6l.3,.1h.3l.3,.1h.6l.3,.1h.3l.3,.1h.6l.4,.1h.3l.3,.1h.6l.3,.1h.3l.3,.1h.3l.3,.1h.6l.3,.1h.3l.3,.1h.7l.3,.1h.3l.3,.1h.3l.3,.1h.3l.3,.1h.6l.3,.1h.3l.3,.1h.3l.4,.1h.3l.3,.1h.6l.3,.1h.3l.3,.1h.3l.3,.1h.3l.3,.1h.3l.3,.1h.3l.3,.1h.4l.3,.1h.3l.3,.1h.3l.3,.1h.3l.3,.1h.3l.3,.1h.3l.3,.1h.3l.3,.1h.3l.4,.1l.3,.1h.3l.3,.1h.3l.3,.1l.3,.1h.3l.3,.1h.3l.3,.1l.3,.1h.3l.3,.1l.3,.1h.4l.3,.1l.3,.1l.3,.1h.3l.3,.1l.3,.1l.3,.1l.3,.1h.3l.3,.1l.3,.1l.3,.1l.3,.1l.3,.2l.4,.1l.3,.1l.3,.2l.3,.2l.3,.2l.3,.5v17H313.8Z" class="g1_38" />
<path d="M313.8,210.6l.3,29.8l.3,16.3l.6,19.4l.6,12.1l.6,8.8l.7,6.8l.6,5.5l.9,6.7l.9,5.4l.9,4.5l1,3.9l1.2,4.5l1.2,3.8l1.2,3.3l1.3,2.9l1.5,3.2l1.5,2.9l1.6,2.6l1.8,2.7l1.8,2.5l1.9,2.3l2.1,2.3l2.2,2.2l2.4,2.2l2.5,2.1l2.7,2.1l3.1,2.1l3.1,1.9l3.3,2l3.7,1.9l4,2l4.3,1.9l4.6,1.9l4.9,1.8l5.5,1.9l5.8,1.9l6.5,1.9l7,1.8l7.7,1.9l8.3,1.9l8.9,1.8l9.8,1.9l10.7,1.9l12,2l13.1,2l14.8,2.1l16.8,2.2l20.3,2.5l30.3,3.6l27,3.2l12.6,1.7l8.5,1.3l5.9,1l4,.8l2.4,.6l1.5,.6l1,.4l.6,.4l.3,.5" class="g2_38" />
<path d="M380.8,391c.9,0,1.8,-.4,2.4,-1c.6,-.7,1,-1.6,1,-2.5c0,-.9,-.4,-1.8,-1,-2.4c-.6,-.7,-1.5,-1,-2.4,-1c-.9,0,-1.8,.3,-2.5,1c-.6,.6,-1,1.5,-1,2.4c0,.9,.4,1.8,1,2.5c.7,.6,1.6,1,2.5,1Z" class="g3_38" />
<path d="M322.1,336.9c.9,0,1.8,-.4,2.5,-1c.6,-.7,1,-1.5,1,-2.5c0,-.9,-.4,-1.7,-1,-2.4c-.7,-.6,-1.6,-1,-2.5,-1c-.9,0,-1.8,.4,-2.4,1c-.6,.7,-1,1.5,-1,2.4c0,1,.4,1.8,1,2.5c.6,.6,1.5,1,2.4,1Z" class="g3_38" />
<path d="M319.9,327.9c.9,0,1.8,-.4,2.4,-1c.7,-.6,1.1,-1.5,1.1,-2.4c0,-.9,-.4,-1.8,-1.1,-2.5c-.6,-.6,-1.5,-1,-2.4,-1c-.9,0,-1.8,.4,-2.4,1c-.7,.7,-1,1.6,-1,2.5c0,.9,.3,1.8,1,2.4c.6,.6,1.5,1,2.4,1Z" class="g3_38" />
<path d="M346,373.2c1,0,1.8,-.3,2.5,-1c.6,-.6,1,-1.5,1,-2.4c0,-.9,-.4,-1.8,-1,-2.4c-.7,-.7,-1.5,-1,-2.5,-1c-.9,0,-1.7,.3,-2.4,1c-.6,.6,-1,1.5,-1,2.4c0,.9,.4,1.8,1,2.4c.7,.7,1.5,1,2.4,1Z" class="g3_38" />
<path d="M389,393.7c.9,0,1.8,-.4,2.4,-1c.6,-.7,1,-1.6,1,-2.5c0,-.9,-.4,-1.8,-1,-2.4c-.6,-.6,-1.5,-1,-2.4,-1c-.9,0,-1.8,.4,-2.5,1c-.6,.6,-1,1.5,-1,2.4c0,.9,.4,1.8,1,2.5c.7,.6,1.6,1,2.5,1Z" class="g3_38" />
<path d="M330.6,356.4c.9,0,1.8,-.4,2.5,-1c.6,-.7,1,-1.5,1,-2.5c0,-.9,-.4,-1.7,-1,-2.4c-.7,-.6,-1.6,-1,-2.5,-1c-.9,0,-1.7,.4,-2.4,1c-.6,.7,-1,1.5,-1,2.4c0,1,.4,1.8,1,2.5c.7,.6,1.5,1,2.4,1Z" class="g3_38" />
<path d="M592.2,426c1,0,1.8,-.4,2.5,-1c.6,-.7,1,-1.5,1,-2.4c0,-1,-.4,-1.8,-1,-2.5c-.7,-.6,-1.5,-1,-2.5,-1c-.9,0,-1.7,.4,-2.4,1c-.6,.7,-1,1.5,-1,2.5c0,.9,.4,1.7,1,2.4c.7,.6,1.5,1,2.4,1Z" class="g3_38" />
<path d="M377,389.6c.9,0,1.7,-.4,2.4,-1c.6,-.7,1,-1.5,1,-2.5c0,-.9,-.4,-1.7,-1,-2.4c-.7,-.6,-1.5,-1,-2.4,-1c-.9,0,-1.8,.4,-2.5,1c-.6,.7,-1,1.5,-1,2.4c0,1,.4,1.8,1,2.5c.7,.6,1.6,1,2.5,1Z" class="g3_38" />
<path d="M336.4,364.1c.9,0,1.8,-.3,2.4,-1c.7,-.6,1,-1.5,1,-2.4c0,-.9,-.3,-1.8,-1,-2.4c-.6,-.7,-1.5,-1,-2.4,-1c-.9,0,-1.8,.3,-2.4,1c-.7,.6,-1.1,1.5,-1.1,2.4c0,.9,.4,1.8,1.1,2.4c.6,.7,1.5,1,2.4,1Z" class="g3_38" />
<path d="M328.2,352.1c.9,0,1.8,-.3,2.4,-1c.7,-.6,1,-1.5,1,-2.4c0,-.9,-.3,-1.8,-1,-2.5c-.6,-.6,-1.5,-1,-2.4,-1c-.9,0,-1.8,.4,-2.5,1c-.6,.7,-1,1.6,-1,2.5c0,.9,.4,1.8,1,2.4c.7,.7,1.6,1,2.5,1Z" class="g3_38" />
<path d="M325,345.2c.9,0,1.8,-.4,2.4,-1c.7,-.6,1,-1.5,1,-2.4c0,-.9,-.3,-1.8,-1,-2.5c-.6,-.6,-1.5,-1,-2.4,-1c-.9,0,-1.8,.4,-2.4,1c-.7,.7,-1.1,1.6,-1.1,2.5c0,.9,.4,1.8,1.1,2.4c.6,.6,1.5,1,2.4,1Z" class="g3_38" />
<path d="M392.7,394.8c.9,0,1.8,-.4,2.4,-1c.6,-.7,1,-1.5,1,-2.5c0,-.9,-.4,-1.7,-1,-2.4c-.6,-.6,-1.5,-1,-2.4,-1c-.9,0,-1.8,.4,-2.5,1c-.6,.7,-1,1.5,-1,2.4c0,1,.4,1.8,1,2.5c.7,.6,1.6,1,2.5,1Z" class="g3_38" />
<path d="M332,358.5c.9,0,1.8,-.4,2.4,-1c.7,-.7,1.1,-1.5,1.1,-2.4c0,-1,-.4,-1.8,-1.1,-2.5c-.6,-.6,-1.5,-1,-2.4,-1c-.9,0,-1.8,.4,-2.4,1c-.7,.7,-1,1.5,-1,2.5c0,.9,.3,1.7,1,2.4c.6,.6,1.5,1,2.4,1Z" class="g3_38" />
<g clip-path="url(#c0_38)">
<path d="M316.3,300.7c.9,0,1.8,-.3,2.4,-1c.6,-.6,1,-1.5,1,-2.4c0,-.9,-.4,-1.8,-1,-2.4c-.6,-.7,-1.5,-1,-2.4,-1c-.9,0,-1.8,.3,-2.5,1c-.6,.6,-1,1.5,-1,2.4c0,.9,.4,1.8,1,2.4c.7,.7,1.6,1,2.5,1Z" class="g3_38" />
</g>
<path d="M328.6,352.9c.9,0,1.8,-.3,2.4,-1c.7,-.6,1.1,-1.5,1.1,-2.4c0,-.9,-.4,-1.8,-1.1,-2.4c-.6,-.7,-1.5,-1,-2.4,-1c-.9,0,-1.8,.3,-2.4,1c-.7,.6,-1,1.5,-1,2.4c0,.9,.3,1.8,1,2.4c.6,.7,1.5,1,2.4,1Z" class="g3_38" />
<path d="M396.3,395.8c.9,0,1.8,-.3,2.4,-1c.7,-.6,1,-1.5,1,-2.4c0,-.9,-.3,-1.8,-1,-2.4c-.6,-.7,-1.5,-1,-2.4,-1c-.9,0,-1.8,.3,-2.4,1c-.7,.6,-1,1.5,-1,2.4c0,.9,.3,1.8,1,2.4c.6,.7,1.5,1,2.4,1Z" class="g3_38" />
<path d="M318.6,321c.9,0,1.8,-.4,2.5,-1c.6,-.7,1,-1.6,1,-2.5c0,-.9,-.4,-1.8,-1,-2.4c-.7,-.6,-1.6,-1,-2.5,-1c-.9,0,-1.8,.4,-2.4,1c-.6,.6,-1,1.5,-1,2.4c0,.9,.4,1.8,1,2.5c.6,.6,1.5,1,2.4,1Z" class="g3_38" />
<path d="M318.5,319.9c.9,0,1.7,-.4,2.4,-1.1c.6,-.6,1,-1.5,1,-2.4c0,-.9,-.4,-1.8,-1,-2.4c-.7,-.7,-1.5,-1,-2.4,-1c-1,0,-1.8,.3,-2.5,1c-.6,.6,-1,1.5,-1,2.4c0,.9,.4,1.8,1,2.4c.7,.7,1.5,1.1,2.5,1.1Z" class="g3_38" />
<path d="M343,370.7c.9,0,1.8,-.3,2.4,-1c.7,-.6,1,-1.5,1,-2.4c0,-.9,-.3,-1.8,-1,-2.4c-.6,-.7,-1.5,-1.1,-2.4,-1.1c-.9,0,-1.8,.4,-2.4,1.1c-.7,.6,-1.1,1.5,-1.1,2.4c0,.9,.4,1.8,1.1,2.4c.6,.7,1.5,1,2.4,1Z" class="g3_38" />
<path d="M343,370.8c.9,0,1.8,-.4,2.5,-1c.6,-.7,1,-1.6,1,-2.5c0,-.9,-.4,-1.8,-1,-2.4c-.7,-.7,-1.6,-1,-2.5,-1c-.9,0,-1.8,.3,-2.4,1c-.7,.6,-1,1.5,-1,2.4c0,.9,.3,1.8,1,2.5c.6,.6,1.5,1,2.4,1Z" class="g3_38" />
<path d="M313.5,445.7v-2.8" class="g3_38" />
<path d="M313.5,208.1v2.7" class="g3_38" />
<path d="M374.9,445.7v-2.8" class="g3_38" />
<path d="M374.9,208.1v2.7" class="g3_38" />
<path d="M436.2,445.7v-2.8" class="g3_38" />
<path d="M436.2,208.1v2.7" class="g3_38" />
<path d="M497.6,445.7v-2.8" class="g3_38" />
<path d="M497.6,208.1v2.7" class="g3_38" />
<path d="M559,445.7v-2.8" class="g3_38" />
<path d="M559,208.1v2.7" class="g3_38" />
<path d="M620.4,445.7v-2.8" class="g3_38" />
<path d="M620.4,208.1v2.7" class="g3_38" />
<path d="M313.5,445.7h2.7" class="g3_38" />
<path d="M620.4,445.7h-2.8" class="g3_38" />
<path d="M313.5,411.8h2.7" class="g3_38" />
<path d="M620.4,411.8h-2.8" class="g3_38" />
<path d="M313.5,377.8h2.7" class="g3_38" />
<path d="M620.4,377.8h-2.8" class="g3_38" />
<path d="M313.5,343.9h2.7" class="g3_38" />
<path d="M620.4,343.9h-2.8" class="g3_38" />
<path d="M313.5,309.9h2.7" class="g3_38" />
<path d="M620.4,309.9h-2.8" class="g3_38" />
<path d="M313.5,276h2.7" class="g3_38" />
<path d="M620.4,276h-2.8" class="g3_38" />
<path d="M313.5,242h2.7" class="g3_38" />
<path d="M620.4,242h-2.8" class="g3_38" />
<path d="M313.5,208.1h2.7" class="g3_38" />
<path d="M620.4,208.1h-2.8" class="g3_38" />
<path d="M313.5,208.1H620.4m0,237.6V208.1M313.5,445.7H620.4m-306.9,0V208.1" class="g4_38" />
<path d="M480.4,255.5H613.8V214.7H480.4v40.8Z" class="g5_38" />
<path d="M485.7,224.6h26.4" class="g2_38" />
<path d="M498.9,246.4c.9,0,1.7,-.3,2.4,-1c.6,-.6,1,-1.5,1,-2.4c0,-.9,-.4,-1.8,-1,-2.4c-.7,-.7,-1.5,-1,-2.4,-1c-1,0,-1.8,.3,-2.5,1c-.6,.6,-1,1.5,-1,2.4c0,.9,.4,1.8,1,2.4c.7,.7,1.5,1,2.5,1Z" class="g3_38" />
</svg>