<?xml version="1.0" encoding="UTF-8" standalone="no"?>
<!DOCTYPE svg PUBLIC "-//W3C//DTD SVG 1.1//EN"
"http://www.w3.org/Graphics/SVG/1.1/DTD/svg11.dtd">
<svg viewBox="0 0 909 1286" version="1.1" xmlns="http://www.w3.org/2000/svg" xmlns:xlink="http://www.w3.org/1999/xlink">
<defs>
<style type="text/css"><![CDATA[
.g0_59{
fill: #B3B3E5;
stroke: #000000;
stroke-width: 1.588889;
stroke-linecap: butt;
stroke-linejoin: miter;
stroke-miterlimit: 4;
}
.g1_59{
}
.g2_59{
fill: none;
stroke: #000000;
stroke-width: 1.588889;
stroke-linecap: butt;
stroke-linejoin: miter;
stroke-miterlimit: 4;
}
.g3_59{
stroke: #000000;
stroke-width: 0.56112325;
stroke-linecap: butt;
stroke-linejoin: miter;
stroke-miterlimit: 4;
}
.g4_59{
fill: none;
stroke: #000000;
stroke-width: 1.5521559;
stroke-linecap: butt;
stroke-linejoin: miter;
stroke-miterlimit: 4;
}
.g5_59{
stroke: #000000;
stroke-width: 0.5251273;
stroke-linecap: butt;
stroke-linejoin: miter;
stroke-miterlimit: 4;
}
.g6_59{
stroke: #000000;
stroke-width: 0.78291506;
stroke-linecap: butt;
stroke-linejoin: miter;
stroke-miterlimit: 4;
}
.g7_59{
fill: none;
stroke: #000000;
stroke-width: 1.570726;
stroke-linecap: butt;
stroke-linejoin: miter;
stroke-miterlimit: 4;
}
.g8_59{
stroke: #000000;
stroke-width: 0.77522886;
stroke-linecap: butt;
stroke-linejoin: miter;
stroke-miterlimit: 4;
}
.g9_59{
fill: none;
stroke: #000000;
stroke-width: 0.6080556;
stroke-linecap: butt;
stroke-linejoin: miter;
}
]]></style>
</defs>
<path d="M401.4,196.1c0,14.2,-12.4,25.7,-27.7,25.7C358.4,221.8,346,210.3,346,196.1c0,-14.2,12.4,-25.7,27.7,-25.7c15.3,0,27.7,11.5,27.7,25.7Z" class="g0_59" />
<path d="M564.7,198.5c0,14.2,-12.4,25.7,-27.7,25.7c-15.3,0,-27.7,-11.5,-27.7,-25.7c0,-14.2,12.4,-25.7,27.7,-25.7c15.3,0,27.7,11.5,27.7,25.7Z" class="g0_59" />
<path d="M373,193.7v9.6h1.7V189.8h-1.1c-.6,2.1,-1,2.4,-3.6,2.7v1.2Z" class="g1_59" />
<path d="M533.1,197.3h1.7c.1,-1.2,.4,-3.2,2.7,-3.2c1.6,0,2.7,1.1,2.7,2.5c0,1.1,-.6,2,-1.8,2.7l-1.8,1c-2.8,1.6,-3.6,2.9,-3.8,5.8h9v-1.6h-7.1c.2,-1.1,.8,-1.9,2.5,-2.8l1.9,-1c1.9,-1.1,2.8,-2.5,2.8,-4.1c0,-2.4,-1.7,-4,-4.3,-4c-1.8,0,-4.3,.6,-4.5,4.7Z" class="g1_59" />
<path d="M372.5,170c0,0,51.7,-46.5,83.5,-46c32,.5,79,47.6,79,47.6" class="g2_59" />
<path fill-rule="evenodd" d="M530.5,167.1H526l10.1,5.7l-5.6,-10.2Z" class="g3_59" />
<path d="M538.1,223.8c0,0,-48.5,47.4,-78.3,46.9c-30,-.5,-74.1,-48.5,-74.1,-48.5" class="g4_59" />
<path fill-rule="evenodd" d="M389.9,226.8l4.4,.2l-9.6,-5.9l5,10.1Z" class="g5_59" />
<path d="M350.4,180.9c0,0,-93.9,-15,-93.9,16.8c0,33.2,94.7,16.9,94.7,16.9" class="g2_59" />
<path fill-rule="evenodd" d="M345,215.7l-2.6,3.6l10.4,-5l-11.5,-1.2Z" class="g6_59" />
<path d="M560.7,184.9c0,0,91.7,-14.9,91.7,16.9c0,33.1,-95.6,17.6,-95.6,17.6" class="g7_59" />
<path fill-rule="evenodd" d="M563,220.4l3.6,-2.6l-11.4,1.4l10.4,4.8Z" class="g8_59" />
<path d="M460.5,110.4c0,-1.3,-.7,-2.1,-1.9,-2.1c-.8,0,-1.7,.4,-2,1.1l.2,-1h-.9l-1.8,8.2h.9l.7,-3.1c.4,.7,.8,1,1.6,1c1.9,0,3.2,-1.8,3.2,-4.1Zm-3.1,3.3c-.8,0,-1.3,-.6,-1.3,-1.5c0,-.7,.4,-3.1,2.1,-3.1c.9,0,1.4,.6,1.4,1.6c0,.5,-.4,3,-2.2,3Z" class="g1_59" />
<path d="M461.7,115.1l-.9,4h.7l1.2,-5.7h-.5c-.4,.9,-.5,1,-1.7,1.2l-.1,.5Zm4.9,-1.7c-1.2,0,-1.9,.6,-2.3,2h.7c.1,-.3,.3,-1.4,1.5,-1.4c.5,0,.9,.4,.9,.9c0,.5,-.4,1,-1,1.3l-.9,.4c-1.4,.7,-1.7,1.2,-2.1,2.5h3.8l.1,-.7h-3c.2,-.4,.6,-.8,1.3,-1.2l.9,-.4c1.1,-.5,1.6,-1.2,1.6,-2c0,-.5,-.3,-1.4,-1.5,-1.4Z" class="g1_59" />
<path d="M463.3,282.3c0,-1.3,-.8,-2.1,-2,-2.1c-.7,0,-1.7,.4,-2,1.1l.2,-1h-.9l-1.8,8.3h1l.6,-3.2c.4,.7,.8,1,1.6,1c1.9,0,3.3,-1.8,3.3,-4.1Zm-3.2,3.3c-.8,0,-1.3,-.6,-1.3,-1.5c0,-.7,.4,-3.1,2.2,-3.1c.8,0,1.3,.6,1.3,1.6c0,.6,-.4,3,-2.2,3Z" class="g1_59" />
<path d="M466.9,286.1c-1.5,0,-2.4,.7,-2.7,2.3h.8c.1,-.3,.3,-1.6,1.7,-1.6c.7,0,1.1,.4,1.1,1c0,.6,-.4,1.2,-1.2,1.6l-1,.5c-1.7,.8,-2.1,1.4,-2.5,2.9h4.5l.2,-.8h-3.6c.1,-.5,.7,-1,1.5,-1.4l1.1,-.5c1.3,-.6,1.9,-1.4,1.9,-2.4c0,-.7,-.4,-1.6,-1.8,-1.6Zm4.7,1.9l-1.1,4.8h.9l1.4,-6.7h-.5c-.5,1,-.7,1.1,-2.1,1.3l-.1,.6Z" class="g1_59" />
<path d="M662.6,196.8c0,-1.4,-.7,-2.2,-1.9,-2.2c-.8,0,-1.7,.4,-2,1.1l.2,-.9H658l-1.8,8.2h.9l.7,-3.2c.4,.8,.8,1.1,1.6,1.1c1.9,0,3.2,-1.8,3.2,-4.1Zm-3.1,3.2c-.8,0,-1.3,-.6,-1.3,-1.4c0,-.8,.4,-3.1,2.2,-3.1c.8,0,1.3,.5,1.3,1.5c0,.6,-.4,3,-2.2,3Z" class="g1_59" />
<path d="M666.2,200.5c-1.5,0,-2.3,.7,-2.7,2.3h.9c.1,-.3,.3,-1.6,1.7,-1.6c.7,0,1.1,.4,1.1,1.1c0,.6,-.5,1.1,-1.2,1.5l-1,.5c-1.7,.9,-2.1,1.4,-2.5,2.9H667l.1,-.8h-3.6c.2,-.5,.7,-.9,1.6,-1.3l1.1,-.6c1.2,-.6,1.9,-1.4,1.9,-2.4c0,-.6,-.4,-1.6,-1.9,-1.6Zm5.3,0c-1.4,0,-2.3,.7,-2.7,2.3h.9c.1,-.3,.3,-1.6,1.7,-1.6c.7,0,1.1,.4,1.1,1.1c0,.6,-.4,1.1,-1.2,1.5l-1,.5c-1.7,.9,-2.1,1.4,-2.5,2.9h4.5l.1,-.8h-3.6c.2,-.5,.7,-.9,1.6,-1.3l1.1,-.6c1.2,-.6,1.9,-1.4,1.9,-2.4c0,-.6,-.4,-1.6,-1.9,-1.6Z" class="g1_59" />
<path d="M242.5,188.7c0,-1.3,-.7,-2.1,-1.9,-2.1c-.8,0,-1.7,.4,-2.1,1.1l.3,-1h-.9l-1.8,8.3h.9l.7,-3.2c.4,.8,.8,1,1.6,1c1.9,0,3.2,-1.8,3.2,-4.1Zm-3.1,3.3c-.8,0,-1.3,-.6,-1.3,-1.5c0,-.7,.4,-3.1,2.1,-3.1c.9,0,1.4,.6,1.4,1.6c0,.6,-.4,3,-2.2,3Z" class="g1_59" />
<path d="M245.5,194.4l-1,4.8h.8l1.5,-6.7h-.6c-.5,1,-.7,1.1,-2.1,1.3l-.1,.6Zm5.3,0l-1,4.8h.8l1.5,-6.7h-.6c-.5,1,-.7,1.1,-2.1,1.3l-.1,.6Z" class="g1_59" />
<path d="M108.3,1142.6H385.4" class="g9_59" />
</svg>