<?xml version="1.0" encoding="UTF-8" standalone="no"?>
<!DOCTYPE svg PUBLIC "-//W3C//DTD SVG 1.1//EN"
"http://www.w3.org/Graphics/SVG/1.1/DTD/svg11.dtd">
<svg viewBox="0 0 909 1286" version="1.1" xmlns="http://www.w3.org/2000/svg" xmlns:xlink="http://www.w3.org/1999/xlink">
<defs>
<style type="text/css"><![CDATA[
.g0_71{
fill: none;
stroke: #000000;
stroke-width: 0.6080556;
stroke-linecap: butt;
stroke-linejoin: miter;
}
]]></style>
</defs>
<path d="M108.3,332.9H801.2m-692.6,9v-8.7m692.3,8.7v-8.7M108.6,362.6V341.9m692.3,20.7V341.9M108.6,383.3V362.6m692.3,20.7V362.6M108.6,404V383.3M800.9,404V383.3M108.6,424.7V404m692.3,20.7V404M108.6,445.4V424.7m692.3,20.7V424.7M108.6,466.1V445.4m692.3,20.7V445.4M108.6,486.8V466.1m692.3,20.7V466.1M108.6,507.5V486.8m692.3,20.7V486.8M108.6,528.2V507.5m692.3,20.7V507.5M108.6,548.9V528.2m692.3,20.7V528.2M108.6,569.6V548.9m692.3,20.7V548.9M108.6,590.3V569.6m692.3,20.7V569.6M108.6,611V590.3M800.9,611V590.3M108.6,631.7V611m692.3,20.7V611M108.6,640.4v-8.7m692.3,8.7v-8.7m-692.6,9H801.2M366.3,821.1H372M560.1,966.6h5.6" class="g0_71" />
</svg>